<svg xmlns="http://www.w3.org/2000/svg" width="1920" height="1080"> <rect width="100%" height="100%" fill="#000"/><g xmlns="http://www.w3.org/2000/svg" transform="translate(0,0) scale(1.0)"> <text  x="1080" y="60" font-family="Consolas" font-size="52" text-anchor="middle" fill="white">REAL  GDP ANNUAL PERCENT CHANGE (2018-2029) [IMF DATA]</text><text  x="1780" y="1050" font-family="Consolas" font-size="32" text-anchor="middle" fill="white">ZOOMIT WORLD</text><image x="180" y="-50" width="280" height="280" href="https://cdn.jsdelivr.net/gh/hampusborgos/country-flags@main/svg/st.svg"></image><text x="70" y="180" font-family="Consolas" font-size="50" text-anchor="middle" fill="white">5%</text><text x="70" y="582.857142857143" font-family="Consolas" font-size="50" text-anchor="middle" fill="white">2.5%</text><text x="70" y="985.714285714286" font-family="Consolas" font-size="50" text-anchor="middle" fill="white">0%</text><text x="70" y="1002.85714285714" font-family="Consolas" font-size="50" text-anchor="middle" fill="white">0%</text><text x="70" y="1020" font-family="Consolas" font-size="50" text-anchor="middle" fill="white">0%</text><line  x1="141.54" y1="180" x2="141.54" y2="1020" stroke="white" stroke-width="2"/><line x1="141.54"  y1="985.714285714286" x2="1920" y2="985.714285714286" stroke="white" stroke-width="5"/><g><rect x="171.54" y="231.428571428571" width="100" height="754.29" fill="none" stroke="limegreen" stroke-width="2"/><rect x="319.25" y="642.857142857143" width="100" height="342.86" fill="none" stroke="limegreen" stroke-width="2"/><rect x="466.96" y="540" width="100" height="445.71" fill="none" stroke="limegreen" stroke-width="2"/><rect x="614.67" y="660" width="100" height="325.71" fill="none" stroke="limegreen" stroke-width="2"/><rect x="762.38" y="951.428571428571" width="100" height="34.29" fill="none" stroke="limegreen" stroke-width="2"/><rect x="910.09" y="917.142857142857" width="100" height="68.57" fill="none" stroke="limegreen" stroke-width="2"/><rect x="1057.8" y="797.142857142857" width="100" height="188.57" fill="none" stroke="limegreen" stroke-width="2"/><rect x="1205.51" y="420" width="100" height="565.71" fill="none" stroke="limegreen" stroke-width="2"/><rect x="1353.22" y="180" width="100" height="805.71" fill="none" stroke="limegreen" stroke-width="2"/><rect x="1500.93" y="282.857142857143" width="100" height="702.86" fill="none" stroke="limegreen" stroke-width="2"/><rect x="1648.64" y="385.714285714286" width="100" height="600.00" fill="none" stroke="limegreen" stroke-width="2"/><rect x="1796.35" y="385.714285714286" width="100" height="600.00" fill="none" stroke="limegreen" stroke-width="2"/>  </g><g><text x="221.54" y="221.43" font-family="Consolas" font-size="48" text-anchor="middle" fill="white">4.4</text><text x="369.25" y="632.86" font-family="Consolas" font-size="48" text-anchor="middle" fill="white">2</text><text x="516.96" y="530" font-family="Consolas" font-size="48" text-anchor="middle" fill="white">2.6</text><text x="664.67" y="650" font-family="Consolas" font-size="48" text-anchor="middle" fill="white">1.9</text><text x="812.38" y="941.43" font-family="Consolas" font-size="48" text-anchor="middle" fill="white">0.2</text><text x="960.09" y="907.14" font-family="Consolas" font-size="48" text-anchor="middle" fill="white">0.4</text><text x="1107.8" y="787.14" font-family="Consolas" font-size="48" text-anchor="middle" fill="white">1.1</text><text x="1255.51" y="410" font-family="Consolas" font-size="48" text-anchor="middle" fill="white">3.3</text><text x="1403.22" y="170" font-family="Consolas" font-size="48" text-anchor="middle" fill="white">4.7</text><text x="1550.93" y="272.86" font-family="Consolas" font-size="48" text-anchor="middle" fill="white">4.1</text><text x="1698.64" y="375.71" font-family="Consolas" font-size="48" text-anchor="middle" fill="white">3.5</text><text x="1846.35" y="375.71" font-family="Consolas" font-size="48" text-anchor="middle" fill="white">3.5</text> </g><g><text x="231.54" y="1000.71428571429" transform="rotate(270 221.54 985.714285714286)" font-family="Consolas" font-size="50" fill="limegreen">2018</text><text x="379.25" y="1000.71428571429" transform="rotate(270 369.25 985.714285714286)" font-family="Consolas" font-size="50" fill="limegreen">2019</text><text x="526.96" y="1000.71428571429" transform="rotate(270 516.96 985.714285714286)" font-family="Consolas" font-size="50" fill="limegreen">2020</text><text x="674.67" y="1000.71428571429" transform="rotate(270 664.67 985.714285714286)" font-family="Consolas" font-size="50" fill="limegreen">2021</text><text x="822.38" y="1000.71428571429" transform="rotate(270 812.38 985.714285714286)" font-family="Consolas" font-size="50" fill="limegreen">2022</text><text x="970.09" y="1000.71428571429" transform="rotate(270 960.09 985.714285714286)" font-family="Consolas" font-size="50" fill="limegreen">2023</text><text x="1117.8" y="1000.71428571429" transform="rotate(270 1107.8 985.714285714286)" font-family="Consolas" font-size="50" fill="limegreen">2024</text><text x="1265.51" y="1000.71428571429" transform="rotate(270 1255.51 985.714285714286)" font-family="Consolas" font-size="50" fill="limegreen">2025</text><text x="1413.22" y="1000.71428571429" transform="rotate(270 1403.22 985.714285714286)" font-family="Consolas" font-size="50" fill="limegreen">2026</text><text x="1560.93" y="1000.71428571429" transform="rotate(270 1550.93 985.714285714286)" font-family="Consolas" font-size="50" fill="limegreen">2027</text><text x="1708.64" y="1000.71428571429" transform="rotate(270 1698.64 985.714285714286)" font-family="Consolas" font-size="50" fill="limegreen">2028</text><text x="1856.35" y="1000.71428571429" transform="rotate(270 1846.35 985.714285714286)" font-family="Consolas" font-size="50" fill="limegreen">2029</text></g></g></svg>
