<svg xmlns="http://www.w3.org/2000/svg" width="1920" height="1080"> <rect width="100%" height="100%" fill="#000"/><g xmlns="http://www.w3.org/2000/svg" transform="translate(0,0) scale(1.0)"> <text  x="1080" y="60" font-family="Consolas" font-size="52" text-anchor="middle" fill="white">REAL  GDP ANNUAL PERCENT CHANGE (2018-2029) [IMF DATA]</text><text  x="1780" y="1050" font-family="Consolas" font-size="32" text-anchor="middle" fill="white">ZOOMIT WORLD</text><image x="180" y="-50" width="280" height="280" href="https://cdn.jsdelivr.net/gh/hampusborgos/country-flags@main/svg/tn.svg"></image><text x="70" y="180" font-family="Consolas" font-size="50" text-anchor="middle" fill="white">5%</text><text x="70" y="324.087591240876" font-family="Consolas" font-size="50" text-anchor="middle" fill="white">2.5%</text><text x="70" y="468.175182481752" font-family="Consolas" font-size="50" text-anchor="middle" fill="white">0%</text><text x="70" y="744.087591240876" font-family="Consolas" font-size="50" text-anchor="middle" fill="white">-4.5%</text><text x="70" y="1020" font-family="Consolas" font-size="50" text-anchor="middle" fill="white">-9%</text><line  x1="141.54" y1="180" x2="141.54" y2="1020" stroke="white" stroke-width="2"/><line x1="141.54"  y1="468.175182481752" x2="1920" y2="468.175182481752" stroke="white" stroke-width="5"/><g><rect x="171.54" y="308.759124087591" width="100" height="159.42" fill="none" stroke="limegreen" stroke-width="2"/><rect x="319.25" y="370.07299270073" width="100" height="98.10" fill="none" stroke="limegreen" stroke-width="2"/><rect x="614.67" y="180" width="100" height="288.18" fill="none" stroke="limegreen" stroke-width="2"/><rect x="762.38" y="302.627737226277" width="100" height="165.55" fill="none" stroke="limegreen" stroke-width="2"/><rect x="1057.8" y="370.07299270073" width="100" height="98.10" fill="none" stroke="limegreen" stroke-width="2"/><rect x="1205.51" y="370.07299270073" width="100" height="98.10" fill="none" stroke="limegreen" stroke-width="2"/><rect x="1353.22" y="376.204379562044" width="100" height="91.97" fill="none" stroke="limegreen" stroke-width="2"/><rect x="1500.93" y="376.204379562044" width="100" height="91.97" fill="none" stroke="limegreen" stroke-width="2"/><rect x="1648.64" y="388.467153284672" width="100" height="79.71" fill="none" stroke="limegreen" stroke-width="2"/><rect x="1796.35" y="394.598540145985" width="100" height="73.58" fill="none" stroke="limegreen" stroke-width="2"/> <rect x="466.96" y="468.175182481752" width="100" height="551.82" fill="none" stroke="limegreen" stroke-width="2"/> </g><g><text x="221.54" y="298.76" font-family="Consolas" font-size="48" text-anchor="middle" fill="white">2.6</text><text x="369.25" y="360.07" font-family="Consolas" font-size="48" text-anchor="middle" fill="white">1.6</text><text x="664.67" y="170" font-family="Consolas" font-size="48" text-anchor="middle" fill="white">4.7</text><text x="812.38" y="292.63" font-family="Consolas" font-size="48" text-anchor="middle" fill="white">2.7</text><text x="1107.8" y="360.07" font-family="Consolas" font-size="48" text-anchor="middle" fill="white">1.6</text><text x="1255.51" y="360.07" font-family="Consolas" font-size="48" text-anchor="middle" fill="white">1.6</text><text x="1403.22" y="366.2" font-family="Consolas" font-size="48" text-anchor="middle" fill="white">1.5</text><text x="1550.93" y="366.2" font-family="Consolas" font-size="48" text-anchor="middle" fill="white">1.5</text><text x="1698.64" y="378.47" font-family="Consolas" font-size="48" text-anchor="middle" fill="white">1.3</text><text x="1846.35" y="384.6" font-family="Consolas" font-size="48" text-anchor="middle" fill="white">1.2</text> <text x="466.96" y="1010" font-family="Consolas" font-size="48" ttext-anchor="middle" fill="white">-9</text></g><g><text x="231.54" y="483.175182481752" transform="rotate(270 221.54 468.175182481752)" font-family="Consolas" font-size="50" fill="limegreen">2018</text><text x="379.25" y="483.175182481752" transform="rotate(270 369.25 468.175182481752)" font-family="Consolas" font-size="50" fill="limegreen">2019</text><text x="526.96" y="483.175182481752" transform="rotate(270 516.96 468.175182481752)" font-family="Consolas" font-size="50" fill="limegreen">2020</text><text x="674.67" y="483.175182481752" transform="rotate(270 664.67 468.175182481752)" font-family="Consolas" font-size="50" fill="limegreen">2021</text><text x="822.38" y="483.175182481752" transform="rotate(270 812.38 468.175182481752)" font-family="Consolas" font-size="50" fill="limegreen">2022</text><text x="970.09" y="483.175182481752" transform="rotate(270 960.09 468.175182481752)" font-family="Consolas" font-size="50" fill="limegreen">2023</text><text x="1117.8" y="483.175182481752" transform="rotate(270 1107.8 468.175182481752)" font-family="Consolas" font-size="50" fill="limegreen">2024</text><text x="1265.51" y="483.175182481752" transform="rotate(270 1255.51 468.175182481752)" font-family="Consolas" font-size="50" fill="limegreen">2025</text><text x="1413.22" y="483.175182481752" transform="rotate(270 1403.22 468.175182481752)" font-family="Consolas" font-size="50" fill="limegreen">2026</text><text x="1560.93" y="483.175182481752" transform="rotate(270 1550.93 468.175182481752)" font-family="Consolas" font-size="50" fill="limegreen">2027</text><text x="1708.64" y="483.175182481752" transform="rotate(270 1698.64 468.175182481752)" font-family="Consolas" font-size="50" fill="limegreen">2028</text><text x="1856.35" y="483.175182481752" transform="rotate(270 1846.35 468.175182481752)" font-family="Consolas" font-size="50" fill="limegreen">2029</text></g></g></svg>
