<svg xmlns="http://www.w3.org/2000/svg" width="1920" height="1080"> <rect width="100%" height="100%" fill="#000"/><g xmlns="http://www.w3.org/2000/svg" transform="translate(0,0) scale(1.0)"> <text  x="1080" y="60" font-family="Consolas" font-size="52" text-anchor="middle" fill="white">REAL  GDP ANNUAL PERCENT CHANGE (2018-2029) [IMF DATA]</text><text  x="1700" y="1050" font-family="Consolas" font-size="22" text-anchor="middle" fill="white">DESIGNED BY ZOOMIT WORLD</text><image x="180" y="-50" width="280" height="280" href="https://cdn.jsdelivr.net/gh/hampusborgos/country-flags@main/svg/bs.svg"></image><text x="70" y="180" font-family="Consolas" font-size="50" text-anchor="middle" fill="white">38%</text><text x="70" y="404.277620396601" font-family="Consolas" font-size="50" text-anchor="middle" fill="white">19%</text><text x="70" y="628.555240793201" font-family="Consolas" font-size="50" text-anchor="middle" fill="white">0%</text><text x="70" y="824.277620396601" font-family="Consolas" font-size="50" text-anchor="middle" fill="white">-16.5%</text><text x="70" y="1020" font-family="Consolas" font-size="50" text-anchor="middle" fill="white">-33%</text><line  x1="141.54" y1="180" x2="141.54" y2="1020" stroke="white" stroke-width="2"/><line x1="141.54"  y1="628.555240793201" x2="1920" y2="628.555240793201" stroke="white" stroke-width="5"/><g><rect x="171.54" y="525.042492917847" width="100" height="103.51" fill="none" stroke="limegreen" stroke-width="2"/><rect x="319.25" y="541.699716713881" width="100" height="86.86" fill="none" stroke="limegreen" stroke-width="2"/><rect x="614.67" y="180" width="100" height="448.56" fill="none" stroke="limegreen" stroke-width="2"/><rect x="762.38" y="463.172804532578" width="100" height="165.38" fill="none" stroke="limegreen" stroke-width="2"/><rect x="910.09" y="580.963172804533" width="100" height="47.59" fill="none" stroke="limegreen" stroke-width="2"/><rect x="1057.8" y="572.634560906516" width="100" height="55.92" fill="none" stroke="limegreen" stroke-width="2"/><rect x="1205.51" y="572.634560906516" width="100" height="55.92" fill="none" stroke="limegreen" stroke-width="2"/><rect x="1353.22" y="571.444759206799" width="100" height="57.11" fill="none" stroke="limegreen" stroke-width="2"/><rect x="1500.93" y="575.014164305949" width="100" height="53.54" fill="none" stroke="limegreen" stroke-width="2"/><rect x="1648.64" y="575.014164305949" width="100" height="53.54" fill="none" stroke="limegreen" stroke-width="2"/><rect x="1796.35" y="575.014164305949" width="100" height="53.54" fill="none" stroke="limegreen" stroke-width="2"/> <rect x="466.96" y="628.555240793201" width="100" height="391.44" fill="none" stroke="limegreen" stroke-width="2"/> </g><g><text x="221.54" y="515.04" font-family="Consolas" font-size="48" text-anchor="middle" fill="white">8.7</text><text x="369.25" y="531.7" font-family="Consolas" font-size="48" text-anchor="middle" fill="white">7.3</text><text x="664.67" y="170" font-family="Consolas" font-size="48" text-anchor="middle" fill="white">37.7</text><text x="812.38" y="453.17" font-family="Consolas" font-size="48" text-anchor="middle" fill="white">13.9</text><text x="960.09" y="570.96" font-family="Consolas" font-size="48" text-anchor="middle" fill="white">4</text><text x="1107.8" y="562.63" font-family="Consolas" font-size="48" text-anchor="middle" fill="white">4.7</text><text x="1255.51" y="562.63" font-family="Consolas" font-size="48" text-anchor="middle" fill="white">4.7</text><text x="1403.22" y="561.44" font-family="Consolas" font-size="48" text-anchor="middle" fill="white">4.8</text><text x="1550.93" y="565.01" font-family="Consolas" font-size="48" text-anchor="middle" fill="white">4.5</text><text x="1698.64" y="565.01" font-family="Consolas" font-size="48" text-anchor="middle" fill="white">4.5</text><text x="1846.35" y="565.01" font-family="Consolas" font-size="48" text-anchor="middle" fill="white">4.5</text> <text x="466.96" y="1010" font-family="Consolas" font-size="48" ttext-anchor="middle" fill="white">-32.9</text></g><g><text x="231.54" y="643.555240793201" transform="rotate(270 221.54 628.555240793201)" font-family="Consolas" font-size="50" fill="limegreen">2018</text><text x="379.25" y="643.555240793201" transform="rotate(270 369.25 628.555240793201)" font-family="Consolas" font-size="50" fill="limegreen">2019</text><text x="526.96" y="643.555240793201" transform="rotate(270 516.96 628.555240793201)" font-family="Consolas" font-size="50" fill="limegreen">2020</text><text x="674.67" y="643.555240793201" transform="rotate(270 664.67 628.555240793201)" font-family="Consolas" font-size="50" fill="limegreen">2021</text><text x="822.38" y="643.555240793201" transform="rotate(270 812.38 628.555240793201)" font-family="Consolas" font-size="50" fill="limegreen">2022</text><text x="970.09" y="643.555240793201" transform="rotate(270 960.09 628.555240793201)" font-family="Consolas" font-size="50" fill="limegreen">2023</text><text x="1117.8" y="643.555240793201" transform="rotate(270 1107.8 628.555240793201)" font-family="Consolas" font-size="50" fill="limegreen">2024</text><text x="1265.51" y="643.555240793201" transform="rotate(270 1255.51 628.555240793201)" font-family="Consolas" font-size="50" fill="limegreen">2025</text><text x="1413.22" y="643.555240793201" transform="rotate(270 1403.22 628.555240793201)" font-family="Consolas" font-size="50" fill="limegreen">2026</text><text x="1560.93" y="643.555240793201" transform="rotate(270 1550.93 628.555240793201)" font-family="Consolas" font-size="50" fill="limegreen">2027</text><text x="1708.64" y="643.555240793201" transform="rotate(270 1698.64 628.555240793201)" font-family="Consolas" font-size="50" fill="limegreen">2028</text><text x="1856.35" y="643.555240793201" transform="rotate(270 1846.35 628.555240793201)" font-family="Consolas" font-size="50" fill="limegreen">2029</text></g></g></svg>
