<svg xmlns="http://www.w3.org/2000/svg" width="1920" height="1080"> <rect width="100%" height="100%" fill="#000"/><g xmlns="http://www.w3.org/2000/svg" transform="translate(0,0) scale(1.0)"> <text  x="1080" y="60" font-family="Consolas" font-size="52" text-anchor="middle" fill="white">REAL  GDP ANNUAL PERCENT CHANGE (2018-2029) [IMF DATA]</text><text  x="1780" y="1050" font-family="Consolas" font-size="32" text-anchor="middle" fill="white">ZOOMIT WORLD</text><image x="180" y="-50" width="280" height="280" href="https://cdn.jsdelivr.net/gh/hampusborgos/country-flags@main/svg/fi.svg"></image><text x="70" y="180" font-family="Consolas" font-size="50" text-anchor="middle" fill="white">3%</text><text x="70" y="398.076923076923" font-family="Consolas" font-size="50" text-anchor="middle" fill="white">1.5%</text><text x="70" y="616.153846153846" font-family="Consolas" font-size="50" text-anchor="middle" fill="white">0%</text><text x="70" y="818.076923076923" font-family="Consolas" font-size="50" text-anchor="middle" fill="white">-1.5%</text><text x="70" y="1020" font-family="Consolas" font-size="50" text-anchor="middle" fill="white">-3%</text><line  x1="141.54" y1="180" x2="141.54" y2="1020" stroke="white" stroke-width="2"/><line x1="141.54"  y1="616.153846153846" x2="1920" y2="616.153846153846" stroke="white" stroke-width="5"/><g><rect x="171.54" y="422.307692307692" width="100" height="193.85" fill="none" stroke="limegreen" stroke-width="2"/><rect x="319.25" y="406.153846153846" width="100" height="210.00" fill="none" stroke="limegreen" stroke-width="2"/><rect x="614.67" y="180" width="100" height="436.15" fill="none" stroke="limegreen" stroke-width="2"/><rect x="762.38" y="373.846153846154" width="100" height="242.31" fill="none" stroke="limegreen" stroke-width="2"/><rect x="1205.51" y="293.076923076923" width="100" height="323.08" fill="none" stroke="limegreen" stroke-width="2"/><rect x="1353.22" y="325.384615384615" width="100" height="290.77" fill="none" stroke="limegreen" stroke-width="2"/><rect x="1500.93" y="341.538461538462" width="100" height="274.62" fill="none" stroke="limegreen" stroke-width="2"/><rect x="1648.64" y="357.692307692308" width="100" height="258.46" fill="none" stroke="limegreen" stroke-width="2"/><rect x="1796.35" y="373.846153846154" width="100" height="242.31" fill="none" stroke="limegreen" stroke-width="2"/> <rect x="466.96" y="616.153846153846" width="100" height="403.85" fill="none" stroke="limegreen" stroke-width="2"/><rect x="910.09" y="616.153846153846" width="100" height="193.85" fill="none" stroke="limegreen" stroke-width="2"/><rect x="1057.8" y="616.153846153846" width="100" height="32.31" fill="none" stroke="limegreen" stroke-width="2"/> </g><g><text x="221.54" y="412.31" font-family="Consolas" font-size="48" text-anchor="middle" fill="white">1.2</text><text x="369.25" y="396.15" font-family="Consolas" font-size="48" text-anchor="middle" fill="white">1.3</text><text x="664.67" y="170" font-family="Consolas" font-size="48" text-anchor="middle" fill="white">2.7</text><text x="812.38" y="363.85" font-family="Consolas" font-size="48" text-anchor="middle" fill="white">1.5</text><text x="1255.51" y="283.08" font-family="Consolas" font-size="48" text-anchor="middle" fill="white">2</text><text x="1403.22" y="315.38" font-family="Consolas" font-size="48" text-anchor="middle" fill="white">1.8</text><text x="1550.93" y="331.54" font-family="Consolas" font-size="48" text-anchor="middle" fill="white">1.7</text><text x="1698.64" y="347.69" font-family="Consolas" font-size="48" text-anchor="middle" fill="white">1.6</text><text x="1846.35" y="363.85" font-family="Consolas" font-size="48" text-anchor="middle" fill="white">1.5</text> <text x="466.96" y="1010" font-family="Consolas" font-size="48" ttext-anchor="middle" fill="white">-2.5</text><text x="910.09" y="800" font-family="Consolas" font-size="48" ttext-anchor="middle" fill="white">-1.2</text><text x="1057.8" y="638.461538461539" font-family="Consolas" font-size="48" ttext-anchor="middle" fill="white">-0.2</text></g><g><text x="231.54" y="631.153846153846" transform="rotate(270 221.54 616.153846153846)" font-family="Consolas" font-size="50" fill="limegreen">2018</text><text x="379.25" y="631.153846153846" transform="rotate(270 369.25 616.153846153846)" font-family="Consolas" font-size="50" fill="limegreen">2019</text><text x="526.96" y="631.153846153846" transform="rotate(270 516.96 616.153846153846)" font-family="Consolas" font-size="50" fill="limegreen">2020</text><text x="674.67" y="631.153846153846" transform="rotate(270 664.67 616.153846153846)" font-family="Consolas" font-size="50" fill="limegreen">2021</text><text x="822.38" y="631.153846153846" transform="rotate(270 812.38 616.153846153846)" font-family="Consolas" font-size="50" fill="limegreen">2022</text><text x="970.09" y="631.153846153846" transform="rotate(270 960.09 616.153846153846)" font-family="Consolas" font-size="50" fill="limegreen">2023</text><text x="1117.8" y="631.153846153846" transform="rotate(270 1107.8 616.153846153846)" font-family="Consolas" font-size="50" fill="limegreen">2024</text><text x="1265.51" y="631.153846153846" transform="rotate(270 1255.51 616.153846153846)" font-family="Consolas" font-size="50" fill="limegreen">2025</text><text x="1413.22" y="631.153846153846" transform="rotate(270 1403.22 616.153846153846)" font-family="Consolas" font-size="50" fill="limegreen">2026</text><text x="1560.93" y="631.153846153846" transform="rotate(270 1550.93 616.153846153846)" font-family="Consolas" font-size="50" fill="limegreen">2027</text><text x="1708.64" y="631.153846153846" transform="rotate(270 1698.64 616.153846153846)" font-family="Consolas" font-size="50" fill="limegreen">2028</text><text x="1856.35" y="631.153846153846" transform="rotate(270 1846.35 616.153846153846)" font-family="Consolas" font-size="50" fill="limegreen">2029</text></g></g></svg>
