<svg xmlns="http://www.w3.org/2000/svg" width="1920" height="1080"> <rect width="100%" height="100%" fill="#000"/><g xmlns="http://www.w3.org/2000/svg" transform="translate(0,0) scale(1.0)"> <text  x="1080" y="60" font-family="Consolas" font-size="52" text-anchor="middle" fill="white">REAL  GDP ANNUAL PERCENT CHANGE (2018-2029) [IMF DATA]</text><text  x="1780" y="1050" font-family="Consolas" font-size="32" text-anchor="middle" fill="white">ZOOMIT WORLD</text><image x="180" y="-50" width="280" height="280" href="https://cdn.jsdelivr.net/gh/hampusborgos/country-flags@main/svg/jp.svg"></image><text x="70" y="180" font-family="Consolas" font-size="50" text-anchor="middle" fill="white">3%</text><text x="70" y="344.347826086957" font-family="Consolas" font-size="50" text-anchor="middle" fill="white">1.5%</text><text x="70" y="508.695652173913" font-family="Consolas" font-size="50" text-anchor="middle" fill="white">0%</text><text x="70" y="764.347826086957" font-family="Consolas" font-size="50" text-anchor="middle" fill="white">-2%</text><text x="70" y="1020" font-family="Consolas" font-size="50" text-anchor="middle" fill="white">-4%</text><line  x1="141.54" y1="180" x2="141.54" y2="1020" stroke="white" stroke-width="2"/><line x1="141.54"  y1="508.695652173913" x2="1920" y2="508.695652173913" stroke="white" stroke-width="5"/><g><rect x="171.54" y="435.652173913043" width="100" height="73.04" fill="none" stroke="limegreen" stroke-width="2"/><rect x="614.67" y="180" width="100" height="328.70" fill="none" stroke="limegreen" stroke-width="2"/><rect x="762.38" y="362.608695652174" width="100" height="146.09" fill="none" stroke="limegreen" stroke-width="2"/><rect x="910.09" y="301.739130434783" width="100" height="206.96" fill="none" stroke="limegreen" stroke-width="2"/><rect x="1057.8" y="472.173913043478" width="100" height="36.52" fill="none" stroke="limegreen" stroke-width="2"/><rect x="1205.51" y="374.782608695652" width="100" height="133.91" fill="none" stroke="limegreen" stroke-width="2"/><rect x="1353.22" y="411.304347826087" width="100" height="97.39" fill="none" stroke="limegreen" stroke-width="2"/><rect x="1500.93" y="435.652173913043" width="100" height="73.04" fill="none" stroke="limegreen" stroke-width="2"/><rect x="1648.64" y="435.652173913043" width="100" height="73.04" fill="none" stroke="limegreen" stroke-width="2"/><rect x="1796.35" y="447.826086956522" width="100" height="60.87" fill="none" stroke="limegreen" stroke-width="2"/> <rect x="319.25" y="508.695652173913" width="100" height="48.70" fill="none" stroke="limegreen" stroke-width="2"/><rect x="466.96" y="508.695652173913" width="100" height="511.30" fill="none" stroke="limegreen" stroke-width="2"/> </g><g><text x="221.54" y="425.65" font-family="Consolas" font-size="48" text-anchor="middle" fill="white">0.6</text><text x="664.67" y="170" font-family="Consolas" font-size="48" text-anchor="middle" fill="white">2.7</text><text x="812.38" y="352.61" font-family="Consolas" font-size="48" text-anchor="middle" fill="white">1.2</text><text x="960.09" y="291.74" font-family="Consolas" font-size="48" text-anchor="middle" fill="white">1.7</text><text x="1107.8" y="462.17" font-family="Consolas" font-size="48" text-anchor="middle" fill="white">0.3</text><text x="1255.51" y="364.78" font-family="Consolas" font-size="48" text-anchor="middle" fill="white">1.1</text><text x="1403.22" y="401.3" font-family="Consolas" font-size="48" text-anchor="middle" fill="white">0.8</text><text x="1550.93" y="425.65" font-family="Consolas" font-size="48" text-anchor="middle" fill="white">0.6</text><text x="1698.64" y="425.65" font-family="Consolas" font-size="48" text-anchor="middle" fill="white">0.6</text><text x="1846.35" y="437.83" font-family="Consolas" font-size="48" text-anchor="middle" fill="white">0.5</text> <text x="319.25" y="547.391304347826" font-family="Consolas" font-size="48" ttext-anchor="middle" fill="white">-0.4</text><text x="466.96" y="1010" font-family="Consolas" font-size="48" ttext-anchor="middle" fill="white">-4.2</text></g><g><text x="231.54" y="523.695652173913" transform="rotate(270 221.54 508.695652173913)" font-family="Consolas" font-size="50" fill="limegreen">2018</text><text x="379.25" y="523.695652173913" transform="rotate(270 369.25 508.695652173913)" font-family="Consolas" font-size="50" fill="limegreen">2019</text><text x="526.96" y="523.695652173913" transform="rotate(270 516.96 508.695652173913)" font-family="Consolas" font-size="50" fill="limegreen">2020</text><text x="674.67" y="523.695652173913" transform="rotate(270 664.67 508.695652173913)" font-family="Consolas" font-size="50" fill="limegreen">2021</text><text x="822.38" y="523.695652173913" transform="rotate(270 812.38 508.695652173913)" font-family="Consolas" font-size="50" fill="limegreen">2022</text><text x="970.09" y="523.695652173913" transform="rotate(270 960.09 508.695652173913)" font-family="Consolas" font-size="50" fill="limegreen">2023</text><text x="1117.8" y="523.695652173913" transform="rotate(270 1107.8 508.695652173913)" font-family="Consolas" font-size="50" fill="limegreen">2024</text><text x="1265.51" y="523.695652173913" transform="rotate(270 1255.51 508.695652173913)" font-family="Consolas" font-size="50" fill="limegreen">2025</text><text x="1413.22" y="523.695652173913" transform="rotate(270 1403.22 508.695652173913)" font-family="Consolas" font-size="50" fill="limegreen">2026</text><text x="1560.93" y="523.695652173913" transform="rotate(270 1550.93 508.695652173913)" font-family="Consolas" font-size="50" fill="limegreen">2027</text><text x="1708.64" y="523.695652173913" transform="rotate(270 1698.64 508.695652173913)" font-family="Consolas" font-size="50" fill="limegreen">2028</text><text x="1856.35" y="523.695652173913" transform="rotate(270 1846.35 508.695652173913)" font-family="Consolas" font-size="50" fill="limegreen">2029</text></g></g></svg>
