<svg xmlns="http://www.w3.org/2000/svg" width="1920" height="1080"> <rect width="100%" height="100%" fill="#000"/><g xmlns="http://www.w3.org/2000/svg" transform="translate(0,0) scale(1.0)"> <text  x="1080" y="60" font-family="Consolas" font-size="52" text-anchor="middle" fill="white">REAL  GDP ANNUAL PERCENT CHANGE (2018-2029) [IMF DATA]</text><text  x="1780" y="1050" font-family="Consolas" font-size="32" text-anchor="middle" fill="white">ZOOMIT WORLD</text><image x="180" y="-50" width="280" height="280" href="https://cdn.jsdelivr.net/gh/hampusborgos/country-flags@main/svg/ua.svg"></image><text x="70" y="180" font-family="Consolas" font-size="50" text-anchor="middle" fill="white">5%</text><text x="70" y="245.278592375367" font-family="Consolas" font-size="50" text-anchor="middle" fill="white">2.5%</text><text x="70" y="310.557184750733" font-family="Consolas" font-size="50" text-anchor="middle" fill="white">0%</text><text x="70" y="665.278592375367" font-family="Consolas" font-size="50" text-anchor="middle" fill="white">-14.5%</text><text x="70" y="1020" font-family="Consolas" font-size="50" text-anchor="middle" fill="white">-29%</text><line  x1="141.54" y1="180" x2="141.54" y2="1020" stroke="white" stroke-width="2"/><line x1="141.54"  y1="310.557184750733" x2="1920" y2="310.557184750733" stroke="white" stroke-width="5"/><g><rect x="171.54" y="224.340175953079" width="100" height="86.22" fill="none" stroke="limegreen" stroke-width="2"/><rect x="319.25" y="231.730205278592" width="100" height="78.83" fill="none" stroke="limegreen" stroke-width="2"/><rect x="614.67" y="226.803519061584" width="100" height="83.75" fill="none" stroke="limegreen" stroke-width="2"/><rect x="910.09" y="180" width="100" height="130.56" fill="none" stroke="limegreen" stroke-width="2"/><rect x="1057.8" y="236.656891495601" width="100" height="73.90" fill="none" stroke="limegreen" stroke-width="2"/><rect x="1205.51" y="248.973607038123" width="100" height="61.58" fill="none" stroke="limegreen" stroke-width="2"/><rect x="1353.22" y="180" width="100" height="130.56" fill="none" stroke="limegreen" stroke-width="2"/><rect x="1500.93" y="199.706744868035" width="100" height="110.85" fill="none" stroke="limegreen" stroke-width="2"/><rect x="1648.64" y="204.633431085044" width="100" height="105.92" fill="none" stroke="limegreen" stroke-width="2"/><rect x="1796.35" y="207.096774193548" width="100" height="103.46" fill="none" stroke="limegreen" stroke-width="2"/> <rect x="466.96" y="310.557184750733" width="100" height="93.61" fill="none" stroke="limegreen" stroke-width="2"/><rect x="762.38" y="310.557184750733" width="100" height="709.44" fill="none" stroke="limegreen" stroke-width="2"/> </g><g><text x="221.54" y="214.34" font-family="Consolas" font-size="48" text-anchor="middle" fill="white">3.5</text><text x="369.25" y="221.73" font-family="Consolas" font-size="48" text-anchor="middle" fill="white">3.2</text><text x="664.67" y="216.8" font-family="Consolas" font-size="48" text-anchor="middle" fill="white">3.4</text><text x="960.09" y="170" font-family="Consolas" font-size="48" text-anchor="middle" fill="white">5.3</text><text x="1107.8" y="226.66" font-family="Consolas" font-size="48" text-anchor="middle" fill="white">3</text><text x="1255.51" y="238.97" font-family="Consolas" font-size="48" text-anchor="middle" fill="white">2.5</text><text x="1403.22" y="170" font-family="Consolas" font-size="48" text-anchor="middle" fill="white">5.3</text><text x="1550.93" y="189.71" font-family="Consolas" font-size="48" text-anchor="middle" fill="white">4.5</text><text x="1698.64" y="194.63" font-family="Consolas" font-size="48" text-anchor="middle" fill="white">4.3</text><text x="1846.35" y="197.1" font-family="Consolas" font-size="48" text-anchor="middle" fill="white">4.2</text> <text x="466.96" y="394.1642228739" font-family="Consolas" font-size="48" ttext-anchor="middle" fill="white">-3.8</text><text x="762.38" y="1010" font-family="Consolas" font-size="48" ttext-anchor="middle" fill="white">-28.8</text></g><g><text x="231.54" y="325.557184750733" transform="rotate(270 221.54 310.557184750733)" font-family="Consolas" font-size="50" fill="limegreen">2018</text><text x="379.25" y="325.557184750733" transform="rotate(270 369.25 310.557184750733)" font-family="Consolas" font-size="50" fill="limegreen">2019</text><text x="526.96" y="325.557184750733" transform="rotate(270 516.96 310.557184750733)" font-family="Consolas" font-size="50" fill="limegreen">2020</text><text x="674.67" y="325.557184750733" transform="rotate(270 664.67 310.557184750733)" font-family="Consolas" font-size="50" fill="limegreen">2021</text><text x="822.38" y="325.557184750733" transform="rotate(270 812.38 310.557184750733)" font-family="Consolas" font-size="50" fill="limegreen">2022</text><text x="970.09" y="325.557184750733" transform="rotate(270 960.09 310.557184750733)" font-family="Consolas" font-size="50" fill="limegreen">2023</text><text x="1117.8" y="325.557184750733" transform="rotate(270 1107.8 310.557184750733)" font-family="Consolas" font-size="50" fill="limegreen">2024</text><text x="1265.51" y="325.557184750733" transform="rotate(270 1255.51 310.557184750733)" font-family="Consolas" font-size="50" fill="limegreen">2025</text><text x="1413.22" y="325.557184750733" transform="rotate(270 1403.22 310.557184750733)" font-family="Consolas" font-size="50" fill="limegreen">2026</text><text x="1560.93" y="325.557184750733" transform="rotate(270 1550.93 310.557184750733)" font-family="Consolas" font-size="50" fill="limegreen">2027</text><text x="1708.64" y="325.557184750733" transform="rotate(270 1698.64 310.557184750733)" font-family="Consolas" font-size="50" fill="limegreen">2028</text><text x="1856.35" y="325.557184750733" transform="rotate(270 1846.35 310.557184750733)" font-family="Consolas" font-size="50" fill="limegreen">2029</text></g></g></svg>
