<svg xmlns="http://www.w3.org/2000/svg" width="1920" height="1080"> <rect width="100%" height="100%" fill="#000"/><g xmlns="http://www.w3.org/2000/svg" transform="translate(0,0) scale(1.0)"> <text  x="1080" y="60" font-family="Consolas" font-size="52" text-anchor="middle" fill="white">REAL  GDP ANNUAL PERCENT CHANGE (2018-2029) [IMF DATA]</text><text  x="1780" y="1050" font-family="Consolas" font-size="32" text-anchor="middle" fill="white">ZOOMIT WORLD</text><image x="180" y="-50" width="280" height="280" href="https://cdn.jsdelivr.net/gh/hampusborgos/country-flags@main/svg/gd.svg"></image><text x="70" y="180" font-family="Consolas" font-size="50" text-anchor="middle" fill="white">7%</text><text x="70" y="325.308056872038" font-family="Consolas" font-size="50" text-anchor="middle" fill="white">3.5%</text><text x="70" y="470.616113744076" font-family="Consolas" font-size="50" text-anchor="middle" fill="white">0%</text><text x="70" y="745.308056872038" font-family="Consolas" font-size="50" text-anchor="middle" fill="white">-7%</text><text x="70" y="1020" font-family="Consolas" font-size="50" text-anchor="middle" fill="white">-14%</text><line  x1="141.54" y1="180" x2="141.54" y2="1020" stroke="white" stroke-width="2"/><line x1="141.54"  y1="470.616113744076" x2="1920" y2="470.616113744076" stroke="white" stroke-width="5"/><g><rect x="171.54" y="295.450236966825" width="100" height="175.17" fill="none" stroke="limegreen" stroke-width="2"/><rect x="319.25" y="442.748815165877" width="100" height="27.87" fill="none" stroke="limegreen" stroke-width="2"/><rect x="614.67" y="283.507109004739" width="100" height="187.11" fill="none" stroke="limegreen" stroke-width="2"/><rect x="762.38" y="180" width="100" height="290.62" fill="none" stroke="limegreen" stroke-width="2"/><rect x="910.09" y="283.507109004739" width="100" height="187.11" fill="none" stroke="limegreen" stroke-width="2"/><rect x="1057.8" y="351.184834123223" width="100" height="119.43" fill="none" stroke="limegreen" stroke-width="2"/><rect x="1205.51" y="315.355450236967" width="100" height="155.26" fill="none" stroke="limegreen" stroke-width="2"/><rect x="1353.22" y="339.241706161137" width="100" height="131.37" fill="none" stroke="limegreen" stroke-width="2"/><rect x="1500.93" y="363.127962085308" width="100" height="107.49" fill="none" stroke="limegreen" stroke-width="2"/><rect x="1648.64" y="363.127962085308" width="100" height="107.49" fill="none" stroke="limegreen" stroke-width="2"/><rect x="1796.35" y="363.127962085308" width="100" height="107.49" fill="none" stroke="limegreen" stroke-width="2"/> <rect x="466.96" y="470.616113744076" width="100" height="549.38" fill="none" stroke="limegreen" stroke-width="2"/> </g><g><text x="221.54" y="285.45" font-family="Consolas" font-size="48" text-anchor="middle" fill="white">4.4</text><text x="369.25" y="432.75" font-family="Consolas" font-size="48" text-anchor="middle" fill="white">0.7</text><text x="664.67" y="273.51" font-family="Consolas" font-size="48" text-anchor="middle" fill="white">4.7</text><text x="812.38" y="170" font-family="Consolas" font-size="48" text-anchor="middle" fill="white">7.3</text><text x="960.09" y="273.51" font-family="Consolas" font-size="48" text-anchor="middle" fill="white">4.7</text><text x="1107.8" y="341.18" font-family="Consolas" font-size="48" text-anchor="middle" fill="white">3</text><text x="1255.51" y="305.36" font-family="Consolas" font-size="48" text-anchor="middle" fill="white">3.9</text><text x="1403.22" y="329.24" font-family="Consolas" font-size="48" text-anchor="middle" fill="white">3.3</text><text x="1550.93" y="353.13" font-family="Consolas" font-size="48" text-anchor="middle" fill="white">2.7</text><text x="1698.64" y="353.13" font-family="Consolas" font-size="48" text-anchor="middle" fill="white">2.7</text><text x="1846.35" y="353.13" font-family="Consolas" font-size="48" text-anchor="middle" fill="white">2.7</text> <text x="466.96" y="1010" font-family="Consolas" font-size="48" ttext-anchor="middle" fill="white">-13.8</text></g><g><text x="231.54" y="485.616113744076" transform="rotate(270 221.54 470.616113744076)" font-family="Consolas" font-size="50" fill="limegreen">2018</text><text x="379.25" y="485.616113744076" transform="rotate(270 369.25 470.616113744076)" font-family="Consolas" font-size="50" fill="limegreen">2019</text><text x="526.96" y="485.616113744076" transform="rotate(270 516.96 470.616113744076)" font-family="Consolas" font-size="50" fill="limegreen">2020</text><text x="674.67" y="485.616113744076" transform="rotate(270 664.67 470.616113744076)" font-family="Consolas" font-size="50" fill="limegreen">2021</text><text x="822.38" y="485.616113744076" transform="rotate(270 812.38 470.616113744076)" font-family="Consolas" font-size="50" fill="limegreen">2022</text><text x="970.09" y="485.616113744076" transform="rotate(270 960.09 470.616113744076)" font-family="Consolas" font-size="50" fill="limegreen">2023</text><text x="1117.8" y="485.616113744076" transform="rotate(270 1107.8 470.616113744076)" font-family="Consolas" font-size="50" fill="limegreen">2024</text><text x="1265.51" y="485.616113744076" transform="rotate(270 1255.51 470.616113744076)" font-family="Consolas" font-size="50" fill="limegreen">2025</text><text x="1413.22" y="485.616113744076" transform="rotate(270 1403.22 470.616113744076)" font-family="Consolas" font-size="50" fill="limegreen">2026</text><text x="1560.93" y="485.616113744076" transform="rotate(270 1550.93 470.616113744076)" font-family="Consolas" font-size="50" fill="limegreen">2027</text><text x="1708.64" y="485.616113744076" transform="rotate(270 1698.64 470.616113744076)" font-family="Consolas" font-size="50" fill="limegreen">2028</text><text x="1856.35" y="485.616113744076" transform="rotate(270 1846.35 470.616113744076)" font-family="Consolas" font-size="50" fill="limegreen">2029</text></g></g></svg>
