<svg xmlns="http://www.w3.org/2000/svg" width="1920" height="1080"> <rect width="100%" height="100%" fill="#000"/><g xmlns="http://www.w3.org/2000/svg" transform="translate(0,0) scale(1.0)"> <text  x="1080" y="60" font-family="Consolas" font-size="52" text-anchor="middle" fill="white">REAL  GDP ANNUAL PERCENT CHANGE (2018-2029) [IMF DATA]</text><text  x="1780" y="1050" font-family="Consolas" font-size="32" text-anchor="middle" fill="white">ZOOMIT WORLD</text><image x="180" y="-50" width="280" height="280" href="https://cdn.jsdelivr.net/gh/hampusborgos/country-flags@main/svg/ag.svg"></image><text x="70" y="180" font-family="Consolas" font-size="50" text-anchor="middle" fill="white">10%</text><text x="70" y="320.492957746479" font-family="Consolas" font-size="50" text-anchor="middle" fill="white">5%</text><text x="70" y="460.985915492958" font-family="Consolas" font-size="50" text-anchor="middle" fill="white">0%</text><text x="70" y="740.492957746479" font-family="Consolas" font-size="50" text-anchor="middle" fill="white">-9.5%</text><text x="70" y="1020" font-family="Consolas" font-size="50" text-anchor="middle" fill="white">-19%</text><line  x1="141.54" y1="180" x2="141.54" y2="1020" stroke="white" stroke-width="2"/><line x1="141.54"  y1="460.985915492958" x2="1920" y2="460.985915492958" stroke="white" stroke-width="5"/><g><rect x="171.54" y="253.943661971831" width="100" height="207.04" fill="none" stroke="limegreen" stroke-width="2"/><rect x="319.25" y="369.295774647887" width="100" height="91.69" fill="none" stroke="limegreen" stroke-width="2"/><rect x="614.67" y="218.450704225352" width="100" height="242.54" fill="none" stroke="limegreen" stroke-width="2"/><rect x="762.38" y="180" width="100" height="280.99" fill="none" stroke="limegreen" stroke-width="2"/><rect x="910.09" y="336.760563380282" width="100" height="124.23" fill="none" stroke="limegreen" stroke-width="2"/><rect x="1057.8" y="289.43661971831" width="100" height="171.55" fill="none" stroke="limegreen" stroke-width="2"/><rect x="1205.51" y="357.464788732394" width="100" height="103.52" fill="none" stroke="limegreen" stroke-width="2"/><rect x="1353.22" y="378.169014084507" width="100" height="82.82" fill="none" stroke="limegreen" stroke-width="2"/><rect x="1500.93" y="378.169014084507" width="100" height="82.82" fill="none" stroke="limegreen" stroke-width="2"/><rect x="1648.64" y="378.169014084507" width="100" height="82.82" fill="none" stroke="limegreen" stroke-width="2"/><rect x="1796.35" y="378.169014084507" width="100" height="82.82" fill="none" stroke="limegreen" stroke-width="2"/> <rect x="466.96" y="460.985915492958" width="100" height="559.01" fill="none" stroke="limegreen" stroke-width="2"/> </g><g><text x="221.54" y="243.94" font-family="Consolas" font-size="48" text-anchor="middle" fill="white">7</text><text x="369.25" y="359.3" font-family="Consolas" font-size="48" text-anchor="middle" fill="white">3.1</text><text x="664.67" y="208.45" font-family="Consolas" font-size="48" text-anchor="middle" fill="white">8.2</text><text x="812.38" y="170" font-family="Consolas" font-size="48" text-anchor="middle" fill="white">9.5</text><text x="960.09" y="326.76" font-family="Consolas" font-size="48" text-anchor="middle" fill="white">4.2</text><text x="1107.8" y="279.44" font-family="Consolas" font-size="48" text-anchor="middle" fill="white">5.8</text><text x="1255.51" y="347.46" font-family="Consolas" font-size="48" text-anchor="middle" fill="white">3.5</text><text x="1403.22" y="368.17" font-family="Consolas" font-size="48" text-anchor="middle" fill="white">2.8</text><text x="1550.93" y="368.17" font-family="Consolas" font-size="48" text-anchor="middle" fill="white">2.8</text><text x="1698.64" y="368.17" font-family="Consolas" font-size="48" text-anchor="middle" fill="white">2.8</text><text x="1846.35" y="368.17" font-family="Consolas" font-size="48" text-anchor="middle" fill="white">2.8</text> <text x="466.96" y="1010" font-family="Consolas" font-size="48" ttext-anchor="middle" fill="white">-18.9</text></g><g><text x="231.54" y="475.985915492958" transform="rotate(270 221.54 460.985915492958)" font-family="Consolas" font-size="50" fill="limegreen">2018</text><text x="379.25" y="475.985915492958" transform="rotate(270 369.25 460.985915492958)" font-family="Consolas" font-size="50" fill="limegreen">2019</text><text x="526.96" y="475.985915492958" transform="rotate(270 516.96 460.985915492958)" font-family="Consolas" font-size="50" fill="limegreen">2020</text><text x="674.67" y="475.985915492958" transform="rotate(270 664.67 460.985915492958)" font-family="Consolas" font-size="50" fill="limegreen">2021</text><text x="822.38" y="475.985915492958" transform="rotate(270 812.38 460.985915492958)" font-family="Consolas" font-size="50" fill="limegreen">2022</text><text x="970.09" y="475.985915492958" transform="rotate(270 960.09 460.985915492958)" font-family="Consolas" font-size="50" fill="limegreen">2023</text><text x="1117.8" y="475.985915492958" transform="rotate(270 1107.8 460.985915492958)" font-family="Consolas" font-size="50" fill="limegreen">2024</text><text x="1265.51" y="475.985915492958" transform="rotate(270 1255.51 460.985915492958)" font-family="Consolas" font-size="50" fill="limegreen">2025</text><text x="1413.22" y="475.985915492958" transform="rotate(270 1403.22 460.985915492958)" font-family="Consolas" font-size="50" fill="limegreen">2026</text><text x="1560.93" y="475.985915492958" transform="rotate(270 1550.93 460.985915492958)" font-family="Consolas" font-size="50" fill="limegreen">2027</text><text x="1708.64" y="475.985915492958" transform="rotate(270 1698.64 460.985915492958)" font-family="Consolas" font-size="50" fill="limegreen">2028</text><text x="1856.35" y="475.985915492958" transform="rotate(270 1846.35 460.985915492958)" font-family="Consolas" font-size="50" fill="limegreen">2029</text></g></g></svg>
