<svg xmlns="http://www.w3.org/2000/svg" width="1920" height="1080"> <rect width="100%" height="100%" fill="#000"/><g xmlns="http://www.w3.org/2000/svg" transform="translate(0,0) scale(1.0)"> <text  x="1080" y="60" font-family="Consolas" font-size="52" text-anchor="middle" fill="white">REAL  GDP ANNUAL PERCENT CHANGE (2018-2029) [IMF DATA]</text><text  x="1780" y="1050" font-family="Consolas" font-size="32" text-anchor="middle" fill="white">ZOOMIT WORLD</text><image x="180" y="-50" width="280" height="280" href="https://cdn.jsdelivr.net/gh/hampusborgos/country-flags@main/svg/bg.svg"></image><text x="70" y="180" font-family="Consolas" font-size="50" text-anchor="middle" fill="white">8%</text><text x="70" y="456.410256410256" font-family="Consolas" font-size="50" text-anchor="middle" fill="white">4%</text><text x="70" y="732.820512820513" font-family="Consolas" font-size="50" text-anchor="middle" fill="white">0%</text><text x="70" y="876.410256410257" font-family="Consolas" font-size="50" text-anchor="middle" fill="white">-2%</text><text x="70" y="1020" font-family="Consolas" font-size="50" text-anchor="middle" fill="white">-4%</text><line  x1="141.54" y1="180" x2="141.54" y2="1020" stroke="white" stroke-width="2"/><line x1="141.54"  y1="732.820512820513" x2="1920" y2="732.820512820513" stroke="white" stroke-width="5"/><g><rect x="171.54" y="538.974358974359" width="100" height="193.85" fill="none" stroke="limegreen" stroke-width="2"/><rect x="319.25" y="445.641025641026" width="100" height="287.18" fill="none" stroke="limegreen" stroke-width="2"/><rect x="614.67" y="180" width="100" height="552.82" fill="none" stroke="limegreen" stroke-width="2"/><rect x="762.38" y="452.820512820513" width="100" height="280.00" fill="none" stroke="limegreen" stroke-width="2"/><rect x="910.09" y="603.589743589744" width="100" height="129.23" fill="none" stroke="limegreen" stroke-width="2"/><rect x="1057.8" y="567.692307692308" width="100" height="165.13" fill="none" stroke="limegreen" stroke-width="2"/><rect x="1205.51" y="553.333333333333" width="100" height="179.49" fill="none" stroke="limegreen" stroke-width="2"/><rect x="1353.22" y="531.794871794872" width="100" height="201.03" fill="none" stroke="limegreen" stroke-width="2"/><rect x="1500.93" y="538.974358974359" width="100" height="193.85" fill="none" stroke="limegreen" stroke-width="2"/><rect x="1648.64" y="538.974358974359" width="100" height="193.85" fill="none" stroke="limegreen" stroke-width="2"/><rect x="1796.35" y="546.153846153846" width="100" height="186.67" fill="none" stroke="limegreen" stroke-width="2"/> <rect x="466.96" y="732.820512820513" width="100" height="287.18" fill="none" stroke="limegreen" stroke-width="2"/> </g><g><text x="221.54" y="528.97" font-family="Consolas" font-size="48" text-anchor="middle" fill="white">2.7</text><text x="369.25" y="435.64" font-family="Consolas" font-size="48" text-anchor="middle" fill="white">4</text><text x="664.67" y="170" font-family="Consolas" font-size="48" text-anchor="middle" fill="white">7.7</text><text x="812.38" y="442.82" font-family="Consolas" font-size="48" text-anchor="middle" fill="white">3.9</text><text x="960.09" y="593.59" font-family="Consolas" font-size="48" text-anchor="middle" fill="white">1.8</text><text x="1107.8" y="557.69" font-family="Consolas" font-size="48" text-anchor="middle" fill="white">2.3</text><text x="1255.51" y="543.33" font-family="Consolas" font-size="48" text-anchor="middle" fill="white">2.5</text><text x="1403.22" y="521.79" font-family="Consolas" font-size="48" text-anchor="middle" fill="white">2.8</text><text x="1550.93" y="528.97" font-family="Consolas" font-size="48" text-anchor="middle" fill="white">2.7</text><text x="1698.64" y="528.97" font-family="Consolas" font-size="48" text-anchor="middle" fill="white">2.7</text><text x="1846.35" y="536.15" font-family="Consolas" font-size="48" text-anchor="middle" fill="white">2.6</text> <text x="466.96" y="1010" font-family="Consolas" font-size="48" ttext-anchor="middle" fill="white">-4</text></g><g><text x="231.54" y="747.820512820513" transform="rotate(270 221.54 732.820512820513)" font-family="Consolas" font-size="50" fill="limegreen">2018</text><text x="379.25" y="747.820512820513" transform="rotate(270 369.25 732.820512820513)" font-family="Consolas" font-size="50" fill="limegreen">2019</text><text x="526.96" y="747.820512820513" transform="rotate(270 516.96 732.820512820513)" font-family="Consolas" font-size="50" fill="limegreen">2020</text><text x="674.67" y="747.820512820513" transform="rotate(270 664.67 732.820512820513)" font-family="Consolas" font-size="50" fill="limegreen">2021</text><text x="822.38" y="747.820512820513" transform="rotate(270 812.38 732.820512820513)" font-family="Consolas" font-size="50" fill="limegreen">2022</text><text x="970.09" y="747.820512820513" transform="rotate(270 960.09 732.820512820513)" font-family="Consolas" font-size="50" fill="limegreen">2023</text><text x="1117.8" y="747.820512820513" transform="rotate(270 1107.8 732.820512820513)" font-family="Consolas" font-size="50" fill="limegreen">2024</text><text x="1265.51" y="747.820512820513" transform="rotate(270 1255.51 732.820512820513)" font-family="Consolas" font-size="50" fill="limegreen">2025</text><text x="1413.22" y="747.820512820513" transform="rotate(270 1403.22 732.820512820513)" font-family="Consolas" font-size="50" fill="limegreen">2026</text><text x="1560.93" y="747.820512820513" transform="rotate(270 1550.93 732.820512820513)" font-family="Consolas" font-size="50" fill="limegreen">2027</text><text x="1708.64" y="747.820512820513" transform="rotate(270 1698.64 732.820512820513)" font-family="Consolas" font-size="50" fill="limegreen">2028</text><text x="1856.35" y="747.820512820513" transform="rotate(270 1846.35 732.820512820513)" font-family="Consolas" font-size="50" fill="limegreen">2029</text></g></g></svg>
