<svg xmlns="http://www.w3.org/2000/svg" width="1920" height="1080"> <rect width="100%" height="100%" fill="#000"/><g xmlns="http://www.w3.org/2000/svg" transform="translate(0,0) scale(1.0)"> <text  x="1080" y="60" font-family="Consolas" font-size="52" text-anchor="middle" fill="white">REAL  GDP ANNUAL PERCENT CHANGE (2018-2029) [IMF DATA]</text><text  x="1700" y="1050" font-family="Consolas" font-size="22" text-anchor="middle" fill="white">DESIGNED BY ZOOMIT WORLD</text><image x="180" y="-50" width="280" height="280" href="https://cdn.jsdelivr.net/gh/hampusborgos/country-flags@main/svg/bs.svg"></image><text x="70" y="180" font-family="Consolas" font-size="50" text-anchor="middle" fill="white">5%</text><text x="70" y="385.434782608696" font-family="Consolas" font-size="50" text-anchor="middle" fill="white">2.5%</text><text x="70" y="590.869565217391" font-family="Consolas" font-size="50" text-anchor="middle" fill="white">0%</text><text x="70" y="805.434782608696" font-family="Consolas" font-size="50" text-anchor="middle" fill="white">-2.5%</text><text x="70" y="1020" font-family="Consolas" font-size="50" text-anchor="middle" fill="white">-5%</text><line  x1="141.54" y1="180" x2="141.54" y2="1020" stroke="white" stroke-width="2"/><line x1="141.54"  y1="590.869565217391" x2="1920" y2="590.869565217391" stroke="white" stroke-width="5"/><g><rect x="171.54" y="326.086956521739" width="100" height="264.78" fill="none" stroke="limegreen" stroke-width="2"/><rect x="319.25" y="234.782608695652" width="100" height="356.09" fill="none" stroke="limegreen" stroke-width="2"/><rect x="614.67" y="180" width="100" height="410.87" fill="none" stroke="limegreen" stroke-width="2"/><rect x="762.38" y="390" width="100" height="200.87" fill="none" stroke="limegreen" stroke-width="2"/><rect x="910.09" y="499.565217391304" width="100" height="91.30" fill="none" stroke="limegreen" stroke-width="2"/><rect x="1057.8" y="390" width="100" height="200.87" fill="none" stroke="limegreen" stroke-width="2"/><rect x="1205.51" y="262.173913043478" width="100" height="328.70" fill="none" stroke="limegreen" stroke-width="2"/><rect x="1353.22" y="243.913043478261" width="100" height="346.96" fill="none" stroke="limegreen" stroke-width="2"/><rect x="1500.93" y="253.04347826087" width="100" height="337.83" fill="none" stroke="limegreen" stroke-width="2"/><rect x="1648.64" y="262.173913043478" width="100" height="328.70" fill="none" stroke="limegreen" stroke-width="2"/><rect x="1796.35" y="271.304347826087" width="100" height="319.57" fill="none" stroke="limegreen" stroke-width="2"/> <rect x="466.96" y="590.869565217391" width="100" height="429.13" fill="none" stroke="limegreen" stroke-width="2"/> </g><g><text x="221.54" y="316.09" font-family="Consolas" font-size="48" text-anchor="middle" fill="white">2.9</text><text x="369.25" y="224.78" font-family="Consolas" font-size="48" text-anchor="middle" fill="white">3.9</text><text x="664.67" y="170" font-family="Consolas" font-size="48" text-anchor="middle" fill="white">4.5</text><text x="812.38" y="380" font-family="Consolas" font-size="48" text-anchor="middle" fill="white">2.2</text><text x="960.09" y="489.57" font-family="Consolas" font-size="48" text-anchor="middle" fill="white">1</text><text x="1107.8" y="380" font-family="Consolas" font-size="48" text-anchor="middle" fill="white">2.2</text><text x="1255.51" y="252.17" font-family="Consolas" font-size="48" text-anchor="middle" fill="white">3.6</text><text x="1403.22" y="233.91" font-family="Consolas" font-size="48" text-anchor="middle" fill="white">3.8</text><text x="1550.93" y="243.04" font-family="Consolas" font-size="48" text-anchor="middle" fill="white">3.7</text><text x="1698.64" y="252.17" font-family="Consolas" font-size="48" text-anchor="middle" fill="white">3.6</text><text x="1846.35" y="261.3" font-family="Consolas" font-size="48" text-anchor="middle" fill="white">3.5</text> <text x="466.96" y="1010" font-family="Consolas" font-size="48" ttext-anchor="middle" fill="white">-4.7</text></g><g><text x="231.54" y="605.869565217391" transform="rotate(270 221.54 590.869565217391)" font-family="Consolas" font-size="50" fill="limegreen">2018</text><text x="379.25" y="605.869565217391" transform="rotate(270 369.25 590.869565217391)" font-family="Consolas" font-size="50" fill="limegreen">2019</text><text x="526.96" y="605.869565217391" transform="rotate(270 516.96 590.869565217391)" font-family="Consolas" font-size="50" fill="limegreen">2020</text><text x="674.67" y="605.869565217391" transform="rotate(270 664.67 590.869565217391)" font-family="Consolas" font-size="50" fill="limegreen">2021</text><text x="822.38" y="605.869565217391" transform="rotate(270 812.38 590.869565217391)" font-family="Consolas" font-size="50" fill="limegreen">2022</text><text x="970.09" y="605.869565217391" transform="rotate(270 960.09 590.869565217391)" font-family="Consolas" font-size="50" fill="limegreen">2023</text><text x="1117.8" y="605.869565217391" transform="rotate(270 1107.8 590.869565217391)" font-family="Consolas" font-size="50" fill="limegreen">2024</text><text x="1265.51" y="605.869565217391" transform="rotate(270 1255.51 590.869565217391)" font-family="Consolas" font-size="50" fill="limegreen">2025</text><text x="1413.22" y="605.869565217391" transform="rotate(270 1403.22 590.869565217391)" font-family="Consolas" font-size="50" fill="limegreen">2026</text><text x="1560.93" y="605.869565217391" transform="rotate(270 1550.93 590.869565217391)" font-family="Consolas" font-size="50" fill="limegreen">2027</text><text x="1708.64" y="605.869565217391" transform="rotate(270 1698.64 590.869565217391)" font-family="Consolas" font-size="50" fill="limegreen">2028</text><text x="1856.35" y="605.869565217391" transform="rotate(270 1846.35 590.869565217391)" font-family="Consolas" font-size="50" fill="limegreen">2029</text></g></g></svg>
