<svg xmlns="http://www.w3.org/2000/svg" width="1920" height="1080"> <rect width="100%" height="100%" fill="#000"/><g xmlns="http://www.w3.org/2000/svg" transform="translate(0,0) scale(1.0)"> <text  x="1080" y="60" font-family="Consolas" font-size="52" text-anchor="middle" fill="white">REAL  GDP ANNUAL PERCENT CHANGE (2018-2029) [IMF DATA]</text><text  x="1780" y="1050" font-family="Consolas" font-size="32" text-anchor="middle" fill="white">ZOOMIT WORLD</text><image x="180" y="-50" width="280" height="280" href="https://cdn.jsdelivr.net/gh/hampusborgos/country-flags@main/svg/ci.svg"></image><text x="70" y="180" font-family="Consolas" font-size="50" text-anchor="middle" fill="white">8%</text><text x="70" y="564.146341463415" font-family="Consolas" font-size="50" text-anchor="middle" fill="white">4%</text><text x="70" y="948.292682926829" font-family="Consolas" font-size="50" text-anchor="middle" fill="white">0%</text><text x="70" y="984.146341463415" font-family="Consolas" font-size="50" text-anchor="middle" fill="white">0.5%</text><text x="70" y="1020" font-family="Consolas" font-size="50" text-anchor="middle" fill="white">1%</text><line  x1="141.54" y1="180" x2="141.54" y2="1020" stroke="white" stroke-width="2"/><line x1="141.54"  y1="948.292682926829" x2="1920" y2="948.292682926829" stroke="white" stroke-width="5"/><g><rect x="171.54" y="456.585365853659" width="100" height="491.71" fill="none" stroke="limegreen" stroke-width="2"/><rect x="319.25" y="261.951219512195" width="100" height="686.34" fill="none" stroke="limegreen" stroke-width="2"/><rect x="466.96" y="876.585365853659" width="100" height="71.71" fill="none" stroke="limegreen" stroke-width="2"/><rect x="614.67" y="220.975609756098" width="100" height="727.32" fill="none" stroke="limegreen" stroke-width="2"/><rect x="762.38" y="313.170731707317" width="100" height="635.12" fill="none" stroke="limegreen" stroke-width="2"/><rect x="910.09" y="313.170731707317" width="100" height="635.12" fill="none" stroke="limegreen" stroke-width="2"/><rect x="1057.8" y="282.439024390244" width="100" height="665.85" fill="none" stroke="limegreen" stroke-width="2"/><rect x="1205.51" y="292.682926829268" width="100" height="655.61" fill="none" stroke="limegreen" stroke-width="2"/><rect x="1353.22" y="292.682926829268" width="100" height="655.61" fill="none" stroke="limegreen" stroke-width="2"/><rect x="1500.93" y="180" width="100" height="768.29" fill="none" stroke="limegreen" stroke-width="2"/><rect x="1648.64" y="282.439024390244" width="100" height="665.85" fill="none" stroke="limegreen" stroke-width="2"/><rect x="1796.35" y="313.170731707317" width="100" height="635.12" fill="none" stroke="limegreen" stroke-width="2"/>  </g><g><text x="221.54" y="446.59" font-family="Consolas" font-size="48" text-anchor="middle" fill="white">4.8</text><text x="369.25" y="251.95" font-family="Consolas" font-size="48" text-anchor="middle" fill="white">6.7</text><text x="516.96" y="866.59" font-family="Consolas" font-size="48" text-anchor="middle" fill="white">0.7</text><text x="664.67" y="210.98" font-family="Consolas" font-size="48" text-anchor="middle" fill="white">7.1</text><text x="812.38" y="303.17" font-family="Consolas" font-size="48" text-anchor="middle" fill="white">6.2</text><text x="960.09" y="303.17" font-family="Consolas" font-size="48" text-anchor="middle" fill="white">6.2</text><text x="1107.8" y="272.44" font-family="Consolas" font-size="48" text-anchor="middle" fill="white">6.5</text><text x="1255.51" y="282.68" font-family="Consolas" font-size="48" text-anchor="middle" fill="white">6.4</text><text x="1403.22" y="282.68" font-family="Consolas" font-size="48" text-anchor="middle" fill="white">6.4</text><text x="1550.93" y="170" font-family="Consolas" font-size="48" text-anchor="middle" fill="white">7.5</text><text x="1698.64" y="272.44" font-family="Consolas" font-size="48" text-anchor="middle" fill="white">6.5</text><text x="1846.35" y="303.17" font-family="Consolas" font-size="48" text-anchor="middle" fill="white">6.2</text> </g><g><text x="231.54" y="963.292682926829" transform="rotate(270 221.54 948.292682926829)" font-family="Consolas" font-size="50" fill="limegreen">2018</text><text x="379.25" y="963.292682926829" transform="rotate(270 369.25 948.292682926829)" font-family="Consolas" font-size="50" fill="limegreen">2019</text><text x="526.96" y="963.292682926829" transform="rotate(270 516.96 948.292682926829)" font-family="Consolas" font-size="50" fill="limegreen">2020</text><text x="674.67" y="963.292682926829" transform="rotate(270 664.67 948.292682926829)" font-family="Consolas" font-size="50" fill="limegreen">2021</text><text x="822.38" y="963.292682926829" transform="rotate(270 812.38 948.292682926829)" font-family="Consolas" font-size="50" fill="limegreen">2022</text><text x="970.09" y="963.292682926829" transform="rotate(270 960.09 948.292682926829)" font-family="Consolas" font-size="50" fill="limegreen">2023</text><text x="1117.8" y="963.292682926829" transform="rotate(270 1107.8 948.292682926829)" font-family="Consolas" font-size="50" fill="limegreen">2024</text><text x="1265.51" y="963.292682926829" transform="rotate(270 1255.51 948.292682926829)" font-family="Consolas" font-size="50" fill="limegreen">2025</text><text x="1413.22" y="963.292682926829" transform="rotate(270 1403.22 948.292682926829)" font-family="Consolas" font-size="50" fill="limegreen">2026</text><text x="1560.93" y="963.292682926829" transform="rotate(270 1550.93 948.292682926829)" font-family="Consolas" font-size="50" fill="limegreen">2027</text><text x="1708.64" y="963.292682926829" transform="rotate(270 1698.64 948.292682926829)" font-family="Consolas" font-size="50" fill="limegreen">2028</text><text x="1856.35" y="963.292682926829" transform="rotate(270 1846.35 948.292682926829)" font-family="Consolas" font-size="50" fill="limegreen">2029</text></g></g></svg>
