<svg xmlns="http://www.w3.org/2000/svg" width="1920" height="1080"> <rect width="100%" height="100%" fill="#000"/><g xmlns="http://www.w3.org/2000/svg" transform="translate(0,0) scale(1.0)"> <text  x="1080" y="60" font-family="Consolas" font-size="52" text-anchor="middle" fill="white">REAL  GDP ANNUAL PERCENT CHANGE (2018-2029) [IMF DATA]</text><text  x="1780" y="1050" font-family="Consolas" font-size="32" text-anchor="middle" fill="white">ZOOMIT WORLD</text><image x="180" y="-50" width="280" height="280" href="https://cdn.jsdelivr.net/gh/hampusborgos/country-flags@main/svg/bi.svg"></image><text x="70" y="180" font-family="Consolas" font-size="50" text-anchor="middle" fill="white">6%</text><text x="70" y="578.275862068966" font-family="Consolas" font-size="50" text-anchor="middle" fill="white">3%</text><text x="70" y="976.551724137931" font-family="Consolas" font-size="50" text-anchor="middle" fill="white">0%</text><text x="70" y="998.275862068966" font-family="Consolas" font-size="50" text-anchor="middle" fill="white">0%</text><text x="70" y="1020" font-family="Consolas" font-size="50" text-anchor="middle" fill="white">0%</text><line  x1="141.54" y1="180" x2="141.54" y2="1020" stroke="white" stroke-width="2"/><line x1="141.54"  y1="976.551724137931" x2="1920" y2="976.551724137931" stroke="white" stroke-width="5"/><g><rect x="171.54" y="744.827586206897" width="100" height="231.72" fill="none" stroke="limegreen" stroke-width="2"/><rect x="319.25" y="715.862068965517" width="100" height="260.69" fill="none" stroke="limegreen" stroke-width="2"/><rect x="466.96" y="933.103448275862" width="100" height="43.45" fill="none" stroke="limegreen" stroke-width="2"/><rect x="614.67" y="527.586206896552" width="100" height="448.97" fill="none" stroke="limegreen" stroke-width="2"/><rect x="762.38" y="715.862068965517" width="100" height="260.69" fill="none" stroke="limegreen" stroke-width="2"/><rect x="910.09" y="585.51724137931" width="100" height="391.03" fill="none" stroke="limegreen" stroke-width="2"/><rect x="1057.8" y="657.931034482759" width="100" height="318.62" fill="none" stroke="limegreen" stroke-width="2"/><rect x="1205.51" y="469.655172413793" width="100" height="506.90" fill="none" stroke="limegreen" stroke-width="2"/><rect x="1353.22" y="324.827586206897" width="100" height="651.72" fill="none" stroke="limegreen" stroke-width="2"/><rect x="1500.93" y="223.448275862069" width="100" height="753.10" fill="none" stroke="limegreen" stroke-width="2"/><rect x="1648.64" y="180" width="100" height="796.55" fill="none" stroke="limegreen" stroke-width="2"/><rect x="1796.35" y="252.413793103448" width="100" height="724.14" fill="none" stroke="limegreen" stroke-width="2"/>  </g><g><text x="221.54" y="734.83" font-family="Consolas" font-size="48" text-anchor="middle" fill="white">1.6</text><text x="369.25" y="705.86" font-family="Consolas" font-size="48" text-anchor="middle" fill="white">1.8</text><text x="516.96" y="923.1" font-family="Consolas" font-size="48" text-anchor="middle" fill="white">0.3</text><text x="664.67" y="517.59" font-family="Consolas" font-size="48" text-anchor="middle" fill="white">3.1</text><text x="812.38" y="705.86" font-family="Consolas" font-size="48" text-anchor="middle" fill="white">1.8</text><text x="960.09" y="575.52" font-family="Consolas" font-size="48" text-anchor="middle" fill="white">2.7</text><text x="1107.8" y="647.93" font-family="Consolas" font-size="48" text-anchor="middle" fill="white">2.2</text><text x="1255.51" y="459.66" font-family="Consolas" font-size="48" text-anchor="middle" fill="white">3.5</text><text x="1403.22" y="314.83" font-family="Consolas" font-size="48" text-anchor="middle" fill="white">4.5</text><text x="1550.93" y="213.45" font-family="Consolas" font-size="48" text-anchor="middle" fill="white">5.2</text><text x="1698.64" y="170" font-family="Consolas" font-size="48" text-anchor="middle" fill="white">5.5</text><text x="1846.35" y="242.41" font-family="Consolas" font-size="48" text-anchor="middle" fill="white">5</text> </g><g><text x="231.54" y="991.551724137931" transform="rotate(270 221.54 976.551724137931)" font-family="Consolas" font-size="50" fill="limegreen">2018</text><text x="379.25" y="991.551724137931" transform="rotate(270 369.25 976.551724137931)" font-family="Consolas" font-size="50" fill="limegreen">2019</text><text x="526.96" y="991.551724137931" transform="rotate(270 516.96 976.551724137931)" font-family="Consolas" font-size="50" fill="limegreen">2020</text><text x="674.67" y="991.551724137931" transform="rotate(270 664.67 976.551724137931)" font-family="Consolas" font-size="50" fill="limegreen">2021</text><text x="822.38" y="991.551724137931" transform="rotate(270 812.38 976.551724137931)" font-family="Consolas" font-size="50" fill="limegreen">2022</text><text x="970.09" y="991.551724137931" transform="rotate(270 960.09 976.551724137931)" font-family="Consolas" font-size="50" fill="limegreen">2023</text><text x="1117.8" y="991.551724137931" transform="rotate(270 1107.8 976.551724137931)" font-family="Consolas" font-size="50" fill="limegreen">2024</text><text x="1265.51" y="991.551724137931" transform="rotate(270 1255.51 976.551724137931)" font-family="Consolas" font-size="50" fill="limegreen">2025</text><text x="1413.22" y="991.551724137931" transform="rotate(270 1403.22 976.551724137931)" font-family="Consolas" font-size="50" fill="limegreen">2026</text><text x="1560.93" y="991.551724137931" transform="rotate(270 1550.93 976.551724137931)" font-family="Consolas" font-size="50" fill="limegreen">2027</text><text x="1708.64" y="991.551724137931" transform="rotate(270 1698.64 976.551724137931)" font-family="Consolas" font-size="50" fill="limegreen">2028</text><text x="1856.35" y="991.551724137931" transform="rotate(270 1846.35 976.551724137931)" font-family="Consolas" font-size="50" fill="limegreen">2029</text></g></g></svg>
