<svg xmlns="http://www.w3.org/2000/svg" width="1920" height="1080"> <rect width="100%" height="100%" fill="#000"/><g xmlns="http://www.w3.org/2000/svg" transform="translate(0,0) scale(1.0)"> <text  x="1080" y="60" font-family="Consolas" font-size="52" text-anchor="middle" fill="white">REAL  GDP ANNUAL PERCENT CHANGE (2018-2029) [IMF DATA]</text><text  x="1780" y="1050" font-family="Consolas" font-size="32" text-anchor="middle" fill="white">ZOOMIT WORLD</text><image x="180" y="-50" width="280" height="280" href="https://cdn.jsdelivr.net/gh/hampusborgos/country-flags@main/svg/sm.svg"></image><text x="70" y="180" font-family="Consolas" font-size="50" text-anchor="middle" fill="white">14%</text><text x="70" y="464" font-family="Consolas" font-size="50" text-anchor="middle" fill="white">7%</text><text x="70" y="748" font-family="Consolas" font-size="50" text-anchor="middle" fill="white">0%</text><text x="70" y="884" font-family="Consolas" font-size="50" text-anchor="middle" fill="white">-3.5%</text><text x="70" y="1020" font-family="Consolas" font-size="50" text-anchor="middle" fill="white">-7%</text><line  x1="141.54" y1="180" x2="141.54" y2="1020" stroke="white" stroke-width="2"/><line x1="141.54"  y1="748" x2="1920" y2="748" stroke="white" stroke-width="5"/><g><rect x="171.54" y="688" width="100" height="60.00" fill="none" stroke="limegreen" stroke-width="2"/><rect x="319.25" y="668" width="100" height="80.00" fill="none" stroke="limegreen" stroke-width="2"/><rect x="614.67" y="180" width="100" height="568.00" fill="none" stroke="limegreen" stroke-width="2"/><rect x="762.38" y="432" width="100" height="316.00" fill="none" stroke="limegreen" stroke-width="2"/><rect x="910.09" y="732" width="100" height="16.00" fill="none" stroke="limegreen" stroke-width="2"/><rect x="1057.8" y="720" width="100" height="28.00" fill="none" stroke="limegreen" stroke-width="2"/><rect x="1205.51" y="696" width="100" height="52.00" fill="none" stroke="limegreen" stroke-width="2"/><rect x="1353.22" y="700" width="100" height="48.00" fill="none" stroke="limegreen" stroke-width="2"/><rect x="1500.93" y="704" width="100" height="44.00" fill="none" stroke="limegreen" stroke-width="2"/><rect x="1648.64" y="696" width="100" height="52.00" fill="none" stroke="limegreen" stroke-width="2"/><rect x="1796.35" y="696" width="100" height="52.00" fill="none" stroke="limegreen" stroke-width="2"/> <rect x="466.96" y="748" width="100" height="272.00" fill="none" stroke="limegreen" stroke-width="2"/> </g><g><text x="221.54" y="678" font-family="Consolas" font-size="48" text-anchor="middle" fill="white">1.5</text><text x="369.25" y="658" font-family="Consolas" font-size="48" text-anchor="middle" fill="white">2</text><text x="664.67" y="170" font-family="Consolas" font-size="48" text-anchor="middle" fill="white">14.2</text><text x="812.38" y="422" font-family="Consolas" font-size="48" text-anchor="middle" fill="white">7.9</text><text x="960.09" y="722" font-family="Consolas" font-size="48" text-anchor="middle" fill="white">0.4</text><text x="1107.8" y="710" font-family="Consolas" font-size="48" text-anchor="middle" fill="white">0.7</text><text x="1255.51" y="686" font-family="Consolas" font-size="48" text-anchor="middle" fill="white">1.3</text><text x="1403.22" y="690" font-family="Consolas" font-size="48" text-anchor="middle" fill="white">1.2</text><text x="1550.93" y="694" font-family="Consolas" font-size="48" text-anchor="middle" fill="white">1.1</text><text x="1698.64" y="686" font-family="Consolas" font-size="48" text-anchor="middle" fill="white">1.3</text><text x="1846.35" y="686" font-family="Consolas" font-size="48" text-anchor="middle" fill="white">1.3</text> <text x="466.96" y="1010" font-family="Consolas" font-size="48" ttext-anchor="middle" fill="white">-6.8</text></g><g><text x="231.54" y="763" transform="rotate(270 221.54 748)" font-family="Consolas" font-size="50" fill="limegreen">2018</text><text x="379.25" y="763" transform="rotate(270 369.25 748)" font-family="Consolas" font-size="50" fill="limegreen">2019</text><text x="526.96" y="763" transform="rotate(270 516.96 748)" font-family="Consolas" font-size="50" fill="limegreen">2020</text><text x="674.67" y="763" transform="rotate(270 664.67 748)" font-family="Consolas" font-size="50" fill="limegreen">2021</text><text x="822.38" y="763" transform="rotate(270 812.38 748)" font-family="Consolas" font-size="50" fill="limegreen">2022</text><text x="970.09" y="763" transform="rotate(270 960.09 748)" font-family="Consolas" font-size="50" fill="limegreen">2023</text><text x="1117.8" y="763" transform="rotate(270 1107.8 748)" font-family="Consolas" font-size="50" fill="limegreen">2024</text><text x="1265.51" y="763" transform="rotate(270 1255.51 748)" font-family="Consolas" font-size="50" fill="limegreen">2025</text><text x="1413.22" y="763" transform="rotate(270 1403.22 748)" font-family="Consolas" font-size="50" fill="limegreen">2026</text><text x="1560.93" y="763" transform="rotate(270 1550.93 748)" font-family="Consolas" font-size="50" fill="limegreen">2027</text><text x="1708.64" y="763" transform="rotate(270 1698.64 748)" font-family="Consolas" font-size="50" fill="limegreen">2028</text><text x="1856.35" y="763" transform="rotate(270 1846.35 748)" font-family="Consolas" font-size="50" fill="limegreen">2029</text></g></g></svg>
