<svg xmlns="http://www.w3.org/2000/svg" width="1920" height="1080"> <rect width="100%" height="100%" fill="#000"/><g xmlns="http://www.w3.org/2000/svg" transform="translate(0,0) scale(1.0)"> <text  x="1080" y="60" font-family="Consolas" font-size="52" text-anchor="middle" fill="white">REAL  GDP ANNUAL PERCENT CHANGE (2018-2029) [IMF DATA]</text><text  x="1700" y="1050" font-family="Consolas" font-size="22" text-anchor="middle" fill="white">DESIGNED BY ZOOMIT WORLD</text><image x="180" y="-50" width="280" height="280" href="https://cdn.jsdelivr.net/gh/hampusborgos/country-flags@main/svg/bs.svg"></image><text x="70" y="180" font-family="Consolas" font-size="50" text-anchor="middle" fill="white">11%</text><text x="70" y="432" font-family="Consolas" font-size="50" text-anchor="middle" fill="white">5.5%</text><text x="70" y="684" font-family="Consolas" font-size="50" text-anchor="middle" fill="white">0%</text><text x="70" y="852" font-family="Consolas" font-size="50" text-anchor="middle" fill="white">-3.5%</text><text x="70" y="1020" font-family="Consolas" font-size="50" text-anchor="middle" fill="white">-7%</text><line  x1="141.54" y1="180" x2="141.54" y2="1020" stroke="white" stroke-width="2"/><line x1="141.54"  y1="684" x2="1920" y2="684" stroke="white" stroke-width="5"/><g><rect x="171.54" y="562.666666666667" width="100" height="121.33" fill="none" stroke="limegreen" stroke-width="2"/><rect x="319.25" y="534.666666666667" width="100" height="149.33" fill="none" stroke="limegreen" stroke-width="2"/><rect x="614.67" y="180" width="100" height="504.00" fill="none" stroke="limegreen" stroke-width="2"/><rect x="762.38" y="343.333333333333" width="100" height="340.67" fill="none" stroke="limegreen" stroke-width="2"/><rect x="910.09" y="656" width="100" height="28.00" fill="none" stroke="limegreen" stroke-width="2"/><rect x="1057.8" y="609.333333333333" width="100" height="74.67" fill="none" stroke="limegreen" stroke-width="2"/><rect x="1205.51" y="567.333333333333" width="100" height="116.67" fill="none" stroke="limegreen" stroke-width="2"/><rect x="1353.22" y="553.333333333333" width="100" height="130.67" fill="none" stroke="limegreen" stroke-width="2"/><rect x="1500.93" y="544" width="100" height="140.00" fill="none" stroke="limegreen" stroke-width="2"/><rect x="1648.64" y="544" width="100" height="140.00" fill="none" stroke="limegreen" stroke-width="2"/><rect x="1796.35" y="544" width="100" height="140.00" fill="none" stroke="limegreen" stroke-width="2"/> <rect x="466.96" y="684" width="100" height="336.00" fill="none" stroke="limegreen" stroke-width="2"/> </g><g><text x="221.54" y="552.67" font-family="Consolas" font-size="48" text-anchor="middle" fill="white">2.6</text><text x="369.25" y="524.67" font-family="Consolas" font-size="48" text-anchor="middle" fill="white">3.2</text><text x="664.67" y="170" font-family="Consolas" font-size="48" text-anchor="middle" fill="white">10.8</text><text x="812.38" y="333.33" font-family="Consolas" font-size="48" text-anchor="middle" fill="white">7.3</text><text x="960.09" y="646" font-family="Consolas" font-size="48" text-anchor="middle" fill="white">0.6</text><text x="1107.8" y="599.33" font-family="Consolas" font-size="48" text-anchor="middle" fill="white">1.6</text><text x="1255.51" y="557.33" font-family="Consolas" font-size="48" text-anchor="middle" fill="white">2.5</text><text x="1403.22" y="543.33" font-family="Consolas" font-size="48" text-anchor="middle" fill="white">2.8</text><text x="1550.93" y="534" font-family="Consolas" font-size="48" text-anchor="middle" fill="white">3</text><text x="1698.64" y="534" font-family="Consolas" font-size="48" text-anchor="middle" fill="white">3</text><text x="1846.35" y="534" font-family="Consolas" font-size="48" text-anchor="middle" fill="white">3</text> <text x="466.96" y="1010" font-family="Consolas" font-size="48" ttext-anchor="middle" fill="white">-7.2</text></g><g><text x="231.54" y="699" transform="rotate(270 221.54 684)" font-family="Consolas" font-size="50" fill="limegreen">2018</text><text x="379.25" y="699" transform="rotate(270 369.25 684)" font-family="Consolas" font-size="50" fill="limegreen">2019</text><text x="526.96" y="699" transform="rotate(270 516.96 684)" font-family="Consolas" font-size="50" fill="limegreen">2020</text><text x="674.67" y="699" transform="rotate(270 664.67 684)" font-family="Consolas" font-size="50" fill="limegreen">2021</text><text x="822.38" y="699" transform="rotate(270 812.38 684)" font-family="Consolas" font-size="50" fill="limegreen">2022</text><text x="970.09" y="699" transform="rotate(270 960.09 684)" font-family="Consolas" font-size="50" fill="limegreen">2023</text><text x="1117.8" y="699" transform="rotate(270 1107.8 684)" font-family="Consolas" font-size="50" fill="limegreen">2024</text><text x="1265.51" y="699" transform="rotate(270 1255.51 684)" font-family="Consolas" font-size="50" fill="limegreen">2025</text><text x="1413.22" y="699" transform="rotate(270 1403.22 684)" font-family="Consolas" font-size="50" fill="limegreen">2026</text><text x="1560.93" y="699" transform="rotate(270 1550.93 684)" font-family="Consolas" font-size="50" fill="limegreen">2027</text><text x="1708.64" y="699" transform="rotate(270 1698.64 684)" font-family="Consolas" font-size="50" fill="limegreen">2028</text><text x="1856.35" y="699" transform="rotate(270 1846.35 684)" font-family="Consolas" font-size="50" fill="limegreen">2029</text></g></g></svg>
