<svg xmlns="http://www.w3.org/2000/svg" width="1920" height="1080"> <rect width="100%" height="100%" fill="#000"/><g xmlns="http://www.w3.org/2000/svg" transform="translate(0,0) scale(1.0)"> <text  x="1080" y="60" font-family="Consolas" font-size="52" text-anchor="middle" fill="white">REAL  GDP ANNUAL PERCENT CHANGE (2018-2029) [IMF DATA]</text><text  x="1780" y="1050" font-family="Consolas" font-size="32" text-anchor="middle" fill="white">ZOOMIT WORLD</text><image x="180" y="-50" width="280" height="280" href="https://cdn.jsdelivr.net/gh/hampusborgos/country-flags@main/svg/sa.svg"></image><text x="70" y="180" font-family="Consolas" font-size="50" text-anchor="middle" fill="white">8%</text><text x="70" y="463.783783783784" font-family="Consolas" font-size="50" text-anchor="middle" fill="white">4%</text><text x="70" y="747.567567567568" font-family="Consolas" font-size="50" text-anchor="middle" fill="white">0%</text><text x="70" y="883.783783783784" font-family="Consolas" font-size="50" text-anchor="middle" fill="white">-2%</text><text x="70" y="1020" font-family="Consolas" font-size="50" text-anchor="middle" fill="white">-4%</text><line  x1="141.54" y1="180" x2="141.54" y2="1020" stroke="white" stroke-width="2"/><line x1="141.54"  y1="747.567567567568" x2="1920" y2="747.567567567568" stroke="white" stroke-width="5"/><g><rect x="171.54" y="505.405405405405" width="100" height="242.16" fill="none" stroke="limegreen" stroke-width="2"/><rect x="319.25" y="664.324324324324" width="100" height="83.24" fill="none" stroke="limegreen" stroke-width="2"/><rect x="614.67" y="361.621621621622" width="100" height="385.95" fill="none" stroke="limegreen" stroke-width="2"/><rect x="762.38" y="180" width="100" height="567.57" fill="none" stroke="limegreen" stroke-width="2"/><rect x="1057.8" y="634.054054054054" width="100" height="113.51" fill="none" stroke="limegreen" stroke-width="2"/><rect x="1205.51" y="399.45945945946" width="100" height="348.11" fill="none" stroke="limegreen" stroke-width="2"/><rect x="1353.22" y="414.594594594595" width="100" height="332.97" fill="none" stroke="limegreen" stroke-width="2"/><rect x="1500.93" y="475.135135135135" width="100" height="272.43" fill="none" stroke="limegreen" stroke-width="2"/><rect x="1648.64" y="482.702702702703" width="100" height="264.86" fill="none" stroke="limegreen" stroke-width="2"/><rect x="1796.35" y="482.702702702703" width="100" height="264.86" fill="none" stroke="limegreen" stroke-width="2"/> <rect x="466.96" y="747.567567567568" width="100" height="272.43" fill="none" stroke="limegreen" stroke-width="2"/><rect x="910.09" y="747.567567567568" width="100" height="60.54" fill="none" stroke="limegreen" stroke-width="2"/> </g><g><text x="221.54" y="495.41" font-family="Consolas" font-size="48" text-anchor="middle" fill="white">3.2</text><text x="369.25" y="654.32" font-family="Consolas" font-size="48" text-anchor="middle" fill="white">1.1</text><text x="664.67" y="351.62" font-family="Consolas" font-size="48" text-anchor="middle" fill="white">5.1</text><text x="812.38" y="170" font-family="Consolas" font-size="48" text-anchor="middle" fill="white">7.5</text><text x="1107.8" y="624.05" font-family="Consolas" font-size="48" text-anchor="middle" fill="white">1.5</text><text x="1255.51" y="389.46" font-family="Consolas" font-size="48" text-anchor="middle" fill="white">4.6</text><text x="1403.22" y="404.59" font-family="Consolas" font-size="48" text-anchor="middle" fill="white">4.4</text><text x="1550.93" y="465.14" font-family="Consolas" font-size="48" text-anchor="middle" fill="white">3.6</text><text x="1698.64" y="472.7" font-family="Consolas" font-size="48" text-anchor="middle" fill="white">3.5</text><text x="1846.35" y="472.7" font-family="Consolas" font-size="48" text-anchor="middle" fill="white">3.5</text> <text x="466.96" y="1010" font-family="Consolas" font-size="48" ttext-anchor="middle" fill="white">-3.6</text><text x="910.09" y="798.108108108108" font-family="Consolas" font-size="48" ttext-anchor="middle" fill="white">-0.8</text></g><g><text x="231.54" y="762.567567567568" transform="rotate(270 221.54 747.567567567568)" font-family="Consolas" font-size="50" fill="limegreen">2018</text><text x="379.25" y="762.567567567568" transform="rotate(270 369.25 747.567567567568)" font-family="Consolas" font-size="50" fill="limegreen">2019</text><text x="526.96" y="762.567567567568" transform="rotate(270 516.96 747.567567567568)" font-family="Consolas" font-size="50" fill="limegreen">2020</text><text x="674.67" y="762.567567567568" transform="rotate(270 664.67 747.567567567568)" font-family="Consolas" font-size="50" fill="limegreen">2021</text><text x="822.38" y="762.567567567568" transform="rotate(270 812.38 747.567567567568)" font-family="Consolas" font-size="50" fill="limegreen">2022</text><text x="970.09" y="762.567567567568" transform="rotate(270 960.09 747.567567567568)" font-family="Consolas" font-size="50" fill="limegreen">2023</text><text x="1117.8" y="762.567567567568" transform="rotate(270 1107.8 747.567567567568)" font-family="Consolas" font-size="50" fill="limegreen">2024</text><text x="1265.51" y="762.567567567568" transform="rotate(270 1255.51 747.567567567568)" font-family="Consolas" font-size="50" fill="limegreen">2025</text><text x="1413.22" y="762.567567567568" transform="rotate(270 1403.22 747.567567567568)" font-family="Consolas" font-size="50" fill="limegreen">2026</text><text x="1560.93" y="762.567567567568" transform="rotate(270 1550.93 747.567567567568)" font-family="Consolas" font-size="50" fill="limegreen">2027</text><text x="1708.64" y="762.567567567568" transform="rotate(270 1698.64 747.567567567568)" font-family="Consolas" font-size="50" fill="limegreen">2028</text><text x="1856.35" y="762.567567567568" transform="rotate(270 1846.35 747.567567567568)" font-family="Consolas" font-size="50" fill="limegreen">2029</text></g></g></svg>
