<svg xmlns="http://www.w3.org/2000/svg" width="1920" height="1080"> <rect width="100%" height="100%" fill="#000"/><g xmlns="http://www.w3.org/2000/svg" transform="translate(0,0) scale(1.0)"> <text  x="1080" y="60" font-family="Consolas" font-size="52" text-anchor="middle" fill="white">REAL  GDP ANNUAL PERCENT CHANGE (2018-2029) [IMF DATA]</text><text  x="1700" y="1050" font-family="Consolas" font-size="22" text-anchor="middle" fill="white">DESIGNED BY ZOOMIT WORLD</text><image x="180" y="-50" width="280" height="280" href="https://cdn.jsdelivr.net/gh/hampusborgos/country-flags@main/svg/bs.svg"></image><text x="70" y="180" font-family="Consolas" font-size="50" text-anchor="middle" fill="white">6%</text><text x="70" y="483.947368421053" font-family="Consolas" font-size="50" text-anchor="middle" fill="white">3%</text><text x="70" y="787.894736842105" font-family="Consolas" font-size="50" text-anchor="middle" fill="white">0%</text><text x="70" y="903.947368421053" font-family="Consolas" font-size="50" text-anchor="middle" fill="white">-1%</text><text x="70" y="1020" font-family="Consolas" font-size="50" text-anchor="middle" fill="white">-2%</text><line  x1="141.54" y1="180" x2="141.54" y2="1020" stroke="white" stroke-width="2"/><line x1="141.54"  y1="787.894736842105" x2="1920" y2="787.894736842105" stroke="white" stroke-width="5"/><g><rect x="171.54" y="478.421052631579" width="100" height="309.47" fill="none" stroke="limegreen" stroke-width="2"/><rect x="319.25" y="588.947368421053" width="100" height="198.95" fill="none" stroke="limegreen" stroke-width="2"/><rect x="614.67" y="180" width="100" height="607.89" fill="none" stroke="limegreen" stroke-width="2"/><rect x="762.38" y="356.842105263158" width="100" height="431.05" fill="none" stroke="limegreen" stroke-width="2"/><rect x="910.09" y="566.842105263158" width="100" height="221.05" fill="none" stroke="limegreen" stroke-width="2"/><rect x="1057.8" y="655.263157894737" width="100" height="132.63" fill="none" stroke="limegreen" stroke-width="2"/><rect x="1205.51" y="555.789473684211" width="100" height="232.11" fill="none" stroke="limegreen" stroke-width="2"/><rect x="1353.22" y="544.736842105263" width="100" height="243.16" fill="none" stroke="limegreen" stroke-width="2"/><rect x="1500.93" y="544.736842105263" width="100" height="243.16" fill="none" stroke="limegreen" stroke-width="2"/><rect x="1648.64" y="533.684210526316" width="100" height="254.21" fill="none" stroke="limegreen" stroke-width="2"/><rect x="1796.35" y="533.684210526316" width="100" height="254.21" fill="none" stroke="limegreen" stroke-width="2"/> <rect x="466.96" y="787.894736842105" width="100" height="232.11" fill="none" stroke="limegreen" stroke-width="2"/> </g><g><text x="221.54" y="468.42" font-family="Consolas" font-size="48" text-anchor="middle" fill="white">2.8</text><text x="369.25" y="578.95" font-family="Consolas" font-size="48" text-anchor="middle" fill="white">1.8</text><text x="664.67" y="170" font-family="Consolas" font-size="48" text-anchor="middle" fill="white">5.5</text><text x="812.38" y="346.84" font-family="Consolas" font-size="48" text-anchor="middle" fill="white">3.9</text><text x="960.09" y="556.84" font-family="Consolas" font-size="48" text-anchor="middle" fill="white">2</text><text x="1107.8" y="645.26" font-family="Consolas" font-size="48" text-anchor="middle" fill="white">1.2</text><text x="1255.51" y="545.79" font-family="Consolas" font-size="48" text-anchor="middle" fill="white">2.1</text><text x="1403.22" y="534.74" font-family="Consolas" font-size="48" text-anchor="middle" fill="white">2.2</text><text x="1550.93" y="534.74" font-family="Consolas" font-size="48" text-anchor="middle" fill="white">2.2</text><text x="1698.64" y="523.68" font-family="Consolas" font-size="48" text-anchor="middle" fill="white">2.3</text><text x="1846.35" y="523.68" font-family="Consolas" font-size="48" text-anchor="middle" fill="white">2.3</text> <text x="466.96" y="1010" font-family="Consolas" font-size="48" ttext-anchor="middle" fill="white">-2.1</text></g><g><text x="231.54" y="802.894736842105" transform="rotate(270 221.54 787.894736842105)" font-family="Consolas" font-size="50" fill="limegreen">2018</text><text x="379.25" y="802.894736842105" transform="rotate(270 369.25 787.894736842105)" font-family="Consolas" font-size="50" fill="limegreen">2019</text><text x="526.96" y="802.894736842105" transform="rotate(270 516.96 787.894736842105)" font-family="Consolas" font-size="50" fill="limegreen">2020</text><text x="674.67" y="802.894736842105" transform="rotate(270 664.67 787.894736842105)" font-family="Consolas" font-size="50" fill="limegreen">2021</text><text x="822.38" y="802.894736842105" transform="rotate(270 812.38 787.894736842105)" font-family="Consolas" font-size="50" fill="limegreen">2022</text><text x="970.09" y="802.894736842105" transform="rotate(270 960.09 787.894736842105)" font-family="Consolas" font-size="50" fill="limegreen">2023</text><text x="1117.8" y="802.894736842105" transform="rotate(270 1107.8 787.894736842105)" font-family="Consolas" font-size="50" fill="limegreen">2024</text><text x="1265.51" y="802.894736842105" transform="rotate(270 1255.51 787.894736842105)" font-family="Consolas" font-size="50" fill="limegreen">2025</text><text x="1413.22" y="802.894736842105" transform="rotate(270 1403.22 787.894736842105)" font-family="Consolas" font-size="50" fill="limegreen">2026</text><text x="1560.93" y="802.894736842105" transform="rotate(270 1550.93 787.894736842105)" font-family="Consolas" font-size="50" fill="limegreen">2027</text><text x="1708.64" y="802.894736842105" transform="rotate(270 1698.64 787.894736842105)" font-family="Consolas" font-size="50" fill="limegreen">2028</text><text x="1856.35" y="802.894736842105" transform="rotate(270 1846.35 787.894736842105)" font-family="Consolas" font-size="50" fill="limegreen">2029</text></g></g></svg>
