<svg xmlns="http://www.w3.org/2000/svg" width="1920" height="1080"> <rect width="100%" height="100%" fill="#000"/><g xmlns="http://www.w3.org/2000/svg" transform="translate(0,0) scale(1.0)"> <text  x="1080" y="60" font-family="Consolas" font-size="52" text-anchor="middle" fill="white">REAL  GDP ANNUAL PERCENT CHANGE (2018-2029) [IMF DATA]</text><text  x="1780" y="1050" font-family="Consolas" font-size="32" text-anchor="middle" fill="white">ZOOMIT WORLD</text><image x="180" y="-50" width="280" height="280" href="https://cdn.jsdelivr.net/gh/hampusborgos/country-flags@main/svg/ke.svg"></image><text x="70" y="180" font-family="Consolas" font-size="50" text-anchor="middle" fill="white">8%</text><text x="70" y="584.050632911392" font-family="Consolas" font-size="50" text-anchor="middle" fill="white">4%</text><text x="70" y="988.101265822785" font-family="Consolas" font-size="50" text-anchor="middle" fill="white">0%</text><text x="70" y="1004.05063291139" font-family="Consolas" font-size="50" text-anchor="middle" fill="white">0%</text><text x="70" y="1020" font-family="Consolas" font-size="50" text-anchor="middle" fill="white">0%</text><line  x1="141.54" y1="180" x2="141.54" y2="1020" stroke="white" stroke-width="2"/><line x1="141.54"  y1="988.101265822785" x2="1920" y2="988.101265822785" stroke="white" stroke-width="5"/><g><rect x="171.54" y="382.025316455696" width="100" height="606.08" fill="none" stroke="limegreen" stroke-width="2"/><rect x="319.25" y="445.822784810127" width="100" height="542.28" fill="none" stroke="limegreen" stroke-width="2"/><rect x="614.67" y="180" width="100" height="808.10" fill="none" stroke="limegreen" stroke-width="2"/><rect x="762.38" y="467.088607594937" width="100" height="521.01" fill="none" stroke="limegreen" stroke-width="2"/><rect x="910.09" y="392.658227848101" width="100" height="595.44" fill="none" stroke="limegreen" stroke-width="2"/><rect x="1057.8" y="456.455696202532" width="100" height="531.65" fill="none" stroke="limegreen" stroke-width="2"/><rect x="1205.51" y="456.455696202532" width="100" height="531.65" fill="none" stroke="limegreen" stroke-width="2"/><rect x="1353.22" y="456.455696202532" width="100" height="531.65" fill="none" stroke="limegreen" stroke-width="2"/><rect x="1500.93" y="456.455696202532" width="100" height="531.65" fill="none" stroke="limegreen" stroke-width="2"/><rect x="1648.64" y="456.455696202532" width="100" height="531.65" fill="none" stroke="limegreen" stroke-width="2"/><rect x="1796.35" y="456.455696202532" width="100" height="531.65" fill="none" stroke="limegreen" stroke-width="2"/> <rect x="466.96" y="988.101265822785" width="100" height="31.90" fill="none" stroke="limegreen" stroke-width="2"/> </g><g><text x="221.54" y="372.03" font-family="Consolas" font-size="48" text-anchor="middle" fill="white">5.7</text><text x="369.25" y="435.82" font-family="Consolas" font-size="48" text-anchor="middle" fill="white">5.1</text><text x="664.67" y="170" font-family="Consolas" font-size="48" text-anchor="middle" fill="white">7.6</text><text x="812.38" y="457.09" font-family="Consolas" font-size="48" text-anchor="middle" fill="white">4.9</text><text x="960.09" y="382.66" font-family="Consolas" font-size="48" text-anchor="middle" fill="white">5.6</text><text x="1107.8" y="446.46" font-family="Consolas" font-size="48" text-anchor="middle" fill="white">5</text><text x="1255.51" y="446.46" font-family="Consolas" font-size="48" text-anchor="middle" fill="white">5</text><text x="1403.22" y="446.46" font-family="Consolas" font-size="48" text-anchor="middle" fill="white">5</text><text x="1550.93" y="446.46" font-family="Consolas" font-size="48" text-anchor="middle" fill="white">5</text><text x="1698.64" y="446.46" font-family="Consolas" font-size="48" text-anchor="middle" fill="white">5</text><text x="1846.35" y="446.46" font-family="Consolas" font-size="48" text-anchor="middle" fill="white">5</text> <text x="466.96" y="1010" font-family="Consolas" font-size="48" ttext-anchor="middle" fill="white">-0.3</text></g><g><text x="231.54" y="1003.10126582278" transform="rotate(270 221.54 988.101265822785)" font-family="Consolas" font-size="50" fill="limegreen">2018</text><text x="379.25" y="1003.10126582278" transform="rotate(270 369.25 988.101265822785)" font-family="Consolas" font-size="50" fill="limegreen">2019</text><text x="526.96" y="1003.10126582278" transform="rotate(270 516.96 988.101265822785)" font-family="Consolas" font-size="50" fill="limegreen">2020</text><text x="674.67" y="1003.10126582278" transform="rotate(270 664.67 988.101265822785)" font-family="Consolas" font-size="50" fill="limegreen">2021</text><text x="822.38" y="1003.10126582278" transform="rotate(270 812.38 988.101265822785)" font-family="Consolas" font-size="50" fill="limegreen">2022</text><text x="970.09" y="1003.10126582278" transform="rotate(270 960.09 988.101265822785)" font-family="Consolas" font-size="50" fill="limegreen">2023</text><text x="1117.8" y="1003.10126582278" transform="rotate(270 1107.8 988.101265822785)" font-family="Consolas" font-size="50" fill="limegreen">2024</text><text x="1265.51" y="1003.10126582278" transform="rotate(270 1255.51 988.101265822785)" font-family="Consolas" font-size="50" fill="limegreen">2025</text><text x="1413.22" y="1003.10126582278" transform="rotate(270 1403.22 988.101265822785)" font-family="Consolas" font-size="50" fill="limegreen">2026</text><text x="1560.93" y="1003.10126582278" transform="rotate(270 1550.93 988.101265822785)" font-family="Consolas" font-size="50" fill="limegreen">2027</text><text x="1708.64" y="1003.10126582278" transform="rotate(270 1698.64 988.101265822785)" font-family="Consolas" font-size="50" fill="limegreen">2028</text><text x="1856.35" y="1003.10126582278" transform="rotate(270 1846.35 988.101265822785)" font-family="Consolas" font-size="50" fill="limegreen">2029</text></g></g></svg>
