<svg xmlns="http://www.w3.org/2000/svg" width="1920" height="1080"> <rect width="100%" height="100%" fill="#000"/><g xmlns="http://www.w3.org/2000/svg" transform="translate(0,0) scale(1.0)"> <text  x="1080" y="60" font-family="Consolas" font-size="52" text-anchor="middle" fill="white">REAL  GDP ANNUAL PERCENT CHANGE (2018-2029) [IMF DATA]</text><text  x="1780" y="1050" font-family="Consolas" font-size="32" text-anchor="middle" fill="white">ZOOMIT WORLD</text><image x="180" y="-50" width="280" height="280" href="https://www.svgrepo.com/show/405413/flag-for-flag-aruba.svg"></image><text x="70" y="180" font-family="Consolas" font-size="50" text-anchor="middle" fill="white">28%</text><text x="70" y="404.651162790698" font-family="Consolas" font-size="50" text-anchor="middle" fill="white">14%</text><text x="70" y="629.302325581395" font-family="Consolas" font-size="50" text-anchor="middle" fill="white">0%</text><text x="70" y="824.651162790698" font-family="Consolas" font-size="50" text-anchor="middle" fill="white">-12%</text><text x="70" y="1020" font-family="Consolas" font-size="50" text-anchor="middle" fill="white">-24%</text><line  x1="141.54" y1="180" x2="141.54" y2="1020" stroke="white" stroke-width="2"/><line x1="141.54"  y1="629.302325581395" x2="1920" y2="629.302325581395" stroke="white" stroke-width="5"/><g><rect x="171.54" y="590.232558139535" width="100" height="39.07" fill="none" stroke="limegreen" stroke-width="2"/><rect x="614.67" y="180" width="100" height="449.30" fill="none" stroke="limegreen" stroke-width="2"/><rect x="762.38" y="458.372093023256" width="100" height="170.93" fill="none" stroke="limegreen" stroke-width="2"/><rect x="910.09" y="543.023255813953" width="100" height="86.28" fill="none" stroke="limegreen" stroke-width="2"/><rect x="1057.8" y="539.767441860465" width="100" height="89.53" fill="none" stroke="limegreen" stroke-width="2"/><rect x="1205.51" y="596.744186046512" width="100" height="32.56" fill="none" stroke="limegreen" stroke-width="2"/><rect x="1353.22" y="606.511627906977" width="100" height="22.79" fill="none" stroke="limegreen" stroke-width="2"/><rect x="1500.93" y="606.511627906977" width="100" height="22.79" fill="none" stroke="limegreen" stroke-width="2"/><rect x="1648.64" y="606.511627906977" width="100" height="22.79" fill="none" stroke="limegreen" stroke-width="2"/><rect x="1796.35" y="606.511627906977" width="100" height="22.79" fill="none" stroke="limegreen" stroke-width="2"/> <rect x="319.25" y="629.302325581395" width="100" height="37.44" fill="none" stroke="limegreen" stroke-width="2"/><rect x="466.96" y="629.302325581395" width="100" height="390.70" fill="none" stroke="limegreen" stroke-width="2"/> </g><g><text x="221.54" y="580.23" font-family="Consolas" font-size="48" text-anchor="middle" fill="white">2.4</text><text x="664.67" y="170" font-family="Consolas" font-size="48" text-anchor="middle" fill="white">27.6</text><text x="812.38" y="448.37" font-family="Consolas" font-size="48" text-anchor="middle" fill="white">10.5</text><text x="960.09" y="533.02" font-family="Consolas" font-size="48" text-anchor="middle" fill="white">5.3</text><text x="1107.8" y="529.77" font-family="Consolas" font-size="48" text-anchor="middle" fill="white">5.5</text><text x="1255.51" y="586.74" font-family="Consolas" font-size="48" text-anchor="middle" fill="white">2</text><text x="1403.22" y="596.51" font-family="Consolas" font-size="48" text-anchor="middle" fill="white">1.4</text><text x="1550.93" y="596.51" font-family="Consolas" font-size="48" text-anchor="middle" fill="white">1.4</text><text x="1698.64" y="596.51" font-family="Consolas" font-size="48" text-anchor="middle" fill="white">1.4</text><text x="1846.35" y="596.51" font-family="Consolas" font-size="48" text-anchor="middle" fill="white">1.4</text> <text x="319.25" y="656.744186046512" font-family="Consolas" font-size="48" ttext-anchor="middle" fill="white">-2.3</text><text x="466.96" y="1010" font-family="Consolas" font-size="48" ttext-anchor="middle" fill="white">-24</text></g><g><text x="231.54" y="644.302325581395" transform="rotate(270 221.54 629.302325581395)" font-family="Consolas" font-size="50" fill="limegreen">2018</text><text x="379.25" y="644.302325581395" transform="rotate(270 369.25 629.302325581395)" font-family="Consolas" font-size="50" fill="limegreen">2019</text><text x="526.96" y="644.302325581395" transform="rotate(270 516.96 629.302325581395)" font-family="Consolas" font-size="50" fill="limegreen">2020</text><text x="674.67" y="644.302325581395" transform="rotate(270 664.67 629.302325581395)" font-family="Consolas" font-size="50" fill="limegreen">2021</text><text x="822.38" y="644.302325581395" transform="rotate(270 812.38 629.302325581395)" font-family="Consolas" font-size="50" fill="limegreen">2022</text><text x="970.09" y="644.302325581395" transform="rotate(270 960.09 629.302325581395)" font-family="Consolas" font-size="50" fill="limegreen">2023</text><text x="1117.8" y="644.302325581395" transform="rotate(270 1107.8 629.302325581395)" font-family="Consolas" font-size="50" fill="limegreen">2024</text><text x="1265.51" y="644.302325581395" transform="rotate(270 1255.51 629.302325581395)" font-family="Consolas" font-size="50" fill="limegreen">2025</text><text x="1413.22" y="644.302325581395" transform="rotate(270 1403.22 629.302325581395)" font-family="Consolas" font-size="50" fill="limegreen">2026</text><text x="1560.93" y="644.302325581395" transform="rotate(270 1550.93 629.302325581395)" font-family="Consolas" font-size="50" fill="limegreen">2027</text><text x="1708.64" y="644.302325581395" transform="rotate(270 1698.64 629.302325581395)" font-family="Consolas" font-size="50" fill="limegreen">2028</text><text x="1856.35" y="644.302325581395" transform="rotate(270 1846.35 629.302325581395)" font-family="Consolas" font-size="50" fill="limegreen">2029</text></g></g></svg>
