<svg xmlns="http://www.w3.org/2000/svg" width="1920" height="1080"> <rect width="100%" height="100%" fill="#000"/><g xmlns="http://www.w3.org/2000/svg" transform="translate(0,0) scale(1.0)"> <text  x="1080" y="60" font-family="Consolas" font-size="52" text-anchor="middle" fill="white">REAL  GDP ANNUAL PERCENT CHANGE (2018-2029) [IMF DATA]</text><text  x="1780" y="1050" font-family="Consolas" font-size="32" text-anchor="middle" fill="white">ZOOMIT WORLD</text><image x="180" y="-50" width="280" height="280" href="https://cdn.jsdelivr.net/gh/hampusborgos/country-flags@main/svg/br.svg"></image><text x="70" y="180" font-family="Consolas" font-size="50" text-anchor="middle" fill="white">5%</text><text x="70" y="428.888888888889" font-family="Consolas" font-size="50" text-anchor="middle" fill="white">2.5%</text><text x="70" y="677.777777777778" font-family="Consolas" font-size="50" text-anchor="middle" fill="white">0%</text><text x="70" y="848.888888888889" font-family="Consolas" font-size="50" text-anchor="middle" fill="white">-1.5%</text><text x="70" y="1020" font-family="Consolas" font-size="50" text-anchor="middle" fill="white">-3%</text><line  x1="141.54" y1="180" x2="141.54" y2="1020" stroke="white" stroke-width="2"/><line x1="141.54"  y1="677.777777777778" x2="1920" y2="677.777777777778" stroke="white" stroke-width="5"/><g><rect x="171.54" y="491.111111111111" width="100" height="186.67" fill="none" stroke="limegreen" stroke-width="2"/><rect x="319.25" y="553.333333333333" width="100" height="124.44" fill="none" stroke="limegreen" stroke-width="2"/><rect x="614.67" y="180" width="100" height="497.78" fill="none" stroke="limegreen" stroke-width="2"/><rect x="762.38" y="366.666666666667" width="100" height="311.11" fill="none" stroke="limegreen" stroke-width="2"/><rect x="910.09" y="377.037037037037" width="100" height="300.74" fill="none" stroke="limegreen" stroke-width="2"/><rect x="1057.8" y="366.666666666667" width="100" height="311.11" fill="none" stroke="limegreen" stroke-width="2"/><rect x="1205.51" y="449.62962962963" width="100" height="228.15" fill="none" stroke="limegreen" stroke-width="2"/><rect x="1353.22" y="439.259259259259" width="100" height="238.52" fill="none" stroke="limegreen" stroke-width="2"/><rect x="1500.93" y="428.888888888889" width="100" height="248.89" fill="none" stroke="limegreen" stroke-width="2"/><rect x="1648.64" y="418.518518518519" width="100" height="259.26" fill="none" stroke="limegreen" stroke-width="2"/><rect x="1796.35" y="418.518518518519" width="100" height="259.26" fill="none" stroke="limegreen" stroke-width="2"/> <rect x="466.96" y="677.777777777778" width="100" height="342.22" fill="none" stroke="limegreen" stroke-width="2"/> </g><g><text x="221.54" y="481.11" font-family="Consolas" font-size="48" text-anchor="middle" fill="white">1.8</text><text x="369.25" y="543.33" font-family="Consolas" font-size="48" text-anchor="middle" fill="white">1.2</text><text x="664.67" y="170" font-family="Consolas" font-size="48" text-anchor="middle" fill="white">4.8</text><text x="812.38" y="356.67" font-family="Consolas" font-size="48" text-anchor="middle" fill="white">3</text><text x="960.09" y="367.04" font-family="Consolas" font-size="48" text-anchor="middle" fill="white">2.9</text><text x="1107.8" y="356.67" font-family="Consolas" font-size="48" text-anchor="middle" fill="white">3</text><text x="1255.51" y="439.63" font-family="Consolas" font-size="48" text-anchor="middle" fill="white">2.2</text><text x="1403.22" y="429.26" font-family="Consolas" font-size="48" text-anchor="middle" fill="white">2.3</text><text x="1550.93" y="418.89" font-family="Consolas" font-size="48" text-anchor="middle" fill="white">2.4</text><text x="1698.64" y="408.52" font-family="Consolas" font-size="48" text-anchor="middle" fill="white">2.5</text><text x="1846.35" y="408.52" font-family="Consolas" font-size="48" text-anchor="middle" fill="white">2.5</text> <text x="466.96" y="1010" font-family="Consolas" font-size="48" ttext-anchor="middle" fill="white">-3.3</text></g><g><text x="231.54" y="692.777777777778" transform="rotate(270 221.54 677.777777777778)" font-family="Consolas" font-size="50" fill="limegreen">2018</text><text x="379.25" y="692.777777777778" transform="rotate(270 369.25 677.777777777778)" font-family="Consolas" font-size="50" fill="limegreen">2019</text><text x="526.96" y="692.777777777778" transform="rotate(270 516.96 677.777777777778)" font-family="Consolas" font-size="50" fill="limegreen">2020</text><text x="674.67" y="692.777777777778" transform="rotate(270 664.67 677.777777777778)" font-family="Consolas" font-size="50" fill="limegreen">2021</text><text x="822.38" y="692.777777777778" transform="rotate(270 812.38 677.777777777778)" font-family="Consolas" font-size="50" fill="limegreen">2022</text><text x="970.09" y="692.777777777778" transform="rotate(270 960.09 677.777777777778)" font-family="Consolas" font-size="50" fill="limegreen">2023</text><text x="1117.8" y="692.777777777778" transform="rotate(270 1107.8 677.777777777778)" font-family="Consolas" font-size="50" fill="limegreen">2024</text><text x="1265.51" y="692.777777777778" transform="rotate(270 1255.51 677.777777777778)" font-family="Consolas" font-size="50" fill="limegreen">2025</text><text x="1413.22" y="692.777777777778" transform="rotate(270 1403.22 677.777777777778)" font-family="Consolas" font-size="50" fill="limegreen">2026</text><text x="1560.93" y="692.777777777778" transform="rotate(270 1550.93 677.777777777778)" font-family="Consolas" font-size="50" fill="limegreen">2027</text><text x="1708.64" y="692.777777777778" transform="rotate(270 1698.64 677.777777777778)" font-family="Consolas" font-size="50" fill="limegreen">2028</text><text x="1856.35" y="692.777777777778" transform="rotate(270 1846.35 677.777777777778)" font-family="Consolas" font-size="50" fill="limegreen">2029</text></g></g></svg>
