<svg xmlns="http://www.w3.org/2000/svg" width="1920" height="1080"> <rect width="100%" height="100%" fill="#000"/><g xmlns="http://www.w3.org/2000/svg" transform="translate(0,0) scale(1.0)"> <text  x="1080" y="60" font-family="Consolas" font-size="52" text-anchor="middle" fill="white">REAL  GDP ANNUAL PERCENT CHANGE (2018-2029) [IMF DATA]</text><text  x="1700" y="1050" font-family="Consolas" font-size="22" text-anchor="middle" fill="white">DESIGNED BY ZOOMIT WORLD</text><image x="180" y="-50" width="280" height="280" href="https://cdn.jsdelivr.net/gh/hampusborgos/country-flags@main/svg/bs.svg"></image><text x="70" y="180" font-family="Consolas" font-size="50" text-anchor="middle" fill="white">13%</text><text x="70" y="372.932862190813" font-family="Consolas" font-size="50" text-anchor="middle" fill="white">6.5%</text><text x="70" y="565.865724381625" font-family="Consolas" font-size="50" text-anchor="middle" fill="white">0%</text><text x="70" y="792.932862190813" font-family="Consolas" font-size="50" text-anchor="middle" fill="white">-7.5%</text><text x="70" y="1020" font-family="Consolas" font-size="50" text-anchor="middle" fill="white">-15%</text><line  x1="141.54" y1="180" x2="141.54" y2="1020" stroke="white" stroke-width="2"/><line x1="141.54"  y1="565.865724381625" x2="1920" y2="565.865724381625" stroke="white" stroke-width="5"/><g><rect x="171.54" y="414.487632508834" width="100" height="151.38" fill="none" stroke="limegreen" stroke-width="2"/><rect x="319.25" y="444.16961130742" width="100" height="121.70" fill="none" stroke="limegreen" stroke-width="2"/><rect x="614.67" y="180" width="100" height="385.87" fill="none" stroke="limegreen" stroke-width="2"/><rect x="762.38" y="375.901060070671" width="100" height="189.96" fill="none" stroke="limegreen" stroke-width="2"/><rect x="910.09" y="387.773851590106" width="100" height="178.09" fill="none" stroke="limegreen" stroke-width="2"/><rect x="1057.8" y="456.042402826855" width="100" height="109.82" fill="none" stroke="limegreen" stroke-width="2"/><rect x="1205.51" y="456.042402826855" width="100" height="109.82" fill="none" stroke="limegreen" stroke-width="2"/><rect x="1353.22" y="476.819787985866" width="100" height="89.05" fill="none" stroke="limegreen" stroke-width="2"/><rect x="1500.93" y="476.819787985866" width="100" height="89.05" fill="none" stroke="limegreen" stroke-width="2"/><rect x="1648.64" y="476.819787985866" width="100" height="89.05" fill="none" stroke="limegreen" stroke-width="2"/><rect x="1796.35" y="476.819787985866" width="100" height="89.05" fill="none" stroke="limegreen" stroke-width="2"/> <rect x="466.96" y="565.865724381625" width="100" height="454.13" fill="none" stroke="limegreen" stroke-width="2"/> </g><g><text x="221.54" y="404.49" font-family="Consolas" font-size="48" text-anchor="middle" fill="white">5.1</text><text x="369.25" y="434.17" font-family="Consolas" font-size="48" text-anchor="middle" fill="white">4.1</text><text x="664.67" y="170" font-family="Consolas" font-size="48" text-anchor="middle" fill="white">13</text><text x="812.38" y="365.9" font-family="Consolas" font-size="48" text-anchor="middle" fill="white">6.4</text><text x="960.09" y="377.77" font-family="Consolas" font-size="48" text-anchor="middle" fill="white">6</text><text x="1107.8" y="446.04" font-family="Consolas" font-size="48" text-anchor="middle" fill="white">3.7</text><text x="1255.51" y="446.04" font-family="Consolas" font-size="48" text-anchor="middle" fill="white">3.7</text><text x="1403.22" y="466.82" font-family="Consolas" font-size="48" text-anchor="middle" fill="white">3</text><text x="1550.93" y="466.82" font-family="Consolas" font-size="48" text-anchor="middle" fill="white">3</text><text x="1698.64" y="466.82" font-family="Consolas" font-size="48" text-anchor="middle" fill="white">3</text><text x="1846.35" y="466.82" font-family="Consolas" font-size="48" text-anchor="middle" fill="white">3</text> <text x="466.96" y="1010" font-family="Consolas" font-size="48" ttext-anchor="middle" fill="white">-15.3</text></g><g><text x="231.54" y="580.865724381625" transform="rotate(270 221.54 565.865724381625)" font-family="Consolas" font-size="50" fill="limegreen">2018</text><text x="379.25" y="580.865724381625" transform="rotate(270 369.25 565.865724381625)" font-family="Consolas" font-size="50" fill="limegreen">2019</text><text x="526.96" y="580.865724381625" transform="rotate(270 516.96 565.865724381625)" font-family="Consolas" font-size="50" fill="limegreen">2020</text><text x="674.67" y="580.865724381625" transform="rotate(270 664.67 565.865724381625)" font-family="Consolas" font-size="50" fill="limegreen">2021</text><text x="822.38" y="580.865724381625" transform="rotate(270 812.38 565.865724381625)" font-family="Consolas" font-size="50" fill="limegreen">2022</text><text x="970.09" y="580.865724381625" transform="rotate(270 960.09 565.865724381625)" font-family="Consolas" font-size="50" fill="limegreen">2023</text><text x="1117.8" y="580.865724381625" transform="rotate(270 1107.8 565.865724381625)" font-family="Consolas" font-size="50" fill="limegreen">2024</text><text x="1265.51" y="580.865724381625" transform="rotate(270 1255.51 565.865724381625)" font-family="Consolas" font-size="50" fill="limegreen">2025</text><text x="1413.22" y="580.865724381625" transform="rotate(270 1403.22 565.865724381625)" font-family="Consolas" font-size="50" fill="limegreen">2026</text><text x="1560.93" y="580.865724381625" transform="rotate(270 1550.93 565.865724381625)" font-family="Consolas" font-size="50" fill="limegreen">2027</text><text x="1708.64" y="580.865724381625" transform="rotate(270 1698.64 565.865724381625)" font-family="Consolas" font-size="50" fill="limegreen">2028</text><text x="1856.35" y="580.865724381625" transform="rotate(270 1846.35 565.865724381625)" font-family="Consolas" font-size="50" fill="limegreen">2029</text></g></g></svg>
