<svg xmlns="http://www.w3.org/2000/svg" width="1920" height="1080"> <rect width="100%" height="100%" fill="#000"/><g xmlns="http://www.w3.org/2000/svg" transform="translate(0,0) scale(1.0)"> <text  x="1080" y="60" font-family="Consolas" font-size="52" text-anchor="middle" fill="white">REAL  GDP ANNUAL PERCENT CHANGE (2018-2029) [IMF DATA]</text><text  x="1780" y="1050" font-family="Consolas" font-size="32" text-anchor="middle" fill="white">ZOOMIT WORLD</text><image x="180" y="-50" width="280" height="280" href="https://cdn.jsdelivr.net/gh/hampusborgos/country-flags@main/svg/ni.svg"></image><text x="70" y="180" font-family="Consolas" font-size="50" text-anchor="middle" fill="white">10%</text><text x="70" y="495.766423357664" font-family="Consolas" font-size="50" text-anchor="middle" fill="white">5%</text><text x="70" y="811.532846715328" font-family="Consolas" font-size="50" text-anchor="middle" fill="white">0%</text><text x="70" y="915.766423357664" font-family="Consolas" font-size="50" text-anchor="middle" fill="white">-1.5%</text><text x="70" y="1020" font-family="Consolas" font-size="50" text-anchor="middle" fill="white">-3%</text><line  x1="141.54" y1="180" x2="141.54" y2="1020" stroke="white" stroke-width="2"/><line x1="141.54"  y1="811.532846715328" x2="1920" y2="811.532846715328" stroke="white" stroke-width="5"/><g><rect x="614.67" y="180" width="100" height="631.53" fill="none" stroke="limegreen" stroke-width="2"/><rect x="762.38" y="578.540145985402" width="100" height="232.99" fill="none" stroke="limegreen" stroke-width="2"/><rect x="910.09" y="529.489051094891" width="100" height="282.04" fill="none" stroke="limegreen" stroke-width="2"/><rect x="1057.8" y="566.277372262774" width="100" height="245.26" fill="none" stroke="limegreen" stroke-width="2"/><rect x="1205.51" y="578.540145985402" width="100" height="232.99" fill="none" stroke="limegreen" stroke-width="2"/><rect x="1353.22" y="596.934306569343" width="100" height="214.60" fill="none" stroke="limegreen" stroke-width="2"/><rect x="1500.93" y="596.934306569343" width="100" height="214.60" fill="none" stroke="limegreen" stroke-width="2"/><rect x="1648.64" y="596.934306569343" width="100" height="214.60" fill="none" stroke="limegreen" stroke-width="2"/><rect x="1796.35" y="596.934306569343" width="100" height="214.60" fill="none" stroke="limegreen" stroke-width="2"/> <rect x="171.54" y="811.532846715328" width="100" height="208.47" fill="none" stroke="limegreen" stroke-width="2"/><rect x="319.25" y="811.532846715328" width="100" height="177.81" fill="none" stroke="limegreen" stroke-width="2"/><rect x="466.96" y="811.532846715328" width="100" height="110.36" fill="none" stroke="limegreen" stroke-width="2"/> </g><g><text x="664.67" y="170" font-family="Consolas" font-size="48" text-anchor="middle" fill="white">10.3</text><text x="812.38" y="568.54" font-family="Consolas" font-size="48" text-anchor="middle" fill="white">3.8</text><text x="960.09" y="519.49" font-family="Consolas" font-size="48" text-anchor="middle" fill="white">4.6</text><text x="1107.8" y="556.28" font-family="Consolas" font-size="48" text-anchor="middle" fill="white">4</text><text x="1255.51" y="568.54" font-family="Consolas" font-size="48" text-anchor="middle" fill="white">3.8</text><text x="1403.22" y="586.93" font-family="Consolas" font-size="48" text-anchor="middle" fill="white">3.5</text><text x="1550.93" y="586.93" font-family="Consolas" font-size="48" text-anchor="middle" fill="white">3.5</text><text x="1698.64" y="586.93" font-family="Consolas" font-size="48" text-anchor="middle" fill="white">3.5</text><text x="1846.35" y="586.93" font-family="Consolas" font-size="48" text-anchor="middle" fill="white">3.5</text> <text x="171.54" y="1010" font-family="Consolas" font-size="48" ttext-anchor="middle" fill="white">-3.4</text><text x="319.25" y="979.343065693431" font-family="Consolas" font-size="48" ttext-anchor="middle" fill="white">-2.9</text><text x="466.96" y="911.897810218978" font-family="Consolas" font-size="48" ttext-anchor="middle" fill="white">-1.8</text></g><g><text x="231.54" y="826.532846715328" transform="rotate(270 221.54 811.532846715328)" font-family="Consolas" font-size="50" fill="limegreen">2018</text><text x="379.25" y="826.532846715328" transform="rotate(270 369.25 811.532846715328)" font-family="Consolas" font-size="50" fill="limegreen">2019</text><text x="526.96" y="826.532846715328" transform="rotate(270 516.96 811.532846715328)" font-family="Consolas" font-size="50" fill="limegreen">2020</text><text x="674.67" y="826.532846715328" transform="rotate(270 664.67 811.532846715328)" font-family="Consolas" font-size="50" fill="limegreen">2021</text><text x="822.38" y="826.532846715328" transform="rotate(270 812.38 811.532846715328)" font-family="Consolas" font-size="50" fill="limegreen">2022</text><text x="970.09" y="826.532846715328" transform="rotate(270 960.09 811.532846715328)" font-family="Consolas" font-size="50" fill="limegreen">2023</text><text x="1117.8" y="826.532846715328" transform="rotate(270 1107.8 811.532846715328)" font-family="Consolas" font-size="50" fill="limegreen">2024</text><text x="1265.51" y="826.532846715328" transform="rotate(270 1255.51 811.532846715328)" font-family="Consolas" font-size="50" fill="limegreen">2025</text><text x="1413.22" y="826.532846715328" transform="rotate(270 1403.22 811.532846715328)" font-family="Consolas" font-size="50" fill="limegreen">2026</text><text x="1560.93" y="826.532846715328" transform="rotate(270 1550.93 811.532846715328)" font-family="Consolas" font-size="50" fill="limegreen">2027</text><text x="1708.64" y="826.532846715328" transform="rotate(270 1698.64 811.532846715328)" font-family="Consolas" font-size="50" fill="limegreen">2028</text><text x="1856.35" y="826.532846715328" transform="rotate(270 1846.35 811.532846715328)" font-family="Consolas" font-size="50" fill="limegreen">2029</text></g></g></svg>
