<svg xmlns="http://www.w3.org/2000/svg" width="1920" height="1080"> <rect width="100%" height="100%" fill="#000"/><g xmlns="http://www.w3.org/2000/svg" transform="translate(0,0) scale(1.0)"> <text  x="1080" y="60" font-family="Consolas" font-size="52" text-anchor="middle" fill="white">REAL  GDP ANNUAL PERCENT CHANGE (2018-2029) [IMF DATA]</text><text  x="1780" y="1050" font-family="Consolas" font-size="32" text-anchor="middle" fill="white">ZOOMIT WORLD</text><image x="180" y="-50" width="280" height="280" href="https://cdn.jsdelivr.net/gh/hampusborgos/country-flags@main/svg/gw.svg"></image><text x="70" y="180" font-family="Consolas" font-size="50" text-anchor="middle" fill="white">6%</text><text x="70" y="518.181818181818" font-family="Consolas" font-size="50" text-anchor="middle" fill="white">3%</text><text x="70" y="856.363636363636" font-family="Consolas" font-size="50" text-anchor="middle" fill="white">0%</text><text x="70" y="938.181818181818" font-family="Consolas" font-size="50" text-anchor="middle" fill="white">1%</text><text x="70" y="1020" font-family="Consolas" font-size="50" text-anchor="middle" fill="white">2%</text><line  x1="141.54" y1="180" x2="141.54" y2="1020" stroke="white" stroke-width="2"/><line x1="141.54"  y1="856.363636363636" x2="1920" y2="856.363636363636" stroke="white" stroke-width="5"/><g><rect x="171.54" y="441.818181818182" width="100" height="414.55" fill="none" stroke="limegreen" stroke-width="2"/><rect x="319.25" y="365.454545454545" width="100" height="490.91" fill="none" stroke="limegreen" stroke-width="2"/><rect x="466.96" y="692.727272727273" width="100" height="163.64" fill="none" stroke="limegreen" stroke-width="2"/><rect x="614.67" y="180" width="100" height="676.36" fill="none" stroke="limegreen" stroke-width="2"/><rect x="762.38" y="354.545454545455" width="100" height="501.82" fill="none" stroke="limegreen" stroke-width="2"/><rect x="910.09" y="289.090909090909" width="100" height="567.27" fill="none" stroke="limegreen" stroke-width="2"/><rect x="1057.8" y="310.909090909091" width="100" height="545.45" fill="none" stroke="limegreen" stroke-width="2"/><rect x="1205.51" y="310.909090909091" width="100" height="545.45" fill="none" stroke="limegreen" stroke-width="2"/><rect x="1353.22" y="310.909090909091" width="100" height="545.45" fill="none" stroke="limegreen" stroke-width="2"/><rect x="1500.93" y="310.909090909091" width="100" height="545.45" fill="none" stroke="limegreen" stroke-width="2"/><rect x="1648.64" y="365.454545454545" width="100" height="490.91" fill="none" stroke="limegreen" stroke-width="2"/><rect x="1796.35" y="365.454545454545" width="100" height="490.91" fill="none" stroke="limegreen" stroke-width="2"/>  </g><g><text x="221.54" y="431.82" font-family="Consolas" font-size="48" text-anchor="middle" fill="white">3.8</text><text x="369.25" y="355.45" font-family="Consolas" font-size="48" text-anchor="middle" fill="white">4.5</text><text x="516.96" y="682.73" font-family="Consolas" font-size="48" text-anchor="middle" fill="white">1.5</text><text x="664.67" y="170" font-family="Consolas" font-size="48" text-anchor="middle" fill="white">6.2</text><text x="812.38" y="344.55" font-family="Consolas" font-size="48" text-anchor="middle" fill="white">4.6</text><text x="960.09" y="279.09" font-family="Consolas" font-size="48" text-anchor="middle" fill="white">5.2</text><text x="1107.8" y="300.91" font-family="Consolas" font-size="48" text-anchor="middle" fill="white">5</text><text x="1255.51" y="300.91" font-family="Consolas" font-size="48" text-anchor="middle" fill="white">5</text><text x="1403.22" y="300.91" font-family="Consolas" font-size="48" text-anchor="middle" fill="white">5</text><text x="1550.93" y="300.91" font-family="Consolas" font-size="48" text-anchor="middle" fill="white">5</text><text x="1698.64" y="355.45" font-family="Consolas" font-size="48" text-anchor="middle" fill="white">4.5</text><text x="1846.35" y="355.45" font-family="Consolas" font-size="48" text-anchor="middle" fill="white">4.5</text> </g><g><text x="231.54" y="871.363636363636" transform="rotate(270 221.54 856.363636363636)" font-family="Consolas" font-size="50" fill="limegreen">2018</text><text x="379.25" y="871.363636363636" transform="rotate(270 369.25 856.363636363636)" font-family="Consolas" font-size="50" fill="limegreen">2019</text><text x="526.96" y="871.363636363636" transform="rotate(270 516.96 856.363636363636)" font-family="Consolas" font-size="50" fill="limegreen">2020</text><text x="674.67" y="871.363636363636" transform="rotate(270 664.67 856.363636363636)" font-family="Consolas" font-size="50" fill="limegreen">2021</text><text x="822.38" y="871.363636363636" transform="rotate(270 812.38 856.363636363636)" font-family="Consolas" font-size="50" fill="limegreen">2022</text><text x="970.09" y="871.363636363636" transform="rotate(270 960.09 856.363636363636)" font-family="Consolas" font-size="50" fill="limegreen">2023</text><text x="1117.8" y="871.363636363636" transform="rotate(270 1107.8 856.363636363636)" font-family="Consolas" font-size="50" fill="limegreen">2024</text><text x="1265.51" y="871.363636363636" transform="rotate(270 1255.51 856.363636363636)" font-family="Consolas" font-size="50" fill="limegreen">2025</text><text x="1413.22" y="871.363636363636" transform="rotate(270 1403.22 856.363636363636)" font-family="Consolas" font-size="50" fill="limegreen">2026</text><text x="1560.93" y="871.363636363636" transform="rotate(270 1550.93 856.363636363636)" font-family="Consolas" font-size="50" fill="limegreen">2027</text><text x="1708.64" y="871.363636363636" transform="rotate(270 1698.64 856.363636363636)" font-family="Consolas" font-size="50" fill="limegreen">2028</text><text x="1856.35" y="871.363636363636" transform="rotate(270 1846.35 856.363636363636)" font-family="Consolas" font-size="50" fill="limegreen">2029</text></g></g></svg>
