<svg xmlns="http://www.w3.org/2000/svg" width="1920" height="1080"> <rect width="100%" height="100%" fill="#000"/><g xmlns="http://www.w3.org/2000/svg" transform="translate(0,0) scale(1.0)"> <text  x="1080" y="60" font-family="Consolas" font-size="52" text-anchor="middle" fill="white">REAL  GDP ANNUAL PERCENT CHANGE (2018-2029) [IMF DATA]</text><text  x="1700" y="1050" font-family="Consolas" font-size="22" text-anchor="middle" fill="white">DESIGNED BY ZOOMIT WORLD</text><image x="180" y="-50" width="280" height="280" href="https://cdn.jsdelivr.net/gh/hampusborgos/country-flags@main/svg/bs.svg"></image><text x="70" y="180" font-family="Consolas" font-size="50" text-anchor="middle" fill="white">3%</text><text x="70" y="325.185185185185" font-family="Consolas" font-size="50" text-anchor="middle" fill="white">1.5%</text><text x="70" y="470.37037037037" font-family="Consolas" font-size="50" text-anchor="middle" fill="white">0%</text><text x="70" y="745.185185185185" font-family="Consolas" font-size="50" text-anchor="middle" fill="white">-2.5%</text><text x="70" y="1020" font-family="Consolas" font-size="50" text-anchor="middle" fill="white">-5%</text><line  x1="141.54" y1="180" x2="141.54" y2="1020" stroke="white" stroke-width="2"/><line x1="141.54"  y1="470.37037037037" x2="1920" y2="470.37037037037" stroke="white" stroke-width="5"/><g><rect x="614.67" y="294.074074074074" width="100" height="176.30" fill="none" stroke="limegreen" stroke-width="2"/><rect x="762.38" y="304.444444444444" width="100" height="165.93" fill="none" stroke="limegreen" stroke-width="2"/><rect x="910.09" y="242.222222222222" width="100" height="228.15" fill="none" stroke="limegreen" stroke-width="2"/><rect x="1057.8" y="180" width="100" height="290.37" fill="none" stroke="limegreen" stroke-width="2"/><rect x="1205.51" y="231.851851851852" width="100" height="238.52" fill="none" stroke="limegreen" stroke-width="2"/><rect x="1353.22" y="273.333333333333" width="100" height="197.04" fill="none" stroke="limegreen" stroke-width="2"/><rect x="1500.93" y="252.592592592593" width="100" height="217.78" fill="none" stroke="limegreen" stroke-width="2"/><rect x="1648.64" y="252.592592592593" width="100" height="217.78" fill="none" stroke="limegreen" stroke-width="2"/><rect x="1796.35" y="252.592592592593" width="100" height="217.78" fill="none" stroke="limegreen" stroke-width="2"/> <rect x="171.54" y="470.37037037037" width="100" height="155.56" fill="none" stroke="limegreen" stroke-width="2"/><rect x="319.25" y="470.37037037037" width="100" height="300.74" fill="none" stroke="limegreen" stroke-width="2"/><rect x="466.96" y="470.37037037037" width="100" height="549.63" fill="none" stroke="limegreen" stroke-width="2"/> </g><g><text x="664.67" y="284.07" font-family="Consolas" font-size="48" text-anchor="middle" fill="white">1.7</text><text x="812.38" y="294.44" font-family="Consolas" font-size="48" text-anchor="middle" fill="white">1.6</text><text x="960.09" y="232.22" font-family="Consolas" font-size="48" text-anchor="middle" fill="white">2.2</text><text x="1107.8" y="170" font-family="Consolas" font-size="48" text-anchor="middle" fill="white">2.8</text><text x="1255.51" y="221.85" font-family="Consolas" font-size="48" text-anchor="middle" fill="white">2.3</text><text x="1403.22" y="263.33" font-family="Consolas" font-size="48" text-anchor="middle" fill="white">1.9</text><text x="1550.93" y="242.59" font-family="Consolas" font-size="48" text-anchor="middle" fill="white">2.1</text><text x="1698.64" y="242.59" font-family="Consolas" font-size="48" text-anchor="middle" fill="white">2.1</text><text x="1846.35" y="242.59" font-family="Consolas" font-size="48" text-anchor="middle" fill="white">2.1</text> <text x="171.54" y="615.925925925926" font-family="Consolas" font-size="48" ttext-anchor="middle" fill="white">-1.5</text><text x="319.25" y="761.111111111111" font-family="Consolas" font-size="48" ttext-anchor="middle" fill="white">-2.9</text><text x="466.96" y="1010" font-family="Consolas" font-size="48" ttext-anchor="middle" fill="white">-5.3</text></g><g><text x="231.54" y="485.37037037037" transform="rotate(270 221.54 470.37037037037)" font-family="Consolas" font-size="50" fill="limegreen">2018</text><text x="379.25" y="485.37037037037" transform="rotate(270 369.25 470.37037037037)" font-family="Consolas" font-size="50" fill="limegreen">2019</text><text x="526.96" y="485.37037037037" transform="rotate(270 516.96 470.37037037037)" font-family="Consolas" font-size="50" fill="limegreen">2020</text><text x="674.67" y="485.37037037037" transform="rotate(270 664.67 470.37037037037)" font-family="Consolas" font-size="50" fill="limegreen">2021</text><text x="822.38" y="485.37037037037" transform="rotate(270 812.38 470.37037037037)" font-family="Consolas" font-size="50" fill="limegreen">2022</text><text x="970.09" y="485.37037037037" transform="rotate(270 960.09 470.37037037037)" font-family="Consolas" font-size="50" fill="limegreen">2023</text><text x="1117.8" y="485.37037037037" transform="rotate(270 1107.8 470.37037037037)" font-family="Consolas" font-size="50" fill="limegreen">2024</text><text x="1265.51" y="485.37037037037" transform="rotate(270 1255.51 470.37037037037)" font-family="Consolas" font-size="50" fill="limegreen">2025</text><text x="1413.22" y="485.37037037037" transform="rotate(270 1403.22 470.37037037037)" font-family="Consolas" font-size="50" fill="limegreen">2026</text><text x="1560.93" y="485.37037037037" transform="rotate(270 1550.93 470.37037037037)" font-family="Consolas" font-size="50" fill="limegreen">2027</text><text x="1708.64" y="485.37037037037" transform="rotate(270 1698.64 470.37037037037)" font-family="Consolas" font-size="50" fill="limegreen">2028</text><text x="1856.35" y="485.37037037037" transform="rotate(270 1846.35 470.37037037037)" font-family="Consolas" font-size="50" fill="limegreen">2029</text></g></g></svg>
