<svg xmlns="http://www.w3.org/2000/svg" width="1920" height="1080"> <rect width="100%" height="100%" fill="#000"/><g xmlns="http://www.w3.org/2000/svg" transform="translate(0,0) scale(1.0)"> <text  x="1080" y="60" font-family="Consolas" font-size="52" text-anchor="middle" fill="white">REAL  GDP ANNUAL PERCENT CHANGE (2018-2029) [IMF DATA]</text><text  x="1700" y="1050" font-family="Consolas" font-size="22" text-anchor="middle" fill="white">DESIGNED BY ZOOMIT WORLD</text><image x="180" y="-50" width="280" height="280" href="https://cdn.jsdelivr.net/gh/hampusborgos/country-flags@main/svg/bs.svg"></image><text x="70" y="180" font-family="Consolas" font-size="50" text-anchor="middle" fill="white">6%</text><text x="70" y="439.79381443299" font-family="Consolas" font-size="50" text-anchor="middle" fill="white">3%</text><text x="70" y="699.587628865979" font-family="Consolas" font-size="50" text-anchor="middle" fill="white">0%</text><text x="70" y="859.79381443299" font-family="Consolas" font-size="50" text-anchor="middle" fill="white">-2%</text><text x="70" y="1020" font-family="Consolas" font-size="50" text-anchor="middle" fill="white">-4%</text><line  x1="141.54" y1="180" x2="141.54" y2="1020" stroke="white" stroke-width="2"/><line x1="141.54"  y1="699.587628865979" x2="1920" y2="699.587628865979" stroke="white" stroke-width="5"/><g><rect x="171.54" y="180" width="100" height="519.59" fill="none" stroke="limegreen" stroke-width="2"/><rect x="319.25" y="361.855670103093" width="100" height="337.73" fill="none" stroke="limegreen" stroke-width="2"/><rect x="614.67" y="205.979381443299" width="100" height="493.61" fill="none" stroke="limegreen" stroke-width="2"/><rect x="762.38" y="344.536082474227" width="100" height="355.05" fill="none" stroke="limegreen" stroke-width="2"/><rect x="910.09" y="517.731958762887" width="100" height="181.86" fill="none" stroke="limegreen" stroke-width="2"/><rect x="1057.8" y="535.051546391752" width="100" height="164.54" fill="none" stroke="limegreen" stroke-width="2"/><rect x="1205.51" y="413.814432989691" width="100" height="285.77" fill="none" stroke="limegreen" stroke-width="2"/><rect x="1353.22" y="379.175257731959" width="100" height="320.41" fill="none" stroke="limegreen" stroke-width="2"/><rect x="1500.93" y="379.175257731959" width="100" height="320.41" fill="none" stroke="limegreen" stroke-width="2"/><rect x="1648.64" y="405.154639175258" width="100" height="294.43" fill="none" stroke="limegreen" stroke-width="2"/><rect x="1796.35" y="396.494845360825" width="100" height="303.09" fill="none" stroke="limegreen" stroke-width="2"/> <rect x="466.96" y="699.587628865979" width="100" height="320.41" fill="none" stroke="limegreen" stroke-width="2"/> </g><g><text x="221.54" y="170" font-family="Consolas" font-size="48" text-anchor="middle" fill="white">6</text><text x="369.25" y="351.86" font-family="Consolas" font-size="48" text-anchor="middle" fill="white">3.9</text><text x="664.67" y="195.98" font-family="Consolas" font-size="48" text-anchor="middle" fill="white">5.7</text><text x="812.38" y="334.54" font-family="Consolas" font-size="48" text-anchor="middle" fill="white">4.1</text><text x="960.09" y="507.73" font-family="Consolas" font-size="48" text-anchor="middle" fill="white">2.1</text><text x="1107.8" y="525.05" font-family="Consolas" font-size="48" text-anchor="middle" fill="white">1.9</text><text x="1255.51" y="403.81" font-family="Consolas" font-size="48" text-anchor="middle" fill="white">3.3</text><text x="1403.22" y="369.18" font-family="Consolas" font-size="48" text-anchor="middle" fill="white">3.7</text><text x="1550.93" y="369.18" font-family="Consolas" font-size="48" text-anchor="middle" fill="white">3.7</text><text x="1698.64" y="395.15" font-family="Consolas" font-size="48" text-anchor="middle" fill="white">3.4</text><text x="1846.35" y="386.49" font-family="Consolas" font-size="48" text-anchor="middle" fill="white">3.5</text> <text x="466.96" y="1010" font-family="Consolas" font-size="48" ttext-anchor="middle" fill="white">-3.7</text></g><g><text x="231.54" y="714.587628865979" transform="rotate(270 221.54 699.587628865979)" font-family="Consolas" font-size="50" fill="limegreen">2018</text><text x="379.25" y="714.587628865979" transform="rotate(270 369.25 699.587628865979)" font-family="Consolas" font-size="50" fill="limegreen">2019</text><text x="526.96" y="714.587628865979" transform="rotate(270 516.96 699.587628865979)" font-family="Consolas" font-size="50" fill="limegreen">2020</text><text x="674.67" y="714.587628865979" transform="rotate(270 664.67 699.587628865979)" font-family="Consolas" font-size="50" fill="limegreen">2021</text><text x="822.38" y="714.587628865979" transform="rotate(270 812.38 699.587628865979)" font-family="Consolas" font-size="50" fill="limegreen">2022</text><text x="970.09" y="714.587628865979" transform="rotate(270 960.09 699.587628865979)" font-family="Consolas" font-size="50" fill="limegreen">2023</text><text x="1117.8" y="714.587628865979" transform="rotate(270 1107.8 699.587628865979)" font-family="Consolas" font-size="50" fill="limegreen">2024</text><text x="1265.51" y="714.587628865979" transform="rotate(270 1255.51 699.587628865979)" font-family="Consolas" font-size="50" fill="limegreen">2025</text><text x="1413.22" y="714.587628865979" transform="rotate(270 1403.22 699.587628865979)" font-family="Consolas" font-size="50" fill="limegreen">2026</text><text x="1560.93" y="714.587628865979" transform="rotate(270 1550.93 699.587628865979)" font-family="Consolas" font-size="50" fill="limegreen">2027</text><text x="1708.64" y="714.587628865979" transform="rotate(270 1698.64 699.587628865979)" font-family="Consolas" font-size="50" fill="limegreen">2028</text><text x="1856.35" y="714.587628865979" transform="rotate(270 1846.35 699.587628865979)" font-family="Consolas" font-size="50" fill="limegreen">2029</text></g></g></svg>
