<svg xmlns="http://www.w3.org/2000/svg" width="1920" height="1080"> <rect width="100%" height="100%" fill="#000"/><g xmlns="http://www.w3.org/2000/svg" transform="translate(0,0) scale(1.0)"> <text  x="1080" y="60" font-family="Consolas" font-size="52" text-anchor="middle" fill="white">REAL  GDP ANNUAL PERCENT CHANGE (2018-2029) [IMF DATA]</text><text  x="1700" y="1050" font-family="Consolas" font-size="22" text-anchor="middle" fill="white">DESIGNED BY ZOOMIT WORLD</text><image x="180" y="-50" width="280" height="280" href="https://cdn.jsdelivr.net/gh/hampusborgos/country-flags@main/svg/bs.svg"></image><text x="70" y="180" font-family="Consolas" font-size="50" text-anchor="middle" fill="white">9%</text><text x="70" y="439.583333333333" font-family="Consolas" font-size="50" text-anchor="middle" fill="white">4.5%</text><text x="70" y="699.166666666667" font-family="Consolas" font-size="50" text-anchor="middle" fill="white">0%</text><text x="70" y="859.583333333333" font-family="Consolas" font-size="50" text-anchor="middle" fill="white">-3%</text><text x="70" y="1020" font-family="Consolas" font-size="50" text-anchor="middle" fill="white">-6%</text><line  x1="141.54" y1="180" x2="141.54" y2="1020" stroke="white" stroke-width="2"/><line x1="141.54"  y1="699.166666666667" x2="1920" y2="699.166666666667" stroke="white" stroke-width="5"/><g><rect x="171.54" y="419.166666666667" width="100" height="280.00" fill="none" stroke="limegreen" stroke-width="2"/><rect x="319.25" y="442.5" width="100" height="256.67" fill="none" stroke="limegreen" stroke-width="2"/><rect x="614.67" y="506.666666666667" width="100" height="192.50" fill="none" stroke="limegreen" stroke-width="2"/><rect x="762.38" y="180" width="100" height="519.17" fill="none" stroke="limegreen" stroke-width="2"/><rect x="910.09" y="489.166666666667" width="100" height="210.00" fill="none" stroke="limegreen" stroke-width="2"/><rect x="1057.8" y="419.166666666667" width="100" height="280.00" fill="none" stroke="limegreen" stroke-width="2"/><rect x="1205.51" y="442.5" width="100" height="256.67" fill="none" stroke="limegreen" stroke-width="2"/><rect x="1353.22" y="442.5" width="100" height="256.67" fill="none" stroke="limegreen" stroke-width="2"/><rect x="1500.93" y="465.833333333333" width="100" height="233.33" fill="none" stroke="limegreen" stroke-width="2"/><rect x="1648.64" y="465.833333333333" width="100" height="233.33" fill="none" stroke="limegreen" stroke-width="2"/><rect x="1796.35" y="465.833333333333" width="100" height="233.33" fill="none" stroke="limegreen" stroke-width="2"/> <rect x="466.96" y="699.166666666667" width="100" height="320.83" fill="none" stroke="limegreen" stroke-width="2"/> </g><g><text x="221.54" y="409.17" font-family="Consolas" font-size="48" text-anchor="middle" fill="white">4.8</text><text x="369.25" y="432.5" font-family="Consolas" font-size="48" text-anchor="middle" fill="white">4.4</text><text x="664.67" y="496.67" font-family="Consolas" font-size="48" text-anchor="middle" fill="white">3.3</text><text x="812.38" y="170" font-family="Consolas" font-size="48" text-anchor="middle" fill="white">8.9</text><text x="960.09" y="479.17" font-family="Consolas" font-size="48" text-anchor="middle" fill="white">3.6</text><text x="1107.8" y="409.17" font-family="Consolas" font-size="48" text-anchor="middle" fill="white">4.8</text><text x="1255.51" y="432.5" font-family="Consolas" font-size="48" text-anchor="middle" fill="white">4.4</text><text x="1403.22" y="432.5" font-family="Consolas" font-size="48" text-anchor="middle" fill="white">4.4</text><text x="1550.93" y="455.83" font-family="Consolas" font-size="48" text-anchor="middle" fill="white">4</text><text x="1698.64" y="455.83" font-family="Consolas" font-size="48" text-anchor="middle" fill="white">4</text><text x="1846.35" y="455.83" font-family="Consolas" font-size="48" text-anchor="middle" fill="white">4</text> <text x="466.96" y="1010" font-family="Consolas" font-size="48" ttext-anchor="middle" fill="white">-5.5</text></g><g><text x="231.54" y="714.166666666667" transform="rotate(270 221.54 699.166666666667)" font-family="Consolas" font-size="50" fill="limegreen">2018</text><text x="379.25" y="714.166666666667" transform="rotate(270 369.25 699.166666666667)" font-family="Consolas" font-size="50" fill="limegreen">2019</text><text x="526.96" y="714.166666666667" transform="rotate(270 516.96 699.166666666667)" font-family="Consolas" font-size="50" fill="limegreen">2020</text><text x="674.67" y="714.166666666667" transform="rotate(270 664.67 699.166666666667)" font-family="Consolas" font-size="50" fill="limegreen">2021</text><text x="822.38" y="714.166666666667" transform="rotate(270 812.38 699.166666666667)" font-family="Consolas" font-size="50" fill="limegreen">2022</text><text x="970.09" y="714.166666666667" transform="rotate(270 960.09 699.166666666667)" font-family="Consolas" font-size="50" fill="limegreen">2023</text><text x="1117.8" y="714.166666666667" transform="rotate(270 1107.8 699.166666666667)" font-family="Consolas" font-size="50" fill="limegreen">2024</text><text x="1265.51" y="714.166666666667" transform="rotate(270 1255.51 699.166666666667)" font-family="Consolas" font-size="50" fill="limegreen">2025</text><text x="1413.22" y="714.166666666667" transform="rotate(270 1403.22 699.166666666667)" font-family="Consolas" font-size="50" fill="limegreen">2026</text><text x="1560.93" y="714.166666666667" transform="rotate(270 1550.93 699.166666666667)" font-family="Consolas" font-size="50" fill="limegreen">2027</text><text x="1708.64" y="714.166666666667" transform="rotate(270 1698.64 699.166666666667)" font-family="Consolas" font-size="50" fill="limegreen">2028</text><text x="1856.35" y="714.166666666667" transform="rotate(270 1846.35 699.166666666667)" font-family="Consolas" font-size="50" fill="limegreen">2029</text></g></g></svg>
