<svg xmlns="http://www.w3.org/2000/svg" width="1920" height="1080"> <rect width="100%" height="100%" fill="#000"/><g xmlns="http://www.w3.org/2000/svg" transform="translate(0,0) scale(1.0)"> <text  x="1080" y="60" font-family="Consolas" font-size="52" text-anchor="middle" fill="white">REAL  GDP ANNUAL PERCENT CHANGE (2018-2029) [IMF DATA]</text><text  x="1700" y="1050" font-family="Consolas" font-size="22" text-anchor="middle" fill="white">DESIGNED BY ZOOMIT WORLD</text><image x="180" y="-50" width="280" height="280" href="https://cdn.jsdelivr.net/gh/hampusborgos/country-flags@main/svg/bs.svg"></image><text x="70" y="180" font-family="Consolas" font-size="50" text-anchor="middle" fill="white">8%</text><text x="70" y="530" font-family="Consolas" font-size="50" text-anchor="middle" fill="white">4%</text><text x="70" y="880" font-family="Consolas" font-size="50" text-anchor="middle" fill="white">0%</text><text x="70" y="950" font-family="Consolas" font-size="50" text-anchor="middle" fill="white">1%</text><text x="70" y="1020" font-family="Consolas" font-size="50" text-anchor="middle" fill="white">2%</text><line  x1="141.54" y1="180" x2="141.54" y2="1020" stroke="white" stroke-width="2"/><line x1="141.54"  y1="880" x2="1920" y2="880" stroke="white" stroke-width="5"/><g><rect x="171.54" y="390" width="100" height="490.00" fill="none" stroke="limegreen" stroke-width="2"/><rect x="319.25" y="285" width="100" height="595.00" fill="none" stroke="limegreen" stroke-width="2"/><rect x="466.96" y="740" width="100" height="140.00" fill="none" stroke="limegreen" stroke-width="2"/><rect x="614.67" y="180" width="100" height="700.00" fill="none" stroke="limegreen" stroke-width="2"/><rect x="762.38" y="355" width="100" height="525.00" fill="none" stroke="limegreen" stroke-width="2"/><rect x="910.09" y="328.75" width="100" height="551.25" fill="none" stroke="limegreen" stroke-width="2"/><rect x="1057.8" y="390" width="100" height="490.00" fill="none" stroke="limegreen" stroke-width="2"/><rect x="1205.51" y="381.25" width="100" height="498.75" fill="none" stroke="limegreen" stroke-width="2"/><rect x="1353.22" y="381.25" width="100" height="498.75" fill="none" stroke="limegreen" stroke-width="2"/><rect x="1500.93" y="381.25" width="100" height="498.75" fill="none" stroke="limegreen" stroke-width="2"/><rect x="1648.64" y="381.25" width="100" height="498.75" fill="none" stroke="limegreen" stroke-width="2"/><rect x="1796.35" y="381.25" width="100" height="498.75" fill="none" stroke="limegreen" stroke-width="2"/>  </g><g><text x="221.54" y="380" font-family="Consolas" font-size="48" text-anchor="middle" fill="white">5.6</text><text x="369.25" y="275" font-family="Consolas" font-size="48" text-anchor="middle" fill="white">6.8</text><text x="516.96" y="730" font-family="Consolas" font-size="48" text-anchor="middle" fill="white">1.6</text><text x="664.67" y="170" font-family="Consolas" font-size="48" text-anchor="middle" fill="white">8</text><text x="812.38" y="345" font-family="Consolas" font-size="48" text-anchor="middle" fill="white">6</text><text x="960.09" y="318.75" font-family="Consolas" font-size="48" text-anchor="middle" fill="white">6.3</text><text x="1107.8" y="380" font-family="Consolas" font-size="48" text-anchor="middle" fill="white">5.6</text><text x="1255.51" y="371.25" font-family="Consolas" font-size="48" text-anchor="middle" fill="white">5.7</text><text x="1403.22" y="371.25" font-family="Consolas" font-size="48" text-anchor="middle" fill="white">5.7</text><text x="1550.93" y="371.25" font-family="Consolas" font-size="48" text-anchor="middle" fill="white">5.7</text><text x="1698.64" y="371.25" font-family="Consolas" font-size="48" text-anchor="middle" fill="white">5.7</text><text x="1846.35" y="371.25" font-family="Consolas" font-size="48" text-anchor="middle" fill="white">5.7</text> </g><g><text x="231.54" y="895" transform="rotate(270 221.54 880)" font-family="Consolas" font-size="50" fill="limegreen">2018</text><text x="379.25" y="895" transform="rotate(270 369.25 880)" font-family="Consolas" font-size="50" fill="limegreen">2019</text><text x="526.96" y="895" transform="rotate(270 516.96 880)" font-family="Consolas" font-size="50" fill="limegreen">2020</text><text x="674.67" y="895" transform="rotate(270 664.67 880)" font-family="Consolas" font-size="50" fill="limegreen">2021</text><text x="822.38" y="895" transform="rotate(270 812.38 880)" font-family="Consolas" font-size="50" fill="limegreen">2022</text><text x="970.09" y="895" transform="rotate(270 960.09 880)" font-family="Consolas" font-size="50" fill="limegreen">2023</text><text x="1117.8" y="895" transform="rotate(270 1107.8 880)" font-family="Consolas" font-size="50" fill="limegreen">2024</text><text x="1265.51" y="895" transform="rotate(270 1255.51 880)" font-family="Consolas" font-size="50" fill="limegreen">2025</text><text x="1413.22" y="895" transform="rotate(270 1403.22 880)" font-family="Consolas" font-size="50" fill="limegreen">2026</text><text x="1560.93" y="895" transform="rotate(270 1550.93 880)" font-family="Consolas" font-size="50" fill="limegreen">2027</text><text x="1708.64" y="895" transform="rotate(270 1698.64 880)" font-family="Consolas" font-size="50" fill="limegreen">2028</text><text x="1856.35" y="895" transform="rotate(270 1846.35 880)" font-family="Consolas" font-size="50" fill="limegreen">2029</text></g></g></svg>
