<svg xmlns="http://www.w3.org/2000/svg" width="1920" height="1080"> <rect width="100%" height="100%" fill="#000"/><g xmlns="http://www.w3.org/2000/svg" transform="translate(0,0) scale(1.0)"> <text  x="1080" y="60" font-family="Consolas" font-size="52" text-anchor="middle" fill="white">REAL  GDP ANNUAL PERCENT CHANGE (2018-2029) [IMF DATA]</text><text  x="1700" y="1050" font-family="Consolas" font-size="22" text-anchor="middle" fill="white">DESIGNED BY ZOOMIT WORLD</text><image x="180" y="-50" width="280" height="280" href="https://cdn.jsdelivr.net/gh/hampusborgos/country-flags@main/svg/bs.svg"></image><text x="70" y="180" font-family="Consolas" font-size="50" text-anchor="middle" fill="white">7%</text><text x="70" y="378.333333333333" font-family="Consolas" font-size="50" text-anchor="middle" fill="white">3.5%</text><text x="70" y="576.666666666667" font-family="Consolas" font-size="50" text-anchor="middle" fill="white">0%</text><text x="70" y="798.333333333333" font-family="Consolas" font-size="50" text-anchor="middle" fill="white">-4%</text><text x="70" y="1020" font-family="Consolas" font-size="50" text-anchor="middle" fill="white">-8%</text><line  x1="141.54" y1="180" x2="141.54" y2="1020" stroke="white" stroke-width="2"/><line x1="141.54"  y1="576.666666666667" x2="1920" y2="576.666666666667" stroke="white" stroke-width="5"/><g><rect x="171.54" y="483.333333333333" width="100" height="93.33" fill="none" stroke="limegreen" stroke-width="2"/><rect x="319.25" y="454.166666666667" width="100" height="122.50" fill="none" stroke="limegreen" stroke-width="2"/><rect x="614.67" y="180" width="100" height="396.67" fill="none" stroke="limegreen" stroke-width="2"/><rect x="762.38" y="425" width="100" height="151.67" fill="none" stroke="limegreen" stroke-width="2"/><rect x="910.09" y="512.5" width="100" height="64.17" fill="none" stroke="limegreen" stroke-width="2"/><rect x="1057.8" y="512.5" width="100" height="64.17" fill="none" stroke="limegreen" stroke-width="2"/><rect x="1205.51" y="512.5" width="100" height="64.17" fill="none" stroke="limegreen" stroke-width="2"/><rect x="1353.22" y="500.833333333333" width="100" height="75.83" fill="none" stroke="limegreen" stroke-width="2"/><rect x="1500.93" y="495" width="100" height="81.67" fill="none" stroke="limegreen" stroke-width="2"/><rect x="1648.64" y="495" width="100" height="81.67" fill="none" stroke="limegreen" stroke-width="2"/><rect x="1796.35" y="500.833333333333" width="100" height="75.83" fill="none" stroke="limegreen" stroke-width="2"/> <rect x="466.96" y="576.666666666667" width="100" height="443.33" fill="none" stroke="limegreen" stroke-width="2"/> </g><g><text x="221.54" y="473.33" font-family="Consolas" font-size="48" text-anchor="middle" fill="white">1.6</text><text x="369.25" y="444.17" font-family="Consolas" font-size="48" text-anchor="middle" fill="white">2.1</text><text x="664.67" y="170" font-family="Consolas" font-size="48" text-anchor="middle" fill="white">6.8</text><text x="812.38" y="415" font-family="Consolas" font-size="48" text-anchor="middle" fill="white">2.6</text><text x="960.09" y="502.5" font-family="Consolas" font-size="48" text-anchor="middle" fill="white">1.1</text><text x="1107.8" y="502.5" font-family="Consolas" font-size="48" text-anchor="middle" fill="white">1.1</text><text x="1255.51" y="502.5" font-family="Consolas" font-size="48" text-anchor="middle" fill="white">1.1</text><text x="1403.22" y="490.83" font-family="Consolas" font-size="48" text-anchor="middle" fill="white">1.3</text><text x="1550.93" y="485" font-family="Consolas" font-size="48" text-anchor="middle" fill="white">1.4</text><text x="1698.64" y="485" font-family="Consolas" font-size="48" text-anchor="middle" fill="white">1.4</text><text x="1846.35" y="490.83" font-family="Consolas" font-size="48" text-anchor="middle" fill="white">1.3</text> <text x="466.96" y="1010" font-family="Consolas" font-size="48" ttext-anchor="middle" fill="white">-7.6</text></g><g><text x="231.54" y="591.666666666667" transform="rotate(270 221.54 576.666666666667)" font-family="Consolas" font-size="50" fill="limegreen">2018</text><text x="379.25" y="591.666666666667" transform="rotate(270 369.25 576.666666666667)" font-family="Consolas" font-size="50" fill="limegreen">2019</text><text x="526.96" y="591.666666666667" transform="rotate(270 516.96 576.666666666667)" font-family="Consolas" font-size="50" fill="limegreen">2020</text><text x="674.67" y="591.666666666667" transform="rotate(270 664.67 576.666666666667)" font-family="Consolas" font-size="50" fill="limegreen">2021</text><text x="822.38" y="591.666666666667" transform="rotate(270 812.38 576.666666666667)" font-family="Consolas" font-size="50" fill="limegreen">2022</text><text x="970.09" y="591.666666666667" transform="rotate(270 960.09 576.666666666667)" font-family="Consolas" font-size="50" fill="limegreen">2023</text><text x="1117.8" y="591.666666666667" transform="rotate(270 1107.8 576.666666666667)" font-family="Consolas" font-size="50" fill="limegreen">2024</text><text x="1265.51" y="591.666666666667" transform="rotate(270 1255.51 576.666666666667)" font-family="Consolas" font-size="50" fill="limegreen">2025</text><text x="1413.22" y="591.666666666667" transform="rotate(270 1403.22 576.666666666667)" font-family="Consolas" font-size="50" fill="limegreen">2026</text><text x="1560.93" y="591.666666666667" transform="rotate(270 1550.93 576.666666666667)" font-family="Consolas" font-size="50" fill="limegreen">2027</text><text x="1708.64" y="591.666666666667" transform="rotate(270 1698.64 576.666666666667)" font-family="Consolas" font-size="50" fill="limegreen">2028</text><text x="1856.35" y="591.666666666667" transform="rotate(270 1846.35 576.666666666667)" font-family="Consolas" font-size="50" fill="limegreen">2029</text></g></g></svg>
