<svg xmlns="http://www.w3.org/2000/svg" width="1920" height="1080"> <rect width="100%" height="100%" fill="#000"/><g xmlns="http://www.w3.org/2000/svg" transform="translate(0,0) scale(1.0)"> <text  x="1080" y="60" font-family="Consolas" font-size="52" text-anchor="middle" fill="white">REAL  GDP ANNUAL PERCENT CHANGE (2018-2029) [IMF DATA]</text><text  x="1700" y="1050" font-family="Consolas" font-size="22" text-anchor="middle" fill="white">DESIGNED BY ZOOMIT WORLD</text><image x="180" y="-50" width="280" height="280" href="https://cdn.jsdelivr.net/gh/hampusborgos/country-flags@main/svg/bs.svg"></image><text x="70" y="180" font-family="Consolas" font-size="50" text-anchor="middle" fill="white">11%</text><text x="70" y="545.365853658537" font-family="Consolas" font-size="50" text-anchor="middle" fill="white">5.5%</text><text x="70" y="910.731707317073" font-family="Consolas" font-size="50" text-anchor="middle" fill="white">0%</text><text x="70" y="965.365853658537" font-family="Consolas" font-size="50" text-anchor="middle" fill="white">-1%</text><text x="70" y="1020" font-family="Consolas" font-size="50" text-anchor="middle" fill="white">-2%</text><line  x1="141.54" y1="180" x2="141.54" y2="1020" stroke="white" stroke-width="2"/><line x1="141.54"  y1="910.731707317073" x2="1920" y2="910.731707317073" stroke="white" stroke-width="5"/><g><rect x="171.54" y="746.829268292683" width="100" height="163.90" fill="none" stroke="limegreen" stroke-width="2"/><rect x="319.25" y="726.341463414634" width="100" height="184.39" fill="none" stroke="limegreen" stroke-width="2"/><rect x="614.67" y="180" width="100" height="730.73" fill="none" stroke="limegreen" stroke-width="2"/><rect x="762.38" y="876.585365853659" width="100" height="34.15" fill="none" stroke="limegreen" stroke-width="2"/><rect x="910.09" y="576.09756097561" width="100" height="334.63" fill="none" stroke="limegreen" stroke-width="2"/><rect x="1057.8" y="596.585365853659" width="100" height="314.15" fill="none" stroke="limegreen" stroke-width="2"/><rect x="1205.51" y="623.90243902439" width="100" height="286.83" fill="none" stroke="limegreen" stroke-width="2"/><rect x="1353.22" y="678.536585365854" width="100" height="232.20" fill="none" stroke="limegreen" stroke-width="2"/><rect x="1500.93" y="712.682926829268" width="100" height="198.05" fill="none" stroke="limegreen" stroke-width="2"/><rect x="1648.64" y="726.341463414634" width="100" height="184.39" fill="none" stroke="limegreen" stroke-width="2"/><rect x="1796.35" y="733.170731707317" width="100" height="177.56" fill="none" stroke="limegreen" stroke-width="2"/> <rect x="466.96" y="910.731707317073" width="100" height="109.27" fill="none" stroke="limegreen" stroke-width="2"/> </g><g><text x="221.54" y="736.83" font-family="Consolas" font-size="48" text-anchor="middle" fill="white">2.4</text><text x="369.25" y="716.34" font-family="Consolas" font-size="48" text-anchor="middle" fill="white">2.7</text><text x="664.67" y="170" font-family="Consolas" font-size="48" text-anchor="middle" fill="white">10.7</text><text x="812.38" y="866.59" font-family="Consolas" font-size="48" text-anchor="middle" fill="white">0.5</text><text x="960.09" y="566.1" font-family="Consolas" font-size="48" text-anchor="middle" fill="white">4.9</text><text x="1107.8" y="586.59" font-family="Consolas" font-size="48" text-anchor="middle" fill="white">4.6</text><text x="1255.51" y="613.9" font-family="Consolas" font-size="48" text-anchor="middle" fill="white">4.2</text><text x="1403.22" y="668.54" font-family="Consolas" font-size="48" text-anchor="middle" fill="white">3.4</text><text x="1550.93" y="702.68" font-family="Consolas" font-size="48" text-anchor="middle" fill="white">2.9</text><text x="1698.64" y="716.34" font-family="Consolas" font-size="48" text-anchor="middle" fill="white">2.7</text><text x="1846.35" y="723.17" font-family="Consolas" font-size="48" text-anchor="middle" fill="white">2.6</text> <text x="466.96" y="1010" font-family="Consolas" font-size="48" ttext-anchor="middle" fill="white">-1.6</text></g><g><text x="231.54" y="925.731707317073" transform="rotate(270 221.54 910.731707317073)" font-family="Consolas" font-size="50" fill="limegreen">2018</text><text x="379.25" y="925.731707317073" transform="rotate(270 369.25 910.731707317073)" font-family="Consolas" font-size="50" fill="limegreen">2019</text><text x="526.96" y="925.731707317073" transform="rotate(270 516.96 910.731707317073)" font-family="Consolas" font-size="50" fill="limegreen">2020</text><text x="674.67" y="925.731707317073" transform="rotate(270 664.67 910.731707317073)" font-family="Consolas" font-size="50" fill="limegreen">2021</text><text x="822.38" y="925.731707317073" transform="rotate(270 812.38 910.731707317073)" font-family="Consolas" font-size="50" fill="limegreen">2022</text><text x="970.09" y="925.731707317073" transform="rotate(270 960.09 910.731707317073)" font-family="Consolas" font-size="50" fill="limegreen">2023</text><text x="1117.8" y="925.731707317073" transform="rotate(270 1107.8 910.731707317073)" font-family="Consolas" font-size="50" fill="limegreen">2024</text><text x="1265.51" y="925.731707317073" transform="rotate(270 1255.51 910.731707317073)" font-family="Consolas" font-size="50" fill="limegreen">2025</text><text x="1413.22" y="925.731707317073" transform="rotate(270 1403.22 910.731707317073)" font-family="Consolas" font-size="50" fill="limegreen">2026</text><text x="1560.93" y="925.731707317073" transform="rotate(270 1550.93 910.731707317073)" font-family="Consolas" font-size="50" fill="limegreen">2027</text><text x="1708.64" y="925.731707317073" transform="rotate(270 1698.64 910.731707317073)" font-family="Consolas" font-size="50" fill="limegreen">2028</text><text x="1856.35" y="925.731707317073" transform="rotate(270 1846.35 910.731707317073)" font-family="Consolas" font-size="50" fill="limegreen">2029</text></g></g></svg>
