<svg xmlns="http://www.w3.org/2000/svg" width="1920" height="1080"> <rect width="100%" height="100%" fill="#000"/><g xmlns="http://www.w3.org/2000/svg" transform="translate(0,0) scale(1.0)"> <text  x="1080" y="60" font-family="Consolas" font-size="52" text-anchor="middle" fill="white">REAL  GDP ANNUAL PERCENT CHANGE (2018-2029) [IMF DATA]</text><text  x="1780" y="1050" font-family="Consolas" font-size="32" text-anchor="middle" fill="white">ZOOMIT WORLD</text><image x="180" y="-50" width="280" height="280" href="https://cdn.jsdelivr.net/gh/hampusborgos/country-flags@main/svg/et.svg"></image><text x="70" y="180" font-family="Consolas" font-size="50" text-anchor="middle" fill="white">9%</text><text x="70" y="430.331125827815" font-family="Consolas" font-size="50" text-anchor="middle" fill="white">4.5%</text><text x="70" y="680.662251655629" font-family="Consolas" font-size="50" text-anchor="middle" fill="white">0%</text><text x="70" y="850.331125827815" font-family="Consolas" font-size="50" text-anchor="middle" fill="white">3%</text><text x="70" y="1020" font-family="Consolas" font-size="50" text-anchor="middle" fill="white">6%</text><line  x1="141.54" y1="180" x2="141.54" y2="1020" stroke="white" stroke-width="2"/><line x1="141.54"  y1="680.662251655629" x2="1920" y2="680.662251655629" stroke="white" stroke-width="5"/><g><rect x="171.54" y="252.317880794702" width="100" height="428.34" fill="none" stroke="limegreen" stroke-width="2"/><rect x="319.25" y="180" width="100" height="500.66" fill="none" stroke="limegreen" stroke-width="2"/><rect x="466.96" y="341.324503311258" width="100" height="339.34" fill="none" stroke="limegreen" stroke-width="2"/><rect x="614.67" y="330.198675496689" width="100" height="350.46" fill="none" stroke="limegreen" stroke-width="2"/><rect x="762.38" y="324.635761589404" width="100" height="356.03" fill="none" stroke="limegreen" stroke-width="2"/><rect x="910.09" y="280.132450331126" width="100" height="400.53" fill="none" stroke="limegreen" stroke-width="2"/><rect x="1057.8" y="341.324503311258" width="100" height="339.34" fill="none" stroke="limegreen" stroke-width="2"/><rect x="1205.51" y="319.072847682119" width="100" height="361.59" fill="none" stroke="limegreen" stroke-width="2"/><rect x="1353.22" y="285.695364238411" width="100" height="394.97" fill="none" stroke="limegreen" stroke-width="2"/><rect x="1500.93" y="252.317880794702" width="100" height="428.34" fill="none" stroke="limegreen" stroke-width="2"/><rect x="1648.64" y="235.629139072848" width="100" height="445.03" fill="none" stroke="limegreen" stroke-width="2"/><rect x="1796.35" y="246.754966887417" width="100" height="433.91" fill="none" stroke="limegreen" stroke-width="2"/>  </g><g><text x="221.54" y="242.32" font-family="Consolas" font-size="48" text-anchor="middle" fill="white">7.7</text><text x="369.25" y="170" font-family="Consolas" font-size="48" text-anchor="middle" fill="white">9</text><text x="516.96" y="331.32" font-family="Consolas" font-size="48" text-anchor="middle" fill="white">6.1</text><text x="664.67" y="320.2" font-family="Consolas" font-size="48" text-anchor="middle" fill="white">6.3</text><text x="812.38" y="314.64" font-family="Consolas" font-size="48" text-anchor="middle" fill="white">6.4</text><text x="960.09" y="270.13" font-family="Consolas" font-size="48" text-anchor="middle" fill="white">7.2</text><text x="1107.8" y="331.32" font-family="Consolas" font-size="48" text-anchor="middle" fill="white">6.1</text><text x="1255.51" y="309.07" font-family="Consolas" font-size="48" text-anchor="middle" fill="white">6.5</text><text x="1403.22" y="275.7" font-family="Consolas" font-size="48" text-anchor="middle" fill="white">7.1</text><text x="1550.93" y="242.32" font-family="Consolas" font-size="48" text-anchor="middle" fill="white">7.7</text><text x="1698.64" y="225.63" font-family="Consolas" font-size="48" text-anchor="middle" fill="white">8</text><text x="1846.35" y="236.75" font-family="Consolas" font-size="48" text-anchor="middle" fill="white">7.8</text> </g><g><text x="231.54" y="695.662251655629" transform="rotate(270 221.54 680.662251655629)" font-family="Consolas" font-size="50" fill="limegreen">2018</text><text x="379.25" y="695.662251655629" transform="rotate(270 369.25 680.662251655629)" font-family="Consolas" font-size="50" fill="limegreen">2019</text><text x="526.96" y="695.662251655629" transform="rotate(270 516.96 680.662251655629)" font-family="Consolas" font-size="50" fill="limegreen">2020</text><text x="674.67" y="695.662251655629" transform="rotate(270 664.67 680.662251655629)" font-family="Consolas" font-size="50" fill="limegreen">2021</text><text x="822.38" y="695.662251655629" transform="rotate(270 812.38 680.662251655629)" font-family="Consolas" font-size="50" fill="limegreen">2022</text><text x="970.09" y="695.662251655629" transform="rotate(270 960.09 680.662251655629)" font-family="Consolas" font-size="50" fill="limegreen">2023</text><text x="1117.8" y="695.662251655629" transform="rotate(270 1107.8 680.662251655629)" font-family="Consolas" font-size="50" fill="limegreen">2024</text><text x="1265.51" y="695.662251655629" transform="rotate(270 1255.51 680.662251655629)" font-family="Consolas" font-size="50" fill="limegreen">2025</text><text x="1413.22" y="695.662251655629" transform="rotate(270 1403.22 680.662251655629)" font-family="Consolas" font-size="50" fill="limegreen">2026</text><text x="1560.93" y="695.662251655629" transform="rotate(270 1550.93 680.662251655629)" font-family="Consolas" font-size="50" fill="limegreen">2027</text><text x="1708.64" y="695.662251655629" transform="rotate(270 1698.64 680.662251655629)" font-family="Consolas" font-size="50" fill="limegreen">2028</text><text x="1856.35" y="695.662251655629" transform="rotate(270 1846.35 680.662251655629)" font-family="Consolas" font-size="50" fill="limegreen">2029</text></g></g></svg>
