<svg xmlns="http://www.w3.org/2000/svg" width="1920" height="1080"> <rect width="100%" height="100%" fill="#000"/><g xmlns="http://www.w3.org/2000/svg" transform="translate(0,0) scale(1.0)"> <text  x="1080" y="60" font-family="Consolas" font-size="52" text-anchor="middle" fill="white">REAL  GDP ANNUAL PERCENT CHANGE (2018-2029) [IMF DATA]</text><text  x="1780" y="1050" font-family="Consolas" font-size="32" text-anchor="middle" fill="white">ZOOMIT WORLD</text><image x="180" y="-50" width="280" height="280" href="https://cdn.jsdelivr.net/gh/hampusborgos/country-flags@main/svg/ar.svg"></image><text x="70" y="180" font-family="Consolas" font-size="50" text-anchor="middle" fill="white">10%</text><text x="70" y="395.172413793103" font-family="Consolas" font-size="50" text-anchor="middle" fill="white">5%</text><text x="70" y="610.344827586207" font-family="Consolas" font-size="50" text-anchor="middle" fill="white">0%</text><text x="70" y="815.172413793103" font-family="Consolas" font-size="50" text-anchor="middle" fill="white">-5%</text><text x="70" y="1020" font-family="Consolas" font-size="50" text-anchor="middle" fill="white">-10%</text><line  x1="141.54" y1="180" x2="141.54" y2="1020" stroke="white" stroke-width="2"/><line x1="141.54"  y1="610.344827586207" x2="1920" y2="610.344827586207" stroke="white" stroke-width="5"/><g><rect x="614.67" y="180" width="100" height="430.34" fill="none" stroke="limegreen" stroke-width="2"/><rect x="762.38" y="391.034482758621" width="100" height="219.31" fill="none" stroke="limegreen" stroke-width="2"/><rect x="1205.51" y="403.448275862069" width="100" height="206.90" fill="none" stroke="limegreen" stroke-width="2"/><rect x="1353.22" y="415.862068965517" width="100" height="194.48" fill="none" stroke="limegreen" stroke-width="2"/><rect x="1500.93" y="448.965517241379" width="100" height="161.38" fill="none" stroke="limegreen" stroke-width="2"/><rect x="1648.64" y="473.793103448276" width="100" height="136.55" fill="none" stroke="limegreen" stroke-width="2"/><rect x="1796.35" y="511.034482758621" width="100" height="99.31" fill="none" stroke="limegreen" stroke-width="2"/> <rect x="171.54" y="610.344827586207" width="100" height="107.59" fill="none" stroke="limegreen" stroke-width="2"/><rect x="319.25" y="610.344827586207" width="100" height="82.76" fill="none" stroke="limegreen" stroke-width="2"/><rect x="466.96" y="610.344827586207" width="100" height="409.66" fill="none" stroke="limegreen" stroke-width="2"/><rect x="910.09" y="610.344827586207" width="100" height="66.21" fill="none" stroke="limegreen" stroke-width="2"/><rect x="1057.8" y="610.344827586207" width="100" height="144.83" fill="none" stroke="limegreen" stroke-width="2"/> </g><g><text x="664.67" y="170" font-family="Consolas" font-size="48" text-anchor="middle" fill="white">10.4</text><text x="812.38" y="381.03" font-family="Consolas" font-size="48" text-anchor="middle" fill="white">5.3</text><text x="1255.51" y="393.45" font-family="Consolas" font-size="48" text-anchor="middle" fill="white">5</text><text x="1403.22" y="405.86" font-family="Consolas" font-size="48" text-anchor="middle" fill="white">4.7</text><text x="1550.93" y="438.97" font-family="Consolas" font-size="48" text-anchor="middle" fill="white">3.9</text><text x="1698.64" y="463.79" font-family="Consolas" font-size="48" text-anchor="middle" fill="white">3.3</text><text x="1846.35" y="501.03" font-family="Consolas" font-size="48" text-anchor="middle" fill="white">2.4</text> <text x="171.54" y="707.931034482759" font-family="Consolas" font-size="48" ttext-anchor="middle" fill="white">-2.6</text><text x="319.25" y="683.103448275862" font-family="Consolas" font-size="48" ttext-anchor="middle" fill="white">-2</text><text x="466.96" y="1010" font-family="Consolas" font-size="48" ttext-anchor="middle" fill="white">-9.9</text><text x="910.09" y="666.551724137931" font-family="Consolas" font-size="48" ttext-anchor="middle" fill="white">-1.6</text><text x="1057.8" y="745.172413793103" font-family="Consolas" font-size="48" ttext-anchor="middle" fill="white">-3.5</text></g><g><text x="231.54" y="625.344827586207" transform="rotate(270 221.54 610.344827586207)" font-family="Consolas" font-size="50" fill="limegreen">2018</text><text x="379.25" y="625.344827586207" transform="rotate(270 369.25 610.344827586207)" font-family="Consolas" font-size="50" fill="limegreen">2019</text><text x="526.96" y="625.344827586207" transform="rotate(270 516.96 610.344827586207)" font-family="Consolas" font-size="50" fill="limegreen">2020</text><text x="674.67" y="625.344827586207" transform="rotate(270 664.67 610.344827586207)" font-family="Consolas" font-size="50" fill="limegreen">2021</text><text x="822.38" y="625.344827586207" transform="rotate(270 812.38 610.344827586207)" font-family="Consolas" font-size="50" fill="limegreen">2022</text><text x="970.09" y="625.344827586207" transform="rotate(270 960.09 610.344827586207)" font-family="Consolas" font-size="50" fill="limegreen">2023</text><text x="1117.8" y="625.344827586207" transform="rotate(270 1107.8 610.344827586207)" font-family="Consolas" font-size="50" fill="limegreen">2024</text><text x="1265.51" y="625.344827586207" transform="rotate(270 1255.51 610.344827586207)" font-family="Consolas" font-size="50" fill="limegreen">2025</text><text x="1413.22" y="625.344827586207" transform="rotate(270 1403.22 610.344827586207)" font-family="Consolas" font-size="50" fill="limegreen">2026</text><text x="1560.93" y="625.344827586207" transform="rotate(270 1550.93 610.344827586207)" font-family="Consolas" font-size="50" fill="limegreen">2027</text><text x="1708.64" y="625.344827586207" transform="rotate(270 1698.64 610.344827586207)" font-family="Consolas" font-size="50" fill="limegreen">2028</text><text x="1856.35" y="625.344827586207" transform="rotate(270 1846.35 610.344827586207)" font-family="Consolas" font-size="50" fill="limegreen">2029</text></g></g></svg>
