<svg xmlns="http://www.w3.org/2000/svg" width="1920" height="1080"> <rect width="100%" height="100%" fill="#000"/><g xmlns="http://www.w3.org/2000/svg" transform="translate(0,0) scale(1.0)"> <text  x="1080" y="60" font-family="Consolas" font-size="52" text-anchor="middle" fill="white">REAL  GDP ANNUAL PERCENT CHANGE (2018-2029) [IMF DATA]</text><text  x="1780" y="1050" font-family="Consolas" font-size="32" text-anchor="middle" fill="white">ZOOMIT WORLD</text><image x="180" y="-50" width="280" height="280" href="https://cdn.jsdelivr.net/gh/hampusborgos/country-flags@main/svg/ug.svg"></image><text x="70" y="180" font-family="Consolas" font-size="50" text-anchor="middle" fill="white">12%</text><text x="70" y="565.522388059701" font-family="Consolas" font-size="50" text-anchor="middle" fill="white">6%</text><text x="70" y="951.044776119403" font-family="Consolas" font-size="50" text-anchor="middle" fill="white">0%</text><text x="70" y="985.522388059701" font-family="Consolas" font-size="50" text-anchor="middle" fill="white">-0.5%</text><text x="70" y="1020" font-family="Consolas" font-size="50" text-anchor="middle" fill="white">-1%</text><line  x1="141.54" y1="180" x2="141.54" y2="1020" stroke="white" stroke-width="2"/><line x1="141.54"  y1="951.044776119403" x2="1920" y2="951.044776119403" stroke="white" stroke-width="5"/><g><rect x="171.54" y="600" width="100" height="351.04" fill="none" stroke="limegreen" stroke-width="2"/><rect x="319.25" y="474.626865671642" width="100" height="476.42" fill="none" stroke="limegreen" stroke-width="2"/><rect x="614.67" y="606.268656716418" width="100" height="344.78" fill="none" stroke="limegreen" stroke-width="2"/><rect x="762.38" y="556.119402985075" width="100" height="394.93" fill="none" stroke="limegreen" stroke-width="2"/><rect x="910.09" y="662.686567164179" width="100" height="288.36" fill="none" stroke="limegreen" stroke-width="2"/><rect x="1057.8" y="581.194029850746" width="100" height="369.85" fill="none" stroke="limegreen" stroke-width="2"/><rect x="1205.51" y="480.89552238806" width="100" height="470.15" fill="none" stroke="limegreen" stroke-width="2"/><rect x="1353.22" y="180" width="100" height="771.04" fill="none" stroke="limegreen" stroke-width="2"/><rect x="1500.93" y="562.388059701492" width="100" height="388.66" fill="none" stroke="limegreen" stroke-width="2"/><rect x="1648.64" y="568.656716417911" width="100" height="382.39" fill="none" stroke="limegreen" stroke-width="2"/><rect x="1796.35" y="581.194029850746" width="100" height="369.85" fill="none" stroke="limegreen" stroke-width="2"/> <rect x="466.96" y="951.044776119403" width="100" height="68.96" fill="none" stroke="limegreen" stroke-width="2"/> </g><g><text x="221.54" y="590" font-family="Consolas" font-size="48" text-anchor="middle" fill="white">5.6</text><text x="369.25" y="464.63" font-family="Consolas" font-size="48" text-anchor="middle" fill="white">7.6</text><text x="664.67" y="596.27" font-family="Consolas" font-size="48" text-anchor="middle" fill="white">5.5</text><text x="812.38" y="546.12" font-family="Consolas" font-size="48" text-anchor="middle" fill="white">6.3</text><text x="960.09" y="652.69" font-family="Consolas" font-size="48" text-anchor="middle" fill="white">4.6</text><text x="1107.8" y="571.19" font-family="Consolas" font-size="48" text-anchor="middle" fill="white">5.9</text><text x="1255.51" y="470.9" font-family="Consolas" font-size="48" text-anchor="middle" fill="white">7.5</text><text x="1403.22" y="170" font-family="Consolas" font-size="48" text-anchor="middle" fill="white">12.3</text><text x="1550.93" y="552.39" font-family="Consolas" font-size="48" text-anchor="middle" fill="white">6.2</text><text x="1698.64" y="558.66" font-family="Consolas" font-size="48" text-anchor="middle" fill="white">6.1</text><text x="1846.35" y="571.19" font-family="Consolas" font-size="48" text-anchor="middle" fill="white">5.9</text> <text x="466.96" y="1010" font-family="Consolas" font-size="48" ttext-anchor="middle" fill="white">-1.1</text></g><g><text x="231.54" y="966.044776119403" transform="rotate(270 221.54 951.044776119403)" font-family="Consolas" font-size="50" fill="limegreen">2018</text><text x="379.25" y="966.044776119403" transform="rotate(270 369.25 951.044776119403)" font-family="Consolas" font-size="50" fill="limegreen">2019</text><text x="526.96" y="966.044776119403" transform="rotate(270 516.96 951.044776119403)" font-family="Consolas" font-size="50" fill="limegreen">2020</text><text x="674.67" y="966.044776119403" transform="rotate(270 664.67 951.044776119403)" font-family="Consolas" font-size="50" fill="limegreen">2021</text><text x="822.38" y="966.044776119403" transform="rotate(270 812.38 951.044776119403)" font-family="Consolas" font-size="50" fill="limegreen">2022</text><text x="970.09" y="966.044776119403" transform="rotate(270 960.09 951.044776119403)" font-family="Consolas" font-size="50" fill="limegreen">2023</text><text x="1117.8" y="966.044776119403" transform="rotate(270 1107.8 951.044776119403)" font-family="Consolas" font-size="50" fill="limegreen">2024</text><text x="1265.51" y="966.044776119403" transform="rotate(270 1255.51 951.044776119403)" font-family="Consolas" font-size="50" fill="limegreen">2025</text><text x="1413.22" y="966.044776119403" transform="rotate(270 1403.22 951.044776119403)" font-family="Consolas" font-size="50" fill="limegreen">2026</text><text x="1560.93" y="966.044776119403" transform="rotate(270 1550.93 951.044776119403)" font-family="Consolas" font-size="50" fill="limegreen">2027</text><text x="1708.64" y="966.044776119403" transform="rotate(270 1698.64 951.044776119403)" font-family="Consolas" font-size="50" fill="limegreen">2028</text><text x="1856.35" y="966.044776119403" transform="rotate(270 1846.35 951.044776119403)" font-family="Consolas" font-size="50" fill="limegreen">2029</text></g></g></svg>
