<svg xmlns="http://www.w3.org/2000/svg" width="1920" height="1080"> <rect width="100%" height="100%" fill="#000"/><g xmlns="http://www.w3.org/2000/svg" transform="translate(0,0) scale(1.0)"> <text  x="1080" y="60" font-family="Consolas" font-size="52" text-anchor="middle" fill="white">REAL  GDP ANNUAL PERCENT CHANGE (2018-2029) [IMF DATA]</text><text  x="1700" y="1050" font-family="Consolas" font-size="22" text-anchor="middle" fill="white">DESIGNED BY ZOOMIT WORLD</text><image x="180" y="-50" width="280" height="280" href="https://cdn.jsdelivr.net/gh/hampusborgos/country-flags@main/svg/bs.svg"></image><text x="70" y="180" font-family="Consolas" font-size="50" text-anchor="middle" fill="white">11%</text><text x="70" y="500.13986013986" font-family="Consolas" font-size="50" text-anchor="middle" fill="white">5.5%</text><text x="70" y="820.27972027972" font-family="Consolas" font-size="50" text-anchor="middle" fill="white">0%</text><text x="70" y="920.13986013986" font-family="Consolas" font-size="50" text-anchor="middle" fill="white">-1.5%</text><text x="70" y="1020" font-family="Consolas" font-size="50" text-anchor="middle" fill="white">-3%</text><line  x1="141.54" y1="180" x2="141.54" y2="1020" stroke="white" stroke-width="2"/><line x1="141.54"  y1="820.27972027972" x2="1920" y2="820.27972027972" stroke="white" stroke-width="5"/><g><rect x="171.54" y="320.979020979021" width="100" height="499.30" fill="none" stroke="limegreen" stroke-width="2"/><rect x="319.25" y="268.111888111888" width="100" height="552.17" fill="none" stroke="limegreen" stroke-width="2"/><rect x="614.67" y="180" width="100" height="640.28" fill="none" stroke="limegreen" stroke-width="2"/><rect x="762.38" y="338.601398601399" width="100" height="481.68" fill="none" stroke="limegreen" stroke-width="2"/><rect x="910.09" y="338.601398601399" width="100" height="481.68" fill="none" stroke="limegreen" stroke-width="2"/><rect x="1057.8" y="409.090909090909" width="100" height="411.19" fill="none" stroke="limegreen" stroke-width="2"/><rect x="1205.51" y="438.461538461538" width="100" height="381.82" fill="none" stroke="limegreen" stroke-width="2"/><rect x="1353.22" y="420.839160839161" width="100" height="399.44" fill="none" stroke="limegreen" stroke-width="2"/><rect x="1500.93" y="397.342657342657" width="100" height="422.94" fill="none" stroke="limegreen" stroke-width="2"/><rect x="1648.64" y="391.468531468531" width="100" height="428.81" fill="none" stroke="limegreen" stroke-width="2"/><rect x="1796.35" y="391.468531468531" width="100" height="428.81" fill="none" stroke="limegreen" stroke-width="2"/> <rect x="466.96" y="820.27972027972" width="100" height="199.72" fill="none" stroke="limegreen" stroke-width="2"/> </g><g><text x="221.54" y="310.98" font-family="Consolas" font-size="48" text-anchor="middle" fill="white">8.5</text><text x="369.25" y="258.11" font-family="Consolas" font-size="48" text-anchor="middle" fill="white">9.4</text><text x="664.67" y="170" font-family="Consolas" font-size="48" text-anchor="middle" fill="white">10.9</text><text x="812.38" y="328.6" font-family="Consolas" font-size="48" text-anchor="middle" fill="white">8.2</text><text x="960.09" y="328.6" font-family="Consolas" font-size="48" text-anchor="middle" fill="white">8.2</text><text x="1107.8" y="399.09" font-family="Consolas" font-size="48" text-anchor="middle" fill="white">7</text><text x="1255.51" y="428.46" font-family="Consolas" font-size="48" text-anchor="middle" fill="white">6.5</text><text x="1403.22" y="410.84" font-family="Consolas" font-size="48" text-anchor="middle" fill="white">6.8</text><text x="1550.93" y="387.34" font-family="Consolas" font-size="48" text-anchor="middle" fill="white">7.2</text><text x="1698.64" y="381.47" font-family="Consolas" font-size="48" text-anchor="middle" fill="white">7.3</text><text x="1846.35" y="381.47" font-family="Consolas" font-size="48" text-anchor="middle" fill="white">7.3</text> <text x="466.96" y="1010" font-family="Consolas" font-size="48" ttext-anchor="middle" fill="white">-3.4</text></g><g><text x="231.54" y="835.27972027972" transform="rotate(270 221.54 820.27972027972)" font-family="Consolas" font-size="50" fill="limegreen">2018</text><text x="379.25" y="835.27972027972" transform="rotate(270 369.25 820.27972027972)" font-family="Consolas" font-size="50" fill="limegreen">2019</text><text x="526.96" y="835.27972027972" transform="rotate(270 516.96 820.27972027972)" font-family="Consolas" font-size="50" fill="limegreen">2020</text><text x="674.67" y="835.27972027972" transform="rotate(270 664.67 820.27972027972)" font-family="Consolas" font-size="50" fill="limegreen">2021</text><text x="822.38" y="835.27972027972" transform="rotate(270 812.38 820.27972027972)" font-family="Consolas" font-size="50" fill="limegreen">2022</text><text x="970.09" y="835.27972027972" transform="rotate(270 960.09 820.27972027972)" font-family="Consolas" font-size="50" fill="limegreen">2023</text><text x="1117.8" y="835.27972027972" transform="rotate(270 1107.8 820.27972027972)" font-family="Consolas" font-size="50" fill="limegreen">2024</text><text x="1265.51" y="835.27972027972" transform="rotate(270 1255.51 820.27972027972)" font-family="Consolas" font-size="50" fill="limegreen">2025</text><text x="1413.22" y="835.27972027972" transform="rotate(270 1403.22 820.27972027972)" font-family="Consolas" font-size="50" fill="limegreen">2026</text><text x="1560.93" y="835.27972027972" transform="rotate(270 1550.93 820.27972027972)" font-family="Consolas" font-size="50" fill="limegreen">2027</text><text x="1708.64" y="835.27972027972" transform="rotate(270 1698.64 820.27972027972)" font-family="Consolas" font-size="50" fill="limegreen">2028</text><text x="1856.35" y="835.27972027972" transform="rotate(270 1846.35 820.27972027972)" font-family="Consolas" font-size="50" fill="limegreen">2029</text></g></g></svg>
