<svg xmlns="http://www.w3.org/2000/svg" width="1920" height="1080"> <rect width="100%" height="100%" fill="#000"/><g xmlns="http://www.w3.org/2000/svg" transform="translate(0,0) scale(1.0)"> <text  x="1080" y="60" font-family="Consolas" font-size="52" text-anchor="middle" fill="white">REAL  GDP ANNUAL PERCENT CHANGE (2018-2029) [IMF DATA]</text><text  x="1700" y="1050" font-family="Consolas" font-size="22" text-anchor="middle" fill="white">DESIGNED BY ZOOMIT WORLD</text><image x="180" y="-50" width="280" height="280" href="https://cdn.jsdelivr.net/gh/hampusborgos/country-flags@main/svg/bs.svg"></image><text x="70" y="180" font-family="Consolas" font-size="50" text-anchor="middle" fill="white">13%</text><text x="70" y="433.953488372093" font-family="Consolas" font-size="50" text-anchor="middle" fill="white">6.5%</text><text x="70" y="687.906976744186" font-family="Consolas" font-size="50" text-anchor="middle" fill="white">0%</text><text x="70" y="853.953488372093" font-family="Consolas" font-size="50" text-anchor="middle" fill="white">-4.5%</text><text x="70" y="1020" font-family="Consolas" font-size="50" text-anchor="middle" fill="white">-9%</text><line  x1="141.54" y1="180" x2="141.54" y2="1020" stroke="white" stroke-width="2"/><line x1="141.54"  y1="687.906976744186" x2="1920" y2="687.906976744186" stroke="white" stroke-width="5"/><g><rect x="171.54" y="570.697674418605" width="100" height="117.21" fill="none" stroke="limegreen" stroke-width="2"/><rect x="319.25" y="555.06976744186" width="100" height="132.84" fill="none" stroke="limegreen" stroke-width="2"/><rect x="614.67" y="180" width="100" height="507.91" fill="none" stroke="limegreen" stroke-width="2"/><rect x="762.38" y="414.418604651163" width="100" height="273.49" fill="none" stroke="limegreen" stroke-width="2"/><rect x="910.09" y="566.790697674419" width="100" height="121.12" fill="none" stroke="limegreen" stroke-width="2"/><rect x="1057.8" y="555.06976744186" width="100" height="132.84" fill="none" stroke="limegreen" stroke-width="2"/><rect x="1205.51" y="574.604651162791" width="100" height="113.30" fill="none" stroke="limegreen" stroke-width="2"/><rect x="1353.22" y="582.418604651163" width="100" height="105.49" fill="none" stroke="limegreen" stroke-width="2"/><rect x="1500.93" y="586.325581395349" width="100" height="101.58" fill="none" stroke="limegreen" stroke-width="2"/><rect x="1648.64" y="586.325581395349" width="100" height="101.58" fill="none" stroke="limegreen" stroke-width="2"/><rect x="1796.35" y="586.325581395349" width="100" height="101.58" fill="none" stroke="limegreen" stroke-width="2"/> <rect x="466.96" y="687.906976744186" width="100" height="332.09" fill="none" stroke="limegreen" stroke-width="2"/> </g><g><text x="221.54" y="560.7" font-family="Consolas" font-size="48" text-anchor="middle" fill="white">3</text><text x="369.25" y="545.07" font-family="Consolas" font-size="48" text-anchor="middle" fill="white">3.4</text><text x="664.67" y="170" font-family="Consolas" font-size="48" text-anchor="middle" fill="white">13</text><text x="812.38" y="404.42" font-family="Consolas" font-size="48" text-anchor="middle" fill="white">7</text><text x="960.09" y="556.79" font-family="Consolas" font-size="48" text-anchor="middle" fill="white">3.1</text><text x="1107.8" y="545.07" font-family="Consolas" font-size="48" text-anchor="middle" fill="white">3.4</text><text x="1255.51" y="564.6" font-family="Consolas" font-size="48" text-anchor="middle" fill="white">2.9</text><text x="1403.22" y="572.42" font-family="Consolas" font-size="48" text-anchor="middle" fill="white">2.7</text><text x="1550.93" y="576.33" font-family="Consolas" font-size="48" text-anchor="middle" fill="white">2.6</text><text x="1698.64" y="576.33" font-family="Consolas" font-size="48" text-anchor="middle" fill="white">2.6</text><text x="1846.35" y="576.33" font-family="Consolas" font-size="48" text-anchor="middle" fill="white">2.6</text> <text x="466.96" y="1010" font-family="Consolas" font-size="48" ttext-anchor="middle" fill="white">-8.5</text></g><g><text x="231.54" y="702.906976744186" transform="rotate(270 221.54 687.906976744186)" font-family="Consolas" font-size="50" fill="limegreen">2018</text><text x="379.25" y="702.906976744186" transform="rotate(270 369.25 687.906976744186)" font-family="Consolas" font-size="50" fill="limegreen">2019</text><text x="526.96" y="702.906976744186" transform="rotate(270 516.96 687.906976744186)" font-family="Consolas" font-size="50" fill="limegreen">2020</text><text x="674.67" y="702.906976744186" transform="rotate(270 664.67 687.906976744186)" font-family="Consolas" font-size="50" fill="limegreen">2021</text><text x="822.38" y="702.906976744186" transform="rotate(270 812.38 687.906976744186)" font-family="Consolas" font-size="50" fill="limegreen">2022</text><text x="970.09" y="702.906976744186" transform="rotate(270 960.09 687.906976744186)" font-family="Consolas" font-size="50" fill="limegreen">2023</text><text x="1117.8" y="702.906976744186" transform="rotate(270 1107.8 687.906976744186)" font-family="Consolas" font-size="50" fill="limegreen">2024</text><text x="1265.51" y="702.906976744186" transform="rotate(270 1255.51 687.906976744186)" font-family="Consolas" font-size="50" fill="limegreen">2025</text><text x="1413.22" y="702.906976744186" transform="rotate(270 1403.22 687.906976744186)" font-family="Consolas" font-size="50" fill="limegreen">2026</text><text x="1560.93" y="702.906976744186" transform="rotate(270 1550.93 687.906976744186)" font-family="Consolas" font-size="50" fill="limegreen">2027</text><text x="1708.64" y="702.906976744186" transform="rotate(270 1698.64 687.906976744186)" font-family="Consolas" font-size="50" fill="limegreen">2028</text><text x="1856.35" y="702.906976744186" transform="rotate(270 1846.35 687.906976744186)" font-family="Consolas" font-size="50" fill="limegreen">2029</text></g></g></svg>
