<svg xmlns="http://www.w3.org/2000/svg" width="1920" height="1080"> <rect width="100%" height="100%" fill="#000"/><g xmlns="http://www.w3.org/2000/svg" transform="translate(0,0) scale(1.0)"> <text  x="1080" y="60" font-family="Consolas" font-size="52" text-anchor="middle" fill="white">REAL  GDP ANNUAL PERCENT CHANGE (2018-2029) [IMF DATA]</text><text  x="1700" y="1050" font-family="Consolas" font-size="22" text-anchor="middle" fill="white">DESIGNED BY ZOOMIT WORLD</text><image x="180" y="-50" width="280" height="280" href="https://cdn.jsdelivr.net/gh/hampusborgos/country-flags@main/svg/bs.svg"></image><text x="70" y="180" font-family="Consolas" font-size="50" text-anchor="middle" fill="white">11%</text><text x="70" y="355.697211155378" font-family="Consolas" font-size="50" text-anchor="middle" fill="white">5.5%</text><text x="70" y="531.394422310757" font-family="Consolas" font-size="50" text-anchor="middle" fill="white">0%</text><text x="70" y="775.697211155378" font-family="Consolas" font-size="50" text-anchor="middle" fill="white">-7.5%</text><text x="70" y="1020" font-family="Consolas" font-size="50" text-anchor="middle" fill="white">-15%</text><line  x1="141.54" y1="180" x2="141.54" y2="1020" stroke="white" stroke-width="2"/><line x1="141.54"  y1="531.394422310757" x2="1920" y2="531.394422310757" stroke="white" stroke-width="5"/><g><rect x="171.54" y="461.115537848606" width="100" height="70.28" fill="none" stroke="limegreen" stroke-width="2"/><rect x="319.25" y="394.183266932271" width="100" height="137.21" fill="none" stroke="limegreen" stroke-width="2"/><rect x="762.38" y="180" width="100" height="351.39" fill="none" stroke="limegreen" stroke-width="2"/><rect x="910.09" y="454.422310756972" width="100" height="76.97" fill="none" stroke="limegreen" stroke-width="2"/><rect x="1057.8" y="384.143426294821" width="100" height="147.25" fill="none" stroke="limegreen" stroke-width="2"/><rect x="1205.51" y="387.490039840637" width="100" height="143.90" fill="none" stroke="limegreen" stroke-width="2"/><rect x="1353.22" y="404.223107569721" width="100" height="127.17" fill="none" stroke="limegreen" stroke-width="2"/><rect x="1500.93" y="427.649402390438" width="100" height="103.75" fill="none" stroke="limegreen" stroke-width="2"/><rect x="1648.64" y="434.342629482072" width="100" height="97.05" fill="none" stroke="limegreen" stroke-width="2"/><rect x="1796.35" y="434.342629482072" width="100" height="97.05" fill="none" stroke="limegreen" stroke-width="2"/> <rect x="466.96" y="531.394422310757" width="100" height="488.61" fill="none" stroke="limegreen" stroke-width="2"/><rect x="614.67" y="531.394422310757" width="100" height="56.89" fill="none" stroke="limegreen" stroke-width="2"/> </g><g><text x="221.54" y="451.12" font-family="Consolas" font-size="48" text-anchor="middle" fill="white">2.1</text><text x="369.25" y="384.18" font-family="Consolas" font-size="48" text-anchor="middle" fill="white">4.1</text><text x="812.38" y="170" font-family="Consolas" font-size="48" text-anchor="middle" fill="white">10.5</text><text x="960.09" y="444.42" font-family="Consolas" font-size="48" text-anchor="middle" fill="white">2.3</text><text x="1107.8" y="374.14" font-family="Consolas" font-size="48" text-anchor="middle" fill="white">4.4</text><text x="1255.51" y="377.49" font-family="Consolas" font-size="48" text-anchor="middle" fill="white">4.3</text><text x="1403.22" y="394.22" font-family="Consolas" font-size="48" text-anchor="middle" fill="white">3.8</text><text x="1550.93" y="417.65" font-family="Consolas" font-size="48" text-anchor="middle" fill="white">3.1</text><text x="1698.64" y="424.34" font-family="Consolas" font-size="48" text-anchor="middle" fill="white">2.9</text><text x="1846.35" y="424.34" font-family="Consolas" font-size="48" text-anchor="middle" fill="white">2.9</text> <text x="466.96" y="1010" font-family="Consolas" font-size="48" ttext-anchor="middle" fill="white">-14.6</text><text x="614.67" y="578.286852589641" font-family="Consolas" font-size="48" ttext-anchor="middle" fill="white">-1.7</text></g><g><text x="231.54" y="546.394422310757" transform="rotate(270 221.54 531.394422310757)" font-family="Consolas" font-size="50" fill="limegreen">2018</text><text x="379.25" y="546.394422310757" transform="rotate(270 369.25 531.394422310757)" font-family="Consolas" font-size="50" fill="limegreen">2019</text><text x="526.96" y="546.394422310757" transform="rotate(270 516.96 531.394422310757)" font-family="Consolas" font-size="50" fill="limegreen">2020</text><text x="674.67" y="546.394422310757" transform="rotate(270 664.67 531.394422310757)" font-family="Consolas" font-size="50" fill="limegreen">2021</text><text x="822.38" y="546.394422310757" transform="rotate(270 812.38 531.394422310757)" font-family="Consolas" font-size="50" fill="limegreen">2022</text><text x="970.09" y="546.394422310757" transform="rotate(270 960.09 531.394422310757)" font-family="Consolas" font-size="50" fill="limegreen">2023</text><text x="1117.8" y="546.394422310757" transform="rotate(270 1107.8 531.394422310757)" font-family="Consolas" font-size="50" fill="limegreen">2024</text><text x="1265.51" y="546.394422310757" transform="rotate(270 1255.51 531.394422310757)" font-family="Consolas" font-size="50" fill="limegreen">2025</text><text x="1413.22" y="546.394422310757" transform="rotate(270 1403.22 531.394422310757)" font-family="Consolas" font-size="50" fill="limegreen">2026</text><text x="1560.93" y="546.394422310757" transform="rotate(270 1550.93 531.394422310757)" font-family="Consolas" font-size="50" fill="limegreen">2027</text><text x="1708.64" y="546.394422310757" transform="rotate(270 1698.64 531.394422310757)" font-family="Consolas" font-size="50" fill="limegreen">2028</text><text x="1856.35" y="546.394422310757" transform="rotate(270 1846.35 531.394422310757)" font-family="Consolas" font-size="50" fill="limegreen">2029</text></g></g></svg>
