<svg xmlns="http://www.w3.org/2000/svg" width="1920" height="1080"> <rect width="100%" height="100%" fill="#000"/><g xmlns="http://www.w3.org/2000/svg" transform="translate(0,0) scale(1.0)"> <text  x="1080" y="60" font-family="Consolas" font-size="52" text-anchor="middle" fill="white">REAL  GDP ANNUAL PERCENT CHANGE (2018-2029) [IMF DATA]</text><text  x="1700" y="1050" font-family="Consolas" font-size="22" text-anchor="middle" fill="white">DESIGNED BY ZOOMIT WORLD</text><image x="180" y="-50" width="280" height="280" href="https://cdn.jsdelivr.net/gh/hampusborgos/country-flags@main/svg/bs.svg"></image><text x="70" y="180" font-family="Consolas" font-size="50" text-anchor="middle" fill="white">8%</text><text x="70" y="462.24" font-family="Consolas" font-size="50" text-anchor="middle" fill="white">4%</text><text x="70" y="744.48" font-family="Consolas" font-size="50" text-anchor="middle" fill="white">0%</text><text x="70" y="882.24" font-family="Consolas" font-size="50" text-anchor="middle" fill="white">-2%</text><text x="70" y="1020" font-family="Consolas" font-size="50" text-anchor="middle" fill="white">-4%</text><line  x1="141.54" y1="180" x2="141.54" y2="1020" stroke="white" stroke-width="2"/><line x1="141.54"  y1="744.48" x2="1920" y2="744.48" stroke="white" stroke-width="5"/><g><rect x="171.54" y="448.8" width="100" height="295.68" fill="none" stroke="limegreen" stroke-width="2"/><rect x="319.25" y="509.28" width="100" height="235.20" fill="none" stroke="limegreen" stroke-width="2"/><rect x="614.67" y="180" width="100" height="564.48" fill="none" stroke="limegreen" stroke-width="2"/><rect x="762.38" y="563.04" width="100" height="181.44" fill="none" stroke="limegreen" stroke-width="2"/><rect x="910.09" y="603.36" width="100" height="141.12" fill="none" stroke="limegreen" stroke-width="2"/><rect x="1057.8" y="643.68" width="100" height="100.80" fill="none" stroke="limegreen" stroke-width="2"/><rect x="1205.51" y="569.76" width="100" height="174.72" fill="none" stroke="limegreen" stroke-width="2"/><rect x="1353.22" y="576.48" width="100" height="168.00" fill="none" stroke="limegreen" stroke-width="2"/><rect x="1500.93" y="576.48" width="100" height="168.00" fill="none" stroke="limegreen" stroke-width="2"/><rect x="1648.64" y="576.48" width="100" height="168.00" fill="none" stroke="limegreen" stroke-width="2"/><rect x="1796.35" y="576.48" width="100" height="168.00" fill="none" stroke="limegreen" stroke-width="2"/> <rect x="466.96" y="744.48" width="100" height="275.52" fill="none" stroke="limegreen" stroke-width="2"/> </g><g><text x="221.54" y="438.8" font-family="Consolas" font-size="48" text-anchor="middle" fill="white">4.4</text><text x="369.25" y="499.28" font-family="Consolas" font-size="48" text-anchor="middle" fill="white">3.5</text><text x="664.67" y="170" font-family="Consolas" font-size="48" text-anchor="middle" fill="white">8.4</text><text x="812.38" y="553.04" font-family="Consolas" font-size="48" text-anchor="middle" fill="white">2.7</text><text x="960.09" y="593.36" font-family="Consolas" font-size="48" text-anchor="middle" fill="white">2.1</text><text x="1107.8" y="633.68" font-family="Consolas" font-size="48" text-anchor="middle" fill="white">1.5</text><text x="1255.51" y="559.76" font-family="Consolas" font-size="48" text-anchor="middle" fill="white">2.6</text><text x="1403.22" y="566.48" font-family="Consolas" font-size="48" text-anchor="middle" fill="white">2.5</text><text x="1550.93" y="566.48" font-family="Consolas" font-size="48" text-anchor="middle" fill="white">2.5</text><text x="1698.64" y="566.48" font-family="Consolas" font-size="48" text-anchor="middle" fill="white">2.5</text><text x="1846.35" y="566.48" font-family="Consolas" font-size="48" text-anchor="middle" fill="white">2.5</text> <text x="466.96" y="1010" font-family="Consolas" font-size="48" ttext-anchor="middle" fill="white">-4.1</text></g><g><text x="231.54" y="759.48" transform="rotate(270 221.54 744.48)" font-family="Consolas" font-size="50" fill="limegreen">2018</text><text x="379.25" y="759.48" transform="rotate(270 369.25 744.48)" font-family="Consolas" font-size="50" fill="limegreen">2019</text><text x="526.96" y="759.48" transform="rotate(270 516.96 744.48)" font-family="Consolas" font-size="50" fill="limegreen">2020</text><text x="674.67" y="759.48" transform="rotate(270 664.67 744.48)" font-family="Consolas" font-size="50" fill="limegreen">2021</text><text x="822.38" y="759.48" transform="rotate(270 812.38 744.48)" font-family="Consolas" font-size="50" fill="limegreen">2022</text><text x="970.09" y="759.48" transform="rotate(270 960.09 744.48)" font-family="Consolas" font-size="50" fill="limegreen">2023</text><text x="1117.8" y="759.48" transform="rotate(270 1107.8 744.48)" font-family="Consolas" font-size="50" fill="limegreen">2024</text><text x="1265.51" y="759.48" transform="rotate(270 1255.51 744.48)" font-family="Consolas" font-size="50" fill="limegreen">2025</text><text x="1413.22" y="759.48" transform="rotate(270 1403.22 744.48)" font-family="Consolas" font-size="50" fill="limegreen">2026</text><text x="1560.93" y="759.48" transform="rotate(270 1550.93 744.48)" font-family="Consolas" font-size="50" fill="limegreen">2027</text><text x="1708.64" y="759.48" transform="rotate(270 1698.64 744.48)" font-family="Consolas" font-size="50" fill="limegreen">2028</text><text x="1856.35" y="759.48" transform="rotate(270 1846.35 744.48)" font-family="Consolas" font-size="50" fill="limegreen">2029</text></g></g></svg>
