<svg xmlns="http://www.w3.org/2000/svg" width="1920" height="1080"> <rect width="100%" height="100%" fill="#000"/><g xmlns="http://www.w3.org/2000/svg" transform="translate(0,0) scale(1.0)"> <text  x="1080" y="60" font-family="Consolas" font-size="52" text-anchor="middle" fill="white">REAL  GDP ANNUAL PERCENT CHANGE (2018-2029) [IMF DATA]</text><text  x="1700" y="1050" font-family="Consolas" font-size="22" text-anchor="middle" fill="white">DESIGNED BY ZOOMIT WORLD</text><image x="180" y="-50" width="280" height="280" href="https://cdn.jsdelivr.net/gh/hampusborgos/country-flags@main/svg/bs.svg"></image><text x="70" y="180" font-family="Consolas" font-size="50" text-anchor="middle" fill="white">9%</text><text x="70" y="486.393442622951" font-family="Consolas" font-size="50" text-anchor="middle" fill="white">4.5%</text><text x="70" y="792.786885245902" font-family="Consolas" font-size="50" text-anchor="middle" fill="white">0%</text><text x="70" y="906.393442622951" font-family="Consolas" font-size="50" text-anchor="middle" fill="white">-1.5%</text><text x="70" y="1020" font-family="Consolas" font-size="50" text-anchor="middle" fill="white">-3%</text><line  x1="141.54" y1="180" x2="141.54" y2="1020" stroke="white" stroke-width="2"/><line x1="141.54"  y1="792.786885245902" x2="1920" y2="792.786885245902" stroke="white" stroke-width="5"/><g><rect x="171.54" y="517.377049180328" width="100" height="275.41" fill="none" stroke="limegreen" stroke-width="2"/><rect x="319.25" y="648.196721311475" width="100" height="144.59" fill="none" stroke="limegreen" stroke-width="2"/><rect x="614.67" y="180" width="100" height="612.79" fill="none" stroke="limegreen" stroke-width="2"/><rect x="762.38" y="455.409836065574" width="100" height="337.38" fill="none" stroke="limegreen" stroke-width="2"/><rect x="910.09" y="551.803278688525" width="100" height="240.98" fill="none" stroke="limegreen" stroke-width="2"/><rect x="1057.8" y="565.573770491803" width="100" height="227.21" fill="none" stroke="limegreen" stroke-width="2"/><rect x="1205.51" y="558.688524590164" width="100" height="234.10" fill="none" stroke="limegreen" stroke-width="2"/><rect x="1353.22" y="551.803278688525" width="100" height="240.98" fill="none" stroke="limegreen" stroke-width="2"/><rect x="1500.93" y="551.803278688525" width="100" height="240.98" fill="none" stroke="limegreen" stroke-width="2"/><rect x="1648.64" y="551.803278688525" width="100" height="240.98" fill="none" stroke="limegreen" stroke-width="2"/><rect x="1796.35" y="551.803278688525" width="100" height="240.98" fill="none" stroke="limegreen" stroke-width="2"/> <rect x="466.96" y="792.786885245902" width="100" height="227.21" fill="none" stroke="limegreen" stroke-width="2"/> </g><g><text x="221.54" y="507.38" font-family="Consolas" font-size="48" text-anchor="middle" fill="white">4</text><text x="369.25" y="638.2" font-family="Consolas" font-size="48" text-anchor="middle" fill="white">2.1</text><text x="664.67" y="170" font-family="Consolas" font-size="48" text-anchor="middle" fill="white">8.9</text><text x="812.38" y="445.41" font-family="Consolas" font-size="48" text-anchor="middle" fill="white">4.9</text><text x="960.09" y="541.8" font-family="Consolas" font-size="48" text-anchor="middle" fill="white">3.5</text><text x="1107.8" y="555.57" font-family="Consolas" font-size="48" text-anchor="middle" fill="white">3.3</text><text x="1255.51" y="548.69" font-family="Consolas" font-size="48" text-anchor="middle" fill="white">3.4</text><text x="1403.22" y="541.8" font-family="Consolas" font-size="48" text-anchor="middle" fill="white">3.5</text><text x="1550.93" y="541.8" font-family="Consolas" font-size="48" text-anchor="middle" fill="white">3.5</text><text x="1698.64" y="541.8" font-family="Consolas" font-size="48" text-anchor="middle" fill="white">3.5</text><text x="1846.35" y="541.8" font-family="Consolas" font-size="48" text-anchor="middle" fill="white">3.5</text> <text x="466.96" y="1010" font-family="Consolas" font-size="48" ttext-anchor="middle" fill="white">-3.3</text></g><g><text x="231.54" y="807.786885245902" transform="rotate(270 221.54 792.786885245902)" font-family="Consolas" font-size="50" fill="limegreen">2018</text><text x="379.25" y="807.786885245902" transform="rotate(270 369.25 792.786885245902)" font-family="Consolas" font-size="50" fill="limegreen">2019</text><text x="526.96" y="807.786885245902" transform="rotate(270 516.96 792.786885245902)" font-family="Consolas" font-size="50" fill="limegreen">2020</text><text x="674.67" y="807.786885245902" transform="rotate(270 664.67 792.786885245902)" font-family="Consolas" font-size="50" fill="limegreen">2021</text><text x="822.38" y="807.786885245902" transform="rotate(270 812.38 792.786885245902)" font-family="Consolas" font-size="50" fill="limegreen">2022</text><text x="970.09" y="807.786885245902" transform="rotate(270 960.09 792.786885245902)" font-family="Consolas" font-size="50" fill="limegreen">2023</text><text x="1117.8" y="807.786885245902" transform="rotate(270 1107.8 792.786885245902)" font-family="Consolas" font-size="50" fill="limegreen">2024</text><text x="1265.51" y="807.786885245902" transform="rotate(270 1255.51 792.786885245902)" font-family="Consolas" font-size="50" fill="limegreen">2025</text><text x="1413.22" y="807.786885245902" transform="rotate(270 1403.22 792.786885245902)" font-family="Consolas" font-size="50" fill="limegreen">2026</text><text x="1560.93" y="807.786885245902" transform="rotate(270 1550.93 792.786885245902)" font-family="Consolas" font-size="50" fill="limegreen">2027</text><text x="1708.64" y="807.786885245902" transform="rotate(270 1698.64 792.786885245902)" font-family="Consolas" font-size="50" fill="limegreen">2028</text><text x="1856.35" y="807.786885245902" transform="rotate(270 1846.35 792.786885245902)" font-family="Consolas" font-size="50" fill="limegreen">2029</text></g></g></svg>
