<svg xmlns="http://www.w3.org/2000/svg" width="1920" height="1080"> <rect width="100%" height="100%" fill="#000"/><g xmlns="http://www.w3.org/2000/svg" transform="translate(0,0) scale(1.0)"> <text  x="1080" y="60" font-family="Consolas" font-size="52" text-anchor="middle" fill="white">REAL  GDP ANNUAL PERCENT CHANGE (2018-2029) [IMF DATA]</text><text  x="1780" y="1050" font-family="Consolas" font-size="32" text-anchor="middle" fill="white">ZOOMIT WORLD</text><image x="180" y="-50" width="280" height="280" href="https://cdn.jsdelivr.net/gh/hampusborgos/country-flags@main/svg/jm.svg"></image><text x="70" y="180" font-family="Consolas" font-size="50" text-anchor="middle" fill="white">5%</text><text x="70" y="324.635761589404" font-family="Consolas" font-size="50" text-anchor="middle" fill="white">2.5%</text><text x="70" y="469.271523178808" font-family="Consolas" font-size="50" text-anchor="middle" fill="white">0%</text><text x="70" y="744.635761589404" font-family="Consolas" font-size="50" text-anchor="middle" fill="white">-5%</text><text x="70" y="1020" font-family="Consolas" font-size="50" text-anchor="middle" fill="white">-10%</text><line  x1="141.54" y1="180" x2="141.54" y2="1020" stroke="white" stroke-width="2"/><line x1="141.54"  y1="469.271523178808" x2="1920" y2="469.271523178808" stroke="white" stroke-width="5"/><g><rect x="171.54" y="369.139072847682" width="100" height="100.13" fill="none" stroke="limegreen" stroke-width="2"/><rect x="319.25" y="413.64238410596" width="100" height="55.63" fill="none" stroke="limegreen" stroke-width="2"/><rect x="614.67" y="213.377483443709" width="100" height="255.89" fill="none" stroke="limegreen" stroke-width="2"/><rect x="762.38" y="180" width="100" height="289.27" fill="none" stroke="limegreen" stroke-width="2"/><rect x="910.09" y="324.635761589404" width="100" height="144.64" fill="none" stroke="limegreen" stroke-width="2"/><rect x="1057.8" y="396.953642384106" width="100" height="72.32" fill="none" stroke="limegreen" stroke-width="2"/><rect x="1205.51" y="352.450331125828" width="100" height="116.82" fill="none" stroke="limegreen" stroke-width="2"/><rect x="1353.22" y="380.264900662252" width="100" height="89.01" fill="none" stroke="limegreen" stroke-width="2"/><rect x="1500.93" y="380.264900662252" width="100" height="89.01" fill="none" stroke="limegreen" stroke-width="2"/><rect x="1648.64" y="380.264900662252" width="100" height="89.01" fill="none" stroke="limegreen" stroke-width="2"/><rect x="1796.35" y="380.264900662252" width="100" height="89.01" fill="none" stroke="limegreen" stroke-width="2"/> <rect x="466.96" y="469.271523178808" width="100" height="550.73" fill="none" stroke="limegreen" stroke-width="2"/> </g><g><text x="221.54" y="359.14" font-family="Consolas" font-size="48" text-anchor="middle" fill="white">1.8</text><text x="369.25" y="403.64" font-family="Consolas" font-size="48" text-anchor="middle" fill="white">1</text><text x="664.67" y="203.38" font-family="Consolas" font-size="48" text-anchor="middle" fill="white">4.6</text><text x="812.38" y="170" font-family="Consolas" font-size="48" text-anchor="middle" fill="white">5.2</text><text x="960.09" y="314.64" font-family="Consolas" font-size="48" text-anchor="middle" fill="white">2.6</text><text x="1107.8" y="386.95" font-family="Consolas" font-size="48" text-anchor="middle" fill="white">1.3</text><text x="1255.51" y="342.45" font-family="Consolas" font-size="48" text-anchor="middle" fill="white">2.1</text><text x="1403.22" y="370.26" font-family="Consolas" font-size="48" text-anchor="middle" fill="white">1.6</text><text x="1550.93" y="370.26" font-family="Consolas" font-size="48" text-anchor="middle" fill="white">1.6</text><text x="1698.64" y="370.26" font-family="Consolas" font-size="48" text-anchor="middle" fill="white">1.6</text><text x="1846.35" y="370.26" font-family="Consolas" font-size="48" text-anchor="middle" fill="white">1.6</text> <text x="466.96" y="1010" font-family="Consolas" font-size="48" ttext-anchor="middle" fill="white">-9.9</text></g><g><text x="231.54" y="484.271523178808" transform="rotate(270 221.54 469.271523178808)" font-family="Consolas" font-size="50" fill="limegreen">2018</text><text x="379.25" y="484.271523178808" transform="rotate(270 369.25 469.271523178808)" font-family="Consolas" font-size="50" fill="limegreen">2019</text><text x="526.96" y="484.271523178808" transform="rotate(270 516.96 469.271523178808)" font-family="Consolas" font-size="50" fill="limegreen">2020</text><text x="674.67" y="484.271523178808" transform="rotate(270 664.67 469.271523178808)" font-family="Consolas" font-size="50" fill="limegreen">2021</text><text x="822.38" y="484.271523178808" transform="rotate(270 812.38 469.271523178808)" font-family="Consolas" font-size="50" fill="limegreen">2022</text><text x="970.09" y="484.271523178808" transform="rotate(270 960.09 469.271523178808)" font-family="Consolas" font-size="50" fill="limegreen">2023</text><text x="1117.8" y="484.271523178808" transform="rotate(270 1107.8 469.271523178808)" font-family="Consolas" font-size="50" fill="limegreen">2024</text><text x="1265.51" y="484.271523178808" transform="rotate(270 1255.51 469.271523178808)" font-family="Consolas" font-size="50" fill="limegreen">2025</text><text x="1413.22" y="484.271523178808" transform="rotate(270 1403.22 469.271523178808)" font-family="Consolas" font-size="50" fill="limegreen">2026</text><text x="1560.93" y="484.271523178808" transform="rotate(270 1550.93 469.271523178808)" font-family="Consolas" font-size="50" fill="limegreen">2027</text><text x="1708.64" y="484.271523178808" transform="rotate(270 1698.64 469.271523178808)" font-family="Consolas" font-size="50" fill="limegreen">2028</text><text x="1856.35" y="484.271523178808" transform="rotate(270 1846.35 469.271523178808)" font-family="Consolas" font-size="50" fill="limegreen">2029</text></g></g></svg>
