<svg xmlns="http://www.w3.org/2000/svg" width="1920" height="1080"> <rect width="100%" height="100%" fill="#000"/><g xmlns="http://www.w3.org/2000/svg" transform="translate(0,0) scale(1.0)"> <text  x="1080" y="60" font-family="Consolas" font-size="52" text-anchor="middle" fill="white">REAL  GDP ANNUAL PERCENT CHANGE (2018-2029) [IMF DATA]</text><text  x="1780" y="1050" font-family="Consolas" font-size="32" text-anchor="middle" fill="white">ZOOMIT WORLD</text><image x="180" y="-50" width="280" height="280" href="https://cdn.jsdelivr.net/gh/hampusborgos/country-flags@main/svg/sv.svg"></image><text x="70" y="180" font-family="Consolas" font-size="50" text-anchor="middle" fill="white">12%</text><text x="70" y="432.424242424242" font-family="Consolas" font-size="50" text-anchor="middle" fill="white">6%</text><text x="70" y="684.848484848485" font-family="Consolas" font-size="50" text-anchor="middle" fill="white">0%</text><text x="70" y="852.424242424242" font-family="Consolas" font-size="50" text-anchor="middle" fill="white">-4%</text><text x="70" y="1020" font-family="Consolas" font-size="50" text-anchor="middle" fill="white">-8%</text><line  x1="141.54" y1="180" x2="141.54" y2="1020" stroke="white" stroke-width="2"/><line x1="141.54"  y1="684.848484848485" x2="1920" y2="684.848484848485" stroke="white" stroke-width="5"/><g><rect x="171.54" y="583.030303030303" width="100" height="101.82" fill="none" stroke="limegreen" stroke-width="2"/><rect x="319.25" y="583.030303030303" width="100" height="101.82" fill="none" stroke="limegreen" stroke-width="2"/><rect x="614.67" y="180" width="100" height="504.85" fill="none" stroke="limegreen" stroke-width="2"/><rect x="762.38" y="566.060606060606" width="100" height="118.79" fill="none" stroke="limegreen" stroke-width="2"/><rect x="910.09" y="536.363636363636" width="100" height="148.48" fill="none" stroke="limegreen" stroke-width="2"/><rect x="1057.8" y="557.575757575758" width="100" height="127.27" fill="none" stroke="limegreen" stroke-width="2"/><rect x="1205.51" y="557.575757575758" width="100" height="127.27" fill="none" stroke="limegreen" stroke-width="2"/><rect x="1353.22" y="566.060606060606" width="100" height="118.79" fill="none" stroke="limegreen" stroke-width="2"/><rect x="1500.93" y="566.060606060606" width="100" height="118.79" fill="none" stroke="limegreen" stroke-width="2"/><rect x="1648.64" y="566.060606060606" width="100" height="118.79" fill="none" stroke="limegreen" stroke-width="2"/><rect x="1796.35" y="566.060606060606" width="100" height="118.79" fill="none" stroke="limegreen" stroke-width="2"/> <rect x="466.96" y="684.848484848485" width="100" height="335.15" fill="none" stroke="limegreen" stroke-width="2"/> </g><g><text x="221.54" y="573.03" font-family="Consolas" font-size="48" text-anchor="middle" fill="white">2.4</text><text x="369.25" y="573.03" font-family="Consolas" font-size="48" text-anchor="middle" fill="white">2.4</text><text x="664.67" y="170" font-family="Consolas" font-size="48" text-anchor="middle" fill="white">11.9</text><text x="812.38" y="556.06" font-family="Consolas" font-size="48" text-anchor="middle" fill="white">2.8</text><text x="960.09" y="526.36" font-family="Consolas" font-size="48" text-anchor="middle" fill="white">3.5</text><text x="1107.8" y="547.58" font-family="Consolas" font-size="48" text-anchor="middle" fill="white">3</text><text x="1255.51" y="547.58" font-family="Consolas" font-size="48" text-anchor="middle" fill="white">3</text><text x="1403.22" y="556.06" font-family="Consolas" font-size="48" text-anchor="middle" fill="white">2.8</text><text x="1550.93" y="556.06" font-family="Consolas" font-size="48" text-anchor="middle" fill="white">2.8</text><text x="1698.64" y="556.06" font-family="Consolas" font-size="48" text-anchor="middle" fill="white">2.8</text><text x="1846.35" y="556.06" font-family="Consolas" font-size="48" text-anchor="middle" fill="white">2.8</text> <text x="466.96" y="1010" font-family="Consolas" font-size="48" ttext-anchor="middle" fill="white">-7.9</text></g><g><text x="231.54" y="699.848484848485" transform="rotate(270 221.54 684.848484848485)" font-family="Consolas" font-size="50" fill="limegreen">2018</text><text x="379.25" y="699.848484848485" transform="rotate(270 369.25 684.848484848485)" font-family="Consolas" font-size="50" fill="limegreen">2019</text><text x="526.96" y="699.848484848485" transform="rotate(270 516.96 684.848484848485)" font-family="Consolas" font-size="50" fill="limegreen">2020</text><text x="674.67" y="699.848484848485" transform="rotate(270 664.67 684.848484848485)" font-family="Consolas" font-size="50" fill="limegreen">2021</text><text x="822.38" y="699.848484848485" transform="rotate(270 812.38 684.848484848485)" font-family="Consolas" font-size="50" fill="limegreen">2022</text><text x="970.09" y="699.848484848485" transform="rotate(270 960.09 684.848484848485)" font-family="Consolas" font-size="50" fill="limegreen">2023</text><text x="1117.8" y="699.848484848485" transform="rotate(270 1107.8 684.848484848485)" font-family="Consolas" font-size="50" fill="limegreen">2024</text><text x="1265.51" y="699.848484848485" transform="rotate(270 1255.51 684.848484848485)" font-family="Consolas" font-size="50" fill="limegreen">2025</text><text x="1413.22" y="699.848484848485" transform="rotate(270 1403.22 684.848484848485)" font-family="Consolas" font-size="50" fill="limegreen">2026</text><text x="1560.93" y="699.848484848485" transform="rotate(270 1550.93 684.848484848485)" font-family="Consolas" font-size="50" fill="limegreen">2027</text><text x="1708.64" y="699.848484848485" transform="rotate(270 1698.64 684.848484848485)" font-family="Consolas" font-size="50" fill="limegreen">2028</text><text x="1856.35" y="699.848484848485" transform="rotate(270 1846.35 684.848484848485)" font-family="Consolas" font-size="50" fill="limegreen">2029</text></g></g></svg>
