<svg xmlns="http://www.w3.org/2000/svg" width="1920" height="1080"> <rect width="100%" height="100%" fill="#000"/><g xmlns="http://www.w3.org/2000/svg" transform="translate(0,0) scale(1.0)"> <text  x="1080" y="60" font-family="Consolas" font-size="52" text-anchor="middle" fill="white">REAL  GDP ANNUAL PERCENT CHANGE (2018-2029) [IMF DATA]</text><text  x="1700" y="1050" font-family="Consolas" font-size="22" text-anchor="middle" fill="white">DESIGNED BY ZOOMIT WORLD</text><image x="180" y="-50" width="280" height="280" href="https://cdn.jsdelivr.net/gh/hampusborgos/country-flags@main/svg/bs.svg"></image><text x="70" y="180" font-family="Consolas" font-size="50" text-anchor="middle" fill="white">3%</text><text x="70" y="343.90243902439" font-family="Consolas" font-size="50" text-anchor="middle" fill="white">1.5%</text><text x="70" y="507.804878048781" font-family="Consolas" font-size="50" text-anchor="middle" fill="white">0%</text><text x="70" y="763.90243902439" font-family="Consolas" font-size="50" text-anchor="middle" fill="white">-2.5%</text><text x="70" y="1020" font-family="Consolas" font-size="50" text-anchor="middle" fill="white">-5%</text><line  x1="141.54" y1="180" x2="141.54" y2="1020" stroke="white" stroke-width="2"/><line x1="141.54"  y1="507.804878048781" x2="1920" y2="507.804878048781" stroke="white" stroke-width="5"/><g><rect x="171.54" y="210.731707317073" width="100" height="297.07" fill="none" stroke="limegreen" stroke-width="2"/><rect x="319.25" y="180" width="100" height="327.80" fill="none" stroke="limegreen" stroke-width="2"/><rect x="762.38" y="313.170731707317" width="100" height="194.63" fill="none" stroke="limegreen" stroke-width="2"/><rect x="910.09" y="282.439024390244" width="100" height="225.37" fill="none" stroke="limegreen" stroke-width="2"/><rect x="1057.8" y="415.609756097561" width="100" height="92.20" fill="none" stroke="limegreen" stroke-width="2"/><rect x="1205.51" y="354.146341463415" width="100" height="153.66" fill="none" stroke="limegreen" stroke-width="2"/><rect x="1353.22" y="292.682926829268" width="100" height="215.12" fill="none" stroke="limegreen" stroke-width="2"/><rect x="1500.93" y="251.707317073171" width="100" height="256.10" fill="none" stroke="limegreen" stroke-width="2"/><rect x="1648.64" y="302.926829268293" width="100" height="204.88" fill="none" stroke="limegreen" stroke-width="2"/><rect x="1796.35" y="302.926829268293" width="100" height="204.88" fill="none" stroke="limegreen" stroke-width="2"/> <rect x="466.96" y="507.804878048781" width="100" height="512.20" fill="none" stroke="limegreen" stroke-width="2"/><rect x="614.67" y="507.804878048781" width="100" height="163.90" fill="none" stroke="limegreen" stroke-width="2"/> </g><g><text x="221.54" y="200.73" font-family="Consolas" font-size="48" text-anchor="middle" fill="white">2.9</text><text x="369.25" y="170" font-family="Consolas" font-size="48" text-anchor="middle" fill="white">3.2</text><text x="812.38" y="303.17" font-family="Consolas" font-size="48" text-anchor="middle" fill="white">1.9</text><text x="960.09" y="272.44" font-family="Consolas" font-size="48" text-anchor="middle" fill="white">2.2</text><text x="1107.8" y="405.61" font-family="Consolas" font-size="48" text-anchor="middle" fill="white">0.9</text><text x="1255.51" y="344.15" font-family="Consolas" font-size="48" text-anchor="middle" fill="white">1.5</text><text x="1403.22" y="282.68" font-family="Consolas" font-size="48" text-anchor="middle" fill="white">2.1</text><text x="1550.93" y="241.71" font-family="Consolas" font-size="48" text-anchor="middle" fill="white">2.5</text><text x="1698.64" y="292.93" font-family="Consolas" font-size="48" text-anchor="middle" fill="white">2</text><text x="1846.35" y="292.93" font-family="Consolas" font-size="48" text-anchor="middle" fill="white">2</text> <text x="466.96" y="1010" font-family="Consolas" font-size="48" ttext-anchor="middle" fill="white">-5</text><text x="614.67" y="661.707317073171" font-family="Consolas" font-size="48" ttext-anchor="middle" fill="white">-1.6</text></g><g><text x="231.54" y="522.804878048781" transform="rotate(270 221.54 507.804878048781)" font-family="Consolas" font-size="50" fill="limegreen">2018</text><text x="379.25" y="522.804878048781" transform="rotate(270 369.25 507.804878048781)" font-family="Consolas" font-size="50" fill="limegreen">2019</text><text x="526.96" y="522.804878048781" transform="rotate(270 516.96 507.804878048781)" font-family="Consolas" font-size="50" fill="limegreen">2020</text><text x="674.67" y="522.804878048781" transform="rotate(270 664.67 507.804878048781)" font-family="Consolas" font-size="50" fill="limegreen">2021</text><text x="822.38" y="522.804878048781" transform="rotate(270 812.38 507.804878048781)" font-family="Consolas" font-size="50" fill="limegreen">2022</text><text x="970.09" y="522.804878048781" transform="rotate(270 960.09 507.804878048781)" font-family="Consolas" font-size="50" fill="limegreen">2023</text><text x="1117.8" y="522.804878048781" transform="rotate(270 1107.8 507.804878048781)" font-family="Consolas" font-size="50" fill="limegreen">2024</text><text x="1265.51" y="522.804878048781" transform="rotate(270 1255.51 507.804878048781)" font-family="Consolas" font-size="50" fill="limegreen">2025</text><text x="1413.22" y="522.804878048781" transform="rotate(270 1403.22 507.804878048781)" font-family="Consolas" font-size="50" fill="limegreen">2026</text><text x="1560.93" y="522.804878048781" transform="rotate(270 1550.93 507.804878048781)" font-family="Consolas" font-size="50" fill="limegreen">2027</text><text x="1708.64" y="522.804878048781" transform="rotate(270 1698.64 507.804878048781)" font-family="Consolas" font-size="50" fill="limegreen">2028</text><text x="1856.35" y="522.804878048781" transform="rotate(270 1846.35 507.804878048781)" font-family="Consolas" font-size="50" fill="limegreen">2029</text></g></g></svg>
