<svg xmlns="http://www.w3.org/2000/svg" width="1920" height="1080"> <rect width="100%" height="100%" fill="#000"/><g xmlns="http://www.w3.org/2000/svg" transform="translate(0,0) scale(1.0)"> <text  x="1080" y="60" font-family="Consolas" font-size="52" text-anchor="middle" fill="white">REAL  GDP ANNUAL PERCENT CHANGE (2018-2029) [IMF DATA]</text><text  x="1780" y="1050" font-family="Consolas" font-size="32" text-anchor="middle" fill="white">ZOOMIT WORLD</text><image x="180" y="-50" width="280" height="280" href="https://cdn.jsdelivr.net/gh/hampusborgos/country-flags@main/svg/mt.svg"></image><text x="70" y="180" font-family="Consolas" font-size="50" text-anchor="middle" fill="white">14%</text><text x="70" y="513.529411764706" font-family="Consolas" font-size="50" text-anchor="middle" fill="white">7%</text><text x="70" y="847.058823529412" font-family="Consolas" font-size="50" text-anchor="middle" fill="white">0%</text><text x="70" y="933.529411764706" font-family="Consolas" font-size="50" text-anchor="middle" fill="white">-2%</text><text x="70" y="1020" font-family="Consolas" font-size="50" text-anchor="middle" fill="white">-4%</text><line  x1="141.54" y1="180" x2="141.54" y2="1020" stroke="white" stroke-width="2"/><line x1="141.54"  y1="847.058823529412" x2="1920" y2="847.058823529412" stroke="white" stroke-width="5"/><g><rect x="171.54" y="491.294117647059" width="100" height="355.76" fill="none" stroke="limegreen" stroke-width="2"/><rect x="319.25" y="644.470588235294" width="100" height="202.59" fill="none" stroke="limegreen" stroke-width="2"/><rect x="614.67" y="180" width="100" height="667.06" fill="none" stroke="limegreen" stroke-width="2"/><rect x="762.38" y="644.470588235294" width="100" height="202.59" fill="none" stroke="limegreen" stroke-width="2"/><rect x="910.09" y="476.470588235294" width="100" height="370.59" fill="none" stroke="limegreen" stroke-width="2"/><rect x="1057.8" y="600" width="100" height="247.06" fill="none" stroke="limegreen" stroke-width="2"/><rect x="1205.51" y="649.411764705882" width="100" height="197.65" fill="none" stroke="limegreen" stroke-width="2"/><rect x="1353.22" y="674.117647058823" width="100" height="172.94" fill="none" stroke="limegreen" stroke-width="2"/><rect x="1500.93" y="674.117647058823" width="100" height="172.94" fill="none" stroke="limegreen" stroke-width="2"/><rect x="1648.64" y="674.117647058823" width="100" height="172.94" fill="none" stroke="limegreen" stroke-width="2"/><rect x="1796.35" y="674.117647058823" width="100" height="172.94" fill="none" stroke="limegreen" stroke-width="2"/> <rect x="466.96" y="847.058823529412" width="100" height="172.94" fill="none" stroke="limegreen" stroke-width="2"/> </g><g><text x="221.54" y="481.29" font-family="Consolas" font-size="48" text-anchor="middle" fill="white">7.2</text><text x="369.25" y="634.47" font-family="Consolas" font-size="48" text-anchor="middle" fill="white">4.1</text><text x="664.67" y="170" font-family="Consolas" font-size="48" text-anchor="middle" fill="white">13.5</text><text x="812.38" y="634.47" font-family="Consolas" font-size="48" text-anchor="middle" fill="white">4.1</text><text x="960.09" y="466.47" font-family="Consolas" font-size="48" text-anchor="middle" fill="white">7.5</text><text x="1107.8" y="590" font-family="Consolas" font-size="48" text-anchor="middle" fill="white">5</text><text x="1255.51" y="639.41" font-family="Consolas" font-size="48" text-anchor="middle" fill="white">4</text><text x="1403.22" y="664.12" font-family="Consolas" font-size="48" text-anchor="middle" fill="white">3.5</text><text x="1550.93" y="664.12" font-family="Consolas" font-size="48" text-anchor="middle" fill="white">3.5</text><text x="1698.64" y="664.12" font-family="Consolas" font-size="48" text-anchor="middle" fill="white">3.5</text><text x="1846.35" y="664.12" font-family="Consolas" font-size="48" text-anchor="middle" fill="white">3.5</text> <text x="466.96" y="1010" font-family="Consolas" font-size="48" ttext-anchor="middle" fill="white">-3.5</text></g><g><text x="231.54" y="862.058823529412" transform="rotate(270 221.54 847.058823529412)" font-family="Consolas" font-size="50" fill="limegreen">2018</text><text x="379.25" y="862.058823529412" transform="rotate(270 369.25 847.058823529412)" font-family="Consolas" font-size="50" fill="limegreen">2019</text><text x="526.96" y="862.058823529412" transform="rotate(270 516.96 847.058823529412)" font-family="Consolas" font-size="50" fill="limegreen">2020</text><text x="674.67" y="862.058823529412" transform="rotate(270 664.67 847.058823529412)" font-family="Consolas" font-size="50" fill="limegreen">2021</text><text x="822.38" y="862.058823529412" transform="rotate(270 812.38 847.058823529412)" font-family="Consolas" font-size="50" fill="limegreen">2022</text><text x="970.09" y="862.058823529412" transform="rotate(270 960.09 847.058823529412)" font-family="Consolas" font-size="50" fill="limegreen">2023</text><text x="1117.8" y="862.058823529412" transform="rotate(270 1107.8 847.058823529412)" font-family="Consolas" font-size="50" fill="limegreen">2024</text><text x="1265.51" y="862.058823529412" transform="rotate(270 1255.51 847.058823529412)" font-family="Consolas" font-size="50" fill="limegreen">2025</text><text x="1413.22" y="862.058823529412" transform="rotate(270 1403.22 847.058823529412)" font-family="Consolas" font-size="50" fill="limegreen">2026</text><text x="1560.93" y="862.058823529412" transform="rotate(270 1550.93 847.058823529412)" font-family="Consolas" font-size="50" fill="limegreen">2027</text><text x="1708.64" y="862.058823529412" transform="rotate(270 1698.64 847.058823529412)" font-family="Consolas" font-size="50" fill="limegreen">2028</text><text x="1856.35" y="862.058823529412" transform="rotate(270 1846.35 847.058823529412)" font-family="Consolas" font-size="50" fill="limegreen">2029</text></g></g></svg>
