<svg xmlns="http://www.w3.org/2000/svg" width="1920" height="1080"> <rect width="100%" height="100%" fill="#000"/><g xmlns="http://www.w3.org/2000/svg" transform="translate(0,0) scale(1.0)"> <text  x="1080" y="60" font-family="Consolas" font-size="52" text-anchor="middle" fill="white">REAL  GDP ANNUAL PERCENT CHANGE (2018-2029) [IMF DATA]</text><text  x="1780" y="1050" font-family="Consolas" font-size="32" text-anchor="middle" fill="white">ZOOMIT WORLD</text><image x="180" y="-50" width="280" height="280" href="https://cdn.jsdelivr.net/gh/hampusborgos/country-flags@main/svg/ge.svg"></image><text x="70" y="180" font-family="Consolas" font-size="50" text-anchor="middle" fill="white">11%</text><text x="70" y="447.052023121387" font-family="Consolas" font-size="50" text-anchor="middle" fill="white">5.5%</text><text x="70" y="714.104046242775" font-family="Consolas" font-size="50" text-anchor="middle" fill="white">0%</text><text x="70" y="867.052023121387" font-family="Consolas" font-size="50" text-anchor="middle" fill="white">-3%</text><text x="70" y="1020" font-family="Consolas" font-size="50" text-anchor="middle" fill="white">-6%</text><line  x1="141.54" y1="180" x2="141.54" y2="1020" stroke="white" stroke-width="2"/><line x1="141.54"  y1="714.104046242775" x2="1920" y2="714.104046242775" stroke="white" stroke-width="5"/><g><rect x="171.54" y="417.919075144509" width="100" height="296.18" fill="none" stroke="limegreen" stroke-width="2"/><rect x="319.25" y="451.907514450867" width="100" height="262.20" fill="none" stroke="limegreen" stroke-width="2"/><rect x="614.67" y="199.421965317919" width="100" height="514.68" fill="none" stroke="limegreen" stroke-width="2"/><rect x="762.38" y="180" width="100" height="534.10" fill="none" stroke="limegreen" stroke-width="2"/><rect x="910.09" y="349.942196531792" width="100" height="364.16" fill="none" stroke="limegreen" stroke-width="2"/><rect x="1057.8" y="345.086705202312" width="100" height="369.02" fill="none" stroke="limegreen" stroke-width="2"/><rect x="1205.51" y="422.774566473988" width="100" height="291.33" fill="none" stroke="limegreen" stroke-width="2"/><rect x="1353.22" y="471.329479768786" width="100" height="242.77" fill="none" stroke="limegreen" stroke-width="2"/><rect x="1500.93" y="471.329479768786" width="100" height="242.77" fill="none" stroke="limegreen" stroke-width="2"/><rect x="1648.64" y="471.329479768786" width="100" height="242.77" fill="none" stroke="limegreen" stroke-width="2"/><rect x="1796.35" y="471.329479768786" width="100" height="242.77" fill="none" stroke="limegreen" stroke-width="2"/> <rect x="466.96" y="714.104046242775" width="100" height="305.90" fill="none" stroke="limegreen" stroke-width="2"/> </g><g><text x="221.54" y="407.92" font-family="Consolas" font-size="48" text-anchor="middle" fill="white">6.1</text><text x="369.25" y="441.91" font-family="Consolas" font-size="48" text-anchor="middle" fill="white">5.4</text><text x="664.67" y="189.42" font-family="Consolas" font-size="48" text-anchor="middle" fill="white">10.6</text><text x="812.38" y="170" font-family="Consolas" font-size="48" text-anchor="middle" fill="white">11</text><text x="960.09" y="339.94" font-family="Consolas" font-size="48" text-anchor="middle" fill="white">7.5</text><text x="1107.8" y="335.09" font-family="Consolas" font-size="48" text-anchor="middle" fill="white">7.6</text><text x="1255.51" y="412.77" font-family="Consolas" font-size="48" text-anchor="middle" fill="white">6</text><text x="1403.22" y="461.33" font-family="Consolas" font-size="48" text-anchor="middle" fill="white">5</text><text x="1550.93" y="461.33" font-family="Consolas" font-size="48" text-anchor="middle" fill="white">5</text><text x="1698.64" y="461.33" font-family="Consolas" font-size="48" text-anchor="middle" fill="white">5</text><text x="1846.35" y="461.33" font-family="Consolas" font-size="48" text-anchor="middle" fill="white">5</text> <text x="466.96" y="1010" font-family="Consolas" font-size="48" ttext-anchor="middle" fill="white">-6.3</text></g><g><text x="231.54" y="729.104046242775" transform="rotate(270 221.54 714.104046242775)" font-family="Consolas" font-size="50" fill="limegreen">2018</text><text x="379.25" y="729.104046242775" transform="rotate(270 369.25 714.104046242775)" font-family="Consolas" font-size="50" fill="limegreen">2019</text><text x="526.96" y="729.104046242775" transform="rotate(270 516.96 714.104046242775)" font-family="Consolas" font-size="50" fill="limegreen">2020</text><text x="674.67" y="729.104046242775" transform="rotate(270 664.67 714.104046242775)" font-family="Consolas" font-size="50" fill="limegreen">2021</text><text x="822.38" y="729.104046242775" transform="rotate(270 812.38 714.104046242775)" font-family="Consolas" font-size="50" fill="limegreen">2022</text><text x="970.09" y="729.104046242775" transform="rotate(270 960.09 714.104046242775)" font-family="Consolas" font-size="50" fill="limegreen">2023</text><text x="1117.8" y="729.104046242775" transform="rotate(270 1107.8 714.104046242775)" font-family="Consolas" font-size="50" fill="limegreen">2024</text><text x="1265.51" y="729.104046242775" transform="rotate(270 1255.51 714.104046242775)" font-family="Consolas" font-size="50" fill="limegreen">2025</text><text x="1413.22" y="729.104046242775" transform="rotate(270 1403.22 714.104046242775)" font-family="Consolas" font-size="50" fill="limegreen">2026</text><text x="1560.93" y="729.104046242775" transform="rotate(270 1550.93 714.104046242775)" font-family="Consolas" font-size="50" fill="limegreen">2027</text><text x="1708.64" y="729.104046242775" transform="rotate(270 1698.64 714.104046242775)" font-family="Consolas" font-size="50" fill="limegreen">2028</text><text x="1856.35" y="729.104046242775" transform="rotate(270 1846.35 714.104046242775)" font-family="Consolas" font-size="50" fill="limegreen">2029</text></g></g></svg>
