<svg xmlns="http://www.w3.org/2000/svg" width="1920" height="1080"> <rect width="100%" height="100%" fill="#000"/><g xmlns="http://www.w3.org/2000/svg" transform="translate(0,0) scale(1.0)"> <text  x="1080" y="60" font-family="Consolas" font-size="52" text-anchor="middle" fill="white">REAL  GDP ANNUAL PERCENT CHANGE (2018-2029) [IMF DATA]</text><text  x="1700" y="1050" font-family="Consolas" font-size="22" text-anchor="middle" fill="white">DESIGNED BY ZOOMIT WORLD</text><image x="180" y="-50" width="280" height="280" href="https://cdn.jsdelivr.net/gh/hampusborgos/country-flags@main/svg/bs.svg"></image><text x="70" y="180" font-family="Consolas" font-size="50" text-anchor="middle" fill="white">8%</text><text x="70" y="497.943925233645" font-family="Consolas" font-size="50" text-anchor="middle" fill="white">4%</text><text x="70" y="815.88785046729" font-family="Consolas" font-size="50" text-anchor="middle" fill="white">0%</text><text x="70" y="917.943925233645" font-family="Consolas" font-size="50" text-anchor="middle" fill="white">1.5%</text><text x="70" y="1020" font-family="Consolas" font-size="50" text-anchor="middle" fill="white">3%</text><line  x1="141.54" y1="180" x2="141.54" y2="1020" stroke="white" stroke-width="2"/><line x1="141.54"  y1="815.88785046729" x2="1920" y2="815.88785046729" stroke="white" stroke-width="5"/><g><rect x="171.54" y="227.102803738318" width="100" height="588.79" fill="none" stroke="limegreen" stroke-width="2"/><rect x="319.25" y="234.953271028037" width="100" height="580.93" fill="none" stroke="limegreen" stroke-width="2"/><rect x="466.96" y="588.22429906542" width="100" height="227.66" fill="none" stroke="limegreen" stroke-width="2"/><rect x="614.67" y="611.775700934579" width="100" height="204.11" fill="none" stroke="limegreen" stroke-width="2"/><rect x="762.38" y="180" width="100" height="635.89" fill="none" stroke="limegreen" stroke-width="2"/><rect x="910.09" y="423.364485981308" width="100" height="392.52" fill="none" stroke="limegreen" stroke-width="2"/><rect x="1057.8" y="337.009345794393" width="100" height="478.88" fill="none" stroke="limegreen" stroke-width="2"/><rect x="1205.51" y="337.009345794393" width="100" height="478.88" fill="none" stroke="limegreen" stroke-width="2"/><rect x="1353.22" y="344.859813084112" width="100" height="471.03" fill="none" stroke="limegreen" stroke-width="2"/><rect x="1500.93" y="360.560747663551" width="100" height="455.33" fill="none" stroke="limegreen" stroke-width="2"/><rect x="1648.64" y="360.560747663551" width="100" height="455.33" fill="none" stroke="limegreen" stroke-width="2"/><rect x="1796.35" y="376.261682242991" width="100" height="439.63" fill="none" stroke="limegreen" stroke-width="2"/>  </g><g><text x="221.54" y="217.1" font-family="Consolas" font-size="48" text-anchor="middle" fill="white">7.5</text><text x="369.25" y="224.95" font-family="Consolas" font-size="48" text-anchor="middle" fill="white">7.4</text><text x="516.96" y="578.22" font-family="Consolas" font-size="48" text-anchor="middle" fill="white">2.9</text><text x="664.67" y="601.78" font-family="Consolas" font-size="48" text-anchor="middle" fill="white">2.6</text><text x="812.38" y="170" font-family="Consolas" font-size="48" text-anchor="middle" fill="white">8.1</text><text x="960.09" y="413.36" font-family="Consolas" font-size="48" text-anchor="middle" fill="white">5</text><text x="1107.8" y="327.01" font-family="Consolas" font-size="48" text-anchor="middle" fill="white">6.1</text><text x="1255.51" y="327.01" font-family="Consolas" font-size="48" text-anchor="middle" fill="white">6.1</text><text x="1403.22" y="334.86" font-family="Consolas" font-size="48" text-anchor="middle" fill="white">6</text><text x="1550.93" y="350.56" font-family="Consolas" font-size="48" text-anchor="middle" fill="white">5.8</text><text x="1698.64" y="350.56" font-family="Consolas" font-size="48" text-anchor="middle" fill="white">5.8</text><text x="1846.35" y="366.26" font-family="Consolas" font-size="48" text-anchor="middle" fill="white">5.6</text> </g><g><text x="231.54" y="830.88785046729" transform="rotate(270 221.54 815.88785046729)" font-family="Consolas" font-size="50" fill="limegreen">2018</text><text x="379.25" y="830.88785046729" transform="rotate(270 369.25 815.88785046729)" font-family="Consolas" font-size="50" fill="limegreen">2019</text><text x="526.96" y="830.88785046729" transform="rotate(270 516.96 815.88785046729)" font-family="Consolas" font-size="50" fill="limegreen">2020</text><text x="674.67" y="830.88785046729" transform="rotate(270 664.67 815.88785046729)" font-family="Consolas" font-size="50" fill="limegreen">2021</text><text x="822.38" y="830.88785046729" transform="rotate(270 812.38 815.88785046729)" font-family="Consolas" font-size="50" fill="limegreen">2022</text><text x="970.09" y="830.88785046729" transform="rotate(270 960.09 815.88785046729)" font-family="Consolas" font-size="50" fill="limegreen">2023</text><text x="1117.8" y="830.88785046729" transform="rotate(270 1107.8 815.88785046729)" font-family="Consolas" font-size="50" fill="limegreen">2024</text><text x="1265.51" y="830.88785046729" transform="rotate(270 1255.51 815.88785046729)" font-family="Consolas" font-size="50" fill="limegreen">2025</text><text x="1413.22" y="830.88785046729" transform="rotate(270 1403.22 815.88785046729)" font-family="Consolas" font-size="50" fill="limegreen">2026</text><text x="1560.93" y="830.88785046729" transform="rotate(270 1550.93 815.88785046729)" font-family="Consolas" font-size="50" fill="limegreen">2027</text><text x="1708.64" y="830.88785046729" transform="rotate(270 1698.64 815.88785046729)" font-family="Consolas" font-size="50" fill="limegreen">2028</text><text x="1856.35" y="830.88785046729" transform="rotate(270 1846.35 815.88785046729)" font-family="Consolas" font-size="50" fill="limegreen">2029</text></g></g></svg>
