<svg xmlns="http://www.w3.org/2000/svg" width="1920" height="1080"> <rect width="100%" height="100%" fill="#000"/><g xmlns="http://www.w3.org/2000/svg" transform="translate(0,0) scale(1.0)"> <text  x="1080" y="60" font-family="Consolas" font-size="52" text-anchor="middle" fill="white">REAL  GDP ANNUAL PERCENT CHANGE (2018-2029) [IMF DATA]</text><text  x="1780" y="1050" font-family="Consolas" font-size="32" text-anchor="middle" fill="white">ZOOMIT WORLD</text><image x="180" y="-50" width="280" height="280" href="https://cdn.jsdelivr.net/gh/hampusborgos/country-flags@main/svg/in.svg"></image><text x="70" y="180" font-family="Consolas" font-size="50" text-anchor="middle" fill="white">10%</text><text x="70" y="442.838709677419" font-family="Consolas" font-size="50" text-anchor="middle" fill="white">5%</text><text x="70" y="705.677419354839" font-family="Consolas" font-size="50" text-anchor="middle" fill="white">0%</text><text x="70" y="862.838709677419" font-family="Consolas" font-size="50" text-anchor="middle" fill="white">-3%</text><text x="70" y="1020" font-family="Consolas" font-size="50" text-anchor="middle" fill="white">-6%</text><line  x1="141.54" y1="180" x2="141.54" y2="1020" stroke="white" stroke-width="2"/><line x1="141.54"  y1="705.677419354839" x2="1920" y2="705.677419354839" stroke="white" stroke-width="5"/><g><rect x="171.54" y="353.41935483871" width="100" height="352.26" fill="none" stroke="limegreen" stroke-width="2"/><rect x="319.25" y="494.322580645161" width="100" height="211.35" fill="none" stroke="limegreen" stroke-width="2"/><rect x="614.67" y="180" width="100" height="525.68" fill="none" stroke="limegreen" stroke-width="2"/><rect x="762.38" y="326.322580645161" width="100" height="379.35" fill="none" stroke="limegreen" stroke-width="2"/><rect x="910.09" y="261.290322580645" width="100" height="444.39" fill="none" stroke="limegreen" stroke-width="2"/><rect x="1057.8" y="326.322580645161" width="100" height="379.35" fill="none" stroke="limegreen" stroke-width="2"/><rect x="1205.51" y="353.41935483871" width="100" height="352.26" fill="none" stroke="limegreen" stroke-width="2"/><rect x="1353.22" y="353.41935483871" width="100" height="352.26" fill="none" stroke="limegreen" stroke-width="2"/><rect x="1500.93" y="353.41935483871" width="100" height="352.26" fill="none" stroke="limegreen" stroke-width="2"/><rect x="1648.64" y="353.41935483871" width="100" height="352.26" fill="none" stroke="limegreen" stroke-width="2"/><rect x="1796.35" y="353.41935483871" width="100" height="352.26" fill="none" stroke="limegreen" stroke-width="2"/> <rect x="466.96" y="705.677419354839" width="100" height="314.32" fill="none" stroke="limegreen" stroke-width="2"/> </g><g><text x="221.54" y="343.42" font-family="Consolas" font-size="48" text-anchor="middle" fill="white">6.5</text><text x="369.25" y="484.32" font-family="Consolas" font-size="48" text-anchor="middle" fill="white">3.9</text><text x="664.67" y="170" font-family="Consolas" font-size="48" text-anchor="middle" fill="white">9.7</text><text x="812.38" y="316.32" font-family="Consolas" font-size="48" text-anchor="middle" fill="white">7</text><text x="960.09" y="251.29" font-family="Consolas" font-size="48" text-anchor="middle" fill="white">8.2</text><text x="1107.8" y="316.32" font-family="Consolas" font-size="48" text-anchor="middle" fill="white">7</text><text x="1255.51" y="343.42" font-family="Consolas" font-size="48" text-anchor="middle" fill="white">6.5</text><text x="1403.22" y="343.42" font-family="Consolas" font-size="48" text-anchor="middle" fill="white">6.5</text><text x="1550.93" y="343.42" font-family="Consolas" font-size="48" text-anchor="middle" fill="white">6.5</text><text x="1698.64" y="343.42" font-family="Consolas" font-size="48" text-anchor="middle" fill="white">6.5</text><text x="1846.35" y="343.42" font-family="Consolas" font-size="48" text-anchor="middle" fill="white">6.5</text> <text x="466.96" y="1010" font-family="Consolas" font-size="48" ttext-anchor="middle" fill="white">-5.8</text></g><g><text x="231.54" y="720.677419354839" transform="rotate(270 221.54 705.677419354839)" font-family="Consolas" font-size="50" fill="limegreen">2018</text><text x="379.25" y="720.677419354839" transform="rotate(270 369.25 705.677419354839)" font-family="Consolas" font-size="50" fill="limegreen">2019</text><text x="526.96" y="720.677419354839" transform="rotate(270 516.96 705.677419354839)" font-family="Consolas" font-size="50" fill="limegreen">2020</text><text x="674.67" y="720.677419354839" transform="rotate(270 664.67 705.677419354839)" font-family="Consolas" font-size="50" fill="limegreen">2021</text><text x="822.38" y="720.677419354839" transform="rotate(270 812.38 705.677419354839)" font-family="Consolas" font-size="50" fill="limegreen">2022</text><text x="970.09" y="720.677419354839" transform="rotate(270 960.09 705.677419354839)" font-family="Consolas" font-size="50" fill="limegreen">2023</text><text x="1117.8" y="720.677419354839" transform="rotate(270 1107.8 705.677419354839)" font-family="Consolas" font-size="50" fill="limegreen">2024</text><text x="1265.51" y="720.677419354839" transform="rotate(270 1255.51 705.677419354839)" font-family="Consolas" font-size="50" fill="limegreen">2025</text><text x="1413.22" y="720.677419354839" transform="rotate(270 1403.22 705.677419354839)" font-family="Consolas" font-size="50" fill="limegreen">2026</text><text x="1560.93" y="720.677419354839" transform="rotate(270 1550.93 705.677419354839)" font-family="Consolas" font-size="50" fill="limegreen">2027</text><text x="1708.64" y="720.677419354839" transform="rotate(270 1698.64 705.677419354839)" font-family="Consolas" font-size="50" fill="limegreen">2028</text><text x="1856.35" y="720.677419354839" transform="rotate(270 1846.35 705.677419354839)" font-family="Consolas" font-size="50" fill="limegreen">2029</text></g></g></svg>
