<svg xmlns="http://www.w3.org/2000/svg" width="1920" height="1080"> <rect width="100%" height="100%" fill="#000"/><g xmlns="http://www.w3.org/2000/svg" transform="translate(0,0) scale(1.0)"> <text  x="1080" y="60" font-family="Consolas" font-size="52" text-anchor="middle" fill="white">REAL  GDP ANNUAL PERCENT CHANGE (2018-2029) [IMF DATA]</text><text  x="1700" y="1050" font-family="Consolas" font-size="22" text-anchor="middle" fill="white">DESIGNED BY ZOOMIT WORLD</text><image x="180" y="-50" width="280" height="280" href="https://cdn.jsdelivr.net/gh/hampusborgos/country-flags@main/svg/bs.svg"></image><text x="70" y="180" font-family="Consolas" font-size="50" text-anchor="middle" fill="white">4%</text><text x="70" y="351.26213592233" font-family="Consolas" font-size="50" text-anchor="middle" fill="white">2%</text><text x="70" y="522.52427184466" font-family="Consolas" font-size="50" text-anchor="middle" fill="white">0%</text><text x="70" y="771.26213592233" font-family="Consolas" font-size="50" text-anchor="middle" fill="white">-3%</text><text x="70" y="1020" font-family="Consolas" font-size="50" text-anchor="middle" fill="white">-6%</text><line  x1="141.54" y1="180" x2="141.54" y2="1020" stroke="white" stroke-width="2"/><line x1="141.54"  y1="522.52427184466" x2="1920" y2="522.52427184466" stroke="white" stroke-width="5"/><g><rect x="171.54" y="180" width="100" height="342.52" fill="none" stroke="limegreen" stroke-width="2"/><rect x="319.25" y="351.26213592233" width="100" height="171.26" fill="none" stroke="limegreen" stroke-width="2"/><rect x="614.67" y="392.038834951456" width="100" height="130.49" fill="none" stroke="limegreen" stroke-width="2"/><rect x="762.38" y="318.640776699029" width="100" height="203.88" fill="none" stroke="limegreen" stroke-width="2"/><rect x="910.09" y="367.572815533981" width="100" height="154.95" fill="none" stroke="limegreen" stroke-width="2"/><rect x="1057.8" y="294.174757281553" width="100" height="228.35" fill="none" stroke="limegreen" stroke-width="2"/><rect x="1205.51" y="277.864077669903" width="100" height="244.66" fill="none" stroke="limegreen" stroke-width="2"/><rect x="1353.22" y="310.485436893204" width="100" height="212.04" fill="none" stroke="limegreen" stroke-width="2"/><rect x="1500.93" y="302.330097087379" width="100" height="220.19" fill="none" stroke="limegreen" stroke-width="2"/><rect x="1648.64" y="302.330097087379" width="100" height="220.19" fill="none" stroke="limegreen" stroke-width="2"/><rect x="1796.35" y="302.330097087379" width="100" height="220.19" fill="none" stroke="limegreen" stroke-width="2"/> <rect x="466.96" y="522.52427184466" width="100" height="497.48" fill="none" stroke="limegreen" stroke-width="2"/> </g><g><text x="221.54" y="170" font-family="Consolas" font-size="48" text-anchor="middle" fill="white">4.2</text><text x="369.25" y="341.26" font-family="Consolas" font-size="48" text-anchor="middle" fill="white">2.1</text><text x="664.67" y="382.04" font-family="Consolas" font-size="48" text-anchor="middle" fill="white">1.6</text><text x="812.38" y="308.64" font-family="Consolas" font-size="48" text-anchor="middle" fill="white">2.5</text><text x="960.09" y="357.57" font-family="Consolas" font-size="48" text-anchor="middle" fill="white">1.9</text><text x="1107.8" y="284.17" font-family="Consolas" font-size="48" text-anchor="middle" fill="white">2.8</text><text x="1255.51" y="267.86" font-family="Consolas" font-size="48" text-anchor="middle" fill="white">3</text><text x="1403.22" y="300.49" font-family="Consolas" font-size="48" text-anchor="middle" fill="white">2.6</text><text x="1550.93" y="292.33" font-family="Consolas" font-size="48" text-anchor="middle" fill="white">2.7</text><text x="1698.64" y="292.33" font-family="Consolas" font-size="48" text-anchor="middle" fill="white">2.7</text><text x="1846.35" y="292.33" font-family="Consolas" font-size="48" text-anchor="middle" fill="white">2.7</text> <text x="466.96" y="1010" font-family="Consolas" font-size="48" ttext-anchor="middle" fill="white">-6.1</text></g><g><text x="231.54" y="537.52427184466" transform="rotate(270 221.54 522.52427184466)" font-family="Consolas" font-size="50" fill="limegreen">2018</text><text x="379.25" y="537.52427184466" transform="rotate(270 369.25 522.52427184466)" font-family="Consolas" font-size="50" fill="limegreen">2019</text><text x="526.96" y="537.52427184466" transform="rotate(270 516.96 522.52427184466)" font-family="Consolas" font-size="50" fill="limegreen">2020</text><text x="674.67" y="537.52427184466" transform="rotate(270 664.67 522.52427184466)" font-family="Consolas" font-size="50" fill="limegreen">2021</text><text x="822.38" y="537.52427184466" transform="rotate(270 812.38 522.52427184466)" font-family="Consolas" font-size="50" fill="limegreen">2022</text><text x="970.09" y="537.52427184466" transform="rotate(270 960.09 522.52427184466)" font-family="Consolas" font-size="50" fill="limegreen">2023</text><text x="1117.8" y="537.52427184466" transform="rotate(270 1107.8 522.52427184466)" font-family="Consolas" font-size="50" fill="limegreen">2024</text><text x="1265.51" y="537.52427184466" transform="rotate(270 1255.51 522.52427184466)" font-family="Consolas" font-size="50" fill="limegreen">2025</text><text x="1413.22" y="537.52427184466" transform="rotate(270 1403.22 522.52427184466)" font-family="Consolas" font-size="50" fill="limegreen">2026</text><text x="1560.93" y="537.52427184466" transform="rotate(270 1550.93 522.52427184466)" font-family="Consolas" font-size="50" fill="limegreen">2027</text><text x="1708.64" y="537.52427184466" transform="rotate(270 1698.64 522.52427184466)" font-family="Consolas" font-size="50" fill="limegreen">2028</text><text x="1856.35" y="537.52427184466" transform="rotate(270 1846.35 522.52427184466)" font-family="Consolas" font-size="50" fill="limegreen">2029</text></g></g></svg>
