<svg xmlns="http://www.w3.org/2000/svg" width="1920" height="1080"> <rect width="100%" height="100%" fill="#000"/><g xmlns="http://www.w3.org/2000/svg" transform="translate(0,0) scale(1.0)"> <text  x="1080" y="60" font-family="Consolas" font-size="52" text-anchor="middle" fill="white">REAL  GDP ANNUAL PERCENT CHANGE (2018-2029) [IMF DATA]</text><text  x="1700" y="1050" font-family="Consolas" font-size="22" text-anchor="middle" fill="white">DESIGNED BY ZOOMIT WORLD</text><image x="180" y="-50" width="280" height="280" href="https://cdn.jsdelivr.net/gh/hampusborgos/country-flags@main/svg/bs.svg"></image><text x="70" y="180" font-family="Consolas" font-size="50" text-anchor="middle" fill="white">6%</text><text x="70" y="546.760563380282" font-family="Consolas" font-size="50" text-anchor="middle" fill="white">3%</text><text x="70" y="913.521126760563" font-family="Consolas" font-size="50" text-anchor="middle" fill="white">0%</text><text x="70" y="966.760563380282" font-family="Consolas" font-size="50" text-anchor="middle" fill="white">-0.5%</text><text x="70" y="1020" font-family="Consolas" font-size="50" text-anchor="middle" fill="white">-1%</text><line  x1="141.54" y1="180" x2="141.54" y2="1020" stroke="white" stroke-width="2"/><line x1="141.54"  y1="913.521126760563" x2="1920" y2="913.521126760563" stroke="white" stroke-width="5"/><g><rect x="171.54" y="191.830985915493" width="100" height="721.69" fill="none" stroke="limegreen" stroke-width="2"/><rect x="319.25" y="546.760563380282" width="100" height="366.76" fill="none" stroke="limegreen" stroke-width="2"/><rect x="614.67" y="227.323943661972" width="100" height="686.20" fill="none" stroke="limegreen" stroke-width="2"/><rect x="762.38" y="180" width="100" height="733.52" fill="none" stroke="limegreen" stroke-width="2"/><rect x="1057.8" y="629.577464788732" width="100" height="283.94" fill="none" stroke="limegreen" stroke-width="2"/><rect x="1205.51" y="534.929577464789" width="100" height="378.59" fill="none" stroke="limegreen" stroke-width="2"/><rect x="1353.22" y="440.281690140845" width="100" height="473.24" fill="none" stroke="limegreen" stroke-width="2"/><rect x="1500.93" y="428.450704225352" width="100" height="485.07" fill="none" stroke="limegreen" stroke-width="2"/><rect x="1648.64" y="381.12676056338" width="100" height="532.39" fill="none" stroke="limegreen" stroke-width="2"/><rect x="1796.35" y="381.12676056338" width="100" height="532.39" fill="none" stroke="limegreen" stroke-width="2"/> <rect x="466.96" y="913.521126760563" width="100" height="106.48" fill="none" stroke="limegreen" stroke-width="2"/><rect x="910.09" y="913.521126760563" width="100" height="23.66" fill="none" stroke="limegreen" stroke-width="2"/> </g><g><text x="221.54" y="181.83" font-family="Consolas" font-size="48" text-anchor="middle" fill="white">6.1</text><text x="369.25" y="536.76" font-family="Consolas" font-size="48" text-anchor="middle" fill="white">3.1</text><text x="664.67" y="217.32" font-family="Consolas" font-size="48" text-anchor="middle" fill="white">5.8</text><text x="812.38" y="170" font-family="Consolas" font-size="48" text-anchor="middle" fill="white">6.2</text><text x="1107.8" y="619.58" font-family="Consolas" font-size="48" text-anchor="middle" fill="white">2.4</text><text x="1255.51" y="524.93" font-family="Consolas" font-size="48" text-anchor="middle" fill="white">3.2</text><text x="1403.22" y="430.28" font-family="Consolas" font-size="48" text-anchor="middle" fill="white">4</text><text x="1550.93" y="418.45" font-family="Consolas" font-size="48" text-anchor="middle" fill="white">4.1</text><text x="1698.64" y="371.13" font-family="Consolas" font-size="48" text-anchor="middle" fill="white">4.5</text><text x="1846.35" y="371.13" font-family="Consolas" font-size="48" text-anchor="middle" fill="white">4.5</text> <text x="466.96" y="1010" font-family="Consolas" font-size="48" ttext-anchor="middle" fill="white">-0.9</text><text x="910.09" y="927.183098591549" font-family="Consolas" font-size="48" ttext-anchor="middle" fill="white">-0.2</text></g><g><text x="231.54" y="928.521126760563" transform="rotate(270 221.54 913.521126760563)" font-family="Consolas" font-size="50" fill="limegreen">2018</text><text x="379.25" y="928.521126760563" transform="rotate(270 369.25 913.521126760563)" font-family="Consolas" font-size="50" fill="limegreen">2019</text><text x="526.96" y="928.521126760563" transform="rotate(270 516.96 913.521126760563)" font-family="Consolas" font-size="50" fill="limegreen">2020</text><text x="674.67" y="928.521126760563" transform="rotate(270 664.67 913.521126760563)" font-family="Consolas" font-size="50" fill="limegreen">2021</text><text x="822.38" y="928.521126760563" transform="rotate(270 812.38 913.521126760563)" font-family="Consolas" font-size="50" fill="limegreen">2022</text><text x="970.09" y="928.521126760563" transform="rotate(270 960.09 913.521126760563)" font-family="Consolas" font-size="50" fill="limegreen">2023</text><text x="1117.8" y="928.521126760563" transform="rotate(270 1107.8 913.521126760563)" font-family="Consolas" font-size="50" fill="limegreen">2024</text><text x="1265.51" y="928.521126760563" transform="rotate(270 1255.51 913.521126760563)" font-family="Consolas" font-size="50" fill="limegreen">2025</text><text x="1413.22" y="928.521126760563" transform="rotate(270 1403.22 913.521126760563)" font-family="Consolas" font-size="50" fill="limegreen">2026</text><text x="1560.93" y="928.521126760563" transform="rotate(270 1550.93 913.521126760563)" font-family="Consolas" font-size="50" fill="limegreen">2027</text><text x="1708.64" y="928.521126760563" transform="rotate(270 1698.64 913.521126760563)" font-family="Consolas" font-size="50" fill="limegreen">2028</text><text x="1856.35" y="928.521126760563" transform="rotate(270 1846.35 913.521126760563)" font-family="Consolas" font-size="50" fill="limegreen">2029</text></g></g></svg>
