<svg xmlns="http://www.w3.org/2000/svg" width="1920" height="1080"> <rect width="100%" height="100%" fill="#000"/><g xmlns="http://www.w3.org/2000/svg" transform="translate(0,0) scale(1.0)"> <text  x="1080" y="60" font-family="Consolas" font-size="52" text-anchor="middle" fill="white">REAL  GDP ANNUAL PERCENT CHANGE (2018-2029) [IMF DATA]</text><text  x="1780" y="1050" font-family="Consolas" font-size="32" text-anchor="middle" fill="white">ZOOMIT WORLD</text><image x="180" y="-50" width="280" height="280" href="https://cdn.jsdelivr.net/gh/hampusborgos/country-flags@main/svg/mm.svg"></image><text x="70" y="180" font-family="Consolas" font-size="50" text-anchor="middle" fill="white">7%</text><text x="70" y="345.086705202312" font-family="Consolas" font-size="50" text-anchor="middle" fill="white">3.5%</text><text x="70" y="510.173410404624" font-family="Consolas" font-size="50" text-anchor="middle" fill="white">0%</text><text x="70" y="765.086705202312" font-family="Consolas" font-size="50" text-anchor="middle" fill="white">-5.5%</text><text x="70" y="1020" font-family="Consolas" font-size="50" text-anchor="middle" fill="white">-11%</text><line  x1="141.54" y1="180" x2="141.54" y2="1020" stroke="white" stroke-width="2"/><line x1="141.54"  y1="510.173410404624" x2="1920" y2="510.173410404624" stroke="white" stroke-width="5"/><g><rect x="171.54" y="199.421965317919" width="100" height="310.75" fill="none" stroke="limegreen" stroke-width="2"/><rect x="319.25" y="180" width="100" height="330.17" fill="none" stroke="limegreen" stroke-width="2"/><rect x="910.09" y="388.78612716763" width="100" height="121.39" fill="none" stroke="limegreen" stroke-width="2"/><rect x="1057.8" y="461.618497109827" width="100" height="48.55" fill="none" stroke="limegreen" stroke-width="2"/><rect x="1205.51" y="456.763005780347" width="100" height="53.41" fill="none" stroke="limegreen" stroke-width="2"/><rect x="1353.22" y="447.052023121387" width="100" height="63.12" fill="none" stroke="limegreen" stroke-width="2"/><rect x="1500.93" y="437.341040462428" width="100" height="72.83" fill="none" stroke="limegreen" stroke-width="2"/><rect x="1648.64" y="432.485549132948" width="100" height="77.69" fill="none" stroke="limegreen" stroke-width="2"/><rect x="1796.35" y="422.774566473988" width="100" height="87.40" fill="none" stroke="limegreen" stroke-width="2"/> <rect x="466.96" y="510.173410404624" width="100" height="58.27" fill="none" stroke="limegreen" stroke-width="2"/><rect x="614.67" y="510.173410404624" width="100" height="509.83" fill="none" stroke="limegreen" stroke-width="2"/><rect x="762.38" y="510.173410404624" width="100" height="194.22" fill="none" stroke="limegreen" stroke-width="2"/> </g><g><text x="221.54" y="189.42" font-family="Consolas" font-size="48" text-anchor="middle" fill="white">6.4</text><text x="369.25" y="170" font-family="Consolas" font-size="48" text-anchor="middle" fill="white">6.8</text><text x="960.09" y="378.79" font-family="Consolas" font-size="48" text-anchor="middle" fill="white">2.5</text><text x="1107.8" y="451.62" font-family="Consolas" font-size="48" text-anchor="middle" fill="white">1</text><text x="1255.51" y="446.76" font-family="Consolas" font-size="48" text-anchor="middle" fill="white">1.1</text><text x="1403.22" y="437.05" font-family="Consolas" font-size="48" text-anchor="middle" fill="white">1.3</text><text x="1550.93" y="427.34" font-family="Consolas" font-size="48" text-anchor="middle" fill="white">1.5</text><text x="1698.64" y="422.49" font-family="Consolas" font-size="48" text-anchor="middle" fill="white">1.6</text><text x="1846.35" y="412.77" font-family="Consolas" font-size="48" text-anchor="middle" fill="white">1.8</text> <text x="466.96" y="558.439306358381" font-family="Consolas" font-size="48" ttext-anchor="middle" fill="white">-1.2</text><text x="614.67" y="1010" font-family="Consolas" font-size="48" ttext-anchor="middle" fill="white">-10.5</text><text x="762.38" y="694.393063583815" font-family="Consolas" font-size="48" ttext-anchor="middle" fill="white">-4</text></g><g><text x="231.54" y="525.173410404624" transform="rotate(270 221.54 510.173410404624)" font-family="Consolas" font-size="50" fill="limegreen">2018</text><text x="379.25" y="525.173410404624" transform="rotate(270 369.25 510.173410404624)" font-family="Consolas" font-size="50" fill="limegreen">2019</text><text x="526.96" y="525.173410404624" transform="rotate(270 516.96 510.173410404624)" font-family="Consolas" font-size="50" fill="limegreen">2020</text><text x="674.67" y="525.173410404624" transform="rotate(270 664.67 510.173410404624)" font-family="Consolas" font-size="50" fill="limegreen">2021</text><text x="822.38" y="525.173410404624" transform="rotate(270 812.38 510.173410404624)" font-family="Consolas" font-size="50" fill="limegreen">2022</text><text x="970.09" y="525.173410404624" transform="rotate(270 960.09 510.173410404624)" font-family="Consolas" font-size="50" fill="limegreen">2023</text><text x="1117.8" y="525.173410404624" transform="rotate(270 1107.8 510.173410404624)" font-family="Consolas" font-size="50" fill="limegreen">2024</text><text x="1265.51" y="525.173410404624" transform="rotate(270 1255.51 510.173410404624)" font-family="Consolas" font-size="50" fill="limegreen">2025</text><text x="1413.22" y="525.173410404624" transform="rotate(270 1403.22 510.173410404624)" font-family="Consolas" font-size="50" fill="limegreen">2026</text><text x="1560.93" y="525.173410404624" transform="rotate(270 1550.93 510.173410404624)" font-family="Consolas" font-size="50" fill="limegreen">2027</text><text x="1708.64" y="525.173410404624" transform="rotate(270 1698.64 510.173410404624)" font-family="Consolas" font-size="50" fill="limegreen">2028</text><text x="1856.35" y="525.173410404624" transform="rotate(270 1846.35 510.173410404624)" font-family="Consolas" font-size="50" fill="limegreen">2029</text></g></g></svg>
