<svg xmlns="http://www.w3.org/2000/svg" width="1920" height="1080"> <rect width="100%" height="100%" fill="#000"/><g xmlns="http://www.w3.org/2000/svg" transform="translate(0,0) scale(1.0)"> <text  x="1080" y="60" font-family="Consolas" font-size="52" text-anchor="middle" fill="white">REAL  GDP ANNUAL PERCENT CHANGE (2018-2029) [IMF DATA]</text><text  x="1700" y="1050" font-family="Consolas" font-size="22" text-anchor="middle" fill="white">DESIGNED BY ZOOMIT WORLD</text><image x="180" y="-50" width="280" height="280" xlink:href="https://cdn.jsdelivr.net/gh/hampusborgos/country-flags@main/svg/bs.svg"></image><text x="70" y="180" font-family="Consolas" font-size="50" text-anchor="middle" fill="white">5%</text><text x="70" y="356.842105263158" font-family="Consolas" font-size="50" text-anchor="middle" fill="white">2.5%</text><text x="70" y="533.684210526316" font-family="Consolas" font-size="50" text-anchor="middle" fill="white">0%</text><text x="70" y="776.842105263158" font-family="Consolas" font-size="50" text-anchor="middle" fill="white">-3.5%</text><text x="70" y="1020" font-family="Consolas" font-size="50" text-anchor="middle" fill="white">-7%</text><line  x1="141.54" y1="180" x2="141.54" y2="1020" stroke="white" stroke-width="2"/><line x1="141.54"  y1="533.684210526316" x2="1920" y2="533.684210526316" stroke="white" stroke-width="5"/><g><rect x="171.54" y="356.842105263158" width="100" height="176.84" fill="none" stroke="limegreen" stroke-width="2"/><rect x="319.25" y="423.157894736842" width="100" height="110.53" fill="none" stroke="limegreen" stroke-width="2"/><rect x="614.67" y="224.210526315789" width="100" height="309.47" fill="none" stroke="limegreen" stroke-width="2"/><rect x="762.38" y="180" width="100" height="353.68" fill="none" stroke="limegreen" stroke-width="2"/><rect x="1205.51" y="452.631578947368" width="100" height="81.05" fill="none" stroke="limegreen" stroke-width="2"/><rect x="1353.22" y="408.421052631579" width="100" height="125.26" fill="none" stroke="limegreen" stroke-width="2"/><rect x="1500.93" y="415.789473684211" width="100" height="117.89" fill="none" stroke="limegreen" stroke-width="2"/><rect x="1648.64" y="452.631578947368" width="100" height="81.05" fill="none" stroke="limegreen" stroke-width="2"/><rect x="1796.35" y="467.368421052632" width="100" height="66.32" fill="none" stroke="limegreen" stroke-width="2"/> <rect x="466.96" y="533.684210526316" width="100" height="486.32" fill="none" stroke="limegreen" stroke-width="2"/><rect x="910.09" y="533.684210526316" width="100" height="58.95" fill="none" stroke="limegreen" stroke-width="2"/><rect x="1057.8" y="533.684210526316" width="100" height="44.21" fill="none" stroke="limegreen" stroke-width="2"/> </g><g><text x="221.54" y="346.84" font-family="Consolas" font-size="48" text-anchor="middle" fill="white">2.4</text><text x="369.25" y="413.16" font-family="Consolas" font-size="48" text-anchor="middle" fill="white">1.5</text><text x="664.67" y="214.21" font-family="Consolas" font-size="48" text-anchor="middle" fill="white">4.2</text><text x="812.38" y="170" font-family="Consolas" font-size="48" text-anchor="middle" fill="white">4.8</text><text x="1255.51" y="442.63" font-family="Consolas" font-size="48" text-anchor="middle" fill="white">1.1</text><text x="1403.22" y="398.42" font-family="Consolas" font-size="48" text-anchor="middle" fill="white">1.7</text><text x="1550.93" y="405.79" font-family="Consolas" font-size="48" text-anchor="middle" fill="white">1.6</text><text x="1698.64" y="442.63" font-family="Consolas" font-size="48" text-anchor="middle" fill="white">1.1</text><text x="1846.35" y="457.37" font-family="Consolas" font-size="48" text-anchor="middle" fill="white">0.9</text> <text x="466.96" y="1010" font-family="Consolas" font-size="48" ttext-anchor="middle" fill="white">-6.6</text><text x="910.09" y="582.631578947369" font-family="Consolas" font-size="48" ttext-anchor="middle" fill="white">-0.8</text><text x="1057.8" y="567.894736842105" font-family="Consolas" font-size="48" ttext-anchor="middle" fill="white">-0.6</text></g><g><text x="231.54" y="548.684210526316" transform="rotate(270 221.54 533.684210526316)" font-family="Consolas" font-size="50" fill="limegreen">2018</text><text x="379.25" y="548.684210526316" transform="rotate(270 369.25 533.684210526316)" font-family="Consolas" font-size="50" fill="limegreen">2019</text><text x="526.96" y="548.684210526316" transform="rotate(270 516.96 533.684210526316)" font-family="Consolas" font-size="50" fill="limegreen">2020</text><text x="674.67" y="548.684210526316" transform="rotate(270 664.67 533.684210526316)" font-family="Consolas" font-size="50" fill="limegreen">2021</text><text x="822.38" y="548.684210526316" transform="rotate(270 812.38 533.684210526316)" font-family="Consolas" font-size="50" fill="limegreen">2022</text><text x="970.09" y="548.684210526316" transform="rotate(270 960.09 533.684210526316)" font-family="Consolas" font-size="50" fill="limegreen">2023</text><text x="1117.8" y="548.684210526316" transform="rotate(270 1107.8 533.684210526316)" font-family="Consolas" font-size="50" fill="limegreen">2024</text><text x="1265.51" y="548.684210526316" transform="rotate(270 1255.51 533.684210526316)" font-family="Consolas" font-size="50" fill="limegreen">2025</text><text x="1413.22" y="548.684210526316" transform="rotate(270 1403.22 533.684210526316)" font-family="Consolas" font-size="50" fill="limegreen">2026</text><text x="1560.93" y="548.684210526316" transform="rotate(270 1550.93 533.684210526316)" font-family="Consolas" font-size="50" fill="limegreen">2027</text><text x="1708.64" y="548.684210526316" transform="rotate(270 1698.64 533.684210526316)" font-family="Consolas" font-size="50" fill="limegreen">2028</text><text x="1856.35" y="548.684210526316" transform="rotate(270 1846.35 533.684210526316)" font-family="Consolas" font-size="50" fill="limegreen">2029</text></g></g></svg>
