<svg xmlns="http://www.w3.org/2000/svg" width="1920" height="1080"> <rect width="100%" height="100%" fill="#000"/><g xmlns="http://www.w3.org/2000/svg" transform="translate(0,0) scale(1.0)"> <text  x="1080" y="60" font-family="Consolas" font-size="52" text-anchor="middle" fill="white">REAL  GDP ANNUAL PERCENT CHANGE (2018-2029) [IMF DATA]</text><text  x="1700" y="1050" font-family="Consolas" font-size="22" text-anchor="middle" fill="white">DESIGNED BY ZOOMIT WORLD</text><image x="180" y="-50" width="280" height="280" href="https://cdn.jsdelivr.net/gh/hampusborgos/country-flags@main/svg/bs.svg"></image><text x="70" y="180" font-family="Consolas" font-size="50" text-anchor="middle" fill="white">13%</text><text x="70" y="411.604938271605" font-family="Consolas" font-size="50" text-anchor="middle" fill="white">6.5%</text><text x="70" y="643.20987654321" font-family="Consolas" font-size="50" text-anchor="middle" fill="white">0%</text><text x="70" y="831.604938271605" font-family="Consolas" font-size="50" text-anchor="middle" fill="white">-5.5%</text><text x="70" y="1020" font-family="Consolas" font-size="50" text-anchor="middle" fill="white">-11%</text><line  x1="141.54" y1="180" x2="141.54" y2="1020" stroke="white" stroke-width="2"/><line x1="141.54"  y1="643.20987654321" x2="1920" y2="643.20987654321" stroke="white" stroke-width="5"/><g><rect x="171.54" y="504.938271604938" width="100" height="138.27" fill="none" stroke="limegreen" stroke-width="2"/><rect x="319.25" y="567.160493827161" width="100" height="76.05" fill="none" stroke="limegreen" stroke-width="2"/><rect x="614.67" y="180" width="100" height="463.21" fill="none" stroke="limegreen" stroke-width="2"/><rect x="762.38" y="549.876543209877" width="100" height="93.33" fill="none" stroke="limegreen" stroke-width="2"/><rect x="1057.8" y="539.506172839506" width="100" height="103.70" fill="none" stroke="limegreen" stroke-width="2"/><rect x="1205.51" y="553.333333333333" width="100" height="89.88" fill="none" stroke="limegreen" stroke-width="2"/><rect x="1353.22" y="563.703703703704" width="100" height="79.51" fill="none" stroke="limegreen" stroke-width="2"/><rect x="1500.93" y="563.703703703704" width="100" height="79.51" fill="none" stroke="limegreen" stroke-width="2"/><rect x="1648.64" y="563.703703703704" width="100" height="79.51" fill="none" stroke="limegreen" stroke-width="2"/><rect x="1796.35" y="563.703703703704" width="100" height="79.51" fill="none" stroke="limegreen" stroke-width="2"/> <rect x="466.96" y="643.20987654321" width="100" height="376.79" fill="none" stroke="limegreen" stroke-width="2"/><rect x="910.09" y="643.20987654321" width="100" height="20.74" fill="none" stroke="limegreen" stroke-width="2"/> </g><g><text x="221.54" y="494.94" font-family="Consolas" font-size="48" text-anchor="middle" fill="white">4</text><text x="369.25" y="557.16" font-family="Consolas" font-size="48" text-anchor="middle" fill="white">2.2</text><text x="664.67" y="170" font-family="Consolas" font-size="48" text-anchor="middle" fill="white">13.4</text><text x="812.38" y="539.88" font-family="Consolas" font-size="48" text-anchor="middle" fill="white">2.7</text><text x="1107.8" y="529.51" font-family="Consolas" font-size="48" text-anchor="middle" fill="white">3</text><text x="1255.51" y="543.33" font-family="Consolas" font-size="48" text-anchor="middle" fill="white">2.6</text><text x="1403.22" y="553.7" font-family="Consolas" font-size="48" text-anchor="middle" fill="white">2.3</text><text x="1550.93" y="553.7" font-family="Consolas" font-size="48" text-anchor="middle" fill="white">2.3</text><text x="1698.64" y="553.7" font-family="Consolas" font-size="48" text-anchor="middle" fill="white">2.3</text><text x="1846.35" y="553.7" font-family="Consolas" font-size="48" text-anchor="middle" fill="white">2.3</text> <text x="466.96" y="1010" font-family="Consolas" font-size="48" ttext-anchor="middle" fill="white">-10.9</text><text x="910.09" y="653.950617283951" font-family="Consolas" font-size="48" ttext-anchor="middle" fill="white">-0.6</text></g><g><text x="231.54" y="658.20987654321" transform="rotate(270 221.54 643.20987654321)" font-family="Consolas" font-size="50" fill="limegreen">2018</text><text x="379.25" y="658.20987654321" transform="rotate(270 369.25 643.20987654321)" font-family="Consolas" font-size="50" fill="limegreen">2019</text><text x="526.96" y="658.20987654321" transform="rotate(270 516.96 643.20987654321)" font-family="Consolas" font-size="50" fill="limegreen">2020</text><text x="674.67" y="658.20987654321" transform="rotate(270 664.67 643.20987654321)" font-family="Consolas" font-size="50" fill="limegreen">2021</text><text x="822.38" y="658.20987654321" transform="rotate(270 812.38 643.20987654321)" font-family="Consolas" font-size="50" fill="limegreen">2022</text><text x="970.09" y="658.20987654321" transform="rotate(270 960.09 643.20987654321)" font-family="Consolas" font-size="50" fill="limegreen">2023</text><text x="1117.8" y="658.20987654321" transform="rotate(270 1107.8 643.20987654321)" font-family="Consolas" font-size="50" fill="limegreen">2024</text><text x="1265.51" y="658.20987654321" transform="rotate(270 1255.51 643.20987654321)" font-family="Consolas" font-size="50" fill="limegreen">2025</text><text x="1413.22" y="658.20987654321" transform="rotate(270 1403.22 643.20987654321)" font-family="Consolas" font-size="50" fill="limegreen">2026</text><text x="1560.93" y="658.20987654321" transform="rotate(270 1550.93 643.20987654321)" font-family="Consolas" font-size="50" fill="limegreen">2027</text><text x="1708.64" y="658.20987654321" transform="rotate(270 1698.64 643.20987654321)" font-family="Consolas" font-size="50" fill="limegreen">2028</text><text x="1856.35" y="658.20987654321" transform="rotate(270 1846.35 643.20987654321)" font-family="Consolas" font-size="50" fill="limegreen">2029</text></g></g></svg>
