<svg xmlns="http://www.w3.org/2000/svg" width="1920" height="1080"> <rect width="100%" height="100%" fill="#000"/><g xmlns="http://www.w3.org/2000/svg" transform="translate(0,0) scale(1.0)"> <text  x="1080" y="60" font-family="Consolas" font-size="52" text-anchor="middle" fill="white">REAL  GDP ANNUAL PERCENT CHANGE (2018-2029) [IMF DATA]</text><text  x="1780" y="1050" font-family="Consolas" font-size="32" text-anchor="middle" fill="white">ZOOMIT WORLD</text><image x="180" y="-50" width="280" height="280" href="https://cdn.jsdelivr.net/gh/hampusborgos/country-flags@main/svg/zw.svg"></image><text x="70" y="180" font-family="Consolas" font-size="50" text-anchor="middle" fill="white">9%</text><text x="70" y="399.018404907975" font-family="Consolas" font-size="50" text-anchor="middle" fill="white">4.5%</text><text x="70" y="618.036809815951" font-family="Consolas" font-size="50" text-anchor="middle" fill="white">0%</text><text x="70" y="819.018404907975" font-family="Consolas" font-size="50" text-anchor="middle" fill="white">-4%</text><text x="70" y="1020" font-family="Consolas" font-size="50" text-anchor="middle" fill="white">-8%</text><line  x1="141.54" y1="180" x2="141.54" y2="1020" stroke="white" stroke-width="2"/><line x1="141.54"  y1="618.036809815951" x2="1920" y2="618.036809815951" stroke="white" stroke-width="5"/><g><rect x="171.54" y="360.368098159509" width="100" height="257.67" fill="none" stroke="limegreen" stroke-width="2"/><rect x="614.67" y="180" width="100" height="438.04" fill="none" stroke="limegreen" stroke-width="2"/><rect x="762.38" y="303.680981595092" width="100" height="314.36" fill="none" stroke="limegreen" stroke-width="2"/><rect x="910.09" y="344.907975460123" width="100" height="273.13" fill="none" stroke="limegreen" stroke-width="2"/><rect x="1057.8" y="514.969325153374" width="100" height="103.07" fill="none" stroke="limegreen" stroke-width="2"/><rect x="1205.51" y="308.834355828221" width="100" height="309.20" fill="none" stroke="limegreen" stroke-width="2"/><rect x="1353.22" y="386.134969325153" width="100" height="231.90" fill="none" stroke="limegreen" stroke-width="2"/><rect x="1500.93" y="437.668711656442" width="100" height="180.37" fill="none" stroke="limegreen" stroke-width="2"/><rect x="1648.64" y="437.668711656442" width="100" height="180.37" fill="none" stroke="limegreen" stroke-width="2"/><rect x="1796.35" y="437.668711656442" width="100" height="180.37" fill="none" stroke="limegreen" stroke-width="2"/> <rect x="319.25" y="618.036809815951" width="100" height="324.66" fill="none" stroke="limegreen" stroke-width="2"/><rect x="466.96" y="618.036809815951" width="100" height="401.96" fill="none" stroke="limegreen" stroke-width="2"/> </g><g><text x="221.54" y="350.37" font-family="Consolas" font-size="48" text-anchor="middle" fill="white">5</text><text x="664.67" y="170" font-family="Consolas" font-size="48" text-anchor="middle" fill="white">8.5</text><text x="812.38" y="293.68" font-family="Consolas" font-size="48" text-anchor="middle" fill="white">6.1</text><text x="960.09" y="334.91" font-family="Consolas" font-size="48" text-anchor="middle" fill="white">5.3</text><text x="1107.8" y="504.97" font-family="Consolas" font-size="48" text-anchor="middle" fill="white">2</text><text x="1255.51" y="298.83" font-family="Consolas" font-size="48" text-anchor="middle" fill="white">6</text><text x="1403.22" y="376.13" font-family="Consolas" font-size="48" text-anchor="middle" fill="white">4.5</text><text x="1550.93" y="427.67" font-family="Consolas" font-size="48" text-anchor="middle" fill="white">3.5</text><text x="1698.64" y="427.67" font-family="Consolas" font-size="48" text-anchor="middle" fill="white">3.5</text><text x="1846.35" y="427.67" font-family="Consolas" font-size="48" text-anchor="middle" fill="white">3.5</text> <text x="319.25" y="932.699386503067" font-family="Consolas" font-size="48" ttext-anchor="middle" fill="white">-6.3</text><text x="466.96" y="1010" font-family="Consolas" font-size="48" ttext-anchor="middle" fill="white">-7.8</text></g><g><text x="231.54" y="633.036809815951" transform="rotate(270 221.54 618.036809815951)" font-family="Consolas" font-size="50" fill="limegreen">2018</text><text x="379.25" y="633.036809815951" transform="rotate(270 369.25 618.036809815951)" font-family="Consolas" font-size="50" fill="limegreen">2019</text><text x="526.96" y="633.036809815951" transform="rotate(270 516.96 618.036809815951)" font-family="Consolas" font-size="50" fill="limegreen">2020</text><text x="674.67" y="633.036809815951" transform="rotate(270 664.67 618.036809815951)" font-family="Consolas" font-size="50" fill="limegreen">2021</text><text x="822.38" y="633.036809815951" transform="rotate(270 812.38 618.036809815951)" font-family="Consolas" font-size="50" fill="limegreen">2022</text><text x="970.09" y="633.036809815951" transform="rotate(270 960.09 618.036809815951)" font-family="Consolas" font-size="50" fill="limegreen">2023</text><text x="1117.8" y="633.036809815951" transform="rotate(270 1107.8 618.036809815951)" font-family="Consolas" font-size="50" fill="limegreen">2024</text><text x="1265.51" y="633.036809815951" transform="rotate(270 1255.51 618.036809815951)" font-family="Consolas" font-size="50" fill="limegreen">2025</text><text x="1413.22" y="633.036809815951" transform="rotate(270 1403.22 618.036809815951)" font-family="Consolas" font-size="50" fill="limegreen">2026</text><text x="1560.93" y="633.036809815951" transform="rotate(270 1550.93 618.036809815951)" font-family="Consolas" font-size="50" fill="limegreen">2027</text><text x="1708.64" y="633.036809815951" transform="rotate(270 1698.64 618.036809815951)" font-family="Consolas" font-size="50" fill="limegreen">2028</text><text x="1856.35" y="633.036809815951" transform="rotate(270 1846.35 618.036809815951)" font-family="Consolas" font-size="50" fill="limegreen">2029</text></g></g></svg>
