<svg xmlns="http://www.w3.org/2000/svg" width="1920" height="1080"> <rect width="100%" height="100%" fill="#000"/><g xmlns="http://www.w3.org/2000/svg" transform="translate(0,0) scale(1.0)"> <text  x="1080" y="60" font-family="Consolas" font-size="52" text-anchor="middle" fill="white">REAL  GDP ANNUAL PERCENT CHANGE (2018-2029) [IMF DATA]</text><text  x="1780" y="1050" font-family="Consolas" font-size="32" text-anchor="middle" fill="white">ZOOMIT WORLD</text><image x="180" y="-50" width="280" height="280" href="https://www.svgrepo.com/show/405586/flag-for-flag-puerto-rico.svg"></image><text x="70" y="180" font-family="Consolas" font-size="50" text-anchor="middle" fill="white">4%</text><text x="70" y="369" font-family="Consolas" font-size="50" text-anchor="middle" fill="white">2%</text><text x="70" y="558" font-family="Consolas" font-size="50" text-anchor="middle" fill="white">0%</text><text x="70" y="789" font-family="Consolas" font-size="50" text-anchor="middle" fill="white">-2%</text><text x="70" y="1020" font-family="Consolas" font-size="50" text-anchor="middle" fill="white">-4%</text><line  x1="141.54" y1="180" x2="141.54" y2="1020" stroke="white" stroke-width="2"/><line x1="141.54"  y1="558" x2="1920" y2="558" stroke="white" stroke-width="5"/><g><rect x="319.25" y="379.5" width="100" height="178.50" fill="none" stroke="limegreen" stroke-width="2"/><rect x="614.67" y="516" width="100" height="42.00" fill="none" stroke="limegreen" stroke-width="2"/><rect x="762.38" y="180" width="100" height="378.00" fill="none" stroke="limegreen" stroke-width="2"/><rect x="910.09" y="495" width="100" height="63.00" fill="none" stroke="limegreen" stroke-width="2"/><rect x="1057.8" y="453" width="100" height="105.00" fill="none" stroke="limegreen" stroke-width="2"/><rect x="1500.93" y="453" width="100" height="105.00" fill="none" stroke="limegreen" stroke-width="2"/><rect x="1648.64" y="495" width="100" height="63.00" fill="none" stroke="limegreen" stroke-width="2"/><rect x="1796.35" y="474" width="100" height="84.00" fill="none" stroke="limegreen" stroke-width="2"/> <rect x="171.54" y="558" width="100" height="462.00" fill="none" stroke="limegreen" stroke-width="2"/><rect x="466.96" y="558" width="100" height="441.00" fill="none" stroke="limegreen" stroke-width="2"/><rect x="1205.51" y="558" width="100" height="84.00" fill="none" stroke="limegreen" stroke-width="2"/><rect x="1353.22" y="558" width="100" height="10.50" fill="none" stroke="limegreen" stroke-width="2"/> </g><g><text x="369.25" y="369.5" font-family="Consolas" font-size="48" text-anchor="middle" fill="white">1.7</text><text x="664.67" y="506" font-family="Consolas" font-size="48" text-anchor="middle" fill="white">0.4</text><text x="812.38" y="170" font-family="Consolas" font-size="48" text-anchor="middle" fill="white">3.6</text><text x="960.09" y="485" font-family="Consolas" font-size="48" text-anchor="middle" fill="white">0.6</text><text x="1107.8" y="443" font-family="Consolas" font-size="48" text-anchor="middle" fill="white">1</text><text x="1550.93" y="443" font-family="Consolas" font-size="48" text-anchor="middle" fill="white">1</text><text x="1698.64" y="485" font-family="Consolas" font-size="48" text-anchor="middle" fill="white">0.6</text><text x="1846.35" y="464" font-family="Consolas" font-size="48" text-anchor="middle" fill="white">0.8</text> <text x="171.54" y="1010" font-family="Consolas" font-size="48" ttext-anchor="middle" fill="white">-4.4</text><text x="466.96" y="989" font-family="Consolas" font-size="48" ttext-anchor="middle" fill="white">-4.2</text><text x="1205.51" y="632" font-family="Consolas" font-size="48" ttext-anchor="middle" fill="white">-0.8</text><text x="1353.22" y="558.5" font-family="Consolas" font-size="48" ttext-anchor="middle" fill="white">-0.1</text></g><g><text x="231.54" y="573" transform="rotate(270 221.54 558)" font-family="Consolas" font-size="50" fill="limegreen">2018</text><text x="379.25" y="573" transform="rotate(270 369.25 558)" font-family="Consolas" font-size="50" fill="limegreen">2019</text><text x="526.96" y="573" transform="rotate(270 516.96 558)" font-family="Consolas" font-size="50" fill="limegreen">2020</text><text x="674.67" y="573" transform="rotate(270 664.67 558)" font-family="Consolas" font-size="50" fill="limegreen">2021</text><text x="822.38" y="573" transform="rotate(270 812.38 558)" font-family="Consolas" font-size="50" fill="limegreen">2022</text><text x="970.09" y="573" transform="rotate(270 960.09 558)" font-family="Consolas" font-size="50" fill="limegreen">2023</text><text x="1117.8" y="573" transform="rotate(270 1107.8 558)" font-family="Consolas" font-size="50" fill="limegreen">2024</text><text x="1265.51" y="573" transform="rotate(270 1255.51 558)" font-family="Consolas" font-size="50" fill="limegreen">2025</text><text x="1413.22" y="573" transform="rotate(270 1403.22 558)" font-family="Consolas" font-size="50" fill="limegreen">2026</text><text x="1560.93" y="573" transform="rotate(270 1550.93 558)" font-family="Consolas" font-size="50" fill="limegreen">2027</text><text x="1708.64" y="573" transform="rotate(270 1698.64 558)" font-family="Consolas" font-size="50" fill="limegreen">2028</text><text x="1856.35" y="573" transform="rotate(270 1846.35 558)" font-family="Consolas" font-size="50" fill="limegreen">2029</text></g></g></svg>
