<svg xmlns="http://www.w3.org/2000/svg" width="1920" height="1080"> <rect width="100%" height="100%" fill="#000"/><g xmlns="http://www.w3.org/2000/svg" transform="translate(0,0) scale(1.0)"> <text  x="1080" y="60" font-family="Consolas" font-size="52" text-anchor="middle" fill="white">REAL  GDP ANNUAL PERCENT CHANGE (2018-2029) [IMF DATA]</text><text  x="1700" y="1050" font-family="Consolas" font-size="22" text-anchor="middle" fill="white">DESIGNED BY ZOOMIT WORLD</text><image x="180" y="-50" width="280" height="280" href="https://cdn.jsdelivr.net/gh/hampusborgos/country-flags@main/svg/bs.svg"></image><text x="70" y="180" font-family="Consolas" font-size="50" text-anchor="middle" fill="white">7%</text><text x="70" y="417.540983606557" font-family="Consolas" font-size="50" text-anchor="middle" fill="white">3.5%</text><text x="70" y="655.081967213115" font-family="Consolas" font-size="50" text-anchor="middle" fill="white">0%</text><text x="70" y="837.540983606557" font-family="Consolas" font-size="50" text-anchor="middle" fill="white">-2.5%</text><text x="70" y="1020" font-family="Consolas" font-size="50" text-anchor="middle" fill="white">-5%</text><line  x1="141.54" y1="180" x2="141.54" y2="1020" stroke="white" stroke-width="2"/><line x1="141.54"  y1="655.081967213115" x2="1920" y2="655.081967213115" stroke="white" stroke-width="5"/><g><rect x="171.54" y="531.147540983607" width="100" height="123.93" fill="none" stroke="limegreen" stroke-width="2"/><rect x="319.25" y="503.606557377049" width="100" height="151.48" fill="none" stroke="limegreen" stroke-width="2"/><rect x="614.67" y="180" width="100" height="475.08" fill="none" stroke="limegreen" stroke-width="2"/><rect x="762.38" y="448.524590163934" width="100" height="206.56" fill="none" stroke="limegreen" stroke-width="2"/><rect x="910.09" y="558.688524590164" width="100" height="96.39" fill="none" stroke="limegreen" stroke-width="2"/><rect x="1057.8" y="579.344262295082" width="100" height="75.74" fill="none" stroke="limegreen" stroke-width="2"/><rect x="1205.51" y="572.459016393443" width="100" height="82.62" fill="none" stroke="limegreen" stroke-width="2"/><rect x="1353.22" y="565.573770491803" width="100" height="89.51" fill="none" stroke="limegreen" stroke-width="2"/><rect x="1500.93" y="565.573770491803" width="100" height="89.51" fill="none" stroke="limegreen" stroke-width="2"/><rect x="1648.64" y="565.573770491803" width="100" height="89.51" fill="none" stroke="limegreen" stroke-width="2"/><rect x="1796.35" y="565.573770491803" width="100" height="89.51" fill="none" stroke="limegreen" stroke-width="2"/> <rect x="466.96" y="655.081967213115" width="100" height="364.92" fill="none" stroke="limegreen" stroke-width="2"/> </g><g><text x="221.54" y="521.15" font-family="Consolas" font-size="48" text-anchor="middle" fill="white">1.8</text><text x="369.25" y="493.61" font-family="Consolas" font-size="48" text-anchor="middle" fill="white">2.2</text><text x="664.67" y="170" font-family="Consolas" font-size="48" text-anchor="middle" fill="white">6.9</text><text x="812.38" y="438.52" font-family="Consolas" font-size="48" text-anchor="middle" fill="white">3</text><text x="960.09" y="548.69" font-family="Consolas" font-size="48" text-anchor="middle" fill="white">1.4</text><text x="1107.8" y="569.34" font-family="Consolas" font-size="48" text-anchor="middle" fill="white">1.1</text><text x="1255.51" y="562.46" font-family="Consolas" font-size="48" text-anchor="middle" fill="white">1.2</text><text x="1403.22" y="555.57" font-family="Consolas" font-size="48" text-anchor="middle" fill="white">1.3</text><text x="1550.93" y="555.57" font-family="Consolas" font-size="48" text-anchor="middle" fill="white">1.3</text><text x="1698.64" y="555.57" font-family="Consolas" font-size="48" text-anchor="middle" fill="white">1.3</text><text x="1846.35" y="555.57" font-family="Consolas" font-size="48" text-anchor="middle" fill="white">1.3</text> <text x="466.96" y="1010" font-family="Consolas" font-size="48" ttext-anchor="middle" fill="white">-5.3</text></g><g><text x="231.54" y="670.081967213115" transform="rotate(270 221.54 655.081967213115)" font-family="Consolas" font-size="50" fill="limegreen">2018</text><text x="379.25" y="670.081967213115" transform="rotate(270 369.25 655.081967213115)" font-family="Consolas" font-size="50" fill="limegreen">2019</text><text x="526.96" y="670.081967213115" transform="rotate(270 516.96 655.081967213115)" font-family="Consolas" font-size="50" fill="limegreen">2020</text><text x="674.67" y="670.081967213115" transform="rotate(270 664.67 655.081967213115)" font-family="Consolas" font-size="50" fill="limegreen">2021</text><text x="822.38" y="670.081967213115" transform="rotate(270 812.38 655.081967213115)" font-family="Consolas" font-size="50" fill="limegreen">2022</text><text x="970.09" y="670.081967213115" transform="rotate(270 960.09 655.081967213115)" font-family="Consolas" font-size="50" fill="limegreen">2023</text><text x="1117.8" y="670.081967213115" transform="rotate(270 1107.8 655.081967213115)" font-family="Consolas" font-size="50" fill="limegreen">2024</text><text x="1265.51" y="670.081967213115" transform="rotate(270 1255.51 655.081967213115)" font-family="Consolas" font-size="50" fill="limegreen">2025</text><text x="1413.22" y="670.081967213115" transform="rotate(270 1403.22 655.081967213115)" font-family="Consolas" font-size="50" fill="limegreen">2026</text><text x="1560.93" y="670.081967213115" transform="rotate(270 1550.93 655.081967213115)" font-family="Consolas" font-size="50" fill="limegreen">2027</text><text x="1708.64" y="670.081967213115" transform="rotate(270 1698.64 655.081967213115)" font-family="Consolas" font-size="50" fill="limegreen">2028</text><text x="1856.35" y="670.081967213115" transform="rotate(270 1846.35 655.081967213115)" font-family="Consolas" font-size="50" fill="limegreen">2029</text></g></g></svg>
