<svg xmlns="http://www.w3.org/2000/svg" width="1920" height="1080"> <rect width="100%" height="100%" fill="#000"/><g xmlns="http://www.w3.org/2000/svg" transform="translate(0,0) scale(1.0)"> <text  x="1080" y="60" font-family="Consolas" font-size="52" text-anchor="middle" fill="white">REAL  GDP ANNUAL PERCENT CHANGE (2018-2029) [IMF DATA]</text><text  x="1700" y="1050" font-family="Consolas" font-size="22" text-anchor="middle" fill="white">DESIGNED BY ZOOMIT WORLD</text><image x="180" y="-50" width="280" height="280" href="https://cdn.jsdelivr.net/gh/hampusborgos/country-flags@main/svg/bs.svg"></image><text x="70" y="180" font-family="Consolas" font-size="50" text-anchor="middle" fill="white">13%</text><text x="70" y="425" font-family="Consolas" font-size="50" text-anchor="middle" fill="white">6.5%</text><text x="70" y="670" font-family="Consolas" font-size="50" text-anchor="middle" fill="white">0%</text><text x="70" y="845" font-family="Consolas" font-size="50" text-anchor="middle" fill="white">-4.5%</text><text x="70" y="1020" font-family="Consolas" font-size="50" text-anchor="middle" fill="white">-9%</text><line  x1="141.54" y1="180" x2="141.54" y2="1020" stroke="white" stroke-width="2"/><line x1="141.54"  y1="670" x2="1920" y2="670" stroke="white" stroke-width="5"/><g><rect x="171.54" y="522.222222222222" width="100" height="147.78" fill="none" stroke="limegreen" stroke-width="2"/><rect x="319.25" y="568.888888888889" width="100" height="101.11" fill="none" stroke="limegreen" stroke-width="2"/><rect x="614.67" y="180" width="100" height="490.00" fill="none" stroke="limegreen" stroke-width="2"/><rect x="762.38" y="510.555555555556" width="100" height="159.44" fill="none" stroke="limegreen" stroke-width="2"/><rect x="910.09" y="530" width="100" height="140.00" fill="none" stroke="limegreen" stroke-width="2"/><rect x="1057.8" y="530" width="100" height="140.00" fill="none" stroke="limegreen" stroke-width="2"/><rect x="1205.51" y="533.888888888889" width="100" height="136.11" fill="none" stroke="limegreen" stroke-width="2"/><rect x="1353.22" y="526.111111111111" width="100" height="143.89" fill="none" stroke="limegreen" stroke-width="2"/><rect x="1500.93" y="522.222222222222" width="100" height="147.78" fill="none" stroke="limegreen" stroke-width="2"/><rect x="1648.64" y="522.222222222222" width="100" height="147.78" fill="none" stroke="limegreen" stroke-width="2"/><rect x="1796.35" y="522.222222222222" width="100" height="147.78" fill="none" stroke="limegreen" stroke-width="2"/> <rect x="466.96" y="670" width="100" height="350.00" fill="none" stroke="limegreen" stroke-width="2"/> </g><g><text x="221.54" y="512.22" font-family="Consolas" font-size="48" text-anchor="middle" fill="white">3.8</text><text x="369.25" y="558.89" font-family="Consolas" font-size="48" text-anchor="middle" fill="white">2.6</text><text x="664.67" y="170" font-family="Consolas" font-size="48" text-anchor="middle" fill="white">12.6</text><text x="812.38" y="500.56" font-family="Consolas" font-size="48" text-anchor="middle" fill="white">4.1</text><text x="960.09" y="520" font-family="Consolas" font-size="48" text-anchor="middle" fill="white">3.6</text><text x="1107.8" y="520" font-family="Consolas" font-size="48" text-anchor="middle" fill="white">3.6</text><text x="1255.51" y="523.89" font-family="Consolas" font-size="48" text-anchor="middle" fill="white">3.5</text><text x="1403.22" y="516.11" font-family="Consolas" font-size="48" text-anchor="middle" fill="white">3.7</text><text x="1550.93" y="512.22" font-family="Consolas" font-size="48" text-anchor="middle" fill="white">3.8</text><text x="1698.64" y="512.22" font-family="Consolas" font-size="48" text-anchor="middle" fill="white">3.8</text><text x="1846.35" y="512.22" font-family="Consolas" font-size="48" text-anchor="middle" fill="white">3.8</text> <text x="466.96" y="1010" font-family="Consolas" font-size="48" ttext-anchor="middle" fill="white">-9</text></g><g><text x="231.54" y="685" transform="rotate(270 221.54 670)" font-family="Consolas" font-size="50" fill="limegreen">2018</text><text x="379.25" y="685" transform="rotate(270 369.25 670)" font-family="Consolas" font-size="50" fill="limegreen">2019</text><text x="526.96" y="685" transform="rotate(270 516.96 670)" font-family="Consolas" font-size="50" fill="limegreen">2020</text><text x="674.67" y="685" transform="rotate(270 664.67 670)" font-family="Consolas" font-size="50" fill="limegreen">2021</text><text x="822.38" y="685" transform="rotate(270 812.38 670)" font-family="Consolas" font-size="50" fill="limegreen">2022</text><text x="970.09" y="685" transform="rotate(270 960.09 670)" font-family="Consolas" font-size="50" fill="limegreen">2023</text><text x="1117.8" y="685" transform="rotate(270 1107.8 670)" font-family="Consolas" font-size="50" fill="limegreen">2024</text><text x="1265.51" y="685" transform="rotate(270 1255.51 670)" font-family="Consolas" font-size="50" fill="limegreen">2025</text><text x="1413.22" y="685" transform="rotate(270 1403.22 670)" font-family="Consolas" font-size="50" fill="limegreen">2026</text><text x="1560.93" y="685" transform="rotate(270 1550.93 670)" font-family="Consolas" font-size="50" fill="limegreen">2027</text><text x="1708.64" y="685" transform="rotate(270 1698.64 670)" font-family="Consolas" font-size="50" fill="limegreen">2028</text><text x="1856.35" y="685" transform="rotate(270 1846.35 670)" font-family="Consolas" font-size="50" fill="limegreen">2029</text></g></g></svg>
