<svg xmlns="http://www.w3.org/2000/svg" width="1920" height="1080"> <rect width="100%" height="100%" fill="#000"/><g xmlns="http://www.w3.org/2000/svg" transform="translate(0,0) scale(1.0)"> <text  x="1080" y="60" font-family="Consolas" font-size="52" text-anchor="middle" fill="white">REAL  GDP ANNUAL PERCENT CHANGE (2018-2029) [IMF DATA]</text><text  x="1700" y="1050" font-family="Consolas" font-size="22" text-anchor="middle" fill="white">DESIGNED BY ZOOMIT WORLD</text><image x="180" y="-50" width="280" height="280" href="https://cdn.jsdelivr.net/gh/hampusborgos/country-flags@main/svg/bs.svg"></image><text x="70" y="180" font-family="Consolas" font-size="50" text-anchor="middle" fill="white">17%</text><text x="70" y="371.30890052356" font-family="Consolas" font-size="50" text-anchor="middle" fill="white">8.5%</text><text x="70" y="562.61780104712" font-family="Consolas" font-size="50" text-anchor="middle" fill="white">0%</text><text x="70" y="791.30890052356" font-family="Consolas" font-size="50" text-anchor="middle" fill="white">-10.5%</text><text x="70" y="1020" font-family="Consolas" font-size="50" text-anchor="middle" fill="white">-21%</text><line  x1="141.54" y1="180" x2="141.54" y2="1020" stroke="white" stroke-width="2"/><line x1="141.54"  y1="562.61780104712" x2="1920" y2="562.61780104712" stroke="white" stroke-width="5"/><g><rect x="171.54" y="481.256544502618" width="100" height="81.36" fill="none" stroke="limegreen" stroke-width="2"/><rect x="319.25" y="410.890052356021" width="100" height="151.73" fill="none" stroke="limegreen" stroke-width="2"/><rect x="614.67" y="408.69109947644" width="100" height="153.93" fill="none" stroke="limegreen" stroke-width="2"/><rect x="762.38" y="180" width="100" height="382.62" fill="none" stroke="limegreen" stroke-width="2"/><rect x="910.09" y="450.471204188482" width="100" height="112.15" fill="none" stroke="limegreen" stroke-width="2"/><rect x="1057.8" y="459.267015706806" width="100" height="103.35" fill="none" stroke="limegreen" stroke-width="2"/><rect x="1205.51" y="459.267015706806" width="100" height="103.35" fill="none" stroke="limegreen" stroke-width="2"/><rect x="1353.22" y="461.465968586387" width="100" height="101.15" fill="none" stroke="limegreen" stroke-width="2"/><rect x="1500.93" y="461.465968586387" width="100" height="101.15" fill="none" stroke="limegreen" stroke-width="2"/><rect x="1648.64" y="463.664921465969" width="100" height="98.95" fill="none" stroke="limegreen" stroke-width="2"/><rect x="1796.35" y="463.664921465969" width="100" height="98.95" fill="none" stroke="limegreen" stroke-width="2"/> <rect x="466.96" y="562.61780104712" width="100" height="457.38" fill="none" stroke="limegreen" stroke-width="2"/> </g><g><text x="221.54" y="471.26" font-family="Consolas" font-size="48" text-anchor="middle" fill="white">3.7</text><text x="369.25" y="400.89" font-family="Consolas" font-size="48" text-anchor="middle" fill="white">6.9</text><text x="664.67" y="398.69" font-family="Consolas" font-size="48" text-anchor="middle" fill="white">7</text><text x="812.38" y="170" font-family="Consolas" font-size="48" text-anchor="middle" fill="white">17.4</text><text x="960.09" y="440.47" font-family="Consolas" font-size="48" text-anchor="middle" fill="white">5.1</text><text x="1107.8" y="449.27" font-family="Consolas" font-size="48" text-anchor="middle" fill="white">4.7</text><text x="1255.51" y="449.27" font-family="Consolas" font-size="48" text-anchor="middle" fill="white">4.7</text><text x="1403.22" y="451.47" font-family="Consolas" font-size="48" text-anchor="middle" fill="white">4.6</text><text x="1550.93" y="451.47" font-family="Consolas" font-size="48" text-anchor="middle" fill="white">4.6</text><text x="1698.64" y="453.66" font-family="Consolas" font-size="48" text-anchor="middle" fill="white">4.5</text><text x="1846.35" y="453.66" font-family="Consolas" font-size="48" text-anchor="middle" fill="white">4.5</text> <text x="466.96" y="1010" font-family="Consolas" font-size="48" ttext-anchor="middle" fill="white">-20.8</text></g><g><text x="231.54" y="577.61780104712" transform="rotate(270 221.54 562.61780104712)" font-family="Consolas" font-size="50" fill="limegreen">2018</text><text x="379.25" y="577.61780104712" transform="rotate(270 369.25 562.61780104712)" font-family="Consolas" font-size="50" fill="limegreen">2019</text><text x="526.96" y="577.61780104712" transform="rotate(270 516.96 562.61780104712)" font-family="Consolas" font-size="50" fill="limegreen">2020</text><text x="674.67" y="577.61780104712" transform="rotate(270 664.67 562.61780104712)" font-family="Consolas" font-size="50" fill="limegreen">2021</text><text x="822.38" y="577.61780104712" transform="rotate(270 812.38 562.61780104712)" font-family="Consolas" font-size="50" fill="limegreen">2022</text><text x="970.09" y="577.61780104712" transform="rotate(270 960.09 562.61780104712)" font-family="Consolas" font-size="50" fill="limegreen">2023</text><text x="1117.8" y="577.61780104712" transform="rotate(270 1107.8 562.61780104712)" font-family="Consolas" font-size="50" fill="limegreen">2024</text><text x="1265.51" y="577.61780104712" transform="rotate(270 1255.51 562.61780104712)" font-family="Consolas" font-size="50" fill="limegreen">2025</text><text x="1413.22" y="577.61780104712" transform="rotate(270 1403.22 562.61780104712)" font-family="Consolas" font-size="50" fill="limegreen">2026</text><text x="1560.93" y="577.61780104712" transform="rotate(270 1550.93 562.61780104712)" font-family="Consolas" font-size="50" fill="limegreen">2027</text><text x="1708.64" y="577.61780104712" transform="rotate(270 1698.64 562.61780104712)" font-family="Consolas" font-size="50" fill="limegreen">2028</text><text x="1856.35" y="577.61780104712" transform="rotate(270 1846.35 562.61780104712)" font-family="Consolas" font-size="50" fill="limegreen">2029</text></g></g></svg>
