<svg xmlns="http://www.w3.org/2000/svg" width="1920" height="1080"> <rect width="100%" height="100%" fill="#000"/><g xmlns="http://www.w3.org/2000/svg" transform="translate(0,0) scale(1.0)"> <text  x="1080" y="60" font-family="Consolas" font-size="52" text-anchor="middle" fill="white">REAL  GDP ANNUAL PERCENT CHANGE (2018-2029) [IMF DATA]</text><text  x="1780" y="1050" font-family="Consolas" font-size="32" text-anchor="middle" fill="white">ZOOMIT WORLD</text><image x="180" y="-50" width="280" height="280" href="https://cdn.jsdelivr.net/gh/hampusborgos/country-flags@main/svg/ma.svg"></image><text x="70" y="180" font-family="Consolas" font-size="50" text-anchor="middle" fill="white">8%</text><text x="70" y="403.636363636364" font-family="Consolas" font-size="50" text-anchor="middle" fill="white">4%</text><text x="70" y="627.272727272727" font-family="Consolas" font-size="50" text-anchor="middle" fill="white">0%</text><text x="70" y="823.636363636364" font-family="Consolas" font-size="50" text-anchor="middle" fill="white">-3.5%</text><text x="70" y="1020" font-family="Consolas" font-size="50" text-anchor="middle" fill="white">-7%</text><line  x1="141.54" y1="180" x2="141.54" y2="1020" stroke="white" stroke-width="2"/><line x1="141.54"  y1="627.272727272727" x2="1920" y2="627.272727272727" stroke="white" stroke-width="5"/><g><rect x="171.54" y="458.181818181818" width="100" height="169.09" fill="none" stroke="limegreen" stroke-width="2"/><rect x="319.25" y="469.090909090909" width="100" height="158.18" fill="none" stroke="limegreen" stroke-width="2"/><rect x="614.67" y="180" width="100" height="447.27" fill="none" stroke="limegreen" stroke-width="2"/><rect x="762.38" y="545.454545454545" width="100" height="81.82" fill="none" stroke="limegreen" stroke-width="2"/><rect x="910.09" y="441.818181818182" width="100" height="185.45" fill="none" stroke="limegreen" stroke-width="2"/><rect x="1057.8" y="474.545454545455" width="100" height="152.73" fill="none" stroke="limegreen" stroke-width="2"/><rect x="1205.51" y="430.909090909091" width="100" height="196.36" fill="none" stroke="limegreen" stroke-width="2"/><rect x="1353.22" y="441.818181818182" width="100" height="185.45" fill="none" stroke="limegreen" stroke-width="2"/><rect x="1500.93" y="441.818181818182" width="100" height="185.45" fill="none" stroke="limegreen" stroke-width="2"/><rect x="1648.64" y="441.818181818182" width="100" height="185.45" fill="none" stroke="limegreen" stroke-width="2"/><rect x="1796.35" y="441.818181818182" width="100" height="185.45" fill="none" stroke="limegreen" stroke-width="2"/> <rect x="466.96" y="627.272727272727" width="100" height="392.73" fill="none" stroke="limegreen" stroke-width="2"/> </g><g><text x="221.54" y="448.18" font-family="Consolas" font-size="48" text-anchor="middle" fill="white">3.1</text><text x="369.25" y="459.09" font-family="Consolas" font-size="48" text-anchor="middle" fill="white">2.9</text><text x="664.67" y="170" font-family="Consolas" font-size="48" text-anchor="middle" fill="white">8.2</text><text x="812.38" y="535.45" font-family="Consolas" font-size="48" text-anchor="middle" fill="white">1.5</text><text x="960.09" y="431.82" font-family="Consolas" font-size="48" text-anchor="middle" fill="white">3.4</text><text x="1107.8" y="464.55" font-family="Consolas" font-size="48" text-anchor="middle" fill="white">2.8</text><text x="1255.51" y="420.91" font-family="Consolas" font-size="48" text-anchor="middle" fill="white">3.6</text><text x="1403.22" y="431.82" font-family="Consolas" font-size="48" text-anchor="middle" fill="white">3.4</text><text x="1550.93" y="431.82" font-family="Consolas" font-size="48" text-anchor="middle" fill="white">3.4</text><text x="1698.64" y="431.82" font-family="Consolas" font-size="48" text-anchor="middle" fill="white">3.4</text><text x="1846.35" y="431.82" font-family="Consolas" font-size="48" text-anchor="middle" fill="white">3.4</text> <text x="466.96" y="1010" font-family="Consolas" font-size="48" ttext-anchor="middle" fill="white">-7.2</text></g><g><text x="231.54" y="642.272727272727" transform="rotate(270 221.54 627.272727272727)" font-family="Consolas" font-size="50" fill="limegreen">2018</text><text x="379.25" y="642.272727272727" transform="rotate(270 369.25 627.272727272727)" font-family="Consolas" font-size="50" fill="limegreen">2019</text><text x="526.96" y="642.272727272727" transform="rotate(270 516.96 627.272727272727)" font-family="Consolas" font-size="50" fill="limegreen">2020</text><text x="674.67" y="642.272727272727" transform="rotate(270 664.67 627.272727272727)" font-family="Consolas" font-size="50" fill="limegreen">2021</text><text x="822.38" y="642.272727272727" transform="rotate(270 812.38 627.272727272727)" font-family="Consolas" font-size="50" fill="limegreen">2022</text><text x="970.09" y="642.272727272727" transform="rotate(270 960.09 627.272727272727)" font-family="Consolas" font-size="50" fill="limegreen">2023</text><text x="1117.8" y="642.272727272727" transform="rotate(270 1107.8 627.272727272727)" font-family="Consolas" font-size="50" fill="limegreen">2024</text><text x="1265.51" y="642.272727272727" transform="rotate(270 1255.51 627.272727272727)" font-family="Consolas" font-size="50" fill="limegreen">2025</text><text x="1413.22" y="642.272727272727" transform="rotate(270 1403.22 627.272727272727)" font-family="Consolas" font-size="50" fill="limegreen">2026</text><text x="1560.93" y="642.272727272727" transform="rotate(270 1550.93 627.272727272727)" font-family="Consolas" font-size="50" fill="limegreen">2027</text><text x="1708.64" y="642.272727272727" transform="rotate(270 1698.64 627.272727272727)" font-family="Consolas" font-size="50" fill="limegreen">2028</text><text x="1856.35" y="642.272727272727" transform="rotate(270 1846.35 627.272727272727)" font-family="Consolas" font-size="50" fill="limegreen">2029</text></g></g></svg>
