<svg xmlns="http://www.w3.org/2000/svg" width="1920" height="1080"> <rect width="100%" height="100%" fill="#000"/><g xmlns="http://www.w3.org/2000/svg" transform="translate(0,0) scale(1.0)"> <text  x="1080" y="60" font-family="Consolas" font-size="52" text-anchor="middle" fill="white">REAL  GDP ANNUAL PERCENT CHANGE (2018-2029) [IMF DATA]</text><text  x="1700" y="1050" font-family="Consolas" font-size="22" text-anchor="middle" fill="white">DESIGNED BY ZOOMIT WORLD</text><image x="180" y="-50" width="280" height="280" href="https://cdn.jsdelivr.net/gh/hampusborgos/country-flags@main/svg/bs.svg"></image><text x="70" y="180" font-family="Consolas" font-size="50" text-anchor="middle" fill="white">8%</text><text x="70" y="340.89552238806" font-family="Consolas" font-size="50" text-anchor="middle" fill="white">4%</text><text x="70" y="501.791044776119" font-family="Consolas" font-size="50" text-anchor="middle" fill="white">0%</text><text x="70" y="760.89552238806" font-family="Consolas" font-size="50" text-anchor="middle" fill="white">-6%</text><text x="70" y="1020" font-family="Consolas" font-size="50" text-anchor="middle" fill="white">-12%</text><line  x1="141.54" y1="180" x2="141.54" y2="1020" stroke="white" stroke-width="2"/><line x1="141.54"  y1="501.791044776119" x2="1920" y2="501.791044776119" stroke="white" stroke-width="5"/><g><rect x="171.54" y="393.134328358209" width="100" height="108.66" fill="none" stroke="limegreen" stroke-width="2"/><rect x="319.25" y="267.761194029851" width="100" height="234.03" fill="none" stroke="limegreen" stroke-width="2"/><rect x="614.67" y="443.283582089552" width="100" height="58.51" fill="none" stroke="limegreen" stroke-width="2"/><rect x="762.38" y="180" width="100" height="321.79" fill="none" stroke="limegreen" stroke-width="2"/><rect x="1057.8" y="497.611940298507" width="100" height="04.18" fill="none" stroke="limegreen" stroke-width="2"/><rect x="1205.51" y="330.44776119403" width="100" height="171.34" fill="none" stroke="limegreen" stroke-width="2"/><rect x="1353.22" y="284.477611940299" width="100" height="217.31" fill="none" stroke="limegreen" stroke-width="2"/><rect x="1500.93" y="326.268656716418" width="100" height="175.52" fill="none" stroke="limegreen" stroke-width="2"/><rect x="1648.64" y="326.268656716418" width="100" height="175.52" fill="none" stroke="limegreen" stroke-width="2"/><rect x="1796.35" y="326.268656716418" width="100" height="175.52" fill="none" stroke="limegreen" stroke-width="2"/> <rect x="466.96" y="501.791044776119" width="100" height="518.21" fill="none" stroke="limegreen" stroke-width="2"/><rect x="910.09" y="501.791044776119" width="100" height="121.19" fill="none" stroke="limegreen" stroke-width="2"/> </g><g><text x="221.54" y="383.13" font-family="Consolas" font-size="48" text-anchor="middle" fill="white">2.6</text><text x="369.25" y="257.76" font-family="Consolas" font-size="48" text-anchor="middle" fill="white">5.6</text><text x="664.67" y="433.28" font-family="Consolas" font-size="48" text-anchor="middle" fill="white">1.4</text><text x="812.38" y="170" font-family="Consolas" font-size="48" text-anchor="middle" fill="white">7.7</text><text x="1107.8" y="487.61" font-family="Consolas" font-size="48" text-anchor="middle" fill="white">0.1</text><text x="1255.51" y="320.45" font-family="Consolas" font-size="48" text-anchor="middle" fill="white">4.1</text><text x="1403.22" y="274.48" font-family="Consolas" font-size="48" text-anchor="middle" fill="white">5.2</text><text x="1550.93" y="316.27" font-family="Consolas" font-size="48" text-anchor="middle" fill="white">4.2</text><text x="1698.64" y="316.27" font-family="Consolas" font-size="48" text-anchor="middle" fill="white">4.2</text><text x="1846.35" y="316.27" font-family="Consolas" font-size="48" text-anchor="middle" fill="white">4.2</text> <text x="466.96" y="1010" font-family="Consolas" font-size="48" ttext-anchor="middle" fill="white">-12.4</text><text x="910.09" y="612.985074626866" font-family="Consolas" font-size="48" ttext-anchor="middle" fill="white">-2.9</text></g><g><text x="231.54" y="516.791044776119" transform="rotate(270 221.54 501.791044776119)" font-family="Consolas" font-size="50" fill="limegreen">2018</text><text x="379.25" y="516.791044776119" transform="rotate(270 369.25 501.791044776119)" font-family="Consolas" font-size="50" fill="limegreen">2019</text><text x="526.96" y="516.791044776119" transform="rotate(270 516.96 501.791044776119)" font-family="Consolas" font-size="50" fill="limegreen">2020</text><text x="674.67" y="516.791044776119" transform="rotate(270 664.67 501.791044776119)" font-family="Consolas" font-size="50" fill="limegreen">2021</text><text x="822.38" y="516.791044776119" transform="rotate(270 812.38 501.791044776119)" font-family="Consolas" font-size="50" fill="limegreen">2022</text><text x="970.09" y="516.791044776119" transform="rotate(270 960.09 501.791044776119)" font-family="Consolas" font-size="50" fill="limegreen">2023</text><text x="1117.8" y="516.791044776119" transform="rotate(270 1107.8 501.791044776119)" font-family="Consolas" font-size="50" fill="limegreen">2024</text><text x="1265.51" y="516.791044776119" transform="rotate(270 1255.51 501.791044776119)" font-family="Consolas" font-size="50" fill="limegreen">2025</text><text x="1413.22" y="516.791044776119" transform="rotate(270 1403.22 501.791044776119)" font-family="Consolas" font-size="50" fill="limegreen">2026</text><text x="1560.93" y="516.791044776119" transform="rotate(270 1550.93 501.791044776119)" font-family="Consolas" font-size="50" fill="limegreen">2027</text><text x="1708.64" y="516.791044776119" transform="rotate(270 1698.64 501.791044776119)" font-family="Consolas" font-size="50" fill="limegreen">2028</text><text x="1856.35" y="516.791044776119" transform="rotate(270 1846.35 501.791044776119)" font-family="Consolas" font-size="50" fill="limegreen">2029</text></g></g></svg>
