<svg xmlns="http://www.w3.org/2000/svg" width="1920" height="1080"> <rect width="100%" height="100%" fill="#000"/><g xmlns="http://www.w3.org/2000/svg" transform="translate(0,0) scale(1.0)"> <text  x="1080" y="60" font-family="Consolas" font-size="52" text-anchor="middle" fill="white">REAL  GDP ANNUAL PERCENT CHANGE (2018-2029) [IMF DATA]</text><text  x="1780" y="1050" font-family="Consolas" font-size="32" text-anchor="middle" fill="white">ZOOMIT WORLD</text><image x="180" y="-50" width="280" height="280" href="https://cdn.jsdelivr.net/gh/hampusborgos/country-flags@main/svg/bn.svg"></image><text x="70" y="180" font-family="Consolas" font-size="50" text-anchor="middle" fill="white">4%</text><text x="70" y="477.818181818182" font-family="Consolas" font-size="50" text-anchor="middle" fill="white">2%</text><text x="70" y="775.636363636364" font-family="Consolas" font-size="50" text-anchor="middle" fill="white">0%</text><text x="70" y="897.818181818182" font-family="Consolas" font-size="50" text-anchor="middle" fill="white">-1%</text><text x="70" y="1020" font-family="Consolas" font-size="50" text-anchor="middle" fill="white">-2%</text><line  x1="141.54" y1="180" x2="141.54" y2="1020" stroke="white" stroke-width="2"/><line x1="141.54"  y1="775.636363636364" x2="1920" y2="775.636363636364" stroke="white" stroke-width="5"/><g><rect x="171.54" y="760.363636363636" width="100" height="15.27" fill="none" stroke="limegreen" stroke-width="2"/><rect x="319.25" y="180" width="100" height="595.64" fill="none" stroke="limegreen" stroke-width="2"/><rect x="466.96" y="607.636363636364" width="100" height="168.00" fill="none" stroke="limegreen" stroke-width="2"/><rect x="910.09" y="561.818181818182" width="100" height="213.82" fill="none" stroke="limegreen" stroke-width="2"/><rect x="1057.8" y="409.090909090909" width="100" height="366.55" fill="none" stroke="limegreen" stroke-width="2"/><rect x="1205.51" y="393.818181818182" width="100" height="381.82" fill="none" stroke="limegreen" stroke-width="2"/><rect x="1353.22" y="378.545454545455" width="100" height="397.09" fill="none" stroke="limegreen" stroke-width="2"/><rect x="1500.93" y="363.272727272727" width="100" height="412.36" fill="none" stroke="limegreen" stroke-width="2"/><rect x="1648.64" y="332.727272727273" width="100" height="442.91" fill="none" stroke="limegreen" stroke-width="2"/><rect x="1796.35" y="302.181818181818" width="100" height="473.45" fill="none" stroke="limegreen" stroke-width="2"/> <rect x="614.67" y="775.636363636364" width="100" height="244.36" fill="none" stroke="limegreen" stroke-width="2"/><rect x="762.38" y="775.636363636364" width="100" height="244.36" fill="none" stroke="limegreen" stroke-width="2"/> </g><g><text x="221.54" y="750.36" font-family="Consolas" font-size="48" text-anchor="middle" fill="white">0.1</text><text x="369.25" y="170" font-family="Consolas" font-size="48" text-anchor="middle" fill="white">3.9</text><text x="516.96" y="597.64" font-family="Consolas" font-size="48" text-anchor="middle" fill="white">1.1</text><text x="960.09" y="551.82" font-family="Consolas" font-size="48" text-anchor="middle" fill="white">1.4</text><text x="1107.8" y="399.09" font-family="Consolas" font-size="48" text-anchor="middle" fill="white">2.4</text><text x="1255.51" y="383.82" font-family="Consolas" font-size="48" text-anchor="middle" fill="white">2.5</text><text x="1403.22" y="368.55" font-family="Consolas" font-size="48" text-anchor="middle" fill="white">2.6</text><text x="1550.93" y="353.27" font-family="Consolas" font-size="48" text-anchor="middle" fill="white">2.7</text><text x="1698.64" y="322.73" font-family="Consolas" font-size="48" text-anchor="middle" fill="white">2.9</text><text x="1846.35" y="292.18" font-family="Consolas" font-size="48" text-anchor="middle" fill="white">3.1</text> <text x="614.67" y="1010" font-family="Consolas" font-size="48" ttext-anchor="middle" fill="white">-1.6</text><text x="762.38" y="1010" font-family="Consolas" font-size="48" ttext-anchor="middle" fill="white">-1.6</text></g><g><text x="231.54" y="790.636363636364" transform="rotate(270 221.54 775.636363636364)" font-family="Consolas" font-size="50" fill="limegreen">2018</text><text x="379.25" y="790.636363636364" transform="rotate(270 369.25 775.636363636364)" font-family="Consolas" font-size="50" fill="limegreen">2019</text><text x="526.96" y="790.636363636364" transform="rotate(270 516.96 775.636363636364)" font-family="Consolas" font-size="50" fill="limegreen">2020</text><text x="674.67" y="790.636363636364" transform="rotate(270 664.67 775.636363636364)" font-family="Consolas" font-size="50" fill="limegreen">2021</text><text x="822.38" y="790.636363636364" transform="rotate(270 812.38 775.636363636364)" font-family="Consolas" font-size="50" fill="limegreen">2022</text><text x="970.09" y="790.636363636364" transform="rotate(270 960.09 775.636363636364)" font-family="Consolas" font-size="50" fill="limegreen">2023</text><text x="1117.8" y="790.636363636364" transform="rotate(270 1107.8 775.636363636364)" font-family="Consolas" font-size="50" fill="limegreen">2024</text><text x="1265.51" y="790.636363636364" transform="rotate(270 1255.51 775.636363636364)" font-family="Consolas" font-size="50" fill="limegreen">2025</text><text x="1413.22" y="790.636363636364" transform="rotate(270 1403.22 775.636363636364)" font-family="Consolas" font-size="50" fill="limegreen">2026</text><text x="1560.93" y="790.636363636364" transform="rotate(270 1550.93 775.636363636364)" font-family="Consolas" font-size="50" fill="limegreen">2027</text><text x="1708.64" y="790.636363636364" transform="rotate(270 1698.64 775.636363636364)" font-family="Consolas" font-size="50" fill="limegreen">2028</text><text x="1856.35" y="790.636363636364" transform="rotate(270 1846.35 775.636363636364)" font-family="Consolas" font-size="50" fill="limegreen">2029</text></g></g></svg>
