<svg xmlns="http://www.w3.org/2000/svg" width="1920" height="1080"> <rect width="100%" height="100%" fill="#000"/><g xmlns="http://www.w3.org/2000/svg" transform="translate(0,0) scale(1.0)"> <text  x="1080" y="60" font-family="Consolas" font-size="52" text-anchor="middle" fill="white">REAL  GDP ANNUAL PERCENT CHANGE (2018-2029) [IMF DATA]</text><text  x="1700" y="1050" font-family="Consolas" font-size="22" text-anchor="middle" fill="white">DESIGNED BY ZOOMIT WORLD</text><image x="180" y="-50" width="280" height="280" href="https://cdn.jsdelivr.net/gh/hampusborgos/country-flags@main/svg/bs.svg"></image><text x="70" y="180" font-family="Consolas" font-size="50" text-anchor="middle" fill="white">5%</text><text x="70" y="540" font-family="Consolas" font-size="50" text-anchor="middle" fill="white">2.5%</text><text x="70" y="900" font-family="Consolas" font-size="50" text-anchor="middle" fill="white">0%</text><text x="70" y="960" font-family="Consolas" font-size="50" text-anchor="middle" fill="white">0.5%</text><text x="70" y="1020" font-family="Consolas" font-size="50" text-anchor="middle" fill="white">1%</text><line  x1="141.54" y1="180" x2="141.54" y2="1020" stroke="white" stroke-width="2"/><line x1="141.54"  y1="900" x2="1920" y2="900" stroke="white" stroke-width="5"/><g><rect x="171.54" y="313.333333333333" width="100" height="586.67" fill="none" stroke="limegreen" stroke-width="2"/><rect x="319.25" y="180" width="100" height="720.00" fill="none" stroke="limegreen" stroke-width="2"/><rect x="466.96" y="766.666666666667" width="100" height="133.33" fill="none" stroke="limegreen" stroke-width="2"/><rect x="614.67" y="286.666666666667" width="100" height="613.33" fill="none" stroke="limegreen" stroke-width="2"/><rect x="762.38" y="780" width="100" height="120.00" fill="none" stroke="limegreen" stroke-width="2"/><rect x="910.09" y="700" width="100" height="200.00" fill="none" stroke="limegreen" stroke-width="2"/><rect x="1057.8" y="660" width="100" height="240.00" fill="none" stroke="limegreen" stroke-width="2"/><rect x="1205.51" y="366.666666666667" width="100" height="533.33" fill="none" stroke="limegreen" stroke-width="2"/><rect x="1353.22" y="326.666666666667" width="100" height="573.33" fill="none" stroke="limegreen" stroke-width="2"/><rect x="1500.93" y="300" width="100" height="600.00" fill="none" stroke="limegreen" stroke-width="2"/><rect x="1648.64" y="286.666666666667" width="100" height="613.33" fill="none" stroke="limegreen" stroke-width="2"/><rect x="1796.35" y="286.666666666667" width="100" height="613.33" fill="none" stroke="limegreen" stroke-width="2"/>  </g><g><text x="221.54" y="303.33" font-family="Consolas" font-size="48" text-anchor="middle" fill="white">4.4</text><text x="369.25" y="170" font-family="Consolas" font-size="48" text-anchor="middle" fill="white">5.4</text><text x="516.96" y="756.67" font-family="Consolas" font-size="48" text-anchor="middle" fill="white">1</text><text x="664.67" y="276.67" font-family="Consolas" font-size="48" text-anchor="middle" fill="white">4.6</text><text x="812.38" y="770" font-family="Consolas" font-size="48" text-anchor="middle" fill="white">0.9</text><text x="960.09" y="690" font-family="Consolas" font-size="48" text-anchor="middle" fill="white">1.5</text><text x="1107.8" y="650" font-family="Consolas" font-size="48" text-anchor="middle" fill="white">1.8</text><text x="1255.51" y="356.67" font-family="Consolas" font-size="48" text-anchor="middle" fill="white">4</text><text x="1403.22" y="316.67" font-family="Consolas" font-size="48" text-anchor="middle" fill="white">4.3</text><text x="1550.93" y="290" font-family="Consolas" font-size="48" text-anchor="middle" fill="white">4.5</text><text x="1698.64" y="276.67" font-family="Consolas" font-size="48" text-anchor="middle" fill="white">4.6</text><text x="1846.35" y="276.67" font-family="Consolas" font-size="48" text-anchor="middle" fill="white">4.6</text> </g><g><text x="231.54" y="915" transform="rotate(270 221.54 900)" font-family="Consolas" font-size="50" fill="limegreen">2018</text><text x="379.25" y="915" transform="rotate(270 369.25 900)" font-family="Consolas" font-size="50" fill="limegreen">2019</text><text x="526.96" y="915" transform="rotate(270 516.96 900)" font-family="Consolas" font-size="50" fill="limegreen">2020</text><text x="674.67" y="915" transform="rotate(270 664.67 900)" font-family="Consolas" font-size="50" fill="limegreen">2021</text><text x="822.38" y="915" transform="rotate(270 812.38 900)" font-family="Consolas" font-size="50" fill="limegreen">2022</text><text x="970.09" y="915" transform="rotate(270 960.09 900)" font-family="Consolas" font-size="50" fill="limegreen">2023</text><text x="1117.8" y="915" transform="rotate(270 1107.8 900)" font-family="Consolas" font-size="50" fill="limegreen">2024</text><text x="1265.51" y="915" transform="rotate(270 1255.51 900)" font-family="Consolas" font-size="50" fill="limegreen">2025</text><text x="1413.22" y="915" transform="rotate(270 1403.22 900)" font-family="Consolas" font-size="50" fill="limegreen">2026</text><text x="1560.93" y="915" transform="rotate(270 1550.93 900)" font-family="Consolas" font-size="50" fill="limegreen">2027</text><text x="1708.64" y="915" transform="rotate(270 1698.64 900)" font-family="Consolas" font-size="50" fill="limegreen">2028</text><text x="1856.35" y="915" transform="rotate(270 1846.35 900)" font-family="Consolas" font-size="50" fill="limegreen">2029</text></g></g></svg>
