<svg xmlns="http://www.w3.org/2000/svg" width="1920" height="1080"> <rect width="100%" height="100%" fill="#000"/><g xmlns="http://www.w3.org/2000/svg" transform="translate(0,0) scale(1.0)"> <text  x="1080" y="60" font-family="Consolas" font-size="52" text-anchor="middle" fill="white">REAL  GDP ANNUAL PERCENT CHANGE (2018-2029) [IMF DATA]</text><text  x="1780" y="1050" font-family="Consolas" font-size="32" text-anchor="middle" fill="white">ZOOMIT WORLD</text><image x="180" y="-50" width="280" height="280" href="https://cdn.jsdelivr.net/gh/hampusborgos/country-flags@main/svg/gy.svg"></image><text x="70" y="180" font-family="Consolas" font-size="50" text-anchor="middle" fill="white">62%</text><text x="70" y="572.293853073463" font-family="Consolas" font-size="50" text-anchor="middle" fill="white">31%</text><text x="70" y="964.587706146927" font-family="Consolas" font-size="50" text-anchor="middle" fill="white">0%</text><text x="70" y="992.293853073463" font-family="Consolas" font-size="50" text-anchor="middle" fill="white">2%</text><text x="70" y="1020" font-family="Consolas" font-size="50" text-anchor="middle" fill="white">4%</text><line  x1="141.54" y1="180" x2="141.54" y2="1020" stroke="white" stroke-width="2"/><line x1="141.54"  y1="964.587706146927" x2="1920" y2="964.587706146927" stroke="white" stroke-width="5"/><g><rect x="171.54" y="909.175412293853" width="100" height="55.41" fill="none" stroke="limegreen" stroke-width="2"/><rect x="319.25" y="896.581709145427" width="100" height="68.01" fill="none" stroke="limegreen" stroke-width="2"/><rect x="466.96" y="416.761619190405" width="100" height="547.83" fill="none" stroke="limegreen" stroke-width="2"/><rect x="614.67" y="711.454272863568" width="100" height="253.13" fill="none" stroke="limegreen" stroke-width="2"/><rect x="762.38" y="180" width="100" height="784.59" fill="none" stroke="limegreen" stroke-width="2"/><rect x="910.09" y="548.995502248875" width="100" height="415.59" fill="none" stroke="limegreen" stroke-width="2"/><rect x="1057.8" y="412.983508245877" width="100" height="551.60" fill="none" stroke="limegreen" stroke-width="2"/><rect x="1205.51" y="783.238380809595" width="100" height="181.35" fill="none" stroke="limegreen" stroke-width="2"/><rect x="1353.22" y="744.197901049475" width="100" height="220.39" fill="none" stroke="limegreen" stroke-width="2"/><rect x="1500.93" y="700.119940029985" width="100" height="264.47" fill="none" stroke="limegreen" stroke-width="2"/><rect x="1648.64" y="794.572713643178" width="100" height="170.01" fill="none" stroke="limegreen" stroke-width="2"/><rect x="1796.35" y="814.72263868066" width="100" height="149.87" fill="none" stroke="limegreen" stroke-width="2"/>  </g><g><text x="221.54" y="899.18" font-family="Consolas" font-size="48" text-anchor="middle" fill="white">4.4</text><text x="369.25" y="886.58" font-family="Consolas" font-size="48" text-anchor="middle" fill="white">5.4</text><text x="516.96" y="406.76" font-family="Consolas" font-size="48" text-anchor="middle" fill="white">43.5</text><text x="664.67" y="701.45" font-family="Consolas" font-size="48" text-anchor="middle" fill="white">20.1</text><text x="812.38" y="170" font-family="Consolas" font-size="48" text-anchor="middle" fill="white">62.3</text><text x="960.09" y="539" font-family="Consolas" font-size="48" text-anchor="middle" fill="white">33</text><text x="1107.8" y="402.98" font-family="Consolas" font-size="48" text-anchor="middle" fill="white">43.8</text><text x="1255.51" y="773.24" font-family="Consolas" font-size="48" text-anchor="middle" fill="white">14.4</text><text x="1403.22" y="734.2" font-family="Consolas" font-size="48" text-anchor="middle" fill="white">17.5</text><text x="1550.93" y="690.12" font-family="Consolas" font-size="48" text-anchor="middle" fill="white">21</text><text x="1698.64" y="784.57" font-family="Consolas" font-size="48" text-anchor="middle" fill="white">13.5</text><text x="1846.35" y="804.72" font-family="Consolas" font-size="48" text-anchor="middle" fill="white">11.9</text> </g><g><text x="231.54" y="979.587706146927" transform="rotate(270 221.54 964.587706146927)" font-family="Consolas" font-size="50" fill="limegreen">2018</text><text x="379.25" y="979.587706146927" transform="rotate(270 369.25 964.587706146927)" font-family="Consolas" font-size="50" fill="limegreen">2019</text><text x="526.96" y="979.587706146927" transform="rotate(270 516.96 964.587706146927)" font-family="Consolas" font-size="50" fill="limegreen">2020</text><text x="674.67" y="979.587706146927" transform="rotate(270 664.67 964.587706146927)" font-family="Consolas" font-size="50" fill="limegreen">2021</text><text x="822.38" y="979.587706146927" transform="rotate(270 812.38 964.587706146927)" font-family="Consolas" font-size="50" fill="limegreen">2022</text><text x="970.09" y="979.587706146927" transform="rotate(270 960.09 964.587706146927)" font-family="Consolas" font-size="50" fill="limegreen">2023</text><text x="1117.8" y="979.587706146927" transform="rotate(270 1107.8 964.587706146927)" font-family="Consolas" font-size="50" fill="limegreen">2024</text><text x="1265.51" y="979.587706146927" transform="rotate(270 1255.51 964.587706146927)" font-family="Consolas" font-size="50" fill="limegreen">2025</text><text x="1413.22" y="979.587706146927" transform="rotate(270 1403.22 964.587706146927)" font-family="Consolas" font-size="50" fill="limegreen">2026</text><text x="1560.93" y="979.587706146927" transform="rotate(270 1550.93 964.587706146927)" font-family="Consolas" font-size="50" fill="limegreen">2027</text><text x="1708.64" y="979.587706146927" transform="rotate(270 1698.64 964.587706146927)" font-family="Consolas" font-size="50" fill="limegreen">2028</text><text x="1856.35" y="979.587706146927" transform="rotate(270 1846.35 964.587706146927)" font-family="Consolas" font-size="50" fill="limegreen">2029</text></g></g></svg>
