<svg xmlns="http://www.w3.org/2000/svg" width="1920" height="1080"> <rect width="100%" height="100%" fill="#000"/><g xmlns="http://www.w3.org/2000/svg" transform="translate(0,0) scale(1.0)"> <text  x="1080" y="60" font-family="Consolas" font-size="52" text-anchor="middle" fill="white">REAL  GDP ANNUAL PERCENT CHANGE (2018-2029) [IMF DATA]</text><text  x="1780" y="1050" font-family="Consolas" font-size="32" text-anchor="middle" fill="white">ZOOMIT WORLD</text><image x="180" y="-50" width="280" height="280" href="https://cdn.jsdelivr.net/gh/hampusborgos/country-flags@main/svg/ga.svg"></image><text x="70" y="180" font-family="Consolas" font-size="50" text-anchor="middle" fill="white">4%</text><text x="70" y="465" font-family="Consolas" font-size="50" text-anchor="middle" fill="white">2%</text><text x="70" y="750" font-family="Consolas" font-size="50" text-anchor="middle" fill="white">0%</text><text x="70" y="885" font-family="Consolas" font-size="50" text-anchor="middle" fill="white">-1%</text><text x="70" y="1020" font-family="Consolas" font-size="50" text-anchor="middle" fill="white">-2%</text><line  x1="141.54" y1="180" x2="141.54" y2="1020" stroke="white" stroke-width="2"/><line x1="141.54"  y1="750" x2="1920" y2="750" stroke="white" stroke-width="5"/><g><rect x="171.54" y="615" width="100" height="135.00" fill="none" stroke="limegreen" stroke-width="2"/><rect x="319.25" y="180" width="100" height="570.00" fill="none" stroke="limegreen" stroke-width="2"/><rect x="614.67" y="525" width="100" height="225.00" fill="none" stroke="limegreen" stroke-width="2"/><rect x="762.38" y="300" width="100" height="450.00" fill="none" stroke="limegreen" stroke-width="2"/><rect x="910.09" y="390" width="100" height="360.00" fill="none" stroke="limegreen" stroke-width="2"/><rect x="1057.8" y="285" width="100" height="465.00" fill="none" stroke="limegreen" stroke-width="2"/><rect x="1205.51" y="360" width="100" height="390.00" fill="none" stroke="limegreen" stroke-width="2"/><rect x="1353.22" y="360" width="100" height="390.00" fill="none" stroke="limegreen" stroke-width="2"/><rect x="1500.93" y="375" width="100" height="375.00" fill="none" stroke="limegreen" stroke-width="2"/><rect x="1648.64" y="375" width="100" height="375.00" fill="none" stroke="limegreen" stroke-width="2"/><rect x="1796.35" y="360" width="100" height="390.00" fill="none" stroke="limegreen" stroke-width="2"/> <rect x="466.96" y="750" width="100" height="270.00" fill="none" stroke="limegreen" stroke-width="2"/> </g><g><text x="221.54" y="605" font-family="Consolas" font-size="48" text-anchor="middle" fill="white">0.9</text><text x="369.25" y="170" font-family="Consolas" font-size="48" text-anchor="middle" fill="white">3.8</text><text x="664.67" y="515" font-family="Consolas" font-size="48" text-anchor="middle" fill="white">1.5</text><text x="812.38" y="290" font-family="Consolas" font-size="48" text-anchor="middle" fill="white">3</text><text x="960.09" y="380" font-family="Consolas" font-size="48" text-anchor="middle" fill="white">2.4</text><text x="1107.8" y="275" font-family="Consolas" font-size="48" text-anchor="middle" fill="white">3.1</text><text x="1255.51" y="350" font-family="Consolas" font-size="48" text-anchor="middle" fill="white">2.6</text><text x="1403.22" y="350" font-family="Consolas" font-size="48" text-anchor="middle" fill="white">2.6</text><text x="1550.93" y="365" font-family="Consolas" font-size="48" text-anchor="middle" fill="white">2.5</text><text x="1698.64" y="365" font-family="Consolas" font-size="48" text-anchor="middle" fill="white">2.5</text><text x="1846.35" y="350" font-family="Consolas" font-size="48" text-anchor="middle" fill="white">2.6</text> <text x="466.96" y="1010" font-family="Consolas" font-size="48" ttext-anchor="middle" fill="white">-1.8</text></g><g><text x="231.54" y="765" transform="rotate(270 221.54 750)" font-family="Consolas" font-size="50" fill="limegreen">2018</text><text x="379.25" y="765" transform="rotate(270 369.25 750)" font-family="Consolas" font-size="50" fill="limegreen">2019</text><text x="526.96" y="765" transform="rotate(270 516.96 750)" font-family="Consolas" font-size="50" fill="limegreen">2020</text><text x="674.67" y="765" transform="rotate(270 664.67 750)" font-family="Consolas" font-size="50" fill="limegreen">2021</text><text x="822.38" y="765" transform="rotate(270 812.38 750)" font-family="Consolas" font-size="50" fill="limegreen">2022</text><text x="970.09" y="765" transform="rotate(270 960.09 750)" font-family="Consolas" font-size="50" fill="limegreen">2023</text><text x="1117.8" y="765" transform="rotate(270 1107.8 750)" font-family="Consolas" font-size="50" fill="limegreen">2024</text><text x="1265.51" y="765" transform="rotate(270 1255.51 750)" font-family="Consolas" font-size="50" fill="limegreen">2025</text><text x="1413.22" y="765" transform="rotate(270 1403.22 750)" font-family="Consolas" font-size="50" fill="limegreen">2026</text><text x="1560.93" y="765" transform="rotate(270 1550.93 750)" font-family="Consolas" font-size="50" fill="limegreen">2027</text><text x="1708.64" y="765" transform="rotate(270 1698.64 750)" font-family="Consolas" font-size="50" fill="limegreen">2028</text><text x="1856.35" y="765" transform="rotate(270 1846.35 750)" font-family="Consolas" font-size="50" fill="limegreen">2029</text></g></g></svg>
