<svg xmlns="http://www.w3.org/2000/svg" width="1920" height="1080"> <rect width="100%" height="100%" fill="#000"/><g xmlns="http://www.w3.org/2000/svg" transform="translate(0,0) scale(1.0)"> <text  x="1080" y="60" font-family="Consolas" font-size="52" text-anchor="middle" fill="white">REAL  GDP ANNUAL PERCENT CHANGE (2018-2029) [IMF DATA]</text><text  x="1780" y="1050" font-family="Consolas" font-size="32" text-anchor="middle" fill="white">ZOOMIT WORLD</text><image x="180" y="-50" width="280" height="280" href="https://cdn.jsdelivr.net/gh/hampusborgos/country-flags@main/svg/se.svg"></image><text x="70" y="180" font-family="Consolas" font-size="50" text-anchor="middle" fill="white">6%</text><text x="70" y="493.670886075949" font-family="Consolas" font-size="50" text-anchor="middle" fill="white">3%</text><text x="70" y="807.341772151899" font-family="Consolas" font-size="50" text-anchor="middle" fill="white">0%</text><text x="70" y="913.670886075949" font-family="Consolas" font-size="50" text-anchor="middle" fill="white">-1%</text><text x="70" y="1020" font-family="Consolas" font-size="50" text-anchor="middle" fill="white">-2%</text><line  x1="141.54" y1="180" x2="141.54" y2="1020" stroke="white" stroke-width="2"/><line x1="141.54"  y1="807.341772151899" x2="1920" y2="807.341772151899" stroke="white" stroke-width="5"/><g><rect x="171.54" y="605.316455696203" width="100" height="202.03" fill="none" stroke="limegreen" stroke-width="2"/><rect x="319.25" y="541.518987341772" width="100" height="265.82" fill="none" stroke="limegreen" stroke-width="2"/><rect x="614.67" y="180" width="100" height="627.34" fill="none" stroke="limegreen" stroke-width="2"/><rect x="762.38" y="647.848101265823" width="100" height="159.49" fill="none" stroke="limegreen" stroke-width="2"/><rect x="1057.8" y="711.645569620253" width="100" height="95.70" fill="none" stroke="limegreen" stroke-width="2"/><rect x="1205.51" y="552.151898734177" width="100" height="255.19" fill="none" stroke="limegreen" stroke-width="2"/><rect x="1353.22" y="573.417721518987" width="100" height="233.92" fill="none" stroke="limegreen" stroke-width="2"/><rect x="1500.93" y="573.417721518987" width="100" height="233.92" fill="none" stroke="limegreen" stroke-width="2"/><rect x="1648.64" y="584.050632911392" width="100" height="223.29" fill="none" stroke="limegreen" stroke-width="2"/><rect x="1796.35" y="584.050632911392" width="100" height="223.29" fill="none" stroke="limegreen" stroke-width="2"/> <rect x="466.96" y="807.341772151899" width="100" height="212.66" fill="none" stroke="limegreen" stroke-width="2"/><rect x="910.09" y="807.341772151899" width="100" height="21.27" fill="none" stroke="limegreen" stroke-width="2"/> </g><g><text x="221.54" y="595.32" font-family="Consolas" font-size="48" text-anchor="middle" fill="white">1.9</text><text x="369.25" y="531.52" font-family="Consolas" font-size="48" text-anchor="middle" fill="white">2.5</text><text x="664.67" y="170" font-family="Consolas" font-size="48" text-anchor="middle" fill="white">5.9</text><text x="812.38" y="637.85" font-family="Consolas" font-size="48" text-anchor="middle" fill="white">1.5</text><text x="1107.8" y="701.65" font-family="Consolas" font-size="48" text-anchor="middle" fill="white">0.9</text><text x="1255.51" y="542.15" font-family="Consolas" font-size="48" text-anchor="middle" fill="white">2.4</text><text x="1403.22" y="563.42" font-family="Consolas" font-size="48" text-anchor="middle" fill="white">2.2</text><text x="1550.93" y="563.42" font-family="Consolas" font-size="48" text-anchor="middle" fill="white">2.2</text><text x="1698.64" y="574.05" font-family="Consolas" font-size="48" text-anchor="middle" fill="white">2.1</text><text x="1846.35" y="574.05" font-family="Consolas" font-size="48" text-anchor="middle" fill="white">2.1</text> <text x="466.96" y="1010" font-family="Consolas" font-size="48" ttext-anchor="middle" fill="white">-2</text><text x="910.09" y="818.607594936709" font-family="Consolas" font-size="48" ttext-anchor="middle" fill="white">-0.2</text></g><g><text x="231.54" y="822.341772151899" transform="rotate(270 221.54 807.341772151899)" font-family="Consolas" font-size="50" fill="limegreen">2018</text><text x="379.25" y="822.341772151899" transform="rotate(270 369.25 807.341772151899)" font-family="Consolas" font-size="50" fill="limegreen">2019</text><text x="526.96" y="822.341772151899" transform="rotate(270 516.96 807.341772151899)" font-family="Consolas" font-size="50" fill="limegreen">2020</text><text x="674.67" y="822.341772151899" transform="rotate(270 664.67 807.341772151899)" font-family="Consolas" font-size="50" fill="limegreen">2021</text><text x="822.38" y="822.341772151899" transform="rotate(270 812.38 807.341772151899)" font-family="Consolas" font-size="50" fill="limegreen">2022</text><text x="970.09" y="822.341772151899" transform="rotate(270 960.09 807.341772151899)" font-family="Consolas" font-size="50" fill="limegreen">2023</text><text x="1117.8" y="822.341772151899" transform="rotate(270 1107.8 807.341772151899)" font-family="Consolas" font-size="50" fill="limegreen">2024</text><text x="1265.51" y="822.341772151899" transform="rotate(270 1255.51 807.341772151899)" font-family="Consolas" font-size="50" fill="limegreen">2025</text><text x="1413.22" y="822.341772151899" transform="rotate(270 1403.22 807.341772151899)" font-family="Consolas" font-size="50" fill="limegreen">2026</text><text x="1560.93" y="822.341772151899" transform="rotate(270 1550.93 807.341772151899)" font-family="Consolas" font-size="50" fill="limegreen">2027</text><text x="1708.64" y="822.341772151899" transform="rotate(270 1698.64 807.341772151899)" font-family="Consolas" font-size="50" fill="limegreen">2028</text><text x="1856.35" y="822.341772151899" transform="rotate(270 1846.35 807.341772151899)" font-family="Consolas" font-size="50" fill="limegreen">2029</text></g></g></svg>
