<svg xmlns="http://www.w3.org/2000/svg" width="1920" height="1080"> <rect width="100%" height="100%" fill="#000"/><g xmlns="http://www.w3.org/2000/svg" transform="translate(0,0) scale(1.0)"> <text  x="1080" y="60" font-family="Consolas" font-size="52" text-anchor="middle" fill="white">REAL  GDP ANNUAL PERCENT CHANGE (2018-2029) [IMF DATA]</text><text  x="1700" y="1050" font-family="Consolas" font-size="22" text-anchor="middle" fill="white">DESIGNED BY ZOOMIT WORLD</text><image x="180" y="-50" width="280" height="280" href="https://cdn.jsdelivr.net/gh/hampusborgos/country-flags@main/svg/bs.svg"></image><text x="70" y="180" font-family="Consolas" font-size="50" text-anchor="middle" fill="white">9%</text><text x="70" y="572.307692307692" font-family="Consolas" font-size="50" text-anchor="middle" fill="white">4.5%</text><text x="70" y="964.615384615385" font-family="Consolas" font-size="50" text-anchor="middle" fill="white">0%</text><text x="70" y="992.307692307692" font-family="Consolas" font-size="50" text-anchor="middle" fill="white">-0.5%</text><text x="70" y="1020" font-family="Consolas" font-size="50" text-anchor="middle" fill="white">-1%</text><line  x1="141.54" y1="180" x2="141.54" y2="1020" stroke="white" stroke-width="2"/><line x1="141.54"  y1="964.615384615385" x2="1920" y2="964.615384615385" stroke="white" stroke-width="5"/><g><rect x="171.54" y="641.538461538462" width="100" height="323.08" fill="none" stroke="limegreen" stroke-width="2"/><rect x="319.25" y="660" width="100" height="304.62" fill="none" stroke="limegreen" stroke-width="2"/><rect x="614.67" y="180" width="100" height="784.62" fill="none" stroke="limegreen" stroke-width="2"/><rect x="762.38" y="604.615384615385" width="100" height="360.00" fill="none" stroke="limegreen" stroke-width="2"/><rect x="910.09" y="586.153846153846" width="100" height="378.46" fill="none" stroke="limegreen" stroke-width="2"/><rect x="1057.8" y="429.230769230769" width="100" height="535.38" fill="none" stroke="limegreen" stroke-width="2"/><rect x="1205.51" y="586.153846153846" width="100" height="378.46" fill="none" stroke="limegreen" stroke-width="2"/><rect x="1353.22" y="660" width="100" height="304.62" fill="none" stroke="limegreen" stroke-width="2"/><rect x="1500.93" y="733.846153846154" width="100" height="230.77" fill="none" stroke="limegreen" stroke-width="2"/><rect x="1648.64" y="770.769230769231" width="100" height="193.85" fill="none" stroke="limegreen" stroke-width="2"/><rect x="1796.35" y="770.769230769231" width="100" height="193.85" fill="none" stroke="limegreen" stroke-width="2"/> <rect x="466.96" y="964.615384615385" width="100" height="55.38" fill="none" stroke="limegreen" stroke-width="2"/> </g><g><text x="221.54" y="631.54" font-family="Consolas" font-size="48" text-anchor="middle" fill="white">3.5</text><text x="369.25" y="650" font-family="Consolas" font-size="48" text-anchor="middle" fill="white">3.3</text><text x="664.67" y="170" font-family="Consolas" font-size="48" text-anchor="middle" fill="white">8.5</text><text x="812.38" y="594.62" font-family="Consolas" font-size="48" text-anchor="middle" fill="white">3.9</text><text x="960.09" y="576.15" font-family="Consolas" font-size="48" text-anchor="middle" fill="white">4.1</text><text x="1107.8" y="419.23" font-family="Consolas" font-size="48" text-anchor="middle" fill="white">5.8</text><text x="1255.51" y="576.15" font-family="Consolas" font-size="48" text-anchor="middle" fill="white">4.1</text><text x="1403.22" y="650" font-family="Consolas" font-size="48" text-anchor="middle" fill="white">3.3</text><text x="1550.93" y="723.85" font-family="Consolas" font-size="48" text-anchor="middle" fill="white">2.5</text><text x="1698.64" y="760.77" font-family="Consolas" font-size="48" text-anchor="middle" fill="white">2.1</text><text x="1846.35" y="760.77" font-family="Consolas" font-size="48" text-anchor="middle" fill="white">2.1</text> <text x="466.96" y="1010" font-family="Consolas" font-size="48" ttext-anchor="middle" fill="white">-0.6</text></g><g><text x="231.54" y="979.615384615385" transform="rotate(270 221.54 964.615384615385)" font-family="Consolas" font-size="50" fill="limegreen">2018</text><text x="379.25" y="979.615384615385" transform="rotate(270 369.25 964.615384615385)" font-family="Consolas" font-size="50" fill="limegreen">2019</text><text x="526.96" y="979.615384615385" transform="rotate(270 516.96 964.615384615385)" font-family="Consolas" font-size="50" fill="limegreen">2020</text><text x="674.67" y="979.615384615385" transform="rotate(270 664.67 964.615384615385)" font-family="Consolas" font-size="50" fill="limegreen">2021</text><text x="822.38" y="979.615384615385" transform="rotate(270 812.38 964.615384615385)" font-family="Consolas" font-size="50" fill="limegreen">2022</text><text x="970.09" y="979.615384615385" transform="rotate(270 960.09 964.615384615385)" font-family="Consolas" font-size="50" fill="limegreen">2023</text><text x="1117.8" y="979.615384615385" transform="rotate(270 1107.8 964.615384615385)" font-family="Consolas" font-size="50" fill="limegreen">2024</text><text x="1265.51" y="979.615384615385" transform="rotate(270 1255.51 964.615384615385)" font-family="Consolas" font-size="50" fill="limegreen">2025</text><text x="1413.22" y="979.615384615385" transform="rotate(270 1403.22 964.615384615385)" font-family="Consolas" font-size="50" fill="limegreen">2026</text><text x="1560.93" y="979.615384615385" transform="rotate(270 1550.93 964.615384615385)" font-family="Consolas" font-size="50" fill="limegreen">2027</text><text x="1708.64" y="979.615384615385" transform="rotate(270 1698.64 964.615384615385)" font-family="Consolas" font-size="50" fill="limegreen">2028</text><text x="1856.35" y="979.615384615385" transform="rotate(270 1846.35 964.615384615385)" font-family="Consolas" font-size="50" fill="limegreen">2029</text></g></g></svg>
