<svg xmlns="http://www.w3.org/2000/svg" width="1920" height="1080"> <rect width="100%" height="100%" fill="#000"/><g xmlns="http://www.w3.org/2000/svg" transform="translate(0,0) scale(1.0)"> <text  x="1080" y="60" font-family="Consolas" font-size="52" text-anchor="middle" fill="white">REAL  GDP ANNUAL PERCENT CHANGE (2018-2029) [IMF DATA]</text><text  x="1780" y="1050" font-family="Consolas" font-size="32" text-anchor="middle" fill="white">ZOOMIT WORLD</text><image x="180" y="-50" width="280" height="280" href="https://cdn.jsdelivr.net/gh/hampusborgos/country-flags@main/svg/bf.svg"></image><text x="70" y="180" font-family="Consolas" font-size="50" text-anchor="middle" fill="white">7%</text><text x="70" y="513.103448275862" font-family="Consolas" font-size="50" text-anchor="middle" fill="white">3.5%</text><text x="70" y="846.206896551724" font-family="Consolas" font-size="50" text-anchor="middle" fill="white">0%</text><text x="70" y="933.103448275862" font-family="Consolas" font-size="50" text-anchor="middle" fill="white">1%</text><text x="70" y="1020" font-family="Consolas" font-size="50" text-anchor="middle" fill="white">2%</text><line  x1="141.54" y1="180" x2="141.54" y2="1020" stroke="white" stroke-width="2"/><line x1="141.54"  y1="846.206896551724" x2="1920" y2="846.206896551724" stroke="white" stroke-width="5"/><g><rect x="171.54" y="208.965517241379" width="100" height="637.24" fill="none" stroke="limegreen" stroke-width="2"/><rect x="319.25" y="315.172413793103" width="100" height="531.03" fill="none" stroke="limegreen" stroke-width="2"/><rect x="466.96" y="662.758620689655" width="100" height="183.45" fill="none" stroke="limegreen" stroke-width="2"/><rect x="614.67" y="180" width="100" height="666.21" fill="none" stroke="limegreen" stroke-width="2"/><rect x="762.38" y="672.413793103448" width="100" height="173.79" fill="none" stroke="limegreen" stroke-width="2"/><rect x="910.09" y="546.896551724138" width="100" height="299.31" fill="none" stroke="limegreen" stroke-width="2"/><rect x="1057.8" y="315.172413793103" width="100" height="531.03" fill="none" stroke="limegreen" stroke-width="2"/><rect x="1205.51" y="286.206896551724" width="100" height="560.00" fill="none" stroke="limegreen" stroke-width="2"/><rect x="1353.22" y="363.448275862069" width="100" height="482.76" fill="none" stroke="limegreen" stroke-width="2"/><rect x="1500.93" y="373.103448275862" width="100" height="473.10" fill="none" stroke="limegreen" stroke-width="2"/><rect x="1648.64" y="373.103448275862" width="100" height="473.10" fill="none" stroke="limegreen" stroke-width="2"/><rect x="1796.35" y="363.448275862069" width="100" height="482.76" fill="none" stroke="limegreen" stroke-width="2"/>  </g><g><text x="221.54" y="198.97" font-family="Consolas" font-size="48" text-anchor="middle" fill="white">6.6</text><text x="369.25" y="305.17" font-family="Consolas" font-size="48" text-anchor="middle" fill="white">5.5</text><text x="516.96" y="652.76" font-family="Consolas" font-size="48" text-anchor="middle" fill="white">1.9</text><text x="664.67" y="170" font-family="Consolas" font-size="48" text-anchor="middle" fill="white">6.9</text><text x="812.38" y="662.41" font-family="Consolas" font-size="48" text-anchor="middle" fill="white">1.8</text><text x="960.09" y="536.9" font-family="Consolas" font-size="48" text-anchor="middle" fill="white">3.1</text><text x="1107.8" y="305.17" font-family="Consolas" font-size="48" text-anchor="middle" fill="white">5.5</text><text x="1255.51" y="276.21" font-family="Consolas" font-size="48" text-anchor="middle" fill="white">5.8</text><text x="1403.22" y="353.45" font-family="Consolas" font-size="48" text-anchor="middle" fill="white">5</text><text x="1550.93" y="363.1" font-family="Consolas" font-size="48" text-anchor="middle" fill="white">4.9</text><text x="1698.64" y="363.1" font-family="Consolas" font-size="48" text-anchor="middle" fill="white">4.9</text><text x="1846.35" y="353.45" font-family="Consolas" font-size="48" text-anchor="middle" fill="white">5</text> </g><g><text x="231.54" y="861.206896551724" transform="rotate(270 221.54 846.206896551724)" font-family="Consolas" font-size="50" fill="limegreen">2018</text><text x="379.25" y="861.206896551724" transform="rotate(270 369.25 846.206896551724)" font-family="Consolas" font-size="50" fill="limegreen">2019</text><text x="526.96" y="861.206896551724" transform="rotate(270 516.96 846.206896551724)" font-family="Consolas" font-size="50" fill="limegreen">2020</text><text x="674.67" y="861.206896551724" transform="rotate(270 664.67 846.206896551724)" font-family="Consolas" font-size="50" fill="limegreen">2021</text><text x="822.38" y="861.206896551724" transform="rotate(270 812.38 846.206896551724)" font-family="Consolas" font-size="50" fill="limegreen">2022</text><text x="970.09" y="861.206896551724" transform="rotate(270 960.09 846.206896551724)" font-family="Consolas" font-size="50" fill="limegreen">2023</text><text x="1117.8" y="861.206896551724" transform="rotate(270 1107.8 846.206896551724)" font-family="Consolas" font-size="50" fill="limegreen">2024</text><text x="1265.51" y="861.206896551724" transform="rotate(270 1255.51 846.206896551724)" font-family="Consolas" font-size="50" fill="limegreen">2025</text><text x="1413.22" y="861.206896551724" transform="rotate(270 1403.22 846.206896551724)" font-family="Consolas" font-size="50" fill="limegreen">2026</text><text x="1560.93" y="861.206896551724" transform="rotate(270 1550.93 846.206896551724)" font-family="Consolas" font-size="50" fill="limegreen">2027</text><text x="1708.64" y="861.206896551724" transform="rotate(270 1698.64 846.206896551724)" font-family="Consolas" font-size="50" fill="limegreen">2028</text><text x="1856.35" y="861.206896551724" transform="rotate(270 1846.35 846.206896551724)" font-family="Consolas" font-size="50" fill="limegreen">2029</text></g></g></svg>
