<svg xmlns="http://www.w3.org/2000/svg" width="1920" height="1080"> <rect width="100%" height="100%" fill="#000"/><g xmlns="http://www.w3.org/2000/svg" transform="translate(0,0) scale(1.0)"> <text  x="1080" y="60" font-family="Consolas" font-size="52" text-anchor="middle" fill="white">REAL  GDP ANNUAL PERCENT CHANGE (2018-2029) [IMF DATA]</text><text  x="1780" y="1050" font-family="Consolas" font-size="32" text-anchor="middle" fill="white">ZOOMIT WORLD</text><image x="180" y="-50" width="280" height="280" href="https://cdn.jsdelivr.net/gh/hampusborgos/country-flags@main/svg/eg.svg"></image><text x="70" y="180" font-family="Consolas" font-size="50" text-anchor="middle" fill="white">7%</text><text x="70" y="479.36170212766" font-family="Consolas" font-size="50" text-anchor="middle" fill="white">3.5%</text><text x="70" y="778.723404255319" font-family="Consolas" font-size="50" text-anchor="middle" fill="white">0%</text><text x="70" y="899.36170212766" font-family="Consolas" font-size="50" text-anchor="middle" fill="white">1.5%</text><text x="70" y="1020" font-family="Consolas" font-size="50" text-anchor="middle" fill="white">3%</text><line  x1="141.54" y1="180" x2="141.54" y2="1020" stroke="white" stroke-width="2"/><line x1="141.54"  y1="778.723404255319" x2="1920" y2="778.723404255319" stroke="white" stroke-width="5"/><g><rect x="171.54" y="305.106382978723" width="100" height="473.62" fill="none" stroke="limegreen" stroke-width="2"/><rect x="319.25" y="287.234042553191" width="100" height="491.49" fill="none" stroke="limegreen" stroke-width="2"/><rect x="466.96" y="457.021276595745" width="100" height="321.70" fill="none" stroke="limegreen" stroke-width="2"/><rect x="614.67" y="483.829787234043" width="100" height="294.89" fill="none" stroke="limegreen" stroke-width="2"/><rect x="762.38" y="180" width="100" height="598.72" fill="none" stroke="limegreen" stroke-width="2"/><rect x="910.09" y="439.148936170213" width="100" height="339.57" fill="none" stroke="limegreen" stroke-width="2"/><rect x="1057.8" y="537.446808510638" width="100" height="241.28" fill="none" stroke="limegreen" stroke-width="2"/><rect x="1205.51" y="412.340425531915" width="100" height="366.38" fill="none" stroke="limegreen" stroke-width="2"/><rect x="1353.22" y="322.978723404255" width="100" height="455.74" fill="none" stroke="limegreen" stroke-width="2"/><rect x="1500.93" y="314.042553191489" width="100" height="464.68" fill="none" stroke="limegreen" stroke-width="2"/><rect x="1648.64" y="278.297872340425" width="100" height="500.43" fill="none" stroke="limegreen" stroke-width="2"/><rect x="1796.35" y="269.361702127659" width="100" height="509.36" fill="none" stroke="limegreen" stroke-width="2"/>  </g><g><text x="221.54" y="295.11" font-family="Consolas" font-size="48" text-anchor="middle" fill="white">5.3</text><text x="369.25" y="277.23" font-family="Consolas" font-size="48" text-anchor="middle" fill="white">5.5</text><text x="516.96" y="447.02" font-family="Consolas" font-size="48" text-anchor="middle" fill="white">3.6</text><text x="664.67" y="473.83" font-family="Consolas" font-size="48" text-anchor="middle" fill="white">3.3</text><text x="812.38" y="170" font-family="Consolas" font-size="48" text-anchor="middle" fill="white">6.7</text><text x="960.09" y="429.15" font-family="Consolas" font-size="48" text-anchor="middle" fill="white">3.8</text><text x="1107.8" y="527.45" font-family="Consolas" font-size="48" text-anchor="middle" fill="white">2.7</text><text x="1255.51" y="402.34" font-family="Consolas" font-size="48" text-anchor="middle" fill="white">4.1</text><text x="1403.22" y="312.98" font-family="Consolas" font-size="48" text-anchor="middle" fill="white">5.1</text><text x="1550.93" y="304.04" font-family="Consolas" font-size="48" text-anchor="middle" fill="white">5.2</text><text x="1698.64" y="268.3" font-family="Consolas" font-size="48" text-anchor="middle" fill="white">5.6</text><text x="1846.35" y="259.36" font-family="Consolas" font-size="48" text-anchor="middle" fill="white">5.7</text> </g><g><text x="231.54" y="793.723404255319" transform="rotate(270 221.54 778.723404255319)" font-family="Consolas" font-size="50" fill="limegreen">2018</text><text x="379.25" y="793.723404255319" transform="rotate(270 369.25 778.723404255319)" font-family="Consolas" font-size="50" fill="limegreen">2019</text><text x="526.96" y="793.723404255319" transform="rotate(270 516.96 778.723404255319)" font-family="Consolas" font-size="50" fill="limegreen">2020</text><text x="674.67" y="793.723404255319" transform="rotate(270 664.67 778.723404255319)" font-family="Consolas" font-size="50" fill="limegreen">2021</text><text x="822.38" y="793.723404255319" transform="rotate(270 812.38 778.723404255319)" font-family="Consolas" font-size="50" fill="limegreen">2022</text><text x="970.09" y="793.723404255319" transform="rotate(270 960.09 778.723404255319)" font-family="Consolas" font-size="50" fill="limegreen">2023</text><text x="1117.8" y="793.723404255319" transform="rotate(270 1107.8 778.723404255319)" font-family="Consolas" font-size="50" fill="limegreen">2024</text><text x="1265.51" y="793.723404255319" transform="rotate(270 1255.51 778.723404255319)" font-family="Consolas" font-size="50" fill="limegreen">2025</text><text x="1413.22" y="793.723404255319" transform="rotate(270 1403.22 778.723404255319)" font-family="Consolas" font-size="50" fill="limegreen">2026</text><text x="1560.93" y="793.723404255319" transform="rotate(270 1550.93 778.723404255319)" font-family="Consolas" font-size="50" fill="limegreen">2027</text><text x="1708.64" y="793.723404255319" transform="rotate(270 1698.64 778.723404255319)" font-family="Consolas" font-size="50" fill="limegreen">2028</text><text x="1856.35" y="793.723404255319" transform="rotate(270 1846.35 778.723404255319)" font-family="Consolas" font-size="50" fill="limegreen">2029</text></g></g></svg>
