<svg xmlns="http://www.w3.org/2000/svg" width="1920" height="1080"> <rect width="100%" height="100%" fill="#000"/><g xmlns="http://www.w3.org/2000/svg" transform="translate(0,0) scale(1.0)"> <text  x="1080" y="60" font-family="Consolas" font-size="52" text-anchor="middle" fill="white">REAL  GDP ANNUAL PERCENT CHANGE (2018-2029) [IMF DATA]</text><text  x="1780" y="1050" font-family="Consolas" font-size="32" text-anchor="middle" fill="white">ZOOMIT WORLD</text><image x="180" y="-50" width="280" height="280" href="https://cdn.jsdelivr.net/gh/hampusborgos/country-flags@main/svg/la.svg"></image><text x="70" y="180" font-family="Consolas" font-size="50" text-anchor="middle" fill="white">6%</text><text x="70" y="574.545454545455" font-family="Consolas" font-size="50" text-anchor="middle" fill="white">3%</text><text x="70" y="969.090909090909" font-family="Consolas" font-size="50" text-anchor="middle" fill="white">0%</text><text x="70" y="994.545454545455" font-family="Consolas" font-size="50" text-anchor="middle" fill="white">0%</text><text x="70" y="1020" font-family="Consolas" font-size="50" text-anchor="middle" fill="white">0%</text><line  x1="141.54" y1="180" x2="141.54" y2="1020" stroke="white" stroke-width="2"/><line x1="141.54"  y1="969.090909090909" x2="1920" y2="969.090909090909" stroke="white" stroke-width="5"/><g><rect x="171.54" y="180" width="100" height="789.09" fill="none" stroke="limegreen" stroke-width="2"/><rect x="319.25" y="370.909090909091" width="100" height="598.18" fill="none" stroke="limegreen" stroke-width="2"/><rect x="614.67" y="701.818181818182" width="100" height="267.27" fill="none" stroke="limegreen" stroke-width="2"/><rect x="762.38" y="676.363636363636" width="100" height="292.73" fill="none" stroke="limegreen" stroke-width="2"/><rect x="910.09" y="498.181818181818" width="100" height="470.91" fill="none" stroke="limegreen" stroke-width="2"/><rect x="1057.8" y="447.272727272727" width="100" height="521.82" fill="none" stroke="limegreen" stroke-width="2"/><rect x="1205.51" y="523.636363636364" width="100" height="445.45" fill="none" stroke="limegreen" stroke-width="2"/><rect x="1353.22" y="574.545454545455" width="100" height="394.55" fill="none" stroke="limegreen" stroke-width="2"/><rect x="1500.93" y="612.727272727273" width="100" height="356.36" fill="none" stroke="limegreen" stroke-width="2"/><rect x="1648.64" y="638.181818181818" width="100" height="330.91" fill="none" stroke="limegreen" stroke-width="2"/><rect x="1796.35" y="650.909090909091" width="100" height="318.18" fill="none" stroke="limegreen" stroke-width="2"/> <rect x="466.96" y="969.090909090909" width="100" height="50.91" fill="none" stroke="limegreen" stroke-width="2"/> </g><g><text x="221.54" y="170" font-family="Consolas" font-size="48" text-anchor="middle" fill="white">6.2</text><text x="369.25" y="360.91" font-family="Consolas" font-size="48" text-anchor="middle" fill="white">4.7</text><text x="664.67" y="691.82" font-family="Consolas" font-size="48" text-anchor="middle" fill="white">2.1</text><text x="812.38" y="666.36" font-family="Consolas" font-size="48" text-anchor="middle" fill="white">2.3</text><text x="960.09" y="488.18" font-family="Consolas" font-size="48" text-anchor="middle" fill="white">3.7</text><text x="1107.8" y="437.27" font-family="Consolas" font-size="48" text-anchor="middle" fill="white">4.1</text><text x="1255.51" y="513.64" font-family="Consolas" font-size="48" text-anchor="middle" fill="white">3.5</text><text x="1403.22" y="564.55" font-family="Consolas" font-size="48" text-anchor="middle" fill="white">3.1</text><text x="1550.93" y="602.73" font-family="Consolas" font-size="48" text-anchor="middle" fill="white">2.8</text><text x="1698.64" y="628.18" font-family="Consolas" font-size="48" text-anchor="middle" fill="white">2.6</text><text x="1846.35" y="640.91" font-family="Consolas" font-size="48" text-anchor="middle" fill="white">2.5</text> <text x="466.96" y="1010" font-family="Consolas" font-size="48" ttext-anchor="middle" fill="white">-0.4</text></g><g><text x="231.54" y="984.090909090909" transform="rotate(270 221.54 969.090909090909)" font-family="Consolas" font-size="50" fill="limegreen">2018</text><text x="379.25" y="984.090909090909" transform="rotate(270 369.25 969.090909090909)" font-family="Consolas" font-size="50" fill="limegreen">2019</text><text x="526.96" y="984.090909090909" transform="rotate(270 516.96 969.090909090909)" font-family="Consolas" font-size="50" fill="limegreen">2020</text><text x="674.67" y="984.090909090909" transform="rotate(270 664.67 969.090909090909)" font-family="Consolas" font-size="50" fill="limegreen">2021</text><text x="822.38" y="984.090909090909" transform="rotate(270 812.38 969.090909090909)" font-family="Consolas" font-size="50" fill="limegreen">2022</text><text x="970.09" y="984.090909090909" transform="rotate(270 960.09 969.090909090909)" font-family="Consolas" font-size="50" fill="limegreen">2023</text><text x="1117.8" y="984.090909090909" transform="rotate(270 1107.8 969.090909090909)" font-family="Consolas" font-size="50" fill="limegreen">2024</text><text x="1265.51" y="984.090909090909" transform="rotate(270 1255.51 969.090909090909)" font-family="Consolas" font-size="50" fill="limegreen">2025</text><text x="1413.22" y="984.090909090909" transform="rotate(270 1403.22 969.090909090909)" font-family="Consolas" font-size="50" fill="limegreen">2026</text><text x="1560.93" y="984.090909090909" transform="rotate(270 1550.93 969.090909090909)" font-family="Consolas" font-size="50" fill="limegreen">2027</text><text x="1708.64" y="984.090909090909" transform="rotate(270 1698.64 969.090909090909)" font-family="Consolas" font-size="50" fill="limegreen">2028</text><text x="1856.35" y="984.090909090909" transform="rotate(270 1846.35 969.090909090909)" font-family="Consolas" font-size="50" fill="limegreen">2029</text></g></g></svg>
