<svg xmlns="http://www.w3.org/2000/svg" width="1920" height="1080"> <rect width="100%" height="100%" fill="#000"/><g xmlns="http://www.w3.org/2000/svg" transform="translate(0,0) scale(1.0)"> <text  x="1080" y="60" font-family="Consolas" font-size="52" text-anchor="middle" fill="white">REAL  GDP ANNUAL PERCENT CHANGE (2018-2029) [IMF DATA]</text><text  x="1780" y="1050" font-family="Consolas" font-size="32" text-anchor="middle" fill="white">ZOOMIT WORLD</text><image x="180" y="-50" width="280" height="280" href="https://cdn.jsdelivr.net/gh/hampusborgos/country-flags@main/svg/tj.svg"></image><text x="70" y="180" font-family="Consolas" font-size="50" text-anchor="middle" fill="white">9%</text><text x="70" y="466.086956521739" font-family="Consolas" font-size="50" text-anchor="middle" fill="white">4.5%</text><text x="70" y="752.173913043478" font-family="Consolas" font-size="50" text-anchor="middle" fill="white">0%</text><text x="70" y="886.086956521739" font-family="Consolas" font-size="50" text-anchor="middle" fill="white">2%</text><text x="70" y="1020" font-family="Consolas" font-size="50" text-anchor="middle" fill="white">4%</text><line  x1="141.54" y1="180" x2="141.54" y2="1020" stroke="white" stroke-width="2"/><line x1="141.54"  y1="752.173913043478" x2="1920" y2="752.173913043478" stroke="white" stroke-width="5"/><g><rect x="171.54" y="289.565217391304" width="100" height="462.61" fill="none" stroke="limegreen" stroke-width="2"/><rect x="319.25" y="301.739130434783" width="100" height="450.43" fill="none" stroke="limegreen" stroke-width="2"/><rect x="466.96" y="484.347826086957" width="100" height="267.83" fill="none" stroke="limegreen" stroke-width="2"/><rect x="614.67" y="180" width="100" height="572.17" fill="none" stroke="limegreen" stroke-width="2"/><rect x="762.38" y="265.217391304348" width="100" height="486.96" fill="none" stroke="limegreen" stroke-width="2"/><rect x="910.09" y="246.95652173913" width="100" height="505.22" fill="none" stroke="limegreen" stroke-width="2"/><rect x="1057.8" y="338.260869565217" width="100" height="413.91" fill="none" stroke="limegreen" stroke-width="2"/><rect x="1205.51" y="478.260869565217" width="100" height="273.91" fill="none" stroke="limegreen" stroke-width="2"/><rect x="1353.22" y="478.260869565217" width="100" height="273.91" fill="none" stroke="limegreen" stroke-width="2"/><rect x="1500.93" y="478.260869565217" width="100" height="273.91" fill="none" stroke="limegreen" stroke-width="2"/><rect x="1648.64" y="478.260869565217" width="100" height="273.91" fill="none" stroke="limegreen" stroke-width="2"/><rect x="1796.35" y="478.260869565217" width="100" height="273.91" fill="none" stroke="limegreen" stroke-width="2"/>  </g><g><text x="221.54" y="279.57" font-family="Consolas" font-size="48" text-anchor="middle" fill="white">7.6</text><text x="369.25" y="291.74" font-family="Consolas" font-size="48" text-anchor="middle" fill="white">7.4</text><text x="516.96" y="474.35" font-family="Consolas" font-size="48" text-anchor="middle" fill="white">4.4</text><text x="664.67" y="170" font-family="Consolas" font-size="48" text-anchor="middle" fill="white">9.4</text><text x="812.38" y="255.22" font-family="Consolas" font-size="48" text-anchor="middle" fill="white">8</text><text x="960.09" y="236.96" font-family="Consolas" font-size="48" text-anchor="middle" fill="white">8.3</text><text x="1107.8" y="328.26" font-family="Consolas" font-size="48" text-anchor="middle" fill="white">6.8</text><text x="1255.51" y="468.26" font-family="Consolas" font-size="48" text-anchor="middle" fill="white">4.5</text><text x="1403.22" y="468.26" font-family="Consolas" font-size="48" text-anchor="middle" fill="white">4.5</text><text x="1550.93" y="468.26" font-family="Consolas" font-size="48" text-anchor="middle" fill="white">4.5</text><text x="1698.64" y="468.26" font-family="Consolas" font-size="48" text-anchor="middle" fill="white">4.5</text><text x="1846.35" y="468.26" font-family="Consolas" font-size="48" text-anchor="middle" fill="white">4.5</text> </g><g><text x="231.54" y="767.173913043478" transform="rotate(270 221.54 752.173913043478)" font-family="Consolas" font-size="50" fill="limegreen">2018</text><text x="379.25" y="767.173913043478" transform="rotate(270 369.25 752.173913043478)" font-family="Consolas" font-size="50" fill="limegreen">2019</text><text x="526.96" y="767.173913043478" transform="rotate(270 516.96 752.173913043478)" font-family="Consolas" font-size="50" fill="limegreen">2020</text><text x="674.67" y="767.173913043478" transform="rotate(270 664.67 752.173913043478)" font-family="Consolas" font-size="50" fill="limegreen">2021</text><text x="822.38" y="767.173913043478" transform="rotate(270 812.38 752.173913043478)" font-family="Consolas" font-size="50" fill="limegreen">2022</text><text x="970.09" y="767.173913043478" transform="rotate(270 960.09 752.173913043478)" font-family="Consolas" font-size="50" fill="limegreen">2023</text><text x="1117.8" y="767.173913043478" transform="rotate(270 1107.8 752.173913043478)" font-family="Consolas" font-size="50" fill="limegreen">2024</text><text x="1265.51" y="767.173913043478" transform="rotate(270 1255.51 752.173913043478)" font-family="Consolas" font-size="50" fill="limegreen">2025</text><text x="1413.22" y="767.173913043478" transform="rotate(270 1403.22 752.173913043478)" font-family="Consolas" font-size="50" fill="limegreen">2026</text><text x="1560.93" y="767.173913043478" transform="rotate(270 1550.93 752.173913043478)" font-family="Consolas" font-size="50" fill="limegreen">2027</text><text x="1708.64" y="767.173913043478" transform="rotate(270 1698.64 752.173913043478)" font-family="Consolas" font-size="50" fill="limegreen">2028</text><text x="1856.35" y="767.173913043478" transform="rotate(270 1846.35 752.173913043478)" font-family="Consolas" font-size="50" fill="limegreen">2029</text></g></g></svg>
