<svg xmlns="http://www.w3.org/2000/svg" width="1920" height="1080"> <rect width="100%" height="100%" fill="#000"/><g xmlns="http://www.w3.org/2000/svg" transform="translate(0,0) scale(1.0)"> <text  x="1080" y="60" font-family="Consolas" font-size="52" text-anchor="middle" fill="white">REAL  GDP ANNUAL PERCENT CHANGE (2018-2029) [IMF DATA]</text><text  x="1780" y="1050" font-family="Consolas" font-size="32" text-anchor="middle" fill="white">ZOOMIT WORLD</text><image x="180" y="-50" width="280" height="280" href="https://cdn.jsdelivr.net/gh/hampusborgos/country-flags@main/svg/ne.svg"></image><text x="70" y="180" font-family="Consolas" font-size="50" text-anchor="middle" fill="white">12%</text><text x="70" y="555.789473684211" font-family="Consolas" font-size="50" text-anchor="middle" fill="white">6%</text><text x="70" y="931.578947368421" font-family="Consolas" font-size="50" text-anchor="middle" fill="white">0%</text><text x="70" y="975.789473684211" font-family="Consolas" font-size="50" text-anchor="middle" fill="white">0.5%</text><text x="70" y="1020" font-family="Consolas" font-size="50" text-anchor="middle" fill="white">1%</text><line  x1="141.54" y1="180" x2="141.54" y2="1020" stroke="white" stroke-width="2"/><line x1="141.54"  y1="931.578947368421" x2="1920" y2="931.578947368421" stroke="white" stroke-width="5"/><g><rect x="171.54" y="489.473684210526" width="100" height="442.11" fill="none" stroke="limegreen" stroke-width="2"/><rect x="319.25" y="546.315789473684" width="100" height="385.26" fill="none" stroke="limegreen" stroke-width="2"/><rect x="466.96" y="710.526315789474" width="100" height="221.05" fill="none" stroke="limegreen" stroke-width="2"/><rect x="614.67" y="843.157894736842" width="100" height="88.42" fill="none" stroke="limegreen" stroke-width="2"/><rect x="762.38" y="180" width="100" height="751.58" fill="none" stroke="limegreen" stroke-width="2"/><rect x="910.09" y="780" width="100" height="151.58" fill="none" stroke="limegreen" stroke-width="2"/><rect x="1057.8" y="306.315789473684" width="100" height="625.26" fill="none" stroke="limegreen" stroke-width="2"/><rect x="1205.51" y="470.526315789474" width="100" height="461.05" fill="none" stroke="limegreen" stroke-width="2"/><rect x="1353.22" y="546.315789473684" width="100" height="385.26" fill="none" stroke="limegreen" stroke-width="2"/><rect x="1500.93" y="527.368421052632" width="100" height="404.21" fill="none" stroke="limegreen" stroke-width="2"/><rect x="1648.64" y="552.631578947368" width="100" height="378.95" fill="none" stroke="limegreen" stroke-width="2"/><rect x="1796.35" y="552.631578947368" width="100" height="378.95" fill="none" stroke="limegreen" stroke-width="2"/>  </g><g><text x="221.54" y="479.47" font-family="Consolas" font-size="48" text-anchor="middle" fill="white">7</text><text x="369.25" y="536.32" font-family="Consolas" font-size="48" text-anchor="middle" fill="white">6.1</text><text x="516.96" y="700.53" font-family="Consolas" font-size="48" text-anchor="middle" fill="white">3.5</text><text x="664.67" y="833.16" font-family="Consolas" font-size="48" text-anchor="middle" fill="white">1.4</text><text x="812.38" y="170" font-family="Consolas" font-size="48" text-anchor="middle" fill="white">11.9</text><text x="960.09" y="770" font-family="Consolas" font-size="48" text-anchor="middle" fill="white">2.4</text><text x="1107.8" y="296.32" font-family="Consolas" font-size="48" text-anchor="middle" fill="white">9.9</text><text x="1255.51" y="460.53" font-family="Consolas" font-size="48" text-anchor="middle" fill="white">7.3</text><text x="1403.22" y="536.32" font-family="Consolas" font-size="48" text-anchor="middle" fill="white">6.1</text><text x="1550.93" y="517.37" font-family="Consolas" font-size="48" text-anchor="middle" fill="white">6.4</text><text x="1698.64" y="542.63" font-family="Consolas" font-size="48" text-anchor="middle" fill="white">6</text><text x="1846.35" y="542.63" font-family="Consolas" font-size="48" text-anchor="middle" fill="white">6</text> </g><g><text x="231.54" y="946.578947368421" transform="rotate(270 221.54 931.578947368421)" font-family="Consolas" font-size="50" fill="limegreen">2018</text><text x="379.25" y="946.578947368421" transform="rotate(270 369.25 931.578947368421)" font-family="Consolas" font-size="50" fill="limegreen">2019</text><text x="526.96" y="946.578947368421" transform="rotate(270 516.96 931.578947368421)" font-family="Consolas" font-size="50" fill="limegreen">2020</text><text x="674.67" y="946.578947368421" transform="rotate(270 664.67 931.578947368421)" font-family="Consolas" font-size="50" fill="limegreen">2021</text><text x="822.38" y="946.578947368421" transform="rotate(270 812.38 931.578947368421)" font-family="Consolas" font-size="50" fill="limegreen">2022</text><text x="970.09" y="946.578947368421" transform="rotate(270 960.09 931.578947368421)" font-family="Consolas" font-size="50" fill="limegreen">2023</text><text x="1117.8" y="946.578947368421" transform="rotate(270 1107.8 931.578947368421)" font-family="Consolas" font-size="50" fill="limegreen">2024</text><text x="1265.51" y="946.578947368421" transform="rotate(270 1255.51 931.578947368421)" font-family="Consolas" font-size="50" fill="limegreen">2025</text><text x="1413.22" y="946.578947368421" transform="rotate(270 1403.22 931.578947368421)" font-family="Consolas" font-size="50" fill="limegreen">2026</text><text x="1560.93" y="946.578947368421" transform="rotate(270 1550.93 931.578947368421)" font-family="Consolas" font-size="50" fill="limegreen">2027</text><text x="1708.64" y="946.578947368421" transform="rotate(270 1698.64 931.578947368421)" font-family="Consolas" font-size="50" fill="limegreen">2028</text><text x="1856.35" y="946.578947368421" transform="rotate(270 1846.35 931.578947368421)" font-family="Consolas" font-size="50" fill="limegreen">2029</text></g></g></svg>
