<svg xmlns="http://www.w3.org/2000/svg" width="1920" height="1080"> <rect width="100%" height="100%" fill="#000"/><g xmlns="http://www.w3.org/2000/svg" transform="translate(0,0) scale(1.0)"> <text  x="1080" y="60" font-family="Consolas" font-size="52" text-anchor="middle" fill="white">REAL  GDP ANNUAL PERCENT CHANGE (2018-2029) [IMF DATA]</text><text  x="1780" y="1050" font-family="Consolas" font-size="32" text-anchor="middle" fill="white">ZOOMIT WORLD</text><image x="180" y="-50" width="280" height="280" href="https://cdn.jsdelivr.net/gh/hampusborgos/country-flags@main/svg/bd.svg"></image><text x="70" y="180" font-family="Consolas" font-size="50" text-anchor="middle" fill="white">8%</text><text x="70" y="473.628318584071" font-family="Consolas" font-size="50" text-anchor="middle" fill="white">4%</text><text x="70" y="767.256637168142" font-family="Consolas" font-size="50" text-anchor="middle" fill="white">0%</text><text x="70" y="893.628318584071" font-family="Consolas" font-size="50" text-anchor="middle" fill="white">1.5%</text><text x="70" y="1020" font-family="Consolas" font-size="50" text-anchor="middle" fill="white">3%</text><line  x1="141.54" y1="180" x2="141.54" y2="1020" stroke="white" stroke-width="2"/><line x1="141.54"  y1="767.256637168142" x2="1920" y2="767.256637168142" stroke="white" stroke-width="5"/><g><rect x="171.54" y="224.601769911504" width="100" height="542.65" fill="none" stroke="limegreen" stroke-width="2"/><rect x="319.25" y="180" width="100" height="587.26" fill="none" stroke="limegreen" stroke-width="2"/><rect x="466.96" y="514.513274336283" width="100" height="252.74" fill="none" stroke="limegreen" stroke-width="2"/><rect x="614.67" y="254.336283185841" width="100" height="512.92" fill="none" stroke="limegreen" stroke-width="2"/><rect x="762.38" y="239.469026548673" width="100" height="527.79" fill="none" stroke="limegreen" stroke-width="2"/><rect x="910.09" y="336.106194690266" width="100" height="431.15" fill="none" stroke="limegreen" stroke-width="2"/><rect x="1057.8" y="365.840707964602" width="100" height="401.42" fill="none" stroke="limegreen" stroke-width="2"/><rect x="1205.51" y="432.743362831858" width="100" height="334.51" fill="none" stroke="limegreen" stroke-width="2"/><rect x="1353.22" y="194.867256637168" width="100" height="572.39" fill="none" stroke="limegreen" stroke-width="2"/><rect x="1500.93" y="224.601769911504" width="100" height="542.65" fill="none" stroke="limegreen" stroke-width="2"/><rect x="1648.64" y="269.203539823009" width="100" height="498.05" fill="none" stroke="limegreen" stroke-width="2"/><rect x="1796.35" y="284.070796460177" width="100" height="483.19" fill="none" stroke="limegreen" stroke-width="2"/>  </g><g><text x="221.54" y="214.6" font-family="Consolas" font-size="48" text-anchor="middle" fill="white">7.3</text><text x="369.25" y="170" font-family="Consolas" font-size="48" text-anchor="middle" fill="white">7.9</text><text x="516.96" y="504.51" font-family="Consolas" font-size="48" text-anchor="middle" fill="white">3.4</text><text x="664.67" y="244.34" font-family="Consolas" font-size="48" text-anchor="middle" fill="white">6.9</text><text x="812.38" y="229.47" font-family="Consolas" font-size="48" text-anchor="middle" fill="white">7.1</text><text x="960.09" y="326.11" font-family="Consolas" font-size="48" text-anchor="middle" fill="white">5.8</text><text x="1107.8" y="355.84" font-family="Consolas" font-size="48" text-anchor="middle" fill="white">5.4</text><text x="1255.51" y="422.74" font-family="Consolas" font-size="48" text-anchor="middle" fill="white">4.5</text><text x="1403.22" y="184.87" font-family="Consolas" font-size="48" text-anchor="middle" fill="white">7.7</text><text x="1550.93" y="214.6" font-family="Consolas" font-size="48" text-anchor="middle" fill="white">7.3</text><text x="1698.64" y="259.2" font-family="Consolas" font-size="48" text-anchor="middle" fill="white">6.7</text><text x="1846.35" y="274.07" font-family="Consolas" font-size="48" text-anchor="middle" fill="white">6.5</text> </g><g><text x="231.54" y="782.256637168142" transform="rotate(270 221.54 767.256637168142)" font-family="Consolas" font-size="50" fill="limegreen">2018</text><text x="379.25" y="782.256637168142" transform="rotate(270 369.25 767.256637168142)" font-family="Consolas" font-size="50" fill="limegreen">2019</text><text x="526.96" y="782.256637168142" transform="rotate(270 516.96 767.256637168142)" font-family="Consolas" font-size="50" fill="limegreen">2020</text><text x="674.67" y="782.256637168142" transform="rotate(270 664.67 767.256637168142)" font-family="Consolas" font-size="50" fill="limegreen">2021</text><text x="822.38" y="782.256637168142" transform="rotate(270 812.38 767.256637168142)" font-family="Consolas" font-size="50" fill="limegreen">2022</text><text x="970.09" y="782.256637168142" transform="rotate(270 960.09 767.256637168142)" font-family="Consolas" font-size="50" fill="limegreen">2023</text><text x="1117.8" y="782.256637168142" transform="rotate(270 1107.8 767.256637168142)" font-family="Consolas" font-size="50" fill="limegreen">2024</text><text x="1265.51" y="782.256637168142" transform="rotate(270 1255.51 767.256637168142)" font-family="Consolas" font-size="50" fill="limegreen">2025</text><text x="1413.22" y="782.256637168142" transform="rotate(270 1403.22 767.256637168142)" font-family="Consolas" font-size="50" fill="limegreen">2026</text><text x="1560.93" y="782.256637168142" transform="rotate(270 1550.93 767.256637168142)" font-family="Consolas" font-size="50" fill="limegreen">2027</text><text x="1708.64" y="782.256637168142" transform="rotate(270 1698.64 767.256637168142)" font-family="Consolas" font-size="50" fill="limegreen">2028</text><text x="1856.35" y="782.256637168142" transform="rotate(270 1846.35 767.256637168142)" font-family="Consolas" font-size="50" fill="limegreen">2029</text></g></g></svg>
