<svg xmlns="http://www.w3.org/2000/svg" width="1920" height="1080"> <rect width="100%" height="100%" fill="#000"/><g xmlns="http://www.w3.org/2000/svg" transform="translate(0,0) scale(1.0)"> <text  x="1080" y="60" font-family="Consolas" font-size="52" text-anchor="middle" fill="white">REAL  GDP ANNUAL PERCENT CHANGE (2018-2029) [IMF DATA]</text><text  x="1700" y="1050" font-family="Consolas" font-size="22" text-anchor="middle" fill="white">DESIGNED BY ZOOMIT WORLD</text><image x="180" y="-50" width="280" height="280" href="https://cdn.jsdelivr.net/gh/hampusborgos/country-flags@main/svg/bs.svg"></image><text x="70" y="180" font-family="Consolas" font-size="50" text-anchor="middle" fill="white">8%</text><text x="70" y="379.322033898305" font-family="Consolas" font-size="50" text-anchor="middle" fill="white">4%</text><text x="70" y="578.64406779661" font-family="Consolas" font-size="50" text-anchor="middle" fill="white">0%</text><text x="70" y="799.322033898305" font-family="Consolas" font-size="50" text-anchor="middle" fill="white">-4.5%</text><text x="70" y="1020" font-family="Consolas" font-size="50" text-anchor="middle" fill="white">-9%</text><line  x1="141.54" y1="180" x2="141.54" y2="1020" stroke="white" stroke-width="2"/><line x1="141.54"  y1="578.64406779661" x2="1920" y2="578.64406779661" stroke="white" stroke-width="5"/><g><rect x="171.54" y="497.966101694915" width="100" height="80.68" fill="none" stroke="limegreen" stroke-width="2"/><rect x="319.25" y="488.474576271186" width="100" height="90.17" fill="none" stroke="limegreen" stroke-width="2"/><rect x="614.67" y="180" width="100" height="398.64" fill="none" stroke="limegreen" stroke-width="2"/><rect x="762.38" y="312.881355932204" width="100" height="265.76" fill="none" stroke="limegreen" stroke-width="2"/><rect x="910.09" y="483.728813559322" width="100" height="94.92" fill="none" stroke="limegreen" stroke-width="2"/><rect x="1057.8" y="469.491525423729" width="100" height="109.15" fill="none" stroke="limegreen" stroke-width="2"/><rect x="1205.51" y="483.728813559322" width="100" height="94.92" fill="none" stroke="limegreen" stroke-width="2"/><rect x="1353.22" y="497.966101694915" width="100" height="80.68" fill="none" stroke="limegreen" stroke-width="2"/><rect x="1500.93" y="507.457627118644" width="100" height="71.19" fill="none" stroke="limegreen" stroke-width="2"/><rect x="1648.64" y="512.203389830509" width="100" height="66.44" fill="none" stroke="limegreen" stroke-width="2"/><rect x="1796.35" y="516.949152542373" width="100" height="61.69" fill="none" stroke="limegreen" stroke-width="2"/> <rect x="466.96" y="578.64406779661" width="100" height="441.36" fill="none" stroke="limegreen" stroke-width="2"/> </g><g><text x="221.54" y="487.97" font-family="Consolas" font-size="48" text-anchor="middle" fill="white">1.7</text><text x="369.25" y="478.47" font-family="Consolas" font-size="48" text-anchor="middle" fill="white">1.9</text><text x="664.67" y="170" font-family="Consolas" font-size="48" text-anchor="middle" fill="white">8.4</text><text x="812.38" y="302.88" font-family="Consolas" font-size="48" text-anchor="middle" fill="white">5.6</text><text x="960.09" y="473.73" font-family="Consolas" font-size="48" text-anchor="middle" fill="white">2</text><text x="1107.8" y="459.49" font-family="Consolas" font-size="48" text-anchor="middle" fill="white">2.3</text><text x="1255.51" y="473.73" font-family="Consolas" font-size="48" text-anchor="middle" fill="white">2</text><text x="1403.22" y="487.97" font-family="Consolas" font-size="48" text-anchor="middle" fill="white">1.7</text><text x="1550.93" y="497.46" font-family="Consolas" font-size="48" text-anchor="middle" fill="white">1.5</text><text x="1698.64" y="502.2" font-family="Consolas" font-size="48" text-anchor="middle" fill="white">1.4</text><text x="1846.35" y="506.95" font-family="Consolas" font-size="48" text-anchor="middle" fill="white">1.3</text> <text x="466.96" y="1010" font-family="Consolas" font-size="48" ttext-anchor="middle" fill="white">-9.3</text></g><g><text x="231.54" y="593.64406779661" transform="rotate(270 221.54 578.64406779661)" font-family="Consolas" font-size="50" fill="limegreen">2018</text><text x="379.25" y="593.64406779661" transform="rotate(270 369.25 578.64406779661)" font-family="Consolas" font-size="50" fill="limegreen">2019</text><text x="526.96" y="593.64406779661" transform="rotate(270 516.96 578.64406779661)" font-family="Consolas" font-size="50" fill="limegreen">2020</text><text x="674.67" y="593.64406779661" transform="rotate(270 664.67 578.64406779661)" font-family="Consolas" font-size="50" fill="limegreen">2021</text><text x="822.38" y="593.64406779661" transform="rotate(270 812.38 578.64406779661)" font-family="Consolas" font-size="50" fill="limegreen">2022</text><text x="970.09" y="593.64406779661" transform="rotate(270 960.09 578.64406779661)" font-family="Consolas" font-size="50" fill="limegreen">2023</text><text x="1117.8" y="593.64406779661" transform="rotate(270 1107.8 578.64406779661)" font-family="Consolas" font-size="50" fill="limegreen">2024</text><text x="1265.51" y="593.64406779661" transform="rotate(270 1255.51 578.64406779661)" font-family="Consolas" font-size="50" fill="limegreen">2025</text><text x="1413.22" y="593.64406779661" transform="rotate(270 1403.22 578.64406779661)" font-family="Consolas" font-size="50" fill="limegreen">2026</text><text x="1560.93" y="593.64406779661" transform="rotate(270 1550.93 578.64406779661)" font-family="Consolas" font-size="50" fill="limegreen">2027</text><text x="1708.64" y="593.64406779661" transform="rotate(270 1698.64 578.64406779661)" font-family="Consolas" font-size="50" fill="limegreen">2028</text><text x="1856.35" y="593.64406779661" transform="rotate(270 1846.35 578.64406779661)" font-family="Consolas" font-size="50" fill="limegreen">2029</text></g></g></svg>
