<svg xmlns="http://www.w3.org/2000/svg" width="1920" height="1080"> <rect width="100%" height="100%" fill="#000"/><g xmlns="http://www.w3.org/2000/svg" transform="translate(0,0) scale(1.0)"> <text  x="1080" y="60" font-family="Consolas" font-size="52" text-anchor="middle" fill="white">REAL  GDP ANNUAL PERCENT CHANGE (2018-2029) [IMF DATA]</text><text  x="1780" y="1050" font-family="Consolas" font-size="32" text-anchor="middle" fill="white">ZOOMIT WORLD</text><image x="180" y="-50" width="280" height="280" href="https://cdn.jsdelivr.net/gh/hampusborgos/country-flags@main/svg/cy.svg"></image><text x="70" y="180" font-family="Consolas" font-size="50" text-anchor="middle" fill="white">10%</text><text x="70" y="492.631578947368" font-family="Consolas" font-size="50" text-anchor="middle" fill="white">5%</text><text x="70" y="805.263157894737" font-family="Consolas" font-size="50" text-anchor="middle" fill="white">0%</text><text x="70" y="912.631578947368" font-family="Consolas" font-size="50" text-anchor="middle" fill="white">-1.5%</text><text x="70" y="1020" font-family="Consolas" font-size="50" text-anchor="middle" fill="white">-3%</text><line  x1="141.54" y1="180" x2="141.54" y2="1020" stroke="white" stroke-width="2"/><line x1="141.54"  y1="805.263157894737" x2="1920" y2="805.263157894737" stroke="white" stroke-width="5"/><g><rect x="171.54" y="451.578947368421" width="100" height="353.68" fill="none" stroke="limegreen" stroke-width="2"/><rect x="319.25" y="457.894736842105" width="100" height="347.37" fill="none" stroke="limegreen" stroke-width="2"/><rect x="614.67" y="180" width="100" height="625.26" fill="none" stroke="limegreen" stroke-width="2"/><rect x="762.38" y="483.157894736842" width="100" height="322.11" fill="none" stroke="limegreen" stroke-width="2"/><rect x="910.09" y="647.368421052632" width="100" height="157.89" fill="none" stroke="limegreen" stroke-width="2"/><rect x="1057.8" y="596.842105263158" width="100" height="208.42" fill="none" stroke="limegreen" stroke-width="2"/><rect x="1205.51" y="609.473684210526" width="100" height="195.79" fill="none" stroke="limegreen" stroke-width="2"/><rect x="1353.22" y="615.789473684211" width="100" height="189.47" fill="none" stroke="limegreen" stroke-width="2"/><rect x="1500.93" y="615.789473684211" width="100" height="189.47" fill="none" stroke="limegreen" stroke-width="2"/><rect x="1648.64" y="615.789473684211" width="100" height="189.47" fill="none" stroke="limegreen" stroke-width="2"/><rect x="1796.35" y="615.789473684211" width="100" height="189.47" fill="none" stroke="limegreen" stroke-width="2"/> <rect x="466.96" y="805.263157894737" width="100" height="214.74" fill="none" stroke="limegreen" stroke-width="2"/> </g><g><text x="221.54" y="441.58" font-family="Consolas" font-size="48" text-anchor="middle" fill="white">5.6</text><text x="369.25" y="447.89" font-family="Consolas" font-size="48" text-anchor="middle" fill="white">5.5</text><text x="664.67" y="170" font-family="Consolas" font-size="48" text-anchor="middle" fill="white">9.9</text><text x="812.38" y="473.16" font-family="Consolas" font-size="48" text-anchor="middle" fill="white">5.1</text><text x="960.09" y="637.37" font-family="Consolas" font-size="48" text-anchor="middle" fill="white">2.5</text><text x="1107.8" y="586.84" font-family="Consolas" font-size="48" text-anchor="middle" fill="white">3.3</text><text x="1255.51" y="599.47" font-family="Consolas" font-size="48" text-anchor="middle" fill="white">3.1</text><text x="1403.22" y="605.79" font-family="Consolas" font-size="48" text-anchor="middle" fill="white">3</text><text x="1550.93" y="605.79" font-family="Consolas" font-size="48" text-anchor="middle" fill="white">3</text><text x="1698.64" y="605.79" font-family="Consolas" font-size="48" text-anchor="middle" fill="white">3</text><text x="1846.35" y="605.79" font-family="Consolas" font-size="48" text-anchor="middle" fill="white">3</text> <text x="466.96" y="1010" font-family="Consolas" font-size="48" ttext-anchor="middle" fill="white">-3.4</text></g><g><text x="231.54" y="820.263157894737" transform="rotate(270 221.54 805.263157894737)" font-family="Consolas" font-size="50" fill="limegreen">2018</text><text x="379.25" y="820.263157894737" transform="rotate(270 369.25 805.263157894737)" font-family="Consolas" font-size="50" fill="limegreen">2019</text><text x="526.96" y="820.263157894737" transform="rotate(270 516.96 805.263157894737)" font-family="Consolas" font-size="50" fill="limegreen">2020</text><text x="674.67" y="820.263157894737" transform="rotate(270 664.67 805.263157894737)" font-family="Consolas" font-size="50" fill="limegreen">2021</text><text x="822.38" y="820.263157894737" transform="rotate(270 812.38 805.263157894737)" font-family="Consolas" font-size="50" fill="limegreen">2022</text><text x="970.09" y="820.263157894737" transform="rotate(270 960.09 805.263157894737)" font-family="Consolas" font-size="50" fill="limegreen">2023</text><text x="1117.8" y="820.263157894737" transform="rotate(270 1107.8 805.263157894737)" font-family="Consolas" font-size="50" fill="limegreen">2024</text><text x="1265.51" y="820.263157894737" transform="rotate(270 1255.51 805.263157894737)" font-family="Consolas" font-size="50" fill="limegreen">2025</text><text x="1413.22" y="820.263157894737" transform="rotate(270 1403.22 805.263157894737)" font-family="Consolas" font-size="50" fill="limegreen">2026</text><text x="1560.93" y="820.263157894737" transform="rotate(270 1550.93 805.263157894737)" font-family="Consolas" font-size="50" fill="limegreen">2027</text><text x="1708.64" y="820.263157894737" transform="rotate(270 1698.64 805.263157894737)" font-family="Consolas" font-size="50" fill="limegreen">2028</text><text x="1856.35" y="820.263157894737" transform="rotate(270 1846.35 805.263157894737)" font-family="Consolas" font-size="50" fill="limegreen">2029</text></g></g></svg>
