<svg xmlns="http://www.w3.org/2000/svg" width="1920" height="1080"> <rect width="100%" height="100%" fill="#000"/><g xmlns="http://www.w3.org/2000/svg" transform="translate(0,0) scale(1.0)"> <text  x="1080" y="60" font-family="Consolas" font-size="52" text-anchor="middle" fill="white">REAL  GDP ANNUAL PERCENT CHANGE (2018-2029) [IMF DATA]</text><text  x="1780" y="1050" font-family="Consolas" font-size="32" text-anchor="middle" fill="white">ZOOMIT WORLD</text><image x="180" y="-50" width="280" height="280" href="https://cdn.jsdelivr.net/gh/hampusborgos/country-flags@main/svg/ee.svg"></image><text x="70" y="180" font-family="Consolas" font-size="50" text-anchor="middle" fill="white">7%</text><text x="70" y="475.247524752475" font-family="Consolas" font-size="50" text-anchor="middle" fill="white">3.5%</text><text x="70" y="770.49504950495" font-family="Consolas" font-size="50" text-anchor="middle" fill="white">0%</text><text x="70" y="895.247524752475" font-family="Consolas" font-size="50" text-anchor="middle" fill="white">-1.5%</text><text x="70" y="1020" font-family="Consolas" font-size="50" text-anchor="middle" fill="white">-3%</text><line  x1="141.54" y1="180" x2="141.54" y2="1020" stroke="white" stroke-width="2"/><line x1="141.54"  y1="770.49504950495" x2="1920" y2="770.49504950495" stroke="white" stroke-width="5"/><g><rect x="171.54" y="462.772277227723" width="100" height="307.72" fill="none" stroke="limegreen" stroke-width="2"/><rect x="319.25" y="462.772277227723" width="100" height="307.72" fill="none" stroke="limegreen" stroke-width="2"/><rect x="614.67" y="180" width="100" height="590.50" fill="none" stroke="limegreen" stroke-width="2"/><rect x="762.38" y="762.178217821782" width="100" height="08.32" fill="none" stroke="limegreen" stroke-width="2"/><rect x="1205.51" y="637.425742574257" width="100" height="133.07" fill="none" stroke="limegreen" stroke-width="2"/><rect x="1353.22" y="579.207920792079" width="100" height="191.29" fill="none" stroke="limegreen" stroke-width="2"/><rect x="1500.93" y="604.158415841584" width="100" height="166.34" fill="none" stroke="limegreen" stroke-width="2"/><rect x="1648.64" y="604.158415841584" width="100" height="166.34" fill="none" stroke="limegreen" stroke-width="2"/><rect x="1796.35" y="604.158415841584" width="100" height="166.34" fill="none" stroke="limegreen" stroke-width="2"/> <rect x="466.96" y="770.49504950495" width="100" height="241.19" fill="none" stroke="limegreen" stroke-width="2"/><rect x="910.09" y="770.49504950495" width="100" height="249.50" fill="none" stroke="limegreen" stroke-width="2"/><rect x="1057.8" y="770.49504950495" width="100" height="74.85" fill="none" stroke="limegreen" stroke-width="2"/> </g><g><text x="221.54" y="452.77" font-family="Consolas" font-size="48" text-anchor="middle" fill="white">3.7</text><text x="369.25" y="452.77" font-family="Consolas" font-size="48" text-anchor="middle" fill="white">3.7</text><text x="664.67" y="170" font-family="Consolas" font-size="48" text-anchor="middle" fill="white">7.1</text><text x="812.38" y="752.18" font-family="Consolas" font-size="48" text-anchor="middle" fill="white">0.1</text><text x="1255.51" y="627.43" font-family="Consolas" font-size="48" text-anchor="middle" fill="white">1.6</text><text x="1403.22" y="569.21" font-family="Consolas" font-size="48" text-anchor="middle" fill="white">2.3</text><text x="1550.93" y="594.16" font-family="Consolas" font-size="48" text-anchor="middle" fill="white">2</text><text x="1698.64" y="594.16" font-family="Consolas" font-size="48" text-anchor="middle" fill="white">2</text><text x="1846.35" y="594.16" font-family="Consolas" font-size="48" text-anchor="middle" fill="white">2</text> <text x="466.96" y="1001.68316831683" font-family="Consolas" font-size="48" ttext-anchor="middle" fill="white">-2.9</text><text x="910.09" y="1010" font-family="Consolas" font-size="48" ttext-anchor="middle" fill="white">-3</text><text x="1057.8" y="835.346534653465" font-family="Consolas" font-size="48" ttext-anchor="middle" fill="white">-0.9</text></g><g><text x="231.54" y="785.49504950495" transform="rotate(270 221.54 770.49504950495)" font-family="Consolas" font-size="50" fill="limegreen">2018</text><text x="379.25" y="785.49504950495" transform="rotate(270 369.25 770.49504950495)" font-family="Consolas" font-size="50" fill="limegreen">2019</text><text x="526.96" y="785.49504950495" transform="rotate(270 516.96 770.49504950495)" font-family="Consolas" font-size="50" fill="limegreen">2020</text><text x="674.67" y="785.49504950495" transform="rotate(270 664.67 770.49504950495)" font-family="Consolas" font-size="50" fill="limegreen">2021</text><text x="822.38" y="785.49504950495" transform="rotate(270 812.38 770.49504950495)" font-family="Consolas" font-size="50" fill="limegreen">2022</text><text x="970.09" y="785.49504950495" transform="rotate(270 960.09 770.49504950495)" font-family="Consolas" font-size="50" fill="limegreen">2023</text><text x="1117.8" y="785.49504950495" transform="rotate(270 1107.8 770.49504950495)" font-family="Consolas" font-size="50" fill="limegreen">2024</text><text x="1265.51" y="785.49504950495" transform="rotate(270 1255.51 770.49504950495)" font-family="Consolas" font-size="50" fill="limegreen">2025</text><text x="1413.22" y="785.49504950495" transform="rotate(270 1403.22 770.49504950495)" font-family="Consolas" font-size="50" fill="limegreen">2026</text><text x="1560.93" y="785.49504950495" transform="rotate(270 1550.93 770.49504950495)" font-family="Consolas" font-size="50" fill="limegreen">2027</text><text x="1708.64" y="785.49504950495" transform="rotate(270 1698.64 770.49504950495)" font-family="Consolas" font-size="50" fill="limegreen">2028</text><text x="1856.35" y="785.49504950495" transform="rotate(270 1846.35 770.49504950495)" font-family="Consolas" font-size="50" fill="limegreen">2029</text></g></g></svg>
