<svg xmlns="http://www.w3.org/2000/svg" width="1920" height="1080"> <rect width="100%" height="100%" fill="#000"/><g xmlns="http://www.w3.org/2000/svg" transform="translate(0,0) scale(1.0)"> <text  x="1080" y="60" font-family="Consolas" font-size="52" text-anchor="middle" fill="white">REAL  GDP ANNUAL PERCENT CHANGE (2018-2029) [IMF DATA]</text><text  x="1780" y="1050" font-family="Consolas" font-size="32" text-anchor="middle" fill="white">ZOOMIT WORLD</text><image x="180" y="-50" width="280" height="280" href="https://cdn.jsdelivr.net/gh/hampusborgos/country-flags@main/svg/dk.svg"></image><text x="70" y="180" font-family="Consolas" font-size="50" text-anchor="middle" fill="white">7%</text><text x="70" y="517.826086956522" font-family="Consolas" font-size="50" text-anchor="middle" fill="white">3.5%</text><text x="70" y="855.652173913043" font-family="Consolas" font-size="50" text-anchor="middle" fill="white">0%</text><text x="70" y="937.826086956522" font-family="Consolas" font-size="50" text-anchor="middle" fill="white">-1%</text><text x="70" y="1020" font-family="Consolas" font-size="50" text-anchor="middle" fill="white">-2%</text><line  x1="141.54" y1="180" x2="141.54" y2="1020" stroke="white" stroke-width="2"/><line x1="141.54"  y1="855.652173913043" x2="1920" y2="855.652173913043" stroke="white" stroke-width="5"/><g><rect x="171.54" y="682.173913043478" width="100" height="173.48" fill="none" stroke="limegreen" stroke-width="2"/><rect x="319.25" y="700.434782608696" width="100" height="155.22" fill="none" stroke="limegreen" stroke-width="2"/><rect x="614.67" y="180" width="100" height="675.65" fill="none" stroke="limegreen" stroke-width="2"/><rect x="762.38" y="718.695652173913" width="100" height="136.96" fill="none" stroke="limegreen" stroke-width="2"/><rect x="910.09" y="627.391304347826" width="100" height="228.26" fill="none" stroke="limegreen" stroke-width="2"/><rect x="1057.8" y="682.173913043478" width="100" height="173.48" fill="none" stroke="limegreen" stroke-width="2"/><rect x="1205.51" y="709.565217391304" width="100" height="146.09" fill="none" stroke="limegreen" stroke-width="2"/><rect x="1353.22" y="727.826086956522" width="100" height="127.83" fill="none" stroke="limegreen" stroke-width="2"/><rect x="1500.93" y="727.826086956522" width="100" height="127.83" fill="none" stroke="limegreen" stroke-width="2"/><rect x="1648.64" y="727.826086956522" width="100" height="127.83" fill="none" stroke="limegreen" stroke-width="2"/><rect x="1796.35" y="727.826086956522" width="100" height="127.83" fill="none" stroke="limegreen" stroke-width="2"/> <rect x="466.96" y="855.652173913043" width="100" height="164.35" fill="none" stroke="limegreen" stroke-width="2"/> </g><g><text x="221.54" y="672.17" font-family="Consolas" font-size="48" text-anchor="middle" fill="white">1.9</text><text x="369.25" y="690.43" font-family="Consolas" font-size="48" text-anchor="middle" fill="white">1.7</text><text x="664.67" y="170" font-family="Consolas" font-size="48" text-anchor="middle" fill="white">7.4</text><text x="812.38" y="708.7" font-family="Consolas" font-size="48" text-anchor="middle" fill="white">1.5</text><text x="960.09" y="617.39" font-family="Consolas" font-size="48" text-anchor="middle" fill="white">2.5</text><text x="1107.8" y="672.17" font-family="Consolas" font-size="48" text-anchor="middle" fill="white">1.9</text><text x="1255.51" y="699.57" font-family="Consolas" font-size="48" text-anchor="middle" fill="white">1.6</text><text x="1403.22" y="717.83" font-family="Consolas" font-size="48" text-anchor="middle" fill="white">1.4</text><text x="1550.93" y="717.83" font-family="Consolas" font-size="48" text-anchor="middle" fill="white">1.4</text><text x="1698.64" y="717.83" font-family="Consolas" font-size="48" text-anchor="middle" fill="white">1.4</text><text x="1846.35" y="717.83" font-family="Consolas" font-size="48" text-anchor="middle" fill="white">1.4</text> <text x="466.96" y="1010" font-family="Consolas" font-size="48" ttext-anchor="middle" fill="white">-1.8</text></g><g><text x="231.54" y="870.652173913043" transform="rotate(270 221.54 855.652173913043)" font-family="Consolas" font-size="50" fill="limegreen">2018</text><text x="379.25" y="870.652173913043" transform="rotate(270 369.25 855.652173913043)" font-family="Consolas" font-size="50" fill="limegreen">2019</text><text x="526.96" y="870.652173913043" transform="rotate(270 516.96 855.652173913043)" font-family="Consolas" font-size="50" fill="limegreen">2020</text><text x="674.67" y="870.652173913043" transform="rotate(270 664.67 855.652173913043)" font-family="Consolas" font-size="50" fill="limegreen">2021</text><text x="822.38" y="870.652173913043" transform="rotate(270 812.38 855.652173913043)" font-family="Consolas" font-size="50" fill="limegreen">2022</text><text x="970.09" y="870.652173913043" transform="rotate(270 960.09 855.652173913043)" font-family="Consolas" font-size="50" fill="limegreen">2023</text><text x="1117.8" y="870.652173913043" transform="rotate(270 1107.8 855.652173913043)" font-family="Consolas" font-size="50" fill="limegreen">2024</text><text x="1265.51" y="870.652173913043" transform="rotate(270 1255.51 855.652173913043)" font-family="Consolas" font-size="50" fill="limegreen">2025</text><text x="1413.22" y="870.652173913043" transform="rotate(270 1403.22 855.652173913043)" font-family="Consolas" font-size="50" fill="limegreen">2026</text><text x="1560.93" y="870.652173913043" transform="rotate(270 1550.93 855.652173913043)" font-family="Consolas" font-size="50" fill="limegreen">2027</text><text x="1708.64" y="870.652173913043" transform="rotate(270 1698.64 855.652173913043)" font-family="Consolas" font-size="50" fill="limegreen">2028</text><text x="1856.35" y="870.652173913043" transform="rotate(270 1846.35 855.652173913043)" font-family="Consolas" font-size="50" fill="limegreen">2029</text></g></g></svg>
