<svg xmlns="http://www.w3.org/2000/svg" width="1920" height="1080"> <rect width="100%" height="100%" fill="#000"/><g xmlns="http://www.w3.org/2000/svg" transform="translate(0,0) scale(1.0)"> <text  x="1080" y="60" font-family="Consolas" font-size="52" text-anchor="middle" fill="white">REAL  GDP ANNUAL PERCENT CHANGE (2018-2029) [IMF DATA]</text><text  x="1780" y="1050" font-family="Consolas" font-size="32" text-anchor="middle" fill="white">ZOOMIT WORLD</text><image x="180" y="-50" width="280" height="280" href="https://cdn.jsdelivr.net/gh/hampusborgos/country-flags@main/svg/ss.svg"></image><text x="70" y="180" font-family="Consolas" font-size="50" text-anchor="middle" fill="white">27%</text><text x="70" y="393.134328358209" font-family="Consolas" font-size="50" text-anchor="middle" fill="white">13.5%</text><text x="70" y="606.268656716418" font-family="Consolas" font-size="50" text-anchor="middle" fill="white">0%</text><text x="70" y="813.134328358209" font-family="Consolas" font-size="50" text-anchor="middle" fill="white">-13%</text><text x="70" y="1020" font-family="Consolas" font-size="50" text-anchor="middle" fill="white">-26%</text><line  x1="141.54" y1="180" x2="141.54" y2="1020" stroke="white" stroke-width="2"/><line x1="141.54"  y1="606.268656716418" x2="1920" y2="606.268656716418" stroke="white" stroke-width="5"/><g><rect x="319.25" y="592.164179104478" width="100" height="14.10" fill="none" stroke="limegreen" stroke-width="2"/><rect x="614.67" y="523.208955223881" width="100" height="83.06" fill="none" stroke="limegreen" stroke-width="2"/><rect x="910.09" y="567.089552238806" width="100" height="39.18" fill="none" stroke="limegreen" stroke-width="2"/><rect x="1205.51" y="180" width="100" height="426.27" fill="none" stroke="limegreen" stroke-width="2"/><rect x="1353.22" y="214.477611940298" width="100" height="391.79" fill="none" stroke="limegreen" stroke-width="2"/><rect x="1500.93" y="529.477611940299" width="100" height="76.79" fill="none" stroke="limegreen" stroke-width="2"/><rect x="1648.64" y="529.477611940299" width="100" height="76.79" fill="none" stroke="limegreen" stroke-width="2"/><rect x="1796.35" y="529.477611940299" width="100" height="76.79" fill="none" stroke="limegreen" stroke-width="2"/> <rect x="171.54" y="606.268656716418" width="100" height="32.91" fill="none" stroke="limegreen" stroke-width="2"/><rect x="466.96" y="606.268656716418" width="100" height="101.87" fill="none" stroke="limegreen" stroke-width="2"/><rect x="762.38" y="606.268656716418" width="100" height="81.49" fill="none" stroke="limegreen" stroke-width="2"/><rect x="1057.8" y="606.268656716418" width="100" height="413.73" fill="none" stroke="limegreen" stroke-width="2"/> </g><g><text x="369.25" y="582.16" font-family="Consolas" font-size="48" text-anchor="middle" fill="white">0.9</text><text x="664.67" y="513.21" font-family="Consolas" font-size="48" text-anchor="middle" fill="white">5.3</text><text x="960.09" y="557.09" font-family="Consolas" font-size="48" text-anchor="middle" fill="white">2.5</text><text x="1255.51" y="170" font-family="Consolas" font-size="48" text-anchor="middle" fill="white">27.2</text><text x="1403.22" y="204.48" font-family="Consolas" font-size="48" text-anchor="middle" fill="white">25</text><text x="1550.93" y="519.48" font-family="Consolas" font-size="48" text-anchor="middle" fill="white">4.9</text><text x="1698.64" y="519.48" font-family="Consolas" font-size="48" text-anchor="middle" fill="white">4.9</text><text x="1846.35" y="519.48" font-family="Consolas" font-size="48" text-anchor="middle" fill="white">4.9</text> <text x="171.54" y="629.179104477612" font-family="Consolas" font-size="48" ttext-anchor="middle" fill="white">-2.1</text><text x="466.96" y="698.134328358209" font-family="Consolas" font-size="48" ttext-anchor="middle" fill="white">-6.5</text><text x="762.38" y="677.761194029851" font-family="Consolas" font-size="48" ttext-anchor="middle" fill="white">-5.2</text><text x="1057.8" y="1010" font-family="Consolas" font-size="48" ttext-anchor="middle" fill="white">-26.4</text></g><g><text x="231.54" y="621.268656716418" transform="rotate(270 221.54 606.268656716418)" font-family="Consolas" font-size="50" fill="limegreen">2018</text><text x="379.25" y="621.268656716418" transform="rotate(270 369.25 606.268656716418)" font-family="Consolas" font-size="50" fill="limegreen">2019</text><text x="526.96" y="621.268656716418" transform="rotate(270 516.96 606.268656716418)" font-family="Consolas" font-size="50" fill="limegreen">2020</text><text x="674.67" y="621.268656716418" transform="rotate(270 664.67 606.268656716418)" font-family="Consolas" font-size="50" fill="limegreen">2021</text><text x="822.38" y="621.268656716418" transform="rotate(270 812.38 606.268656716418)" font-family="Consolas" font-size="50" fill="limegreen">2022</text><text x="970.09" y="621.268656716418" transform="rotate(270 960.09 606.268656716418)" font-family="Consolas" font-size="50" fill="limegreen">2023</text><text x="1117.8" y="621.268656716418" transform="rotate(270 1107.8 606.268656716418)" font-family="Consolas" font-size="50" fill="limegreen">2024</text><text x="1265.51" y="621.268656716418" transform="rotate(270 1255.51 606.268656716418)" font-family="Consolas" font-size="50" fill="limegreen">2025</text><text x="1413.22" y="621.268656716418" transform="rotate(270 1403.22 606.268656716418)" font-family="Consolas" font-size="50" fill="limegreen">2026</text><text x="1560.93" y="621.268656716418" transform="rotate(270 1550.93 606.268656716418)" font-family="Consolas" font-size="50" fill="limegreen">2027</text><text x="1708.64" y="621.268656716418" transform="rotate(270 1698.64 606.268656716418)" font-family="Consolas" font-size="50" fill="limegreen">2028</text><text x="1856.35" y="621.268656716418" transform="rotate(270 1846.35 606.268656716418)" font-family="Consolas" font-size="50" fill="limegreen">2029</text></g></g></svg>
