<svg xmlns="http://www.w3.org/2000/svg" width="1920" height="1080"> <rect width="100%" height="100%" fill="#000"/><g xmlns="http://www.w3.org/2000/svg" transform="translate(0,0) scale(1.0)"> <text  x="1080" y="60" font-family="Consolas" font-size="52" text-anchor="middle" fill="white">REAL  GDP ANNUAL PERCENT CHANGE (2018-2029) [IMF DATA]</text><text  x="1700" y="1050" font-family="Consolas" font-size="22" text-anchor="middle" fill="white">DESIGNED BY ZOOMIT WORLD</text><image x="180" y="-50" width="280" height="280" href="https://cdn.jsdelivr.net/gh/hampusborgos/country-flags@main/svg/bs.svg"></image><text x="70" y="180" font-family="Consolas" font-size="50" text-anchor="middle" fill="white">6%</text><text x="70" y="353.108108108108" font-family="Consolas" font-size="50" text-anchor="middle" fill="white">3%</text><text x="70" y="526.216216216216" font-family="Consolas" font-size="50" text-anchor="middle" fill="white">0%</text><text x="70" y="773.108108108108" font-family="Consolas" font-size="50" text-anchor="middle" fill="white">-4.5%</text><text x="70" y="1020" font-family="Consolas" font-size="50" text-anchor="middle" fill="white">-9%</text><line  x1="141.54" y1="180" x2="141.54" y2="1020" stroke="white" stroke-width="2"/><line x1="141.54"  y1="526.216216216216" x2="1920" y2="526.216216216216" stroke="white" stroke-width="5"/><g><rect x="171.54" y="287.837837837838" width="100" height="238.38" fill="none" stroke="limegreen" stroke-width="2"/><rect x="319.25" y="401.351351351351" width="100" height="124.86" fill="none" stroke="limegreen" stroke-width="2"/><rect x="614.67" y="180" width="100" height="346.22" fill="none" stroke="limegreen" stroke-width="2"/><rect x="762.38" y="321.891891891892" width="100" height="204.32" fill="none" stroke="limegreen" stroke-width="2"/><rect x="910.09" y="350.27027027027" width="100" height="175.95" fill="none" stroke="limegreen" stroke-width="2"/><rect x="1057.8" y="435.405405405405" width="100" height="90.81" fill="none" stroke="limegreen" stroke-width="2"/><rect x="1205.51" y="401.351351351351" width="100" height="124.86" fill="none" stroke="limegreen" stroke-width="2"/><rect x="1353.22" y="401.351351351351" width="100" height="124.86" fill="none" stroke="limegreen" stroke-width="2"/><rect x="1500.93" y="395.675675675676" width="100" height="130.54" fill="none" stroke="limegreen" stroke-width="2"/><rect x="1648.64" y="395.675675675676" width="100" height="130.54" fill="none" stroke="limegreen" stroke-width="2"/><rect x="1796.35" y="395.675675675676" width="100" height="130.54" fill="none" stroke="limegreen" stroke-width="2"/> <rect x="466.96" y="526.216216216216" width="100" height="493.78" fill="none" stroke="limegreen" stroke-width="2"/> </g><g><text x="221.54" y="277.84" font-family="Consolas" font-size="48" text-anchor="middle" fill="white">4.2</text><text x="369.25" y="391.35" font-family="Consolas" font-size="48" text-anchor="middle" fill="white">2.2</text><text x="664.67" y="170" font-family="Consolas" font-size="48" text-anchor="middle" fill="white">6.1</text><text x="812.38" y="311.89" font-family="Consolas" font-size="48" text-anchor="middle" fill="white">3.6</text><text x="960.09" y="340.27" font-family="Consolas" font-size="48" text-anchor="middle" fill="white">3.1</text><text x="1107.8" y="425.41" font-family="Consolas" font-size="48" text-anchor="middle" fill="white">1.6</text><text x="1255.51" y="391.35" font-family="Consolas" font-size="48" text-anchor="middle" fill="white">2.2</text><text x="1403.22" y="391.35" font-family="Consolas" font-size="48" text-anchor="middle" fill="white">2.2</text><text x="1550.93" y="385.68" font-family="Consolas" font-size="48" text-anchor="middle" fill="white">2.3</text><text x="1698.64" y="385.68" font-family="Consolas" font-size="48" text-anchor="middle" fill="white">2.3</text><text x="1846.35" y="385.68" font-family="Consolas" font-size="48" text-anchor="middle" fill="white">2.3</text> <text x="466.96" y="1010" font-family="Consolas" font-size="48" ttext-anchor="middle" fill="white">-8.7</text></g><g><text x="231.54" y="541.216216216216" transform="rotate(270 221.54 526.216216216216)" font-family="Consolas" font-size="50" fill="limegreen">2018</text><text x="379.25" y="541.216216216216" transform="rotate(270 369.25 526.216216216216)" font-family="Consolas" font-size="50" fill="limegreen">2019</text><text x="526.96" y="541.216216216216" transform="rotate(270 516.96 526.216216216216)" font-family="Consolas" font-size="50" fill="limegreen">2020</text><text x="674.67" y="541.216216216216" transform="rotate(270 664.67 526.216216216216)" font-family="Consolas" font-size="50" fill="limegreen">2021</text><text x="822.38" y="541.216216216216" transform="rotate(270 812.38 526.216216216216)" font-family="Consolas" font-size="50" fill="limegreen">2022</text><text x="970.09" y="541.216216216216" transform="rotate(270 960.09 526.216216216216)" font-family="Consolas" font-size="50" fill="limegreen">2023</text><text x="1117.8" y="541.216216216216" transform="rotate(270 1107.8 526.216216216216)" font-family="Consolas" font-size="50" fill="limegreen">2024</text><text x="1265.51" y="541.216216216216" transform="rotate(270 1255.51 526.216216216216)" font-family="Consolas" font-size="50" fill="limegreen">2025</text><text x="1413.22" y="541.216216216216" transform="rotate(270 1403.22 526.216216216216)" font-family="Consolas" font-size="50" fill="limegreen">2026</text><text x="1560.93" y="541.216216216216" transform="rotate(270 1550.93 526.216216216216)" font-family="Consolas" font-size="50" fill="limegreen">2027</text><text x="1708.64" y="541.216216216216" transform="rotate(270 1698.64 526.216216216216)" font-family="Consolas" font-size="50" fill="limegreen">2028</text><text x="1856.35" y="541.216216216216" transform="rotate(270 1846.35 526.216216216216)" font-family="Consolas" font-size="50" fill="limegreen">2029</text></g></g></svg>
