<svg xmlns="http://www.w3.org/2000/svg" width="1920" height="1080"> <rect width="100%" height="100%" fill="#000"/><g xmlns="http://www.w3.org/2000/svg" transform="translate(0,0) scale(1.0)"> <text  x="1080" y="60" font-family="Consolas" font-size="52" text-anchor="middle" fill="white">REAL  GDP ANNUAL PERCENT CHANGE (2018-2029) [IMF DATA]</text><text  x="1780" y="1050" font-family="Consolas" font-size="32" text-anchor="middle" fill="white">ZOOMIT WORLD</text><image x="180" y="-50" width="280" height="280" href="https://cdn.jsdelivr.net/gh/hampusborgos/country-flags@main/svg/cz.svg"></image><text x="70" y="180" font-family="Consolas" font-size="50" text-anchor="middle" fill="white">4%</text><text x="70" y="360.645161290323" font-family="Consolas" font-size="50" text-anchor="middle" fill="white">2%</text><text x="70" y="541.290322580645" font-family="Consolas" font-size="50" text-anchor="middle" fill="white">0%</text><text x="70" y="780.645161290322" font-family="Consolas" font-size="50" text-anchor="middle" fill="white">-2.5%</text><text x="70" y="1020" font-family="Consolas" font-size="50" text-anchor="middle" fill="white">-5%</text><line  x1="141.54" y1="180" x2="141.54" y2="1020" stroke="white" stroke-width="2"/><line x1="141.54"  y1="541.290322580645" x2="1920" y2="541.290322580645" stroke="white" stroke-width="5"/><g><rect x="171.54" y="288.387096774194" width="100" height="252.90" fill="none" stroke="limegreen" stroke-width="2"/><rect x="319.25" y="216.129032258065" width="100" height="325.16" fill="none" stroke="limegreen" stroke-width="2"/><rect x="614.67" y="180" width="100" height="361.29" fill="none" stroke="limegreen" stroke-width="2"/><rect x="762.38" y="288.387096774194" width="100" height="252.90" fill="none" stroke="limegreen" stroke-width="2"/><rect x="1057.8" y="441.935483870968" width="100" height="99.35" fill="none" stroke="limegreen" stroke-width="2"/><rect x="1205.51" y="333.548387096774" width="100" height="207.74" fill="none" stroke="limegreen" stroke-width="2"/><rect x="1353.22" y="333.548387096774" width="100" height="207.74" fill="none" stroke="limegreen" stroke-width="2"/><rect x="1500.93" y="351.612903225806" width="100" height="189.68" fill="none" stroke="limegreen" stroke-width="2"/><rect x="1648.64" y="360.645161290323" width="100" height="180.65" fill="none" stroke="limegreen" stroke-width="2"/><rect x="1796.35" y="360.645161290323" width="100" height="180.65" fill="none" stroke="limegreen" stroke-width="2"/> <rect x="466.96" y="541.290322580645" width="100" height="478.71" fill="none" stroke="limegreen" stroke-width="2"/><rect x="910.09" y="541.290322580645" width="100" height="09.03" fill="none" stroke="limegreen" stroke-width="2"/> </g><g><text x="221.54" y="278.39" font-family="Consolas" font-size="48" text-anchor="middle" fill="white">2.8</text><text x="369.25" y="206.13" font-family="Consolas" font-size="48" text-anchor="middle" fill="white">3.6</text><text x="664.67" y="170" font-family="Consolas" font-size="48" text-anchor="middle" fill="white">4</text><text x="812.38" y="278.39" font-family="Consolas" font-size="48" text-anchor="middle" fill="white">2.8</text><text x="1107.8" y="431.94" font-family="Consolas" font-size="48" text-anchor="middle" fill="white">1.1</text><text x="1255.51" y="323.55" font-family="Consolas" font-size="48" text-anchor="middle" fill="white">2.3</text><text x="1403.22" y="323.55" font-family="Consolas" font-size="48" text-anchor="middle" fill="white">2.3</text><text x="1550.93" y="341.61" font-family="Consolas" font-size="48" text-anchor="middle" fill="white">2.1</text><text x="1698.64" y="350.65" font-family="Consolas" font-size="48" text-anchor="middle" fill="white">2</text><text x="1846.35" y="350.65" font-family="Consolas" font-size="48" text-anchor="middle" fill="white">2</text> <text x="466.96" y="1010" font-family="Consolas" font-size="48" ttext-anchor="middle" fill="white">-5.3</text><text x="910.09" y="540.322580645161" font-family="Consolas" font-size="48" ttext-anchor="middle" fill="white">-0.1</text></g><g><text x="231.54" y="556.290322580645" transform="rotate(270 221.54 541.290322580645)" font-family="Consolas" font-size="50" fill="limegreen">2018</text><text x="379.25" y="556.290322580645" transform="rotate(270 369.25 541.290322580645)" font-family="Consolas" font-size="50" fill="limegreen">2019</text><text x="526.96" y="556.290322580645" transform="rotate(270 516.96 541.290322580645)" font-family="Consolas" font-size="50" fill="limegreen">2020</text><text x="674.67" y="556.290322580645" transform="rotate(270 664.67 541.290322580645)" font-family="Consolas" font-size="50" fill="limegreen">2021</text><text x="822.38" y="556.290322580645" transform="rotate(270 812.38 541.290322580645)" font-family="Consolas" font-size="50" fill="limegreen">2022</text><text x="970.09" y="556.290322580645" transform="rotate(270 960.09 541.290322580645)" font-family="Consolas" font-size="50" fill="limegreen">2023</text><text x="1117.8" y="556.290322580645" transform="rotate(270 1107.8 541.290322580645)" font-family="Consolas" font-size="50" fill="limegreen">2024</text><text x="1265.51" y="556.290322580645" transform="rotate(270 1255.51 541.290322580645)" font-family="Consolas" font-size="50" fill="limegreen">2025</text><text x="1413.22" y="556.290322580645" transform="rotate(270 1403.22 541.290322580645)" font-family="Consolas" font-size="50" fill="limegreen">2026</text><text x="1560.93" y="556.290322580645" transform="rotate(270 1550.93 541.290322580645)" font-family="Consolas" font-size="50" fill="limegreen">2027</text><text x="1708.64" y="556.290322580645" transform="rotate(270 1698.64 541.290322580645)" font-family="Consolas" font-size="50" fill="limegreen">2028</text><text x="1856.35" y="556.290322580645" transform="rotate(270 1846.35 541.290322580645)" font-family="Consolas" font-size="50" fill="limegreen">2029</text></g></g></svg>
