<svg xmlns="http://www.w3.org/2000/svg" width="1920" height="1080"> <rect width="100%" height="100%" fill="#000"/><g xmlns="http://www.w3.org/2000/svg" transform="translate(0,0) scale(1.0)"> <text  x="1080" y="60" font-family="Consolas" font-size="52" text-anchor="middle" fill="white">REAL  GDP ANNUAL PERCENT CHANGE (2018-2029) [IMF DATA]</text><text  x="1780" y="1050" font-family="Consolas" font-size="32" text-anchor="middle" fill="white">ZOOMIT WORLD</text><image x="180" y="-50" width="280" height="280" href="https://cdn.jsdelivr.net/gh/hampusborgos/country-flags@main/svg/sc.svg"></image><text x="70" y="180" font-family="Consolas" font-size="50" text-anchor="middle" fill="white">15%</text><text x="70" y="415.955056179775" font-family="Consolas" font-size="50" text-anchor="middle" fill="white">7.5%</text><text x="70" y="651.910112359551" font-family="Consolas" font-size="50" text-anchor="middle" fill="white">0%</text><text x="70" y="835.955056179775" font-family="Consolas" font-size="50" text-anchor="middle" fill="white">-6%</text><text x="70" y="1020" font-family="Consolas" font-size="50" text-anchor="middle" fill="white">-12%</text><line  x1="141.54" y1="180" x2="141.54" y2="1020" stroke="white" stroke-width="2"/><line x1="141.54"  y1="651.910112359551" x2="1920" y2="651.910112359551" stroke="white" stroke-width="5"/><g><rect x="171.54" y="497.752808988764" width="100" height="154.16" fill="none" stroke="limegreen" stroke-width="2"/><rect x="319.25" y="478.876404494382" width="100" height="173.03" fill="none" stroke="limegreen" stroke-width="2"/><rect x="614.67" y="633.033707865169" width="100" height="18.88" fill="none" stroke="limegreen" stroke-width="2"/><rect x="762.38" y="180" width="100" height="471.91" fill="none" stroke="limegreen" stroke-width="2"/><rect x="910.09" y="551.23595505618" width="100" height="100.67" fill="none" stroke="limegreen" stroke-width="2"/><rect x="1057.8" y="554.38202247191" width="100" height="97.53" fill="none" stroke="limegreen" stroke-width="2"/><rect x="1205.51" y="529.213483146067" width="100" height="122.70" fill="none" stroke="limegreen" stroke-width="2"/><rect x="1353.22" y="544.943820224719" width="100" height="106.97" fill="none" stroke="limegreen" stroke-width="2"/><rect x="1500.93" y="544.943820224719" width="100" height="106.97" fill="none" stroke="limegreen" stroke-width="2"/><rect x="1648.64" y="541.797752808989" width="100" height="110.11" fill="none" stroke="limegreen" stroke-width="2"/><rect x="1796.35" y="541.797752808989" width="100" height="110.11" fill="none" stroke="limegreen" stroke-width="2"/> <rect x="466.96" y="651.910112359551" width="100" height="368.09" fill="none" stroke="limegreen" stroke-width="2"/> </g><g><text x="221.54" y="487.75" font-family="Consolas" font-size="48" text-anchor="middle" fill="white">4.9</text><text x="369.25" y="468.88" font-family="Consolas" font-size="48" text-anchor="middle" fill="white">5.5</text><text x="664.67" y="623.03" font-family="Consolas" font-size="48" text-anchor="middle" fill="white">0.6</text><text x="812.38" y="170" font-family="Consolas" font-size="48" text-anchor="middle" fill="white">15</text><text x="960.09" y="541.24" font-family="Consolas" font-size="48" text-anchor="middle" fill="white">3.2</text><text x="1107.8" y="544.38" font-family="Consolas" font-size="48" text-anchor="middle" fill="white">3.1</text><text x="1255.51" y="519.21" font-family="Consolas" font-size="48" text-anchor="middle" fill="white">3.9</text><text x="1403.22" y="534.94" font-family="Consolas" font-size="48" text-anchor="middle" fill="white">3.4</text><text x="1550.93" y="534.94" font-family="Consolas" font-size="48" text-anchor="middle" fill="white">3.4</text><text x="1698.64" y="531.8" font-family="Consolas" font-size="48" text-anchor="middle" fill="white">3.5</text><text x="1846.35" y="531.8" font-family="Consolas" font-size="48" text-anchor="middle" fill="white">3.5</text> <text x="466.96" y="1010" font-family="Consolas" font-size="48" ttext-anchor="middle" fill="white">-11.7</text></g><g><text x="231.54" y="666.910112359551" transform="rotate(270 221.54 651.910112359551)" font-family="Consolas" font-size="50" fill="limegreen">2018</text><text x="379.25" y="666.910112359551" transform="rotate(270 369.25 651.910112359551)" font-family="Consolas" font-size="50" fill="limegreen">2019</text><text x="526.96" y="666.910112359551" transform="rotate(270 516.96 651.910112359551)" font-family="Consolas" font-size="50" fill="limegreen">2020</text><text x="674.67" y="666.910112359551" transform="rotate(270 664.67 651.910112359551)" font-family="Consolas" font-size="50" fill="limegreen">2021</text><text x="822.38" y="666.910112359551" transform="rotate(270 812.38 651.910112359551)" font-family="Consolas" font-size="50" fill="limegreen">2022</text><text x="970.09" y="666.910112359551" transform="rotate(270 960.09 651.910112359551)" font-family="Consolas" font-size="50" fill="limegreen">2023</text><text x="1117.8" y="666.910112359551" transform="rotate(270 1107.8 651.910112359551)" font-family="Consolas" font-size="50" fill="limegreen">2024</text><text x="1265.51" y="666.910112359551" transform="rotate(270 1255.51 651.910112359551)" font-family="Consolas" font-size="50" fill="limegreen">2025</text><text x="1413.22" y="666.910112359551" transform="rotate(270 1403.22 651.910112359551)" font-family="Consolas" font-size="50" fill="limegreen">2026</text><text x="1560.93" y="666.910112359551" transform="rotate(270 1550.93 651.910112359551)" font-family="Consolas" font-size="50" fill="limegreen">2027</text><text x="1708.64" y="666.910112359551" transform="rotate(270 1698.64 651.910112359551)" font-family="Consolas" font-size="50" fill="limegreen">2028</text><text x="1856.35" y="666.910112359551" transform="rotate(270 1846.35 651.910112359551)" font-family="Consolas" font-size="50" fill="limegreen">2029</text></g></g></svg>
