<svg xmlns="http://www.w3.org/2000/svg" width="1920" height="1080"> <rect width="100%" height="100%" fill="#000"/><g xmlns="http://www.w3.org/2000/svg" transform="translate(0,0) scale(1.0)"> <text  x="1080" y="60" font-family="Consolas" font-size="52" text-anchor="middle" fill="white">REAL  GDP ANNUAL PERCENT CHANGE (2018-2029) [IMF DATA]</text><text  x="1700" y="1050" font-family="Consolas" font-size="22" text-anchor="middle" fill="white">DESIGNED BY ZOOMIT WORLD</text><image x="180" y="-50" width="280" height="280" href="https://cdn.jsdelivr.net/gh/hampusborgos/country-flags@main/svg/bs.svg"></image><text x="70" y="180" font-family="Consolas" font-size="50" text-anchor="middle" fill="white">7%</text><text x="70" y="390" font-family="Consolas" font-size="50" text-anchor="middle" fill="white">3.5%</text><text x="70" y="600" font-family="Consolas" font-size="50" text-anchor="middle" fill="white">0%</text><text x="70" y="810" font-family="Consolas" font-size="50" text-anchor="middle" fill="white">-3.5%</text><text x="70" y="1020" font-family="Consolas" font-size="50" text-anchor="middle" fill="white">-7%</text><line  x1="141.54" y1="180" x2="141.54" y2="1020" stroke="white" stroke-width="2"/><line x1="141.54"  y1="600" x2="1920" y2="600" stroke="white" stroke-width="5"/><g><rect x="171.54" y="419.076923076923" width="100" height="180.92" fill="none" stroke="limegreen" stroke-width="2"/><rect x="614.67" y="180" width="100" height="420.00" fill="none" stroke="limegreen" stroke-width="2"/><rect x="910.09" y="386.769230769231" width="100" height="213.23" fill="none" stroke="limegreen" stroke-width="2"/><rect x="1057.8" y="393.230769230769" width="100" height="206.77" fill="none" stroke="limegreen" stroke-width="2"/><rect x="1205.51" y="406.153846153846" width="100" height="193.85" fill="none" stroke="limegreen" stroke-width="2"/><rect x="1353.22" y="412.615384615385" width="100" height="187.38" fill="none" stroke="limegreen" stroke-width="2"/><rect x="1500.93" y="425.538461538462" width="100" height="174.46" fill="none" stroke="limegreen" stroke-width="2"/><rect x="1648.64" y="438.461538461538" width="100" height="161.54" fill="none" stroke="limegreen" stroke-width="2"/><rect x="1796.35" y="444.923076923077" width="100" height="155.08" fill="none" stroke="limegreen" stroke-width="2"/> <rect x="319.25" y="600" width="100" height="109.85" fill="none" stroke="limegreen" stroke-width="2"/><rect x="466.96" y="600" width="100" height="420.00" fill="none" stroke="limegreen" stroke-width="2"/><rect x="762.38" y="600" width="100" height="239.08" fill="none" stroke="limegreen" stroke-width="2"/> </g><g><text x="221.54" y="409.08" font-family="Consolas" font-size="48" text-anchor="middle" fill="white">2.8</text><text x="664.67" y="170" font-family="Consolas" font-size="48" text-anchor="middle" fill="white">6.5</text><text x="960.09" y="376.77" font-family="Consolas" font-size="48" text-anchor="middle" fill="white">3.3</text><text x="1107.8" y="383.23" font-family="Consolas" font-size="48" text-anchor="middle" fill="white">3.2</text><text x="1255.51" y="396.15" font-family="Consolas" font-size="48" text-anchor="middle" fill="white">3</text><text x="1403.22" y="402.62" font-family="Consolas" font-size="48" text-anchor="middle" fill="white">2.9</text><text x="1550.93" y="415.54" font-family="Consolas" font-size="48" text-anchor="middle" fill="white">2.7</text><text x="1698.64" y="428.46" font-family="Consolas" font-size="48" text-anchor="middle" fill="white">2.5</text><text x="1846.35" y="434.92" font-family="Consolas" font-size="48" text-anchor="middle" fill="white">2.4</text> <text x="319.25" y="699.846153846154" font-family="Consolas" font-size="48" ttext-anchor="middle" fill="white">-1.7</text><text x="466.96" y="1010" font-family="Consolas" font-size="48" ttext-anchor="middle" fill="white">-6.5</text><text x="762.38" y="829.076923076923" font-family="Consolas" font-size="48" ttext-anchor="middle" fill="white">-3.7</text></g><g><text x="231.54" y="615" transform="rotate(270 221.54 600)" font-family="Consolas" font-size="50" fill="limegreen">2018</text><text x="379.25" y="615" transform="rotate(270 369.25 600)" font-family="Consolas" font-size="50" fill="limegreen">2019</text><text x="526.96" y="615" transform="rotate(270 516.96 600)" font-family="Consolas" font-size="50" fill="limegreen">2020</text><text x="674.67" y="615" transform="rotate(270 664.67 600)" font-family="Consolas" font-size="50" fill="limegreen">2021</text><text x="822.38" y="615" transform="rotate(270 812.38 600)" font-family="Consolas" font-size="50" fill="limegreen">2022</text><text x="970.09" y="615" transform="rotate(270 960.09 600)" font-family="Consolas" font-size="50" fill="limegreen">2023</text><text x="1117.8" y="615" transform="rotate(270 1107.8 600)" font-family="Consolas" font-size="50" fill="limegreen">2024</text><text x="1265.51" y="615" transform="rotate(270 1255.51 600)" font-family="Consolas" font-size="50" fill="limegreen">2025</text><text x="1413.22" y="615" transform="rotate(270 1403.22 600)" font-family="Consolas" font-size="50" fill="limegreen">2026</text><text x="1560.93" y="615" transform="rotate(270 1550.93 600)" font-family="Consolas" font-size="50" fill="limegreen">2027</text><text x="1708.64" y="615" transform="rotate(270 1698.64 600)" font-family="Consolas" font-size="50" fill="limegreen">2028</text><text x="1856.35" y="615" transform="rotate(270 1846.35 600)" font-family="Consolas" font-size="50" fill="limegreen">2029</text></g></g></svg>
