<svg xmlns="http://www.w3.org/2000/svg" width="1920" height="1080"> <rect width="100%" height="100%" fill="#000"/><g xmlns="http://www.w3.org/2000/svg" transform="translate(0,0) scale(1.0)"> <text  x="1080" y="60" font-family="Consolas" font-size="52" text-anchor="middle" fill="white">REAL  GDP ANNUAL PERCENT CHANGE (2018-2029) [IMF DATA]</text><text  x="1780" y="1050" font-family="Consolas" font-size="32" text-anchor="middle" fill="white">ZOOMIT WORLD</text><image x="180" y="-50" width="280" height="280" href="https://cdn.jsdelivr.net/gh/hampusborgos/country-flags@main/svg/is.svg"></image><text x="70" y="180" font-family="Consolas" font-size="50" text-anchor="middle" fill="white">9%</text><text x="70" y="417.735849056604" font-family="Consolas" font-size="50" text-anchor="middle" fill="white">4.5%</text><text x="70" y="655.471698113208" font-family="Consolas" font-size="50" text-anchor="middle" fill="white">0%</text><text x="70" y="837.735849056604" font-family="Consolas" font-size="50" text-anchor="middle" fill="white">-3.5%</text><text x="70" y="1020" font-family="Consolas" font-size="50" text-anchor="middle" fill="white">-7%</text><line  x1="141.54" y1="180" x2="141.54" y2="1020" stroke="white" stroke-width="2"/><line x1="141.54"  y1="655.471698113208" x2="1920" y2="655.471698113208" stroke="white" stroke-width="5"/><g><rect x="171.54" y="396.603773584906" width="100" height="258.87" fill="none" stroke="limegreen" stroke-width="2"/><rect x="319.25" y="555.094339622642" width="100" height="100.38" fill="none" stroke="limegreen" stroke-width="2"/><rect x="614.67" y="375.471698113208" width="100" height="280.00" fill="none" stroke="limegreen" stroke-width="2"/><rect x="762.38" y="180" width="100" height="475.47" fill="none" stroke="limegreen" stroke-width="2"/><rect x="910.09" y="391.320754716981" width="100" height="264.15" fill="none" stroke="limegreen" stroke-width="2"/><rect x="1057.8" y="623.77358490566" width="100" height="31.70" fill="none" stroke="limegreen" stroke-width="2"/><rect x="1205.51" y="528.679245283019" width="100" height="126.79" fill="none" stroke="limegreen" stroke-width="2"/><rect x="1353.22" y="539.245283018868" width="100" height="116.23" fill="none" stroke="limegreen" stroke-width="2"/><rect x="1500.93" y="533.962264150943" width="100" height="121.51" fill="none" stroke="limegreen" stroke-width="2"/><rect x="1648.64" y="528.679245283019" width="100" height="126.79" fill="none" stroke="limegreen" stroke-width="2"/><rect x="1796.35" y="528.679245283019" width="100" height="126.79" fill="none" stroke="limegreen" stroke-width="2"/> <rect x="466.96" y="655.471698113208" width="100" height="364.53" fill="none" stroke="limegreen" stroke-width="2"/> </g><g><text x="221.54" y="386.6" font-family="Consolas" font-size="48" text-anchor="middle" fill="white">4.9</text><text x="369.25" y="545.09" font-family="Consolas" font-size="48" text-anchor="middle" fill="white">1.9</text><text x="664.67" y="365.47" font-family="Consolas" font-size="48" text-anchor="middle" fill="white">5.3</text><text x="812.38" y="170" font-family="Consolas" font-size="48" text-anchor="middle" fill="white">9</text><text x="960.09" y="381.32" font-family="Consolas" font-size="48" text-anchor="middle" fill="white">5</text><text x="1107.8" y="613.77" font-family="Consolas" font-size="48" text-anchor="middle" fill="white">0.6</text><text x="1255.51" y="518.68" font-family="Consolas" font-size="48" text-anchor="middle" fill="white">2.4</text><text x="1403.22" y="529.25" font-family="Consolas" font-size="48" text-anchor="middle" fill="white">2.2</text><text x="1550.93" y="523.96" font-family="Consolas" font-size="48" text-anchor="middle" fill="white">2.3</text><text x="1698.64" y="518.68" font-family="Consolas" font-size="48" text-anchor="middle" fill="white">2.4</text><text x="1846.35" y="518.68" font-family="Consolas" font-size="48" text-anchor="middle" fill="white">2.4</text> <text x="466.96" y="1010" font-family="Consolas" font-size="48" ttext-anchor="middle" fill="white">-6.9</text></g><g><text x="231.54" y="670.471698113208" transform="rotate(270 221.54 655.471698113208)" font-family="Consolas" font-size="50" fill="limegreen">2018</text><text x="379.25" y="670.471698113208" transform="rotate(270 369.25 655.471698113208)" font-family="Consolas" font-size="50" fill="limegreen">2019</text><text x="526.96" y="670.471698113208" transform="rotate(270 516.96 655.471698113208)" font-family="Consolas" font-size="50" fill="limegreen">2020</text><text x="674.67" y="670.471698113208" transform="rotate(270 664.67 655.471698113208)" font-family="Consolas" font-size="50" fill="limegreen">2021</text><text x="822.38" y="670.471698113208" transform="rotate(270 812.38 655.471698113208)" font-family="Consolas" font-size="50" fill="limegreen">2022</text><text x="970.09" y="670.471698113208" transform="rotate(270 960.09 655.471698113208)" font-family="Consolas" font-size="50" fill="limegreen">2023</text><text x="1117.8" y="670.471698113208" transform="rotate(270 1107.8 655.471698113208)" font-family="Consolas" font-size="50" fill="limegreen">2024</text><text x="1265.51" y="670.471698113208" transform="rotate(270 1255.51 655.471698113208)" font-family="Consolas" font-size="50" fill="limegreen">2025</text><text x="1413.22" y="670.471698113208" transform="rotate(270 1403.22 655.471698113208)" font-family="Consolas" font-size="50" fill="limegreen">2026</text><text x="1560.93" y="670.471698113208" transform="rotate(270 1550.93 655.471698113208)" font-family="Consolas" font-size="50" fill="limegreen">2027</text><text x="1708.64" y="670.471698113208" transform="rotate(270 1698.64 655.471698113208)" font-family="Consolas" font-size="50" fill="limegreen">2028</text><text x="1856.35" y="670.471698113208" transform="rotate(270 1846.35 655.471698113208)" font-family="Consolas" font-size="50" fill="limegreen">2029</text></g></g></svg>
