<svg xmlns="http://www.w3.org/2000/svg" width="1920" height="1080"> <rect width="100%" height="100%" fill="#000"/><g xmlns="http://www.w3.org/2000/svg" transform="translate(0,0) scale(1.0)"> <text  x="1080" y="60" font-family="Consolas" font-size="52" text-anchor="middle" fill="white">REAL  GDP ANNUAL PERCENT CHANGE (2018-2029) [IMF DATA]</text><text  x="1780" y="1050" font-family="Consolas" font-size="32" text-anchor="middle" fill="white">ZOOMIT WORLD</text><image x="180" y="-50" width="280" height="280" href="https://cdn.jsdelivr.net/gh/hampusborgos/country-flags@main/svg/dm.svg"></image><text x="70" y="180" font-family="Consolas" font-size="50" text-anchor="middle" fill="white">7%</text><text x="70" y="303.31914893617" font-family="Consolas" font-size="50" text-anchor="middle" fill="white">3.5%</text><text x="70" y="426.63829787234" font-family="Consolas" font-size="50" text-anchor="middle" fill="white">0%</text><text x="70" y="723.31914893617" font-family="Consolas" font-size="50" text-anchor="middle" fill="white">-8.5%</text><text x="70" y="1020" font-family="Consolas" font-size="50" text-anchor="middle" fill="white">-17%</text><line  x1="141.54" y1="180" x2="141.54" y2="1020" stroke="white" stroke-width="2"/><line x1="141.54"  y1="426.63829787234" x2="1920" y2="426.63829787234" stroke="white" stroke-width="5"/><g><rect x="171.54" y="301.531914893617" width="100" height="125.11" fill="none" stroke="limegreen" stroke-width="2"/><rect x="319.25" y="230.042553191489" width="100" height="196.60" fill="none" stroke="limegreen" stroke-width="2"/><rect x="614.67" y="180" width="100" height="246.64" fill="none" stroke="limegreen" stroke-width="2"/><rect x="762.38" y="226.468085106383" width="100" height="200.17" fill="none" stroke="limegreen" stroke-width="2"/><rect x="910.09" y="258.63829787234" width="100" height="168.00" fill="none" stroke="limegreen" stroke-width="2"/><rect x="1057.8" y="262.212765957447" width="100" height="164.43" fill="none" stroke="limegreen" stroke-width="2"/><rect x="1205.51" y="276.510638297872" width="100" height="150.13" fill="none" stroke="limegreen" stroke-width="2"/><rect x="1353.22" y="308.68085106383" width="100" height="117.96" fill="none" stroke="limegreen" stroke-width="2"/><rect x="1500.93" y="322.978723404255" width="100" height="103.66" fill="none" stroke="limegreen" stroke-width="2"/><rect x="1648.64" y="330.127659574468" width="100" height="96.51" fill="none" stroke="limegreen" stroke-width="2"/><rect x="1796.35" y="340.851063829787" width="100" height="85.79" fill="none" stroke="limegreen" stroke-width="2"/> <rect x="466.96" y="426.63829787234" width="100" height="593.36" fill="none" stroke="limegreen" stroke-width="2"/> </g><g><text x="221.54" y="291.53" font-family="Consolas" font-size="48" text-anchor="middle" fill="white">3.5</text><text x="369.25" y="220.04" font-family="Consolas" font-size="48" text-anchor="middle" fill="white">5.5</text><text x="664.67" y="170" font-family="Consolas" font-size="48" text-anchor="middle" fill="white">6.9</text><text x="812.38" y="216.47" font-family="Consolas" font-size="48" text-anchor="middle" fill="white">5.6</text><text x="960.09" y="248.64" font-family="Consolas" font-size="48" text-anchor="middle" fill="white">4.7</text><text x="1107.8" y="252.21" font-family="Consolas" font-size="48" text-anchor="middle" fill="white">4.6</text><text x="1255.51" y="266.51" font-family="Consolas" font-size="48" text-anchor="middle" fill="white">4.2</text><text x="1403.22" y="298.68" font-family="Consolas" font-size="48" text-anchor="middle" fill="white">3.3</text><text x="1550.93" y="312.98" font-family="Consolas" font-size="48" text-anchor="middle" fill="white">2.9</text><text x="1698.64" y="320.13" font-family="Consolas" font-size="48" text-anchor="middle" fill="white">2.7</text><text x="1846.35" y="330.85" font-family="Consolas" font-size="48" text-anchor="middle" fill="white">2.4</text> <text x="466.96" y="1010" font-family="Consolas" font-size="48" ttext-anchor="middle" fill="white">-16.6</text></g><g><text x="231.54" y="441.63829787234" transform="rotate(270 221.54 426.63829787234)" font-family="Consolas" font-size="50" fill="limegreen">2018</text><text x="379.25" y="441.63829787234" transform="rotate(270 369.25 426.63829787234)" font-family="Consolas" font-size="50" fill="limegreen">2019</text><text x="526.96" y="441.63829787234" transform="rotate(270 516.96 426.63829787234)" font-family="Consolas" font-size="50" fill="limegreen">2020</text><text x="674.67" y="441.63829787234" transform="rotate(270 664.67 426.63829787234)" font-family="Consolas" font-size="50" fill="limegreen">2021</text><text x="822.38" y="441.63829787234" transform="rotate(270 812.38 426.63829787234)" font-family="Consolas" font-size="50" fill="limegreen">2022</text><text x="970.09" y="441.63829787234" transform="rotate(270 960.09 426.63829787234)" font-family="Consolas" font-size="50" fill="limegreen">2023</text><text x="1117.8" y="441.63829787234" transform="rotate(270 1107.8 426.63829787234)" font-family="Consolas" font-size="50" fill="limegreen">2024</text><text x="1265.51" y="441.63829787234" transform="rotate(270 1255.51 426.63829787234)" font-family="Consolas" font-size="50" fill="limegreen">2025</text><text x="1413.22" y="441.63829787234" transform="rotate(270 1403.22 426.63829787234)" font-family="Consolas" font-size="50" fill="limegreen">2026</text><text x="1560.93" y="441.63829787234" transform="rotate(270 1550.93 426.63829787234)" font-family="Consolas" font-size="50" fill="limegreen">2027</text><text x="1708.64" y="441.63829787234" transform="rotate(270 1698.64 426.63829787234)" font-family="Consolas" font-size="50" fill="limegreen">2028</text><text x="1856.35" y="441.63829787234" transform="rotate(270 1846.35 426.63829787234)" font-family="Consolas" font-size="50" fill="limegreen">2029</text></g></g></svg>
