<svg xmlns="http://www.w3.org/2000/svg" width="1920" height="1080"> <rect width="100%" height="100%" fill="#000"/><g xmlns="http://www.w3.org/2000/svg" transform="translate(0,0) scale(1.0)"> <text  x="1080" y="60" font-family="Consolas" font-size="52" text-anchor="middle" fill="white">REAL  GDP ANNUAL PERCENT CHANGE (2018-2029) [IMF DATA]</text><text  x="1700" y="1050" font-family="Consolas" font-size="22" text-anchor="middle" fill="white">DESIGNED BY ZOOMIT WORLD</text><image x="180" y="-50" width="280" height="280" href="https://cdn.jsdelivr.net/gh/hampusborgos/country-flags@main/svg/bs.svg"></image><text x="70" y="180" font-family="Consolas" font-size="50" text-anchor="middle" fill="white">6%</text><text x="70" y="468.139534883721" font-family="Consolas" font-size="50" text-anchor="middle" fill="white">3%</text><text x="70" y="756.279069767442" font-family="Consolas" font-size="50" text-anchor="middle" fill="white">0%</text><text x="70" y="888.139534883721" font-family="Consolas" font-size="50" text-anchor="middle" fill="white">-1.5%</text><text x="70" y="1020" font-family="Consolas" font-size="50" text-anchor="middle" fill="white">-3%</text><line  x1="141.54" y1="180" x2="141.54" y2="1020" stroke="white" stroke-width="2"/><line x1="141.54"  y1="756.279069767442" x2="1920" y2="756.279069767442" stroke="white" stroke-width="5"/><g><rect x="171.54" y="482.790697674419" width="100" height="273.49" fill="none" stroke="limegreen" stroke-width="2"/><rect x="319.25" y="541.395348837209" width="100" height="214.88" fill="none" stroke="limegreen" stroke-width="2"/><rect x="614.67" y="180" width="100" height="576.28" fill="none" stroke="limegreen" stroke-width="2"/><rect x="910.09" y="404.651162790698" width="100" height="351.63" fill="none" stroke="limegreen" stroke-width="2"/><rect x="1057.8" y="404.651162790698" width="100" height="351.63" fill="none" stroke="limegreen" stroke-width="2"/><rect x="1205.51" y="629.302325581395" width="100" height="126.98" fill="none" stroke="limegreen" stroke-width="2"/><rect x="1353.22" y="639.06976744186" width="100" height="117.21" fill="none" stroke="limegreen" stroke-width="2"/><rect x="1500.93" y="639.06976744186" width="100" height="117.21" fill="none" stroke="limegreen" stroke-width="2"/><rect x="1648.64" y="639.06976744186" width="100" height="117.21" fill="none" stroke="limegreen" stroke-width="2"/><rect x="1796.35" y="639.06976744186" width="100" height="117.21" fill="none" stroke="limegreen" stroke-width="2"/> <rect x="466.96" y="756.279069767442" width="100" height="263.72" fill="none" stroke="limegreen" stroke-width="2"/><rect x="762.38" y="756.279069767442" width="100" height="117.21" fill="none" stroke="limegreen" stroke-width="2"/> </g><g><text x="221.54" y="472.79" font-family="Consolas" font-size="48" text-anchor="middle" fill="white">2.8</text><text x="369.25" y="531.4" font-family="Consolas" font-size="48" text-anchor="middle" fill="white">2.2</text><text x="664.67" y="170" font-family="Consolas" font-size="48" text-anchor="middle" fill="white">5.9</text><text x="960.09" y="394.65" font-family="Consolas" font-size="48" text-anchor="middle" fill="white">3.6</text><text x="1107.8" y="394.65" font-family="Consolas" font-size="48" text-anchor="middle" fill="white">3.6</text><text x="1255.51" y="619.3" font-family="Consolas" font-size="48" text-anchor="middle" fill="white">1.3</text><text x="1403.22" y="629.07" font-family="Consolas" font-size="48" text-anchor="middle" fill="white">1.2</text><text x="1550.93" y="629.07" font-family="Consolas" font-size="48" text-anchor="middle" fill="white">1.2</text><text x="1698.64" y="629.07" font-family="Consolas" font-size="48" text-anchor="middle" fill="white">1.2</text><text x="1846.35" y="629.07" font-family="Consolas" font-size="48" text-anchor="middle" fill="white">1.2</text> <text x="466.96" y="1010" font-family="Consolas" font-size="48" ttext-anchor="middle" fill="white">-2.7</text><text x="762.38" y="863.488372093023" font-family="Consolas" font-size="48" ttext-anchor="middle" fill="white">-1.2</text></g><g><text x="231.54" y="771.279069767442" transform="rotate(270 221.54 756.279069767442)" font-family="Consolas" font-size="50" fill="limegreen">2018</text><text x="379.25" y="771.279069767442" transform="rotate(270 369.25 756.279069767442)" font-family="Consolas" font-size="50" fill="limegreen">2019</text><text x="526.96" y="771.279069767442" transform="rotate(270 516.96 756.279069767442)" font-family="Consolas" font-size="50" fill="limegreen">2020</text><text x="674.67" y="771.279069767442" transform="rotate(270 664.67 756.279069767442)" font-family="Consolas" font-size="50" fill="limegreen">2021</text><text x="822.38" y="771.279069767442" transform="rotate(270 812.38 756.279069767442)" font-family="Consolas" font-size="50" fill="limegreen">2022</text><text x="970.09" y="771.279069767442" transform="rotate(270 960.09 756.279069767442)" font-family="Consolas" font-size="50" fill="limegreen">2023</text><text x="1117.8" y="771.279069767442" transform="rotate(270 1107.8 756.279069767442)" font-family="Consolas" font-size="50" fill="limegreen">2024</text><text x="1265.51" y="771.279069767442" transform="rotate(270 1255.51 756.279069767442)" font-family="Consolas" font-size="50" fill="limegreen">2025</text><text x="1413.22" y="771.279069767442" transform="rotate(270 1403.22 756.279069767442)" font-family="Consolas" font-size="50" fill="limegreen">2026</text><text x="1560.93" y="771.279069767442" transform="rotate(270 1550.93 756.279069767442)" font-family="Consolas" font-size="50" fill="limegreen">2027</text><text x="1708.64" y="771.279069767442" transform="rotate(270 1698.64 756.279069767442)" font-family="Consolas" font-size="50" fill="limegreen">2028</text><text x="1856.35" y="771.279069767442" transform="rotate(270 1846.35 756.279069767442)" font-family="Consolas" font-size="50" fill="limegreen">2029</text></g></g></svg>
