<svg xmlns="http://www.w3.org/2000/svg" width="1920" height="1080"> <rect width="100%" height="100%" fill="#000"/><g xmlns="http://www.w3.org/2000/svg" transform="translate(0,0) scale(1.0)"> <text  x="1080" y="60" font-family="Consolas" font-size="52" text-anchor="middle" fill="white">REAL  GDP ANNUAL PERCENT CHANGE (2018-2029) [IMF DATA]</text><text  x="1780" y="1050" font-family="Consolas" font-size="32" text-anchor="middle" fill="white">ZOOMIT WORLD</text><image x="180" y="-50" width="280" height="280" href="https://cdn.jsdelivr.net/gh/hampusborgos/country-flags@main/svg/za.svg"></image><text x="70" y="180" font-family="Consolas" font-size="50" text-anchor="middle" fill="white">5%</text><text x="70" y="367.5" font-family="Consolas" font-size="50" text-anchor="middle" fill="white">2.5%</text><text x="70" y="555" font-family="Consolas" font-size="50" text-anchor="middle" fill="white">0%</text><text x="70" y="787.5" font-family="Consolas" font-size="50" text-anchor="middle" fill="white">-3%</text><text x="70" y="1020" font-family="Consolas" font-size="50" text-anchor="middle" fill="white">-6%</text><line  x1="141.54" y1="180" x2="141.54" y2="1020" stroke="white" stroke-width="2"/><line x1="141.54"  y1="555" x2="1920" y2="555" stroke="white" stroke-width="5"/><g><rect x="171.54" y="435" width="100" height="120.00" fill="none" stroke="limegreen" stroke-width="2"/><rect x="319.25" y="532.5" width="100" height="22.50" fill="none" stroke="limegreen" stroke-width="2"/><rect x="614.67" y="180" width="100" height="375.00" fill="none" stroke="limegreen" stroke-width="2"/><rect x="762.38" y="412.5" width="100" height="142.50" fill="none" stroke="limegreen" stroke-width="2"/><rect x="910.09" y="502.5" width="100" height="52.50" fill="none" stroke="limegreen" stroke-width="2"/><rect x="1057.8" y="472.5" width="100" height="82.50" fill="none" stroke="limegreen" stroke-width="2"/><rect x="1205.51" y="442.5" width="100" height="112.50" fill="none" stroke="limegreen" stroke-width="2"/><rect x="1353.22" y="442.5" width="100" height="112.50" fill="none" stroke="limegreen" stroke-width="2"/><rect x="1500.93" y="442.5" width="100" height="112.50" fill="none" stroke="limegreen" stroke-width="2"/><rect x="1648.64" y="442.5" width="100" height="112.50" fill="none" stroke="limegreen" stroke-width="2"/><rect x="1796.35" y="442.5" width="100" height="112.50" fill="none" stroke="limegreen" stroke-width="2"/> <rect x="466.96" y="555" width="100" height="465.00" fill="none" stroke="limegreen" stroke-width="2"/> </g><g><text x="221.54" y="425" font-family="Consolas" font-size="48" text-anchor="middle" fill="white">1.6</text><text x="369.25" y="522.5" font-family="Consolas" font-size="48" text-anchor="middle" fill="white">0.3</text><text x="664.67" y="170" font-family="Consolas" font-size="48" text-anchor="middle" fill="white">5</text><text x="812.38" y="402.5" font-family="Consolas" font-size="48" text-anchor="middle" fill="white">1.9</text><text x="960.09" y="492.5" font-family="Consolas" font-size="48" text-anchor="middle" fill="white">0.7</text><text x="1107.8" y="462.5" font-family="Consolas" font-size="48" text-anchor="middle" fill="white">1.1</text><text x="1255.51" y="432.5" font-family="Consolas" font-size="48" text-anchor="middle" fill="white">1.5</text><text x="1403.22" y="432.5" font-family="Consolas" font-size="48" text-anchor="middle" fill="white">1.5</text><text x="1550.93" y="432.5" font-family="Consolas" font-size="48" text-anchor="middle" fill="white">1.5</text><text x="1698.64" y="432.5" font-family="Consolas" font-size="48" text-anchor="middle" fill="white">1.5</text><text x="1846.35" y="432.5" font-family="Consolas" font-size="48" text-anchor="middle" fill="white">1.5</text> <text x="466.96" y="1010" font-family="Consolas" font-size="48" ttext-anchor="middle" fill="white">-6.2</text></g><g><text x="231.54" y="570" transform="rotate(270 221.54 555)" font-family="Consolas" font-size="50" fill="limegreen">2018</text><text x="379.25" y="570" transform="rotate(270 369.25 555)" font-family="Consolas" font-size="50" fill="limegreen">2019</text><text x="526.96" y="570" transform="rotate(270 516.96 555)" font-family="Consolas" font-size="50" fill="limegreen">2020</text><text x="674.67" y="570" transform="rotate(270 664.67 555)" font-family="Consolas" font-size="50" fill="limegreen">2021</text><text x="822.38" y="570" transform="rotate(270 812.38 555)" font-family="Consolas" font-size="50" fill="limegreen">2022</text><text x="970.09" y="570" transform="rotate(270 960.09 555)" font-family="Consolas" font-size="50" fill="limegreen">2023</text><text x="1117.8" y="570" transform="rotate(270 1107.8 555)" font-family="Consolas" font-size="50" fill="limegreen">2024</text><text x="1265.51" y="570" transform="rotate(270 1255.51 555)" font-family="Consolas" font-size="50" fill="limegreen">2025</text><text x="1413.22" y="570" transform="rotate(270 1403.22 555)" font-family="Consolas" font-size="50" fill="limegreen">2026</text><text x="1560.93" y="570" transform="rotate(270 1550.93 555)" font-family="Consolas" font-size="50" fill="limegreen">2027</text><text x="1708.64" y="570" transform="rotate(270 1698.64 555)" font-family="Consolas" font-size="50" fill="limegreen">2028</text><text x="1856.35" y="570" transform="rotate(270 1846.35 555)" font-family="Consolas" font-size="50" fill="limegreen">2029</text></g></g></svg>
