<svg xmlns="http://www.w3.org/2000/svg" width="1920" height="1080"> <rect width="100%" height="100%" fill="#000"/><g xmlns="http://www.w3.org/2000/svg" transform="translate(0,0) scale(1.0)"> <text  x="1080" y="60" font-family="Consolas" font-size="52" text-anchor="middle" fill="white">REAL  GDP ANNUAL PERCENT CHANGE (2018-2029) [IMF DATA]</text><text  x="1700" y="1050" font-family="Consolas" font-size="22" text-anchor="middle" fill="white">DESIGNED BY ZOOMIT WORLD</text><image x="180" y="-50" width="280" height="280" href="https://cdn.jsdelivr.net/gh/hampusborgos/country-flags@main/svg/bs.svg"></image><text x="70" y="180" font-family="Consolas" font-size="50" text-anchor="middle" fill="white">5%</text><text x="70" y="517.377049180328" font-family="Consolas" font-size="50" text-anchor="middle" fill="white">2.5%</text><text x="70" y="854.754098360656" font-family="Consolas" font-size="50" text-anchor="middle" fill="white">0%</text><text x="70" y="937.377049180328" font-family="Consolas" font-size="50" text-anchor="middle" fill="white">-0.5%</text><text x="70" y="1020" font-family="Consolas" font-size="50" text-anchor="middle" fill="white">-1%</text><line  x1="141.54" y1="180" x2="141.54" y2="1020" stroke="white" stroke-width="2"/><line x1="141.54"  y1="854.754098360656" x2="1920" y2="854.754098360656" stroke="white" stroke-width="5"/><g><rect x="171.54" y="207.540983606557" width="100" height="647.21" fill="none" stroke="limegreen" stroke-width="2"/><rect x="319.25" y="193.770491803279" width="100" height="660.98" fill="none" stroke="limegreen" stroke-width="2"/><rect x="614.67" y="427.868852459016" width="100" height="426.89" fill="none" stroke="limegreen" stroke-width="2"/><rect x="762.38" y="372.786885245902" width="100" height="481.97" fill="none" stroke="limegreen" stroke-width="2"/><rect x="910.09" y="248.852459016393" width="100" height="605.90" fill="none" stroke="limegreen" stroke-width="2"/><rect x="1057.8" y="331.475409836066" width="100" height="523.28" fill="none" stroke="limegreen" stroke-width="2"/><rect x="1205.51" y="248.852459016393" width="100" height="605.90" fill="none" stroke="limegreen" stroke-width="2"/><rect x="1353.22" y="180" width="100" height="674.75" fill="none" stroke="limegreen" stroke-width="2"/><rect x="1500.93" y="180" width="100" height="674.75" fill="none" stroke="limegreen" stroke-width="2"/><rect x="1648.64" y="180" width="100" height="674.75" fill="none" stroke="limegreen" stroke-width="2"/><rect x="1796.35" y="180" width="100" height="674.75" fill="none" stroke="limegreen" stroke-width="2"/> <rect x="466.96" y="854.754098360656" width="100" height="165.25" fill="none" stroke="limegreen" stroke-width="2"/> </g><g><text x="221.54" y="197.54" font-family="Consolas" font-size="48" text-anchor="middle" fill="white">4.7</text><text x="369.25" y="183.77" font-family="Consolas" font-size="48" text-anchor="middle" fill="white">4.8</text><text x="664.67" y="417.87" font-family="Consolas" font-size="48" text-anchor="middle" fill="white">3.1</text><text x="812.38" y="362.79" font-family="Consolas" font-size="48" text-anchor="middle" fill="white">3.5</text><text x="960.09" y="238.85" font-family="Consolas" font-size="48" text-anchor="middle" fill="white">4.4</text><text x="1107.8" y="321.48" font-family="Consolas" font-size="48" text-anchor="middle" fill="white">3.8</text><text x="1255.51" y="238.85" font-family="Consolas" font-size="48" text-anchor="middle" fill="white">4.4</text><text x="1403.22" y="170" font-family="Consolas" font-size="48" text-anchor="middle" fill="white">4.9</text><text x="1550.93" y="170" font-family="Consolas" font-size="48" text-anchor="middle" fill="white">4.9</text><text x="1698.64" y="170" font-family="Consolas" font-size="48" text-anchor="middle" fill="white">4.9</text><text x="1846.35" y="170" font-family="Consolas" font-size="48" text-anchor="middle" fill="white">4.9</text> <text x="466.96" y="1010" font-family="Consolas" font-size="48" ttext-anchor="middle" fill="white">-1.2</text></g><g><text x="231.54" y="869.754098360656" transform="rotate(270 221.54 854.754098360656)" font-family="Consolas" font-size="50" fill="limegreen">2018</text><text x="379.25" y="869.754098360656" transform="rotate(270 369.25 854.754098360656)" font-family="Consolas" font-size="50" fill="limegreen">2019</text><text x="526.96" y="869.754098360656" transform="rotate(270 516.96 854.754098360656)" font-family="Consolas" font-size="50" fill="limegreen">2020</text><text x="674.67" y="869.754098360656" transform="rotate(270 664.67 854.754098360656)" font-family="Consolas" font-size="50" fill="limegreen">2021</text><text x="822.38" y="869.754098360656" transform="rotate(270 812.38 854.754098360656)" font-family="Consolas" font-size="50" fill="limegreen">2022</text><text x="970.09" y="869.754098360656" transform="rotate(270 960.09 854.754098360656)" font-family="Consolas" font-size="50" fill="limegreen">2023</text><text x="1117.8" y="869.754098360656" transform="rotate(270 1107.8 854.754098360656)" font-family="Consolas" font-size="50" fill="limegreen">2024</text><text x="1265.51" y="869.754098360656" transform="rotate(270 1255.51 854.754098360656)" font-family="Consolas" font-size="50" fill="limegreen">2025</text><text x="1413.22" y="869.754098360656" transform="rotate(270 1403.22 854.754098360656)" font-family="Consolas" font-size="50" fill="limegreen">2026</text><text x="1560.93" y="869.754098360656" transform="rotate(270 1550.93 854.754098360656)" font-family="Consolas" font-size="50" fill="limegreen">2027</text><text x="1708.64" y="869.754098360656" transform="rotate(270 1698.64 854.754098360656)" font-family="Consolas" font-size="50" fill="limegreen">2028</text><text x="1856.35" y="869.754098360656" transform="rotate(270 1846.35 854.754098360656)" font-family="Consolas" font-size="50" fill="limegreen">2029</text></g></g></svg>
