<svg xmlns="http://www.w3.org/2000/svg" width="1920" height="1080"> <rect width="100%" height="100%" fill="#000"/><g xmlns="http://www.w3.org/2000/svg" transform="translate(0,0) scale(1.0)"> <text  x="1080" y="60" font-family="Consolas" font-size="52" text-anchor="middle" fill="white">REAL  GDP ANNUAL PERCENT CHANGE (2018-2029) [IMF DATA]</text><text  x="1700" y="1050" font-family="Consolas" font-size="22" text-anchor="middle" fill="white">DESIGNED BY ZOOMIT WORLD</text><image x="180" y="-50" width="280" height="280" href="https://cdn.jsdelivr.net/gh/hampusborgos/country-flags@main/svg/bs.svg"></image><text x="70" y="180" font-family="Consolas" font-size="50" text-anchor="middle" fill="white">12%</text><text x="70" y="422.621359223301" font-family="Consolas" font-size="50" text-anchor="middle" fill="white">6%</text><text x="70" y="665.242718446602" font-family="Consolas" font-size="50" text-anchor="middle" fill="white">0%</text><text x="70" y="842.621359223301" font-family="Consolas" font-size="50" text-anchor="middle" fill="white">-4.5%</text><text x="70" y="1020" font-family="Consolas" font-size="50" text-anchor="middle" fill="white">-9%</text><line  x1="141.54" y1="180" x2="141.54" y2="1020" stroke="white" stroke-width="2"/><line x1="141.54"  y1="665.242718446602" x2="1920" y2="665.242718446602" stroke="white" stroke-width="5"/><g><rect x="171.54" y="493.980582524272" width="100" height="171.26" fill="none" stroke="limegreen" stroke-width="2"/><rect x="319.25" y="542.912621359223" width="100" height="122.33" fill="none" stroke="limegreen" stroke-width="2"/><rect x="614.67" y="180" width="100" height="485.24" fill="none" stroke="limegreen" stroke-width="2"/><rect x="762.38" y="440.970873786408" width="100" height="224.27" fill="none" stroke="limegreen" stroke-width="2"/><rect x="910.09" y="555.145631067961" width="100" height="110.10" fill="none" stroke="limegreen" stroke-width="2"/><rect x="1057.8" y="624.466019417476" width="100" height="40.78" fill="none" stroke="limegreen" stroke-width="2"/><rect x="1205.51" y="453.203883495146" width="100" height="212.04" fill="none" stroke="limegreen" stroke-width="2"/><rect x="1353.22" y="469.514563106796" width="100" height="195.73" fill="none" stroke="limegreen" stroke-width="2"/><rect x="1500.93" y="502.135922330097" width="100" height="163.11" fill="none" stroke="limegreen" stroke-width="2"/><rect x="1648.64" y="502.135922330097" width="100" height="163.11" fill="none" stroke="limegreen" stroke-width="2"/><rect x="1796.35" y="502.135922330097" width="100" height="163.11" fill="none" stroke="limegreen" stroke-width="2"/> <rect x="466.96" y="665.242718446602" width="100" height="354.76" fill="none" stroke="limegreen" stroke-width="2"/> </g><g><text x="221.54" y="483.98" font-family="Consolas" font-size="48" text-anchor="middle" fill="white">4.2</text><text x="369.25" y="532.91" font-family="Consolas" font-size="48" text-anchor="middle" fill="white">3</text><text x="664.67" y="170" font-family="Consolas" font-size="48" text-anchor="middle" fill="white">11.9</text><text x="812.38" y="430.97" font-family="Consolas" font-size="48" text-anchor="middle" fill="white">5.5</text><text x="960.09" y="545.15" font-family="Consolas" font-size="48" text-anchor="middle" fill="white">2.7</text><text x="1107.8" y="614.47" font-family="Consolas" font-size="48" text-anchor="middle" fill="white">1</text><text x="1255.51" y="443.2" font-family="Consolas" font-size="48" text-anchor="middle" fill="white">5.2</text><text x="1403.22" y="459.51" font-family="Consolas" font-size="48" text-anchor="middle" fill="white">4.8</text><text x="1550.93" y="492.14" font-family="Consolas" font-size="48" text-anchor="middle" fill="white">4</text><text x="1698.64" y="492.14" font-family="Consolas" font-size="48" text-anchor="middle" fill="white">4</text><text x="1846.35" y="492.14" font-family="Consolas" font-size="48" text-anchor="middle" fill="white">4</text> <text x="466.96" y="1010" font-family="Consolas" font-size="48" ttext-anchor="middle" fill="white">-8.7</text></g><g><text x="231.54" y="680.242718446602" transform="rotate(270 221.54 665.242718446602)" font-family="Consolas" font-size="50" fill="limegreen">2018</text><text x="379.25" y="680.242718446602" transform="rotate(270 369.25 665.242718446602)" font-family="Consolas" font-size="50" fill="limegreen">2019</text><text x="526.96" y="680.242718446602" transform="rotate(270 516.96 665.242718446602)" font-family="Consolas" font-size="50" fill="limegreen">2020</text><text x="674.67" y="680.242718446602" transform="rotate(270 664.67 665.242718446602)" font-family="Consolas" font-size="50" fill="limegreen">2021</text><text x="822.38" y="680.242718446602" transform="rotate(270 812.38 665.242718446602)" font-family="Consolas" font-size="50" fill="limegreen">2022</text><text x="970.09" y="680.242718446602" transform="rotate(270 960.09 665.242718446602)" font-family="Consolas" font-size="50" fill="limegreen">2023</text><text x="1117.8" y="680.242718446602" transform="rotate(270 1107.8 665.242718446602)" font-family="Consolas" font-size="50" fill="limegreen">2024</text><text x="1265.51" y="680.242718446602" transform="rotate(270 1255.51 665.242718446602)" font-family="Consolas" font-size="50" fill="limegreen">2025</text><text x="1413.22" y="680.242718446602" transform="rotate(270 1403.22 665.242718446602)" font-family="Consolas" font-size="50" fill="limegreen">2026</text><text x="1560.93" y="680.242718446602" transform="rotate(270 1550.93 665.242718446602)" font-family="Consolas" font-size="50" fill="limegreen">2027</text><text x="1708.64" y="680.242718446602" transform="rotate(270 1698.64 665.242718446602)" font-family="Consolas" font-size="50" fill="limegreen">2028</text><text x="1856.35" y="680.242718446602" transform="rotate(270 1846.35 665.242718446602)" font-family="Consolas" font-size="50" fill="limegreen">2029</text></g></g></svg>
