<svg xmlns="http://www.w3.org/2000/svg" width="1920" height="1080"> <rect width="100%" height="100%" fill="#000"/><g xmlns="http://www.w3.org/2000/svg" transform="translate(0,0) scale(1.0)"> <text  x="1080" y="60" font-family="Consolas" font-size="52" text-anchor="middle" fill="white">REAL  GDP ANNUAL PERCENT CHANGE (2018-2029) [IMF DATA]</text><text  x="1780" y="1050" font-family="Consolas" font-size="32" text-anchor="middle" fill="white">ZOOMIT WORLD</text><image x="180" y="-50" width="280" height="280" href="https://cdn.jsdelivr.net/gh/hampusborgos/country-flags@main/svg/tv.svg"></image><text x="70" y="180" font-family="Consolas" font-size="50" text-anchor="middle" fill="white">14%</text><text x="70" y="519.418604651163" font-family="Consolas" font-size="50" text-anchor="middle" fill="white">7%</text><text x="70" y="858.837209302326" font-family="Consolas" font-size="50" text-anchor="middle" fill="white">0%</text><text x="70" y="939.418604651163" font-family="Consolas" font-size="50" text-anchor="middle" fill="white">-1.5%</text><text x="70" y="1020" font-family="Consolas" font-size="50" text-anchor="middle" fill="white">-3%</text><line  x1="141.54" y1="180" x2="141.54" y2="1020" stroke="white" stroke-width="2"/><line x1="141.54"  y1="858.837209302326" x2="1920" y2="858.837209302326" stroke="white" stroke-width="5"/><g><rect x="171.54" y="790.46511627907" width="100" height="68.37" fill="none" stroke="limegreen" stroke-width="2"/><rect x="319.25" y="180" width="100" height="678.84" fill="none" stroke="limegreen" stroke-width="2"/><rect x="614.67" y="849.06976744186" width="100" height="09.77" fill="none" stroke="limegreen" stroke-width="2"/><rect x="762.38" y="839.302325581395" width="100" height="19.53" fill="none" stroke="limegreen" stroke-width="2"/><rect x="910.09" y="668.372093023256" width="100" height="190.47" fill="none" stroke="limegreen" stroke-width="2"/><rect x="1057.8" y="687.906976744186" width="100" height="170.93" fill="none" stroke="limegreen" stroke-width="2"/><rect x="1205.51" y="712.325581395349" width="100" height="146.51" fill="none" stroke="limegreen" stroke-width="2"/><rect x="1353.22" y="736.744186046512" width="100" height="122.09" fill="none" stroke="limegreen" stroke-width="2"/><rect x="1500.93" y="751.395348837209" width="100" height="107.44" fill="none" stroke="limegreen" stroke-width="2"/><rect x="1648.64" y="756.279069767442" width="100" height="102.56" fill="none" stroke="limegreen" stroke-width="2"/><rect x="1796.35" y="761.162790697674" width="100" height="97.67" fill="none" stroke="limegreen" stroke-width="2"/> <rect x="466.96" y="858.837209302326" width="100" height="161.16" fill="none" stroke="limegreen" stroke-width="2"/> </g><g><text x="221.54" y="780.47" font-family="Consolas" font-size="48" text-anchor="middle" fill="white">1.4</text><text x="369.25" y="170" font-family="Consolas" font-size="48" text-anchor="middle" fill="white">13.9</text><text x="664.67" y="839.07" font-family="Consolas" font-size="48" text-anchor="middle" fill="white">0.2</text><text x="812.38" y="829.3" font-family="Consolas" font-size="48" text-anchor="middle" fill="white">0.4</text><text x="960.09" y="658.37" font-family="Consolas" font-size="48" text-anchor="middle" fill="white">3.9</text><text x="1107.8" y="677.91" font-family="Consolas" font-size="48" text-anchor="middle" fill="white">3.5</text><text x="1255.51" y="702.33" font-family="Consolas" font-size="48" text-anchor="middle" fill="white">3</text><text x="1403.22" y="726.74" font-family="Consolas" font-size="48" text-anchor="middle" fill="white">2.5</text><text x="1550.93" y="741.4" font-family="Consolas" font-size="48" text-anchor="middle" fill="white">2.2</text><text x="1698.64" y="746.28" font-family="Consolas" font-size="48" text-anchor="middle" fill="white">2.1</text><text x="1846.35" y="751.16" font-family="Consolas" font-size="48" text-anchor="middle" fill="white">2</text> <text x="466.96" y="1010" font-family="Consolas" font-size="48" ttext-anchor="middle" fill="white">-3.3</text></g><g><text x="231.54" y="873.837209302326" transform="rotate(270 221.54 858.837209302326)" font-family="Consolas" font-size="50" fill="limegreen">2018</text><text x="379.25" y="873.837209302326" transform="rotate(270 369.25 858.837209302326)" font-family="Consolas" font-size="50" fill="limegreen">2019</text><text x="526.96" y="873.837209302326" transform="rotate(270 516.96 858.837209302326)" font-family="Consolas" font-size="50" fill="limegreen">2020</text><text x="674.67" y="873.837209302326" transform="rotate(270 664.67 858.837209302326)" font-family="Consolas" font-size="50" fill="limegreen">2021</text><text x="822.38" y="873.837209302326" transform="rotate(270 812.38 858.837209302326)" font-family="Consolas" font-size="50" fill="limegreen">2022</text><text x="970.09" y="873.837209302326" transform="rotate(270 960.09 858.837209302326)" font-family="Consolas" font-size="50" fill="limegreen">2023</text><text x="1117.8" y="873.837209302326" transform="rotate(270 1107.8 858.837209302326)" font-family="Consolas" font-size="50" fill="limegreen">2024</text><text x="1265.51" y="873.837209302326" transform="rotate(270 1255.51 858.837209302326)" font-family="Consolas" font-size="50" fill="limegreen">2025</text><text x="1413.22" y="873.837209302326" transform="rotate(270 1403.22 858.837209302326)" font-family="Consolas" font-size="50" fill="limegreen">2026</text><text x="1560.93" y="873.837209302326" transform="rotate(270 1550.93 858.837209302326)" font-family="Consolas" font-size="50" fill="limegreen">2027</text><text x="1708.64" y="873.837209302326" transform="rotate(270 1698.64 858.837209302326)" font-family="Consolas" font-size="50" fill="limegreen">2028</text><text x="1856.35" y="873.837209302326" transform="rotate(270 1846.35 858.837209302326)" font-family="Consolas" font-size="50" fill="limegreen">2029</text></g></g></svg>
