<svg xmlns="http://www.w3.org/2000/svg" width="1920" height="1080"> <rect width="100%" height="100%" fill="#000"/><g xmlns="http://www.w3.org/2000/svg" transform="translate(0,0) scale(1.0)"> <text  x="1080" y="60" font-family="Consolas" font-size="52" text-anchor="middle" fill="white">REAL  GDP ANNUAL PERCENT CHANGE (2018-2029) [IMF DATA]</text><text  x="1700" y="1050" font-family="Consolas" font-size="22" text-anchor="middle" fill="white">DESIGNED BY ZOOMIT WORLD</text><image x="180" y="-50" width="280" height="280" href="https://cdn.jsdelivr.net/gh/hampusborgos/country-flags@main/svg/bs.svg"></image><text x="70" y="180" font-family="Consolas" font-size="50" text-anchor="middle" fill="white">8%</text><text x="70" y="522.857142857143" font-family="Consolas" font-size="50" text-anchor="middle" fill="white">4%</text><text x="70" y="865.714285714286" font-family="Consolas" font-size="50" text-anchor="middle" fill="white">0%</text><text x="70" y="942.857142857143" font-family="Consolas" font-size="50" text-anchor="middle" fill="white">-1%</text><text x="70" y="1020" font-family="Consolas" font-size="50" text-anchor="middle" fill="white">-2%</text><line  x1="141.54" y1="180" x2="141.54" y2="1020" stroke="white" stroke-width="2"/><line x1="141.54"  y1="865.714285714286" x2="1920" y2="865.714285714286" stroke="white" stroke-width="5"/><g><rect x="171.54" y="574.285714285714" width="100" height="291.43" fill="none" stroke="limegreen" stroke-width="2"/><rect x="319.25" y="522.857142857143" width="100" height="342.86" fill="none" stroke="limegreen" stroke-width="2"/><rect x="614.67" y="180" width="100" height="685.71" fill="none" stroke="limegreen" stroke-width="2"/><rect x="762.38" y="505.714285714286" width="100" height="360.00" fill="none" stroke="limegreen" stroke-width="2"/><rect x="910.09" y="565.714285714286" width="100" height="300.00" fill="none" stroke="limegreen" stroke-width="2"/><rect x="1057.8" y="565.714285714286" width="100" height="300.00" fill="none" stroke="limegreen" stroke-width="2"/><rect x="1205.51" y="557.142857142857" width="100" height="308.57" fill="none" stroke="limegreen" stroke-width="2"/><rect x="1353.22" y="548.571428571429" width="100" height="317.14" fill="none" stroke="limegreen" stroke-width="2"/><rect x="1500.93" y="540" width="100" height="325.71" fill="none" stroke="limegreen" stroke-width="2"/><rect x="1648.64" y="540" width="100" height="325.71" fill="none" stroke="limegreen" stroke-width="2"/><rect x="1796.35" y="540" width="100" height="325.71" fill="none" stroke="limegreen" stroke-width="2"/> <rect x="466.96" y="865.714285714286" width="100" height="154.29" fill="none" stroke="limegreen" stroke-width="2"/> </g><g><text x="221.54" y="564.29" font-family="Consolas" font-size="48" text-anchor="middle" fill="white">3.4</text><text x="369.25" y="512.86" font-family="Consolas" font-size="48" text-anchor="middle" fill="white">4</text><text x="664.67" y="170" font-family="Consolas" font-size="48" text-anchor="middle" fill="white">8</text><text x="812.38" y="495.71" font-family="Consolas" font-size="48" text-anchor="middle" fill="white">4.2</text><text x="960.09" y="555.71" font-family="Consolas" font-size="48" text-anchor="middle" fill="white">3.5</text><text x="1107.8" y="555.71" font-family="Consolas" font-size="48" text-anchor="middle" fill="white">3.5</text><text x="1255.51" y="547.14" font-family="Consolas" font-size="48" text-anchor="middle" fill="white">3.6</text><text x="1403.22" y="538.57" font-family="Consolas" font-size="48" text-anchor="middle" fill="white">3.7</text><text x="1550.93" y="530" font-family="Consolas" font-size="48" text-anchor="middle" fill="white">3.8</text><text x="1698.64" y="530" font-family="Consolas" font-size="48" text-anchor="middle" fill="white">3.8</text><text x="1846.35" y="530" font-family="Consolas" font-size="48" text-anchor="middle" fill="white">3.8</text> <text x="466.96" y="1010" font-family="Consolas" font-size="48" ttext-anchor="middle" fill="white">-1.8</text></g><g><text x="231.54" y="880.714285714286" transform="rotate(270 221.54 865.714285714286)" font-family="Consolas" font-size="50" fill="limegreen">2018</text><text x="379.25" y="880.714285714286" transform="rotate(270 369.25 865.714285714286)" font-family="Consolas" font-size="50" fill="limegreen">2019</text><text x="526.96" y="880.714285714286" transform="rotate(270 516.96 865.714285714286)" font-family="Consolas" font-size="50" fill="limegreen">2020</text><text x="674.67" y="880.714285714286" transform="rotate(270 664.67 865.714285714286)" font-family="Consolas" font-size="50" fill="limegreen">2021</text><text x="822.38" y="880.714285714286" transform="rotate(270 812.38 865.714285714286)" font-family="Consolas" font-size="50" fill="limegreen">2022</text><text x="970.09" y="880.714285714286" transform="rotate(270 960.09 865.714285714286)" font-family="Consolas" font-size="50" fill="limegreen">2023</text><text x="1117.8" y="880.714285714286" transform="rotate(270 1107.8 865.714285714286)" font-family="Consolas" font-size="50" fill="limegreen">2024</text><text x="1265.51" y="880.714285714286" transform="rotate(270 1255.51 865.714285714286)" font-family="Consolas" font-size="50" fill="limegreen">2025</text><text x="1413.22" y="880.714285714286" transform="rotate(270 1403.22 865.714285714286)" font-family="Consolas" font-size="50" fill="limegreen">2026</text><text x="1560.93" y="880.714285714286" transform="rotate(270 1550.93 865.714285714286)" font-family="Consolas" font-size="50" fill="limegreen">2027</text><text x="1708.64" y="880.714285714286" transform="rotate(270 1698.64 865.714285714286)" font-family="Consolas" font-size="50" fill="limegreen">2028</text><text x="1856.35" y="880.714285714286" transform="rotate(270 1846.35 865.714285714286)" font-family="Consolas" font-size="50" fill="limegreen">2029</text></g></g></svg>
