<svg xmlns="http://www.w3.org/2000/svg" width="1920" height="1080"> <rect width="100%" height="100%" fill="#000"/><g xmlns="http://www.w3.org/2000/svg" transform="translate(0,0) scale(1.0)"> <text  x="1080" y="60" font-family="Consolas" font-size="52" text-anchor="middle" fill="white">REAL  GDP ANNUAL PERCENT CHANGE (2018-2029) [IMF DATA]</text><text  x="1780" y="1050" font-family="Consolas" font-size="32" text-anchor="middle" fill="white">ZOOMIT WORLD</text><image x="180" y="-50" width="280" height="280" href="https://cdn.jsdelivr.net/gh/hampusborgos/country-flags@main/svg/sr.svg"></image><text x="70" y="180" font-family="Consolas" font-size="50" text-anchor="middle" fill="white">5%</text><text x="70" y="278.468899521531" font-family="Consolas" font-size="50" text-anchor="middle" fill="white">2.5%</text><text x="70" y="376.937799043062" font-family="Consolas" font-size="50" text-anchor="middle" fill="white">0%</text><text x="70" y="698.468899521531" font-family="Consolas" font-size="50" text-anchor="middle" fill="white">-8%</text><text x="70" y="1020" font-family="Consolas" font-size="50" text-anchor="middle" fill="white">-16%</text><line  x1="141.54" y1="180" x2="141.54" y2="1020" stroke="white" stroke-width="2"/><line x1="141.54"  y1="376.937799043062" x2="1920" y2="376.937799043062" stroke="white" stroke-width="5"/><g><rect x="171.54" y="180" width="100" height="196.94" fill="none" stroke="limegreen" stroke-width="2"/><rect x="319.25" y="328.708133971292" width="100" height="48.23" fill="none" stroke="limegreen" stroke-width="2"/><rect x="762.38" y="280.478468899522" width="100" height="96.46" fill="none" stroke="limegreen" stroke-width="2"/><rect x="910.09" y="292.535885167464" width="100" height="84.40" fill="none" stroke="limegreen" stroke-width="2"/><rect x="1057.8" y="256.363636363636" width="100" height="120.57" fill="none" stroke="limegreen" stroke-width="2"/><rect x="1205.51" y="256.363636363636" width="100" height="120.57" fill="none" stroke="limegreen" stroke-width="2"/><rect x="1353.22" y="256.363636363636" width="100" height="120.57" fill="none" stroke="limegreen" stroke-width="2"/><rect x="1500.93" y="256.363636363636" width="100" height="120.57" fill="none" stroke="limegreen" stroke-width="2"/><rect x="1648.64" y="256.363636363636" width="100" height="120.57" fill="none" stroke="limegreen" stroke-width="2"/><rect x="1796.35" y="256.363636363636" width="100" height="120.57" fill="none" stroke="limegreen" stroke-width="2"/> <rect x="466.96" y="376.937799043062" width="100" height="643.06" fill="none" stroke="limegreen" stroke-width="2"/><rect x="614.67" y="376.937799043062" width="100" height="96.46" fill="none" stroke="limegreen" stroke-width="2"/> </g><g><text x="221.54" y="170" font-family="Consolas" font-size="48" text-anchor="middle" fill="white">4.9</text><text x="369.25" y="318.71" font-family="Consolas" font-size="48" text-anchor="middle" fill="white">1.2</text><text x="812.38" y="270.48" font-family="Consolas" font-size="48" text-anchor="middle" fill="white">2.4</text><text x="960.09" y="282.54" font-family="Consolas" font-size="48" text-anchor="middle" fill="white">2.1</text><text x="1107.8" y="246.36" font-family="Consolas" font-size="48" text-anchor="middle" fill="white">3</text><text x="1255.51" y="246.36" font-family="Consolas" font-size="48" text-anchor="middle" fill="white">3</text><text x="1403.22" y="246.36" font-family="Consolas" font-size="48" text-anchor="middle" fill="white">3</text><text x="1550.93" y="246.36" font-family="Consolas" font-size="48" text-anchor="middle" fill="white">3</text><text x="1698.64" y="246.36" font-family="Consolas" font-size="48" text-anchor="middle" fill="white">3</text><text x="1846.35" y="246.36" font-family="Consolas" font-size="48" text-anchor="middle" fill="white">3</text> <text x="466.96" y="1010" font-family="Consolas" font-size="48" ttext-anchor="middle" fill="white">-16</text><text x="614.67" y="463.397129186603" font-family="Consolas" font-size="48" ttext-anchor="middle" fill="white">-2.4</text></g><g><text x="231.54" y="391.937799043062" transform="rotate(270 221.54 376.937799043062)" font-family="Consolas" font-size="50" fill="limegreen">2018</text><text x="379.25" y="391.937799043062" transform="rotate(270 369.25 376.937799043062)" font-family="Consolas" font-size="50" fill="limegreen">2019</text><text x="526.96" y="391.937799043062" transform="rotate(270 516.96 376.937799043062)" font-family="Consolas" font-size="50" fill="limegreen">2020</text><text x="674.67" y="391.937799043062" transform="rotate(270 664.67 376.937799043062)" font-family="Consolas" font-size="50" fill="limegreen">2021</text><text x="822.38" y="391.937799043062" transform="rotate(270 812.38 376.937799043062)" font-family="Consolas" font-size="50" fill="limegreen">2022</text><text x="970.09" y="391.937799043062" transform="rotate(270 960.09 376.937799043062)" font-family="Consolas" font-size="50" fill="limegreen">2023</text><text x="1117.8" y="391.937799043062" transform="rotate(270 1107.8 376.937799043062)" font-family="Consolas" font-size="50" fill="limegreen">2024</text><text x="1265.51" y="391.937799043062" transform="rotate(270 1255.51 376.937799043062)" font-family="Consolas" font-size="50" fill="limegreen">2025</text><text x="1413.22" y="391.937799043062" transform="rotate(270 1403.22 376.937799043062)" font-family="Consolas" font-size="50" fill="limegreen">2026</text><text x="1560.93" y="391.937799043062" transform="rotate(270 1550.93 376.937799043062)" font-family="Consolas" font-size="50" fill="limegreen">2027</text><text x="1708.64" y="391.937799043062" transform="rotate(270 1698.64 376.937799043062)" font-family="Consolas" font-size="50" fill="limegreen">2028</text><text x="1856.35" y="391.937799043062" transform="rotate(270 1846.35 376.937799043062)" font-family="Consolas" font-size="50" fill="limegreen">2029</text></g></g></svg>
