<svg xmlns="http://www.w3.org/2000/svg" width="1920" height="1080"> <rect width="100%" height="100%" fill="#000"/><g xmlns="http://www.w3.org/2000/svg" transform="translate(0,0) scale(1.0)"> <text  x="1080" y="60" font-family="Consolas" font-size="52" text-anchor="middle" fill="white">REAL  GDP ANNUAL PERCENT CHANGE (2018-2029) [IMF DATA]</text><text  x="1700" y="1050" font-family="Consolas" font-size="22" text-anchor="middle" fill="white">DESIGNED BY ZOOMIT WORLD</text><image x="180" y="-50" width="280" height="280" href="https://cdn.jsdelivr.net/gh/hampusborgos/country-flags@main/svg/bs.svg"></image><text x="70" y="180" font-family="Consolas" font-size="50" text-anchor="middle" fill="white">9%</text><text x="70" y="371.111111111111" font-family="Consolas" font-size="50" text-anchor="middle" fill="white">4.5%</text><text x="70" y="562.222222222222" font-family="Consolas" font-size="50" text-anchor="middle" fill="white">0%</text><text x="70" y="791.111111111111" font-family="Consolas" font-size="50" text-anchor="middle" fill="white">-5%</text><text x="70" y="1020" font-family="Consolas" font-size="50" text-anchor="middle" fill="white">-10%</text><line  x1="141.54" y1="180" x2="141.54" y2="1020" stroke="white" stroke-width="2"/><line x1="141.54"  y1="562.222222222222" x2="1920" y2="562.222222222222" stroke="white" stroke-width="5"/><g><rect x="171.54" y="500" width="100" height="62.22" fill="none" stroke="limegreen" stroke-width="2"/><rect x="319.25" y="491.111111111111" width="100" height="71.11" fill="none" stroke="limegreen" stroke-width="2"/><rect x="614.67" y="180" width="100" height="382.22" fill="none" stroke="limegreen" stroke-width="2"/><rect x="762.38" y="348.888888888889" width="100" height="213.33" fill="none" stroke="limegreen" stroke-width="2"/><rect x="910.09" y="548.888888888889" width="100" height="13.33" fill="none" stroke="limegreen" stroke-width="2"/><rect x="1057.8" y="513.333333333333" width="100" height="48.89" fill="none" stroke="limegreen" stroke-width="2"/><rect x="1205.51" y="495.555555555555" width="100" height="66.67" fill="none" stroke="limegreen" stroke-width="2"/><rect x="1353.22" y="495.555555555555" width="100" height="66.67" fill="none" stroke="limegreen" stroke-width="2"/><rect x="1500.93" y="495.555555555555" width="100" height="66.67" fill="none" stroke="limegreen" stroke-width="2"/><rect x="1648.64" y="500" width="100" height="62.22" fill="none" stroke="limegreen" stroke-width="2"/><rect x="1796.35" y="504.444444444444" width="100" height="57.78" fill="none" stroke="limegreen" stroke-width="2"/> <rect x="466.96" y="562.222222222222" width="100" height="457.78" fill="none" stroke="limegreen" stroke-width="2"/> </g><g><text x="221.54" y="490" font-family="Consolas" font-size="48" text-anchor="middle" fill="white">1.4</text><text x="369.25" y="481.11" font-family="Consolas" font-size="48" text-anchor="middle" fill="white">1.6</text><text x="664.67" y="170" font-family="Consolas" font-size="48" text-anchor="middle" fill="white">8.6</text><text x="812.38" y="338.89" font-family="Consolas" font-size="48" text-anchor="middle" fill="white">4.8</text><text x="960.09" y="538.89" font-family="Consolas" font-size="48" text-anchor="middle" fill="white">0.3</text><text x="1107.8" y="503.33" font-family="Consolas" font-size="48" text-anchor="middle" fill="white">1.1</text><text x="1255.51" y="485.56" font-family="Consolas" font-size="48" text-anchor="middle" fill="white">1.5</text><text x="1403.22" y="485.56" font-family="Consolas" font-size="48" text-anchor="middle" fill="white">1.5</text><text x="1550.93" y="485.56" font-family="Consolas" font-size="48" text-anchor="middle" fill="white">1.5</text><text x="1698.64" y="490" font-family="Consolas" font-size="48" text-anchor="middle" fill="white">1.4</text><text x="1846.35" y="494.44" font-family="Consolas" font-size="48" text-anchor="middle" fill="white">1.3</text> <text x="466.96" y="1010" font-family="Consolas" font-size="48" ttext-anchor="middle" fill="white">-10.3</text></g><g><text x="231.54" y="577.222222222222" transform="rotate(270 221.54 562.222222222222)" font-family="Consolas" font-size="50" fill="limegreen">2018</text><text x="379.25" y="577.222222222222" transform="rotate(270 369.25 562.222222222222)" font-family="Consolas" font-size="50" fill="limegreen">2019</text><text x="526.96" y="577.222222222222" transform="rotate(270 516.96 562.222222222222)" font-family="Consolas" font-size="50" fill="limegreen">2020</text><text x="674.67" y="577.222222222222" transform="rotate(270 664.67 562.222222222222)" font-family="Consolas" font-size="50" fill="limegreen">2021</text><text x="822.38" y="577.222222222222" transform="rotate(270 812.38 562.222222222222)" font-family="Consolas" font-size="50" fill="limegreen">2022</text><text x="970.09" y="577.222222222222" transform="rotate(270 960.09 562.222222222222)" font-family="Consolas" font-size="50" fill="limegreen">2023</text><text x="1117.8" y="577.222222222222" transform="rotate(270 1107.8 562.222222222222)" font-family="Consolas" font-size="50" fill="limegreen">2024</text><text x="1265.51" y="577.222222222222" transform="rotate(270 1255.51 562.222222222222)" font-family="Consolas" font-size="50" fill="limegreen">2025</text><text x="1413.22" y="577.222222222222" transform="rotate(270 1403.22 562.222222222222)" font-family="Consolas" font-size="50" fill="limegreen">2026</text><text x="1560.93" y="577.222222222222" transform="rotate(270 1550.93 562.222222222222)" font-family="Consolas" font-size="50" fill="limegreen">2027</text><text x="1708.64" y="577.222222222222" transform="rotate(270 1698.64 562.222222222222)" font-family="Consolas" font-size="50" fill="limegreen">2028</text><text x="1856.35" y="577.222222222222" transform="rotate(270 1846.35 562.222222222222)" font-family="Consolas" font-size="50" fill="limegreen">2029</text></g></g></svg>
