<svg xmlns="http://www.w3.org/2000/svg" width="1920" height="1080"> <rect width="100%" height="100%" fill="#000"/><g xmlns="http://www.w3.org/2000/svg" transform="translate(0,0) scale(1.0)"> <text  x="1080" y="60" font-family="Consolas" font-size="52" text-anchor="middle" fill="white">REAL  GDP ANNUAL PERCENT CHANGE (2018-2029) [IMF DATA]</text><text  x="1700" y="1050" font-family="Consolas" font-size="22" text-anchor="middle" fill="white">DESIGNED BY ZOOMIT WORLD</text><image x="180" y="-50" width="280" height="280" href="https://cdn.jsdelivr.net/gh/hampusborgos/country-flags@main/svg/bs.svg"></image><text x="70" y="180" font-family="Consolas" font-size="50" text-anchor="middle" fill="white">7%</text><text x="70" y="435.652173913043" font-family="Consolas" font-size="50" text-anchor="middle" fill="white">3.5%</text><text x="70" y="691.304347826087" font-family="Consolas" font-size="50" text-anchor="middle" fill="white">0%</text><text x="70" y="855.652173913043" font-family="Consolas" font-size="50" text-anchor="middle" fill="white">2.5%</text><text x="70" y="1020" font-family="Consolas" font-size="50" text-anchor="middle" fill="white">5%</text><line  x1="141.54" y1="180" x2="141.54" y2="1020" stroke="white" stroke-width="2"/><line x1="141.54"  y1="691.304347826087" x2="1920" y2="691.304347826087" stroke="white" stroke-width="5"/><g><rect x="171.54" y="180" width="100" height="511.30" fill="none" stroke="limegreen" stroke-width="2"/><rect x="319.25" y="187.304347826087" width="100" height="504.00" fill="none" stroke="limegreen" stroke-width="2"/><rect x="466.96" y="362.608695652174" width="100" height="328.70" fill="none" stroke="limegreen" stroke-width="2"/><rect x="614.67" y="340.695652173913" width="100" height="350.61" fill="none" stroke="limegreen" stroke-width="2"/><rect x="762.38" y="348" width="100" height="343.30" fill="none" stroke="limegreen" stroke-width="2"/><rect x="910.09" y="318.782608695652" width="100" height="372.52" fill="none" stroke="limegreen" stroke-width="2"/><rect x="1057.8" y="296.869565217391" width="100" height="394.43" fill="none" stroke="limegreen" stroke-width="2"/><rect x="1205.51" y="253.04347826087" width="100" height="438.26" fill="none" stroke="limegreen" stroke-width="2"/><rect x="1353.22" y="231.130434782609" width="100" height="460.17" fill="none" stroke="limegreen" stroke-width="2"/><rect x="1500.93" y="216.521739130435" width="100" height="474.78" fill="none" stroke="limegreen" stroke-width="2"/><rect x="1648.64" y="216.521739130435" width="100" height="474.78" fill="none" stroke="limegreen" stroke-width="2"/><rect x="1796.35" y="216.521739130435" width="100" height="474.78" fill="none" stroke="limegreen" stroke-width="2"/>  </g><g><text x="221.54" y="170" font-family="Consolas" font-size="48" text-anchor="middle" fill="white">7</text><text x="369.25" y="177.3" font-family="Consolas" font-size="48" text-anchor="middle" fill="white">6.9</text><text x="516.96" y="352.61" font-family="Consolas" font-size="48" text-anchor="middle" fill="white">4.5</text><text x="664.67" y="330.7" font-family="Consolas" font-size="48" text-anchor="middle" fill="white">4.8</text><text x="812.38" y="338" font-family="Consolas" font-size="48" text-anchor="middle" fill="white">4.7</text><text x="960.09" y="308.78" font-family="Consolas" font-size="48" text-anchor="middle" fill="white">5.1</text><text x="1107.8" y="286.87" font-family="Consolas" font-size="48" text-anchor="middle" fill="white">5.4</text><text x="1255.51" y="243.04" font-family="Consolas" font-size="48" text-anchor="middle" fill="white">6</text><text x="1403.22" y="221.13" font-family="Consolas" font-size="48" text-anchor="middle" fill="white">6.3</text><text x="1550.93" y="206.52" font-family="Consolas" font-size="48" text-anchor="middle" fill="white">6.5</text><text x="1698.64" y="206.52" font-family="Consolas" font-size="48" text-anchor="middle" fill="white">6.5</text><text x="1846.35" y="206.52" font-family="Consolas" font-size="48" text-anchor="middle" fill="white">6.5</text> </g><g><text x="231.54" y="706.304347826087" transform="rotate(270 221.54 691.304347826087)" font-family="Consolas" font-size="50" fill="limegreen">2018</text><text x="379.25" y="706.304347826087" transform="rotate(270 369.25 691.304347826087)" font-family="Consolas" font-size="50" fill="limegreen">2019</text><text x="526.96" y="706.304347826087" transform="rotate(270 516.96 691.304347826087)" font-family="Consolas" font-size="50" fill="limegreen">2020</text><text x="674.67" y="706.304347826087" transform="rotate(270 664.67 691.304347826087)" font-family="Consolas" font-size="50" fill="limegreen">2021</text><text x="822.38" y="706.304347826087" transform="rotate(270 812.38 691.304347826087)" font-family="Consolas" font-size="50" fill="limegreen">2022</text><text x="970.09" y="706.304347826087" transform="rotate(270 960.09 691.304347826087)" font-family="Consolas" font-size="50" fill="limegreen">2023</text><text x="1117.8" y="706.304347826087" transform="rotate(270 1107.8 691.304347826087)" font-family="Consolas" font-size="50" fill="limegreen">2024</text><text x="1265.51" y="706.304347826087" transform="rotate(270 1255.51 691.304347826087)" font-family="Consolas" font-size="50" fill="limegreen">2025</text><text x="1413.22" y="706.304347826087" transform="rotate(270 1403.22 691.304347826087)" font-family="Consolas" font-size="50" fill="limegreen">2026</text><text x="1560.93" y="706.304347826087" transform="rotate(270 1550.93 691.304347826087)" font-family="Consolas" font-size="50" fill="limegreen">2027</text><text x="1708.64" y="706.304347826087" transform="rotate(270 1698.64 691.304347826087)" font-family="Consolas" font-size="50" fill="limegreen">2028</text><text x="1856.35" y="706.304347826087" transform="rotate(270 1846.35 691.304347826087)" font-family="Consolas" font-size="50" fill="limegreen">2029</text></g></g></svg>
