<svg xmlns="http://www.w3.org/2000/svg" width="1920" height="1080"> <rect width="100%" height="100%" fill="#000"/><g xmlns="http://www.w3.org/2000/svg" transform="translate(0,0) scale(1.0)"> <text  x="1080" y="60" font-family="Consolas" font-size="52" text-anchor="middle" fill="white">REAL  GDP ANNUAL PERCENT CHANGE (2018-2029) [IMF DATA]</text><text  x="1780" y="1050" font-family="Consolas" font-size="32" text-anchor="middle" fill="white">ZOOMIT WORLD</text><image x="180" y="-50" width="280" height="280" href="https://cdn.jsdelivr.net/gh/hampusborgos/country-flags@main/svg/cr.svg"></image><text x="70" y="180" font-family="Consolas" font-size="50" text-anchor="middle" fill="white">8%</text><text x="70" y="451.967213114754" font-family="Consolas" font-size="50" text-anchor="middle" fill="white">4%</text><text x="70" y="723.934426229508" font-family="Consolas" font-size="50" text-anchor="middle" fill="white">0%</text><text x="70" y="871.967213114754" font-family="Consolas" font-size="50" text-anchor="middle" fill="white">-2%</text><text x="70" y="1020" font-family="Consolas" font-size="50" text-anchor="middle" fill="white">-4%</text><line  x1="141.54" y1="180" x2="141.54" y2="1020" stroke="white" stroke-width="2"/><line x1="141.54"  y1="723.934426229508" x2="1920" y2="723.934426229508" stroke="white" stroke-width="5"/><g><rect x="171.54" y="544.918032786885" width="100" height="179.02" fill="none" stroke="limegreen" stroke-width="2"/><rect x="319.25" y="558.688524590164" width="100" height="165.25" fill="none" stroke="limegreen" stroke-width="2"/><rect x="614.67" y="180" width="100" height="543.93" fill="none" stroke="limegreen" stroke-width="2"/><rect x="762.38" y="407.213114754098" width="100" height="316.72" fill="none" stroke="limegreen" stroke-width="2"/><rect x="910.09" y="372.786885245902" width="100" height="351.15" fill="none" stroke="limegreen" stroke-width="2"/><rect x="1057.8" y="448.524590163934" width="100" height="275.41" fill="none" stroke="limegreen" stroke-width="2"/><rect x="1205.51" y="482.950819672131" width="100" height="240.98" fill="none" stroke="limegreen" stroke-width="2"/><rect x="1353.22" y="482.950819672131" width="100" height="240.98" fill="none" stroke="limegreen" stroke-width="2"/><rect x="1500.93" y="482.950819672131" width="100" height="240.98" fill="none" stroke="limegreen" stroke-width="2"/><rect x="1648.64" y="482.950819672131" width="100" height="240.98" fill="none" stroke="limegreen" stroke-width="2"/><rect x="1796.35" y="482.950819672131" width="100" height="240.98" fill="none" stroke="limegreen" stroke-width="2"/> <rect x="466.96" y="723.934426229508" width="100" height="296.07" fill="none" stroke="limegreen" stroke-width="2"/> </g><g><text x="221.54" y="534.92" font-family="Consolas" font-size="48" text-anchor="middle" fill="white">2.6</text><text x="369.25" y="548.69" font-family="Consolas" font-size="48" text-anchor="middle" fill="white">2.4</text><text x="664.67" y="170" font-family="Consolas" font-size="48" text-anchor="middle" fill="white">7.9</text><text x="812.38" y="397.21" font-family="Consolas" font-size="48" text-anchor="middle" fill="white">4.6</text><text x="960.09" y="362.79" font-family="Consolas" font-size="48" text-anchor="middle" fill="white">5.1</text><text x="1107.8" y="438.52" font-family="Consolas" font-size="48" text-anchor="middle" fill="white">4</text><text x="1255.51" y="472.95" font-family="Consolas" font-size="48" text-anchor="middle" fill="white">3.5</text><text x="1403.22" y="472.95" font-family="Consolas" font-size="48" text-anchor="middle" fill="white">3.5</text><text x="1550.93" y="472.95" font-family="Consolas" font-size="48" text-anchor="middle" fill="white">3.5</text><text x="1698.64" y="472.95" font-family="Consolas" font-size="48" text-anchor="middle" fill="white">3.5</text><text x="1846.35" y="472.95" font-family="Consolas" font-size="48" text-anchor="middle" fill="white">3.5</text> <text x="466.96" y="1010" font-family="Consolas" font-size="48" ttext-anchor="middle" fill="white">-4.3</text></g><g><text x="231.54" y="738.934426229508" transform="rotate(270 221.54 723.934426229508)" font-family="Consolas" font-size="50" fill="limegreen">2018</text><text x="379.25" y="738.934426229508" transform="rotate(270 369.25 723.934426229508)" font-family="Consolas" font-size="50" fill="limegreen">2019</text><text x="526.96" y="738.934426229508" transform="rotate(270 516.96 723.934426229508)" font-family="Consolas" font-size="50" fill="limegreen">2020</text><text x="674.67" y="738.934426229508" transform="rotate(270 664.67 723.934426229508)" font-family="Consolas" font-size="50" fill="limegreen">2021</text><text x="822.38" y="738.934426229508" transform="rotate(270 812.38 723.934426229508)" font-family="Consolas" font-size="50" fill="limegreen">2022</text><text x="970.09" y="738.934426229508" transform="rotate(270 960.09 723.934426229508)" font-family="Consolas" font-size="50" fill="limegreen">2023</text><text x="1117.8" y="738.934426229508" transform="rotate(270 1107.8 723.934426229508)" font-family="Consolas" font-size="50" fill="limegreen">2024</text><text x="1265.51" y="738.934426229508" transform="rotate(270 1255.51 723.934426229508)" font-family="Consolas" font-size="50" fill="limegreen">2025</text><text x="1413.22" y="738.934426229508" transform="rotate(270 1403.22 723.934426229508)" font-family="Consolas" font-size="50" fill="limegreen">2026</text><text x="1560.93" y="738.934426229508" transform="rotate(270 1550.93 723.934426229508)" font-family="Consolas" font-size="50" fill="limegreen">2027</text><text x="1708.64" y="738.934426229508" transform="rotate(270 1698.64 723.934426229508)" font-family="Consolas" font-size="50" fill="limegreen">2028</text><text x="1856.35" y="738.934426229508" transform="rotate(270 1846.35 723.934426229508)" font-family="Consolas" font-size="50" fill="limegreen">2029</text></g></g></svg>
