<svg xmlns="http://www.w3.org/2000/svg" width="1920" height="1080"> <rect width="100%" height="100%" fill="#000"/><g xmlns="http://www.w3.org/2000/svg" transform="translate(0,0) scale(1.0)"> <text  x="1080" y="60" font-family="Consolas" font-size="52" text-anchor="middle" fill="white">REAL  GDP ANNUAL PERCENT CHANGE (2018-2029) [IMF DATA]</text><text  x="1780" y="1050" font-family="Consolas" font-size="32" text-anchor="middle" fill="white">ZOOMIT WORLD</text><image x="180" y="-50" width="280" height="280" href="https://cdn.jsdelivr.net/gh/hampusborgos/country-flags@main/svg/mr.svg"></image><text x="70" y="180" font-family="Consolas" font-size="50" text-anchor="middle" fill="white">7%</text><text x="70" y="576.666666666667" font-family="Consolas" font-size="50" text-anchor="middle" fill="white">3.5%</text><text x="70" y="973.333333333333" font-family="Consolas" font-size="50" text-anchor="middle" fill="white">0%</text><text x="70" y="996.666666666667" font-family="Consolas" font-size="50" text-anchor="middle" fill="white">0%</text><text x="70" y="1020" font-family="Consolas" font-size="50" text-anchor="middle" fill="white">0%</text><line  x1="141.54" y1="180" x2="141.54" y2="1020" stroke="white" stroke-width="2"/><line x1="141.54"  y1="973.333333333333" x2="1920" y2="973.333333333333" stroke="white" stroke-width="5"/><g><rect x="171.54" y="413.333333333333" width="100" height="560.00" fill="none" stroke="limegreen" stroke-width="2"/><rect x="319.25" y="611.666666666667" width="100" height="361.67" fill="none" stroke="limegreen" stroke-width="2"/><rect x="614.67" y="891.666666666667" width="100" height="81.67" fill="none" stroke="limegreen" stroke-width="2"/><rect x="762.38" y="180" width="100" height="793.33" fill="none" stroke="limegreen" stroke-width="2"/><rect x="910.09" y="215" width="100" height="758.33" fill="none" stroke="limegreen" stroke-width="2"/><rect x="1057.8" y="460" width="100" height="513.33" fill="none" stroke="limegreen" stroke-width="2"/><rect x="1205.51" y="483.333333333333" width="100" height="490.00" fill="none" stroke="limegreen" stroke-width="2"/><rect x="1353.22" y="483.333333333333" width="100" height="490.00" fill="none" stroke="limegreen" stroke-width="2"/><rect x="1500.93" y="355" width="100" height="618.33" fill="none" stroke="limegreen" stroke-width="2"/><rect x="1648.64" y="226.666666666667" width="100" height="746.67" fill="none" stroke="limegreen" stroke-width="2"/><rect x="1796.35" y="448.333333333333" width="100" height="525.00" fill="none" stroke="limegreen" stroke-width="2"/> <rect x="466.96" y="973.333333333333" width="100" height="46.67" fill="none" stroke="limegreen" stroke-width="2"/> </g><g><text x="221.54" y="403.33" font-family="Consolas" font-size="48" text-anchor="middle" fill="white">4.8</text><text x="369.25" y="601.67" font-family="Consolas" font-size="48" text-anchor="middle" fill="white">3.1</text><text x="664.67" y="881.67" font-family="Consolas" font-size="48" text-anchor="middle" fill="white">0.7</text><text x="812.38" y="170" font-family="Consolas" font-size="48" text-anchor="middle" fill="white">6.8</text><text x="960.09" y="205" font-family="Consolas" font-size="48" text-anchor="middle" fill="white">6.5</text><text x="1107.8" y="450" font-family="Consolas" font-size="48" text-anchor="middle" fill="white">4.4</text><text x="1255.51" y="473.33" font-family="Consolas" font-size="48" text-anchor="middle" fill="white">4.2</text><text x="1403.22" y="473.33" font-family="Consolas" font-size="48" text-anchor="middle" fill="white">4.2</text><text x="1550.93" y="345" font-family="Consolas" font-size="48" text-anchor="middle" fill="white">5.3</text><text x="1698.64" y="216.67" font-family="Consolas" font-size="48" text-anchor="middle" fill="white">6.4</text><text x="1846.35" y="438.33" font-family="Consolas" font-size="48" text-anchor="middle" fill="white">4.5</text> <text x="466.96" y="1010" font-family="Consolas" font-size="48" ttext-anchor="middle" fill="white">-0.4</text></g><g><text x="231.54" y="988.333333333333" transform="rotate(270 221.54 973.333333333333)" font-family="Consolas" font-size="50" fill="limegreen">2018</text><text x="379.25" y="988.333333333333" transform="rotate(270 369.25 973.333333333333)" font-family="Consolas" font-size="50" fill="limegreen">2019</text><text x="526.96" y="988.333333333333" transform="rotate(270 516.96 973.333333333333)" font-family="Consolas" font-size="50" fill="limegreen">2020</text><text x="674.67" y="988.333333333333" transform="rotate(270 664.67 973.333333333333)" font-family="Consolas" font-size="50" fill="limegreen">2021</text><text x="822.38" y="988.333333333333" transform="rotate(270 812.38 973.333333333333)" font-family="Consolas" font-size="50" fill="limegreen">2022</text><text x="970.09" y="988.333333333333" transform="rotate(270 960.09 973.333333333333)" font-family="Consolas" font-size="50" fill="limegreen">2023</text><text x="1117.8" y="988.333333333333" transform="rotate(270 1107.8 973.333333333333)" font-family="Consolas" font-size="50" fill="limegreen">2024</text><text x="1265.51" y="988.333333333333" transform="rotate(270 1255.51 973.333333333333)" font-family="Consolas" font-size="50" fill="limegreen">2025</text><text x="1413.22" y="988.333333333333" transform="rotate(270 1403.22 973.333333333333)" font-family="Consolas" font-size="50" fill="limegreen">2026</text><text x="1560.93" y="988.333333333333" transform="rotate(270 1550.93 973.333333333333)" font-family="Consolas" font-size="50" fill="limegreen">2027</text><text x="1708.64" y="988.333333333333" transform="rotate(270 1698.64 973.333333333333)" font-family="Consolas" font-size="50" fill="limegreen">2028</text><text x="1856.35" y="988.333333333333" transform="rotate(270 1846.35 973.333333333333)" font-family="Consolas" font-size="50" fill="limegreen">2029</text></g></g></svg>
