<svg xmlns="http://www.w3.org/2000/svg" width="1920" height="1080"> <rect width="100%" height="100%" fill="#000"/><g xmlns="http://www.w3.org/2000/svg" transform="translate(0,0) scale(1.0)"> <text  x="1080" y="60" font-family="Consolas" font-size="52" text-anchor="middle" fill="white">REAL  GDP ANNUAL PERCENT CHANGE (2018-2029) [IMF DATA]</text><text  x="1780" y="1050" font-family="Consolas" font-size="32" text-anchor="middle" fill="white">ZOOMIT WORLD</text><image x="180" y="-50" width="280" height="280" href="https://cdn.jsdelivr.net/gh/hampusborgos/country-flags@main/svg/om.svg"></image><text x="70" y="180" font-family="Consolas" font-size="50" text-anchor="middle" fill="white">10%</text><text x="70" y="490.153846153846" font-family="Consolas" font-size="50" text-anchor="middle" fill="white">5%</text><text x="70" y="800.307692307692" font-family="Consolas" font-size="50" text-anchor="middle" fill="white">0%</text><text x="70" y="910.153846153846" font-family="Consolas" font-size="50" text-anchor="middle" fill="white">-1.5%</text><text x="70" y="1020" font-family="Consolas" font-size="50" text-anchor="middle" fill="white">-3%</text><line  x1="141.54" y1="180" x2="141.54" y2="1020" stroke="white" stroke-width="2"/><line x1="141.54"  y1="800.307692307692" x2="1920" y2="800.307692307692" stroke="white" stroke-width="5"/><g><rect x="171.54" y="716.307692307692" width="100" height="84.00" fill="none" stroke="limegreen" stroke-width="2"/><rect x="614.67" y="632.307692307692" width="100" height="168.00" fill="none" stroke="limegreen" stroke-width="2"/><rect x="762.38" y="180" width="100" height="620.31" fill="none" stroke="limegreen" stroke-width="2"/><rect x="910.09" y="716.307692307692" width="100" height="84.00" fill="none" stroke="limegreen" stroke-width="2"/><rect x="1057.8" y="735.692307692308" width="100" height="64.62" fill="none" stroke="limegreen" stroke-width="2"/><rect x="1205.51" y="600" width="100" height="200.31" fill="none" stroke="limegreen" stroke-width="2"/><rect x="1353.22" y="516" width="100" height="284.31" fill="none" stroke="limegreen" stroke-width="2"/><rect x="1500.93" y="541.846153846154" width="100" height="258.46" fill="none" stroke="limegreen" stroke-width="2"/><rect x="1648.64" y="567.692307692308" width="100" height="232.62" fill="none" stroke="limegreen" stroke-width="2"/><rect x="1796.35" y="567.692307692308" width="100" height="232.62" fill="none" stroke="limegreen" stroke-width="2"/> <rect x="319.25" y="800.307692307692" width="100" height="71.08" fill="none" stroke="limegreen" stroke-width="2"/><rect x="466.96" y="800.307692307692" width="100" height="219.69" fill="none" stroke="limegreen" stroke-width="2"/> </g><g><text x="221.54" y="706.31" font-family="Consolas" font-size="48" text-anchor="middle" fill="white">1.3</text><text x="664.67" y="622.31" font-family="Consolas" font-size="48" text-anchor="middle" fill="white">2.6</text><text x="812.38" y="170" font-family="Consolas" font-size="48" text-anchor="middle" fill="white">9.6</text><text x="960.09" y="706.31" font-family="Consolas" font-size="48" text-anchor="middle" fill="white">1.3</text><text x="1107.8" y="725.69" font-family="Consolas" font-size="48" text-anchor="middle" fill="white">1</text><text x="1255.51" y="590" font-family="Consolas" font-size="48" text-anchor="middle" fill="white">3.1</text><text x="1403.22" y="506" font-family="Consolas" font-size="48" text-anchor="middle" fill="white">4.4</text><text x="1550.93" y="531.85" font-family="Consolas" font-size="48" text-anchor="middle" fill="white">4</text><text x="1698.64" y="557.69" font-family="Consolas" font-size="48" text-anchor="middle" fill="white">3.6</text><text x="1846.35" y="557.69" font-family="Consolas" font-size="48" text-anchor="middle" fill="white">3.6</text> <text x="319.25" y="861.384615384615" font-family="Consolas" font-size="48" ttext-anchor="middle" fill="white">-1.1</text><text x="466.96" y="1010" font-family="Consolas" font-size="48" ttext-anchor="middle" fill="white">-3.4</text></g><g><text x="231.54" y="815.307692307692" transform="rotate(270 221.54 800.307692307692)" font-family="Consolas" font-size="50" fill="limegreen">2018</text><text x="379.25" y="815.307692307692" transform="rotate(270 369.25 800.307692307692)" font-family="Consolas" font-size="50" fill="limegreen">2019</text><text x="526.96" y="815.307692307692" transform="rotate(270 516.96 800.307692307692)" font-family="Consolas" font-size="50" fill="limegreen">2020</text><text x="674.67" y="815.307692307692" transform="rotate(270 664.67 800.307692307692)" font-family="Consolas" font-size="50" fill="limegreen">2021</text><text x="822.38" y="815.307692307692" transform="rotate(270 812.38 800.307692307692)" font-family="Consolas" font-size="50" fill="limegreen">2022</text><text x="970.09" y="815.307692307692" transform="rotate(270 960.09 800.307692307692)" font-family="Consolas" font-size="50" fill="limegreen">2023</text><text x="1117.8" y="815.307692307692" transform="rotate(270 1107.8 800.307692307692)" font-family="Consolas" font-size="50" fill="limegreen">2024</text><text x="1265.51" y="815.307692307692" transform="rotate(270 1255.51 800.307692307692)" font-family="Consolas" font-size="50" fill="limegreen">2025</text><text x="1413.22" y="815.307692307692" transform="rotate(270 1403.22 800.307692307692)" font-family="Consolas" font-size="50" fill="limegreen">2026</text><text x="1560.93" y="815.307692307692" transform="rotate(270 1550.93 800.307692307692)" font-family="Consolas" font-size="50" fill="limegreen">2027</text><text x="1708.64" y="815.307692307692" transform="rotate(270 1698.64 800.307692307692)" font-family="Consolas" font-size="50" fill="limegreen">2028</text><text x="1856.35" y="815.307692307692" transform="rotate(270 1846.35 800.307692307692)" font-family="Consolas" font-size="50" fill="limegreen">2029</text></g></g></svg>
