<svg xmlns="http://www.w3.org/2000/svg" width="1920" height="1080"> <rect width="100%" height="100%" fill="#000"/><g xmlns="http://www.w3.org/2000/svg" transform="translate(0,0) scale(1.0)"> <text  x="1080" y="60" font-family="Consolas" font-size="52" text-anchor="middle" fill="white">REAL  GDP ANNUAL PERCENT CHANGE (2018-2029) [IMF DATA]</text><text  x="1700" y="1050" font-family="Consolas" font-size="22" text-anchor="middle" fill="white">DESIGNED BY ZOOMIT WORLD</text><image x="180" y="-50" width="280" height="280" href="https://cdn.jsdelivr.net/gh/hampusborgos/country-flags@main/svg/bs.svg"></image><text x="70" y="180" font-family="Consolas" font-size="50" text-anchor="middle" fill="white">4%</text><text x="70" y="370.46511627907" font-family="Consolas" font-size="50" text-anchor="middle" fill="white">2%</text><text x="70" y="560.93023255814" font-family="Consolas" font-size="50" text-anchor="middle" fill="white">0%</text><text x="70" y="790.46511627907" font-family="Consolas" font-size="50" text-anchor="middle" fill="white">-2.5%</text><text x="70" y="1020" font-family="Consolas" font-size="50" text-anchor="middle" fill="white">-5%</text><line  x1="141.54" y1="180" x2="141.54" y2="1020" stroke="white" stroke-width="2"/><line x1="141.54"  y1="560.93023255814" x2="1920" y2="560.93023255814" stroke="white" stroke-width="5"/><g><rect x="171.54" y="258.139534883721" width="100" height="302.79" fill="none" stroke="limegreen" stroke-width="2"/><rect x="319.25" y="424.186046511628" width="100" height="136.74" fill="none" stroke="limegreen" stroke-width="2"/><rect x="614.67" y="326.511627906977" width="100" height="234.42" fill="none" stroke="limegreen" stroke-width="2"/><rect x="910.09" y="180" width="100" height="380.93" fill="none" stroke="limegreen" stroke-width="2"/><rect x="1057.8" y="209.302325581395" width="100" height="351.63" fill="none" stroke="limegreen" stroke-width="2"/><rect x="1205.51" y="336.279069767442" width="100" height="224.65" fill="none" stroke="limegreen" stroke-width="2"/><rect x="1353.22" y="375.348837209302" width="100" height="185.58" fill="none" stroke="limegreen" stroke-width="2"/><rect x="1500.93" y="424.186046511628" width="100" height="136.74" fill="none" stroke="limegreen" stroke-width="2"/><rect x="1648.64" y="453.488372093023" width="100" height="107.44" fill="none" stroke="limegreen" stroke-width="2"/><rect x="1796.35" y="473.023255813953" width="100" height="87.91" fill="none" stroke="limegreen" stroke-width="2"/> <rect x="466.96" y="560.93023255814" width="100" height="68.37" fill="none" stroke="limegreen" stroke-width="2"/><rect x="762.38" y="560.93023255814" width="100" height="459.07" fill="none" stroke="limegreen" stroke-width="2"/> </g><g><text x="221.54" y="248.14" font-family="Consolas" font-size="48" text-anchor="middle" fill="white">3.1</text><text x="369.25" y="414.19" font-family="Consolas" font-size="48" text-anchor="middle" fill="white">1.4</text><text x="664.67" y="316.51" font-family="Consolas" font-size="48" text-anchor="middle" fill="white">2.4</text><text x="960.09" y="170" font-family="Consolas" font-size="48" text-anchor="middle" fill="white">3.9</text><text x="1107.8" y="199.3" font-family="Consolas" font-size="48" text-anchor="middle" fill="white">3.6</text><text x="1255.51" y="326.28" font-family="Consolas" font-size="48" text-anchor="middle" fill="white">2.3</text><text x="1403.22" y="365.35" font-family="Consolas" font-size="48" text-anchor="middle" fill="white">1.9</text><text x="1550.93" y="414.19" font-family="Consolas" font-size="48" text-anchor="middle" fill="white">1.4</text><text x="1698.64" y="443.49" font-family="Consolas" font-size="48" text-anchor="middle" fill="white">1.1</text><text x="1846.35" y="463.02" font-family="Consolas" font-size="48" text-anchor="middle" fill="white">0.9</text> <text x="466.96" y="619.302325581395" font-family="Consolas" font-size="48" ttext-anchor="middle" fill="white">-0.7</text><text x="762.38" y="1010" font-family="Consolas" font-size="48" ttext-anchor="middle" fill="white">-4.7</text></g><g><text x="231.54" y="575.93023255814" transform="rotate(270 221.54 560.93023255814)" font-family="Consolas" font-size="50" fill="limegreen">2018</text><text x="379.25" y="575.93023255814" transform="rotate(270 369.25 560.93023255814)" font-family="Consolas" font-size="50" fill="limegreen">2019</text><text x="526.96" y="575.93023255814" transform="rotate(270 516.96 560.93023255814)" font-family="Consolas" font-size="50" fill="limegreen">2020</text><text x="674.67" y="575.93023255814" transform="rotate(270 664.67 560.93023255814)" font-family="Consolas" font-size="50" fill="limegreen">2021</text><text x="822.38" y="575.93023255814" transform="rotate(270 812.38 560.93023255814)" font-family="Consolas" font-size="50" fill="limegreen">2022</text><text x="970.09" y="575.93023255814" transform="rotate(270 960.09 560.93023255814)" font-family="Consolas" font-size="50" fill="limegreen">2023</text><text x="1117.8" y="575.93023255814" transform="rotate(270 1107.8 560.93023255814)" font-family="Consolas" font-size="50" fill="limegreen">2024</text><text x="1265.51" y="575.93023255814" transform="rotate(270 1255.51 560.93023255814)" font-family="Consolas" font-size="50" fill="limegreen">2025</text><text x="1413.22" y="575.93023255814" transform="rotate(270 1403.22 560.93023255814)" font-family="Consolas" font-size="50" fill="limegreen">2026</text><text x="1560.93" y="575.93023255814" transform="rotate(270 1550.93 560.93023255814)" font-family="Consolas" font-size="50" fill="limegreen">2027</text><text x="1708.64" y="575.93023255814" transform="rotate(270 1698.64 560.93023255814)" font-family="Consolas" font-size="50" fill="limegreen">2028</text><text x="1856.35" y="575.93023255814" transform="rotate(270 1846.35 560.93023255814)" font-family="Consolas" font-size="50" fill="limegreen">2029</text></g></g></svg>
