<svg xmlns="http://www.w3.org/2000/svg" width="1920" height="1080"> <rect width="100%" height="100%" fill="#000"/><g xmlns="http://www.w3.org/2000/svg" transform="translate(0,0) scale(1.0)"> <text  x="1080" y="60" font-family="Consolas" font-size="52" text-anchor="middle" fill="white">REAL  GDP ANNUAL PERCENT CHANGE (2018-2029) [IMF DATA]</text><text  x="1700" y="1050" font-family="Consolas" font-size="22" text-anchor="middle" fill="white">DESIGNED BY ZOOMIT WORLD</text><image x="180" y="-50" width="280" height="280" href="https://cdn.jsdelivr.net/gh/hampusborgos/country-flags@main/svg/bs.svg"></image><text x="70" y="180" font-family="Consolas" font-size="50" text-anchor="middle" fill="white">9%</text><text x="70" y="357.611940298507" font-family="Consolas" font-size="50" text-anchor="middle" fill="white">4.5%</text><text x="70" y="535.223880597015" font-family="Consolas" font-size="50" text-anchor="middle" fill="white">0%</text><text x="70" y="777.611940298507" font-family="Consolas" font-size="50" text-anchor="middle" fill="white">-6%</text><text x="70" y="1020" font-family="Consolas" font-size="50" text-anchor="middle" fill="white">-12%</text><line  x1="141.54" y1="180" x2="141.54" y2="1020" stroke="white" stroke-width="2"/><line x1="141.54"  y1="535.223880597015" x2="1920" y2="535.223880597015" stroke="white" stroke-width="5"/><g><rect x="171.54" y="522.686567164179" width="100" height="12.54" fill="none" stroke="limegreen" stroke-width="2"/><rect x="319.25" y="472.537313432836" width="100" height="62.69" fill="none" stroke="limegreen" stroke-width="2"/><rect x="910.09" y="497.611940298507" width="100" height="37.61" fill="none" stroke="limegreen" stroke-width="2"/><rect x="1057.8" y="196.716417910448" width="100" height="338.51" fill="none" stroke="limegreen" stroke-width="2"/><rect x="1205.51" y="180" width="100" height="355.22" fill="none" stroke="limegreen" stroke-width="2"/><rect x="1353.22" y="280.298507462687" width="100" height="254.93" fill="none" stroke="limegreen" stroke-width="2"/><rect x="1500.93" y="439.10447761194" width="100" height="96.12" fill="none" stroke="limegreen" stroke-width="2"/><rect x="1648.64" y="451.641791044776" width="100" height="83.58" fill="none" stroke="limegreen" stroke-width="2"/><rect x="1796.35" y="464.179104477612" width="100" height="71.04" fill="none" stroke="limegreen" stroke-width="2"/> <rect x="466.96" y="535.223880597015" width="100" height="250.75" fill="none" stroke="limegreen" stroke-width="2"/><rect x="614.67" y="535.223880597015" width="100" height="484.78" fill="none" stroke="limegreen" stroke-width="2"/><rect x="762.38" y="535.223880597015" width="100" height="71.04" fill="none" stroke="limegreen" stroke-width="2"/> </g><g><text x="221.54" y="512.69" font-family="Consolas" font-size="48" text-anchor="middle" fill="white">0.3</text><text x="369.25" y="462.54" font-family="Consolas" font-size="48" text-anchor="middle" fill="white">1.5</text><text x="960.09" y="487.61" font-family="Consolas" font-size="48" text-anchor="middle" fill="white">0.9</text><text x="1107.8" y="186.72" font-family="Consolas" font-size="48" text-anchor="middle" fill="white">8.1</text><text x="1255.51" y="170" font-family="Consolas" font-size="48" text-anchor="middle" fill="white">8.5</text><text x="1403.22" y="270.3" font-family="Consolas" font-size="48" text-anchor="middle" fill="white">6.1</text><text x="1550.93" y="429.1" font-family="Consolas" font-size="48" text-anchor="middle" fill="white">2.3</text><text x="1698.64" y="441.64" font-family="Consolas" font-size="48" text-anchor="middle" fill="white">2</text><text x="1846.35" y="454.18" font-family="Consolas" font-size="48" text-anchor="middle" fill="white">1.7</text> <text x="466.96" y="775.970149253731" font-family="Consolas" font-size="48" ttext-anchor="middle" fill="white">-6</text><text x="614.67" y="1010" font-family="Consolas" font-size="48" ttext-anchor="middle" fill="white">-11.6</text><text x="762.38" y="596.268656716418" font-family="Consolas" font-size="48" ttext-anchor="middle" fill="white">-1.7</text></g><g><text x="231.54" y="550.223880597015" transform="rotate(270 221.54 535.223880597015)" font-family="Consolas" font-size="50" fill="limegreen">2018</text><text x="379.25" y="550.223880597015" transform="rotate(270 369.25 535.223880597015)" font-family="Consolas" font-size="50" fill="limegreen">2019</text><text x="526.96" y="550.223880597015" transform="rotate(270 516.96 535.223880597015)" font-family="Consolas" font-size="50" fill="limegreen">2020</text><text x="674.67" y="550.223880597015" transform="rotate(270 664.67 535.223880597015)" font-family="Consolas" font-size="50" fill="limegreen">2021</text><text x="822.38" y="550.223880597015" transform="rotate(270 812.38 535.223880597015)" font-family="Consolas" font-size="50" fill="limegreen">2022</text><text x="970.09" y="550.223880597015" transform="rotate(270 960.09 535.223880597015)" font-family="Consolas" font-size="50" fill="limegreen">2023</text><text x="1117.8" y="550.223880597015" transform="rotate(270 1107.8 535.223880597015)" font-family="Consolas" font-size="50" fill="limegreen">2024</text><text x="1265.51" y="550.223880597015" transform="rotate(270 1255.51 535.223880597015)" font-family="Consolas" font-size="50" fill="limegreen">2025</text><text x="1413.22" y="550.223880597015" transform="rotate(270 1403.22 535.223880597015)" font-family="Consolas" font-size="50" fill="limegreen">2026</text><text x="1560.93" y="550.223880597015" transform="rotate(270 1550.93 535.223880597015)" font-family="Consolas" font-size="50" fill="limegreen">2027</text><text x="1708.64" y="550.223880597015" transform="rotate(270 1698.64 535.223880597015)" font-family="Consolas" font-size="50" fill="limegreen">2028</text><text x="1856.35" y="550.223880597015" transform="rotate(270 1846.35 535.223880597015)" font-family="Consolas" font-size="50" fill="limegreen">2029</text></g></g></svg>
