<svg xmlns="http://www.w3.org/2000/svg" width="1920" height="1080"> <rect width="100%" height="100%" fill="#000"/><g xmlns="http://www.w3.org/2000/svg" transform="translate(0,0) scale(1.0)"> <text  x="1080" y="60" font-family="Consolas" font-size="52" text-anchor="middle" fill="white">REAL  GDP ANNUAL PERCENT CHANGE (2018-2029) [IMF DATA]</text><text  x="1700" y="1050" font-family="Consolas" font-size="22" text-anchor="middle" fill="white">DESIGNED BY ZOOMIT WORLD</text><image x="180" y="-50" width="280" height="280" href="https://cdn.jsdelivr.net/gh/hampusborgos/country-flags@main/svg/bs.svg"></image><text x="70" y="180" font-family="Consolas" font-size="50" text-anchor="middle" fill="white">8%</text><text x="70" y="512.830188679245" font-family="Consolas" font-size="50" text-anchor="middle" fill="white">4%</text><text x="70" y="845.660377358491" font-family="Consolas" font-size="50" text-anchor="middle" fill="white">0%</text><text x="70" y="932.830188679245" font-family="Consolas" font-size="50" text-anchor="middle" fill="white">1%</text><text x="70" y="1020" font-family="Consolas" font-size="50" text-anchor="middle" fill="white">2%</text><line  x1="141.54" y1="180" x2="141.54" y2="1020" stroke="white" stroke-width="2"/><line x1="141.54"  y1="845.660377358491" x2="1920" y2="845.660377358491" stroke="white" stroke-width="5"/><g><rect x="171.54" y="314.716981132075" width="100" height="530.94" fill="none" stroke="limegreen" stroke-width="2"/><rect x="319.25" y="370.188679245283" width="100" height="475.47" fill="none" stroke="limegreen" stroke-width="2"/><rect x="466.96" y="671.320754716981" width="100" height="174.34" fill="none" stroke="limegreen" stroke-width="2"/><rect x="614.67" y="180" width="100" height="665.66" fill="none" stroke="limegreen" stroke-width="2"/><rect x="762.38" y="607.924528301887" width="100" height="237.74" fill="none" stroke="limegreen" stroke-width="2"/><rect x="910.09" y="433.584905660377" width="100" height="412.08" fill="none" stroke="limegreen" stroke-width="2"/><rect x="1057.8" y="465.283018867925" width="100" height="380.38" fill="none" stroke="limegreen" stroke-width="2"/><rect x="1205.51" y="489.056603773585" width="100" height="356.60" fill="none" stroke="limegreen" stroke-width="2"/><rect x="1353.22" y="520.754716981132" width="100" height="324.91" fill="none" stroke="limegreen" stroke-width="2"/><rect x="1500.93" y="560.377358490566" width="100" height="285.28" fill="none" stroke="limegreen" stroke-width="2"/><rect x="1648.64" y="576.22641509434" width="100" height="269.43" fill="none" stroke="limegreen" stroke-width="2"/><rect x="1796.35" y="584.150943396226" width="100" height="261.51" fill="none" stroke="limegreen" stroke-width="2"/>  </g><g><text x="221.54" y="304.72" font-family="Consolas" font-size="48" text-anchor="middle" fill="white">6.7</text><text x="369.25" y="360.19" font-family="Consolas" font-size="48" text-anchor="middle" fill="white">6</text><text x="516.96" y="661.32" font-family="Consolas" font-size="48" text-anchor="middle" fill="white">2.2</text><text x="664.67" y="170" font-family="Consolas" font-size="48" text-anchor="middle" fill="white">8.4</text><text x="812.38" y="597.92" font-family="Consolas" font-size="48" text-anchor="middle" fill="white">3</text><text x="960.09" y="423.58" font-family="Consolas" font-size="48" text-anchor="middle" fill="white">5.2</text><text x="1107.8" y="455.28" font-family="Consolas" font-size="48" text-anchor="middle" fill="white">4.8</text><text x="1255.51" y="479.06" font-family="Consolas" font-size="48" text-anchor="middle" fill="white">4.5</text><text x="1403.22" y="510.75" font-family="Consolas" font-size="48" text-anchor="middle" fill="white">4.1</text><text x="1550.93" y="550.38" font-family="Consolas" font-size="48" text-anchor="middle" fill="white">3.6</text><text x="1698.64" y="566.23" font-family="Consolas" font-size="48" text-anchor="middle" fill="white">3.4</text><text x="1846.35" y="574.15" font-family="Consolas" font-size="48" text-anchor="middle" fill="white">3.3</text> </g><g><text x="231.54" y="860.660377358491" transform="rotate(270 221.54 845.660377358491)" font-family="Consolas" font-size="50" fill="limegreen">2018</text><text x="379.25" y="860.660377358491" transform="rotate(270 369.25 845.660377358491)" font-family="Consolas" font-size="50" fill="limegreen">2019</text><text x="526.96" y="860.660377358491" transform="rotate(270 516.96 845.660377358491)" font-family="Consolas" font-size="50" fill="limegreen">2020</text><text x="674.67" y="860.660377358491" transform="rotate(270 664.67 845.660377358491)" font-family="Consolas" font-size="50" fill="limegreen">2021</text><text x="822.38" y="860.660377358491" transform="rotate(270 812.38 845.660377358491)" font-family="Consolas" font-size="50" fill="limegreen">2022</text><text x="970.09" y="860.660377358491" transform="rotate(270 960.09 845.660377358491)" font-family="Consolas" font-size="50" fill="limegreen">2023</text><text x="1117.8" y="860.660377358491" transform="rotate(270 1107.8 845.660377358491)" font-family="Consolas" font-size="50" fill="limegreen">2024</text><text x="1265.51" y="860.660377358491" transform="rotate(270 1255.51 845.660377358491)" font-family="Consolas" font-size="50" fill="limegreen">2025</text><text x="1413.22" y="860.660377358491" transform="rotate(270 1403.22 845.660377358491)" font-family="Consolas" font-size="50" fill="limegreen">2026</text><text x="1560.93" y="860.660377358491" transform="rotate(270 1550.93 845.660377358491)" font-family="Consolas" font-size="50" fill="limegreen">2027</text><text x="1708.64" y="860.660377358491" transform="rotate(270 1698.64 845.660377358491)" font-family="Consolas" font-size="50" fill="limegreen">2028</text><text x="1856.35" y="860.660377358491" transform="rotate(270 1846.35 845.660377358491)" font-family="Consolas" font-size="50" fill="limegreen">2029</text></g></g></svg>
