<svg xmlns="http://www.w3.org/2000/svg" width="1920" height="1080"> <rect width="100%" height="100%" fill="#000"/><g xmlns="http://www.w3.org/2000/svg" transform="translate(0,0) scale(1.0)"> <text  x="1080" y="60" font-family="Consolas" font-size="52" text-anchor="middle" fill="white">REAL  GDP ANNUAL PERCENT CHANGE (2018-2029) [IMF DATA]</text><text  x="1700" y="1050" font-family="Consolas" font-size="22" text-anchor="middle" fill="white">DESIGNED BY ZOOMIT WORLD</text><image x="180" y="-50" width="280" height="280" href="https://cdn.jsdelivr.net/gh/hampusborgos/country-flags@main/svg/bs.svg"></image><text x="70" y="180" font-family="Consolas" font-size="50" text-anchor="middle" fill="white">6%</text><text x="70" y="391.764705882353" font-family="Consolas" font-size="50" text-anchor="middle" fill="white">3%</text><text x="70" y="603.529411764706" font-family="Consolas" font-size="50" text-anchor="middle" fill="white">0%</text><text x="70" y="811.764705882353" font-family="Consolas" font-size="50" text-anchor="middle" fill="white">-3%</text><text x="70" y="1020" font-family="Consolas" font-size="50" text-anchor="middle" fill="white">-6%</text><line  x1="141.54" y1="180" x2="141.54" y2="1020" stroke="white" stroke-width="2"/><line x1="141.54"  y1="603.529411764706" x2="1920" y2="603.529411764706" stroke="white" stroke-width="5"/><g><rect x="171.54" y="455.294117647059" width="100" height="148.24" fill="none" stroke="limegreen" stroke-width="2"/><rect x="319.25" y="455.294117647059" width="100" height="148.24" fill="none" stroke="limegreen" stroke-width="2"/><rect x="614.67" y="292.941176470588" width="100" height="310.59" fill="none" stroke="limegreen" stroke-width="2"/><rect x="762.38" y="180" width="100" height="423.53" fill="none" stroke="limegreen" stroke-width="2"/><rect x="910.09" y="391.764705882353" width="100" height="211.76" fill="none" stroke="limegreen" stroke-width="2"/><rect x="1057.8" y="391.764705882353" width="100" height="211.76" fill="none" stroke="limegreen" stroke-width="2"/><rect x="1205.51" y="377.647058823529" width="100" height="225.88" fill="none" stroke="limegreen" stroke-width="2"/><rect x="1353.22" y="398.823529411765" width="100" height="204.71" fill="none" stroke="limegreen" stroke-width="2"/><rect x="1500.93" y="405.882352941176" width="100" height="197.65" fill="none" stroke="limegreen" stroke-width="2"/><rect x="1648.64" y="405.882352941176" width="100" height="197.65" fill="none" stroke="limegreen" stroke-width="2"/><rect x="1796.35" y="398.823529411765" width="100" height="204.71" fill="none" stroke="limegreen" stroke-width="2"/> <rect x="466.96" y="603.529411764706" width="100" height="416.47" fill="none" stroke="limegreen" stroke-width="2"/> </g><g><text x="221.54" y="445.29" font-family="Consolas" font-size="48" text-anchor="middle" fill="white">2.1</text><text x="369.25" y="445.29" font-family="Consolas" font-size="48" text-anchor="middle" fill="white">2.1</text><text x="664.67" y="282.94" font-family="Consolas" font-size="48" text-anchor="middle" fill="white">4.4</text><text x="812.38" y="170" font-family="Consolas" font-size="48" text-anchor="middle" fill="white">6</text><text x="960.09" y="381.76" font-family="Consolas" font-size="48" text-anchor="middle" fill="white">3</text><text x="1107.8" y="381.76" font-family="Consolas" font-size="48" text-anchor="middle" fill="white">3</text><text x="1255.51" y="367.65" font-family="Consolas" font-size="48" text-anchor="middle" fill="white">3.2</text><text x="1403.22" y="388.82" font-family="Consolas" font-size="48" text-anchor="middle" fill="white">2.9</text><text x="1550.93" y="395.88" font-family="Consolas" font-size="48" text-anchor="middle" fill="white">2.8</text><text x="1698.64" y="395.88" font-family="Consolas" font-size="48" text-anchor="middle" fill="white">2.8</text><text x="1846.35" y="388.82" font-family="Consolas" font-size="48" text-anchor="middle" fill="white">2.9</text> <text x="466.96" y="1010" font-family="Consolas" font-size="48" ttext-anchor="middle" fill="white">-5.9</text></g><g><text x="231.54" y="618.529411764706" transform="rotate(270 221.54 603.529411764706)" font-family="Consolas" font-size="50" fill="limegreen">2018</text><text x="379.25" y="618.529411764706" transform="rotate(270 369.25 603.529411764706)" font-family="Consolas" font-size="50" fill="limegreen">2019</text><text x="526.96" y="618.529411764706" transform="rotate(270 516.96 603.529411764706)" font-family="Consolas" font-size="50" fill="limegreen">2020</text><text x="674.67" y="618.529411764706" transform="rotate(270 664.67 603.529411764706)" font-family="Consolas" font-size="50" fill="limegreen">2021</text><text x="822.38" y="618.529411764706" transform="rotate(270 812.38 603.529411764706)" font-family="Consolas" font-size="50" fill="limegreen">2022</text><text x="970.09" y="618.529411764706" transform="rotate(270 960.09 603.529411764706)" font-family="Consolas" font-size="50" fill="limegreen">2023</text><text x="1117.8" y="618.529411764706" transform="rotate(270 1107.8 603.529411764706)" font-family="Consolas" font-size="50" fill="limegreen">2024</text><text x="1265.51" y="618.529411764706" transform="rotate(270 1255.51 603.529411764706)" font-family="Consolas" font-size="50" fill="limegreen">2025</text><text x="1413.22" y="618.529411764706" transform="rotate(270 1403.22 603.529411764706)" font-family="Consolas" font-size="50" fill="limegreen">2026</text><text x="1560.93" y="618.529411764706" transform="rotate(270 1550.93 603.529411764706)" font-family="Consolas" font-size="50" fill="limegreen">2027</text><text x="1708.64" y="618.529411764706" transform="rotate(270 1698.64 603.529411764706)" font-family="Consolas" font-size="50" fill="limegreen">2028</text><text x="1856.35" y="618.529411764706" transform="rotate(270 1846.35 603.529411764706)" font-family="Consolas" font-size="50" fill="limegreen">2029</text></g></g></svg>
