<svg xmlns="http://www.w3.org/2000/svg" width="1920" height="1080"> <rect width="100%" height="100%" fill="#000"/><g xmlns="http://www.w3.org/2000/svg" transform="translate(0,0) scale(1.0)"> <text  x="1080" y="60" font-family="Consolas" font-size="52" text-anchor="middle" fill="white">REAL  GDP ANNUAL PERCENT CHANGE (2018-2029) [IMF DATA]</text><text  x="1780" y="1050" font-family="Consolas" font-size="32" text-anchor="middle" fill="white">ZOOMIT WORLD</text><image x="180" y="-50" width="280" height="280" href="https://cdn.jsdelivr.net/gh/hampusborgos/country-flags@main/svg/py.svg"></image><text x="70" y="180" font-family="Consolas" font-size="50" text-anchor="middle" fill="white">5%</text><text x="70" y="538.909090909091" font-family="Consolas" font-size="50" text-anchor="middle" fill="white">2.5%</text><text x="70" y="897.818181818182" font-family="Consolas" font-size="50" text-anchor="middle" fill="white">0%</text><text x="70" y="958.909090909091" font-family="Consolas" font-size="50" text-anchor="middle" fill="white">-0.5%</text><text x="70" y="1020" font-family="Consolas" font-size="50" text-anchor="middle" fill="white">-1%</text><line  x1="141.54" y1="180" x2="141.54" y2="1020" stroke="white" stroke-width="2"/><line x1="141.54"  y1="897.818181818182" x2="1920" y2="897.818181818182" stroke="white" stroke-width="5"/><g><rect x="171.54" y="409.090909090909" width="100" height="488.73" fill="none" stroke="limegreen" stroke-width="2"/><rect x="614.67" y="286.909090909091" width="100" height="610.91" fill="none" stroke="limegreen" stroke-width="2"/><rect x="762.38" y="867.272727272727" width="100" height="30.55" fill="none" stroke="limegreen" stroke-width="2"/><rect x="910.09" y="180" width="100" height="717.82" fill="none" stroke="limegreen" stroke-width="2"/><rect x="1057.8" y="317.454545454545" width="100" height="580.36" fill="none" stroke="limegreen" stroke-width="2"/><rect x="1205.51" y="317.454545454545" width="100" height="580.36" fill="none" stroke="limegreen" stroke-width="2"/><rect x="1353.22" y="363.272727272727" width="100" height="534.55" fill="none" stroke="limegreen" stroke-width="2"/><rect x="1500.93" y="363.272727272727" width="100" height="534.55" fill="none" stroke="limegreen" stroke-width="2"/><rect x="1648.64" y="363.272727272727" width="100" height="534.55" fill="none" stroke="limegreen" stroke-width="2"/><rect x="1796.35" y="363.272727272727" width="100" height="534.55" fill="none" stroke="limegreen" stroke-width="2"/> <rect x="319.25" y="897.818181818182" width="100" height="61.09" fill="none" stroke="limegreen" stroke-width="2"/><rect x="466.96" y="897.818181818182" width="100" height="122.18" fill="none" stroke="limegreen" stroke-width="2"/> </g><g><text x="221.54" y="399.09" font-family="Consolas" font-size="48" text-anchor="middle" fill="white">3.2</text><text x="664.67" y="276.91" font-family="Consolas" font-size="48" text-anchor="middle" fill="white">4</text><text x="812.38" y="857.27" font-family="Consolas" font-size="48" text-anchor="middle" fill="white">0.2</text><text x="960.09" y="170" font-family="Consolas" font-size="48" text-anchor="middle" fill="white">4.7</text><text x="1107.8" y="307.45" font-family="Consolas" font-size="48" text-anchor="middle" fill="white">3.8</text><text x="1255.51" y="307.45" font-family="Consolas" font-size="48" text-anchor="middle" fill="white">3.8</text><text x="1403.22" y="353.27" font-family="Consolas" font-size="48" text-anchor="middle" fill="white">3.5</text><text x="1550.93" y="353.27" font-family="Consolas" font-size="48" text-anchor="middle" fill="white">3.5</text><text x="1698.64" y="353.27" font-family="Consolas" font-size="48" text-anchor="middle" fill="white">3.5</text><text x="1846.35" y="353.27" font-family="Consolas" font-size="48" text-anchor="middle" fill="white">3.5</text> <text x="319.25" y="948.909090909091" font-family="Consolas" font-size="48" ttext-anchor="middle" fill="white">-0.4</text><text x="466.96" y="1010" font-family="Consolas" font-size="48" ttext-anchor="middle" fill="white">-0.8</text></g><g><text x="231.54" y="912.818181818182" transform="rotate(270 221.54 897.818181818182)" font-family="Consolas" font-size="50" fill="limegreen">2018</text><text x="379.25" y="912.818181818182" transform="rotate(270 369.25 897.818181818182)" font-family="Consolas" font-size="50" fill="limegreen">2019</text><text x="526.96" y="912.818181818182" transform="rotate(270 516.96 897.818181818182)" font-family="Consolas" font-size="50" fill="limegreen">2020</text><text x="674.67" y="912.818181818182" transform="rotate(270 664.67 897.818181818182)" font-family="Consolas" font-size="50" fill="limegreen">2021</text><text x="822.38" y="912.818181818182" transform="rotate(270 812.38 897.818181818182)" font-family="Consolas" font-size="50" fill="limegreen">2022</text><text x="970.09" y="912.818181818182" transform="rotate(270 960.09 897.818181818182)" font-family="Consolas" font-size="50" fill="limegreen">2023</text><text x="1117.8" y="912.818181818182" transform="rotate(270 1107.8 897.818181818182)" font-family="Consolas" font-size="50" fill="limegreen">2024</text><text x="1265.51" y="912.818181818182" transform="rotate(270 1255.51 897.818181818182)" font-family="Consolas" font-size="50" fill="limegreen">2025</text><text x="1413.22" y="912.818181818182" transform="rotate(270 1403.22 897.818181818182)" font-family="Consolas" font-size="50" fill="limegreen">2026</text><text x="1560.93" y="912.818181818182" transform="rotate(270 1550.93 897.818181818182)" font-family="Consolas" font-size="50" fill="limegreen">2027</text><text x="1708.64" y="912.818181818182" transform="rotate(270 1698.64 897.818181818182)" font-family="Consolas" font-size="50" fill="limegreen">2028</text><text x="1856.35" y="912.818181818182" transform="rotate(270 1846.35 897.818181818182)" font-family="Consolas" font-size="50" fill="limegreen">2029</text></g></g></svg>
