<svg xmlns="http://www.w3.org/2000/svg" width="1920" height="1080"> <rect width="100%" height="100%" fill="#000"/><g xmlns="http://www.w3.org/2000/svg" transform="translate(0,0) scale(1.0)"> <text  x="1080" y="60" font-family="Consolas" font-size="52" text-anchor="middle" fill="white">REAL  GDP ANNUAL PERCENT CHANGE (2018-2029) [IMF DATA]</text><text  x="1700" y="1050" font-family="Consolas" font-size="22" text-anchor="middle" fill="white">DESIGNED BY ZOOMIT WORLD</text><image x="180" y="-50" width="280" height="280" href="https://cdn.jsdelivr.net/gh/hampusborgos/country-flags@main/svg/bs.svg"></image><text x="70" y="180" font-family="Consolas" font-size="50" text-anchor="middle" fill="white">6%</text><text x="70" y="439.411764705882" font-family="Consolas" font-size="50" text-anchor="middle" fill="white">3%</text><text x="70" y="698.823529411765" font-family="Consolas" font-size="50" text-anchor="middle" fill="white">0%</text><text x="70" y="859.411764705882" font-family="Consolas" font-size="50" text-anchor="middle" fill="white">-2%</text><text x="70" y="1020" font-family="Consolas" font-size="50" text-anchor="middle" fill="white">-4%</text><line  x1="141.54" y1="180" x2="141.54" y2="1020" stroke="white" stroke-width="2"/><line x1="141.54"  y1="698.823529411765" x2="1920" y2="698.823529411765" stroke="white" stroke-width="5"/><g><rect x="171.54" y="509.411764705882" width="100" height="189.41" fill="none" stroke="limegreen" stroke-width="2"/><rect x="319.25" y="509.411764705882" width="100" height="189.41" fill="none" stroke="limegreen" stroke-width="2"/><rect x="614.67" y="180" width="100" height="518.82" fill="none" stroke="limegreen" stroke-width="2"/><rect x="762.38" y="287.058823529412" width="100" height="411.76" fill="none" stroke="limegreen" stroke-width="2"/><rect x="910.09" y="690.588235294118" width="100" height="08.24" fill="none" stroke="limegreen" stroke-width="2"/><rect x="1057.8" y="649.411764705882" width="100" height="49.41" fill="none" stroke="limegreen" stroke-width="2"/><rect x="1205.51" y="567.058823529412" width="100" height="131.76" fill="none" stroke="limegreen" stroke-width="2"/><rect x="1353.22" y="558.823529411765" width="100" height="140.00" fill="none" stroke="limegreen" stroke-width="2"/><rect x="1500.93" y="550.588235294118" width="100" height="148.24" fill="none" stroke="limegreen" stroke-width="2"/><rect x="1648.64" y="575.294117647059" width="100" height="123.53" fill="none" stroke="limegreen" stroke-width="2"/><rect x="1796.35" y="583.529411764706" width="100" height="115.29" fill="none" stroke="limegreen" stroke-width="2"/> <rect x="466.96" y="698.823529411765" width="100" height="321.18" fill="none" stroke="limegreen" stroke-width="2"/> </g><g><text x="221.54" y="499.41" font-family="Consolas" font-size="48" text-anchor="middle" fill="white">2.3</text><text x="369.25" y="499.41" font-family="Consolas" font-size="48" text-anchor="middle" fill="white">2.3</text><text x="664.67" y="170" font-family="Consolas" font-size="48" text-anchor="middle" fill="white">6.3</text><text x="812.38" y="277.06" font-family="Consolas" font-size="48" text-anchor="middle" fill="white">5</text><text x="960.09" y="680.59" font-family="Consolas" font-size="48" text-anchor="middle" fill="white">0.1</text><text x="1107.8" y="639.41" font-family="Consolas" font-size="48" text-anchor="middle" fill="white">0.6</text><text x="1255.51" y="557.06" font-family="Consolas" font-size="48" text-anchor="middle" fill="white">1.6</text><text x="1403.22" y="548.82" font-family="Consolas" font-size="48" text-anchor="middle" fill="white">1.7</text><text x="1550.93" y="540.59" font-family="Consolas" font-size="48" text-anchor="middle" fill="white">1.8</text><text x="1698.64" y="565.29" font-family="Consolas" font-size="48" text-anchor="middle" fill="white">1.5</text><text x="1846.35" y="573.53" font-family="Consolas" font-size="48" text-anchor="middle" fill="white">1.4</text> <text x="466.96" y="1010" font-family="Consolas" font-size="48" ttext-anchor="middle" fill="white">-3.9</text></g><g><text x="231.54" y="713.823529411765" transform="rotate(270 221.54 698.823529411765)" font-family="Consolas" font-size="50" fill="limegreen">2018</text><text x="379.25" y="713.823529411765" transform="rotate(270 369.25 698.823529411765)" font-family="Consolas" font-size="50" fill="limegreen">2019</text><text x="526.96" y="713.823529411765" transform="rotate(270 516.96 698.823529411765)" font-family="Consolas" font-size="50" fill="limegreen">2020</text><text x="674.67" y="713.823529411765" transform="rotate(270 664.67 698.823529411765)" font-family="Consolas" font-size="50" fill="limegreen">2021</text><text x="822.38" y="713.823529411765" transform="rotate(270 812.38 698.823529411765)" font-family="Consolas" font-size="50" fill="limegreen">2022</text><text x="970.09" y="713.823529411765" transform="rotate(270 960.09 698.823529411765)" font-family="Consolas" font-size="50" fill="limegreen">2023</text><text x="1117.8" y="713.823529411765" transform="rotate(270 1107.8 698.823529411765)" font-family="Consolas" font-size="50" fill="limegreen">2024</text><text x="1265.51" y="713.823529411765" transform="rotate(270 1255.51 698.823529411765)" font-family="Consolas" font-size="50" fill="limegreen">2025</text><text x="1413.22" y="713.823529411765" transform="rotate(270 1403.22 698.823529411765)" font-family="Consolas" font-size="50" fill="limegreen">2026</text><text x="1560.93" y="713.823529411765" transform="rotate(270 1550.93 698.823529411765)" font-family="Consolas" font-size="50" fill="limegreen">2027</text><text x="1708.64" y="713.823529411765" transform="rotate(270 1698.64 698.823529411765)" font-family="Consolas" font-size="50" fill="limegreen">2028</text><text x="1856.35" y="713.823529411765" transform="rotate(270 1846.35 698.823529411765)" font-family="Consolas" font-size="50" fill="limegreen">2029</text></g></g></svg>
