<svg xmlns="http://www.w3.org/2000/svg" width="1920" height="1080"> <rect width="100%" height="100%" fill="#000"/><g xmlns="http://www.w3.org/2000/svg" transform="translate(0,0) scale(1.0)"> <text  x="1080" y="60" font-family="Consolas" font-size="52" text-anchor="middle" fill="white">REAL  GDP ANNUAL PERCENT CHANGE (2018-2029) [IMF DATA]</text><text  x="1700" y="1050" font-family="Consolas" font-size="22" text-anchor="middle" fill="white">DESIGNED BY ZOOMIT WORLD</text><image x="180" y="-50" width="280" height="280" href="https://cdn.jsdelivr.net/gh/hampusborgos/country-flags@main/svg/bs.svg"></image><text x="70" y="180" font-family="Consolas" font-size="50" text-anchor="middle" fill="white">7%</text><text x="70" y="454.909090909091" font-family="Consolas" font-size="50" text-anchor="middle" fill="white">3.5%</text><text x="70" y="729.818181818182" font-family="Consolas" font-size="50" text-anchor="middle" fill="white">0%</text><text x="70" y="874.909090909091" font-family="Consolas" font-size="50" text-anchor="middle" fill="white">2%</text><text x="70" y="1020" font-family="Consolas" font-size="50" text-anchor="middle" fill="white">4%</text><line  x1="141.54" y1="180" x2="141.54" y2="1020" stroke="white" stroke-width="2"/><line x1="141.54"  y1="729.818181818182" x2="1920" y2="729.818181818182" stroke="white" stroke-width="5"/><g><rect x="171.54" y="218.181818181818" width="100" height="511.64" fill="none" stroke="limegreen" stroke-width="2"/><rect x="319.25" y="202.909090909091" width="100" height="526.91" fill="none" stroke="limegreen" stroke-width="2"/><rect x="466.96" y="439.636363636364" width="100" height="290.18" fill="none" stroke="limegreen" stroke-width="2"/><rect x="614.67" y="180" width="100" height="549.82" fill="none" stroke="limegreen" stroke-width="2"/><rect x="762.38" y="248.727272727273" width="100" height="481.09" fill="none" stroke="limegreen" stroke-width="2"/><rect x="910.09" y="241.090909090909" width="100" height="488.73" fill="none" stroke="limegreen" stroke-width="2"/><rect x="1057.8" y="233.454545454545" width="100" height="496.36" fill="none" stroke="limegreen" stroke-width="2"/><rect x="1205.51" y="233.454545454545" width="100" height="496.36" fill="none" stroke="limegreen" stroke-width="2"/><rect x="1353.22" y="256.363636363636" width="100" height="473.45" fill="none" stroke="limegreen" stroke-width="2"/><rect x="1500.93" y="256.363636363636" width="100" height="473.45" fill="none" stroke="limegreen" stroke-width="2"/><rect x="1648.64" y="271.636363636364" width="100" height="458.18" fill="none" stroke="limegreen" stroke-width="2"/><rect x="1796.35" y="271.636363636364" width="100" height="458.18" fill="none" stroke="limegreen" stroke-width="2"/>  </g><g><text x="221.54" y="208.18" font-family="Consolas" font-size="48" text-anchor="middle" fill="white">6.7</text><text x="369.25" y="192.91" font-family="Consolas" font-size="48" text-anchor="middle" fill="white">6.9</text><text x="516.96" y="429.64" font-family="Consolas" font-size="48" text-anchor="middle" fill="white">3.8</text><text x="664.67" y="170" font-family="Consolas" font-size="48" text-anchor="middle" fill="white">7.2</text><text x="812.38" y="238.73" font-family="Consolas" font-size="48" text-anchor="middle" fill="white">6.3</text><text x="960.09" y="231.09" font-family="Consolas" font-size="48" text-anchor="middle" fill="white">6.4</text><text x="1107.8" y="223.45" font-family="Consolas" font-size="48" text-anchor="middle" fill="white">6.5</text><text x="1255.51" y="223.45" font-family="Consolas" font-size="48" text-anchor="middle" fill="white">6.5</text><text x="1403.22" y="246.36" font-family="Consolas" font-size="48" text-anchor="middle" fill="white">6.2</text><text x="1550.93" y="246.36" font-family="Consolas" font-size="48" text-anchor="middle" fill="white">6.2</text><text x="1698.64" y="261.64" font-family="Consolas" font-size="48" text-anchor="middle" fill="white">6</text><text x="1846.35" y="261.64" font-family="Consolas" font-size="48" text-anchor="middle" fill="white">6</text> </g><g><text x="231.54" y="744.818181818182" transform="rotate(270 221.54 729.818181818182)" font-family="Consolas" font-size="50" fill="limegreen">2018</text><text x="379.25" y="744.818181818182" transform="rotate(270 369.25 729.818181818182)" font-family="Consolas" font-size="50" fill="limegreen">2019</text><text x="526.96" y="744.818181818182" transform="rotate(270 516.96 729.818181818182)" font-family="Consolas" font-size="50" fill="limegreen">2020</text><text x="674.67" y="744.818181818182" transform="rotate(270 664.67 729.818181818182)" font-family="Consolas" font-size="50" fill="limegreen">2021</text><text x="822.38" y="744.818181818182" transform="rotate(270 812.38 729.818181818182)" font-family="Consolas" font-size="50" fill="limegreen">2022</text><text x="970.09" y="744.818181818182" transform="rotate(270 960.09 729.818181818182)" font-family="Consolas" font-size="50" fill="limegreen">2023</text><text x="1117.8" y="744.818181818182" transform="rotate(270 1107.8 729.818181818182)" font-family="Consolas" font-size="50" fill="limegreen">2024</text><text x="1265.51" y="744.818181818182" transform="rotate(270 1255.51 729.818181818182)" font-family="Consolas" font-size="50" fill="limegreen">2025</text><text x="1413.22" y="744.818181818182" transform="rotate(270 1403.22 729.818181818182)" font-family="Consolas" font-size="50" fill="limegreen">2026</text><text x="1560.93" y="744.818181818182" transform="rotate(270 1550.93 729.818181818182)" font-family="Consolas" font-size="50" fill="limegreen">2027</text><text x="1708.64" y="744.818181818182" transform="rotate(270 1698.64 729.818181818182)" font-family="Consolas" font-size="50" fill="limegreen">2028</text><text x="1856.35" y="744.818181818182" transform="rotate(270 1846.35 729.818181818182)" font-family="Consolas" font-size="50" fill="limegreen">2029</text></g></g></svg>
