<svg xmlns="http://www.w3.org/2000/svg" width="1920" height="1080"> <rect width="100%" height="100%" fill="#000"/><g xmlns="http://www.w3.org/2000/svg" transform="translate(0,0) scale(1.0)"> <text  x="1080" y="60" font-family="Consolas" font-size="52" text-anchor="middle" fill="white">REAL  GDP ANNUAL PERCENT CHANGE (2018-2029) [IMF DATA]</text><text  x="1780" y="1050" font-family="Consolas" font-size="32" text-anchor="middle" fill="white">ZOOMIT WORLD</text><image x="180" y="-50" width="280" height="280" href="https://cdn.jsdelivr.net/gh/hampusborgos/country-flags@main/svg/kr.svg"></image><text x="70" y="180" font-family="Consolas" font-size="50" text-anchor="middle" fill="white">5%</text><text x="70" y="544.528301886792" font-family="Consolas" font-size="50" text-anchor="middle" fill="white">2.5%</text><text x="70" y="909.056603773585" font-family="Consolas" font-size="50" text-anchor="middle" fill="white">0%</text><text x="70" y="964.528301886792" font-family="Consolas" font-size="50" text-anchor="middle" fill="white">-0.5%</text><text x="70" y="1020" font-family="Consolas" font-size="50" text-anchor="middle" fill="white">-1%</text><line  x1="141.54" y1="180" x2="141.54" y2="1020" stroke="white" stroke-width="2"/><line x1="141.54"  y1="909.056603773585" x2="1920" y2="909.056603773585" stroke="white" stroke-width="5"/><g><rect x="171.54" y="401.88679245283" width="100" height="507.17" fill="none" stroke="limegreen" stroke-width="2"/><rect x="319.25" y="544.528301886792" width="100" height="364.53" fill="none" stroke="limegreen" stroke-width="2"/><rect x="614.67" y="180" width="100" height="729.06" fill="none" stroke="limegreen" stroke-width="2"/><rect x="762.38" y="481.132075471698" width="100" height="427.92" fill="none" stroke="limegreen" stroke-width="2"/><rect x="910.09" y="687.169811320755" width="100" height="221.89" fill="none" stroke="limegreen" stroke-width="2"/><rect x="1057.8" y="512.830188679245" width="100" height="396.23" fill="none" stroke="limegreen" stroke-width="2"/><rect x="1205.51" y="560.377358490566" width="100" height="348.68" fill="none" stroke="limegreen" stroke-width="2"/><rect x="1353.22" y="560.377358490566" width="100" height="348.68" fill="none" stroke="limegreen" stroke-width="2"/><rect x="1500.93" y="576.226415094339" width="100" height="332.83" fill="none" stroke="limegreen" stroke-width="2"/><rect x="1648.64" y="576.226415094339" width="100" height="332.83" fill="none" stroke="limegreen" stroke-width="2"/><rect x="1796.35" y="592.075471698113" width="100" height="316.98" fill="none" stroke="limegreen" stroke-width="2"/> <rect x="466.96" y="909.056603773585" width="100" height="110.94" fill="none" stroke="limegreen" stroke-width="2"/> </g><g><text x="221.54" y="391.89" font-family="Consolas" font-size="48" text-anchor="middle" fill="white">3.2</text><text x="369.25" y="534.53" font-family="Consolas" font-size="48" text-anchor="middle" fill="white">2.3</text><text x="664.67" y="170" font-family="Consolas" font-size="48" text-anchor="middle" fill="white">4.6</text><text x="812.38" y="471.13" font-family="Consolas" font-size="48" text-anchor="middle" fill="white">2.7</text><text x="960.09" y="677.17" font-family="Consolas" font-size="48" text-anchor="middle" fill="white">1.4</text><text x="1107.8" y="502.83" font-family="Consolas" font-size="48" text-anchor="middle" fill="white">2.5</text><text x="1255.51" y="550.38" font-family="Consolas" font-size="48" text-anchor="middle" fill="white">2.2</text><text x="1403.22" y="550.38" font-family="Consolas" font-size="48" text-anchor="middle" fill="white">2.2</text><text x="1550.93" y="566.23" font-family="Consolas" font-size="48" text-anchor="middle" fill="white">2.1</text><text x="1698.64" y="566.23" font-family="Consolas" font-size="48" text-anchor="middle" fill="white">2.1</text><text x="1846.35" y="582.08" font-family="Consolas" font-size="48" text-anchor="middle" fill="white">2</text> <text x="466.96" y="1010" font-family="Consolas" font-size="48" ttext-anchor="middle" fill="white">-0.7</text></g><g><text x="231.54" y="924.056603773585" transform="rotate(270 221.54 909.056603773585)" font-family="Consolas" font-size="50" fill="limegreen">2018</text><text x="379.25" y="924.056603773585" transform="rotate(270 369.25 909.056603773585)" font-family="Consolas" font-size="50" fill="limegreen">2019</text><text x="526.96" y="924.056603773585" transform="rotate(270 516.96 909.056603773585)" font-family="Consolas" font-size="50" fill="limegreen">2020</text><text x="674.67" y="924.056603773585" transform="rotate(270 664.67 909.056603773585)" font-family="Consolas" font-size="50" fill="limegreen">2021</text><text x="822.38" y="924.056603773585" transform="rotate(270 812.38 909.056603773585)" font-family="Consolas" font-size="50" fill="limegreen">2022</text><text x="970.09" y="924.056603773585" transform="rotate(270 960.09 909.056603773585)" font-family="Consolas" font-size="50" fill="limegreen">2023</text><text x="1117.8" y="924.056603773585" transform="rotate(270 1107.8 909.056603773585)" font-family="Consolas" font-size="50" fill="limegreen">2024</text><text x="1265.51" y="924.056603773585" transform="rotate(270 1255.51 909.056603773585)" font-family="Consolas" font-size="50" fill="limegreen">2025</text><text x="1413.22" y="924.056603773585" transform="rotate(270 1403.22 909.056603773585)" font-family="Consolas" font-size="50" fill="limegreen">2026</text><text x="1560.93" y="924.056603773585" transform="rotate(270 1550.93 909.056603773585)" font-family="Consolas" font-size="50" fill="limegreen">2027</text><text x="1708.64" y="924.056603773585" transform="rotate(270 1698.64 909.056603773585)" font-family="Consolas" font-size="50" fill="limegreen">2028</text><text x="1856.35" y="924.056603773585" transform="rotate(270 1846.35 909.056603773585)" font-family="Consolas" font-size="50" fill="limegreen">2029</text></g></g></svg>
