<svg xmlns="http://www.w3.org/2000/svg" width="1920" height="1080"> <rect width="100%" height="100%" fill="#000"/><g xmlns="http://www.w3.org/2000/svg" transform="translate(0,0) scale(1.0)"> <text  x="1080" y="60" font-family="Consolas" font-size="52" text-anchor="middle" fill="white">REAL  GDP ANNUAL PERCENT CHANGE (2018-2029) [IMF DATA]</text><text  x="1700" y="1050" font-family="Consolas" font-size="22" text-anchor="middle" fill="white">DESIGNED BY ZOOMIT WORLD</text><image x="180" y="-50" width="280" height="280" href="https://cdn.jsdelivr.net/gh/hampusborgos/country-flags@main/svg/bs.svg"></image><text x="70" y="180" font-family="Consolas" font-size="50" text-anchor="middle" fill="white">2%</text><text x="70" y="452.432432432432" font-family="Consolas" font-size="50" text-anchor="middle" fill="white">1%</text><text x="70" y="724.864864864865" font-family="Consolas" font-size="50" text-anchor="middle" fill="white">0%</text><text x="70" y="872.432432432432" font-family="Consolas" font-size="50" text-anchor="middle" fill="white">-0.5%</text><text x="70" y="1020" font-family="Consolas" font-size="50" text-anchor="middle" fill="white">-1%</text><line  x1="141.54" y1="180" x2="141.54" y2="1020" stroke="white" stroke-width="2"/><line x1="141.54"  y1="724.864864864865" x2="1920" y2="724.864864864865" stroke="white" stroke-width="5"/><g><rect x="171.54" y="520.54054054054" width="100" height="204.32" fill="none" stroke="limegreen" stroke-width="2"/><rect x="466.96" y="429.72972972973" width="100" height="295.14" fill="none" stroke="limegreen" stroke-width="2"/><rect x="910.09" y="270.810810810811" width="100" height="454.05" fill="none" stroke="limegreen" stroke-width="2"/><rect x="1057.8" y="316.216216216216" width="100" height="408.65" fill="none" stroke="limegreen" stroke-width="2"/><rect x="1205.51" y="180" width="100" height="544.86" fill="none" stroke="limegreen" stroke-width="2"/><rect x="1353.22" y="270.810810810811" width="100" height="454.05" fill="none" stroke="limegreen" stroke-width="2"/><rect x="1500.93" y="361.621621621622" width="100" height="363.24" fill="none" stroke="limegreen" stroke-width="2"/><rect x="1648.64" y="407.027027027027" width="100" height="317.84" fill="none" stroke="limegreen" stroke-width="2"/><rect x="1796.35" y="452.432432432432" width="100" height="272.43" fill="none" stroke="limegreen" stroke-width="2"/> <rect x="319.25" y="724.864864864865" width="100" height="45.41" fill="none" stroke="limegreen" stroke-width="2"/><rect x="614.67" y="724.864864864865" width="100" height="295.14" fill="none" stroke="limegreen" stroke-width="2"/> </g><g><text x="221.54" y="510.54" font-family="Consolas" font-size="48" text-anchor="middle" fill="white">0.9</text><text x="516.96" y="419.73" font-family="Consolas" font-size="48" text-anchor="middle" fill="white">1.3</text><text x="960.09" y="260.81" font-family="Consolas" font-size="48" text-anchor="middle" fill="white">2</text><text x="1107.8" y="306.22" font-family="Consolas" font-size="48" text-anchor="middle" fill="white">1.8</text><text x="1255.51" y="170" font-family="Consolas" font-size="48" text-anchor="middle" fill="white">2.4</text><text x="1403.22" y="260.81" font-family="Consolas" font-size="48" text-anchor="middle" fill="white">2</text><text x="1550.93" y="351.62" font-family="Consolas" font-size="48" text-anchor="middle" fill="white">1.6</text><text x="1698.64" y="397.03" font-family="Consolas" font-size="48" text-anchor="middle" fill="white">1.4</text><text x="1846.35" y="442.43" font-family="Consolas" font-size="48" text-anchor="middle" fill="white">1.2</text> <text x="319.25" y="760.27027027027" font-family="Consolas" font-size="48" ttext-anchor="middle" fill="white">-0.2</text><text x="614.67" y="1010" font-family="Consolas" font-size="48" ttext-anchor="middle" fill="white">-1.3</text></g><g><text x="231.54" y="739.864864864865" transform="rotate(270 221.54 724.864864864865)" font-family="Consolas" font-size="50" fill="limegreen">2018</text><text x="379.25" y="739.864864864865" transform="rotate(270 369.25 724.864864864865)" font-family="Consolas" font-size="50" fill="limegreen">2019</text><text x="526.96" y="739.864864864865" transform="rotate(270 516.96 724.864864864865)" font-family="Consolas" font-size="50" fill="limegreen">2020</text><text x="674.67" y="739.864864864865" transform="rotate(270 664.67 724.864864864865)" font-family="Consolas" font-size="50" fill="limegreen">2021</text><text x="822.38" y="739.864864864865" transform="rotate(270 812.38 724.864864864865)" font-family="Consolas" font-size="50" fill="limegreen">2022</text><text x="970.09" y="739.864864864865" transform="rotate(270 960.09 724.864864864865)" font-family="Consolas" font-size="50" fill="limegreen">2023</text><text x="1117.8" y="739.864864864865" transform="rotate(270 1107.8 724.864864864865)" font-family="Consolas" font-size="50" fill="limegreen">2024</text><text x="1265.51" y="739.864864864865" transform="rotate(270 1255.51 724.864864864865)" font-family="Consolas" font-size="50" fill="limegreen">2025</text><text x="1413.22" y="739.864864864865" transform="rotate(270 1403.22 724.864864864865)" font-family="Consolas" font-size="50" fill="limegreen">2026</text><text x="1560.93" y="739.864864864865" transform="rotate(270 1550.93 724.864864864865)" font-family="Consolas" font-size="50" fill="limegreen">2027</text><text x="1708.64" y="739.864864864865" transform="rotate(270 1698.64 724.864864864865)" font-family="Consolas" font-size="50" fill="limegreen">2028</text><text x="1856.35" y="739.864864864865" transform="rotate(270 1846.35 724.864864864865)" font-family="Consolas" font-size="50" fill="limegreen">2029</text></g></g></svg>
