<svg xmlns="http://www.w3.org/2000/svg" width="1920" height="1080"> <rect width="100%" height="100%" fill="#000"/><g xmlns="http://www.w3.org/2000/svg" transform="translate(0,0) scale(1.0)"> <text  x="1080" y="60" font-family="Consolas" font-size="52" text-anchor="middle" fill="white">REAL  GDP ANNUAL PERCENT CHANGE (2018-2029) [IMF DATA]</text><text  x="1780" y="1050" font-family="Consolas" font-size="32" text-anchor="middle" fill="white">ZOOMIT WORLD</text><image x="180" y="-50" width="280" height="280" href="https://cdn.jsdelivr.net/gh/hampusborgos/country-flags@main/svg/kg.svg"></image><text x="70" y="180" font-family="Consolas" font-size="50" text-anchor="middle" fill="white">9%</text><text x="70" y="414.782608695652" font-family="Consolas" font-size="50" text-anchor="middle" fill="white">4.5%</text><text x="70" y="649.565217391304" font-family="Consolas" font-size="50" text-anchor="middle" fill="white">0%</text><text x="70" y="834.782608695652" font-family="Consolas" font-size="50" text-anchor="middle" fill="white">-3.5%</text><text x="70" y="1020" font-family="Consolas" font-size="50" text-anchor="middle" fill="white">-7%</text><line  x1="141.54" y1="180" x2="141.54" y2="1020" stroke="white" stroke-width="2"/><line x1="141.54"  y1="649.565217391304" x2="1920" y2="649.565217391304" stroke="white" stroke-width="5"/><g><rect x="171.54" y="466.95652173913" width="100" height="182.61" fill="none" stroke="limegreen" stroke-width="2"/><rect x="319.25" y="409.565217391304" width="100" height="240.00" fill="none" stroke="limegreen" stroke-width="2"/><rect x="614.67" y="362.608695652174" width="100" height="286.96" fill="none" stroke="limegreen" stroke-width="2"/><rect x="762.38" y="180" width="100" height="469.57" fill="none" stroke="limegreen" stroke-width="2"/><rect x="910.09" y="326.086956521739" width="100" height="323.48" fill="none" stroke="limegreen" stroke-width="2"/><rect x="1057.8" y="310.434782608696" width="100" height="339.13" fill="none" stroke="limegreen" stroke-width="2"/><rect x="1205.51" y="388.695652173913" width="100" height="260.87" fill="none" stroke="limegreen" stroke-width="2"/><rect x="1353.22" y="435.652173913043" width="100" height="213.91" fill="none" stroke="limegreen" stroke-width="2"/><rect x="1500.93" y="388.695652173913" width="100" height="260.87" fill="none" stroke="limegreen" stroke-width="2"/><rect x="1648.64" y="435.652173913043" width="100" height="213.91" fill="none" stroke="limegreen" stroke-width="2"/><rect x="1796.35" y="435.652173913043" width="100" height="213.91" fill="none" stroke="limegreen" stroke-width="2"/> <rect x="466.96" y="649.565217391304" width="100" height="370.43" fill="none" stroke="limegreen" stroke-width="2"/> </g><g><text x="221.54" y="456.96" font-family="Consolas" font-size="48" text-anchor="middle" fill="white">3.5</text><text x="369.25" y="399.57" font-family="Consolas" font-size="48" text-anchor="middle" fill="white">4.6</text><text x="664.67" y="352.61" font-family="Consolas" font-size="48" text-anchor="middle" fill="white">5.5</text><text x="812.38" y="170" font-family="Consolas" font-size="48" text-anchor="middle" fill="white">9</text><text x="960.09" y="316.09" font-family="Consolas" font-size="48" text-anchor="middle" fill="white">6.2</text><text x="1107.8" y="300.43" font-family="Consolas" font-size="48" text-anchor="middle" fill="white">6.5</text><text x="1255.51" y="378.7" font-family="Consolas" font-size="48" text-anchor="middle" fill="white">5</text><text x="1403.22" y="425.65" font-family="Consolas" font-size="48" text-anchor="middle" fill="white">4.1</text><text x="1550.93" y="378.7" font-family="Consolas" font-size="48" text-anchor="middle" fill="white">5</text><text x="1698.64" y="425.65" font-family="Consolas" font-size="48" text-anchor="middle" fill="white">4.1</text><text x="1846.35" y="425.65" font-family="Consolas" font-size="48" text-anchor="middle" fill="white">4.1</text> <text x="466.96" y="1010" font-family="Consolas" font-size="48" ttext-anchor="middle" fill="white">-7.1</text></g><g><text x="231.54" y="664.565217391304" transform="rotate(270 221.54 649.565217391304)" font-family="Consolas" font-size="50" fill="limegreen">2018</text><text x="379.25" y="664.565217391304" transform="rotate(270 369.25 649.565217391304)" font-family="Consolas" font-size="50" fill="limegreen">2019</text><text x="526.96" y="664.565217391304" transform="rotate(270 516.96 649.565217391304)" font-family="Consolas" font-size="50" fill="limegreen">2020</text><text x="674.67" y="664.565217391304" transform="rotate(270 664.67 649.565217391304)" font-family="Consolas" font-size="50" fill="limegreen">2021</text><text x="822.38" y="664.565217391304" transform="rotate(270 812.38 649.565217391304)" font-family="Consolas" font-size="50" fill="limegreen">2022</text><text x="970.09" y="664.565217391304" transform="rotate(270 960.09 649.565217391304)" font-family="Consolas" font-size="50" fill="limegreen">2023</text><text x="1117.8" y="664.565217391304" transform="rotate(270 1107.8 649.565217391304)" font-family="Consolas" font-size="50" fill="limegreen">2024</text><text x="1265.51" y="664.565217391304" transform="rotate(270 1255.51 649.565217391304)" font-family="Consolas" font-size="50" fill="limegreen">2025</text><text x="1413.22" y="664.565217391304" transform="rotate(270 1403.22 649.565217391304)" font-family="Consolas" font-size="50" fill="limegreen">2026</text><text x="1560.93" y="664.565217391304" transform="rotate(270 1550.93 649.565217391304)" font-family="Consolas" font-size="50" fill="limegreen">2027</text><text x="1708.64" y="664.565217391304" transform="rotate(270 1698.64 649.565217391304)" font-family="Consolas" font-size="50" fill="limegreen">2028</text><text x="1856.35" y="664.565217391304" transform="rotate(270 1846.35 649.565217391304)" font-family="Consolas" font-size="50" fill="limegreen">2029</text></g></g></svg>
