<svg xmlns="http://www.w3.org/2000/svg" width="1920" height="1080"> <rect width="100%" height="100%" fill="#000"/><g xmlns="http://www.w3.org/2000/svg" transform="translate(0,0) scale(1.0)"> <text  x="1080" y="60" font-family="Consolas" font-size="52" text-anchor="middle" fill="white">REAL  GDP ANNUAL PERCENT CHANGE (2018-2029) [IMF DATA]</text><text  x="1780" y="1050" font-family="Consolas" font-size="32" text-anchor="middle" fill="white">ZOOMIT WORLD</text><image x="180" y="-50" width="280" height="280" href="https://cdn.jsdelivr.net/gh/hampusborgos/country-flags@main/svg/cg.svg"></image><text x="70" y="180" font-family="Consolas" font-size="50" text-anchor="middle" fill="white">4%</text><text x="70" y="338.019801980198" font-family="Consolas" font-size="50" text-anchor="middle" fill="white">2%</text><text x="70" y="496.039603960396" font-family="Consolas" font-size="50" text-anchor="middle" fill="white">0%</text><text x="70" y="758.019801980198" font-family="Consolas" font-size="50" text-anchor="middle" fill="white">-3%</text><text x="70" y="1020" font-family="Consolas" font-size="50" text-anchor="middle" fill="white">-6%</text><line  x1="141.54" y1="180" x2="141.54" y2="1020" stroke="white" stroke-width="2"/><line x1="141.54"  y1="496.039603960396" x2="1920" y2="496.039603960396" stroke="white" stroke-width="5"/><g><rect x="319.25" y="404.554455445545" width="100" height="91.49" fill="none" stroke="limegreen" stroke-width="2"/><rect x="614.67" y="404.554455445545" width="100" height="91.49" fill="none" stroke="limegreen" stroke-width="2"/><rect x="762.38" y="346.336633663366" width="100" height="149.70" fill="none" stroke="limegreen" stroke-width="2"/><rect x="910.09" y="329.70297029703" width="100" height="166.34" fill="none" stroke="limegreen" stroke-width="2"/><rect x="1057.8" y="263.168316831683" width="100" height="232.87" fill="none" stroke="limegreen" stroke-width="2"/><rect x="1205.51" y="188.316831683168" width="100" height="307.72" fill="none" stroke="limegreen" stroke-width="2"/><rect x="1353.22" y="204.950495049505" width="100" height="291.09" fill="none" stroke="limegreen" stroke-width="2"/><rect x="1500.93" y="204.950495049505" width="100" height="291.09" fill="none" stroke="limegreen" stroke-width="2"/><rect x="1648.64" y="180" width="100" height="316.04" fill="none" stroke="limegreen" stroke-width="2"/><rect x="1796.35" y="180" width="100" height="316.04" fill="none" stroke="limegreen" stroke-width="2"/> <rect x="171.54" y="496.039603960396" width="100" height="191.29" fill="none" stroke="limegreen" stroke-width="2"/><rect x="466.96" y="496.039603960396" width="100" height="523.96" fill="none" stroke="limegreen" stroke-width="2"/> </g><g><text x="369.25" y="394.55" font-family="Consolas" font-size="48" text-anchor="middle" fill="white">1.1</text><text x="664.67" y="394.55" font-family="Consolas" font-size="48" text-anchor="middle" fill="white">1.1</text><text x="812.38" y="336.34" font-family="Consolas" font-size="48" text-anchor="middle" fill="white">1.8</text><text x="960.09" y="319.7" font-family="Consolas" font-size="48" text-anchor="middle" fill="white">2</text><text x="1107.8" y="253.17" font-family="Consolas" font-size="48" text-anchor="middle" fill="white">2.8</text><text x="1255.51" y="178.32" font-family="Consolas" font-size="48" text-anchor="middle" fill="white">3.7</text><text x="1403.22" y="194.95" font-family="Consolas" font-size="48" text-anchor="middle" fill="white">3.5</text><text x="1550.93" y="194.95" font-family="Consolas" font-size="48" text-anchor="middle" fill="white">3.5</text><text x="1698.64" y="170" font-family="Consolas" font-size="48" text-anchor="middle" fill="white">3.8</text><text x="1846.35" y="170" font-family="Consolas" font-size="48" text-anchor="middle" fill="white">3.8</text> <text x="171.54" y="677.326732673267" font-family="Consolas" font-size="48" ttext-anchor="middle" fill="white">-2.3</text><text x="466.96" y="1010" font-family="Consolas" font-size="48" ttext-anchor="middle" fill="white">-6.3</text></g><g><text x="231.54" y="511.039603960396" transform="rotate(270 221.54 496.039603960396)" font-family="Consolas" font-size="50" fill="limegreen">2018</text><text x="379.25" y="511.039603960396" transform="rotate(270 369.25 496.039603960396)" font-family="Consolas" font-size="50" fill="limegreen">2019</text><text x="526.96" y="511.039603960396" transform="rotate(270 516.96 496.039603960396)" font-family="Consolas" font-size="50" fill="limegreen">2020</text><text x="674.67" y="511.039603960396" transform="rotate(270 664.67 496.039603960396)" font-family="Consolas" font-size="50" fill="limegreen">2021</text><text x="822.38" y="511.039603960396" transform="rotate(270 812.38 496.039603960396)" font-family="Consolas" font-size="50" fill="limegreen">2022</text><text x="970.09" y="511.039603960396" transform="rotate(270 960.09 496.039603960396)" font-family="Consolas" font-size="50" fill="limegreen">2023</text><text x="1117.8" y="511.039603960396" transform="rotate(270 1107.8 496.039603960396)" font-family="Consolas" font-size="50" fill="limegreen">2024</text><text x="1265.51" y="511.039603960396" transform="rotate(270 1255.51 496.039603960396)" font-family="Consolas" font-size="50" fill="limegreen">2025</text><text x="1413.22" y="511.039603960396" transform="rotate(270 1403.22 496.039603960396)" font-family="Consolas" font-size="50" fill="limegreen">2026</text><text x="1560.93" y="511.039603960396" transform="rotate(270 1550.93 496.039603960396)" font-family="Consolas" font-size="50" fill="limegreen">2027</text><text x="1708.64" y="511.039603960396" transform="rotate(270 1698.64 496.039603960396)" font-family="Consolas" font-size="50" fill="limegreen">2028</text><text x="1856.35" y="511.039603960396" transform="rotate(270 1846.35 496.039603960396)" font-family="Consolas" font-size="50" fill="limegreen">2029</text></g></g></svg>
