<svg xmlns="http://www.w3.org/2000/svg" width="1920" height="1080"> <rect width="100%" height="100%" fill="#000"/><g xmlns="http://www.w3.org/2000/svg" transform="translate(0,0) scale(1.0)"> <text  x="1080" y="60" font-family="Consolas" font-size="52" text-anchor="middle" fill="white">REAL  GDP ANNUAL PERCENT CHANGE (2018-2029) [IMF DATA]</text><text  x="1700" y="1050" font-family="Consolas" font-size="22" text-anchor="middle" fill="white">DESIGNED BY ZOOMIT WORLD</text><image x="180" y="-50" width="280" height="280" href="https://cdn.jsdelivr.net/gh/hampusborgos/country-flags@main/svg/bs.svg"></image><text x="70" y="180" font-family="Consolas" font-size="50" text-anchor="middle" fill="white">7%</text><text x="70" y="544.33734939759" font-family="Consolas" font-size="50" text-anchor="middle" fill="white">3.5%</text><text x="70" y="908.674698795181" font-family="Consolas" font-size="50" text-anchor="middle" fill="white">0%</text><text x="70" y="964.33734939759" font-family="Consolas" font-size="50" text-anchor="middle" fill="white">-0.5%</text><text x="70" y="1020" font-family="Consolas" font-size="50" text-anchor="middle" fill="white">-1%</text><line  x1="141.54" y1="180" x2="141.54" y2="1020" stroke="white" stroke-width="2"/><line x1="141.54"  y1="908.674698795181" x2="1920" y2="908.674698795181" stroke="white" stroke-width="5"/><g><rect x="171.54" y="787.228915662651" width="100" height="121.45" fill="none" stroke="limegreen" stroke-width="2"/><rect x="319.25" y="615.180722891566" width="100" height="293.49" fill="none" stroke="limegreen" stroke-width="2"/><rect x="614.67" y="180" width="100" height="728.67" fill="none" stroke="limegreen" stroke-width="2"/><rect x="762.38" y="766.987951807229" width="100" height="141.69" fill="none" stroke="limegreen" stroke-width="2"/><rect x="1057.8" y="777.10843373494" width="100" height="131.57" fill="none" stroke="limegreen" stroke-width="2"/><rect x="1205.51" y="635.421686746988" width="100" height="273.25" fill="none" stroke="limegreen" stroke-width="2"/><rect x="1353.22" y="655.66265060241" width="100" height="253.01" fill="none" stroke="limegreen" stroke-width="2"/><rect x="1500.93" y="675.903614457831" width="100" height="232.77" fill="none" stroke="limegreen" stroke-width="2"/><rect x="1648.64" y="675.903614457831" width="100" height="232.77" fill="none" stroke="limegreen" stroke-width="2"/><rect x="1796.35" y="675.903614457831" width="100" height="232.77" fill="none" stroke="limegreen" stroke-width="2"/> <rect x="466.96" y="908.674698795181" width="100" height="91.08" fill="none" stroke="limegreen" stroke-width="2"/><rect x="910.09" y="908.674698795181" width="100" height="111.33" fill="none" stroke="limegreen" stroke-width="2"/> </g><g><text x="221.54" y="777.23" font-family="Consolas" font-size="48" text-anchor="middle" fill="white">1.2</text><text x="369.25" y="605.18" font-family="Consolas" font-size="48" text-anchor="middle" fill="white">2.9</text><text x="664.67" y="170" font-family="Consolas" font-size="48" text-anchor="middle" fill="white">7.2</text><text x="812.38" y="756.99" font-family="Consolas" font-size="48" text-anchor="middle" fill="white">1.4</text><text x="1107.8" y="767.11" font-family="Consolas" font-size="48" text-anchor="middle" fill="white">1.3</text><text x="1255.51" y="625.42" font-family="Consolas" font-size="48" text-anchor="middle" fill="white">2.7</text><text x="1403.22" y="645.66" font-family="Consolas" font-size="48" text-anchor="middle" fill="white">2.5</text><text x="1550.93" y="665.9" font-family="Consolas" font-size="48" text-anchor="middle" fill="white">2.3</text><text x="1698.64" y="665.9" font-family="Consolas" font-size="48" text-anchor="middle" fill="white">2.3</text><text x="1846.35" y="665.9" font-family="Consolas" font-size="48" text-anchor="middle" fill="white">2.3</text> <text x="466.96" y="989.759036144578" font-family="Consolas" font-size="48" ttext-anchor="middle" fill="white">-0.9</text><text x="910.09" y="1010" font-family="Consolas" font-size="48" ttext-anchor="middle" fill="white">-1.1</text></g><g><text x="231.54" y="923.674698795181" transform="rotate(270 221.54 908.674698795181)" font-family="Consolas" font-size="50" fill="limegreen">2018</text><text x="379.25" y="923.674698795181" transform="rotate(270 369.25 908.674698795181)" font-family="Consolas" font-size="50" fill="limegreen">2019</text><text x="526.96" y="923.674698795181" transform="rotate(270 516.96 908.674698795181)" font-family="Consolas" font-size="50" fill="limegreen">2020</text><text x="674.67" y="923.674698795181" transform="rotate(270 664.67 908.674698795181)" font-family="Consolas" font-size="50" fill="limegreen">2021</text><text x="822.38" y="923.674698795181" transform="rotate(270 812.38 908.674698795181)" font-family="Consolas" font-size="50" fill="limegreen">2022</text><text x="970.09" y="923.674698795181" transform="rotate(270 960.09 908.674698795181)" font-family="Consolas" font-size="50" fill="limegreen">2023</text><text x="1117.8" y="923.674698795181" transform="rotate(270 1107.8 908.674698795181)" font-family="Consolas" font-size="50" fill="limegreen">2024</text><text x="1265.51" y="923.674698795181" transform="rotate(270 1255.51 908.674698795181)" font-family="Consolas" font-size="50" fill="limegreen">2025</text><text x="1413.22" y="923.674698795181" transform="rotate(270 1403.22 908.674698795181)" font-family="Consolas" font-size="50" fill="limegreen">2026</text><text x="1560.93" y="923.674698795181" transform="rotate(270 1550.93 908.674698795181)" font-family="Consolas" font-size="50" fill="limegreen">2027</text><text x="1708.64" y="923.674698795181" transform="rotate(270 1698.64 908.674698795181)" font-family="Consolas" font-size="50" fill="limegreen">2028</text><text x="1856.35" y="923.674698795181" transform="rotate(270 1846.35 908.674698795181)" font-family="Consolas" font-size="50" fill="limegreen">2029</text></g></g></svg>
