<svg xmlns="http://www.w3.org/2000/svg" width="1920" height="1080"> <rect width="100%" height="100%" fill="#000"/><g xmlns="http://www.w3.org/2000/svg" transform="translate(0,0) scale(1.0)"> <text  x="1080" y="60" font-family="Consolas" font-size="52" text-anchor="middle" fill="white">REAL  GDP ANNUAL PERCENT CHANGE (2018-2029) [IMF DATA]</text><text  x="1700" y="1050" font-family="Consolas" font-size="22" text-anchor="middle" fill="white">DESIGNED BY ZOOMIT WORLD</text><image x="180" y="-50" width="280" height="280" href="https://cdn.jsdelivr.net/gh/hampusborgos/country-flags@main/svg/bs.svg"></image><text x="70" y="180" font-family="Consolas" font-size="50" text-anchor="middle" fill="white">6%</text><text x="70" y="360.923076923077" font-family="Consolas" font-size="50" text-anchor="middle" fill="white">3%</text><text x="70" y="541.846153846154" font-family="Consolas" font-size="50" text-anchor="middle" fill="white">0%</text><text x="70" y="780.923076923077" font-family="Consolas" font-size="50" text-anchor="middle" fill="white">-3.5%</text><text x="70" y="1020" font-family="Consolas" font-size="50" text-anchor="middle" fill="white">-7%</text><line  x1="141.54" y1="180" x2="141.54" y2="1020" stroke="white" stroke-width="2"/><line x1="141.54"  y1="541.846153846154" x2="1920" y2="541.846153846154" stroke="white" stroke-width="5"/><g><rect x="171.54" y="528.923076923077" width="100" height="12.92" fill="none" stroke="limegreen" stroke-width="2"/><rect x="319.25" y="483.692307692308" width="100" height="58.15" fill="none" stroke="limegreen" stroke-width="2"/><rect x="614.67" y="180" width="100" height="361.85" fill="none" stroke="limegreen" stroke-width="2"/><rect x="762.38" y="238.153846153846" width="100" height="303.69" fill="none" stroke="limegreen" stroke-width="2"/><rect x="910.09" y="516" width="100" height="25.85" fill="none" stroke="limegreen" stroke-width="2"/><rect x="1057.8" y="335.076923076923" width="100" height="206.77" fill="none" stroke="limegreen" stroke-width="2"/><rect x="1205.51" y="348" width="100" height="193.85" fill="none" stroke="limegreen" stroke-width="2"/><rect x="1353.22" y="373.846153846154" width="100" height="168.00" fill="none" stroke="limegreen" stroke-width="2"/><rect x="1500.93" y="386.769230769231" width="100" height="155.08" fill="none" stroke="limegreen" stroke-width="2"/><rect x="1648.64" y="393.230769230769" width="100" height="148.62" fill="none" stroke="limegreen" stroke-width="2"/><rect x="1796.35" y="399.692307692308" width="100" height="142.15" fill="none" stroke="limegreen" stroke-width="2"/> <rect x="466.96" y="541.846153846154" width="100" height="478.15" fill="none" stroke="limegreen" stroke-width="2"/> </g><g><text x="221.54" y="518.92" font-family="Consolas" font-size="48" text-anchor="middle" fill="white">0.2</text><text x="369.25" y="473.69" font-family="Consolas" font-size="48" text-anchor="middle" fill="white">0.9</text><text x="664.67" y="170" font-family="Consolas" font-size="48" text-anchor="middle" fill="white">5.6</text><text x="812.38" y="228.15" font-family="Consolas" font-size="48" text-anchor="middle" fill="white">4.7</text><text x="960.09" y="506" font-family="Consolas" font-size="48" text-anchor="middle" fill="white">0.4</text><text x="1107.8" y="325.08" font-family="Consolas" font-size="48" text-anchor="middle" fill="white">3.2</text><text x="1255.51" y="338" font-family="Consolas" font-size="48" text-anchor="middle" fill="white">3</text><text x="1403.22" y="363.85" font-family="Consolas" font-size="48" text-anchor="middle" fill="white">2.6</text><text x="1550.93" y="376.77" font-family="Consolas" font-size="48" text-anchor="middle" fill="white">2.4</text><text x="1698.64" y="383.23" font-family="Consolas" font-size="48" text-anchor="middle" fill="white">2.3</text><text x="1846.35" y="389.69" font-family="Consolas" font-size="48" text-anchor="middle" fill="white">2.2</text> <text x="466.96" y="1010" font-family="Consolas" font-size="48" ttext-anchor="middle" fill="white">-7.4</text></g><g><text x="231.54" y="556.846153846154" transform="rotate(270 221.54 541.846153846154)" font-family="Consolas" font-size="50" fill="limegreen">2018</text><text x="379.25" y="556.846153846154" transform="rotate(270 369.25 541.846153846154)" font-family="Consolas" font-size="50" fill="limegreen">2019</text><text x="526.96" y="556.846153846154" transform="rotate(270 516.96 541.846153846154)" font-family="Consolas" font-size="50" fill="limegreen">2020</text><text x="674.67" y="556.846153846154" transform="rotate(270 664.67 541.846153846154)" font-family="Consolas" font-size="50" fill="limegreen">2021</text><text x="822.38" y="556.846153846154" transform="rotate(270 812.38 541.846153846154)" font-family="Consolas" font-size="50" fill="limegreen">2022</text><text x="970.09" y="556.846153846154" transform="rotate(270 960.09 541.846153846154)" font-family="Consolas" font-size="50" fill="limegreen">2023</text><text x="1117.8" y="556.846153846154" transform="rotate(270 1107.8 541.846153846154)" font-family="Consolas" font-size="50" fill="limegreen">2024</text><text x="1265.51" y="556.846153846154" transform="rotate(270 1255.51 541.846153846154)" font-family="Consolas" font-size="50" fill="limegreen">2025</text><text x="1413.22" y="556.846153846154" transform="rotate(270 1403.22 541.846153846154)" font-family="Consolas" font-size="50" fill="limegreen">2026</text><text x="1560.93" y="556.846153846154" transform="rotate(270 1550.93 541.846153846154)" font-family="Consolas" font-size="50" fill="limegreen">2027</text><text x="1708.64" y="556.846153846154" transform="rotate(270 1698.64 541.846153846154)" font-family="Consolas" font-size="50" fill="limegreen">2028</text><text x="1856.35" y="556.846153846154" transform="rotate(270 1846.35 541.846153846154)" font-family="Consolas" font-size="50" fill="limegreen">2029</text></g></g></svg>
