<svg xmlns="http://www.w3.org/2000/svg" width="1920" height="1080"> <rect width="100%" height="100%" fill="#000"/><g xmlns="http://www.w3.org/2000/svg" transform="translate(0,0) scale(1.0)"> <text  x="1080" y="60" font-family="Consolas" font-size="52" text-anchor="middle" fill="white">REAL  GDP ANNUAL PERCENT CHANGE (2018-2029) [IMF DATA]</text><text  x="1780" y="1050" font-family="Consolas" font-size="32" text-anchor="middle" fill="white">ZOOMIT WORLD</text><image x="180" y="-50" width="280" height="280" href="https://cdn.jsdelivr.net/gh/hampusborgos/country-flags@main/svg/km.svg"></image><text x="70" y="180" font-family="Consolas" font-size="50" text-anchor="middle" fill="white">5%</text><text x="70" y="582.127659574468" font-family="Consolas" font-size="50" text-anchor="middle" fill="white">2.5%</text><text x="70" y="984.255319148936" font-family="Consolas" font-size="50" text-anchor="middle" fill="white">0%</text><text x="70" y="1002.12765957447" font-family="Consolas" font-size="50" text-anchor="middle" fill="white">0%</text><text x="70" y="1020" font-family="Consolas" font-size="50" text-anchor="middle" fill="white">0%</text><line  x1="141.54" y1="180" x2="141.54" y2="1020" stroke="white" stroke-width="2"/><line x1="141.54"  y1="984.255319148936" x2="1920" y2="984.255319148936" stroke="white" stroke-width="5"/><g><rect x="171.54" y="340.851063829787" width="100" height="643.40" fill="none" stroke="limegreen" stroke-width="2"/><rect x="319.25" y="662.553191489362" width="100" height="321.70" fill="none" stroke="limegreen" stroke-width="2"/><rect x="614.67" y="626.808510638298" width="100" height="357.45" fill="none" stroke="limegreen" stroke-width="2"/><rect x="762.38" y="519.574468085106" width="100" height="464.68" fill="none" stroke="limegreen" stroke-width="2"/><rect x="910.09" y="448.085106382979" width="100" height="536.17" fill="none" stroke="limegreen" stroke-width="2"/><rect x="1057.8" y="358.723404255319" width="100" height="625.53" fill="none" stroke="limegreen" stroke-width="2"/><rect x="1205.51" y="269.36170212766" width="100" height="714.89" fill="none" stroke="limegreen" stroke-width="2"/><rect x="1353.22" y="215.744680851064" width="100" height="768.51" fill="none" stroke="limegreen" stroke-width="2"/><rect x="1500.93" y="180" width="100" height="804.26" fill="none" stroke="limegreen" stroke-width="2"/><rect x="1648.64" y="215.744680851064" width="100" height="768.51" fill="none" stroke="limegreen" stroke-width="2"/><rect x="1796.35" y="305.106382978723" width="100" height="679.15" fill="none" stroke="limegreen" stroke-width="2"/> <rect x="466.96" y="984.255319148936" width="100" height="35.74" fill="none" stroke="limegreen" stroke-width="2"/> </g><g><text x="221.54" y="330.85" font-family="Consolas" font-size="48" text-anchor="middle" fill="white">3.6</text><text x="369.25" y="652.55" font-family="Consolas" font-size="48" text-anchor="middle" fill="white">1.8</text><text x="664.67" y="616.81" font-family="Consolas" font-size="48" text-anchor="middle" fill="white">2</text><text x="812.38" y="509.57" font-family="Consolas" font-size="48" text-anchor="middle" fill="white">2.6</text><text x="960.09" y="438.09" font-family="Consolas" font-size="48" text-anchor="middle" fill="white">3</text><text x="1107.8" y="348.72" font-family="Consolas" font-size="48" text-anchor="middle" fill="white">3.5</text><text x="1255.51" y="259.36" font-family="Consolas" font-size="48" text-anchor="middle" fill="white">4</text><text x="1403.22" y="205.74" font-family="Consolas" font-size="48" text-anchor="middle" fill="white">4.3</text><text x="1550.93" y="170" font-family="Consolas" font-size="48" text-anchor="middle" fill="white">4.5</text><text x="1698.64" y="205.74" font-family="Consolas" font-size="48" text-anchor="middle" fill="white">4.3</text><text x="1846.35" y="295.11" font-family="Consolas" font-size="48" text-anchor="middle" fill="white">3.8</text> <text x="466.96" y="1010" font-family="Consolas" font-size="48" ttext-anchor="middle" fill="white">-0.2</text></g><g><text x="231.54" y="999.255319148936" transform="rotate(270 221.54 984.255319148936)" font-family="Consolas" font-size="50" fill="limegreen">2018</text><text x="379.25" y="999.255319148936" transform="rotate(270 369.25 984.255319148936)" font-family="Consolas" font-size="50" fill="limegreen">2019</text><text x="526.96" y="999.255319148936" transform="rotate(270 516.96 984.255319148936)" font-family="Consolas" font-size="50" fill="limegreen">2020</text><text x="674.67" y="999.255319148936" transform="rotate(270 664.67 984.255319148936)" font-family="Consolas" font-size="50" fill="limegreen">2021</text><text x="822.38" y="999.255319148936" transform="rotate(270 812.38 984.255319148936)" font-family="Consolas" font-size="50" fill="limegreen">2022</text><text x="970.09" y="999.255319148936" transform="rotate(270 960.09 984.255319148936)" font-family="Consolas" font-size="50" fill="limegreen">2023</text><text x="1117.8" y="999.255319148936" transform="rotate(270 1107.8 984.255319148936)" font-family="Consolas" font-size="50" fill="limegreen">2024</text><text x="1265.51" y="999.255319148936" transform="rotate(270 1255.51 984.255319148936)" font-family="Consolas" font-size="50" fill="limegreen">2025</text><text x="1413.22" y="999.255319148936" transform="rotate(270 1403.22 984.255319148936)" font-family="Consolas" font-size="50" fill="limegreen">2026</text><text x="1560.93" y="999.255319148936" transform="rotate(270 1550.93 984.255319148936)" font-family="Consolas" font-size="50" fill="limegreen">2027</text><text x="1708.64" y="999.255319148936" transform="rotate(270 1698.64 984.255319148936)" font-family="Consolas" font-size="50" fill="limegreen">2028</text><text x="1856.35" y="999.255319148936" transform="rotate(270 1846.35 984.255319148936)" font-family="Consolas" font-size="50" fill="limegreen">2029</text></g></g></svg>
