<svg xmlns="http://www.w3.org/2000/svg" width="1920" height="1080"> <rect width="100%" height="100%" fill="#000"/><g xmlns="http://www.w3.org/2000/svg" transform="translate(0,0) scale(1.0)"> <text  x="1080" y="60" font-family="Consolas" font-size="52" text-anchor="middle" fill="white">REAL  GDP ANNUAL PERCENT CHANGE (2018-2029) [IMF DATA]</text><text  x="1700" y="1050" font-family="Consolas" font-size="22" text-anchor="middle" fill="white">DESIGNED BY ZOOMIT WORLD</text><image x="180" y="-50" width="280" height="280" href="https://cdn.jsdelivr.net/gh/hampusborgos/country-flags@main/svg/bs.svg"></image><text x="70" y="180" font-family="Consolas" font-size="50" text-anchor="middle" fill="white">7%</text><text x="70" y="369.139072847682" font-family="Consolas" font-size="50" text-anchor="middle" fill="white">3.5%</text><text x="70" y="558.278145695364" font-family="Consolas" font-size="50" text-anchor="middle" fill="white">0%</text><text x="70" y="789.139072847682" font-family="Consolas" font-size="50" text-anchor="middle" fill="white">-4%</text><text x="70" y="1020" font-family="Consolas" font-size="50" text-anchor="middle" fill="white">-8%</text><line  x1="141.54" y1="180" x2="141.54" y2="1020" stroke="white" stroke-width="2"/><line x1="141.54"  y1="558.278145695364" x2="1920" y2="558.278145695364" stroke="white" stroke-width="5"/><g><rect x="171.54" y="402.516556291391" width="100" height="155.76" fill="none" stroke="limegreen" stroke-width="2"/><rect x="319.25" y="408.079470198675" width="100" height="150.20" fill="none" stroke="limegreen" stroke-width="2"/><rect x="614.67" y="241.192052980132" width="100" height="317.09" fill="none" stroke="limegreen" stroke-width="2"/><rect x="762.38" y="180" width="100" height="378.28" fill="none" stroke="limegreen" stroke-width="2"/><rect x="910.09" y="430.331125827815" width="100" height="127.95" fill="none" stroke="limegreen" stroke-width="2"/><rect x="1057.8" y="452.582781456954" width="100" height="105.70" fill="none" stroke="limegreen" stroke-width="2"/><rect x="1205.51" y="430.331125827815" width="100" height="127.95" fill="none" stroke="limegreen" stroke-width="2"/><rect x="1353.22" y="447.019867549669" width="100" height="111.26" fill="none" stroke="limegreen" stroke-width="2"/><rect x="1500.93" y="452.582781456954" width="100" height="105.70" fill="none" stroke="limegreen" stroke-width="2"/><rect x="1648.64" y="452.582781456954" width="100" height="105.70" fill="none" stroke="limegreen" stroke-width="2"/><rect x="1796.35" y="452.582781456954" width="100" height="105.70" fill="none" stroke="limegreen" stroke-width="2"/> <rect x="466.96" y="558.278145695364" width="100" height="461.72" fill="none" stroke="limegreen" stroke-width="2"/> </g><g><text x="221.54" y="392.52" font-family="Consolas" font-size="48" text-anchor="middle" fill="white">2.8</text><text x="369.25" y="398.08" font-family="Consolas" font-size="48" text-anchor="middle" fill="white">2.7</text><text x="664.67" y="231.19" font-family="Consolas" font-size="48" text-anchor="middle" fill="white">5.7</text><text x="812.38" y="170" font-family="Consolas" font-size="48" text-anchor="middle" fill="white">6.8</text><text x="960.09" y="420.33" font-family="Consolas" font-size="48" text-anchor="middle" fill="white">2.3</text><text x="1107.8" y="442.58" font-family="Consolas" font-size="48" text-anchor="middle" fill="white">1.9</text><text x="1255.51" y="420.33" font-family="Consolas" font-size="48" text-anchor="middle" fill="white">2.3</text><text x="1403.22" y="437.02" font-family="Consolas" font-size="48" text-anchor="middle" fill="white">2</text><text x="1550.93" y="442.58" font-family="Consolas" font-size="48" text-anchor="middle" fill="white">1.9</text><text x="1698.64" y="442.58" font-family="Consolas" font-size="48" text-anchor="middle" fill="white">1.9</text><text x="1846.35" y="442.58" font-family="Consolas" font-size="48" text-anchor="middle" fill="white">1.9</text> <text x="466.96" y="1010" font-family="Consolas" font-size="48" ttext-anchor="middle" fill="white">-8.3</text></g><g><text x="231.54" y="573.278145695364" transform="rotate(270 221.54 558.278145695364)" font-family="Consolas" font-size="50" fill="limegreen">2018</text><text x="379.25" y="573.278145695364" transform="rotate(270 369.25 558.278145695364)" font-family="Consolas" font-size="50" fill="limegreen">2019</text><text x="526.96" y="573.278145695364" transform="rotate(270 516.96 558.278145695364)" font-family="Consolas" font-size="50" fill="limegreen">2020</text><text x="674.67" y="573.278145695364" transform="rotate(270 664.67 558.278145695364)" font-family="Consolas" font-size="50" fill="limegreen">2021</text><text x="822.38" y="573.278145695364" transform="rotate(270 812.38 558.278145695364)" font-family="Consolas" font-size="50" fill="limegreen">2022</text><text x="970.09" y="573.278145695364" transform="rotate(270 960.09 558.278145695364)" font-family="Consolas" font-size="50" fill="limegreen">2023</text><text x="1117.8" y="573.278145695364" transform="rotate(270 1107.8 558.278145695364)" font-family="Consolas" font-size="50" fill="limegreen">2024</text><text x="1265.51" y="573.278145695364" transform="rotate(270 1255.51 558.278145695364)" font-family="Consolas" font-size="50" fill="limegreen">2025</text><text x="1413.22" y="573.278145695364" transform="rotate(270 1403.22 558.278145695364)" font-family="Consolas" font-size="50" fill="limegreen">2026</text><text x="1560.93" y="573.278145695364" transform="rotate(270 1550.93 558.278145695364)" font-family="Consolas" font-size="50" fill="limegreen">2027</text><text x="1708.64" y="573.278145695364" transform="rotate(270 1698.64 558.278145695364)" font-family="Consolas" font-size="50" fill="limegreen">2028</text><text x="1856.35" y="573.278145695364" transform="rotate(270 1846.35 558.278145695364)" font-family="Consolas" font-size="50" fill="limegreen">2029</text></g></g></svg>
