<svg xmlns="http://www.w3.org/2000/svg" width="1920" height="1080"> <rect width="100%" height="100%" fill="#000"/><g xmlns="http://www.w3.org/2000/svg" transform="translate(0,0) scale(1.0)"> <text  x="1080" y="60" font-family="Consolas" font-size="52" text-anchor="middle" fill="white">REAL  GDP ANNUAL PERCENT CHANGE (2018-2029) [IMF DATA]</text><text  x="1700" y="1050" font-family="Consolas" font-size="22" text-anchor="middle" fill="white">DESIGNED BY ZOOMIT WORLD</text><image x="180" y="-50" width="280" height="280" href="https://cdn.jsdelivr.net/gh/hampusborgos/country-flags@main/svg/bs.svg"></image><text x="70" y="180" font-family="Consolas" font-size="50" text-anchor="middle" fill="white">6%</text><text x="70" y="477.721518987342" font-family="Consolas" font-size="50" text-anchor="middle" fill="white">3%</text><text x="70" y="775.443037974684" font-family="Consolas" font-size="50" text-anchor="middle" fill="white">0%</text><text x="70" y="897.721518987342" font-family="Consolas" font-size="50" text-anchor="middle" fill="white">-1%</text><text x="70" y="1020" font-family="Consolas" font-size="50" text-anchor="middle" fill="white">-2%</text><line  x1="141.54" y1="180" x2="141.54" y2="1020" stroke="white" stroke-width="2"/><line x1="141.54"  y1="775.443037974684" x2="1920" y2="775.443037974684" stroke="white" stroke-width="5"/><g><rect x="171.54" y="467.088607594937" width="100" height="308.35" fill="none" stroke="limegreen" stroke-width="2"/><rect x="319.25" y="647.848101265823" width="100" height="127.59" fill="none" stroke="limegreen" stroke-width="2"/><rect x="614.67" y="180" width="100" height="595.44" fill="none" stroke="limegreen" stroke-width="2"/><rect x="762.38" y="445.822784810127" width="100" height="329.62" fill="none" stroke="limegreen" stroke-width="2"/><rect x="910.09" y="701.012658227848" width="100" height="74.43" fill="none" stroke="limegreen" stroke-width="2"/><rect x="1057.8" y="637.215189873418" width="100" height="138.23" fill="none" stroke="limegreen" stroke-width="2"/><rect x="1205.51" y="637.215189873418" width="100" height="138.23" fill="none" stroke="limegreen" stroke-width="2"/><rect x="1353.22" y="584.050632911392" width="100" height="191.39" fill="none" stroke="limegreen" stroke-width="2"/><rect x="1500.93" y="647.848101265823" width="100" height="127.59" fill="none" stroke="limegreen" stroke-width="2"/><rect x="1648.64" y="584.050632911392" width="100" height="191.39" fill="none" stroke="limegreen" stroke-width="2"/><rect x="1796.35" y="647.848101265823" width="100" height="127.59" fill="none" stroke="limegreen" stroke-width="2"/> <rect x="466.96" y="775.443037974684" width="100" height="244.56" fill="none" stroke="limegreen" stroke-width="2"/> </g><g><text x="221.54" y="457.09" font-family="Consolas" font-size="48" text-anchor="middle" fill="white">2.9</text><text x="369.25" y="637.85" font-family="Consolas" font-size="48" text-anchor="middle" fill="white">1.2</text><text x="664.67" y="170" font-family="Consolas" font-size="48" text-anchor="middle" fill="white">5.6</text><text x="812.38" y="435.82" font-family="Consolas" font-size="48" text-anchor="middle" fill="white">3.1</text><text x="960.09" y="691.01" font-family="Consolas" font-size="48" text-anchor="middle" fill="white">0.7</text><text x="1107.8" y="627.22" font-family="Consolas" font-size="48" text-anchor="middle" fill="white">1.3</text><text x="1255.51" y="627.22" font-family="Consolas" font-size="48" text-anchor="middle" fill="white">1.3</text><text x="1403.22" y="574.05" font-family="Consolas" font-size="48" text-anchor="middle" fill="white">1.8</text><text x="1550.93" y="637.85" font-family="Consolas" font-size="48" text-anchor="middle" fill="white">1.2</text><text x="1698.64" y="574.05" font-family="Consolas" font-size="48" text-anchor="middle" fill="white">1.8</text><text x="1846.35" y="637.85" font-family="Consolas" font-size="48" text-anchor="middle" fill="white">1.2</text> <text x="466.96" y="1010" font-family="Consolas" font-size="48" ttext-anchor="middle" fill="white">-2.3</text></g><g><text x="231.54" y="790.443037974684" transform="rotate(270 221.54 775.443037974684)" font-family="Consolas" font-size="50" fill="limegreen">2018</text><text x="379.25" y="790.443037974684" transform="rotate(270 369.25 775.443037974684)" font-family="Consolas" font-size="50" fill="limegreen">2019</text><text x="526.96" y="790.443037974684" transform="rotate(270 516.96 775.443037974684)" font-family="Consolas" font-size="50" fill="limegreen">2020</text><text x="674.67" y="790.443037974684" transform="rotate(270 664.67 775.443037974684)" font-family="Consolas" font-size="50" fill="limegreen">2021</text><text x="822.38" y="790.443037974684" transform="rotate(270 812.38 775.443037974684)" font-family="Consolas" font-size="50" fill="limegreen">2022</text><text x="970.09" y="790.443037974684" transform="rotate(270 960.09 775.443037974684)" font-family="Consolas" font-size="50" fill="limegreen">2023</text><text x="1117.8" y="790.443037974684" transform="rotate(270 1107.8 775.443037974684)" font-family="Consolas" font-size="50" fill="limegreen">2024</text><text x="1265.51" y="790.443037974684" transform="rotate(270 1255.51 775.443037974684)" font-family="Consolas" font-size="50" fill="limegreen">2025</text><text x="1413.22" y="790.443037974684" transform="rotate(270 1403.22 775.443037974684)" font-family="Consolas" font-size="50" fill="limegreen">2026</text><text x="1560.93" y="790.443037974684" transform="rotate(270 1550.93 775.443037974684)" font-family="Consolas" font-size="50" fill="limegreen">2027</text><text x="1708.64" y="790.443037974684" transform="rotate(270 1698.64 775.443037974684)" font-family="Consolas" font-size="50" fill="limegreen">2028</text><text x="1856.35" y="790.443037974684" transform="rotate(270 1846.35 775.443037974684)" font-family="Consolas" font-size="50" fill="limegreen">2029</text></g></g></svg>
