<svg xmlns="http://www.w3.org/2000/svg" width="1920" height="1080"> <rect width="100%" height="100%" fill="#000"/><g xmlns="http://www.w3.org/2000/svg" transform="translate(0,0) scale(1.0)"> <text  x="1080" y="60" font-family="Consolas" font-size="52" text-anchor="middle" fill="white">REAL  GDP ANNUAL PERCENT CHANGE (2018-2029) [IMF DATA]</text><text  x="1780" y="1050" font-family="Consolas" font-size="32" text-anchor="middle" fill="white">ZOOMIT WORLD</text><image x="180" y="-50" width="280" height="280" href="https://cdn.jsdelivr.net/gh/hampusborgos/country-flags@main/svg/mg.svg"></image><text x="70" y="180" font-family="Consolas" font-size="50" text-anchor="middle" fill="white">6%</text><text x="70" y="367.03125" font-family="Consolas" font-size="50" text-anchor="middle" fill="white">3%</text><text x="70" y="554.0625" font-family="Consolas" font-size="50" text-anchor="middle" fill="white">0%</text><text x="70" y="787.03125" font-family="Consolas" font-size="50" text-anchor="middle" fill="white">-3.5%</text><text x="70" y="1020" font-family="Consolas" font-size="50" text-anchor="middle" fill="white">-7%</text><line  x1="141.54" y1="180" x2="141.54" y2="1020" stroke="white" stroke-width="2"/><line x1="141.54"  y1="554.0625" x2="1920" y2="554.0625" stroke="white" stroke-width="5"/><g><rect x="171.54" y="344.0625" width="100" height="210.00" fill="none" stroke="limegreen" stroke-width="2"/><rect x="319.25" y="265.3125" width="100" height="288.75" fill="none" stroke="limegreen" stroke-width="2"/><rect x="614.67" y="180" width="100" height="374.06" fill="none" stroke="limegreen" stroke-width="2"/><rect x="762.38" y="291.5625" width="100" height="262.50" fill="none" stroke="limegreen" stroke-width="2"/><rect x="910.09" y="304.6875" width="100" height="249.38" fill="none" stroke="limegreen" stroke-width="2"/><rect x="1057.8" y="258.75" width="100" height="295.31" fill="none" stroke="limegreen" stroke-width="2"/><rect x="1205.51" y="252.1875" width="100" height="301.88" fill="none" stroke="limegreen" stroke-width="2"/><rect x="1353.22" y="245.625" width="100" height="308.44" fill="none" stroke="limegreen" stroke-width="2"/><rect x="1500.93" y="239.0625" width="100" height="315.00" fill="none" stroke="limegreen" stroke-width="2"/><rect x="1648.64" y="225.9375" width="100" height="328.13" fill="none" stroke="limegreen" stroke-width="2"/><rect x="1796.35" y="225.9375" width="100" height="328.13" fill="none" stroke="limegreen" stroke-width="2"/> <rect x="466.96" y="554.0625" width="100" height="465.94" fill="none" stroke="limegreen" stroke-width="2"/> </g><g><text x="221.54" y="334.06" font-family="Consolas" font-size="48" text-anchor="middle" fill="white">3.2</text><text x="369.25" y="255.31" font-family="Consolas" font-size="48" text-anchor="middle" fill="white">4.4</text><text x="664.67" y="170" font-family="Consolas" font-size="48" text-anchor="middle" fill="white">5.7</text><text x="812.38" y="281.56" font-family="Consolas" font-size="48" text-anchor="middle" fill="white">4</text><text x="960.09" y="294.69" font-family="Consolas" font-size="48" text-anchor="middle" fill="white">3.8</text><text x="1107.8" y="248.75" font-family="Consolas" font-size="48" text-anchor="middle" fill="white">4.5</text><text x="1255.51" y="242.19" font-family="Consolas" font-size="48" text-anchor="middle" fill="white">4.6</text><text x="1403.22" y="235.63" font-family="Consolas" font-size="48" text-anchor="middle" fill="white">4.7</text><text x="1550.93" y="229.06" font-family="Consolas" font-size="48" text-anchor="middle" fill="white">4.8</text><text x="1698.64" y="215.94" font-family="Consolas" font-size="48" text-anchor="middle" fill="white">5</text><text x="1846.35" y="215.94" font-family="Consolas" font-size="48" text-anchor="middle" fill="white">5</text> <text x="466.96" y="1010" font-family="Consolas" font-size="48" ttext-anchor="middle" fill="white">-7.1</text></g><g><text x="231.54" y="569.0625" transform="rotate(270 221.54 554.0625)" font-family="Consolas" font-size="50" fill="limegreen">2018</text><text x="379.25" y="569.0625" transform="rotate(270 369.25 554.0625)" font-family="Consolas" font-size="50" fill="limegreen">2019</text><text x="526.96" y="569.0625" transform="rotate(270 516.96 554.0625)" font-family="Consolas" font-size="50" fill="limegreen">2020</text><text x="674.67" y="569.0625" transform="rotate(270 664.67 554.0625)" font-family="Consolas" font-size="50" fill="limegreen">2021</text><text x="822.38" y="569.0625" transform="rotate(270 812.38 554.0625)" font-family="Consolas" font-size="50" fill="limegreen">2022</text><text x="970.09" y="569.0625" transform="rotate(270 960.09 554.0625)" font-family="Consolas" font-size="50" fill="limegreen">2023</text><text x="1117.8" y="569.0625" transform="rotate(270 1107.8 554.0625)" font-family="Consolas" font-size="50" fill="limegreen">2024</text><text x="1265.51" y="569.0625" transform="rotate(270 1255.51 554.0625)" font-family="Consolas" font-size="50" fill="limegreen">2025</text><text x="1413.22" y="569.0625" transform="rotate(270 1403.22 554.0625)" font-family="Consolas" font-size="50" fill="limegreen">2026</text><text x="1560.93" y="569.0625" transform="rotate(270 1550.93 554.0625)" font-family="Consolas" font-size="50" fill="limegreen">2027</text><text x="1708.64" y="569.0625" transform="rotate(270 1698.64 554.0625)" font-family="Consolas" font-size="50" fill="limegreen">2028</text><text x="1856.35" y="569.0625" transform="rotate(270 1846.35 554.0625)" font-family="Consolas" font-size="50" fill="limegreen">2029</text></g></g></svg>
