<svg xmlns="http://www.w3.org/2000/svg" width="1920" height="1080"> <rect width="100%" height="100%" fill="#000"/><g xmlns="http://www.w3.org/2000/svg" transform="translate(0,0) scale(1.0)"> <text  x="1080" y="60" font-family="Consolas" font-size="52" text-anchor="middle" fill="white">REAL  GDP ANNUAL PERCENT CHANGE (2018-2029) [IMF DATA]</text><text  x="1780" y="1050" font-family="Consolas" font-size="32" text-anchor="middle" fill="white">ZOOMIT WORLD</text><image x="180" y="-50" width="280" height="280" href="https://cdn.jsdelivr.net/gh/hampusborgos/country-flags@main/svg/lr.svg"></image><text x="70" y="180" font-family="Consolas" font-size="50" text-anchor="middle" fill="white">6%</text><text x="70" y="460" font-family="Consolas" font-size="50" text-anchor="middle" fill="white">3%</text><text x="70" y="740" font-family="Consolas" font-size="50" text-anchor="middle" fill="white">0%</text><text x="70" y="880" font-family="Consolas" font-size="50" text-anchor="middle" fill="white">-1.5%</text><text x="70" y="1020" font-family="Consolas" font-size="50" text-anchor="middle" fill="white">-3%</text><line  x1="141.54" y1="180" x2="141.54" y2="1020" stroke="white" stroke-width="2"/><line x1="141.54"  y1="740" x2="1920" y2="740" stroke="white" stroke-width="5"/><g><rect x="171.54" y="628" width="100" height="112.00" fill="none" stroke="limegreen" stroke-width="2"/><rect x="614.67" y="273.333333333333" width="100" height="466.67" fill="none" stroke="limegreen" stroke-width="2"/><rect x="762.38" y="292" width="100" height="448.00" fill="none" stroke="limegreen" stroke-width="2"/><rect x="910.09" y="310.666666666667" width="100" height="429.33" fill="none" stroke="limegreen" stroke-width="2"/><rect x="1057.8" y="264" width="100" height="476.00" fill="none" stroke="limegreen" stroke-width="2"/><rect x="1205.51" y="198.666666666667" width="100" height="541.33" fill="none" stroke="limegreen" stroke-width="2"/><rect x="1353.22" y="189.333333333333" width="100" height="550.67" fill="none" stroke="limegreen" stroke-width="2"/><rect x="1500.93" y="180" width="100" height="560.00" fill="none" stroke="limegreen" stroke-width="2"/><rect x="1648.64" y="180" width="100" height="560.00" fill="none" stroke="limegreen" stroke-width="2"/><rect x="1796.35" y="180" width="100" height="560.00" fill="none" stroke="limegreen" stroke-width="2"/> <rect x="319.25" y="740" width="100" height="233.33" fill="none" stroke="limegreen" stroke-width="2"/><rect x="466.96" y="740" width="100" height="280.00" fill="none" stroke="limegreen" stroke-width="2"/> </g><g><text x="221.54" y="618" font-family="Consolas" font-size="48" text-anchor="middle" fill="white">1.2</text><text x="664.67" y="263.33" font-family="Consolas" font-size="48" text-anchor="middle" fill="white">5</text><text x="812.38" y="282" font-family="Consolas" font-size="48" text-anchor="middle" fill="white">4.8</text><text x="960.09" y="300.67" font-family="Consolas" font-size="48" text-anchor="middle" fill="white">4.6</text><text x="1107.8" y="254" font-family="Consolas" font-size="48" text-anchor="middle" fill="white">5.1</text><text x="1255.51" y="188.67" font-family="Consolas" font-size="48" text-anchor="middle" fill="white">5.8</text><text x="1403.22" y="179.33" font-family="Consolas" font-size="48" text-anchor="middle" fill="white">5.9</text><text x="1550.93" y="170" font-family="Consolas" font-size="48" text-anchor="middle" fill="white">6</text><text x="1698.64" y="170" font-family="Consolas" font-size="48" text-anchor="middle" fill="white">6</text><text x="1846.35" y="170" font-family="Consolas" font-size="48" text-anchor="middle" fill="white">6</text> <text x="319.25" y="963.333333333333" font-family="Consolas" font-size="48" ttext-anchor="middle" fill="white">-2.5</text><text x="466.96" y="1010" font-family="Consolas" font-size="48" ttext-anchor="middle" fill="white">-3</text></g><g><text x="231.54" y="755" transform="rotate(270 221.54 740)" font-family="Consolas" font-size="50" fill="limegreen">2018</text><text x="379.25" y="755" transform="rotate(270 369.25 740)" font-family="Consolas" font-size="50" fill="limegreen">2019</text><text x="526.96" y="755" transform="rotate(270 516.96 740)" font-family="Consolas" font-size="50" fill="limegreen">2020</text><text x="674.67" y="755" transform="rotate(270 664.67 740)" font-family="Consolas" font-size="50" fill="limegreen">2021</text><text x="822.38" y="755" transform="rotate(270 812.38 740)" font-family="Consolas" font-size="50" fill="limegreen">2022</text><text x="970.09" y="755" transform="rotate(270 960.09 740)" font-family="Consolas" font-size="50" fill="limegreen">2023</text><text x="1117.8" y="755" transform="rotate(270 1107.8 740)" font-family="Consolas" font-size="50" fill="limegreen">2024</text><text x="1265.51" y="755" transform="rotate(270 1255.51 740)" font-family="Consolas" font-size="50" fill="limegreen">2025</text><text x="1413.22" y="755" transform="rotate(270 1403.22 740)" font-family="Consolas" font-size="50" fill="limegreen">2026</text><text x="1560.93" y="755" transform="rotate(270 1550.93 740)" font-family="Consolas" font-size="50" fill="limegreen">2027</text><text x="1708.64" y="755" transform="rotate(270 1698.64 740)" font-family="Consolas" font-size="50" fill="limegreen">2028</text><text x="1856.35" y="755" transform="rotate(270 1846.35 740)" font-family="Consolas" font-size="50" fill="limegreen">2029</text></g></g></svg>
