<svg xmlns="http://www.w3.org/2000/svg" width="1920" height="1080"> <rect width="100%" height="100%" fill="#000"/><g xmlns="http://www.w3.org/2000/svg" transform="translate(0,0) scale(1.0)"> <text  x="1080" y="60" font-family="Consolas" font-size="52" text-anchor="middle" fill="white">REAL  GDP ANNUAL PERCENT CHANGE (2018-2029) [IMF DATA]</text><text  x="1780" y="1050" font-family="Consolas" font-size="32" text-anchor="middle" fill="white">ZOOMIT WORLD</text><image x="180" y="-50" width="280" height="280" href="https://cdn.jsdelivr.net/gh/hampusborgos/country-flags@main/svg/kw.svg"></image><text x="70" y="180" font-family="Consolas" font-size="50" text-anchor="middle" fill="white">6%</text><text x="70" y="411.588785046729" font-family="Consolas" font-size="50" text-anchor="middle" fill="white">3%</text><text x="70" y="643.177570093458" font-family="Consolas" font-size="50" text-anchor="middle" fill="white">0%</text><text x="70" y="831.588785046729" font-family="Consolas" font-size="50" text-anchor="middle" fill="white">-2.5%</text><text x="70" y="1020" font-family="Consolas" font-size="50" text-anchor="middle" fill="white">-5%</text><line  x1="141.54" y1="180" x2="141.54" y2="1020" stroke="white" stroke-width="2"/><line x1="141.54"  y1="643.177570093458" x2="1920" y2="643.177570093458" stroke="white" stroke-width="5"/><g><rect x="171.54" y="431.214953271028" width="100" height="211.96" fill="none" stroke="limegreen" stroke-width="2"/><rect x="319.25" y="462.616822429907" width="100" height="180.56" fill="none" stroke="limegreen" stroke-width="2"/><rect x="614.67" y="462.616822429907" width="100" height="180.56" fill="none" stroke="limegreen" stroke-width="2"/><rect x="762.38" y="180" width="100" height="463.18" fill="none" stroke="limegreen" stroke-width="2"/><rect x="1205.51" y="384.11214953271" width="100" height="259.07" fill="none" stroke="limegreen" stroke-width="2"/><rect x="1353.22" y="446.915887850467" width="100" height="196.26" fill="none" stroke="limegreen" stroke-width="2"/><rect x="1500.93" y="439.065420560748" width="100" height="204.11" fill="none" stroke="limegreen" stroke-width="2"/><rect x="1648.64" y="439.065420560748" width="100" height="204.11" fill="none" stroke="limegreen" stroke-width="2"/><rect x="1796.35" y="439.065420560748" width="100" height="204.11" fill="none" stroke="limegreen" stroke-width="2"/> <rect x="466.96" y="643.177570093458" width="100" height="376.82" fill="none" stroke="limegreen" stroke-width="2"/><rect x="910.09" y="643.177570093458" width="100" height="282.62" fill="none" stroke="limegreen" stroke-width="2"/><rect x="1057.8" y="643.177570093458" width="100" height="211.96" fill="none" stroke="limegreen" stroke-width="2"/> </g><g><text x="221.54" y="421.21" font-family="Consolas" font-size="48" text-anchor="middle" fill="white">2.7</text><text x="369.25" y="452.62" font-family="Consolas" font-size="48" text-anchor="middle" fill="white">2.3</text><text x="664.67" y="452.62" font-family="Consolas" font-size="48" text-anchor="middle" fill="white">2.3</text><text x="812.38" y="170" font-family="Consolas" font-size="48" text-anchor="middle" fill="white">5.9</text><text x="1255.51" y="374.11" font-family="Consolas" font-size="48" text-anchor="middle" fill="white">3.3</text><text x="1403.22" y="436.92" font-family="Consolas" font-size="48" text-anchor="middle" fill="white">2.5</text><text x="1550.93" y="429.07" font-family="Consolas" font-size="48" text-anchor="middle" fill="white">2.6</text><text x="1698.64" y="429.07" font-family="Consolas" font-size="48" text-anchor="middle" fill="white">2.6</text><text x="1846.35" y="429.07" font-family="Consolas" font-size="48" text-anchor="middle" fill="white">2.6</text> <text x="466.96" y="1010" font-family="Consolas" font-size="48" ttext-anchor="middle" fill="white">-4.8</text><text x="910.09" y="915.794392523365" font-family="Consolas" font-size="48" ttext-anchor="middle" fill="white">-3.6</text><text x="1057.8" y="845.140186915888" font-family="Consolas" font-size="48" ttext-anchor="middle" fill="white">-2.7</text></g><g><text x="231.54" y="658.177570093458" transform="rotate(270 221.54 643.177570093458)" font-family="Consolas" font-size="50" fill="limegreen">2018</text><text x="379.25" y="658.177570093458" transform="rotate(270 369.25 643.177570093458)" font-family="Consolas" font-size="50" fill="limegreen">2019</text><text x="526.96" y="658.177570093458" transform="rotate(270 516.96 643.177570093458)" font-family="Consolas" font-size="50" fill="limegreen">2020</text><text x="674.67" y="658.177570093458" transform="rotate(270 664.67 643.177570093458)" font-family="Consolas" font-size="50" fill="limegreen">2021</text><text x="822.38" y="658.177570093458" transform="rotate(270 812.38 643.177570093458)" font-family="Consolas" font-size="50" fill="limegreen">2022</text><text x="970.09" y="658.177570093458" transform="rotate(270 960.09 643.177570093458)" font-family="Consolas" font-size="50" fill="limegreen">2023</text><text x="1117.8" y="658.177570093458" transform="rotate(270 1107.8 643.177570093458)" font-family="Consolas" font-size="50" fill="limegreen">2024</text><text x="1265.51" y="658.177570093458" transform="rotate(270 1255.51 643.177570093458)" font-family="Consolas" font-size="50" fill="limegreen">2025</text><text x="1413.22" y="658.177570093458" transform="rotate(270 1403.22 643.177570093458)" font-family="Consolas" font-size="50" fill="limegreen">2026</text><text x="1560.93" y="658.177570093458" transform="rotate(270 1550.93 643.177570093458)" font-family="Consolas" font-size="50" fill="limegreen">2027</text><text x="1708.64" y="658.177570093458" transform="rotate(270 1698.64 643.177570093458)" font-family="Consolas" font-size="50" fill="limegreen">2028</text><text x="1856.35" y="658.177570093458" transform="rotate(270 1846.35 643.177570093458)" font-family="Consolas" font-size="50" fill="limegreen">2029</text></g></g></svg>
