<svg xmlns="http://www.w3.org/2000/svg" width="1920" height="1080"> <rect width="100%" height="100%" fill="#000"/><g xmlns="http://www.w3.org/2000/svg" transform="translate(0,0) scale(1.0)"> <text  x="1080" y="60" font-family="Consolas" font-size="52" text-anchor="middle" fill="white">REAL  GDP ANNUAL PERCENT CHANGE (2018-2029) [IMF DATA]</text><text  x="1700" y="1050" font-family="Consolas" font-size="22" text-anchor="middle" fill="white">DESIGNED BY ZOOMIT WORLD</text><image x="180" y="-50" width="280" height="280" href="https://cdn.jsdelivr.net/gh/hampusborgos/country-flags@main/svg/bs.svg"></image><text x="70" y="180" font-family="Consolas" font-size="50" text-anchor="middle" fill="white">9%</text><text x="70" y="548.041237113402" font-family="Consolas" font-size="50" text-anchor="middle" fill="white">4.5%</text><text x="70" y="916.082474226804" font-family="Consolas" font-size="50" text-anchor="middle" fill="white">0%</text><text x="70" y="968.041237113402" font-family="Consolas" font-size="50" text-anchor="middle" fill="white">-0.5%</text><text x="70" y="1020" font-family="Consolas" font-size="50" text-anchor="middle" fill="white">-1%</text><line  x1="141.54" y1="180" x2="141.54" y2="1020" stroke="white" stroke-width="2"/><line x1="141.54"  y1="916.082474226804" x2="1920" y2="916.082474226804" stroke="white" stroke-width="5"/><g><rect x="319.25" y="180" width="100" height="736.08" fill="none" stroke="limegreen" stroke-width="2"/><rect x="466.96" y="742.886597938144" width="100" height="173.20" fill="none" stroke="limegreen" stroke-width="2"/><rect x="614.67" y="292.577319587629" width="100" height="623.51" fill="none" stroke="limegreen" stroke-width="2"/><rect x="762.38" y="656.288659793815" width="100" height="259.79" fill="none" stroke="limegreen" stroke-width="2"/><rect x="910.09" y="864.123711340206" width="100" height="51.96" fill="none" stroke="limegreen" stroke-width="2"/><rect x="1057.8" y="786.185567010309" width="100" height="129.90" fill="none" stroke="limegreen" stroke-width="2"/><rect x="1205.51" y="794.845360824742" width="100" height="121.24" fill="none" stroke="limegreen" stroke-width="2"/><rect x="1353.22" y="777.525773195876" width="100" height="138.56" fill="none" stroke="limegreen" stroke-width="2"/><rect x="1500.93" y="777.525773195876" width="100" height="138.56" fill="none" stroke="limegreen" stroke-width="2"/><rect x="1648.64" y="846.80412371134" width="100" height="69.28" fill="none" stroke="limegreen" stroke-width="2"/><rect x="1796.35" y="760.20618556701" width="100" height="155.88" fill="none" stroke="limegreen" stroke-width="2"/> <rect x="171.54" y="916.082474226804" width="100" height="103.92" fill="none" stroke="limegreen" stroke-width="2"/> </g><g><text x="369.25" y="170" font-family="Consolas" font-size="48" text-anchor="middle" fill="white">8.5</text><text x="516.96" y="732.89" font-family="Consolas" font-size="48" text-anchor="middle" fill="white">2</text><text x="664.67" y="282.58" font-family="Consolas" font-size="48" text-anchor="middle" fill="white">7.2</text><text x="812.38" y="646.29" font-family="Consolas" font-size="48" text-anchor="middle" fill="white">3</text><text x="960.09" y="854.12" font-family="Consolas" font-size="48" text-anchor="middle" fill="white">0.6</text><text x="1107.8" y="776.19" font-family="Consolas" font-size="48" text-anchor="middle" fill="white">1.5</text><text x="1255.51" y="784.85" font-family="Consolas" font-size="48" text-anchor="middle" fill="white">1.4</text><text x="1403.22" y="767.53" font-family="Consolas" font-size="48" text-anchor="middle" fill="white">1.6</text><text x="1550.93" y="767.53" font-family="Consolas" font-size="48" text-anchor="middle" fill="white">1.6</text><text x="1698.64" y="836.8" font-family="Consolas" font-size="48" text-anchor="middle" fill="white">0.8</text><text x="1846.35" y="750.21" font-family="Consolas" font-size="48" text-anchor="middle" fill="white">1.8</text> <text x="171.54" y="1010" font-family="Consolas" font-size="48" ttext-anchor="middle" fill="white">-1.2</text></g><g><text x="231.54" y="931.082474226804" transform="rotate(270 221.54 916.082474226804)" font-family="Consolas" font-size="50" fill="limegreen">2018</text><text x="379.25" y="931.082474226804" transform="rotate(270 369.25 916.082474226804)" font-family="Consolas" font-size="50" fill="limegreen">2019</text><text x="526.96" y="931.082474226804" transform="rotate(270 516.96 916.082474226804)" font-family="Consolas" font-size="50" fill="limegreen">2020</text><text x="674.67" y="931.082474226804" transform="rotate(270 664.67 916.082474226804)" font-family="Consolas" font-size="50" fill="limegreen">2021</text><text x="822.38" y="931.082474226804" transform="rotate(270 812.38 916.082474226804)" font-family="Consolas" font-size="50" fill="limegreen">2022</text><text x="970.09" y="931.082474226804" transform="rotate(270 960.09 916.082474226804)" font-family="Consolas" font-size="50" fill="limegreen">2023</text><text x="1117.8" y="931.082474226804" transform="rotate(270 1107.8 916.082474226804)" font-family="Consolas" font-size="50" fill="limegreen">2024</text><text x="1265.51" y="931.082474226804" transform="rotate(270 1255.51 916.082474226804)" font-family="Consolas" font-size="50" fill="limegreen">2025</text><text x="1413.22" y="931.082474226804" transform="rotate(270 1403.22 916.082474226804)" font-family="Consolas" font-size="50" fill="limegreen">2026</text><text x="1560.93" y="931.082474226804" transform="rotate(270 1550.93 916.082474226804)" font-family="Consolas" font-size="50" fill="limegreen">2027</text><text x="1708.64" y="931.082474226804" transform="rotate(270 1698.64 916.082474226804)" font-family="Consolas" font-size="50" fill="limegreen">2028</text><text x="1856.35" y="931.082474226804" transform="rotate(270 1846.35 916.082474226804)" font-family="Consolas" font-size="50" fill="limegreen">2029</text></g></g></svg>
