<svg xmlns="http://www.w3.org/2000/svg" width="1920" height="1080"> <rect width="100%" height="100%" fill="#000"/><g xmlns="http://www.w3.org/2000/svg" transform="translate(0,0) scale(1.0)"> <text  x="1080" y="60" font-family="Consolas" font-size="52" text-anchor="middle" fill="white">REAL  GDP ANNUAL PERCENT CHANGE (2018-2029) [IMF DATA]</text><text  x="1700" y="1050" font-family="Consolas" font-size="22" text-anchor="middle" fill="white">DESIGNED BY ZOOMIT WORLD</text><image x="180" y="-50" width="280" height="280" href="https://cdn.jsdelivr.net/gh/hampusborgos/country-flags@main/svg/bs.svg"></image><text x="70" y="180" font-family="Consolas" font-size="50" text-anchor="middle" fill="white">6%</text><text x="70" y="495" font-family="Consolas" font-size="50" text-anchor="middle" fill="white">3%</text><text x="70" y="810" font-family="Consolas" font-size="50" text-anchor="middle" fill="white">0%</text><text x="70" y="915" font-family="Consolas" font-size="50" text-anchor="middle" fill="white">1%</text><text x="70" y="1020" font-family="Consolas" font-size="50" text-anchor="middle" fill="white">2%</text><line  x1="141.54" y1="180" x2="141.54" y2="1020" stroke="white" stroke-width="2"/><line x1="141.54"  y1="810" x2="1920" y2="810" stroke="white" stroke-width="5"/><g><rect x="171.54" y="306" width="100" height="504.00" fill="none" stroke="limegreen" stroke-width="2"/><rect x="319.25" y="295.5" width="100" height="514.50" fill="none" stroke="limegreen" stroke-width="2"/><rect x="466.96" y="600" width="100" height="210.00" fill="none" stroke="limegreen" stroke-width="2"/><rect x="614.67" y="180" width="100" height="630.00" fill="none" stroke="limegreen" stroke-width="2"/><rect x="762.38" y="201" width="100" height="609.00" fill="none" stroke="limegreen" stroke-width="2"/><rect x="910.09" y="222" width="100" height="588.00" fill="none" stroke="limegreen" stroke-width="2"/><rect x="1057.8" y="253.5" width="100" height="556.50" fill="none" stroke="limegreen" stroke-width="2"/><rect x="1205.51" y="253.5" width="100" height="556.50" fill="none" stroke="limegreen" stroke-width="2"/><rect x="1353.22" y="232.5" width="100" height="577.50" fill="none" stroke="limegreen" stroke-width="2"/><rect x="1500.93" y="232.5" width="100" height="577.50" fill="none" stroke="limegreen" stroke-width="2"/><rect x="1648.64" y="232.5" width="100" height="577.50" fill="none" stroke="limegreen" stroke-width="2"/><rect x="1796.35" y="232.5" width="100" height="577.50" fill="none" stroke="limegreen" stroke-width="2"/>  </g><g><text x="221.54" y="296" font-family="Consolas" font-size="48" text-anchor="middle" fill="white">4.8</text><text x="369.25" y="285.5" font-family="Consolas" font-size="48" text-anchor="middle" fill="white">4.9</text><text x="516.96" y="590" font-family="Consolas" font-size="48" text-anchor="middle" fill="white">2</text><text x="664.67" y="170" font-family="Consolas" font-size="48" text-anchor="middle" fill="white">6</text><text x="812.38" y="191" font-family="Consolas" font-size="48" text-anchor="middle" fill="white">5.8</text><text x="960.09" y="212" font-family="Consolas" font-size="48" text-anchor="middle" fill="white">5.6</text><text x="1107.8" y="243.5" font-family="Consolas" font-size="48" text-anchor="middle" fill="white">5.3</text><text x="1255.51" y="243.5" font-family="Consolas" font-size="48" text-anchor="middle" fill="white">5.3</text><text x="1403.22" y="222.5" font-family="Consolas" font-size="48" text-anchor="middle" fill="white">5.5</text><text x="1550.93" y="222.5" font-family="Consolas" font-size="48" text-anchor="middle" fill="white">5.5</text><text x="1698.64" y="222.5" font-family="Consolas" font-size="48" text-anchor="middle" fill="white">5.5</text><text x="1846.35" y="222.5" font-family="Consolas" font-size="48" text-anchor="middle" fill="white">5.5</text> </g><g><text x="231.54" y="825" transform="rotate(270 221.54 810)" font-family="Consolas" font-size="50" fill="limegreen">2018</text><text x="379.25" y="825" transform="rotate(270 369.25 810)" font-family="Consolas" font-size="50" fill="limegreen">2019</text><text x="526.96" y="825" transform="rotate(270 516.96 810)" font-family="Consolas" font-size="50" fill="limegreen">2020</text><text x="674.67" y="825" transform="rotate(270 664.67 810)" font-family="Consolas" font-size="50" fill="limegreen">2021</text><text x="822.38" y="825" transform="rotate(270 812.38 810)" font-family="Consolas" font-size="50" fill="limegreen">2022</text><text x="970.09" y="825" transform="rotate(270 960.09 810)" font-family="Consolas" font-size="50" fill="limegreen">2023</text><text x="1117.8" y="825" transform="rotate(270 1107.8 810)" font-family="Consolas" font-size="50" fill="limegreen">2024</text><text x="1265.51" y="825" transform="rotate(270 1255.51 810)" font-family="Consolas" font-size="50" fill="limegreen">2025</text><text x="1413.22" y="825" transform="rotate(270 1403.22 810)" font-family="Consolas" font-size="50" fill="limegreen">2026</text><text x="1560.93" y="825" transform="rotate(270 1550.93 810)" font-family="Consolas" font-size="50" fill="limegreen">2027</text><text x="1708.64" y="825" transform="rotate(270 1698.64 810)" font-family="Consolas" font-size="50" fill="limegreen">2028</text><text x="1856.35" y="825" transform="rotate(270 1846.35 810)" font-family="Consolas" font-size="50" fill="limegreen">2029</text></g></g></svg>
