<svg xmlns="http://www.w3.org/2000/svg" width="1920" height="1080"> <rect width="100%" height="100%" fill="#000"/><g xmlns="http://www.w3.org/2000/svg" transform="translate(0,0) scale(1.0)"> <text  x="1080" y="60" font-family="Consolas" font-size="52" text-anchor="middle" fill="white">REAL  GDP ANNUAL PERCENT CHANGE (2018-2029) [IMF DATA]</text><text  x="1700" y="1050" font-family="Consolas" font-size="22" text-anchor="middle" fill="white">DESIGNED BY ZOOMIT WORLD</text><image x="180" y="-50" width="280" height="280" href="https://cdn.jsdelivr.net/gh/hampusborgos/country-flags@main/svg/bs.svg"></image><text x="70" y="180" font-family="Consolas" font-size="50" text-anchor="middle" fill="white">7%</text><text x="70" y="468" font-family="Consolas" font-size="50" text-anchor="middle" fill="white">3.5%</text><text x="70" y="756" font-family="Consolas" font-size="50" text-anchor="middle" fill="white">0%</text><text x="70" y="888" font-family="Consolas" font-size="50" text-anchor="middle" fill="white">-1.5%</text><text x="70" y="1020" font-family="Consolas" font-size="50" text-anchor="middle" fill="white">-3%</text><line  x1="141.54" y1="180" x2="141.54" y2="1020" stroke="white" stroke-width="2"/><line x1="141.54"  y1="756" x2="1920" y2="756" stroke="white" stroke-width="5"/><g><rect x="171.54" y="476" width="100" height="280.00" fill="none" stroke="limegreen" stroke-width="2"/><rect x="319.25" y="388" width="100" height="368.00" fill="none" stroke="limegreen" stroke-width="2"/><rect x="762.38" y="372" width="100" height="384.00" fill="none" stroke="limegreen" stroke-width="2"/><rect x="910.09" y="356" width="100" height="400.00" fill="none" stroke="limegreen" stroke-width="2"/><rect x="1057.8" y="340" width="100" height="416.00" fill="none" stroke="limegreen" stroke-width="2"/><rect x="1205.51" y="180" width="100" height="576.00" fill="none" stroke="limegreen" stroke-width="2"/><rect x="1353.22" y="244" width="100" height="512.00" fill="none" stroke="limegreen" stroke-width="2"/><rect x="1500.93" y="340" width="100" height="416.00" fill="none" stroke="limegreen" stroke-width="2"/><rect x="1648.64" y="308" width="100" height="448.00" fill="none" stroke="limegreen" stroke-width="2"/><rect x="1796.35" y="180" width="100" height="576.00" fill="none" stroke="limegreen" stroke-width="2"/> <rect x="466.96" y="756" width="100" height="200.00" fill="none" stroke="limegreen" stroke-width="2"/><rect x="614.67" y="756" width="100" height="264.00" fill="none" stroke="limegreen" stroke-width="2"/> </g><g><text x="221.54" y="466" font-family="Consolas" font-size="48" text-anchor="middle" fill="white">3.5</text><text x="369.25" y="378" font-family="Consolas" font-size="48" text-anchor="middle" fill="white">4.6</text><text x="812.38" y="362" font-family="Consolas" font-size="48" text-anchor="middle" fill="white">4.8</text><text x="960.09" y="346" font-family="Consolas" font-size="48" text-anchor="middle" fill="white">5</text><text x="1107.8" y="330" font-family="Consolas" font-size="48" text-anchor="middle" fill="white">5.2</text><text x="1255.51" y="170" font-family="Consolas" font-size="48" text-anchor="middle" fill="white">7.2</text><text x="1403.22" y="234" font-family="Consolas" font-size="48" text-anchor="middle" fill="white">6.4</text><text x="1550.93" y="330" font-family="Consolas" font-size="48" text-anchor="middle" fill="white">5.2</text><text x="1698.64" y="298" font-family="Consolas" font-size="48" text-anchor="middle" fill="white">5.6</text><text x="1846.35" y="170" font-family="Consolas" font-size="48" text-anchor="middle" fill="white">7.2</text> <text x="466.96" y="946" font-family="Consolas" font-size="48" ttext-anchor="middle" fill="white">-2.5</text><text x="614.67" y="1010" font-family="Consolas" font-size="48" ttext-anchor="middle" fill="white">-3.3</text></g><g><text x="231.54" y="771" transform="rotate(270 221.54 756)" font-family="Consolas" font-size="50" fill="limegreen">2018</text><text x="379.25" y="771" transform="rotate(270 369.25 756)" font-family="Consolas" font-size="50" fill="limegreen">2019</text><text x="526.96" y="771" transform="rotate(270 516.96 756)" font-family="Consolas" font-size="50" fill="limegreen">2020</text><text x="674.67" y="771" transform="rotate(270 664.67 756)" font-family="Consolas" font-size="50" fill="limegreen">2021</text><text x="822.38" y="771" transform="rotate(270 812.38 756)" font-family="Consolas" font-size="50" fill="limegreen">2022</text><text x="970.09" y="771" transform="rotate(270 960.09 756)" font-family="Consolas" font-size="50" fill="limegreen">2023</text><text x="1117.8" y="771" transform="rotate(270 1107.8 756)" font-family="Consolas" font-size="50" fill="limegreen">2024</text><text x="1265.51" y="771" transform="rotate(270 1255.51 756)" font-family="Consolas" font-size="50" fill="limegreen">2025</text><text x="1413.22" y="771" transform="rotate(270 1403.22 756)" font-family="Consolas" font-size="50" fill="limegreen">2026</text><text x="1560.93" y="771" transform="rotate(270 1550.93 756)" font-family="Consolas" font-size="50" fill="limegreen">2027</text><text x="1708.64" y="771" transform="rotate(270 1698.64 756)" font-family="Consolas" font-size="50" fill="limegreen">2028</text><text x="1856.35" y="771" transform="rotate(270 1846.35 756)" font-family="Consolas" font-size="50" fill="limegreen">2029</text></g></g></svg>
