<svg xmlns="http://www.w3.org/2000/svg" width="1920" height="1080"> <rect width="100%" height="100%" fill="#000"/><g xmlns="http://www.w3.org/2000/svg" transform="translate(0,0) scale(1.0)"> <text  x="1080" y="60" font-family="Consolas" font-size="52" text-anchor="middle" fill="white">REAL  GDP ANNUAL PERCENT CHANGE (2018-2029) [IMF DATA]</text><text  x="1780" y="1050" font-family="Consolas" font-size="32" text-anchor="middle" fill="white">ZOOMIT WORLD</text><image x="180" y="-50" width="280" height="280" href="https://cdn.jsdelivr.net/gh/hampusborgos/country-flags@main/svg/pg.svg"></image><text x="70" y="180" font-family="Consolas" font-size="50" text-anchor="middle" fill="white">5%</text><text x="70" y="440" font-family="Consolas" font-size="50" text-anchor="middle" fill="white">2.5%</text><text x="70" y="700" font-family="Consolas" font-size="50" text-anchor="middle" fill="white">0%</text><text x="70" y="860" font-family="Consolas" font-size="50" text-anchor="middle" fill="white">-1.5%</text><text x="70" y="1020" font-family="Consolas" font-size="50" text-anchor="middle" fill="white">-3%</text><line  x1="141.54" y1="180" x2="141.54" y2="1020" stroke="white" stroke-width="2"/><line x1="141.54"  y1="700" x2="1920" y2="700" stroke="white" stroke-width="5"/><g><rect x="319.25" y="250" width="100" height="450.00" fill="none" stroke="limegreen" stroke-width="2"/><rect x="762.38" y="180" width="100" height="520.00" fill="none" stroke="limegreen" stroke-width="2"/><rect x="910.09" y="410" width="100" height="290.00" fill="none" stroke="limegreen" stroke-width="2"/><rect x="1057.8" y="240" width="100" height="460.00" fill="none" stroke="limegreen" stroke-width="2"/><rect x="1205.51" y="330" width="100" height="370.00" fill="none" stroke="limegreen" stroke-width="2"/><rect x="1353.22" y="360" width="100" height="340.00" fill="none" stroke="limegreen" stroke-width="2"/><rect x="1500.93" y="400" width="100" height="300.00" fill="none" stroke="limegreen" stroke-width="2"/><rect x="1648.64" y="390" width="100" height="310.00" fill="none" stroke="limegreen" stroke-width="2"/><rect x="1796.35" y="390" width="100" height="310.00" fill="none" stroke="limegreen" stroke-width="2"/> <rect x="171.54" y="700" width="100" height="30.00" fill="none" stroke="limegreen" stroke-width="2"/><rect x="466.96" y="700" width="100" height="320.00" fill="none" stroke="limegreen" stroke-width="2"/><rect x="614.67" y="700" width="100" height="80.00" fill="none" stroke="limegreen" stroke-width="2"/> </g><g><text x="369.25" y="240" font-family="Consolas" font-size="48" text-anchor="middle" fill="white">4.5</text><text x="812.38" y="170" font-family="Consolas" font-size="48" text-anchor="middle" fill="white">5.2</text><text x="960.09" y="400" font-family="Consolas" font-size="48" text-anchor="middle" fill="white">2.9</text><text x="1107.8" y="230" font-family="Consolas" font-size="48" text-anchor="middle" fill="white">4.6</text><text x="1255.51" y="320" font-family="Consolas" font-size="48" text-anchor="middle" fill="white">3.7</text><text x="1403.22" y="350" font-family="Consolas" font-size="48" text-anchor="middle" fill="white">3.4</text><text x="1550.93" y="390" font-family="Consolas" font-size="48" text-anchor="middle" fill="white">3</text><text x="1698.64" y="380" font-family="Consolas" font-size="48" text-anchor="middle" fill="white">3.1</text><text x="1846.35" y="380" font-family="Consolas" font-size="48" text-anchor="middle" fill="white">3.1</text> <text x="171.54" y="720" font-family="Consolas" font-size="48" ttext-anchor="middle" fill="white">-0.3</text><text x="466.96" y="1010" font-family="Consolas" font-size="48" ttext-anchor="middle" fill="white">-3.2</text><text x="614.67" y="770" font-family="Consolas" font-size="48" ttext-anchor="middle" fill="white">-0.8</text></g><g><text x="231.54" y="715" transform="rotate(270 221.54 700)" font-family="Consolas" font-size="50" fill="limegreen">2018</text><text x="379.25" y="715" transform="rotate(270 369.25 700)" font-family="Consolas" font-size="50" fill="limegreen">2019</text><text x="526.96" y="715" transform="rotate(270 516.96 700)" font-family="Consolas" font-size="50" fill="limegreen">2020</text><text x="674.67" y="715" transform="rotate(270 664.67 700)" font-family="Consolas" font-size="50" fill="limegreen">2021</text><text x="822.38" y="715" transform="rotate(270 812.38 700)" font-family="Consolas" font-size="50" fill="limegreen">2022</text><text x="970.09" y="715" transform="rotate(270 960.09 700)" font-family="Consolas" font-size="50" fill="limegreen">2023</text><text x="1117.8" y="715" transform="rotate(270 1107.8 700)" font-family="Consolas" font-size="50" fill="limegreen">2024</text><text x="1265.51" y="715" transform="rotate(270 1255.51 700)" font-family="Consolas" font-size="50" fill="limegreen">2025</text><text x="1413.22" y="715" transform="rotate(270 1403.22 700)" font-family="Consolas" font-size="50" fill="limegreen">2026</text><text x="1560.93" y="715" transform="rotate(270 1550.93 700)" font-family="Consolas" font-size="50" fill="limegreen">2027</text><text x="1708.64" y="715" transform="rotate(270 1698.64 700)" font-family="Consolas" font-size="50" fill="limegreen">2028</text><text x="1856.35" y="715" transform="rotate(270 1846.35 700)" font-family="Consolas" font-size="50" fill="limegreen">2029</text></g></g></svg>
