<svg xmlns="http://www.w3.org/2000/svg" width="1920" height="1080"> <rect width="100%" height="100%" fill="#000"/><g xmlns="http://www.w3.org/2000/svg" transform="translate(0,0) scale(1.0)"> <text  x="1080" y="60" font-family="Consolas" font-size="52" text-anchor="middle" fill="white">REAL  GDP ANNUAL PERCENT CHANGE (2018-2029) [IMF DATA]</text><text  x="1780" y="1050" font-family="Consolas" font-size="32" text-anchor="middle" fill="white">ZOOMIT WORLD</text><image x="180" y="-50" width="280" height="280" href="https://cdn.jsdelivr.net/gh/hampusborgos/country-flags@main/svg/td.svg"></image><text x="70" y="180" font-family="Consolas" font-size="50" text-anchor="middle" fill="white">7%</text><text x="70" y="498.620689655172" font-family="Consolas" font-size="50" text-anchor="middle" fill="white">3.5%</text><text x="70" y="817.241379310345" font-family="Consolas" font-size="50" text-anchor="middle" fill="white">0%</text><text x="70" y="918.620689655172" font-family="Consolas" font-size="50" text-anchor="middle" fill="white">-1%</text><text x="70" y="1020" font-family="Consolas" font-size="50" text-anchor="middle" fill="white">-2%</text><line  x1="141.54" y1="180" x2="141.54" y2="1020" stroke="white" stroke-width="2"/><line x1="141.54"  y1="817.241379310345" x2="1920" y2="817.241379310345" stroke="white" stroke-width="5"/><g><rect x="171.54" y="247.586206896552" width="100" height="569.66" fill="none" stroke="limegreen" stroke-width="2"/><rect x="319.25" y="180" width="100" height="637.24" fill="none" stroke="limegreen" stroke-width="2"/><rect x="762.38" y="469.655172413793" width="100" height="347.59" fill="none" stroke="limegreen" stroke-width="2"/><rect x="910.09" y="344.137931034483" width="100" height="473.10" fill="none" stroke="limegreen" stroke-width="2"/><rect x="1057.8" y="508.275862068966" width="100" height="308.97" fill="none" stroke="limegreen" stroke-width="2"/><rect x="1205.51" y="450.344827586207" width="100" height="366.90" fill="none" stroke="limegreen" stroke-width="2"/><rect x="1353.22" y="460" width="100" height="357.24" fill="none" stroke="limegreen" stroke-width="2"/><rect x="1500.93" y="498.620689655172" width="100" height="318.62" fill="none" stroke="limegreen" stroke-width="2"/><rect x="1648.64" y="508.275862068966" width="100" height="308.97" fill="none" stroke="limegreen" stroke-width="2"/><rect x="1796.35" y="517.931034482759" width="100" height="299.31" fill="none" stroke="limegreen" stroke-width="2"/> <rect x="466.96" y="817.241379310345" width="100" height="202.76" fill="none" stroke="limegreen" stroke-width="2"/><rect x="614.67" y="817.241379310345" width="100" height="86.90" fill="none" stroke="limegreen" stroke-width="2"/> </g><g><text x="221.54" y="237.59" font-family="Consolas" font-size="48" text-anchor="middle" fill="white">5.9</text><text x="369.25" y="170" font-family="Consolas" font-size="48" text-anchor="middle" fill="white">6.6</text><text x="812.38" y="459.66" font-family="Consolas" font-size="48" text-anchor="middle" fill="white">3.6</text><text x="960.09" y="334.14" font-family="Consolas" font-size="48" text-anchor="middle" fill="white">4.9</text><text x="1107.8" y="498.28" font-family="Consolas" font-size="48" text-anchor="middle" fill="white">3.2</text><text x="1255.51" y="440.34" font-family="Consolas" font-size="48" text-anchor="middle" fill="white">3.8</text><text x="1403.22" y="450" font-family="Consolas" font-size="48" text-anchor="middle" fill="white">3.7</text><text x="1550.93" y="488.62" font-family="Consolas" font-size="48" text-anchor="middle" fill="white">3.3</text><text x="1698.64" y="498.28" font-family="Consolas" font-size="48" text-anchor="middle" fill="white">3.2</text><text x="1846.35" y="507.93" font-family="Consolas" font-size="48" text-anchor="middle" fill="white">3.1</text> <text x="466.96" y="1010" font-family="Consolas" font-size="48" ttext-anchor="middle" fill="white">-2.1</text><text x="614.67" y="894.137931034483" font-family="Consolas" font-size="48" ttext-anchor="middle" fill="white">-0.9</text></g><g><text x="231.54" y="832.241379310345" transform="rotate(270 221.54 817.241379310345)" font-family="Consolas" font-size="50" fill="limegreen">2018</text><text x="379.25" y="832.241379310345" transform="rotate(270 369.25 817.241379310345)" font-family="Consolas" font-size="50" fill="limegreen">2019</text><text x="526.96" y="832.241379310345" transform="rotate(270 516.96 817.241379310345)" font-family="Consolas" font-size="50" fill="limegreen">2020</text><text x="674.67" y="832.241379310345" transform="rotate(270 664.67 817.241379310345)" font-family="Consolas" font-size="50" fill="limegreen">2021</text><text x="822.38" y="832.241379310345" transform="rotate(270 812.38 817.241379310345)" font-family="Consolas" font-size="50" fill="limegreen">2022</text><text x="970.09" y="832.241379310345" transform="rotate(270 960.09 817.241379310345)" font-family="Consolas" font-size="50" fill="limegreen">2023</text><text x="1117.8" y="832.241379310345" transform="rotate(270 1107.8 817.241379310345)" font-family="Consolas" font-size="50" fill="limegreen">2024</text><text x="1265.51" y="832.241379310345" transform="rotate(270 1255.51 817.241379310345)" font-family="Consolas" font-size="50" fill="limegreen">2025</text><text x="1413.22" y="832.241379310345" transform="rotate(270 1403.22 817.241379310345)" font-family="Consolas" font-size="50" fill="limegreen">2026</text><text x="1560.93" y="832.241379310345" transform="rotate(270 1550.93 817.241379310345)" font-family="Consolas" font-size="50" fill="limegreen">2027</text><text x="1708.64" y="832.241379310345" transform="rotate(270 1698.64 817.241379310345)" font-family="Consolas" font-size="50" fill="limegreen">2028</text><text x="1856.35" y="832.241379310345" transform="rotate(270 1846.35 817.241379310345)" font-family="Consolas" font-size="50" fill="limegreen">2029</text></g></g></svg>
