<svg xmlns="http://www.w3.org/2000/svg" width="1920" height="1080"> <rect width="100%" height="100%" fill="#000"/><g xmlns="http://www.w3.org/2000/svg" transform="translate(0,0) scale(1.0)"> <text  x="1080" y="60" font-family="Consolas" font-size="52" text-anchor="middle" fill="white">REAL  GDP ANNUAL PERCENT CHANGE (2018-2029) [IMF DATA]</text><text  x="1700" y="1050" font-family="Consolas" font-size="22" text-anchor="middle" fill="white">DESIGNED BY ZOOMIT WORLD</text><image x="180" y="-50" width="280" height="280" href="https://cdn.jsdelivr.net/gh/hampusborgos/country-flags@main/svg/bs.svg"></image><text x="70" y="180" font-family="Consolas" font-size="50" text-anchor="middle" fill="white">7%</text><text x="70" y="530.886075949367" font-family="Consolas" font-size="50" text-anchor="middle" fill="white">3.5%</text><text x="70" y="881.772151898734" font-family="Consolas" font-size="50" text-anchor="middle" fill="white">0%</text><text x="70" y="950.886075949367" font-family="Consolas" font-size="50" text-anchor="middle" fill="white">0.5%</text><text x="70" y="1020" font-family="Consolas" font-size="50" text-anchor="middle" fill="white">1%</text><line  x1="141.54" y1="180" x2="141.54" y2="1020" stroke="white" stroke-width="2"/><line x1="141.54"  y1="881.772151898734" x2="1920" y2="881.772151898734" stroke="white" stroke-width="5"/><g><rect x="171.54" y="584.050632911392" width="100" height="297.72" fill="none" stroke="limegreen" stroke-width="2"/><rect x="319.25" y="552.151898734177" width="100" height="329.62" fill="none" stroke="limegreen" stroke-width="2"/><rect x="466.96" y="520.253164556962" width="100" height="361.52" fill="none" stroke="limegreen" stroke-width="2"/><rect x="614.67" y="180" width="100" height="701.77" fill="none" stroke="limegreen" stroke-width="2"/><rect x="762.38" y="605.316455696202" width="100" height="276.46" fill="none" stroke="limegreen" stroke-width="2"/><rect x="910.09" y="743.544303797468" width="100" height="138.23" fill="none" stroke="limegreen" stroke-width="2"/><rect x="1057.8" y="488.354430379747" width="100" height="393.42" fill="none" stroke="limegreen" stroke-width="2"/><rect x="1205.51" y="594.683544303797" width="100" height="287.09" fill="none" stroke="limegreen" stroke-width="2"/><rect x="1353.22" y="605.316455696202" width="100" height="276.46" fill="none" stroke="limegreen" stroke-width="2"/><rect x="1500.93" y="615.949367088607" width="100" height="265.82" fill="none" stroke="limegreen" stroke-width="2"/><rect x="1648.64" y="615.949367088607" width="100" height="265.82" fill="none" stroke="limegreen" stroke-width="2"/><rect x="1796.35" y="658.481012658228" width="100" height="223.29" fill="none" stroke="limegreen" stroke-width="2"/>  </g><g><text x="221.54" y="574.05" font-family="Consolas" font-size="48" text-anchor="middle" fill="white">2.8</text><text x="369.25" y="542.15" font-family="Consolas" font-size="48" text-anchor="middle" fill="white">3.1</text><text x="516.96" y="510.25" font-family="Consolas" font-size="48" text-anchor="middle" fill="white">3.4</text><text x="664.67" y="170" font-family="Consolas" font-size="48" text-anchor="middle" fill="white">6.6</text><text x="812.38" y="595.32" font-family="Consolas" font-size="48" text-anchor="middle" fill="white">2.6</text><text x="960.09" y="733.54" font-family="Consolas" font-size="48" text-anchor="middle" fill="white">1.3</text><text x="1107.8" y="478.35" font-family="Consolas" font-size="48" text-anchor="middle" fill="white">3.7</text><text x="1255.51" y="584.68" font-family="Consolas" font-size="48" text-anchor="middle" fill="white">2.7</text><text x="1403.22" y="595.32" font-family="Consolas" font-size="48" text-anchor="middle" fill="white">2.6</text><text x="1550.93" y="605.95" font-family="Consolas" font-size="48" text-anchor="middle" fill="white">2.5</text><text x="1698.64" y="605.95" font-family="Consolas" font-size="48" text-anchor="middle" fill="white">2.5</text><text x="1846.35" y="648.48" font-family="Consolas" font-size="48" text-anchor="middle" fill="white">2.1</text> </g><g><text x="231.54" y="896.772151898734" transform="rotate(270 221.54 881.772151898734)" font-family="Consolas" font-size="50" fill="limegreen">2018</text><text x="379.25" y="896.772151898734" transform="rotate(270 369.25 881.772151898734)" font-family="Consolas" font-size="50" fill="limegreen">2019</text><text x="526.96" y="896.772151898734" transform="rotate(270 516.96 881.772151898734)" font-family="Consolas" font-size="50" fill="limegreen">2020</text><text x="674.67" y="896.772151898734" transform="rotate(270 664.67 881.772151898734)" font-family="Consolas" font-size="50" fill="limegreen">2021</text><text x="822.38" y="896.772151898734" transform="rotate(270 812.38 881.772151898734)" font-family="Consolas" font-size="50" fill="limegreen">2022</text><text x="970.09" y="896.772151898734" transform="rotate(270 960.09 881.772151898734)" font-family="Consolas" font-size="50" fill="limegreen">2023</text><text x="1117.8" y="896.772151898734" transform="rotate(270 1107.8 881.772151898734)" font-family="Consolas" font-size="50" fill="limegreen">2024</text><text x="1265.51" y="896.772151898734" transform="rotate(270 1255.51 881.772151898734)" font-family="Consolas" font-size="50" fill="limegreen">2025</text><text x="1413.22" y="896.772151898734" transform="rotate(270 1403.22 881.772151898734)" font-family="Consolas" font-size="50" fill="limegreen">2026</text><text x="1560.93" y="896.772151898734" transform="rotate(270 1550.93 881.772151898734)" font-family="Consolas" font-size="50" fill="limegreen">2027</text><text x="1708.64" y="896.772151898734" transform="rotate(270 1698.64 881.772151898734)" font-family="Consolas" font-size="50" fill="limegreen">2028</text><text x="1856.35" y="896.772151898734" transform="rotate(270 1846.35 881.772151898734)" font-family="Consolas" font-size="50" fill="limegreen">2029</text></g></g></svg>
