<svg xmlns="http://www.w3.org/2000/svg" width="1920" height="1080"> <rect width="100%" height="100%" fill="#000"/><g xmlns="http://www.w3.org/2000/svg" transform="translate(0,0) scale(1.0)"> <text  x="1080" y="60" font-family="Consolas" font-size="52" text-anchor="middle" fill="white">REAL  GDP ANNUAL PERCENT CHANGE (2018-2029) [IMF DATA]</text><text  x="1700" y="1050" font-family="Consolas" font-size="22" text-anchor="middle" fill="white">DESIGNED BY ZOOMIT WORLD</text><image x="180" y="-50" width="280" height="280" href="https://cdn.jsdelivr.net/gh/hampusborgos/country-flags@main/svg/bs.svg"></image><text x="70" y="180" font-family="Consolas" font-size="50" text-anchor="middle" fill="white">11%</text><text x="70" y="452.758620689655" font-family="Consolas" font-size="50" text-anchor="middle" fill="white">5.5%</text><text x="70" y="725.51724137931" font-family="Consolas" font-size="50" text-anchor="middle" fill="white">0%</text><text x="70" y="872.758620689655" font-family="Consolas" font-size="50" text-anchor="middle" fill="white">-3%</text><text x="70" y="1020" font-family="Consolas" font-size="50" text-anchor="middle" fill="white">-6%</text><line  x1="141.54" y1="180" x2="141.54" y2="1020" stroke="white" stroke-width="2"/><line x1="141.54"  y1="725.51724137931" x2="1920" y2="725.51724137931" stroke="white" stroke-width="5"/><g><rect x="171.54" y="532.413793103448" width="100" height="193.10" fill="none" stroke="limegreen" stroke-width="2"/><rect x="319.25" y="696.551724137931" width="100" height="28.97" fill="none" stroke="limegreen" stroke-width="2"/><rect x="614.67" y="180" width="100" height="545.52" fill="none" stroke="limegreen" stroke-width="2"/><rect x="762.38" y="624.137931034483" width="100" height="101.38" fill="none" stroke="limegreen" stroke-width="2"/><rect x="910.09" y="715.862068965517" width="100" height="09.66" fill="none" stroke="limegreen" stroke-width="2"/><rect x="1057.8" y="604.827586206897" width="100" height="120.69" fill="none" stroke="limegreen" stroke-width="2"/><rect x="1205.51" y="609.655172413793" width="100" height="115.86" fill="none" stroke="limegreen" stroke-width="2"/><rect x="1353.22" y="604.827586206897" width="100" height="120.69" fill="none" stroke="limegreen" stroke-width="2"/><rect x="1500.93" y="609.655172413793" width="100" height="115.86" fill="none" stroke="limegreen" stroke-width="2"/><rect x="1648.64" y="614.48275862069" width="100" height="111.03" fill="none" stroke="limegreen" stroke-width="2"/><rect x="1796.35" y="614.48275862069" width="100" height="111.03" fill="none" stroke="limegreen" stroke-width="2"/> <rect x="466.96" y="725.51724137931" width="100" height="294.48" fill="none" stroke="limegreen" stroke-width="2"/> </g><g><text x="221.54" y="522.41" font-family="Consolas" font-size="48" text-anchor="middle" fill="white">4</text><text x="369.25" y="686.55" font-family="Consolas" font-size="48" text-anchor="middle" fill="white">0.6</text><text x="664.67" y="170" font-family="Consolas" font-size="48" text-anchor="middle" fill="white">11.3</text><text x="812.38" y="614.14" font-family="Consolas" font-size="48" text-anchor="middle" fill="white">2.1</text><text x="960.09" y="705.86" font-family="Consolas" font-size="48" text-anchor="middle" fill="white">0.2</text><text x="1107.8" y="594.83" font-family="Consolas" font-size="48" text-anchor="middle" fill="white">2.5</text><text x="1255.51" y="599.66" font-family="Consolas" font-size="48" text-anchor="middle" fill="white">2.4</text><text x="1403.22" y="594.83" font-family="Consolas" font-size="48" text-anchor="middle" fill="white">2.5</text><text x="1550.93" y="599.66" font-family="Consolas" font-size="48" text-anchor="middle" fill="white">2.4</text><text x="1698.64" y="604.48" font-family="Consolas" font-size="48" text-anchor="middle" fill="white">2.3</text><text x="1846.35" y="604.48" font-family="Consolas" font-size="48" text-anchor="middle" fill="white">2.3</text> <text x="466.96" y="1010" font-family="Consolas" font-size="48" ttext-anchor="middle" fill="white">-6.1</text></g><g><text x="231.54" y="740.51724137931" transform="rotate(270 221.54 725.51724137931)" font-family="Consolas" font-size="50" fill="limegreen">2018</text><text x="379.25" y="740.51724137931" transform="rotate(270 369.25 725.51724137931)" font-family="Consolas" font-size="50" fill="limegreen">2019</text><text x="526.96" y="740.51724137931" transform="rotate(270 516.96 725.51724137931)" font-family="Consolas" font-size="50" fill="limegreen">2020</text><text x="674.67" y="740.51724137931" transform="rotate(270 664.67 725.51724137931)" font-family="Consolas" font-size="50" fill="limegreen">2021</text><text x="822.38" y="740.51724137931" transform="rotate(270 812.38 725.51724137931)" font-family="Consolas" font-size="50" fill="limegreen">2022</text><text x="970.09" y="740.51724137931" transform="rotate(270 960.09 725.51724137931)" font-family="Consolas" font-size="50" fill="limegreen">2023</text><text x="1117.8" y="740.51724137931" transform="rotate(270 1107.8 725.51724137931)" font-family="Consolas" font-size="50" fill="limegreen">2024</text><text x="1265.51" y="740.51724137931" transform="rotate(270 1255.51 725.51724137931)" font-family="Consolas" font-size="50" fill="limegreen">2025</text><text x="1413.22" y="740.51724137931" transform="rotate(270 1403.22 725.51724137931)" font-family="Consolas" font-size="50" fill="limegreen">2026</text><text x="1560.93" y="740.51724137931" transform="rotate(270 1550.93 725.51724137931)" font-family="Consolas" font-size="50" fill="limegreen">2027</text><text x="1708.64" y="740.51724137931" transform="rotate(270 1698.64 725.51724137931)" font-family="Consolas" font-size="50" fill="limegreen">2028</text><text x="1856.35" y="740.51724137931" transform="rotate(270 1846.35 725.51724137931)" font-family="Consolas" font-size="50" fill="limegreen">2029</text></g></g></svg>
