<svg xmlns="http://www.w3.org/2000/svg" width="1920" height="1080"> <rect width="100%" height="100%" fill="#000"/><g xmlns="http://www.w3.org/2000/svg" transform="translate(0,0) scale(1.0)"> <text  x="1080" y="60" font-family="Consolas" font-size="52" text-anchor="middle" fill="white">REAL  GDP ANNUAL PERCENT CHANGE (2018-2029) [IMF DATA]</text><text  x="1700" y="1050" font-family="Consolas" font-size="22" text-anchor="middle" fill="white">DESIGNED BY ZOOMIT WORLD</text><image x="180" y="-50" width="280" height="280" href="https://cdn.jsdelivr.net/gh/hampusborgos/country-flags@main/svg/bs.svg"></image><text x="70" y="180" font-family="Consolas" font-size="50" text-anchor="middle" fill="white">20%</text><text x="70" y="405.978260869565" font-family="Consolas" font-size="50" text-anchor="middle" fill="white">10%</text><text x="70" y="631.95652173913" font-family="Consolas" font-size="50" text-anchor="middle" fill="white">0%</text><text x="70" y="825.978260869565" font-family="Consolas" font-size="50" text-anchor="middle" fill="white">-8.5%</text><text x="70" y="1020" font-family="Consolas" font-size="50" text-anchor="middle" fill="white">-17%</text><line  x1="141.54" y1="180" x2="141.54" y2="1020" stroke="white" stroke-width="2"/><line x1="141.54"  y1="631.95652173913" x2="1920" y2="631.95652173913" stroke="white" stroke-width="5"/><g><rect x="171.54" y="545.217391304348" width="100" height="86.74" fill="none" stroke="limegreen" stroke-width="2"/><rect x="762.38" y="180" width="100" height="451.96" fill="none" stroke="limegreen" stroke-width="2"/><rect x="910.09" y="460.760869565217" width="100" height="171.20" fill="none" stroke="limegreen" stroke-width="2"/><rect x="1057.8" y="563.478260869565" width="100" height="68.48" fill="none" stroke="limegreen" stroke-width="2"/><rect x="1205.51" y="554.347826086957" width="100" height="77.61" fill="none" stroke="limegreen" stroke-width="2"/><rect x="1353.22" y="554.347826086957" width="100" height="77.61" fill="none" stroke="limegreen" stroke-width="2"/><rect x="1500.93" y="556.630434782609" width="100" height="75.33" fill="none" stroke="limegreen" stroke-width="2"/><rect x="1648.64" y="556.630434782609" width="100" height="75.33" fill="none" stroke="limegreen" stroke-width="2"/><rect x="1796.35" y="561.195652173913" width="100" height="70.76" fill="none" stroke="limegreen" stroke-width="2"/> <rect x="319.25" y="631.95652173913" width="100" height="13.70" fill="none" stroke="limegreen" stroke-width="2"/><rect x="466.96" y="631.95652173913" width="100" height="388.04" fill="none" stroke="limegreen" stroke-width="2"/><rect x="614.67" y="631.95652173913" width="100" height="111.85" fill="none" stroke="limegreen" stroke-width="2"/> </g><g><text x="221.54" y="535.22" font-family="Consolas" font-size="48" text-anchor="middle" fill="white">3.8</text><text x="812.38" y="170" font-family="Consolas" font-size="48" text-anchor="middle" fill="white">19.8</text><text x="960.09" y="450.76" font-family="Consolas" font-size="48" text-anchor="middle" fill="white">7.5</text><text x="1107.8" y="553.48" font-family="Consolas" font-size="48" text-anchor="middle" fill="white">3</text><text x="1255.51" y="544.35" font-family="Consolas" font-size="48" text-anchor="middle" fill="white">3.4</text><text x="1403.22" y="544.35" font-family="Consolas" font-size="48" text-anchor="middle" fill="white">3.4</text><text x="1550.93" y="546.63" font-family="Consolas" font-size="48" text-anchor="middle" fill="white">3.3</text><text x="1698.64" y="546.63" font-family="Consolas" font-size="48" text-anchor="middle" fill="white">3.3</text><text x="1846.35" y="551.2" font-family="Consolas" font-size="48" text-anchor="middle" fill="white">3.1</text> <text x="319.25" y="635.652173913043" font-family="Consolas" font-size="48" ttext-anchor="middle" fill="white">-0.6</text><text x="466.96" y="1010" font-family="Consolas" font-size="48" ttext-anchor="middle" fill="white">-17</text><text x="614.67" y="733.804347826087" font-family="Consolas" font-size="48" ttext-anchor="middle" fill="white">-4.9</text></g><g><text x="231.54" y="646.95652173913" transform="rotate(270 221.54 631.95652173913)" font-family="Consolas" font-size="50" fill="limegreen">2018</text><text x="379.25" y="646.95652173913" transform="rotate(270 369.25 631.95652173913)" font-family="Consolas" font-size="50" fill="limegreen">2019</text><text x="526.96" y="646.95652173913" transform="rotate(270 516.96 631.95652173913)" font-family="Consolas" font-size="50" fill="limegreen">2020</text><text x="674.67" y="646.95652173913" transform="rotate(270 664.67 631.95652173913)" font-family="Consolas" font-size="50" fill="limegreen">2021</text><text x="822.38" y="646.95652173913" transform="rotate(270 812.38 631.95652173913)" font-family="Consolas" font-size="50" fill="limegreen">2022</text><text x="970.09" y="646.95652173913" transform="rotate(270 960.09 631.95652173913)" font-family="Consolas" font-size="50" fill="limegreen">2023</text><text x="1117.8" y="646.95652173913" transform="rotate(270 1107.8 631.95652173913)" font-family="Consolas" font-size="50" fill="limegreen">2024</text><text x="1265.51" y="646.95652173913" transform="rotate(270 1255.51 631.95652173913)" font-family="Consolas" font-size="50" fill="limegreen">2025</text><text x="1413.22" y="646.95652173913" transform="rotate(270 1403.22 631.95652173913)" font-family="Consolas" font-size="50" fill="limegreen">2026</text><text x="1560.93" y="646.95652173913" transform="rotate(270 1550.93 631.95652173913)" font-family="Consolas" font-size="50" fill="limegreen">2027</text><text x="1708.64" y="646.95652173913" transform="rotate(270 1698.64 631.95652173913)" font-family="Consolas" font-size="50" fill="limegreen">2028</text><text x="1856.35" y="646.95652173913" transform="rotate(270 1846.35 631.95652173913)" font-family="Consolas" font-size="50" fill="limegreen">2029</text></g></g></svg>
