<svg xmlns="http://www.w3.org/2000/svg" width="1920" height="1080"> <rect width="100%" height="100%" fill="#000"/><g xmlns="http://www.w3.org/2000/svg" transform="translate(0,0) scale(1.0)"> <text  x="1080" y="60" font-family="Consolas" font-size="52" text-anchor="middle" fill="white">REAL  GDP ANNUAL PERCENT CHANGE (2018-2029) [IMF DATA]</text><text  x="1700" y="1050" font-family="Consolas" font-size="22" text-anchor="middle" fill="white">DESIGNED BY ZOOMIT WORLD</text><image x="180" y="-50" width="280" height="280" href="https://cdn.jsdelivr.net/gh/hampusborgos/country-flags@main/svg/bs.svg"></image><text x="70" y="180" font-family="Consolas" font-size="50" text-anchor="middle" fill="white">3%</text><text x="70" y="380.307692307692" font-family="Consolas" font-size="50" text-anchor="middle" fill="white">1.5%</text><text x="70" y="580.615384615385" font-family="Consolas" font-size="50" text-anchor="middle" fill="white">0%</text><text x="70" y="800.307692307692" font-family="Consolas" font-size="50" text-anchor="middle" fill="white">-1.5%</text><text x="70" y="1020" font-family="Consolas" font-size="50" text-anchor="middle" fill="white">-3%</text><line  x1="141.54" y1="180" x2="141.54" y2="1020" stroke="white" stroke-width="2"/><line x1="141.54"  y1="580.615384615385" x2="1920" y2="580.615384615385" stroke="white" stroke-width="5"/><g><rect x="171.54" y="231.692307692308" width="100" height="348.92" fill="none" stroke="limegreen" stroke-width="2"/><rect x="319.25" y="360.923076923077" width="100" height="219.69" fill="none" stroke="limegreen" stroke-width="2"/><rect x="614.67" y="244.615384615385" width="100" height="336.00" fill="none" stroke="limegreen" stroke-width="2"/><rect x="762.38" y="270.461538461539" width="100" height="310.15" fill="none" stroke="limegreen" stroke-width="2"/><rect x="910.09" y="180" width="100" height="400.62" fill="none" stroke="limegreen" stroke-width="2"/><rect x="1057.8" y="283.384615384615" width="100" height="297.23" fill="none" stroke="limegreen" stroke-width="2"/><rect x="1205.51" y="257.538461538462" width="100" height="323.08" fill="none" stroke="limegreen" stroke-width="2"/><rect x="1353.22" y="244.615384615385" width="100" height="336.00" fill="none" stroke="limegreen" stroke-width="2"/><rect x="1500.93" y="192.923076923077" width="100" height="387.69" fill="none" stroke="limegreen" stroke-width="2"/><rect x="1648.64" y="192.923076923077" width="100" height="387.69" fill="none" stroke="limegreen" stroke-width="2"/><rect x="1796.35" y="192.923076923077" width="100" height="387.69" fill="none" stroke="limegreen" stroke-width="2"/> <rect x="466.96" y="580.615384615385" width="100" height="439.38" fill="none" stroke="limegreen" stroke-width="2"/> </g><g><text x="221.54" y="221.69" font-family="Consolas" font-size="48" text-anchor="middle" fill="white">2.7</text><text x="369.25" y="350.92" font-family="Consolas" font-size="48" text-anchor="middle" fill="white">1.7</text><text x="664.67" y="234.62" font-family="Consolas" font-size="48" text-anchor="middle" fill="white">2.6</text><text x="812.38" y="260.46" font-family="Consolas" font-size="48" text-anchor="middle" fill="white">2.4</text><text x="960.09" y="170" font-family="Consolas" font-size="48" text-anchor="middle" fill="white">3.1</text><text x="1107.8" y="273.38" font-family="Consolas" font-size="48" text-anchor="middle" fill="white">2.3</text><text x="1255.51" y="247.54" font-family="Consolas" font-size="48" text-anchor="middle" fill="white">2.5</text><text x="1403.22" y="234.62" font-family="Consolas" font-size="48" text-anchor="middle" fill="white">2.6</text><text x="1550.93" y="182.92" font-family="Consolas" font-size="48" text-anchor="middle" fill="white">3</text><text x="1698.64" y="182.92" font-family="Consolas" font-size="48" text-anchor="middle" fill="white">3</text><text x="1846.35" y="182.92" font-family="Consolas" font-size="48" text-anchor="middle" fill="white">3</text> <text x="466.96" y="1010" font-family="Consolas" font-size="48" ttext-anchor="middle" fill="white">-3.4</text></g><g><text x="231.54" y="595.615384615385" transform="rotate(270 221.54 580.615384615385)" font-family="Consolas" font-size="50" fill="limegreen">2018</text><text x="379.25" y="595.615384615385" transform="rotate(270 369.25 580.615384615385)" font-family="Consolas" font-size="50" fill="limegreen">2019</text><text x="526.96" y="595.615384615385" transform="rotate(270 516.96 580.615384615385)" font-family="Consolas" font-size="50" fill="limegreen">2020</text><text x="674.67" y="595.615384615385" transform="rotate(270 664.67 580.615384615385)" font-family="Consolas" font-size="50" fill="limegreen">2021</text><text x="822.38" y="595.615384615385" transform="rotate(270 812.38 580.615384615385)" font-family="Consolas" font-size="50" fill="limegreen">2022</text><text x="970.09" y="595.615384615385" transform="rotate(270 960.09 580.615384615385)" font-family="Consolas" font-size="50" fill="limegreen">2023</text><text x="1117.8" y="595.615384615385" transform="rotate(270 1107.8 580.615384615385)" font-family="Consolas" font-size="50" fill="limegreen">2024</text><text x="1265.51" y="595.615384615385" transform="rotate(270 1255.51 580.615384615385)" font-family="Consolas" font-size="50" fill="limegreen">2025</text><text x="1413.22" y="595.615384615385" transform="rotate(270 1403.22 580.615384615385)" font-family="Consolas" font-size="50" fill="limegreen">2026</text><text x="1560.93" y="595.615384615385" transform="rotate(270 1550.93 580.615384615385)" font-family="Consolas" font-size="50" fill="limegreen">2027</text><text x="1708.64" y="595.615384615385" transform="rotate(270 1698.64 580.615384615385)" font-family="Consolas" font-size="50" fill="limegreen">2028</text><text x="1856.35" y="595.615384615385" transform="rotate(270 1846.35 580.615384615385)" font-family="Consolas" font-size="50" fill="limegreen">2029</text></g></g></svg>
