<svg xmlns="http://www.w3.org/2000/svg" width="1920" height="1080"> <rect width="100%" height="100%" fill="#000"/><g xmlns="http://www.w3.org/2000/svg" transform="translate(0,0) scale(1.0)"> <text  x="1080" y="60" font-family="Consolas" font-size="52" text-anchor="middle" fill="white">REAL  GDP ANNUAL PERCENT CHANGE (2018-2029) [IMF DATA]</text><text  x="1700" y="1050" font-family="Consolas" font-size="22" text-anchor="middle" fill="white">DESIGNED BY ZOOMIT WORLD</text><image x="180" y="-50" width="280" height="280" href="https://cdn.jsdelivr.net/gh/hampusborgos/country-flags@main/svg/bs.svg"></image><text x="70" y="180" font-family="Consolas" font-size="50" text-anchor="middle" fill="white">13%</text><text x="70" y="448.629441624365" font-family="Consolas" font-size="50" text-anchor="middle" fill="white">6.5%</text><text x="70" y="717.258883248731" font-family="Consolas" font-size="50" text-anchor="middle" fill="white">0%</text><text x="70" y="868.629441624365" font-family="Consolas" font-size="50" text-anchor="middle" fill="white">-3.5%</text><text x="70" y="1020" font-family="Consolas" font-size="50" text-anchor="middle" fill="white">-7%</text><line  x1="141.54" y1="180" x2="141.54" y2="1020" stroke="white" stroke-width="2"/><line x1="141.54"  y1="717.258883248731" x2="1920" y2="717.258883248731" stroke="white" stroke-width="5"/><g><rect x="171.54" y="495.532994923858" width="100" height="221.73" fill="none" stroke="limegreen" stroke-width="2"/><rect x="319.25" y="393.197969543147" width="100" height="324.06" fill="none" stroke="limegreen" stroke-width="2"/><rect x="614.67" y="469.94923857868" width="100" height="247.31" fill="none" stroke="limegreen" stroke-width="2"/><rect x="762.38" y="180" width="100" height="537.26" fill="none" stroke="limegreen" stroke-width="2"/><rect x="910.09" y="363.350253807107" width="100" height="353.91" fill="none" stroke="limegreen" stroke-width="2"/><rect x="1057.8" y="461.421319796954" width="100" height="255.84" fill="none" stroke="limegreen" stroke-width="2"/><rect x="1205.51" y="508.324873096447" width="100" height="208.93" fill="none" stroke="limegreen" stroke-width="2"/><rect x="1353.22" y="525.380710659898" width="100" height="191.88" fill="none" stroke="limegreen" stroke-width="2"/><rect x="1500.93" y="525.380710659898" width="100" height="191.88" fill="none" stroke="limegreen" stroke-width="2"/><rect x="1648.64" y="525.380710659898" width="100" height="191.88" fill="none" stroke="limegreen" stroke-width="2"/><rect x="1796.35" y="525.380710659898" width="100" height="191.88" fill="none" stroke="limegreen" stroke-width="2"/> <rect x="466.96" y="717.258883248731" width="100" height="302.74" fill="none" stroke="limegreen" stroke-width="2"/> </g><g><text x="221.54" y="485.53" font-family="Consolas" font-size="48" text-anchor="middle" fill="white">5.2</text><text x="369.25" y="383.2" font-family="Consolas" font-size="48" text-anchor="middle" fill="white">7.6</text><text x="664.67" y="459.95" font-family="Consolas" font-size="48" text-anchor="middle" fill="white">5.8</text><text x="812.38" y="170" font-family="Consolas" font-size="48" text-anchor="middle" fill="white">12.6</text><text x="960.09" y="353.35" font-family="Consolas" font-size="48" text-anchor="middle" fill="white">8.3</text><text x="1107.8" y="451.42" font-family="Consolas" font-size="48" text-anchor="middle" fill="white">6</text><text x="1255.51" y="498.32" font-family="Consolas" font-size="48" text-anchor="middle" fill="white">4.9</text><text x="1403.22" y="515.38" font-family="Consolas" font-size="48" text-anchor="middle" fill="white">4.5</text><text x="1550.93" y="515.38" font-family="Consolas" font-size="48" text-anchor="middle" fill="white">4.5</text><text x="1698.64" y="515.38" font-family="Consolas" font-size="48" text-anchor="middle" fill="white">4.5</text><text x="1846.35" y="515.38" font-family="Consolas" font-size="48" text-anchor="middle" fill="white">4.5</text> <text x="466.96" y="1010" font-family="Consolas" font-size="48" ttext-anchor="middle" fill="white">-7.1</text></g><g><text x="231.54" y="732.258883248731" transform="rotate(270 221.54 717.258883248731)" font-family="Consolas" font-size="50" fill="limegreen">2018</text><text x="379.25" y="732.258883248731" transform="rotate(270 369.25 717.258883248731)" font-family="Consolas" font-size="50" fill="limegreen">2019</text><text x="526.96" y="732.258883248731" transform="rotate(270 516.96 717.258883248731)" font-family="Consolas" font-size="50" fill="limegreen">2020</text><text x="674.67" y="732.258883248731" transform="rotate(270 664.67 717.258883248731)" font-family="Consolas" font-size="50" fill="limegreen">2021</text><text x="822.38" y="732.258883248731" transform="rotate(270 812.38 717.258883248731)" font-family="Consolas" font-size="50" fill="limegreen">2022</text><text x="970.09" y="732.258883248731" transform="rotate(270 960.09 717.258883248731)" font-family="Consolas" font-size="50" fill="limegreen">2023</text><text x="1117.8" y="732.258883248731" transform="rotate(270 1107.8 717.258883248731)" font-family="Consolas" font-size="50" fill="limegreen">2024</text><text x="1265.51" y="732.258883248731" transform="rotate(270 1255.51 717.258883248731)" font-family="Consolas" font-size="50" fill="limegreen">2025</text><text x="1413.22" y="732.258883248731" transform="rotate(270 1403.22 717.258883248731)" font-family="Consolas" font-size="50" fill="limegreen">2026</text><text x="1560.93" y="732.258883248731" transform="rotate(270 1550.93 717.258883248731)" font-family="Consolas" font-size="50" fill="limegreen">2027</text><text x="1708.64" y="732.258883248731" transform="rotate(270 1698.64 717.258883248731)" font-family="Consolas" font-size="50" fill="limegreen">2028</text><text x="1856.35" y="732.258883248731" transform="rotate(270 1846.35 717.258883248731)" font-family="Consolas" font-size="50" fill="limegreen">2029</text></g></g></svg>
