<svg xmlns="http://www.w3.org/2000/svg" width="1920" height="1080"> <rect width="100%" height="100%" fill="#000"/><g xmlns="http://www.w3.org/2000/svg" transform="translate(0,0) scale(1.0)"> <text  x="1080" y="60" font-family="Consolas" font-size="52" text-anchor="middle" fill="white">REAL  GDP ANNUAL PERCENT CHANGE (2018-2029) [IMF DATA]</text><text  x="1700" y="1050" font-family="Consolas" font-size="22" text-anchor="middle" fill="white">DESIGNED BY ZOOMIT WORLD</text><image x="180" y="-50" width="280" height="280" href="https://cdn.jsdelivr.net/gh/hampusborgos/country-flags@main/svg/bs.svg"></image><text x="70" y="180" font-family="Consolas" font-size="50" text-anchor="middle" fill="white">9%</text><text x="70" y="548.490566037736" font-family="Consolas" font-size="50" text-anchor="middle" fill="white">4.5%</text><text x="70" y="916.981132075472" font-family="Consolas" font-size="50" text-anchor="middle" fill="white">0%</text><text x="70" y="968.490566037736" font-family="Consolas" font-size="50" text-anchor="middle" fill="white">0.5%</text><text x="70" y="1020" font-family="Consolas" font-size="50" text-anchor="middle" fill="white">1%</text><line  x1="141.54" y1="180" x2="141.54" y2="1020" stroke="white" stroke-width="2"/><line x1="141.54"  y1="916.981132075472" x2="1920" y2="916.981132075472" stroke="white" stroke-width="5"/><g><rect x="171.54" y="425.66037735849" width="100" height="491.32" fill="none" stroke="limegreen" stroke-width="2"/><rect x="319.25" y="552.452830188679" width="100" height="364.53" fill="none" stroke="limegreen" stroke-width="2"/><rect x="466.96" y="813.962264150943" width="100" height="103.02" fill="none" stroke="limegreen" stroke-width="2"/><rect x="614.67" y="401.88679245283" width="100" height="515.09" fill="none" stroke="limegreen" stroke-width="2"/><rect x="762.38" y="600" width="100" height="316.98" fill="none" stroke="limegreen" stroke-width="2"/><rect x="910.09" y="552.452830188679" width="100" height="364.53" fill="none" stroke="limegreen" stroke-width="2"/><rect x="1057.8" y="441.509433962264" width="100" height="475.47" fill="none" stroke="limegreen" stroke-width="2"/><rect x="1205.51" y="180" width="100" height="736.98" fill="none" stroke="limegreen" stroke-width="2"/><rect x="1353.22" y="528.679245283019" width="100" height="388.30" fill="none" stroke="limegreen" stroke-width="2"/><rect x="1500.93" y="512.830188679245" width="100" height="404.15" fill="none" stroke="limegreen" stroke-width="2"/><rect x="1648.64" y="504.905660377358" width="100" height="412.08" fill="none" stroke="limegreen" stroke-width="2"/><rect x="1796.35" y="592.075471698113" width="100" height="324.91" fill="none" stroke="limegreen" stroke-width="2"/>  </g><g><text x="221.54" y="415.66" font-family="Consolas" font-size="48" text-anchor="middle" fill="white">6.2</text><text x="369.25" y="542.45" font-family="Consolas" font-size="48" text-anchor="middle" fill="white">4.6</text><text x="516.96" y="803.96" font-family="Consolas" font-size="48" text-anchor="middle" fill="white">1.3</text><text x="664.67" y="391.89" font-family="Consolas" font-size="48" text-anchor="middle" fill="white">6.5</text><text x="812.38" y="590" font-family="Consolas" font-size="48" text-anchor="middle" fill="white">4</text><text x="960.09" y="542.45" font-family="Consolas" font-size="48" text-anchor="middle" fill="white">4.6</text><text x="1107.8" y="431.51" font-family="Consolas" font-size="48" text-anchor="middle" fill="white">6</text><text x="1255.51" y="170" font-family="Consolas" font-size="48" text-anchor="middle" fill="white">9.3</text><text x="1403.22" y="518.68" font-family="Consolas" font-size="48" text-anchor="middle" fill="white">4.9</text><text x="1550.93" y="502.83" font-family="Consolas" font-size="48" text-anchor="middle" fill="white">5.1</text><text x="1698.64" y="494.91" font-family="Consolas" font-size="48" text-anchor="middle" fill="white">5.2</text><text x="1846.35" y="582.08" font-family="Consolas" font-size="48" text-anchor="middle" fill="white">4.1</text> </g><g><text x="231.54" y="931.981132075472" transform="rotate(270 221.54 916.981132075472)" font-family="Consolas" font-size="50" fill="limegreen">2018</text><text x="379.25" y="931.981132075472" transform="rotate(270 369.25 916.981132075472)" font-family="Consolas" font-size="50" fill="limegreen">2019</text><text x="526.96" y="931.981132075472" transform="rotate(270 516.96 916.981132075472)" font-family="Consolas" font-size="50" fill="limegreen">2020</text><text x="674.67" y="931.981132075472" transform="rotate(270 664.67 916.981132075472)" font-family="Consolas" font-size="50" fill="limegreen">2021</text><text x="822.38" y="931.981132075472" transform="rotate(270 812.38 916.981132075472)" font-family="Consolas" font-size="50" fill="limegreen">2022</text><text x="970.09" y="931.981132075472" transform="rotate(270 960.09 916.981132075472)" font-family="Consolas" font-size="50" fill="limegreen">2023</text><text x="1117.8" y="931.981132075472" transform="rotate(270 1107.8 916.981132075472)" font-family="Consolas" font-size="50" fill="limegreen">2024</text><text x="1265.51" y="931.981132075472" transform="rotate(270 1255.51 916.981132075472)" font-family="Consolas" font-size="50" fill="limegreen">2025</text><text x="1413.22" y="931.981132075472" transform="rotate(270 1403.22 916.981132075472)" font-family="Consolas" font-size="50" fill="limegreen">2026</text><text x="1560.93" y="931.981132075472" transform="rotate(270 1550.93 916.981132075472)" font-family="Consolas" font-size="50" fill="limegreen">2027</text><text x="1708.64" y="931.981132075472" transform="rotate(270 1698.64 916.981132075472)" font-family="Consolas" font-size="50" fill="limegreen">2028</text><text x="1856.35" y="931.981132075472" transform="rotate(270 1846.35 916.981132075472)" font-family="Consolas" font-size="50" fill="limegreen">2029</text></g></g></svg>
