<svg xmlns="http://www.w3.org/2000/svg" width="1920" height="1080"> <rect width="100%" height="100%" fill="#000"/><g xmlns="http://www.w3.org/2000/svg" transform="translate(0,0) scale(1.0)"> <text  x="1080" y="60" font-family="Consolas" font-size="52" text-anchor="middle" fill="white">REAL  GDP ANNUAL PERCENT CHANGE (2018-2029) [IMF DATA]</text><text  x="1780" y="1050" font-family="Consolas" font-size="32" text-anchor="middle" fill="white">ZOOMIT WORLD</text><image x="180" y="-50" width="280" height="280" href="https://cdn.jsdelivr.net/gh/hampusborgos/country-flags@main/svg/kz.svg"></image><text x="70" y="180" font-family="Consolas" font-size="50" text-anchor="middle" fill="white">5%</text><text x="70" y="458.181818181818" font-family="Consolas" font-size="50" text-anchor="middle" fill="white">2.5%</text><text x="70" y="736.363636363636" font-family="Consolas" font-size="50" text-anchor="middle" fill="white">0%</text><text x="70" y="878.181818181818" font-family="Consolas" font-size="50" text-anchor="middle" fill="white">-1.5%</text><text x="70" y="1020" font-family="Consolas" font-size="50" text-anchor="middle" fill="white">-3%</text><line  x1="141.54" y1="180" x2="141.54" y2="1020" stroke="white" stroke-width="2"/><line x1="141.54"  y1="736.363636363636" x2="1920" y2="736.363636363636" stroke="white" stroke-width="5"/><g><rect x="171.54" y="289.090909090909" width="100" height="447.27" fill="none" stroke="limegreen" stroke-width="2"/><rect x="319.25" y="245.454545454545" width="100" height="490.91" fill="none" stroke="limegreen" stroke-width="2"/><rect x="614.67" y="289.090909090909" width="100" height="447.27" fill="none" stroke="limegreen" stroke-width="2"/><rect x="762.38" y="376.363636363636" width="100" height="360.00" fill="none" stroke="limegreen" stroke-width="2"/><rect x="910.09" y="180" width="100" height="556.36" fill="none" stroke="limegreen" stroke-width="2"/><rect x="1057.8" y="354.545454545455" width="100" height="381.82" fill="none" stroke="limegreen" stroke-width="2"/><rect x="1205.51" y="234.545454545455" width="100" height="501.82" fill="none" stroke="limegreen" stroke-width="2"/><rect x="1353.22" y="354.545454545455" width="100" height="381.82" fill="none" stroke="limegreen" stroke-width="2"/><rect x="1500.93" y="343.636363636364" width="100" height="392.73" fill="none" stroke="limegreen" stroke-width="2"/><rect x="1648.64" y="485.454545454545" width="100" height="250.91" fill="none" stroke="limegreen" stroke-width="2"/><rect x="1796.35" y="409.090909090909" width="100" height="327.27" fill="none" stroke="limegreen" stroke-width="2"/> <rect x="466.96" y="736.363636363636" width="100" height="283.64" fill="none" stroke="limegreen" stroke-width="2"/> </g><g><text x="221.54" y="279.09" font-family="Consolas" font-size="48" text-anchor="middle" fill="white">4.1</text><text x="369.25" y="235.45" font-family="Consolas" font-size="48" text-anchor="middle" fill="white">4.5</text><text x="664.67" y="279.09" font-family="Consolas" font-size="48" text-anchor="middle" fill="white">4.1</text><text x="812.38" y="366.36" font-family="Consolas" font-size="48" text-anchor="middle" fill="white">3.3</text><text x="960.09" y="170" font-family="Consolas" font-size="48" text-anchor="middle" fill="white">5.1</text><text x="1107.8" y="344.55" font-family="Consolas" font-size="48" text-anchor="middle" fill="white">3.5</text><text x="1255.51" y="224.55" font-family="Consolas" font-size="48" text-anchor="middle" fill="white">4.6</text><text x="1403.22" y="344.55" font-family="Consolas" font-size="48" text-anchor="middle" fill="white">3.5</text><text x="1550.93" y="333.64" font-family="Consolas" font-size="48" text-anchor="middle" fill="white">3.6</text><text x="1698.64" y="475.45" font-family="Consolas" font-size="48" text-anchor="middle" fill="white">2.3</text><text x="1846.35" y="399.09" font-family="Consolas" font-size="48" text-anchor="middle" fill="white">3</text> <text x="466.96" y="1010" font-family="Consolas" font-size="48" ttext-anchor="middle" fill="white">-2.6</text></g><g><text x="231.54" y="751.363636363636" transform="rotate(270 221.54 736.363636363636)" font-family="Consolas" font-size="50" fill="limegreen">2018</text><text x="379.25" y="751.363636363636" transform="rotate(270 369.25 736.363636363636)" font-family="Consolas" font-size="50" fill="limegreen">2019</text><text x="526.96" y="751.363636363636" transform="rotate(270 516.96 736.363636363636)" font-family="Consolas" font-size="50" fill="limegreen">2020</text><text x="674.67" y="751.363636363636" transform="rotate(270 664.67 736.363636363636)" font-family="Consolas" font-size="50" fill="limegreen">2021</text><text x="822.38" y="751.363636363636" transform="rotate(270 812.38 736.363636363636)" font-family="Consolas" font-size="50" fill="limegreen">2022</text><text x="970.09" y="751.363636363636" transform="rotate(270 960.09 736.363636363636)" font-family="Consolas" font-size="50" fill="limegreen">2023</text><text x="1117.8" y="751.363636363636" transform="rotate(270 1107.8 736.363636363636)" font-family="Consolas" font-size="50" fill="limegreen">2024</text><text x="1265.51" y="751.363636363636" transform="rotate(270 1255.51 736.363636363636)" font-family="Consolas" font-size="50" fill="limegreen">2025</text><text x="1413.22" y="751.363636363636" transform="rotate(270 1403.22 736.363636363636)" font-family="Consolas" font-size="50" fill="limegreen">2026</text><text x="1560.93" y="751.363636363636" transform="rotate(270 1550.93 736.363636363636)" font-family="Consolas" font-size="50" fill="limegreen">2027</text><text x="1708.64" y="751.363636363636" transform="rotate(270 1698.64 736.363636363636)" font-family="Consolas" font-size="50" fill="limegreen">2028</text><text x="1856.35" y="751.363636363636" transform="rotate(270 1846.35 736.363636363636)" font-family="Consolas" font-size="50" fill="limegreen">2029</text></g></g></svg>
