<svg xmlns="http://www.w3.org/2000/svg" width="1920" height="1080"> <rect width="100%" height="100%" fill="#000"/><g xmlns="http://www.w3.org/2000/svg" transform="translate(0,0) scale(1.0)"> <text  x="1080" y="60" font-family="Consolas" font-size="52" text-anchor="middle" fill="white">REAL  GDP ANNUAL PERCENT CHANGE (2018-2029) [IMF DATA]</text><text  x="1780" y="1050" font-family="Consolas" font-size="32" text-anchor="middle" fill="white">ZOOMIT WORLD</text><image x="180" y="-50" width="280" height="280" href="https://cdn.jsdelivr.net/gh/hampusborgos/country-flags@main/svg/md.svg"></image><text x="70" y="180" font-family="Consolas" font-size="50" text-anchor="middle" fill="white">14%</text><text x="70" y="442.972972972973" font-family="Consolas" font-size="50" text-anchor="middle" fill="white">7%</text><text x="70" y="705.945945945946" font-family="Consolas" font-size="50" text-anchor="middle" fill="white">0%</text><text x="70" y="862.972972972973" font-family="Consolas" font-size="50" text-anchor="middle" fill="white">-4%</text><text x="70" y="1020" font-family="Consolas" font-size="50" text-anchor="middle" fill="white">-8%</text><line  x1="141.54" y1="180" x2="141.54" y2="1020" stroke="white" stroke-width="2"/><line x1="141.54"  y1="705.945945945946" x2="1920" y2="705.945945945946" stroke="white" stroke-width="5"/><g><rect x="171.54" y="550.810810810811" width="100" height="155.14" fill="none" stroke="limegreen" stroke-width="2"/><rect x="319.25" y="569.72972972973" width="100" height="136.22" fill="none" stroke="limegreen" stroke-width="2"/><rect x="614.67" y="180" width="100" height="525.95" fill="none" stroke="limegreen" stroke-width="2"/><rect x="910.09" y="679.459459459459" width="100" height="26.49" fill="none" stroke="limegreen" stroke-width="2"/><rect x="1057.8" y="607.567567567568" width="100" height="98.38" fill="none" stroke="limegreen" stroke-width="2"/><rect x="1205.51" y="565.945945945946" width="100" height="140.00" fill="none" stroke="limegreen" stroke-width="2"/><rect x="1353.22" y="539.459459459459" width="100" height="166.49" fill="none" stroke="limegreen" stroke-width="2"/><rect x="1500.93" y="516.756756756757" width="100" height="189.19" fill="none" stroke="limegreen" stroke-width="2"/><rect x="1648.64" y="516.756756756757" width="100" height="189.19" fill="none" stroke="limegreen" stroke-width="2"/><rect x="1796.35" y="516.756756756757" width="100" height="189.19" fill="none" stroke="limegreen" stroke-width="2"/> <rect x="466.96" y="705.945945945946" width="100" height="314.05" fill="none" stroke="limegreen" stroke-width="2"/><rect x="762.38" y="705.945945945946" width="100" height="189.19" fill="none" stroke="limegreen" stroke-width="2"/> </g><g><text x="221.54" y="540.81" font-family="Consolas" font-size="48" text-anchor="middle" fill="white">4.1</text><text x="369.25" y="559.73" font-family="Consolas" font-size="48" text-anchor="middle" fill="white">3.6</text><text x="664.67" y="170" font-family="Consolas" font-size="48" text-anchor="middle" fill="white">13.9</text><text x="960.09" y="669.46" font-family="Consolas" font-size="48" text-anchor="middle" fill="white">0.7</text><text x="1107.8" y="597.57" font-family="Consolas" font-size="48" text-anchor="middle" fill="white">2.6</text><text x="1255.51" y="555.95" font-family="Consolas" font-size="48" text-anchor="middle" fill="white">3.7</text><text x="1403.22" y="529.46" font-family="Consolas" font-size="48" text-anchor="middle" fill="white">4.4</text><text x="1550.93" y="506.76" font-family="Consolas" font-size="48" text-anchor="middle" fill="white">5</text><text x="1698.64" y="506.76" font-family="Consolas" font-size="48" text-anchor="middle" fill="white">5</text><text x="1846.35" y="506.76" font-family="Consolas" font-size="48" text-anchor="middle" fill="white">5</text> <text x="466.96" y="1010" font-family="Consolas" font-size="48" ttext-anchor="middle" fill="white">-8.3</text><text x="762.38" y="885.135135135135" font-family="Consolas" font-size="48" ttext-anchor="middle" fill="white">-5</text></g><g><text x="231.54" y="720.945945945946" transform="rotate(270 221.54 705.945945945946)" font-family="Consolas" font-size="50" fill="limegreen">2018</text><text x="379.25" y="720.945945945946" transform="rotate(270 369.25 705.945945945946)" font-family="Consolas" font-size="50" fill="limegreen">2019</text><text x="526.96" y="720.945945945946" transform="rotate(270 516.96 705.945945945946)" font-family="Consolas" font-size="50" fill="limegreen">2020</text><text x="674.67" y="720.945945945946" transform="rotate(270 664.67 705.945945945946)" font-family="Consolas" font-size="50" fill="limegreen">2021</text><text x="822.38" y="720.945945945946" transform="rotate(270 812.38 705.945945945946)" font-family="Consolas" font-size="50" fill="limegreen">2022</text><text x="970.09" y="720.945945945946" transform="rotate(270 960.09 705.945945945946)" font-family="Consolas" font-size="50" fill="limegreen">2023</text><text x="1117.8" y="720.945945945946" transform="rotate(270 1107.8 705.945945945946)" font-family="Consolas" font-size="50" fill="limegreen">2024</text><text x="1265.51" y="720.945945945946" transform="rotate(270 1255.51 705.945945945946)" font-family="Consolas" font-size="50" fill="limegreen">2025</text><text x="1413.22" y="720.945945945946" transform="rotate(270 1403.22 705.945945945946)" font-family="Consolas" font-size="50" fill="limegreen">2026</text><text x="1560.93" y="720.945945945946" transform="rotate(270 1550.93 705.945945945946)" font-family="Consolas" font-size="50" fill="limegreen">2027</text><text x="1708.64" y="720.945945945946" transform="rotate(270 1698.64 705.945945945946)" font-family="Consolas" font-size="50" fill="limegreen">2028</text><text x="1856.35" y="720.945945945946" transform="rotate(270 1846.35 705.945945945946)" font-family="Consolas" font-size="50" fill="limegreen">2029</text></g></g></svg>
