<svg xmlns="http://www.w3.org/2000/svg" width="1920" height="1080"> <rect width="100%" height="100%" fill="#000"/><g xmlns="http://www.w3.org/2000/svg" transform="translate(0,0) scale(1.0)"> <text  x="1080" y="60" font-family="Consolas" font-size="52" text-anchor="middle" fill="white">REAL  GDP ANNUAL PERCENT CHANGE (2018-2029) [IMF DATA]</text><text  x="1780" y="1050" font-family="Consolas" font-size="32" text-anchor="middle" fill="white">ZOOMIT WORLD</text><image x="180" y="-50" width="280" height="280" href="https://cdn.jsdelivr.net/gh/hampusborgos/country-flags@main/svg/dj.svg"></image><text x="70" y="180" font-family="Consolas" font-size="50" text-anchor="middle" fill="white">7%</text><text x="70" y="534.21686746988" font-family="Consolas" font-size="50" text-anchor="middle" fill="white">3.5%</text><text x="70" y="888.433734939759" font-family="Consolas" font-size="50" text-anchor="middle" fill="white">0%</text><text x="70" y="954.21686746988" font-family="Consolas" font-size="50" text-anchor="middle" fill="white">0.5%</text><text x="70" y="1020" font-family="Consolas" font-size="50" text-anchor="middle" fill="white">1%</text><line  x1="141.54" y1="180" x2="141.54" y2="1020" stroke="white" stroke-width="2"/><line x1="141.54"  y1="888.433734939759" x2="1920" y2="888.433734939759" stroke="white" stroke-width="5"/><g><rect x="171.54" y="402.650602409639" width="100" height="485.78" fill="none" stroke="limegreen" stroke-width="2"/><rect x="319.25" y="331.807228915663" width="100" height="556.63" fill="none" stroke="limegreen" stroke-width="2"/><rect x="466.96" y="756.867469879518" width="100" height="131.57" fill="none" stroke="limegreen" stroke-width="2"/><rect x="614.67" y="433.012048192771" width="100" height="455.42" fill="none" stroke="limegreen" stroke-width="2"/><rect x="762.38" y="493.734939759036" width="100" height="394.70" fill="none" stroke="limegreen" stroke-width="2"/><rect x="910.09" y="180" width="100" height="708.43" fill="none" stroke="limegreen" stroke-width="2"/><rect x="1057.8" y="230.602409638554" width="100" height="657.83" fill="none" stroke="limegreen" stroke-width="2"/><rect x="1205.51" y="281.204819277109" width="100" height="607.23" fill="none" stroke="limegreen" stroke-width="2"/><rect x="1353.22" y="331.807228915663" width="100" height="556.63" fill="none" stroke="limegreen" stroke-width="2"/><rect x="1500.93" y="331.807228915663" width="100" height="556.63" fill="none" stroke="limegreen" stroke-width="2"/><rect x="1648.64" y="331.807228915663" width="100" height="556.63" fill="none" stroke="limegreen" stroke-width="2"/><rect x="1796.35" y="331.807228915663" width="100" height="556.63" fill="none" stroke="limegreen" stroke-width="2"/>  </g><g><text x="221.54" y="392.65" font-family="Consolas" font-size="48" text-anchor="middle" fill="white">4.8</text><text x="369.25" y="321.81" font-family="Consolas" font-size="48" text-anchor="middle" fill="white">5.5</text><text x="516.96" y="746.87" font-family="Consolas" font-size="48" text-anchor="middle" fill="white">1.3</text><text x="664.67" y="423.01" font-family="Consolas" font-size="48" text-anchor="middle" fill="white">4.5</text><text x="812.38" y="483.73" font-family="Consolas" font-size="48" text-anchor="middle" fill="white">3.9</text><text x="960.09" y="170" font-family="Consolas" font-size="48" text-anchor="middle" fill="white">7</text><text x="1107.8" y="220.6" font-family="Consolas" font-size="48" text-anchor="middle" fill="white">6.5</text><text x="1255.51" y="271.2" font-family="Consolas" font-size="48" text-anchor="middle" fill="white">6</text><text x="1403.22" y="321.81" font-family="Consolas" font-size="48" text-anchor="middle" fill="white">5.5</text><text x="1550.93" y="321.81" font-family="Consolas" font-size="48" text-anchor="middle" fill="white">5.5</text><text x="1698.64" y="321.81" font-family="Consolas" font-size="48" text-anchor="middle" fill="white">5.5</text><text x="1846.35" y="321.81" font-family="Consolas" font-size="48" text-anchor="middle" fill="white">5.5</text> </g><g><text x="231.54" y="903.433734939759" transform="rotate(270 221.54 888.433734939759)" font-family="Consolas" font-size="50" fill="limegreen">2018</text><text x="379.25" y="903.433734939759" transform="rotate(270 369.25 888.433734939759)" font-family="Consolas" font-size="50" fill="limegreen">2019</text><text x="526.96" y="903.433734939759" transform="rotate(270 516.96 888.433734939759)" font-family="Consolas" font-size="50" fill="limegreen">2020</text><text x="674.67" y="903.433734939759" transform="rotate(270 664.67 888.433734939759)" font-family="Consolas" font-size="50" fill="limegreen">2021</text><text x="822.38" y="903.433734939759" transform="rotate(270 812.38 888.433734939759)" font-family="Consolas" font-size="50" fill="limegreen">2022</text><text x="970.09" y="903.433734939759" transform="rotate(270 960.09 888.433734939759)" font-family="Consolas" font-size="50" fill="limegreen">2023</text><text x="1117.8" y="903.433734939759" transform="rotate(270 1107.8 888.433734939759)" font-family="Consolas" font-size="50" fill="limegreen">2024</text><text x="1265.51" y="903.433734939759" transform="rotate(270 1255.51 888.433734939759)" font-family="Consolas" font-size="50" fill="limegreen">2025</text><text x="1413.22" y="903.433734939759" transform="rotate(270 1403.22 888.433734939759)" font-family="Consolas" font-size="50" fill="limegreen">2026</text><text x="1560.93" y="903.433734939759" transform="rotate(270 1550.93 888.433734939759)" font-family="Consolas" font-size="50" fill="limegreen">2027</text><text x="1708.64" y="903.433734939759" transform="rotate(270 1698.64 888.433734939759)" font-family="Consolas" font-size="50" fill="limegreen">2028</text><text x="1856.35" y="903.433734939759" transform="rotate(270 1846.35 888.433734939759)" font-family="Consolas" font-size="50" fill="limegreen">2029</text></g></g></svg>
