<svg xmlns="http://www.w3.org/2000/svg" width="1920" height="1080"> <rect width="100%" height="100%" fill="#000"/><g xmlns="http://www.w3.org/2000/svg" transform="translate(0,0) scale(1.0)"> <text  x="1080" y="60" font-family="Consolas" font-size="52" text-anchor="middle" fill="white">REAL  GDP ANNUAL PERCENT CHANGE (2018-2029) [IMF DATA]</text><text  x="1700" y="1050" font-family="Consolas" font-size="22" text-anchor="middle" fill="white">DESIGNED BY ZOOMIT WORLD</text><image x="180" y="-50" width="280" height="280" href="https://cdn.jsdelivr.net/gh/hampusborgos/country-flags@main/svg/bs.svg"></image><text x="70" y="180" font-family="Consolas" font-size="50" text-anchor="middle" fill="white">6%</text><text x="70" y="488.674698795181" font-family="Consolas" font-size="50" text-anchor="middle" fill="white">3%</text><text x="70" y="797.349397590361" font-family="Consolas" font-size="50" text-anchor="middle" fill="white">0%</text><text x="70" y="908.674698795181" font-family="Consolas" font-size="50" text-anchor="middle" fill="white">-1%</text><text x="70" y="1020" font-family="Consolas" font-size="50" text-anchor="middle" fill="white">-2%</text><line  x1="141.54" y1="180" x2="141.54" y2="1020" stroke="white" stroke-width="2"/><line x1="141.54"  y1="797.349397590361" x2="1920" y2="797.349397590361" stroke="white" stroke-width="5"/><g><rect x="171.54" y="493.734939759036" width="100" height="303.61" fill="none" stroke="limegreen" stroke-width="2"/><rect x="319.25" y="534.216867469879" width="100" height="263.13" fill="none" stroke="limegreen" stroke-width="2"/><rect x="614.67" y="180" width="100" height="617.35" fill="none" stroke="limegreen" stroke-width="2"/><rect x="762.38" y="544.33734939759" width="100" height="253.01" fill="none" stroke="limegreen" stroke-width="2"/><rect x="910.09" y="503.855421686747" width="100" height="293.49" fill="none" stroke="limegreen" stroke-width="2"/><rect x="1057.8" y="513.975903614458" width="100" height="283.37" fill="none" stroke="limegreen" stroke-width="2"/><rect x="1205.51" y="574.698795180723" width="100" height="222.65" fill="none" stroke="limegreen" stroke-width="2"/><rect x="1353.22" y="594.939759036145" width="100" height="202.41" fill="none" stroke="limegreen" stroke-width="2"/><rect x="1500.93" y="584.819277108434" width="100" height="212.53" fill="none" stroke="limegreen" stroke-width="2"/><rect x="1648.64" y="584.819277108434" width="100" height="212.53" fill="none" stroke="limegreen" stroke-width="2"/><rect x="1796.35" y="584.819277108434" width="100" height="212.53" fill="none" stroke="limegreen" stroke-width="2"/> <rect x="466.96" y="797.349397590361" width="100" height="222.65" fill="none" stroke="limegreen" stroke-width="2"/> </g><g><text x="221.54" y="483.73" font-family="Consolas" font-size="48" text-anchor="middle" fill="white">3</text><text x="369.25" y="524.22" font-family="Consolas" font-size="48" text-anchor="middle" fill="white">2.6</text><text x="664.67" y="170" font-family="Consolas" font-size="48" text-anchor="middle" fill="white">6.1</text><text x="812.38" y="534.34" font-family="Consolas" font-size="48" text-anchor="middle" fill="white">2.5</text><text x="960.09" y="493.86" font-family="Consolas" font-size="48" text-anchor="middle" fill="white">2.9</text><text x="1107.8" y="503.98" font-family="Consolas" font-size="48" text-anchor="middle" fill="white">2.8</text><text x="1255.51" y="564.7" font-family="Consolas" font-size="48" text-anchor="middle" fill="white">2.2</text><text x="1403.22" y="584.94" font-family="Consolas" font-size="48" text-anchor="middle" fill="white">2</text><text x="1550.93" y="574.82" font-family="Consolas" font-size="48" text-anchor="middle" fill="white">2.1</text><text x="1698.64" y="574.82" font-family="Consolas" font-size="48" text-anchor="middle" fill="white">2.1</text><text x="1846.35" y="574.82" font-family="Consolas" font-size="48" text-anchor="middle" fill="white">2.1</text> <text x="466.96" y="1010" font-family="Consolas" font-size="48" ttext-anchor="middle" fill="white">-2.2</text></g><g><text x="231.54" y="812.349397590361" transform="rotate(270 221.54 797.349397590361)" font-family="Consolas" font-size="50" fill="limegreen">2018</text><text x="379.25" y="812.349397590361" transform="rotate(270 369.25 797.349397590361)" font-family="Consolas" font-size="50" fill="limegreen">2019</text><text x="526.96" y="812.349397590361" transform="rotate(270 516.96 797.349397590361)" font-family="Consolas" font-size="50" fill="limegreen">2020</text><text x="674.67" y="812.349397590361" transform="rotate(270 664.67 797.349397590361)" font-family="Consolas" font-size="50" fill="limegreen">2021</text><text x="822.38" y="812.349397590361" transform="rotate(270 812.38 797.349397590361)" font-family="Consolas" font-size="50" fill="limegreen">2022</text><text x="970.09" y="812.349397590361" transform="rotate(270 960.09 797.349397590361)" font-family="Consolas" font-size="50" fill="limegreen">2023</text><text x="1117.8" y="812.349397590361" transform="rotate(270 1107.8 797.349397590361)" font-family="Consolas" font-size="50" fill="limegreen">2024</text><text x="1265.51" y="812.349397590361" transform="rotate(270 1255.51 797.349397590361)" font-family="Consolas" font-size="50" fill="limegreen">2025</text><text x="1413.22" y="812.349397590361" transform="rotate(270 1403.22 797.349397590361)" font-family="Consolas" font-size="50" fill="limegreen">2026</text><text x="1560.93" y="812.349397590361" transform="rotate(270 1550.93 797.349397590361)" font-family="Consolas" font-size="50" fill="limegreen">2027</text><text x="1708.64" y="812.349397590361" transform="rotate(270 1698.64 797.349397590361)" font-family="Consolas" font-size="50" fill="limegreen">2028</text><text x="1856.35" y="812.349397590361" transform="rotate(270 1846.35 797.349397590361)" font-family="Consolas" font-size="50" fill="limegreen">2029</text></g></g></svg>
