<svg xmlns="http://www.w3.org/2000/svg" width="1920" height="1080"> <rect width="100%" height="100%" fill="#000"/><g xmlns="http://www.w3.org/2000/svg" transform="translate(0,0) scale(1.0)"> <text  x="1080" y="60" font-family="Consolas" font-size="52" text-anchor="middle" fill="white">REAL  GDP ANNUAL PERCENT CHANGE (2018-2029) [IMF DATA]</text><text  x="1780" y="1050" font-family="Consolas" font-size="32" text-anchor="middle" fill="white">ZOOMIT WORLD</text><image x="180" y="-50" width="280" height="280" href="https://cdn.jsdelivr.net/gh/hampusborgos/country-flags@main/svg/sg.svg"></image><text x="70" y="180" font-family="Consolas" font-size="50" text-anchor="middle" fill="white">10%</text><text x="70" y="479.558823529412" font-family="Consolas" font-size="50" text-anchor="middle" fill="white">5%</text><text x="70" y="779.117647058824" font-family="Consolas" font-size="50" text-anchor="middle" fill="white">0%</text><text x="70" y="899.558823529412" font-family="Consolas" font-size="50" text-anchor="middle" fill="white">-2%</text><text x="70" y="1020" font-family="Consolas" font-size="50" text-anchor="middle" fill="white">-4%</text><line  x1="141.54" y1="180" x2="141.54" y2="1020" stroke="white" stroke-width="2"/><line x1="141.54"  y1="779.117647058824" x2="1920" y2="779.117647058824" stroke="white" stroke-width="5"/><g><rect x="171.54" y="562.941176470588" width="100" height="216.18" fill="none" stroke="limegreen" stroke-width="2"/><rect x="319.25" y="698.823529411765" width="100" height="80.29" fill="none" stroke="limegreen" stroke-width="2"/><rect x="614.67" y="180" width="100" height="599.12" fill="none" stroke="limegreen" stroke-width="2"/><rect x="762.38" y="544.411764705882" width="100" height="234.71" fill="none" stroke="limegreen" stroke-width="2"/><rect x="910.09" y="711.176470588235" width="100" height="67.94" fill="none" stroke="limegreen" stroke-width="2"/><rect x="1057.8" y="618.529411764706" width="100" height="160.59" fill="none" stroke="limegreen" stroke-width="2"/><rect x="1205.51" y="624.705882352941" width="100" height="154.41" fill="none" stroke="limegreen" stroke-width="2"/><rect x="1353.22" y="624.705882352941" width="100" height="154.41" fill="none" stroke="limegreen" stroke-width="2"/><rect x="1500.93" y="624.705882352941" width="100" height="154.41" fill="none" stroke="limegreen" stroke-width="2"/><rect x="1648.64" y="624.705882352941" width="100" height="154.41" fill="none" stroke="limegreen" stroke-width="2"/><rect x="1796.35" y="624.705882352941" width="100" height="154.41" fill="none" stroke="limegreen" stroke-width="2"/> <rect x="466.96" y="779.117647058824" width="100" height="240.88" fill="none" stroke="limegreen" stroke-width="2"/> </g><g><text x="221.54" y="552.94" font-family="Consolas" font-size="48" text-anchor="middle" fill="white">3.5</text><text x="369.25" y="688.82" font-family="Consolas" font-size="48" text-anchor="middle" fill="white">1.3</text><text x="664.67" y="170" font-family="Consolas" font-size="48" text-anchor="middle" fill="white">9.7</text><text x="812.38" y="534.41" font-family="Consolas" font-size="48" text-anchor="middle" fill="white">3.8</text><text x="960.09" y="701.18" font-family="Consolas" font-size="48" text-anchor="middle" fill="white">1.1</text><text x="1107.8" y="608.53" font-family="Consolas" font-size="48" text-anchor="middle" fill="white">2.6</text><text x="1255.51" y="614.71" font-family="Consolas" font-size="48" text-anchor="middle" fill="white">2.5</text><text x="1403.22" y="614.71" font-family="Consolas" font-size="48" text-anchor="middle" fill="white">2.5</text><text x="1550.93" y="614.71" font-family="Consolas" font-size="48" text-anchor="middle" fill="white">2.5</text><text x="1698.64" y="614.71" font-family="Consolas" font-size="48" text-anchor="middle" fill="white">2.5</text><text x="1846.35" y="614.71" font-family="Consolas" font-size="48" text-anchor="middle" fill="white">2.5</text> <text x="466.96" y="1010" font-family="Consolas" font-size="48" ttext-anchor="middle" fill="white">-3.9</text></g><g><text x="231.54" y="794.117647058824" transform="rotate(270 221.54 779.117647058824)" font-family="Consolas" font-size="50" fill="limegreen">2018</text><text x="379.25" y="794.117647058824" transform="rotate(270 369.25 779.117647058824)" font-family="Consolas" font-size="50" fill="limegreen">2019</text><text x="526.96" y="794.117647058824" transform="rotate(270 516.96 779.117647058824)" font-family="Consolas" font-size="50" fill="limegreen">2020</text><text x="674.67" y="794.117647058824" transform="rotate(270 664.67 779.117647058824)" font-family="Consolas" font-size="50" fill="limegreen">2021</text><text x="822.38" y="794.117647058824" transform="rotate(270 812.38 779.117647058824)" font-family="Consolas" font-size="50" fill="limegreen">2022</text><text x="970.09" y="794.117647058824" transform="rotate(270 960.09 779.117647058824)" font-family="Consolas" font-size="50" fill="limegreen">2023</text><text x="1117.8" y="794.117647058824" transform="rotate(270 1107.8 779.117647058824)" font-family="Consolas" font-size="50" fill="limegreen">2024</text><text x="1265.51" y="794.117647058824" transform="rotate(270 1255.51 779.117647058824)" font-family="Consolas" font-size="50" fill="limegreen">2025</text><text x="1413.22" y="794.117647058824" transform="rotate(270 1403.22 779.117647058824)" font-family="Consolas" font-size="50" fill="limegreen">2026</text><text x="1560.93" y="794.117647058824" transform="rotate(270 1550.93 779.117647058824)" font-family="Consolas" font-size="50" fill="limegreen">2027</text><text x="1708.64" y="794.117647058824" transform="rotate(270 1698.64 779.117647058824)" font-family="Consolas" font-size="50" fill="limegreen">2028</text><text x="1856.35" y="794.117647058824" transform="rotate(270 1846.35 779.117647058824)" font-family="Consolas" font-size="50" fill="limegreen">2029</text></g></g></svg>
