<svg xmlns="http://www.w3.org/2000/svg" width="1920" height="1080"> <rect width="100%" height="100%" fill="#000"/><g xmlns="http://www.w3.org/2000/svg" transform="translate(0,0) scale(1.0)"> <text  x="1080" y="60" font-family="Consolas" font-size="52" text-anchor="middle" fill="white">REAL  GDP ANNUAL PERCENT CHANGE (2018-2029) [IMF DATA]</text><text  x="1700" y="1050" font-family="Consolas" font-size="22" text-anchor="middle" fill="white">DESIGNED BY ZOOMIT WORLD</text><image x="180" y="-50" width="280" height="280" href="https://cdn.jsdelivr.net/gh/hampusborgos/country-flags@main/svg/bs.svg"></image><text x="70" y="180" font-family="Consolas" font-size="50" text-anchor="middle" fill="white">14%</text><text x="70" y="347.751479289941" font-family="Consolas" font-size="50" text-anchor="middle" fill="white">7%</text><text x="70" y="515.502958579882" font-family="Consolas" font-size="50" text-anchor="middle" fill="white">0%</text><text x="70" y="767.751479289941" font-family="Consolas" font-size="50" text-anchor="middle" fill="white">-10%</text><text x="70" y="1020" font-family="Consolas" font-size="50" text-anchor="middle" fill="white">-20%</text><line  x1="141.54" y1="180" x2="141.54" y2="1020" stroke="white" stroke-width="2"/><line x1="141.54"  y1="515.502958579882" x2="1920" y2="515.502958579882" stroke="white" stroke-width="5"/><g><rect x="614.67" y="503.076923076923" width="100" height="12.43" fill="none" stroke="limegreen" stroke-width="2"/><rect x="1205.51" y="309.230769230769" width="100" height="206.27" fill="none" stroke="limegreen" stroke-width="2"/><rect x="1353.22" y="180" width="100" height="335.50" fill="none" stroke="limegreen" stroke-width="2"/><rect x="1500.93" y="344.023668639053" width="100" height="171.48" fill="none" stroke="limegreen" stroke-width="2"/><rect x="1648.64" y="373.846153846154" width="100" height="141.66" fill="none" stroke="limegreen" stroke-width="2"/><rect x="1796.35" y="403.668639053254" width="100" height="111.83" fill="none" stroke="limegreen" stroke-width="2"/> <rect x="171.54" y="515.502958579882" width="100" height="57.16" fill="none" stroke="limegreen" stroke-width="2"/><rect x="319.25" y="515.502958579882" width="100" height="62.13" fill="none" stroke="limegreen" stroke-width="2"/><rect x="466.96" y="515.502958579882" width="100" height="89.47" fill="none" stroke="limegreen" stroke-width="2"/><rect x="762.38" y="515.502958579882" width="100" height="62.13" fill="none" stroke="limegreen" stroke-width="2"/><rect x="910.09" y="515.502958579882" width="100" height="454.79" fill="none" stroke="limegreen" stroke-width="2"/><rect x="1057.8" y="515.502958579882" width="100" height="504.50" fill="none" stroke="limegreen" stroke-width="2"/> </g><g><text x="664.67" y="493.08" font-family="Consolas" font-size="48" text-anchor="middle" fill="white">0.5</text><text x="1255.51" y="299.23" font-family="Consolas" font-size="48" text-anchor="middle" fill="white">8.3</text><text x="1403.22" y="170" font-family="Consolas" font-size="48" text-anchor="middle" fill="white">13.5</text><text x="1550.93" y="334.02" font-family="Consolas" font-size="48" text-anchor="middle" fill="white">6.9</text><text x="1698.64" y="363.85" font-family="Consolas" font-size="48" text-anchor="middle" fill="white">5.7</text><text x="1846.35" y="393.67" font-family="Consolas" font-size="48" text-anchor="middle" fill="white">4.5</text> <text x="171.54" y="562.662721893491" font-family="Consolas" font-size="48" ttext-anchor="middle" fill="white">-2.3</text><text x="319.25" y="567.633136094675" font-family="Consolas" font-size="48" ttext-anchor="middle" fill="white">-2.5</text><text x="466.96" y="594.970414201184" font-family="Consolas" font-size="48" ttext-anchor="middle" fill="white">-3.6</text><text x="762.38" y="567.633136094675" font-family="Consolas" font-size="48" ttext-anchor="middle" fill="white">-2.5</text><text x="910.09" y="960.295857988166" font-family="Consolas" font-size="48" ttext-anchor="middle" fill="white">-18.3</text><text x="1057.8" y="1010" font-family="Consolas" font-size="48" ttext-anchor="middle" fill="white">-20.3</text></g><g><text x="231.54" y="530.502958579882" transform="rotate(270 221.54 515.502958579882)" font-family="Consolas" font-size="50" fill="limegreen">2018</text><text x="379.25" y="530.502958579882" transform="rotate(270 369.25 515.502958579882)" font-family="Consolas" font-size="50" fill="limegreen">2019</text><text x="526.96" y="530.502958579882" transform="rotate(270 516.96 515.502958579882)" font-family="Consolas" font-size="50" fill="limegreen">2020</text><text x="674.67" y="530.502958579882" transform="rotate(270 664.67 515.502958579882)" font-family="Consolas" font-size="50" fill="limegreen">2021</text><text x="822.38" y="530.502958579882" transform="rotate(270 812.38 515.502958579882)" font-family="Consolas" font-size="50" fill="limegreen">2022</text><text x="970.09" y="530.502958579882" transform="rotate(270 960.09 515.502958579882)" font-family="Consolas" font-size="50" fill="limegreen">2023</text><text x="1117.8" y="530.502958579882" transform="rotate(270 1107.8 515.502958579882)" font-family="Consolas" font-size="50" fill="limegreen">2024</text><text x="1265.51" y="530.502958579882" transform="rotate(270 1255.51 515.502958579882)" font-family="Consolas" font-size="50" fill="limegreen">2025</text><text x="1413.22" y="530.502958579882" transform="rotate(270 1403.22 515.502958579882)" font-family="Consolas" font-size="50" fill="limegreen">2026</text><text x="1560.93" y="530.502958579882" transform="rotate(270 1550.93 515.502958579882)" font-family="Consolas" font-size="50" fill="limegreen">2027</text><text x="1708.64" y="530.502958579882" transform="rotate(270 1698.64 515.502958579882)" font-family="Consolas" font-size="50" fill="limegreen">2028</text><text x="1856.35" y="530.502958579882" transform="rotate(270 1846.35 515.502958579882)" font-family="Consolas" font-size="50" fill="limegreen">2029</text></g></g></svg>
