<svg xmlns="http://www.w3.org/2000/svg" width="1920" height="1080"> <rect width="100%" height="100%" fill="#000"/><g xmlns="http://www.w3.org/2000/svg" transform="translate(0,0) scale(1.0)"> <text  x="1080" y="60" font-family="Consolas" font-size="52" text-anchor="middle" fill="white">REAL  GDP ANNUAL PERCENT CHANGE (2018-2029) [IMF DATA]</text><text  x="1780" y="1050" font-family="Consolas" font-size="32" text-anchor="middle" fill="white">ZOOMIT WORLD</text><image x="180" y="-50" width="280" height="280" href="https://cdn.jsdelivr.net/gh/hampusborgos/country-flags@main/svg/kh.svg"></image><text x="70" y="180" font-family="Consolas" font-size="50" text-anchor="middle" fill="white">9%</text><text x="70" y="478.064516129032" font-family="Consolas" font-size="50" text-anchor="middle" fill="white">4.5%</text><text x="70" y="776.129032258065" font-family="Consolas" font-size="50" text-anchor="middle" fill="white">0%</text><text x="70" y="898.064516129032" font-family="Consolas" font-size="50" text-anchor="middle" fill="white">-2%</text><text x="70" y="1020" font-family="Consolas" font-size="50" text-anchor="middle" fill="white">-4%</text><line  x1="141.54" y1="180" x2="141.54" y2="1020" stroke="white" stroke-width="2"/><line x1="141.54"  y1="776.129032258065" x2="1920" y2="776.129032258065" stroke="white" stroke-width="5"/><g><rect x="171.54" y="180" width="100" height="596.13" fill="none" stroke="limegreen" stroke-width="2"/><rect x="319.25" y="240.967741935484" width="100" height="535.16" fill="none" stroke="limegreen" stroke-width="2"/><rect x="614.67" y="566.129032258065" width="100" height="210.00" fill="none" stroke="limegreen" stroke-width="2"/><rect x="762.38" y="430.645161290323" width="100" height="345.48" fill="none" stroke="limegreen" stroke-width="2"/><rect x="910.09" y="437.41935483871" width="100" height="338.71" fill="none" stroke="limegreen" stroke-width="2"/><rect x="1057.8" y="403.548387096774" width="100" height="372.58" fill="none" stroke="limegreen" stroke-width="2"/><rect x="1205.51" y="383.225806451613" width="100" height="392.90" fill="none" stroke="limegreen" stroke-width="2"/><rect x="1353.22" y="356.129032258065" width="100" height="420.00" fill="none" stroke="limegreen" stroke-width="2"/><rect x="1500.93" y="362.903225806452" width="100" height="413.23" fill="none" stroke="limegreen" stroke-width="2"/><rect x="1648.64" y="369.677419354839" width="100" height="406.45" fill="none" stroke="limegreen" stroke-width="2"/><rect x="1796.35" y="369.677419354839" width="100" height="406.45" fill="none" stroke="limegreen" stroke-width="2"/> <rect x="466.96" y="776.129032258065" width="100" height="243.87" fill="none" stroke="limegreen" stroke-width="2"/> </g><g><text x="221.54" y="170" font-family="Consolas" font-size="48" text-anchor="middle" fill="white">8.8</text><text x="369.25" y="230.97" font-family="Consolas" font-size="48" text-anchor="middle" fill="white">7.9</text><text x="664.67" y="556.13" font-family="Consolas" font-size="48" text-anchor="middle" fill="white">3.1</text><text x="812.38" y="420.65" font-family="Consolas" font-size="48" text-anchor="middle" fill="white">5.1</text><text x="960.09" y="427.42" font-family="Consolas" font-size="48" text-anchor="middle" fill="white">5</text><text x="1107.8" y="393.55" font-family="Consolas" font-size="48" text-anchor="middle" fill="white">5.5</text><text x="1255.51" y="373.23" font-family="Consolas" font-size="48" text-anchor="middle" fill="white">5.8</text><text x="1403.22" y="346.13" font-family="Consolas" font-size="48" text-anchor="middle" fill="white">6.2</text><text x="1550.93" y="352.9" font-family="Consolas" font-size="48" text-anchor="middle" fill="white">6.1</text><text x="1698.64" y="359.68" font-family="Consolas" font-size="48" text-anchor="middle" fill="white">6</text><text x="1846.35" y="359.68" font-family="Consolas" font-size="48" text-anchor="middle" fill="white">6</text> <text x="466.96" y="1010" font-family="Consolas" font-size="48" ttext-anchor="middle" fill="white">-3.6</text></g><g><text x="231.54" y="791.129032258065" transform="rotate(270 221.54 776.129032258065)" font-family="Consolas" font-size="50" fill="limegreen">2018</text><text x="379.25" y="791.129032258065" transform="rotate(270 369.25 776.129032258065)" font-family="Consolas" font-size="50" fill="limegreen">2019</text><text x="526.96" y="791.129032258065" transform="rotate(270 516.96 776.129032258065)" font-family="Consolas" font-size="50" fill="limegreen">2020</text><text x="674.67" y="791.129032258065" transform="rotate(270 664.67 776.129032258065)" font-family="Consolas" font-size="50" fill="limegreen">2021</text><text x="822.38" y="791.129032258065" transform="rotate(270 812.38 776.129032258065)" font-family="Consolas" font-size="50" fill="limegreen">2022</text><text x="970.09" y="791.129032258065" transform="rotate(270 960.09 776.129032258065)" font-family="Consolas" font-size="50" fill="limegreen">2023</text><text x="1117.8" y="791.129032258065" transform="rotate(270 1107.8 776.129032258065)" font-family="Consolas" font-size="50" fill="limegreen">2024</text><text x="1265.51" y="791.129032258065" transform="rotate(270 1255.51 776.129032258065)" font-family="Consolas" font-size="50" fill="limegreen">2025</text><text x="1413.22" y="791.129032258065" transform="rotate(270 1403.22 776.129032258065)" font-family="Consolas" font-size="50" fill="limegreen">2026</text><text x="1560.93" y="791.129032258065" transform="rotate(270 1550.93 776.129032258065)" font-family="Consolas" font-size="50" fill="limegreen">2027</text><text x="1708.64" y="791.129032258065" transform="rotate(270 1698.64 776.129032258065)" font-family="Consolas" font-size="50" fill="limegreen">2028</text><text x="1856.35" y="791.129032258065" transform="rotate(270 1846.35 776.129032258065)" font-family="Consolas" font-size="50" fill="limegreen">2029</text></g></g></svg>
