<svg xmlns="http://www.w3.org/2000/svg" width="1920" height="1080"> <rect width="100%" height="100%" fill="#000"/><g xmlns="http://www.w3.org/2000/svg" transform="translate(0,0) scale(1.0)"> <text  x="1080" y="60" font-family="Consolas" font-size="52" text-anchor="middle" fill="white">REAL  GDP ANNUAL PERCENT CHANGE (2018-2029) [IMF DATA]</text><text  x="1780" y="1050" font-family="Consolas" font-size="32" text-anchor="middle" fill="white">ZOOMIT WORLD</text><image x="180" y="-50" width="280" height="280" href="https://cdn.jsdelivr.net/gh/hampusborgos/country-flags@main/svg/ye.svg"></image><text x="70" y="180" font-family="Consolas" font-size="50" text-anchor="middle" fill="white">7%</text><text x="70" y="369.677419354839" font-family="Consolas" font-size="50" text-anchor="middle" fill="white">3.5%</text><text x="70" y="559.354838709677" font-family="Consolas" font-size="50" text-anchor="middle" fill="white">0%</text><text x="70" y="789.677419354839" font-family="Consolas" font-size="50" text-anchor="middle" fill="white">-4.5%</text><text x="70" y="1020" font-family="Consolas" font-size="50" text-anchor="middle" fill="white">-9%</text><line  x1="141.54" y1="180" x2="141.54" y2="1020" stroke="white" stroke-width="2"/><line x1="141.54"  y1="559.354838709677" x2="1920" y2="559.354838709677" stroke="white" stroke-width="5"/><g><rect x="171.54" y="516" width="100" height="43.35" fill="none" stroke="limegreen" stroke-width="2"/><rect x="319.25" y="445.548387096774" width="100" height="113.81" fill="none" stroke="limegreen" stroke-width="2"/><rect x="762.38" y="478.064516129032" width="100" height="81.29" fill="none" stroke="limegreen" stroke-width="2"/><rect x="1205.51" y="478.064516129032" width="100" height="81.29" fill="none" stroke="limegreen" stroke-width="2"/><rect x="1353.22" y="180" width="100" height="379.35" fill="none" stroke="limegreen" stroke-width="2"/><rect x="1500.93" y="207.096774193548" width="100" height="352.26" fill="none" stroke="limegreen" stroke-width="2"/><rect x="1648.64" y="234.193548387097" width="100" height="325.16" fill="none" stroke="limegreen" stroke-width="2"/><rect x="1796.35" y="261.290322580645" width="100" height="298.06" fill="none" stroke="limegreen" stroke-width="2"/> <rect x="466.96" y="559.354838709677" width="100" height="460.65" fill="none" stroke="limegreen" stroke-width="2"/><rect x="614.67" y="559.354838709677" width="100" height="54.19" fill="none" stroke="limegreen" stroke-width="2"/><rect x="910.09" y="559.354838709677" width="100" height="108.39" fill="none" stroke="limegreen" stroke-width="2"/><rect x="1057.8" y="559.354838709677" width="100" height="54.19" fill="none" stroke="limegreen" stroke-width="2"/> </g><g><text x="221.54" y="506" font-family="Consolas" font-size="48" text-anchor="middle" fill="white">0.8</text><text x="369.25" y="435.55" font-family="Consolas" font-size="48" text-anchor="middle" fill="white">2.1</text><text x="812.38" y="468.06" font-family="Consolas" font-size="48" text-anchor="middle" fill="white">1.5</text><text x="1255.51" y="468.06" font-family="Consolas" font-size="48" text-anchor="middle" fill="white">1.5</text><text x="1403.22" y="170" font-family="Consolas" font-size="48" text-anchor="middle" fill="white">7</text><text x="1550.93" y="197.1" font-family="Consolas" font-size="48" text-anchor="middle" fill="white">6.5</text><text x="1698.64" y="224.19" font-family="Consolas" font-size="48" text-anchor="middle" fill="white">6</text><text x="1846.35" y="251.29" font-family="Consolas" font-size="48" text-anchor="middle" fill="white">5.5</text> <text x="466.96" y="1010" font-family="Consolas" font-size="48" ttext-anchor="middle" fill="white">-8.5</text><text x="614.67" y="603.548387096774" font-family="Consolas" font-size="48" ttext-anchor="middle" fill="white">-1</text><text x="910.09" y="657.741935483871" font-family="Consolas" font-size="48" ttext-anchor="middle" fill="white">-2</text><text x="1057.8" y="603.548387096774" font-family="Consolas" font-size="48" ttext-anchor="middle" fill="white">-1</text></g><g><text x="231.54" y="574.354838709677" transform="rotate(270 221.54 559.354838709677)" font-family="Consolas" font-size="50" fill="limegreen">2018</text><text x="379.25" y="574.354838709677" transform="rotate(270 369.25 559.354838709677)" font-family="Consolas" font-size="50" fill="limegreen">2019</text><text x="526.96" y="574.354838709677" transform="rotate(270 516.96 559.354838709677)" font-family="Consolas" font-size="50" fill="limegreen">2020</text><text x="674.67" y="574.354838709677" transform="rotate(270 664.67 559.354838709677)" font-family="Consolas" font-size="50" fill="limegreen">2021</text><text x="822.38" y="574.354838709677" transform="rotate(270 812.38 559.354838709677)" font-family="Consolas" font-size="50" fill="limegreen">2022</text><text x="970.09" y="574.354838709677" transform="rotate(270 960.09 559.354838709677)" font-family="Consolas" font-size="50" fill="limegreen">2023</text><text x="1117.8" y="574.354838709677" transform="rotate(270 1107.8 559.354838709677)" font-family="Consolas" font-size="50" fill="limegreen">2024</text><text x="1265.51" y="574.354838709677" transform="rotate(270 1255.51 559.354838709677)" font-family="Consolas" font-size="50" fill="limegreen">2025</text><text x="1413.22" y="574.354838709677" transform="rotate(270 1403.22 559.354838709677)" font-family="Consolas" font-size="50" fill="limegreen">2026</text><text x="1560.93" y="574.354838709677" transform="rotate(270 1550.93 559.354838709677)" font-family="Consolas" font-size="50" fill="limegreen">2027</text><text x="1708.64" y="574.354838709677" transform="rotate(270 1698.64 559.354838709677)" font-family="Consolas" font-size="50" fill="limegreen">2028</text><text x="1856.35" y="574.354838709677" transform="rotate(270 1846.35 559.354838709677)" font-family="Consolas" font-size="50" fill="limegreen">2029</text></g></g></svg>
