<svg xmlns="http://www.w3.org/2000/svg" width="1920" height="1080"> <rect width="100%" height="100%" fill="#000"/><g xmlns="http://www.w3.org/2000/svg" transform="translate(0,0) scale(1.0)"> <text  x="1080" y="60" font-family="Consolas" font-size="52" text-anchor="middle" fill="white">REAL  GDP ANNUAL PERCENT CHANGE (2018-2029) [IMF DATA]</text><text  x="1780" y="1050" font-family="Consolas" font-size="32" text-anchor="middle" fill="white">ZOOMIT WORLD</text><image x="180" y="-50" width="280" height="280" href="https://cdn.jsdelivr.net/gh/hampusborgos/country-flags@main/svg/gq.svg"></image><text x="70" y="180" font-family="Consolas" font-size="50" text-anchor="middle" fill="white">6%</text><text x="70" y="383" font-family="Consolas" font-size="50" text-anchor="middle" fill="white">3%</text><text x="70" y="586" font-family="Consolas" font-size="50" text-anchor="middle" fill="white">0%</text><text x="70" y="803" font-family="Consolas" font-size="50" text-anchor="middle" fill="white">-3%</text><text x="70" y="1020" font-family="Consolas" font-size="50" text-anchor="middle" fill="white">-6%</text><line  x1="141.54" y1="180" x2="141.54" y2="1020" stroke="white" stroke-width="2"/><line x1="141.54"  y1="586" x2="1920" y2="586" stroke="white" stroke-width="5"/><g><rect x="614.67" y="523" width="100" height="63.00" fill="none" stroke="limegreen" stroke-width="2"/><rect x="762.38" y="327" width="100" height="259.00" fill="none" stroke="limegreen" stroke-width="2"/><rect x="1057.8" y="180" width="100" height="406.00" fill="none" stroke="limegreen" stroke-width="2"/><rect x="1353.22" y="502" width="100" height="84.00" fill="none" stroke="limegreen" stroke-width="2"/><rect x="1500.93" y="551" width="100" height="35.00" fill="none" stroke="limegreen" stroke-width="2"/><rect x="1796.35" y="383" width="100" height="203.00" fill="none" stroke="limegreen" stroke-width="2"/> <rect x="171.54" y="586" width="100" height="434.00" fill="none" stroke="limegreen" stroke-width="2"/><rect x="319.25" y="586" width="100" height="385.00" fill="none" stroke="limegreen" stroke-width="2"/><rect x="466.96" y="586" width="100" height="336.00" fill="none" stroke="limegreen" stroke-width="2"/><rect x="910.09" y="586" width="100" height="434.00" fill="none" stroke="limegreen" stroke-width="2"/><rect x="1205.51" y="586" width="100" height="336.00" fill="none" stroke="limegreen" stroke-width="2"/><rect x="1648.64" y="586" width="100" height="280.00" fill="none" stroke="limegreen" stroke-width="2"/> </g><g><text x="664.67" y="513" font-family="Consolas" font-size="48" text-anchor="middle" fill="white">0.9</text><text x="812.38" y="317" font-family="Consolas" font-size="48" text-anchor="middle" fill="white">3.7</text><text x="1107.8" y="170" font-family="Consolas" font-size="48" text-anchor="middle" fill="white">5.8</text><text x="1403.22" y="492" font-family="Consolas" font-size="48" text-anchor="middle" fill="white">1.2</text><text x="1550.93" y="541" font-family="Consolas" font-size="48" text-anchor="middle" fill="white">0.5</text><text x="1846.35" y="373" font-family="Consolas" font-size="48" text-anchor="middle" fill="white">2.9</text> <text x="171.54" y="1010" font-family="Consolas" font-size="48" ttext-anchor="middle" fill="white">-6.2</text><text x="319.25" y="961" font-family="Consolas" font-size="48" ttext-anchor="middle" fill="white">-5.5</text><text x="466.96" y="912" font-family="Consolas" font-size="48" ttext-anchor="middle" fill="white">-4.8</text><text x="910.09" y="1010" font-family="Consolas" font-size="48" ttext-anchor="middle" fill="white">-6.2</text><text x="1205.51" y="912" font-family="Consolas" font-size="48" ttext-anchor="middle" fill="white">-4.8</text><text x="1648.64" y="856" font-family="Consolas" font-size="48" ttext-anchor="middle" fill="white">-4</text></g><g><text x="231.54" y="601" transform="rotate(270 221.54 586)" font-family="Consolas" font-size="50" fill="limegreen">2018</text><text x="379.25" y="601" transform="rotate(270 369.25 586)" font-family="Consolas" font-size="50" fill="limegreen">2019</text><text x="526.96" y="601" transform="rotate(270 516.96 586)" font-family="Consolas" font-size="50" fill="limegreen">2020</text><text x="674.67" y="601" transform="rotate(270 664.67 586)" font-family="Consolas" font-size="50" fill="limegreen">2021</text><text x="822.38" y="601" transform="rotate(270 812.38 586)" font-family="Consolas" font-size="50" fill="limegreen">2022</text><text x="970.09" y="601" transform="rotate(270 960.09 586)" font-family="Consolas" font-size="50" fill="limegreen">2023</text><text x="1117.8" y="601" transform="rotate(270 1107.8 586)" font-family="Consolas" font-size="50" fill="limegreen">2024</text><text x="1265.51" y="601" transform="rotate(270 1255.51 586)" font-family="Consolas" font-size="50" fill="limegreen">2025</text><text x="1413.22" y="601" transform="rotate(270 1403.22 586)" font-family="Consolas" font-size="50" fill="limegreen">2026</text><text x="1560.93" y="601" transform="rotate(270 1550.93 586)" font-family="Consolas" font-size="50" fill="limegreen">2027</text><text x="1708.64" y="601" transform="rotate(270 1698.64 586)" font-family="Consolas" font-size="50" fill="limegreen">2028</text><text x="1856.35" y="601" transform="rotate(270 1846.35 586)" font-family="Consolas" font-size="50" fill="limegreen">2029</text></g></g></svg>
