<svg xmlns="http://www.w3.org/2000/svg" width="1920" height="1080"> <rect width="100%" height="100%" fill="#000"/><g xmlns="http://www.w3.org/2000/svg" transform="translate(0,0) scale(1.0)"> <text  x="1080" y="60" font-family="Consolas" font-size="52" text-anchor="middle" fill="white">REAL  GDP ANNUAL PERCENT CHANGE (2018-2029) [IMF DATA]</text><text  x="1700" y="1050" font-family="Consolas" font-size="22" text-anchor="middle" fill="white">DESIGNED BY ZOOMIT WORLD</text><image x="180" y="-50" width="280" height="280" href="https://cdn.jsdelivr.net/gh/hampusborgos/country-flags@main/svg/bs.svg"></image><text x="70" y="180" font-family="Consolas" font-size="50" text-anchor="middle" fill="white">5%</text><text x="70" y="560.377358490566" font-family="Consolas" font-size="50" text-anchor="middle" fill="white">2.5%</text><text x="70" y="940.754716981132" font-family="Consolas" font-size="50" text-anchor="middle" fill="white">0%</text><text x="70" y="980.377358490566" font-family="Consolas" font-size="50" text-anchor="middle" fill="white">0.5%</text><text x="70" y="1020" font-family="Consolas" font-size="50" text-anchor="middle" fill="white">1%</text><line  x1="141.54" y1="180" x2="141.54" y2="1020" stroke="white" stroke-width="2"/><line x1="141.54"  y1="940.754716981132" x2="1920" y2="940.754716981132" stroke="white" stroke-width="5"/><g><rect x="171.54" y="306.792452830189" width="100" height="633.96" fill="none" stroke="limegreen" stroke-width="2"/><rect x="319.25" y="401.88679245283" width="100" height="538.87" fill="none" stroke="limegreen" stroke-width="2"/><rect x="466.96" y="861.509433962264" width="100" height="79.25" fill="none" stroke="limegreen" stroke-width="2"/><rect x="614.67" y="465.283018867925" width="100" height="475.47" fill="none" stroke="limegreen" stroke-width="2"/><rect x="762.38" y="354.339622641509" width="100" height="586.42" fill="none" stroke="limegreen" stroke-width="2"/><rect x="910.09" y="433.584905660377" width="100" height="507.17" fill="none" stroke="limegreen" stroke-width="2"/><rect x="1057.8" y="322.641509433962" width="100" height="618.11" fill="none" stroke="limegreen" stroke-width="2"/><rect x="1205.51" y="275.094339622642" width="100" height="665.66" fill="none" stroke="limegreen" stroke-width="2"/><rect x="1353.22" y="259.245283018868" width="100" height="681.51" fill="none" stroke="limegreen" stroke-width="2"/><rect x="1500.93" y="195.849056603774" width="100" height="744.91" fill="none" stroke="limegreen" stroke-width="2"/><rect x="1648.64" y="180" width="100" height="760.75" fill="none" stroke="limegreen" stroke-width="2"/><rect x="1796.35" y="180" width="100" height="760.75" fill="none" stroke="limegreen" stroke-width="2"/>  </g><g><text x="221.54" y="296.79" font-family="Consolas" font-size="48" text-anchor="middle" fill="white">4</text><text x="369.25" y="391.89" font-family="Consolas" font-size="48" text-anchor="middle" fill="white">3.4</text><text x="516.96" y="851.51" font-family="Consolas" font-size="48" text-anchor="middle" fill="white">0.5</text><text x="664.67" y="455.28" font-family="Consolas" font-size="48" text-anchor="middle" fill="white">3</text><text x="812.38" y="344.34" font-family="Consolas" font-size="48" text-anchor="middle" fill="white">3.7</text><text x="960.09" y="423.58" font-family="Consolas" font-size="48" text-anchor="middle" fill="white">3.2</text><text x="1107.8" y="312.64" font-family="Consolas" font-size="48" text-anchor="middle" fill="white">3.9</text><text x="1255.51" y="265.09" font-family="Consolas" font-size="48" text-anchor="middle" fill="white">4.2</text><text x="1403.22" y="249.25" font-family="Consolas" font-size="48" text-anchor="middle" fill="white">4.3</text><text x="1550.93" y="185.85" font-family="Consolas" font-size="48" text-anchor="middle" fill="white">4.7</text><text x="1698.64" y="170" font-family="Consolas" font-size="48" text-anchor="middle" fill="white">4.8</text><text x="1846.35" y="170" font-family="Consolas" font-size="48" text-anchor="middle" fill="white">4.8</text> </g><g><text x="231.54" y="955.754716981132" transform="rotate(270 221.54 940.754716981132)" font-family="Consolas" font-size="50" fill="limegreen">2018</text><text x="379.25" y="955.754716981132" transform="rotate(270 369.25 940.754716981132)" font-family="Consolas" font-size="50" fill="limegreen">2019</text><text x="526.96" y="955.754716981132" transform="rotate(270 516.96 940.754716981132)" font-family="Consolas" font-size="50" fill="limegreen">2020</text><text x="674.67" y="955.754716981132" transform="rotate(270 664.67 940.754716981132)" font-family="Consolas" font-size="50" fill="limegreen">2021</text><text x="822.38" y="955.754716981132" transform="rotate(270 812.38 940.754716981132)" font-family="Consolas" font-size="50" fill="limegreen">2022</text><text x="970.09" y="955.754716981132" transform="rotate(270 960.09 940.754716981132)" font-family="Consolas" font-size="50" fill="limegreen">2023</text><text x="1117.8" y="955.754716981132" transform="rotate(270 1107.8 940.754716981132)" font-family="Consolas" font-size="50" fill="limegreen">2024</text><text x="1265.51" y="955.754716981132" transform="rotate(270 1255.51 940.754716981132)" font-family="Consolas" font-size="50" fill="limegreen">2025</text><text x="1413.22" y="955.754716981132" transform="rotate(270 1403.22 940.754716981132)" font-family="Consolas" font-size="50" fill="limegreen">2026</text><text x="1560.93" y="955.754716981132" transform="rotate(270 1550.93 940.754716981132)" font-family="Consolas" font-size="50" fill="limegreen">2027</text><text x="1708.64" y="955.754716981132" transform="rotate(270 1698.64 940.754716981132)" font-family="Consolas" font-size="50" fill="limegreen">2028</text><text x="1856.35" y="955.754716981132" transform="rotate(270 1846.35 940.754716981132)" font-family="Consolas" font-size="50" fill="limegreen">2029</text></g></g></svg>
