<svg xmlns="http://www.w3.org/2000/svg" width="1920" height="1080"> <rect width="100%" height="100%" fill="#000"/><g xmlns="http://www.w3.org/2000/svg" transform="translate(0,0) scale(1.0)"> <text  x="1080" y="60" font-family="Consolas" font-size="52" text-anchor="middle" fill="white">REAL  GDP ANNUAL PERCENT CHANGE (2018-2029) [IMF DATA]</text><text  x="1700" y="1050" font-family="Consolas" font-size="22" text-anchor="middle" fill="white">DESIGNED BY ZOOMIT WORLD</text><image x="180" y="-50" width="280" height="280" href="https://cdn.jsdelivr.net/gh/hampusborgos/country-flags@main/svg/bs.svg"></image><text x="70" y="180" font-family="Consolas" font-size="50" text-anchor="middle" fill="white">10%</text><text x="70" y="373.846153846154" font-family="Consolas" font-size="50" text-anchor="middle" fill="white">5%</text><text x="70" y="567.692307692308" font-family="Consolas" font-size="50" text-anchor="middle" fill="white">0%</text><text x="70" y="793.846153846154" font-family="Consolas" font-size="50" text-anchor="middle" fill="white">-5.5%</text><text x="70" y="1020" font-family="Consolas" font-size="50" text-anchor="middle" fill="white">-11%</text><line  x1="141.54" y1="180" x2="141.54" y2="1020" stroke="white" stroke-width="2"/><line x1="141.54"  y1="567.692307692308" x2="1920" y2="567.692307692308" stroke="white" stroke-width="5"/><g><rect x="171.54" y="503.076923076923" width="100" height="64.62" fill="none" stroke="limegreen" stroke-width="2"/><rect x="319.25" y="486.923076923077" width="100" height="80.77" fill="none" stroke="limegreen" stroke-width="2"/><rect x="614.67" y="232.5" width="100" height="335.19" fill="none" stroke="limegreen" stroke-width="2"/><rect x="762.38" y="180" width="100" height="387.69" fill="none" stroke="limegreen" stroke-width="2"/><rect x="910.09" y="511.153846153846" width="100" height="56.54" fill="none" stroke="limegreen" stroke-width="2"/><rect x="1057.8" y="511.153846153846" width="100" height="56.54" fill="none" stroke="limegreen" stroke-width="2"/><rect x="1205.51" y="503.076923076923" width="100" height="64.62" fill="none" stroke="limegreen" stroke-width="2"/><rect x="1353.22" y="507.115384615385" width="100" height="60.58" fill="none" stroke="limegreen" stroke-width="2"/><rect x="1500.93" y="507.115384615385" width="100" height="60.58" fill="none" stroke="limegreen" stroke-width="2"/><rect x="1648.64" y="507.115384615385" width="100" height="60.58" fill="none" stroke="limegreen" stroke-width="2"/><rect x="1796.35" y="507.115384615385" width="100" height="60.58" fill="none" stroke="limegreen" stroke-width="2"/> <rect x="466.96" y="567.692307692308" width="100" height="452.31" fill="none" stroke="limegreen" stroke-width="2"/> </g><g><text x="221.54" y="493.08" font-family="Consolas" font-size="48" text-anchor="middle" fill="white">1.6</text><text x="369.25" y="476.92" font-family="Consolas" font-size="48" text-anchor="middle" fill="white">2</text><text x="664.67" y="222.5" font-family="Consolas" font-size="48" text-anchor="middle" fill="white">8.3</text><text x="812.38" y="170" font-family="Consolas" font-size="48" text-anchor="middle" fill="white">9.6</text><text x="960.09" y="501.15" font-family="Consolas" font-size="48" text-anchor="middle" fill="white">1.4</text><text x="1107.8" y="501.15" font-family="Consolas" font-size="48" text-anchor="middle" fill="white">1.4</text><text x="1255.51" y="493.08" font-family="Consolas" font-size="48" text-anchor="middle" fill="white">1.6</text><text x="1403.22" y="497.12" font-family="Consolas" font-size="48" text-anchor="middle" fill="white">1.5</text><text x="1550.93" y="497.12" font-family="Consolas" font-size="48" text-anchor="middle" fill="white">1.5</text><text x="1698.64" y="497.12" font-family="Consolas" font-size="48" text-anchor="middle" fill="white">1.5</text><text x="1846.35" y="497.12" font-family="Consolas" font-size="48" text-anchor="middle" fill="white">1.5</text> <text x="466.96" y="1010" font-family="Consolas" font-size="48" ttext-anchor="middle" fill="white">-11.2</text></g><g><text x="231.54" y="582.692307692308" transform="rotate(270 221.54 567.692307692308)" font-family="Consolas" font-size="50" fill="limegreen">2018</text><text x="379.25" y="582.692307692308" transform="rotate(270 369.25 567.692307692308)" font-family="Consolas" font-size="50" fill="limegreen">2019</text><text x="526.96" y="582.692307692308" transform="rotate(270 516.96 567.692307692308)" font-family="Consolas" font-size="50" fill="limegreen">2020</text><text x="674.67" y="582.692307692308" transform="rotate(270 664.67 567.692307692308)" font-family="Consolas" font-size="50" fill="limegreen">2021</text><text x="822.38" y="582.692307692308" transform="rotate(270 812.38 567.692307692308)" font-family="Consolas" font-size="50" fill="limegreen">2022</text><text x="970.09" y="582.692307692308" transform="rotate(270 960.09 567.692307692308)" font-family="Consolas" font-size="50" fill="limegreen">2023</text><text x="1117.8" y="582.692307692308" transform="rotate(270 1107.8 567.692307692308)" font-family="Consolas" font-size="50" fill="limegreen">2024</text><text x="1265.51" y="582.692307692308" transform="rotate(270 1255.51 567.692307692308)" font-family="Consolas" font-size="50" fill="limegreen">2025</text><text x="1413.22" y="582.692307692308" transform="rotate(270 1403.22 567.692307692308)" font-family="Consolas" font-size="50" fill="limegreen">2026</text><text x="1560.93" y="582.692307692308" transform="rotate(270 1550.93 567.692307692308)" font-family="Consolas" font-size="50" fill="limegreen">2027</text><text x="1708.64" y="582.692307692308" transform="rotate(270 1698.64 567.692307692308)" font-family="Consolas" font-size="50" fill="limegreen">2028</text><text x="1856.35" y="582.692307692308" transform="rotate(270 1846.35 567.692307692308)" font-family="Consolas" font-size="50" fill="limegreen">2029</text></g></g></svg>
