<svg xmlns="http://www.w3.org/2000/svg" width="1920" height="1080"> <rect width="100%" height="100%" fill="#000"/><g xmlns="http://www.w3.org/2000/svg" transform="translate(0,0) scale(1.0)"> <text  x="1080" y="60" font-family="Consolas" font-size="52" text-anchor="middle" fill="white">REAL  GDP ANNUAL PERCENT CHANGE (2018-2029) [IMF DATA]</text><text  x="1700" y="1050" font-family="Consolas" font-size="22" text-anchor="middle" fill="white">DESIGNED BY ZOOMIT WORLD</text><image x="180" y="-50" width="280" height="280" href="https://cdn.jsdelivr.net/gh/hampusborgos/country-flags@main/svg/bs.svg"></image><text x="70" y="180" font-family="Consolas" font-size="50" text-anchor="middle" fill="white">6%</text><text x="70" y="516" font-family="Consolas" font-size="50" text-anchor="middle" fill="white">3%</text><text x="70" y="852" font-family="Consolas" font-size="50" text-anchor="middle" fill="white">0%</text><text x="70" y="936" font-family="Consolas" font-size="50" text-anchor="middle" fill="white">-0.5%</text><text x="70" y="1020" font-family="Consolas" font-size="50" text-anchor="middle" fill="white">-1%</text><line  x1="141.54" y1="180" x2="141.54" y2="1020" stroke="white" stroke-width="2"/><line x1="141.54"  y1="852" x2="1920" y2="852" stroke="white" stroke-width="5"/><g><rect x="171.54" y="432" width="100" height="420.00" fill="none" stroke="limegreen" stroke-width="2"/><rect x="319.25" y="480" width="100" height="372.00" fill="none" stroke="limegreen" stroke-width="2"/><rect x="614.67" y="180" width="100" height="672.00" fill="none" stroke="limegreen" stroke-width="2"/><rect x="762.38" y="564" width="100" height="288.00" fill="none" stroke="limegreen" stroke-width="2"/><rect x="910.09" y="780" width="100" height="72.00" fill="none" stroke="limegreen" stroke-width="2"/><rect x="1205.51" y="624" width="100" height="228.00" fill="none" stroke="limegreen" stroke-width="2"/><rect x="1353.22" y="564" width="100" height="288.00" fill="none" stroke="limegreen" stroke-width="2"/><rect x="1500.93" y="564" width="100" height="288.00" fill="none" stroke="limegreen" stroke-width="2"/><rect x="1648.64" y="564" width="100" height="288.00" fill="none" stroke="limegreen" stroke-width="2"/><rect x="1796.35" y="564" width="100" height="288.00" fill="none" stroke="limegreen" stroke-width="2"/> <rect x="466.96" y="852" width="100" height="168.00" fill="none" stroke="limegreen" stroke-width="2"/> </g><g><text x="221.54" y="422" font-family="Consolas" font-size="48" text-anchor="middle" fill="white">3.5</text><text x="369.25" y="470" font-family="Consolas" font-size="48" text-anchor="middle" fill="white">3.1</text><text x="664.67" y="170" font-family="Consolas" font-size="48" text-anchor="middle" fill="white">5.6</text><text x="812.38" y="554" font-family="Consolas" font-size="48" text-anchor="middle" fill="white">2.4</text><text x="960.09" y="770" font-family="Consolas" font-size="48" text-anchor="middle" fill="white">0.6</text><text x="1255.51" y="614" font-family="Consolas" font-size="48" text-anchor="middle" fill="white">1.9</text><text x="1403.22" y="554" font-family="Consolas" font-size="48" text-anchor="middle" fill="white">2.4</text><text x="1550.93" y="554" font-family="Consolas" font-size="48" text-anchor="middle" fill="white">2.4</text><text x="1698.64" y="554" font-family="Consolas" font-size="48" text-anchor="middle" fill="white">2.4</text><text x="1846.35" y="554" font-family="Consolas" font-size="48" text-anchor="middle" fill="white">2.4</text> <text x="466.96" y="1010" font-family="Consolas" font-size="48" ttext-anchor="middle" fill="white">-1.4</text></g><g><text x="231.54" y="867" transform="rotate(270 221.54 852)" font-family="Consolas" font-size="50" fill="limegreen">2018</text><text x="379.25" y="867" transform="rotate(270 369.25 852)" font-family="Consolas" font-size="50" fill="limegreen">2019</text><text x="526.96" y="867" transform="rotate(270 516.96 852)" font-family="Consolas" font-size="50" fill="limegreen">2020</text><text x="674.67" y="867" transform="rotate(270 664.67 852)" font-family="Consolas" font-size="50" fill="limegreen">2021</text><text x="822.38" y="867" transform="rotate(270 812.38 852)" font-family="Consolas" font-size="50" fill="limegreen">2022</text><text x="970.09" y="867" transform="rotate(270 960.09 852)" font-family="Consolas" font-size="50" fill="limegreen">2023</text><text x="1117.8" y="867" transform="rotate(270 1107.8 852)" font-family="Consolas" font-size="50" fill="limegreen">2024</text><text x="1265.51" y="867" transform="rotate(270 1255.51 852)" font-family="Consolas" font-size="50" fill="limegreen">2025</text><text x="1413.22" y="867" transform="rotate(270 1403.22 852)" font-family="Consolas" font-size="50" fill="limegreen">2026</text><text x="1560.93" y="867" transform="rotate(270 1550.93 852)" font-family="Consolas" font-size="50" fill="limegreen">2027</text><text x="1708.64" y="867" transform="rotate(270 1698.64 852)" font-family="Consolas" font-size="50" fill="limegreen">2028</text><text x="1856.35" y="867" transform="rotate(270 1846.35 852)" font-family="Consolas" font-size="50" fill="limegreen">2029</text></g></g></svg>
