<svg xmlns="http://www.w3.org/2000/svg" width="1920" height="1080"> <rect width="100%" height="100%" fill="#000"/><g xmlns="http://www.w3.org/2000/svg" transform="translate(0,0) scale(1.0)"> <text  x="1080" y="60" font-family="Consolas" font-size="52" text-anchor="middle" fill="white">REAL  GDP ANNUAL PERCENT CHANGE (2018-2029) [IMF DATA]</text><text  x="1700" y="1050" font-family="Consolas" font-size="22" text-anchor="middle" fill="white">DESIGNED BY ZOOMIT WORLD</text><image x="180" y="-50" width="280" height="280" href="https://cdn.jsdelivr.net/gh/hampusborgos/country-flags@main/svg/bs.svg"></image><text x="70" y="180" font-family="Consolas" font-size="50" text-anchor="middle" fill="white">5%</text><text x="70" y="346.119402985075" font-family="Consolas" font-size="50" text-anchor="middle" fill="white">2.5%</text><text x="70" y="512.238805970149" font-family="Consolas" font-size="50" text-anchor="middle" fill="white">0%</text><text x="70" y="766.119402985075" font-family="Consolas" font-size="50" text-anchor="middle" fill="white">-4%</text><text x="70" y="1020" font-family="Consolas" font-size="50" text-anchor="middle" fill="white">-8%</text><line  x1="141.54" y1="180" x2="141.54" y2="1020" stroke="white" stroke-width="2"/><line x1="141.54"  y1="512.238805970149" x2="1920" y2="512.238805970149" stroke="white" stroke-width="5"/><g><rect x="171.54" y="443.283582089552" width="100" height="68.96" fill="none" stroke="limegreen" stroke-width="2"/><rect x="614.67" y="286.567164179104" width="100" height="225.67" fill="none" stroke="limegreen" stroke-width="2"/><rect x="762.38" y="180" width="100" height="332.24" fill="none" stroke="limegreen" stroke-width="2"/><rect x="910.09" y="248.955223880597" width="100" height="263.28" fill="none" stroke="limegreen" stroke-width="2"/><rect x="1057.8" y="317.910447761194" width="100" height="194.33" fill="none" stroke="limegreen" stroke-width="2"/><rect x="1205.51" y="248.955223880597" width="100" height="263.28" fill="none" stroke="limegreen" stroke-width="2"/><rect x="1353.22" y="299.10447761194" width="100" height="213.13" fill="none" stroke="limegreen" stroke-width="2"/><rect x="1500.93" y="355.522388059702" width="100" height="156.72" fill="none" stroke="limegreen" stroke-width="2"/><rect x="1648.64" y="349.253731343284" width="100" height="162.99" fill="none" stroke="limegreen" stroke-width="2"/><rect x="1796.35" y="349.253731343284" width="100" height="162.99" fill="none" stroke="limegreen" stroke-width="2"/> <rect x="319.25" y="512.238805970149" width="100" height="50.15" fill="none" stroke="limegreen" stroke-width="2"/><rect x="466.96" y="512.238805970149" width="100" height="507.76" fill="none" stroke="limegreen" stroke-width="2"/> </g><g><text x="221.54" y="433.28" font-family="Consolas" font-size="48" text-anchor="middle" fill="white">1.1</text><text x="664.67" y="276.57" font-family="Consolas" font-size="48" text-anchor="middle" fill="white">3.6</text><text x="812.38" y="170" font-family="Consolas" font-size="48" text-anchor="middle" fill="white">5.3</text><text x="960.09" y="238.96" font-family="Consolas" font-size="48" text-anchor="middle" fill="white">4.2</text><text x="1107.8" y="307.91" font-family="Consolas" font-size="48" text-anchor="middle" fill="white">3.1</text><text x="1255.51" y="238.96" font-family="Consolas" font-size="48" text-anchor="middle" fill="white">4.2</text><text x="1403.22" y="289.1" font-family="Consolas" font-size="48" text-anchor="middle" fill="white">3.4</text><text x="1550.93" y="345.52" font-family="Consolas" font-size="48" text-anchor="middle" fill="white">2.5</text><text x="1698.64" y="339.25" font-family="Consolas" font-size="48" text-anchor="middle" fill="white">2.6</text><text x="1846.35" y="339.25" font-family="Consolas" font-size="48" text-anchor="middle" fill="white">2.6</text> <text x="319.25" y="552.388059701493" font-family="Consolas" font-size="48" ttext-anchor="middle" fill="white">-0.8</text><text x="466.96" y="1010" font-family="Consolas" font-size="48" ttext-anchor="middle" fill="white">-8.1</text></g><g><text x="231.54" y="527.238805970149" transform="rotate(270 221.54 512.238805970149)" font-family="Consolas" font-size="50" fill="limegreen">2018</text><text x="379.25" y="527.238805970149" transform="rotate(270 369.25 512.238805970149)" font-family="Consolas" font-size="50" fill="limegreen">2019</text><text x="526.96" y="527.238805970149" transform="rotate(270 516.96 512.238805970149)" font-family="Consolas" font-size="50" fill="limegreen">2020</text><text x="674.67" y="527.238805970149" transform="rotate(270 664.67 512.238805970149)" font-family="Consolas" font-size="50" fill="limegreen">2021</text><text x="822.38" y="527.238805970149" transform="rotate(270 812.38 512.238805970149)" font-family="Consolas" font-size="50" fill="limegreen">2022</text><text x="970.09" y="527.238805970149" transform="rotate(270 960.09 512.238805970149)" font-family="Consolas" font-size="50" fill="limegreen">2023</text><text x="1117.8" y="527.238805970149" transform="rotate(270 1107.8 512.238805970149)" font-family="Consolas" font-size="50" fill="limegreen">2024</text><text x="1265.51" y="527.238805970149" transform="rotate(270 1255.51 512.238805970149)" font-family="Consolas" font-size="50" fill="limegreen">2025</text><text x="1413.22" y="527.238805970149" transform="rotate(270 1403.22 512.238805970149)" font-family="Consolas" font-size="50" fill="limegreen">2026</text><text x="1560.93" y="527.238805970149" transform="rotate(270 1550.93 512.238805970149)" font-family="Consolas" font-size="50" fill="limegreen">2027</text><text x="1708.64" y="527.238805970149" transform="rotate(270 1698.64 512.238805970149)" font-family="Consolas" font-size="50" fill="limegreen">2028</text><text x="1856.35" y="527.238805970149" transform="rotate(270 1846.35 512.238805970149)" font-family="Consolas" font-size="50" fill="limegreen">2029</text></g></g></svg>
