<svg xmlns="http://www.w3.org/2000/svg" width="1920" height="1080"> <rect width="100%" height="100%" fill="#000"/><g xmlns="http://www.w3.org/2000/svg" transform="translate(0,0) scale(1.0)"> <text  x="1080" y="60" font-family="Consolas" font-size="52" text-anchor="middle" fill="white">REAL  GDP ANNUAL PERCENT CHANGE (2018-2029) [IMF DATA]</text><text  x="1780" y="1050" font-family="Consolas" font-size="32" text-anchor="middle" fill="white">ZOOMIT WORLD</text><image x="180" y="-50" width="280" height="280" href="https://cdn.jsdelivr.net/gh/hampusborgos/country-flags@main/svg/il.svg"></image><text x="70" y="180" font-family="Consolas" font-size="50" text-anchor="middle" fill="white">10%</text><text x="70" y="542.727272727273" font-family="Consolas" font-size="50" text-anchor="middle" fill="white">5%</text><text x="70" y="905.454545454545" font-family="Consolas" font-size="50" text-anchor="middle" fill="white">0%</text><text x="70" y="962.727272727273" font-family="Consolas" font-size="50" text-anchor="middle" fill="white">-1%</text><text x="70" y="1020" font-family="Consolas" font-size="50" text-anchor="middle" fill="white">-2%</text><line  x1="141.54" y1="180" x2="141.54" y2="1020" stroke="white" stroke-width="2"/><line x1="141.54"  y1="905.454545454545" x2="1920" y2="905.454545454545" stroke="white" stroke-width="5"/><g><rect x="171.54" y="592.363636363636" width="100" height="313.09" fill="none" stroke="limegreen" stroke-width="2"/><rect x="319.25" y="615.272727272727" width="100" height="290.18" fill="none" stroke="limegreen" stroke-width="2"/><rect x="614.67" y="180" width="100" height="725.45" fill="none" stroke="limegreen" stroke-width="2"/><rect x="762.38" y="416.727272727273" width="100" height="488.73" fill="none" stroke="limegreen" stroke-width="2"/><rect x="910.09" y="752.727272727273" width="100" height="152.73" fill="none" stroke="limegreen" stroke-width="2"/><rect x="1057.8" y="852" width="100" height="53.45" fill="none" stroke="limegreen" stroke-width="2"/><rect x="1205.51" y="699.272727272727" width="100" height="206.18" fill="none" stroke="limegreen" stroke-width="2"/><rect x="1353.22" y="538.909090909091" width="100" height="366.55" fill="none" stroke="limegreen" stroke-width="2"/><rect x="1500.93" y="668.727272727273" width="100" height="236.73" fill="none" stroke="limegreen" stroke-width="2"/><rect x="1648.64" y="653.454545454545" width="100" height="252.00" fill="none" stroke="limegreen" stroke-width="2"/><rect x="1796.35" y="645.818181818182" width="100" height="259.64" fill="none" stroke="limegreen" stroke-width="2"/> <rect x="466.96" y="905.454545454545" width="100" height="114.55" fill="none" stroke="limegreen" stroke-width="2"/> </g><g><text x="221.54" y="582.36" font-family="Consolas" font-size="48" text-anchor="middle" fill="white">4.1</text><text x="369.25" y="605.27" font-family="Consolas" font-size="48" text-anchor="middle" fill="white">3.8</text><text x="664.67" y="170" font-family="Consolas" font-size="48" text-anchor="middle" fill="white">9.5</text><text x="812.38" y="406.73" font-family="Consolas" font-size="48" text-anchor="middle" fill="white">6.4</text><text x="960.09" y="742.73" font-family="Consolas" font-size="48" text-anchor="middle" fill="white">2</text><text x="1107.8" y="842" font-family="Consolas" font-size="48" text-anchor="middle" fill="white">0.7</text><text x="1255.51" y="689.27" font-family="Consolas" font-size="48" text-anchor="middle" fill="white">2.7</text><text x="1403.22" y="528.91" font-family="Consolas" font-size="48" text-anchor="middle" fill="white">4.8</text><text x="1550.93" y="658.73" font-family="Consolas" font-size="48" text-anchor="middle" fill="white">3.1</text><text x="1698.64" y="643.45" font-family="Consolas" font-size="48" text-anchor="middle" fill="white">3.3</text><text x="1846.35" y="635.82" font-family="Consolas" font-size="48" text-anchor="middle" fill="white">3.4</text> <text x="466.96" y="1010" font-family="Consolas" font-size="48" ttext-anchor="middle" fill="white">-1.5</text></g><g><text x="231.54" y="920.454545454545" transform="rotate(270 221.54 905.454545454545)" font-family="Consolas" font-size="50" fill="limegreen">2018</text><text x="379.25" y="920.454545454545" transform="rotate(270 369.25 905.454545454545)" font-family="Consolas" font-size="50" fill="limegreen">2019</text><text x="526.96" y="920.454545454545" transform="rotate(270 516.96 905.454545454545)" font-family="Consolas" font-size="50" fill="limegreen">2020</text><text x="674.67" y="920.454545454545" transform="rotate(270 664.67 905.454545454545)" font-family="Consolas" font-size="50" fill="limegreen">2021</text><text x="822.38" y="920.454545454545" transform="rotate(270 812.38 905.454545454545)" font-family="Consolas" font-size="50" fill="limegreen">2022</text><text x="970.09" y="920.454545454545" transform="rotate(270 960.09 905.454545454545)" font-family="Consolas" font-size="50" fill="limegreen">2023</text><text x="1117.8" y="920.454545454545" transform="rotate(270 1107.8 905.454545454545)" font-family="Consolas" font-size="50" fill="limegreen">2024</text><text x="1265.51" y="920.454545454545" transform="rotate(270 1255.51 905.454545454545)" font-family="Consolas" font-size="50" fill="limegreen">2025</text><text x="1413.22" y="920.454545454545" transform="rotate(270 1403.22 905.454545454545)" font-family="Consolas" font-size="50" fill="limegreen">2026</text><text x="1560.93" y="920.454545454545" transform="rotate(270 1550.93 905.454545454545)" font-family="Consolas" font-size="50" fill="limegreen">2027</text><text x="1708.64" y="920.454545454545" transform="rotate(270 1698.64 905.454545454545)" font-family="Consolas" font-size="50" fill="limegreen">2028</text><text x="1856.35" y="920.454545454545" transform="rotate(270 1846.35 905.454545454545)" font-family="Consolas" font-size="50" fill="limegreen">2029</text></g></g></svg>
