<svg xmlns="http://www.w3.org/2000/svg" width="1920" height="1080"> <rect width="100%" height="100%" fill="#000"/><g xmlns="http://www.w3.org/2000/svg" transform="translate(0,0) scale(1.0)"> <text  x="1080" y="60" font-family="Consolas" font-size="52" text-anchor="middle" fill="white">REAL  GDP ANNUAL PERCENT CHANGE (2018-2029) [IMF DATA]</text><text  x="1780" y="1050" font-family="Consolas" font-size="32" text-anchor="middle" fill="white">ZOOMIT WORLD</text><image x="180" y="-50" width="280" height="280" href="https://cdn.jsdelivr.net/gh/hampusborgos/country-flags@main/svg/qa.svg"></image><text x="70" y="180" font-family="Consolas" font-size="50" text-anchor="middle" fill="white">8%</text><text x="70" y="468.521739130435" font-family="Consolas" font-size="50" text-anchor="middle" fill="white">4%</text><text x="70" y="757.04347826087" font-family="Consolas" font-size="50" text-anchor="middle" fill="white">0%</text><text x="70" y="888.521739130435" font-family="Consolas" font-size="50" text-anchor="middle" fill="white">-2%</text><text x="70" y="1020" font-family="Consolas" font-size="50" text-anchor="middle" fill="white">-4%</text><line  x1="141.54" y1="180" x2="141.54" y2="1020" stroke="white" stroke-width="2"/><line x1="141.54"  y1="757.04347826087" x2="1920" y2="757.04347826087" stroke="white" stroke-width="5"/><g><rect x="171.54" y="669.391304347826" width="100" height="87.65" fill="none" stroke="limegreen" stroke-width="2"/><rect x="319.25" y="705.913043478261" width="100" height="51.13" fill="none" stroke="limegreen" stroke-width="2"/><rect x="614.67" y="640.173913043478" width="100" height="116.87" fill="none" stroke="limegreen" stroke-width="2"/><rect x="762.38" y="450.260869565217" width="100" height="306.78" fill="none" stroke="limegreen" stroke-width="2"/><rect x="910.09" y="669.391304347826" width="100" height="87.65" fill="none" stroke="limegreen" stroke-width="2"/><rect x="1057.8" y="647.478260869565" width="100" height="109.57" fill="none" stroke="limegreen" stroke-width="2"/><rect x="1205.51" y="618.260869565217" width="100" height="138.78" fill="none" stroke="limegreen" stroke-width="2"/><rect x="1353.22" y="333.391304347826" width="100" height="423.65" fill="none" stroke="limegreen" stroke-width="2"/><rect x="1500.93" y="180" width="100" height="577.04" fill="none" stroke="limegreen" stroke-width="2"/><rect x="1648.64" y="501.391304347826" width="100" height="255.65" fill="none" stroke="limegreen" stroke-width="2"/><rect x="1796.35" y="640.173913043478" width="100" height="116.87" fill="none" stroke="limegreen" stroke-width="2"/> <rect x="466.96" y="757.04347826087" width="100" height="262.96" fill="none" stroke="limegreen" stroke-width="2"/> </g><g><text x="221.54" y="659.39" font-family="Consolas" font-size="48" text-anchor="middle" fill="white">1.2</text><text x="369.25" y="695.91" font-family="Consolas" font-size="48" text-anchor="middle" fill="white">0.7</text><text x="664.67" y="630.17" font-family="Consolas" font-size="48" text-anchor="middle" fill="white">1.6</text><text x="812.38" y="440.26" font-family="Consolas" font-size="48" text-anchor="middle" fill="white">4.2</text><text x="960.09" y="659.39" font-family="Consolas" font-size="48" text-anchor="middle" fill="white">1.2</text><text x="1107.8" y="637.48" font-family="Consolas" font-size="48" text-anchor="middle" fill="white">1.5</text><text x="1255.51" y="608.26" font-family="Consolas" font-size="48" text-anchor="middle" fill="white">1.9</text><text x="1403.22" y="323.39" font-family="Consolas" font-size="48" text-anchor="middle" fill="white">5.8</text><text x="1550.93" y="170" font-family="Consolas" font-size="48" text-anchor="middle" fill="white">7.9</text><text x="1698.64" y="491.39" font-family="Consolas" font-size="48" text-anchor="middle" fill="white">3.5</text><text x="1846.35" y="630.17" font-family="Consolas" font-size="48" text-anchor="middle" fill="white">1.6</text> <text x="466.96" y="1010" font-family="Consolas" font-size="48" ttext-anchor="middle" fill="white">-3.6</text></g><g><text x="231.54" y="772.04347826087" transform="rotate(270 221.54 757.04347826087)" font-family="Consolas" font-size="50" fill="limegreen">2018</text><text x="379.25" y="772.04347826087" transform="rotate(270 369.25 757.04347826087)" font-family="Consolas" font-size="50" fill="limegreen">2019</text><text x="526.96" y="772.04347826087" transform="rotate(270 516.96 757.04347826087)" font-family="Consolas" font-size="50" fill="limegreen">2020</text><text x="674.67" y="772.04347826087" transform="rotate(270 664.67 757.04347826087)" font-family="Consolas" font-size="50" fill="limegreen">2021</text><text x="822.38" y="772.04347826087" transform="rotate(270 812.38 757.04347826087)" font-family="Consolas" font-size="50" fill="limegreen">2022</text><text x="970.09" y="772.04347826087" transform="rotate(270 960.09 757.04347826087)" font-family="Consolas" font-size="50" fill="limegreen">2023</text><text x="1117.8" y="772.04347826087" transform="rotate(270 1107.8 757.04347826087)" font-family="Consolas" font-size="50" fill="limegreen">2024</text><text x="1265.51" y="772.04347826087" transform="rotate(270 1255.51 757.04347826087)" font-family="Consolas" font-size="50" fill="limegreen">2025</text><text x="1413.22" y="772.04347826087" transform="rotate(270 1403.22 757.04347826087)" font-family="Consolas" font-size="50" fill="limegreen">2026</text><text x="1560.93" y="772.04347826087" transform="rotate(270 1550.93 757.04347826087)" font-family="Consolas" font-size="50" fill="limegreen">2027</text><text x="1708.64" y="772.04347826087" transform="rotate(270 1698.64 757.04347826087)" font-family="Consolas" font-size="50" fill="limegreen">2028</text><text x="1856.35" y="772.04347826087" transform="rotate(270 1846.35 757.04347826087)" font-family="Consolas" font-size="50" fill="limegreen">2029</text></g></g></svg>
