<svg xmlns="http://www.w3.org/2000/svg" width="1920" height="1080"> <rect width="100%" height="100%" fill="#000"/><g xmlns="http://www.w3.org/2000/svg" transform="translate(0,0) scale(1.0)"> <text  x="1080" y="60" font-family="Consolas" font-size="52" text-anchor="middle" fill="white">REAL  GDP ANNUAL PERCENT CHANGE (2018-2029) [IMF DATA]</text><text  x="1700" y="1050" font-family="Consolas" font-size="22" text-anchor="middle" fill="white">DESIGNED BY ZOOMIT WORLD</text><image x="180" y="-50" width="280" height="280" href="https://cdn.jsdelivr.net/gh/hampusborgos/country-flags@main/svg/bs.svg"></image><text x="70" y="180" font-family="Consolas" font-size="50" text-anchor="middle" fill="white">7%</text><text x="70" y="505.61797752809" font-family="Consolas" font-size="50" text-anchor="middle" fill="white">3.5%</text><text x="70" y="831.23595505618" font-family="Consolas" font-size="50" text-anchor="middle" fill="white">0%</text><text x="70" y="925.61797752809" font-family="Consolas" font-size="50" text-anchor="middle" fill="white">-1%</text><text x="70" y="1020" font-family="Consolas" font-size="50" text-anchor="middle" fill="white">-2%</text><line  x1="141.54" y1="180" x2="141.54" y2="1020" stroke="white" stroke-width="2"/><line x1="141.54"  y1="831.23595505618" x2="1920" y2="831.23595505618" stroke="white" stroke-width="5"/><g><rect x="171.54" y="274.38202247191" width="100" height="556.85" fill="none" stroke="limegreen" stroke-width="2"/><rect x="319.25" y="415.955056179775" width="100" height="415.28" fill="none" stroke="limegreen" stroke-width="2"/><rect x="614.67" y="180" width="100" height="651.24" fill="none" stroke="limegreen" stroke-width="2"/><rect x="762.38" y="302.696629213483" width="100" height="528.54" fill="none" stroke="limegreen" stroke-width="2"/><rect x="910.09" y="812.359550561798" width="100" height="18.88" fill="none" stroke="limegreen" stroke-width="2"/><rect x="1057.8" y="548.089887640449" width="100" height="283.15" fill="none" stroke="limegreen" stroke-width="2"/><rect x="1205.51" y="500.898876404494" width="100" height="330.34" fill="none" stroke="limegreen" stroke-width="2"/><rect x="1353.22" y="510.337078651685" width="100" height="320.90" fill="none" stroke="limegreen" stroke-width="2"/><rect x="1500.93" y="538.651685393259" width="100" height="292.58" fill="none" stroke="limegreen" stroke-width="2"/><rect x="1648.64" y="548.089887640449" width="100" height="283.15" fill="none" stroke="limegreen" stroke-width="2"/><rect x="1796.35" y="557.528089887641" width="100" height="273.71" fill="none" stroke="limegreen" stroke-width="2"/> <rect x="466.96" y="831.23595505618" width="100" height="188.76" fill="none" stroke="limegreen" stroke-width="2"/> </g><g><text x="221.54" y="264.38" font-family="Consolas" font-size="48" text-anchor="middle" fill="white">5.9</text><text x="369.25" y="405.96" font-family="Consolas" font-size="48" text-anchor="middle" fill="white">4.4</text><text x="664.67" y="170" font-family="Consolas" font-size="48" text-anchor="middle" fill="white">6.9</text><text x="812.38" y="292.7" font-family="Consolas" font-size="48" text-anchor="middle" fill="white">5.6</text><text x="960.09" y="802.36" font-family="Consolas" font-size="48" text-anchor="middle" fill="white">0.2</text><text x="1107.8" y="538.09" font-family="Consolas" font-size="48" text-anchor="middle" fill="white">3</text><text x="1255.51" y="490.9" font-family="Consolas" font-size="48" text-anchor="middle" fill="white">3.5</text><text x="1403.22" y="500.34" font-family="Consolas" font-size="48" text-anchor="middle" fill="white">3.4</text><text x="1550.93" y="528.65" font-family="Consolas" font-size="48" text-anchor="middle" fill="white">3.1</text><text x="1698.64" y="538.09" font-family="Consolas" font-size="48" text-anchor="middle" fill="white">3</text><text x="1846.35" y="547.53" font-family="Consolas" font-size="48" text-anchor="middle" fill="white">2.9</text> <text x="466.96" y="1010" font-family="Consolas" font-size="48" ttext-anchor="middle" fill="white">-2</text></g><g><text x="231.54" y="846.23595505618" transform="rotate(270 221.54 831.23595505618)" font-family="Consolas" font-size="50" fill="limegreen">2018</text><text x="379.25" y="846.23595505618" transform="rotate(270 369.25 831.23595505618)" font-family="Consolas" font-size="50" fill="limegreen">2019</text><text x="526.96" y="846.23595505618" transform="rotate(270 516.96 831.23595505618)" font-family="Consolas" font-size="50" fill="limegreen">2020</text><text x="674.67" y="846.23595505618" transform="rotate(270 664.67 831.23595505618)" font-family="Consolas" font-size="50" fill="limegreen">2021</text><text x="822.38" y="846.23595505618" transform="rotate(270 812.38 831.23595505618)" font-family="Consolas" font-size="50" fill="limegreen">2022</text><text x="970.09" y="846.23595505618" transform="rotate(270 960.09 831.23595505618)" font-family="Consolas" font-size="50" fill="limegreen">2023</text><text x="1117.8" y="846.23595505618" transform="rotate(270 1107.8 831.23595505618)" font-family="Consolas" font-size="50" fill="limegreen">2024</text><text x="1265.51" y="846.23595505618" transform="rotate(270 1255.51 831.23595505618)" font-family="Consolas" font-size="50" fill="limegreen">2025</text><text x="1413.22" y="846.23595505618" transform="rotate(270 1403.22 831.23595505618)" font-family="Consolas" font-size="50" fill="limegreen">2026</text><text x="1560.93" y="846.23595505618" transform="rotate(270 1550.93 831.23595505618)" font-family="Consolas" font-size="50" fill="limegreen">2027</text><text x="1708.64" y="846.23595505618" transform="rotate(270 1698.64 831.23595505618)" font-family="Consolas" font-size="50" fill="limegreen">2028</text><text x="1856.35" y="846.23595505618" transform="rotate(270 1846.35 831.23595505618)" font-family="Consolas" font-size="50" fill="limegreen">2029</text></g></g></svg>
