<svg xmlns="http://www.w3.org/2000/svg" width="1920" height="1080"> <rect width="100%" height="100%" fill="#000"/><g xmlns="http://www.w3.org/2000/svg" transform="translate(0,0) scale(1.0)"> <text  x="1080" y="60" font-family="Consolas" font-size="52" text-anchor="middle" fill="white">REAL  GDP ANNUAL PERCENT CHANGE (2018-2029) [IMF DATA]</text><text  x="1780" y="1050" font-family="Consolas" font-size="32" text-anchor="middle" fill="white">ZOOMIT WORLD</text><image x="180" y="-50" width="280" height="280" href="https://cdn.jsdelivr.net/gh/hampusborgos/country-flags@main/svg/ir.svg"></image><text x="70" y="180" font-family="Consolas" font-size="50" text-anchor="middle" fill="white">5%</text><text x="70" y="439.259259259259" font-family="Consolas" font-size="50" text-anchor="middle" fill="white">2.5%</text><text x="70" y="698.518518518519" font-family="Consolas" font-size="50" text-anchor="middle" fill="white">0%</text><text x="70" y="859.259259259259" font-family="Consolas" font-size="50" text-anchor="middle" fill="white">-1.5%</text><text x="70" y="1020" font-family="Consolas" font-size="50" text-anchor="middle" fill="white">-3%</text><line  x1="141.54" y1="180" x2="141.54" y2="1020" stroke="white" stroke-width="2"/><line x1="141.54"  y1="698.518518518519" x2="1920" y2="698.518518518519" stroke="white" stroke-width="5"/><g><rect x="466.96" y="356.296296296296" width="100" height="342.22" fill="none" stroke="limegreen" stroke-width="2"/><rect x="614.67" y="211.111111111111" width="100" height="487.41" fill="none" stroke="limegreen" stroke-width="2"/><rect x="762.38" y="304.444444444445" width="100" height="394.07" fill="none" stroke="limegreen" stroke-width="2"/><rect x="910.09" y="180" width="100" height="518.52" fill="none" stroke="limegreen" stroke-width="2"/><rect x="1057.8" y="314.814814814815" width="100" height="383.70" fill="none" stroke="limegreen" stroke-width="2"/><rect x="1205.51" y="377.037037037037" width="100" height="321.48" fill="none" stroke="limegreen" stroke-width="2"/><rect x="1353.22" y="408.148148148148" width="100" height="290.37" fill="none" stroke="limegreen" stroke-width="2"/><rect x="1500.93" y="449.62962962963" width="100" height="248.89" fill="none" stroke="limegreen" stroke-width="2"/><rect x="1648.64" y="491.111111111111" width="100" height="207.41" fill="none" stroke="limegreen" stroke-width="2"/><rect x="1796.35" y="491.111111111111" width="100" height="207.41" fill="none" stroke="limegreen" stroke-width="2"/> <rect x="171.54" y="698.518518518519" width="100" height="186.67" fill="none" stroke="limegreen" stroke-width="2"/><rect x="319.25" y="698.518518518519" width="100" height="321.48" fill="none" stroke="limegreen" stroke-width="2"/> </g><g><text x="516.96" y="346.3" font-family="Consolas" font-size="48" text-anchor="middle" fill="white">3.3</text><text x="664.67" y="201.11" font-family="Consolas" font-size="48" text-anchor="middle" fill="white">4.7</text><text x="812.38" y="294.44" font-family="Consolas" font-size="48" text-anchor="middle" fill="white">3.8</text><text x="960.09" y="170" font-family="Consolas" font-size="48" text-anchor="middle" fill="white">5</text><text x="1107.8" y="304.81" font-family="Consolas" font-size="48" text-anchor="middle" fill="white">3.7</text><text x="1255.51" y="367.04" font-family="Consolas" font-size="48" text-anchor="middle" fill="white">3.1</text><text x="1403.22" y="398.15" font-family="Consolas" font-size="48" text-anchor="middle" fill="white">2.8</text><text x="1550.93" y="439.63" font-family="Consolas" font-size="48" text-anchor="middle" fill="white">2.4</text><text x="1698.64" y="481.11" font-family="Consolas" font-size="48" text-anchor="middle" fill="white">2</text><text x="1846.35" y="481.11" font-family="Consolas" font-size="48" text-anchor="middle" fill="white">2</text> <text x="171.54" y="875.185185185185" font-family="Consolas" font-size="48" ttext-anchor="middle" fill="white">-1.8</text><text x="319.25" y="1010" font-family="Consolas" font-size="48" ttext-anchor="middle" fill="white">-3.1</text></g><g><text x="231.54" y="713.518518518519" transform="rotate(270 221.54 698.518518518519)" font-family="Consolas" font-size="50" fill="limegreen">2018</text><text x="379.25" y="713.518518518519" transform="rotate(270 369.25 698.518518518519)" font-family="Consolas" font-size="50" fill="limegreen">2019</text><text x="526.96" y="713.518518518519" transform="rotate(270 516.96 698.518518518519)" font-family="Consolas" font-size="50" fill="limegreen">2020</text><text x="674.67" y="713.518518518519" transform="rotate(270 664.67 698.518518518519)" font-family="Consolas" font-size="50" fill="limegreen">2021</text><text x="822.38" y="713.518518518519" transform="rotate(270 812.38 698.518518518519)" font-family="Consolas" font-size="50" fill="limegreen">2022</text><text x="970.09" y="713.518518518519" transform="rotate(270 960.09 698.518518518519)" font-family="Consolas" font-size="50" fill="limegreen">2023</text><text x="1117.8" y="713.518518518519" transform="rotate(270 1107.8 698.518518518519)" font-family="Consolas" font-size="50" fill="limegreen">2024</text><text x="1265.51" y="713.518518518519" transform="rotate(270 1255.51 698.518518518519)" font-family="Consolas" font-size="50" fill="limegreen">2025</text><text x="1413.22" y="713.518518518519" transform="rotate(270 1403.22 698.518518518519)" font-family="Consolas" font-size="50" fill="limegreen">2026</text><text x="1560.93" y="713.518518518519" transform="rotate(270 1550.93 698.518518518519)" font-family="Consolas" font-size="50" fill="limegreen">2027</text><text x="1708.64" y="713.518518518519" transform="rotate(270 1698.64 698.518518518519)" font-family="Consolas" font-size="50" fill="limegreen">2028</text><text x="1856.35" y="713.518518518519" transform="rotate(270 1846.35 698.518518518519)" font-family="Consolas" font-size="50" fill="limegreen">2029</text></g></g></svg>
