<svg xmlns="http://www.w3.org/2000/svg" width="1920" height="1080"> <rect width="100%" height="100%" fill="#000"/><g xmlns="http://www.w3.org/2000/svg" transform="translate(0,0) scale(1.0)"> <text  x="1080" y="60" font-family="Consolas" font-size="52" text-anchor="middle" fill="white">REAL  GDP ANNUAL PERCENT CHANGE (2018-2029) [IMF DATA]</text><text  x="1700" y="1050" font-family="Consolas" font-size="22" text-anchor="middle" fill="white">DESIGNED BY ZOOMIT WORLD</text><image x="180" y="-50" width="280" height="280" href="https://cdn.jsdelivr.net/gh/hampusborgos/country-flags@main/svg/bs.svg"></image><text x="70" y="180" font-family="Consolas" font-size="50" text-anchor="middle" fill="white">81%</text><text x="70" y="430.816023738872" font-family="Consolas" font-size="50" text-anchor="middle" fill="white">40.5%</text><text x="70" y="681.632047477745" font-family="Consolas" font-size="50" text-anchor="middle" fill="white">0%</text><text x="70" y="850.816023738872" font-family="Consolas" font-size="50" text-anchor="middle" fill="white">-27%</text><text x="70" y="1020" font-family="Consolas" font-size="50" text-anchor="middle" fill="white">-54%</text><line  x1="141.54" y1="180" x2="141.54" y2="1020" stroke="white" stroke-width="2"/><line x1="141.54"  y1="681.632047477745" x2="1920" y2="681.632047477745" stroke="white" stroke-width="5"/><g><rect x="171.54" y="641.750741839763" width="100" height="39.88" fill="none" stroke="limegreen" stroke-width="2"/><rect x="614.67" y="535.192878338279" width="100" height="146.44" fill="none" stroke="limegreen" stroke-width="2"/><rect x="910.09" y="180" width="100" height="501.63" fill="none" stroke="limegreen" stroke-width="2"/><rect x="1057.8" y="615.578635014837" width="100" height="66.05" fill="none" stroke="limegreen" stroke-width="2"/><rect x="1205.51" y="636.142433234421" width="100" height="45.49" fill="none" stroke="limegreen" stroke-width="2"/><rect x="1353.22" y="654.213649851632" width="100" height="27.42" fill="none" stroke="limegreen" stroke-width="2"/><rect x="1500.93" y="661.691394658754" width="100" height="19.94" fill="none" stroke="limegreen" stroke-width="2"/><rect x="1648.64" y="662.937685459941" width="100" height="18.69" fill="none" stroke="limegreen" stroke-width="2"/><rect x="1796.35" y="662.937685459941" width="100" height="18.69" fill="none" stroke="limegreen" stroke-width="2"/> <rect x="319.25" y="681.632047477745" width="100" height="16.20" fill="none" stroke="limegreen" stroke-width="2"/><rect x="466.96" y="681.632047477745" width="100" height="338.37" fill="none" stroke="limegreen" stroke-width="2"/><rect x="762.38" y="681.632047477745" width="100" height="133.35" fill="none" stroke="limegreen" stroke-width="2"/> </g><g><text x="221.54" y="631.75" font-family="Consolas" font-size="48" text-anchor="middle" fill="white">6.4</text><text x="664.67" y="525.19" font-family="Consolas" font-size="48" text-anchor="middle" fill="white">23.5</text><text x="960.09" y="170" font-family="Consolas" font-size="48" text-anchor="middle" fill="white">80.5</text><text x="1107.8" y="605.58" font-family="Consolas" font-size="48" text-anchor="middle" fill="white">10.6</text><text x="1255.51" y="626.14" font-family="Consolas" font-size="48" text-anchor="middle" fill="white">7.3</text><text x="1403.22" y="644.21" font-family="Consolas" font-size="48" text-anchor="middle" fill="white">4.4</text><text x="1550.93" y="651.69" font-family="Consolas" font-size="48" text-anchor="middle" fill="white">3.2</text><text x="1698.64" y="652.94" font-family="Consolas" font-size="48" text-anchor="middle" fill="white">3</text><text x="1846.35" y="652.94" font-family="Consolas" font-size="48" text-anchor="middle" fill="white">3</text> <text x="319.25" y="687.833827893175" font-family="Consolas" font-size="48" ttext-anchor="middle" fill="white">-2.6</text><text x="466.96" y="1010" font-family="Consolas" font-size="48" ttext-anchor="middle" fill="white">-54.3</text><text x="762.38" y="804.985163204748" font-family="Consolas" font-size="48" ttext-anchor="middle" fill="white">-21.4</text></g><g><text x="231.54" y="696.632047477745" transform="rotate(270 221.54 681.632047477745)" font-family="Consolas" font-size="50" fill="limegreen">2018</text><text x="379.25" y="696.632047477745" transform="rotate(270 369.25 681.632047477745)" font-family="Consolas" font-size="50" fill="limegreen">2019</text><text x="526.96" y="696.632047477745" transform="rotate(270 516.96 681.632047477745)" font-family="Consolas" font-size="50" fill="limegreen">2020</text><text x="674.67" y="696.632047477745" transform="rotate(270 664.67 681.632047477745)" font-family="Consolas" font-size="50" fill="limegreen">2021</text><text x="822.38" y="696.632047477745" transform="rotate(270 812.38 681.632047477745)" font-family="Consolas" font-size="50" fill="limegreen">2022</text><text x="970.09" y="696.632047477745" transform="rotate(270 960.09 681.632047477745)" font-family="Consolas" font-size="50" fill="limegreen">2023</text><text x="1117.8" y="696.632047477745" transform="rotate(270 1107.8 681.632047477745)" font-family="Consolas" font-size="50" fill="limegreen">2024</text><text x="1265.51" y="696.632047477745" transform="rotate(270 1255.51 681.632047477745)" font-family="Consolas" font-size="50" fill="limegreen">2025</text><text x="1413.22" y="696.632047477745" transform="rotate(270 1403.22 681.632047477745)" font-family="Consolas" font-size="50" fill="limegreen">2026</text><text x="1560.93" y="696.632047477745" transform="rotate(270 1550.93 681.632047477745)" font-family="Consolas" font-size="50" fill="limegreen">2027</text><text x="1708.64" y="696.632047477745" transform="rotate(270 1698.64 681.632047477745)" font-family="Consolas" font-size="50" fill="limegreen">2028</text><text x="1856.35" y="696.632047477745" transform="rotate(270 1846.35 681.632047477745)" font-family="Consolas" font-size="50" fill="limegreen">2029</text></g></g></svg>
