<svg xmlns="http://www.w3.org/2000/svg" width="1920" height="1080"> <rect width="100%" height="100%" fill="#000"/><g xmlns="http://www.w3.org/2000/svg" transform="translate(0,0) scale(1.0)"> <text  x="1080" y="60" font-family="Consolas" font-size="52" text-anchor="middle" fill="white">REAL  GDP ANNUAL PERCENT CHANGE (2018-2029) [IMF DATA]</text><text  x="1780" y="1050" font-family="Consolas" font-size="32" text-anchor="middle" fill="white">ZOOMIT WORLD</text><image x="180" y="-50" width="280" height="280" href="https://cdn.jsdelivr.net/gh/hampusborgos/country-flags@main/svg/dz.svg"></image><text x="70" y="180" font-family="Consolas" font-size="50" text-anchor="middle" fill="white">4%</text><text x="70" y="369.230769230769" font-family="Consolas" font-size="50" text-anchor="middle" fill="white">2%</text><text x="70" y="558.461538461538" font-family="Consolas" font-size="50" text-anchor="middle" fill="white">0%</text><text x="70" y="789.230769230769" font-family="Consolas" font-size="50" text-anchor="middle" fill="white">-2.5%</text><text x="70" y="1020" font-family="Consolas" font-size="50" text-anchor="middle" fill="white">-5%</text><line  x1="141.54" y1="180" x2="141.54" y2="1020" stroke="white" stroke-width="2"/><line x1="141.54"  y1="558.461538461538" x2="1920" y2="558.461538461538" stroke="white" stroke-width="5"/><g><rect x="171.54" y="429.230769230769" width="100" height="129.23" fill="none" stroke="limegreen" stroke-width="2"/><rect x="319.25" y="475.384615384615" width="100" height="83.08" fill="none" stroke="limegreen" stroke-width="2"/><rect x="614.67" y="207.692307692308" width="100" height="350.77" fill="none" stroke="limegreen" stroke-width="2"/><rect x="762.38" y="226.153846153846" width="100" height="332.31" fill="none" stroke="limegreen" stroke-width="2"/><rect x="910.09" y="180" width="100" height="378.46" fill="none" stroke="limegreen" stroke-width="2"/><rect x="1057.8" y="207.692307692308" width="100" height="350.77" fill="none" stroke="limegreen" stroke-width="2"/><rect x="1205.51" y="281.538461538461" width="100" height="276.92" fill="none" stroke="limegreen" stroke-width="2"/><rect x="1353.22" y="327.692307692308" width="100" height="230.77" fill="none" stroke="limegreen" stroke-width="2"/><rect x="1500.93" y="364.615384615384" width="100" height="193.85" fill="none" stroke="limegreen" stroke-width="2"/><rect x="1648.64" y="364.615384615384" width="100" height="193.85" fill="none" stroke="limegreen" stroke-width="2"/><rect x="1796.35" y="364.615384615384" width="100" height="193.85" fill="none" stroke="limegreen" stroke-width="2"/> <rect x="466.96" y="558.461538461538" width="100" height="461.54" fill="none" stroke="limegreen" stroke-width="2"/> </g><g><text x="221.54" y="419.23" font-family="Consolas" font-size="48" text-anchor="middle" fill="white">1.4</text><text x="369.25" y="465.38" font-family="Consolas" font-size="48" text-anchor="middle" fill="white">0.9</text><text x="664.67" y="197.69" font-family="Consolas" font-size="48" text-anchor="middle" fill="white">3.8</text><text x="812.38" y="216.15" font-family="Consolas" font-size="48" text-anchor="middle" fill="white">3.6</text><text x="960.09" y="170" font-family="Consolas" font-size="48" text-anchor="middle" fill="white">4.1</text><text x="1107.8" y="197.69" font-family="Consolas" font-size="48" text-anchor="middle" fill="white">3.8</text><text x="1255.51" y="271.54" font-family="Consolas" font-size="48" text-anchor="middle" fill="white">3</text><text x="1403.22" y="317.69" font-family="Consolas" font-size="48" text-anchor="middle" fill="white">2.5</text><text x="1550.93" y="354.62" font-family="Consolas" font-size="48" text-anchor="middle" fill="white">2.1</text><text x="1698.64" y="354.62" font-family="Consolas" font-size="48" text-anchor="middle" fill="white">2.1</text><text x="1846.35" y="354.62" font-family="Consolas" font-size="48" text-anchor="middle" fill="white">2.1</text> <text x="466.96" y="1010" font-family="Consolas" font-size="48" ttext-anchor="middle" fill="white">-5</text></g><g><text x="231.54" y="573.461538461538" transform="rotate(270 221.54 558.461538461538)" font-family="Consolas" font-size="50" fill="limegreen">2018</text><text x="379.25" y="573.461538461538" transform="rotate(270 369.25 558.461538461538)" font-family="Consolas" font-size="50" fill="limegreen">2019</text><text x="526.96" y="573.461538461538" transform="rotate(270 516.96 558.461538461538)" font-family="Consolas" font-size="50" fill="limegreen">2020</text><text x="674.67" y="573.461538461538" transform="rotate(270 664.67 558.461538461538)" font-family="Consolas" font-size="50" fill="limegreen">2021</text><text x="822.38" y="573.461538461538" transform="rotate(270 812.38 558.461538461538)" font-family="Consolas" font-size="50" fill="limegreen">2022</text><text x="970.09" y="573.461538461538" transform="rotate(270 960.09 558.461538461538)" font-family="Consolas" font-size="50" fill="limegreen">2023</text><text x="1117.8" y="573.461538461538" transform="rotate(270 1107.8 558.461538461538)" font-family="Consolas" font-size="50" fill="limegreen">2024</text><text x="1265.51" y="573.461538461538" transform="rotate(270 1255.51 558.461538461538)" font-family="Consolas" font-size="50" fill="limegreen">2025</text><text x="1413.22" y="573.461538461538" transform="rotate(270 1403.22 558.461538461538)" font-family="Consolas" font-size="50" fill="limegreen">2026</text><text x="1560.93" y="573.461538461538" transform="rotate(270 1550.93 558.461538461538)" font-family="Consolas" font-size="50" fill="limegreen">2027</text><text x="1708.64" y="573.461538461538" transform="rotate(270 1698.64 558.461538461538)" font-family="Consolas" font-size="50" fill="limegreen">2028</text><text x="1856.35" y="573.461538461538" transform="rotate(270 1846.35 558.461538461538)" font-family="Consolas" font-size="50" fill="limegreen">2029</text></g></g></svg>
