<svg xmlns="http://www.w3.org/2000/svg" width="1920" height="1080"> <rect width="100%" height="100%" fill="#000"/><g xmlns="http://www.w3.org/2000/svg" transform="translate(0,0) scale(1.0)"> <text  x="1080" y="60" font-family="Consolas" font-size="52" text-anchor="middle" fill="white">REAL  GDP ANNUAL PERCENT CHANGE (2018-2029) [IMF DATA]</text><text  x="1700" y="1050" font-family="Consolas" font-size="22" text-anchor="middle" fill="white">DESIGNED BY ZOOMIT WORLD</text><image x="180" y="-50" width="280" height="280" href="https://cdn.jsdelivr.net/gh/hampusborgos/country-flags@main/svg/bs.svg"></image><text x="70" y="180" font-family="Consolas" font-size="50" text-anchor="middle" fill="white">8%</text><text x="70" y="442.926829268293" font-family="Consolas" font-size="50" text-anchor="middle" fill="white">4%</text><text x="70" y="705.853658536585" font-family="Consolas" font-size="50" text-anchor="middle" fill="white">0%</text><text x="70" y="862.926829268293" font-family="Consolas" font-size="50" text-anchor="middle" fill="white">-2.5%</text><text x="70" y="1020" font-family="Consolas" font-size="50" text-anchor="middle" fill="white">-5%</text><line  x1="141.54" y1="180" x2="141.54" y2="1020" stroke="white" stroke-width="2"/><line x1="141.54"  y1="705.853658536585" x2="1920" y2="705.853658536585" stroke="white" stroke-width="5"/><g><rect x="171.54" y="180" width="100" height="525.85" fill="none" stroke="limegreen" stroke-width="2"/><rect x="319.25" y="323.414634146342" width="100" height="382.44" fill="none" stroke="limegreen" stroke-width="2"/><rect x="614.67" y="596.585365853659" width="100" height="109.27" fill="none" stroke="limegreen" stroke-width="2"/><rect x="762.38" y="364.390243902439" width="100" height="341.46" fill="none" stroke="limegreen" stroke-width="2"/><rect x="910.09" y="200.487804878049" width="100" height="505.37" fill="none" stroke="limegreen" stroke-width="2"/><rect x="1057.8" y="330.243902439024" width="100" height="375.61" fill="none" stroke="limegreen" stroke-width="2"/><rect x="1205.51" y="227.80487804878" width="100" height="478.05" fill="none" stroke="limegreen" stroke-width="2"/><rect x="1353.22" y="296.09756097561" width="100" height="409.76" fill="none" stroke="limegreen" stroke-width="2"/><rect x="1500.93" y="330.243902439024" width="100" height="375.61" fill="none" stroke="limegreen" stroke-width="2"/><rect x="1648.64" y="330.243902439024" width="100" height="375.61" fill="none" stroke="limegreen" stroke-width="2"/><rect x="1796.35" y="364.390243902439" width="100" height="341.46" fill="none" stroke="limegreen" stroke-width="2"/> <rect x="466.96" y="705.853658536585" width="100" height="314.15" fill="none" stroke="limegreen" stroke-width="2"/> </g><g><text x="221.54" y="170" font-family="Consolas" font-size="48" text-anchor="middle" fill="white">7.7</text><text x="369.25" y="313.41" font-family="Consolas" font-size="48" text-anchor="middle" fill="white">5.6</text><text x="664.67" y="586.59" font-family="Consolas" font-size="48" text-anchor="middle" fill="white">1.6</text><text x="812.38" y="354.39" font-family="Consolas" font-size="48" text-anchor="middle" fill="white">5</text><text x="960.09" y="190.49" font-family="Consolas" font-size="48" text-anchor="middle" fill="white">7.4</text><text x="1107.8" y="320.24" font-family="Consolas" font-size="48" text-anchor="middle" fill="white">5.5</text><text x="1255.51" y="217.8" font-family="Consolas" font-size="48" text-anchor="middle" fill="white">7</text><text x="1403.22" y="286.1" font-family="Consolas" font-size="48" text-anchor="middle" fill="white">6</text><text x="1550.93" y="320.24" font-family="Consolas" font-size="48" text-anchor="middle" fill="white">5.5</text><text x="1698.64" y="320.24" font-family="Consolas" font-size="48" text-anchor="middle" fill="white">5.5</text><text x="1846.35" y="354.39" font-family="Consolas" font-size="48" text-anchor="middle" fill="white">5</text> <text x="466.96" y="1010" font-family="Consolas" font-size="48" ttext-anchor="middle" fill="white">-4.6</text></g><g><text x="231.54" y="720.853658536585" transform="rotate(270 221.54 705.853658536585)" font-family="Consolas" font-size="50" fill="limegreen">2018</text><text x="379.25" y="720.853658536585" transform="rotate(270 369.25 705.853658536585)" font-family="Consolas" font-size="50" fill="limegreen">2019</text><text x="526.96" y="720.853658536585" transform="rotate(270 516.96 705.853658536585)" font-family="Consolas" font-size="50" fill="limegreen">2020</text><text x="674.67" y="720.853658536585" transform="rotate(270 664.67 705.853658536585)" font-family="Consolas" font-size="50" fill="limegreen">2021</text><text x="822.38" y="720.853658536585" transform="rotate(270 812.38 705.853658536585)" font-family="Consolas" font-size="50" fill="limegreen">2022</text><text x="970.09" y="720.853658536585" transform="rotate(270 960.09 705.853658536585)" font-family="Consolas" font-size="50" fill="limegreen">2023</text><text x="1117.8" y="720.853658536585" transform="rotate(270 1107.8 705.853658536585)" font-family="Consolas" font-size="50" fill="limegreen">2024</text><text x="1265.51" y="720.853658536585" transform="rotate(270 1255.51 705.853658536585)" font-family="Consolas" font-size="50" fill="limegreen">2025</text><text x="1413.22" y="720.853658536585" transform="rotate(270 1403.22 705.853658536585)" font-family="Consolas" font-size="50" fill="limegreen">2026</text><text x="1560.93" y="720.853658536585" transform="rotate(270 1550.93 705.853658536585)" font-family="Consolas" font-size="50" fill="limegreen">2027</text><text x="1708.64" y="720.853658536585" transform="rotate(270 1698.64 705.853658536585)" font-family="Consolas" font-size="50" fill="limegreen">2028</text><text x="1856.35" y="720.853658536585" transform="rotate(270 1846.35 705.853658536585)" font-family="Consolas" font-size="50" fill="limegreen">2029</text></g></g></svg>
