<svg xmlns="http://www.w3.org/2000/svg" width="1920" height="1080"> <rect width="100%" height="100%" fill="#000"/><g xmlns="http://www.w3.org/2000/svg" transform="translate(0,0) scale(1.0)"> <text  x="1080" y="60" font-family="Consolas" font-size="52" text-anchor="middle" fill="white">REAL  GDP ANNUAL PERCENT CHANGE (2018-2029) [IMF DATA]</text><text  x="1780" y="1050" font-family="Consolas" font-size="32" text-anchor="middle" fill="white">ZOOMIT WORLD</text><image x="180" y="-50" width="280" height="280" href="https://cdn.jsdelivr.net/gh/hampusborgos/country-flags@main/svg/gn.svg"></image><text x="70" y="180" font-family="Consolas" font-size="50" text-anchor="middle" fill="white">6%</text><text x="70" y="438.461538461538" font-family="Consolas" font-size="50" text-anchor="middle" fill="white">3%</text><text x="70" y="696.923076923077" font-family="Consolas" font-size="50" text-anchor="middle" fill="white">0%</text><text x="70" y="858.461538461538" font-family="Consolas" font-size="50" text-anchor="middle" fill="white">2%</text><text x="70" y="1020" font-family="Consolas" font-size="50" text-anchor="middle" fill="white">4%</text><line  x1="141.54" y1="180" x2="141.54" y2="1020" stroke="white" stroke-width="2"/><line x1="141.54"  y1="696.923076923077" x2="1920" y2="696.923076923077" stroke="white" stroke-width="5"/><g><rect x="171.54" y="180" width="100" height="516.92" fill="none" stroke="limegreen" stroke-width="2"/><rect x="319.25" y="244.615384615385" width="100" height="452.31" fill="none" stroke="limegreen" stroke-width="2"/><rect x="466.96" y="317.307692307692" width="100" height="379.62" fill="none" stroke="limegreen" stroke-width="2"/><rect x="614.67" y="244.615384615385" width="100" height="452.31" fill="none" stroke="limegreen" stroke-width="2"/><rect x="762.38" y="373.846153846154" width="100" height="323.08" fill="none" stroke="limegreen" stroke-width="2"/><rect x="910.09" y="236.538461538461" width="100" height="460.38" fill="none" stroke="limegreen" stroke-width="2"/><rect x="1057.8" y="365.769230769231" width="100" height="331.15" fill="none" stroke="limegreen" stroke-width="2"/><rect x="1205.51" y="236.538461538461" width="100" height="460.38" fill="none" stroke="limegreen" stroke-width="2"/><rect x="1353.22" y="236.538461538461" width="100" height="460.38" fill="none" stroke="limegreen" stroke-width="2"/><rect x="1500.93" y="244.615384615385" width="100" height="452.31" fill="none" stroke="limegreen" stroke-width="2"/><rect x="1648.64" y="244.615384615385" width="100" height="452.31" fill="none" stroke="limegreen" stroke-width="2"/><rect x="1796.35" y="244.615384615385" width="100" height="452.31" fill="none" stroke="limegreen" stroke-width="2"/>  </g><g><text x="221.54" y="170" font-family="Consolas" font-size="48" text-anchor="middle" fill="white">6.4</text><text x="369.25" y="234.62" font-family="Consolas" font-size="48" text-anchor="middle" fill="white">5.6</text><text x="516.96" y="307.31" font-family="Consolas" font-size="48" text-anchor="middle" fill="white">4.7</text><text x="664.67" y="234.62" font-family="Consolas" font-size="48" text-anchor="middle" fill="white">5.6</text><text x="812.38" y="363.85" font-family="Consolas" font-size="48" text-anchor="middle" fill="white">4</text><text x="960.09" y="226.54" font-family="Consolas" font-size="48" text-anchor="middle" fill="white">5.7</text><text x="1107.8" y="355.77" font-family="Consolas" font-size="48" text-anchor="middle" fill="white">4.1</text><text x="1255.51" y="226.54" font-family="Consolas" font-size="48" text-anchor="middle" fill="white">5.7</text><text x="1403.22" y="226.54" font-family="Consolas" font-size="48" text-anchor="middle" fill="white">5.7</text><text x="1550.93" y="234.62" font-family="Consolas" font-size="48" text-anchor="middle" fill="white">5.6</text><text x="1698.64" y="234.62" font-family="Consolas" font-size="48" text-anchor="middle" fill="white">5.6</text><text x="1846.35" y="234.62" font-family="Consolas" font-size="48" text-anchor="middle" fill="white">5.6</text> </g><g><text x="231.54" y="711.923076923077" transform="rotate(270 221.54 696.923076923077)" font-family="Consolas" font-size="50" fill="limegreen">2018</text><text x="379.25" y="711.923076923077" transform="rotate(270 369.25 696.923076923077)" font-family="Consolas" font-size="50" fill="limegreen">2019</text><text x="526.96" y="711.923076923077" transform="rotate(270 516.96 696.923076923077)" font-family="Consolas" font-size="50" fill="limegreen">2020</text><text x="674.67" y="711.923076923077" transform="rotate(270 664.67 696.923076923077)" font-family="Consolas" font-size="50" fill="limegreen">2021</text><text x="822.38" y="711.923076923077" transform="rotate(270 812.38 696.923076923077)" font-family="Consolas" font-size="50" fill="limegreen">2022</text><text x="970.09" y="711.923076923077" transform="rotate(270 960.09 696.923076923077)" font-family="Consolas" font-size="50" fill="limegreen">2023</text><text x="1117.8" y="711.923076923077" transform="rotate(270 1107.8 696.923076923077)" font-family="Consolas" font-size="50" fill="limegreen">2024</text><text x="1265.51" y="711.923076923077" transform="rotate(270 1255.51 696.923076923077)" font-family="Consolas" font-size="50" fill="limegreen">2025</text><text x="1413.22" y="711.923076923077" transform="rotate(270 1403.22 696.923076923077)" font-family="Consolas" font-size="50" fill="limegreen">2026</text><text x="1560.93" y="711.923076923077" transform="rotate(270 1550.93 696.923076923077)" font-family="Consolas" font-size="50" fill="limegreen">2027</text><text x="1708.64" y="711.923076923077" transform="rotate(270 1698.64 696.923076923077)" font-family="Consolas" font-size="50" fill="limegreen">2028</text><text x="1856.35" y="711.923076923077" transform="rotate(270 1846.35 696.923076923077)" font-family="Consolas" font-size="50" fill="limegreen">2029</text></g></g></svg>
