<svg xmlns="http://www.w3.org/2000/svg" width="1920" height="1080"> <rect width="100%" height="100%" fill="#000"/><g xmlns="http://www.w3.org/2000/svg" transform="translate(0,0) scale(1.0)"> <text  x="1080" y="60" font-family="Consolas" font-size="52" text-anchor="middle" fill="white">REAL  GDP ANNUAL PERCENT CHANGE (2018-2029) [IMF DATA]</text><text  x="1780" y="1050" font-family="Consolas" font-size="32" text-anchor="middle" fill="white">ZOOMIT WORLD</text><image x="180" y="-50" width="280" height="280" href="https://cdn.jsdelivr.net/gh/hampusborgos/country-flags@main/svg/bb.svg"></image><text x="70" y="180" font-family="Consolas" font-size="50" text-anchor="middle" fill="white">18%</text><text x="70" y="407.234042553192" font-family="Consolas" font-size="50" text-anchor="middle" fill="white">9%</text><text x="70" y="634.468085106383" font-family="Consolas" font-size="50" text-anchor="middle" fill="white">0%</text><text x="70" y="827.234042553192" font-family="Consolas" font-size="50" text-anchor="middle" fill="white">-7.5%</text><text x="70" y="1020" font-family="Consolas" font-size="50" text-anchor="middle" fill="white">-15%</text><line  x1="141.54" y1="180" x2="141.54" y2="1020" stroke="white" stroke-width="2"/><line x1="141.54"  y1="634.468085106383" x2="1920" y2="634.468085106383" stroke="white" stroke-width="5"/><g><rect x="319.25" y="616.595744680851" width="100" height="17.87" fill="none" stroke="limegreen" stroke-width="2"/><rect x="762.38" y="180" width="100" height="454.47" fill="none" stroke="limegreen" stroke-width="2"/><rect x="910.09" y="529.787234042553" width="100" height="104.68" fill="none" stroke="limegreen" stroke-width="2"/><rect x="1057.8" y="534.893617021277" width="100" height="99.57" fill="none" stroke="limegreen" stroke-width="2"/><rect x="1205.51" y="557.872340425532" width="100" height="76.60" fill="none" stroke="limegreen" stroke-width="2"/><rect x="1353.22" y="575.744680851064" width="100" height="58.72" fill="none" stroke="limegreen" stroke-width="2"/><rect x="1500.93" y="583.404255319149" width="100" height="51.06" fill="none" stroke="limegreen" stroke-width="2"/><rect x="1648.64" y="583.404255319149" width="100" height="51.06" fill="none" stroke="limegreen" stroke-width="2"/><rect x="1796.35" y="583.404255319149" width="100" height="51.06" fill="none" stroke="limegreen" stroke-width="2"/> <rect x="171.54" y="634.468085106383" width="100" height="30.64" fill="none" stroke="limegreen" stroke-width="2"/><rect x="466.96" y="634.468085106383" width="100" height="385.53" fill="none" stroke="limegreen" stroke-width="2"/><rect x="614.67" y="634.468085106383" width="100" height="07.66" fill="none" stroke="limegreen" stroke-width="2"/> </g><g><text x="369.25" y="606.6" font-family="Consolas" font-size="48" text-anchor="middle" fill="white">0.7</text><text x="812.38" y="170" font-family="Consolas" font-size="48" text-anchor="middle" fill="white">17.8</text><text x="960.09" y="519.79" font-family="Consolas" font-size="48" text-anchor="middle" fill="white">4.1</text><text x="1107.8" y="524.89" font-family="Consolas" font-size="48" text-anchor="middle" fill="white">3.9</text><text x="1255.51" y="547.87" font-family="Consolas" font-size="48" text-anchor="middle" fill="white">3</text><text x="1403.22" y="565.74" font-family="Consolas" font-size="48" text-anchor="middle" fill="white">2.3</text><text x="1550.93" y="573.4" font-family="Consolas" font-size="48" text-anchor="middle" fill="white">2</text><text x="1698.64" y="573.4" font-family="Consolas" font-size="48" text-anchor="middle" fill="white">2</text><text x="1846.35" y="573.4" font-family="Consolas" font-size="48" text-anchor="middle" fill="white">2</text> <text x="171.54" y="655.106382978723" font-family="Consolas" font-size="48" ttext-anchor="middle" fill="white">-1.2</text><text x="466.96" y="1010" font-family="Consolas" font-size="48" ttext-anchor="middle" fill="white">-15.1</text><text x="614.67" y="632.127659574468" font-family="Consolas" font-size="48" ttext-anchor="middle" fill="white">-0.3</text></g><g><text x="231.54" y="649.468085106383" transform="rotate(270 221.54 634.468085106383)" font-family="Consolas" font-size="50" fill="limegreen">2018</text><text x="379.25" y="649.468085106383" transform="rotate(270 369.25 634.468085106383)" font-family="Consolas" font-size="50" fill="limegreen">2019</text><text x="526.96" y="649.468085106383" transform="rotate(270 516.96 634.468085106383)" font-family="Consolas" font-size="50" fill="limegreen">2020</text><text x="674.67" y="649.468085106383" transform="rotate(270 664.67 634.468085106383)" font-family="Consolas" font-size="50" fill="limegreen">2021</text><text x="822.38" y="649.468085106383" transform="rotate(270 812.38 634.468085106383)" font-family="Consolas" font-size="50" fill="limegreen">2022</text><text x="970.09" y="649.468085106383" transform="rotate(270 960.09 634.468085106383)" font-family="Consolas" font-size="50" fill="limegreen">2023</text><text x="1117.8" y="649.468085106383" transform="rotate(270 1107.8 634.468085106383)" font-family="Consolas" font-size="50" fill="limegreen">2024</text><text x="1265.51" y="649.468085106383" transform="rotate(270 1255.51 634.468085106383)" font-family="Consolas" font-size="50" fill="limegreen">2025</text><text x="1413.22" y="649.468085106383" transform="rotate(270 1403.22 634.468085106383)" font-family="Consolas" font-size="50" fill="limegreen">2026</text><text x="1560.93" y="649.468085106383" transform="rotate(270 1550.93 634.468085106383)" font-family="Consolas" font-size="50" fill="limegreen">2027</text><text x="1708.64" y="649.468085106383" transform="rotate(270 1698.64 634.468085106383)" font-family="Consolas" font-size="50" fill="limegreen">2028</text><text x="1856.35" y="649.468085106383" transform="rotate(270 1846.35 634.468085106383)" font-family="Consolas" font-size="50" fill="limegreen">2029</text></g></g></svg>
