<svg xmlns="http://www.w3.org/2000/svg" width="1920" height="1080"> <rect width="100%" height="100%" fill="#000"/><g xmlns="http://www.w3.org/2000/svg" transform="translate(0,0) scale(1.0)"> <text  x="1080" y="60" font-family="Consolas" font-size="52" text-anchor="middle" fill="white">REAL  GDP ANNUAL PERCENT CHANGE (2018-2029) [IMF DATA]</text><text  x="1700" y="1050" font-family="Consolas" font-size="22" text-anchor="middle" fill="white">DESIGNED BY ZOOMIT WORLD</text><image x="180" y="-50" width="280" height="280" href="https://cdn.jsdelivr.net/gh/hampusborgos/country-flags@main/svg/bs.svg"></image><text x="70" y="180" font-family="Consolas" font-size="50" text-anchor="middle" fill="white">5%</text><text x="70" y="427.333333333333" font-family="Consolas" font-size="50" text-anchor="middle" fill="white">2.5%</text><text x="70" y="674.666666666667" font-family="Consolas" font-size="50" text-anchor="middle" fill="white">0%</text><text x="70" y="847.333333333333" font-family="Consolas" font-size="50" text-anchor="middle" fill="white">-2%</text><text x="70" y="1020" font-family="Consolas" font-size="50" text-anchor="middle" fill="white">-4%</text><line  x1="141.54" y1="180" x2="141.54" y2="1020" stroke="white" stroke-width="2"/><line x1="141.54"  y1="674.666666666667" x2="1920" y2="674.666666666667" stroke="white" stroke-width="5"/><g><rect x="171.54" y="516" width="100" height="158.67" fill="none" stroke="limegreen" stroke-width="2"/><rect x="762.38" y="180" width="100" height="494.67" fill="none" stroke="limegreen" stroke-width="2"/><rect x="910.09" y="488" width="100" height="186.67" fill="none" stroke="limegreen" stroke-width="2"/><rect x="1057.8" y="460" width="100" height="214.67" fill="none" stroke="limegreen" stroke-width="2"/><rect x="1205.51" y="460" width="100" height="214.67" fill="none" stroke="limegreen" stroke-width="2"/><rect x="1353.22" y="460" width="100" height="214.67" fill="none" stroke="limegreen" stroke-width="2"/><rect x="1500.93" y="460" width="100" height="214.67" fill="none" stroke="limegreen" stroke-width="2"/><rect x="1648.64" y="460" width="100" height="214.67" fill="none" stroke="limegreen" stroke-width="2"/><rect x="1796.35" y="460" width="100" height="214.67" fill="none" stroke="limegreen" stroke-width="2"/> <rect x="319.25" y="674.666666666667" width="100" height="345.33" fill="none" stroke="limegreen" stroke-width="2"/><rect x="466.96" y="674.666666666667" width="100" height="196.00" fill="none" stroke="limegreen" stroke-width="2"/><rect x="614.67" y="674.666666666667" width="100" height="28.00" fill="none" stroke="limegreen" stroke-width="2"/> </g><g><text x="221.54" y="506" font-family="Consolas" font-size="48" text-anchor="middle" fill="white">1.7</text><text x="812.38" y="170" font-family="Consolas" font-size="48" text-anchor="middle" fill="white">5.3</text><text x="960.09" y="478" font-family="Consolas" font-size="48" text-anchor="middle" fill="white">2</text><text x="1107.8" y="450" font-family="Consolas" font-size="48" text-anchor="middle" fill="white">2.3</text><text x="1255.51" y="450" font-family="Consolas" font-size="48" text-anchor="middle" fill="white">2.3</text><text x="1403.22" y="450" font-family="Consolas" font-size="48" text-anchor="middle" fill="white">2.3</text><text x="1550.93" y="450" font-family="Consolas" font-size="48" text-anchor="middle" fill="white">2.3</text><text x="1698.64" y="450" font-family="Consolas" font-size="48" text-anchor="middle" fill="white">2.3</text><text x="1846.35" y="450" font-family="Consolas" font-size="48" text-anchor="middle" fill="white">2.3</text> <text x="319.25" y="1010" font-family="Consolas" font-size="48" ttext-anchor="middle" fill="white">-3.7</text><text x="466.96" y="860.666666666667" font-family="Consolas" font-size="48" ttext-anchor="middle" fill="white">-2.1</text><text x="614.67" y="692.666666666667" font-family="Consolas" font-size="48" ttext-anchor="middle" fill="white">-0.3</text></g><g><text x="231.54" y="689.666666666667" transform="rotate(270 221.54 674.666666666667)" font-family="Consolas" font-size="50" fill="limegreen">2018</text><text x="379.25" y="689.666666666667" transform="rotate(270 369.25 674.666666666667)" font-family="Consolas" font-size="50" fill="limegreen">2019</text><text x="526.96" y="689.666666666667" transform="rotate(270 516.96 674.666666666667)" font-family="Consolas" font-size="50" fill="limegreen">2020</text><text x="674.67" y="689.666666666667" transform="rotate(270 664.67 674.666666666667)" font-family="Consolas" font-size="50" fill="limegreen">2021</text><text x="822.38" y="689.666666666667" transform="rotate(270 812.38 674.666666666667)" font-family="Consolas" font-size="50" fill="limegreen">2022</text><text x="970.09" y="689.666666666667" transform="rotate(270 960.09 674.666666666667)" font-family="Consolas" font-size="50" fill="limegreen">2023</text><text x="1117.8" y="689.666666666667" transform="rotate(270 1107.8 674.666666666667)" font-family="Consolas" font-size="50" fill="limegreen">2024</text><text x="1265.51" y="689.666666666667" transform="rotate(270 1255.51 674.666666666667)" font-family="Consolas" font-size="50" fill="limegreen">2025</text><text x="1413.22" y="689.666666666667" transform="rotate(270 1403.22 674.666666666667)" font-family="Consolas" font-size="50" fill="limegreen">2026</text><text x="1560.93" y="689.666666666667" transform="rotate(270 1550.93 674.666666666667)" font-family="Consolas" font-size="50" fill="limegreen">2027</text><text x="1708.64" y="689.666666666667" transform="rotate(270 1698.64 674.666666666667)" font-family="Consolas" font-size="50" fill="limegreen">2028</text><text x="1856.35" y="689.666666666667" transform="rotate(270 1846.35 674.666666666667)" font-family="Consolas" font-size="50" fill="limegreen">2029</text></g></g></svg>
