<svg xmlns="http://www.w3.org/2000/svg" width="1920" height="1080"> <rect width="100%" height="100%" fill="#000"/><g xmlns="http://www.w3.org/2000/svg" transform="translate(0,0) scale(1.0)"> <text  x="1080" y="60" font-family="Consolas" font-size="52" text-anchor="middle" fill="white">REAL  GDP ANNUAL PERCENT CHANGE (2018-2029) [IMF DATA]</text><text  x="1780" y="1050" font-family="Consolas" font-size="32" text-anchor="middle" fill="white">ZOOMIT WORLD</text><image x="180" y="-50" width="280" height="280" href="https://cdn.jsdelivr.net/gh/hampusborgos/country-flags@main/svg/vc.svg"></image><text x="70" y="180" font-family="Consolas" font-size="50" text-anchor="middle" fill="white">6%</text><text x="70" y="421.188118811881" font-family="Consolas" font-size="50" text-anchor="middle" fill="white">3%</text><text x="70" y="662.376237623762" font-family="Consolas" font-size="50" text-anchor="middle" fill="white">0%</text><text x="70" y="841.188118811881" font-family="Consolas" font-size="50" text-anchor="middle" fill="white">-2%</text><text x="70" y="1020" font-family="Consolas" font-size="50" text-anchor="middle" fill="white">-4%</text><line  x1="141.54" y1="180" x2="141.54" y2="1020" stroke="white" stroke-width="2"/><line x1="141.54"  y1="662.376237623762" x2="1920" y2="662.376237623762" stroke="white" stroke-width="5"/><g><rect x="171.54" y="396.237623762376" width="100" height="266.14" fill="none" stroke="limegreen" stroke-width="2"/><rect x="319.25" y="604.158415841584" width="100" height="58.22" fill="none" stroke="limegreen" stroke-width="2"/><rect x="614.67" y="487.722772277228" width="100" height="174.65" fill="none" stroke="limegreen" stroke-width="2"/><rect x="762.38" y="404.554455445545" width="100" height="257.82" fill="none" stroke="limegreen" stroke-width="2"/><rect x="910.09" y="180" width="100" height="482.38" fill="none" stroke="limegreen" stroke-width="2"/><rect x="1057.8" y="288.118811881188" width="100" height="374.26" fill="none" stroke="limegreen" stroke-width="2"/><rect x="1205.51" y="329.70297029703" width="100" height="332.67" fill="none" stroke="limegreen" stroke-width="2"/><rect x="1353.22" y="429.504950495049" width="100" height="232.87" fill="none" stroke="limegreen" stroke-width="2"/><rect x="1500.93" y="437.821782178218" width="100" height="224.55" fill="none" stroke="limegreen" stroke-width="2"/><rect x="1648.64" y="437.821782178218" width="100" height="224.55" fill="none" stroke="limegreen" stroke-width="2"/><rect x="1796.35" y="437.821782178218" width="100" height="224.55" fill="none" stroke="limegreen" stroke-width="2"/> <rect x="466.96" y="662.376237623762" width="100" height="357.62" fill="none" stroke="limegreen" stroke-width="2"/> </g><g><text x="221.54" y="386.24" font-family="Consolas" font-size="48" text-anchor="middle" fill="white">3.2</text><text x="369.25" y="594.16" font-family="Consolas" font-size="48" text-anchor="middle" fill="white">0.7</text><text x="664.67" y="477.72" font-family="Consolas" font-size="48" text-anchor="middle" fill="white">2.1</text><text x="812.38" y="394.55" font-family="Consolas" font-size="48" text-anchor="middle" fill="white">3.1</text><text x="960.09" y="170" font-family="Consolas" font-size="48" text-anchor="middle" fill="white">5.8</text><text x="1107.8" y="278.12" font-family="Consolas" font-size="48" text-anchor="middle" fill="white">4.5</text><text x="1255.51" y="319.7" font-family="Consolas" font-size="48" text-anchor="middle" fill="white">4</text><text x="1403.22" y="419.5" font-family="Consolas" font-size="48" text-anchor="middle" fill="white">2.8</text><text x="1550.93" y="427.82" font-family="Consolas" font-size="48" text-anchor="middle" fill="white">2.7</text><text x="1698.64" y="427.82" font-family="Consolas" font-size="48" text-anchor="middle" fill="white">2.7</text><text x="1846.35" y="427.82" font-family="Consolas" font-size="48" text-anchor="middle" fill="white">2.7</text> <text x="466.96" y="1010" font-family="Consolas" font-size="48" ttext-anchor="middle" fill="white">-4.3</text></g><g><text x="231.54" y="677.376237623762" transform="rotate(270 221.54 662.376237623762)" font-family="Consolas" font-size="50" fill="limegreen">2018</text><text x="379.25" y="677.376237623762" transform="rotate(270 369.25 662.376237623762)" font-family="Consolas" font-size="50" fill="limegreen">2019</text><text x="526.96" y="677.376237623762" transform="rotate(270 516.96 662.376237623762)" font-family="Consolas" font-size="50" fill="limegreen">2020</text><text x="674.67" y="677.376237623762" transform="rotate(270 664.67 662.376237623762)" font-family="Consolas" font-size="50" fill="limegreen">2021</text><text x="822.38" y="677.376237623762" transform="rotate(270 812.38 662.376237623762)" font-family="Consolas" font-size="50" fill="limegreen">2022</text><text x="970.09" y="677.376237623762" transform="rotate(270 960.09 662.376237623762)" font-family="Consolas" font-size="50" fill="limegreen">2023</text><text x="1117.8" y="677.376237623762" transform="rotate(270 1107.8 662.376237623762)" font-family="Consolas" font-size="50" fill="limegreen">2024</text><text x="1265.51" y="677.376237623762" transform="rotate(270 1255.51 662.376237623762)" font-family="Consolas" font-size="50" fill="limegreen">2025</text><text x="1413.22" y="677.376237623762" transform="rotate(270 1403.22 662.376237623762)" font-family="Consolas" font-size="50" fill="limegreen">2026</text><text x="1560.93" y="677.376237623762" transform="rotate(270 1550.93 662.376237623762)" font-family="Consolas" font-size="50" fill="limegreen">2027</text><text x="1708.64" y="677.376237623762" transform="rotate(270 1698.64 662.376237623762)" font-family="Consolas" font-size="50" fill="limegreen">2028</text><text x="1856.35" y="677.376237623762" transform="rotate(270 1846.35 662.376237623762)" font-family="Consolas" font-size="50" fill="limegreen">2029</text></g></g></svg>
