<svg xmlns="http://www.w3.org/2000/svg" width="1920" height="1080"> <rect width="100%" height="100%" fill="#000"/><g xmlns="http://www.w3.org/2000/svg" transform="translate(0,0) scale(1.0)"> <text  x="1080" y="60" font-family="Consolas" font-size="52" text-anchor="middle" fill="white">REAL  GDP ANNUAL PERCENT CHANGE (2018-2029) [IMF DATA]</text><text  x="1780" y="1050" font-family="Consolas" font-size="32" text-anchor="middle" fill="white">ZOOMIT WORLD</text><image x="180" y="-50" width="280" height="280" href="https://cdn.jsdelivr.net/gh/hampusborgos/country-flags@main/svg/ie.svg"></image><text x="70" y="180" font-family="Consolas" font-size="50" text-anchor="middle" fill="white">16%</text><text x="70" y="494.036697247706" font-family="Consolas" font-size="50" text-anchor="middle" fill="white">8%</text><text x="70" y="808.073394495413" font-family="Consolas" font-size="50" text-anchor="middle" fill="white">0%</text><text x="70" y="914.036697247706" font-family="Consolas" font-size="50" text-anchor="middle" fill="white">-3%</text><text x="70" y="1020" font-family="Consolas" font-size="50" text-anchor="middle" fill="white">-6%</text><line  x1="141.54" y1="180" x2="141.54" y2="1020" stroke="white" stroke-width="2"/><line x1="141.54"  y1="808.073394495413" x2="1920" y2="808.073394495413" stroke="white" stroke-width="5"/><g><rect x="171.54" y="519.082568807339" width="100" height="288.99" fill="none" stroke="limegreen" stroke-width="2"/><rect x="319.25" y="615.412844036697" width="100" height="192.66" fill="none" stroke="limegreen" stroke-width="2"/><rect x="466.96" y="530.642201834862" width="100" height="277.43" fill="none" stroke="limegreen" stroke-width="2"/><rect x="614.67" y="180" width="100" height="628.07" fill="none" stroke="limegreen" stroke-width="2"/><rect x="762.38" y="476.697247706422" width="100" height="331.38" fill="none" stroke="limegreen" stroke-width="2"/><rect x="1205.51" y="723.302752293578" width="100" height="84.77" fill="none" stroke="limegreen" stroke-width="2"/><rect x="1353.22" y="715.596330275229" width="100" height="92.48" fill="none" stroke="limegreen" stroke-width="2"/><rect x="1500.93" y="719.449541284404" width="100" height="88.62" fill="none" stroke="limegreen" stroke-width="2"/><rect x="1648.64" y="719.449541284404" width="100" height="88.62" fill="none" stroke="limegreen" stroke-width="2"/><rect x="1796.35" y="719.449541284404" width="100" height="88.62" fill="none" stroke="limegreen" stroke-width="2"/> <rect x="910.09" y="808.073394495413" width="100" height="211.93" fill="none" stroke="limegreen" stroke-width="2"/><rect x="1057.8" y="808.073394495413" width="100" height="07.71" fill="none" stroke="limegreen" stroke-width="2"/> </g><g><text x="221.54" y="509.08" font-family="Consolas" font-size="48" text-anchor="middle" fill="white">7.5</text><text x="369.25" y="605.41" font-family="Consolas" font-size="48" text-anchor="middle" fill="white">5</text><text x="516.96" y="520.64" font-family="Consolas" font-size="48" text-anchor="middle" fill="white">7.2</text><text x="664.67" y="170" font-family="Consolas" font-size="48" text-anchor="middle" fill="white">16.3</text><text x="812.38" y="466.7" font-family="Consolas" font-size="48" text-anchor="middle" fill="white">8.6</text><text x="1255.51" y="713.3" font-family="Consolas" font-size="48" text-anchor="middle" fill="white">2.2</text><text x="1403.22" y="705.6" font-family="Consolas" font-size="48" text-anchor="middle" fill="white">2.4</text><text x="1550.93" y="709.45" font-family="Consolas" font-size="48" text-anchor="middle" fill="white">2.3</text><text x="1698.64" y="709.45" font-family="Consolas" font-size="48" text-anchor="middle" fill="white">2.3</text><text x="1846.35" y="709.45" font-family="Consolas" font-size="48" text-anchor="middle" fill="white">2.3</text> <text x="910.09" y="1010" font-family="Consolas" font-size="48" ttext-anchor="middle" fill="white">-5.5</text><text x="1057.8" y="805.779816513761" font-family="Consolas" font-size="48" ttext-anchor="middle" fill="white">-0.2</text></g><g><text x="231.54" y="823.073394495413" transform="rotate(270 221.54 808.073394495413)" font-family="Consolas" font-size="50" fill="limegreen">2018</text><text x="379.25" y="823.073394495413" transform="rotate(270 369.25 808.073394495413)" font-family="Consolas" font-size="50" fill="limegreen">2019</text><text x="526.96" y="823.073394495413" transform="rotate(270 516.96 808.073394495413)" font-family="Consolas" font-size="50" fill="limegreen">2020</text><text x="674.67" y="823.073394495413" transform="rotate(270 664.67 808.073394495413)" font-family="Consolas" font-size="50" fill="limegreen">2021</text><text x="822.38" y="823.073394495413" transform="rotate(270 812.38 808.073394495413)" font-family="Consolas" font-size="50" fill="limegreen">2022</text><text x="970.09" y="823.073394495413" transform="rotate(270 960.09 808.073394495413)" font-family="Consolas" font-size="50" fill="limegreen">2023</text><text x="1117.8" y="823.073394495413" transform="rotate(270 1107.8 808.073394495413)" font-family="Consolas" font-size="50" fill="limegreen">2024</text><text x="1265.51" y="823.073394495413" transform="rotate(270 1255.51 808.073394495413)" font-family="Consolas" font-size="50" fill="limegreen">2025</text><text x="1413.22" y="823.073394495413" transform="rotate(270 1403.22 808.073394495413)" font-family="Consolas" font-size="50" fill="limegreen">2026</text><text x="1560.93" y="823.073394495413" transform="rotate(270 1550.93 808.073394495413)" font-family="Consolas" font-size="50" fill="limegreen">2027</text><text x="1708.64" y="823.073394495413" transform="rotate(270 1698.64 808.073394495413)" font-family="Consolas" font-size="50" fill="limegreen">2028</text><text x="1856.35" y="823.073394495413" transform="rotate(270 1846.35 808.073394495413)" font-family="Consolas" font-size="50" fill="limegreen">2029</text></g></g></svg>
