<svg xmlns="http://www.w3.org/2000/svg" width="1920" height="1080"> <rect width="100%" height="100%" fill="#000"/><g xmlns="http://www.w3.org/2000/svg" transform="translate(0,0) scale(1.0)"> <text  x="1080" y="60" font-family="Consolas" font-size="52" text-anchor="middle" fill="white">REAL  GDP ANNUAL PERCENT CHANGE (2018-2029) [IMF DATA]</text><text  x="1700" y="1050" font-family="Consolas" font-size="22" text-anchor="middle" fill="white">DESIGNED BY ZOOMIT WORLD</text><image x="180" y="-50" width="280" height="280" href="https://cdn.jsdelivr.net/gh/hampusborgos/country-flags@main/svg/bs.svg"></image><text x="70" y="180" font-family="Consolas" font-size="50" text-anchor="middle" fill="white">6%</text><text x="70" y="420" font-family="Consolas" font-size="50" text-anchor="middle" fill="white">3%</text><text x="70" y="660" font-family="Consolas" font-size="50" text-anchor="middle" fill="white">0%</text><text x="70" y="840" font-family="Consolas" font-size="50" text-anchor="middle" fill="white">-2%</text><text x="70" y="1020" font-family="Consolas" font-size="50" text-anchor="middle" fill="white">-4%</text><line  x1="141.54" y1="180" x2="141.54" y2="1020" stroke="white" stroke-width="2"/><line x1="141.54"  y1="660" x2="1920" y2="660" stroke="white" stroke-width="5"/><g><rect x="171.54" y="531.428571428571" width="100" height="128.57" fill="none" stroke="limegreen" stroke-width="2"/><rect x="319.25" y="445.714285714286" width="100" height="214.29" fill="none" stroke="limegreen" stroke-width="2"/><rect x="614.67" y="180" width="100" height="480.00" fill="none" stroke="limegreen" stroke-width="2"/><rect x="762.38" y="257.142857142857" width="100" height="402.86" fill="none" stroke="limegreen" stroke-width="2"/><rect x="910.09" y="565.714285714286" width="100" height="94.29" fill="none" stroke="limegreen" stroke-width="2"/><rect x="1057.8" y="385.714285714286" width="100" height="274.29" fill="none" stroke="limegreen" stroke-width="2"/><rect x="1205.51" y="445.714285714286" width="100" height="214.29" fill="none" stroke="limegreen" stroke-width="2"/><rect x="1353.22" y="454.285714285714" width="100" height="205.71" fill="none" stroke="limegreen" stroke-width="2"/><rect x="1500.93" y="454.285714285714" width="100" height="205.71" fill="none" stroke="limegreen" stroke-width="2"/><rect x="1648.64" y="454.285714285714" width="100" height="205.71" fill="none" stroke="limegreen" stroke-width="2"/><rect x="1796.35" y="454.285714285714" width="100" height="205.71" fill="none" stroke="limegreen" stroke-width="2"/> <rect x="466.96" y="660" width="100" height="360.00" fill="none" stroke="limegreen" stroke-width="2"/> </g><g><text x="221.54" y="521.43" font-family="Consolas" font-size="48" text-anchor="middle" fill="white">1.5</text><text x="369.25" y="435.71" font-family="Consolas" font-size="48" text-anchor="middle" fill="white">2.5</text><text x="664.67" y="170" font-family="Consolas" font-size="48" text-anchor="middle" fill="white">5.6</text><text x="812.38" y="247.14" font-family="Consolas" font-size="48" text-anchor="middle" fill="white">4.7</text><text x="960.09" y="555.71" font-family="Consolas" font-size="48" text-anchor="middle" fill="white">1.1</text><text x="1107.8" y="375.71" font-family="Consolas" font-size="48" text-anchor="middle" fill="white">3.2</text><text x="1255.51" y="435.71" font-family="Consolas" font-size="48" text-anchor="middle" fill="white">2.5</text><text x="1403.22" y="444.29" font-family="Consolas" font-size="48" text-anchor="middle" fill="white">2.4</text><text x="1550.93" y="444.29" font-family="Consolas" font-size="48" text-anchor="middle" fill="white">2.4</text><text x="1698.64" y="444.29" font-family="Consolas" font-size="48" text-anchor="middle" fill="white">2.4</text><text x="1846.35" y="444.29" font-family="Consolas" font-size="48" text-anchor="middle" fill="white">2.4</text> <text x="466.96" y="1010" font-family="Consolas" font-size="48" ttext-anchor="middle" fill="white">-4.2</text></g><g><text x="231.54" y="675" transform="rotate(270 221.54 660)" font-family="Consolas" font-size="50" fill="limegreen">2018</text><text x="379.25" y="675" transform="rotate(270 369.25 660)" font-family="Consolas" font-size="50" fill="limegreen">2019</text><text x="526.96" y="675" transform="rotate(270 516.96 660)" font-family="Consolas" font-size="50" fill="limegreen">2020</text><text x="674.67" y="675" transform="rotate(270 664.67 660)" font-family="Consolas" font-size="50" fill="limegreen">2021</text><text x="822.38" y="675" transform="rotate(270 812.38 660)" font-family="Consolas" font-size="50" fill="limegreen">2022</text><text x="970.09" y="675" transform="rotate(270 960.09 660)" font-family="Consolas" font-size="50" fill="limegreen">2023</text><text x="1117.8" y="675" transform="rotate(270 1107.8 660)" font-family="Consolas" font-size="50" fill="limegreen">2024</text><text x="1265.51" y="675" transform="rotate(270 1255.51 660)" font-family="Consolas" font-size="50" fill="limegreen">2025</text><text x="1413.22" y="675" transform="rotate(270 1403.22 660)" font-family="Consolas" font-size="50" fill="limegreen">2026</text><text x="1560.93" y="675" transform="rotate(270 1550.93 660)" font-family="Consolas" font-size="50" fill="limegreen">2027</text><text x="1708.64" y="675" transform="rotate(270 1698.64 660)" font-family="Consolas" font-size="50" fill="limegreen">2028</text><text x="1856.35" y="675" transform="rotate(270 1846.35 660)" font-family="Consolas" font-size="50" fill="limegreen">2029</text></g></g></svg>
