<svg xmlns="http://www.w3.org/2000/svg" width="1920" height="1080"> <rect width="100%" height="100%" fill="#000"/><g xmlns="http://www.w3.org/2000/svg" transform="translate(0,0) scale(1.0)"> <text  x="1080" y="60" font-family="Consolas" font-size="52" text-anchor="middle" fill="white">REAL  GDP ANNUAL PERCENT CHANGE (2018-2029) [IMF DATA]</text><text  x="1700" y="1050" font-family="Consolas" font-size="22" text-anchor="middle" fill="white">DESIGNED BY ZOOMIT WORLD</text><image x="180" y="-50" width="280" height="280" href="https://cdn.jsdelivr.net/gh/hampusborgos/country-flags@main/svg/bs.svg"></image><text x="70" y="180" font-family="Consolas" font-size="50" text-anchor="middle" fill="white">18%</text><text x="70" y="417.911392405063" font-family="Consolas" font-size="50" text-anchor="middle" fill="white">9%</text><text x="70" y="655.822784810127" font-family="Consolas" font-size="50" text-anchor="middle" fill="white">0%</text><text x="70" y="837.911392405063" font-family="Consolas" font-size="50" text-anchor="middle" fill="white">-7%</text><text x="70" y="1020" font-family="Consolas" font-size="50" text-anchor="middle" fill="white">-14%</text><line  x1="141.54" y1="180" x2="141.54" y2="1020" stroke="white" stroke-width="2"/><line x1="141.54"  y1="655.822784810127" x2="1920" y2="655.822784810127" stroke="white" stroke-width="5"/><g><rect x="171.54" y="626.582278481013" width="100" height="29.24" fill="none" stroke="limegreen" stroke-width="2"/><rect x="319.25" y="544.177215189874" width="100" height="111.65" fill="none" stroke="limegreen" stroke-width="2"/><rect x="614.67" y="180" width="100" height="475.82" fill="none" stroke="limegreen" stroke-width="2"/><rect x="762.38" y="395.316455696203" width="100" height="260.51" fill="none" stroke="limegreen" stroke-width="2"/><rect x="910.09" y="626.582278481013" width="100" height="29.24" fill="none" stroke="limegreen" stroke-width="2"/><rect x="1057.8" y="512.278481012658" width="100" height="143.54" fill="none" stroke="limegreen" stroke-width="2"/><rect x="1205.51" y="589.367088607595" width="100" height="66.46" fill="none" stroke="limegreen" stroke-width="2"/><rect x="1353.22" y="592.025316455696" width="100" height="63.80" fill="none" stroke="limegreen" stroke-width="2"/><rect x="1500.93" y="597.341772151899" width="100" height="58.48" fill="none" stroke="limegreen" stroke-width="2"/><rect x="1648.64" y="600" width="100" height="55.82" fill="none" stroke="limegreen" stroke-width="2"/><rect x="1796.35" y="602.658227848101" width="100" height="53.16" fill="none" stroke="limegreen" stroke-width="2"/> <rect x="466.96" y="655.822784810127" width="100" height="364.18" fill="none" stroke="limegreen" stroke-width="2"/> </g><g><text x="221.54" y="616.58" font-family="Consolas" font-size="48" text-anchor="middle" fill="white">1.1</text><text x="369.25" y="534.18" font-family="Consolas" font-size="48" text-anchor="middle" fill="white">4.2</text><text x="664.67" y="170" font-family="Consolas" font-size="48" text-anchor="middle" fill="white">17.9</text><text x="812.38" y="385.32" font-family="Consolas" font-size="48" text-anchor="middle" fill="white">9.8</text><text x="960.09" y="616.58" font-family="Consolas" font-size="48" text-anchor="middle" fill="white">1.1</text><text x="1107.8" y="502.28" font-family="Consolas" font-size="48" text-anchor="middle" fill="white">5.4</text><text x="1255.51" y="579.37" font-family="Consolas" font-size="48" text-anchor="middle" fill="white">2.5</text><text x="1403.22" y="582.03" font-family="Consolas" font-size="48" text-anchor="middle" fill="white">2.4</text><text x="1550.93" y="587.34" font-family="Consolas" font-size="48" text-anchor="middle" fill="white">2.2</text><text x="1698.64" y="590" font-family="Consolas" font-size="48" text-anchor="middle" fill="white">2.1</text><text x="1846.35" y="592.66" font-family="Consolas" font-size="48" text-anchor="middle" fill="white">2</text> <text x="466.96" y="1010" font-family="Consolas" font-size="48" ttext-anchor="middle" fill="white">-13.7</text></g><g><text x="231.54" y="670.822784810127" transform="rotate(270 221.54 655.822784810127)" font-family="Consolas" font-size="50" fill="limegreen">2018</text><text x="379.25" y="670.822784810127" transform="rotate(270 369.25 655.822784810127)" font-family="Consolas" font-size="50" fill="limegreen">2019</text><text x="526.96" y="670.822784810127" transform="rotate(270 516.96 655.822784810127)" font-family="Consolas" font-size="50" fill="limegreen">2020</text><text x="674.67" y="670.822784810127" transform="rotate(270 664.67 655.822784810127)" font-family="Consolas" font-size="50" fill="limegreen">2021</text><text x="822.38" y="670.822784810127" transform="rotate(270 812.38 655.822784810127)" font-family="Consolas" font-size="50" fill="limegreen">2022</text><text x="970.09" y="670.822784810127" transform="rotate(270 960.09 655.822784810127)" font-family="Consolas" font-size="50" fill="limegreen">2023</text><text x="1117.8" y="670.822784810127" transform="rotate(270 1107.8 655.822784810127)" font-family="Consolas" font-size="50" fill="limegreen">2024</text><text x="1265.51" y="670.822784810127" transform="rotate(270 1255.51 655.822784810127)" font-family="Consolas" font-size="50" fill="limegreen">2025</text><text x="1413.22" y="670.822784810127" transform="rotate(270 1403.22 655.822784810127)" font-family="Consolas" font-size="50" fill="limegreen">2026</text><text x="1560.93" y="670.822784810127" transform="rotate(270 1550.93 655.822784810127)" font-family="Consolas" font-size="50" fill="limegreen">2027</text><text x="1708.64" y="670.822784810127" transform="rotate(270 1698.64 655.822784810127)" font-family="Consolas" font-size="50" fill="limegreen">2028</text><text x="1856.35" y="670.822784810127" transform="rotate(270 1846.35 655.822784810127)" font-family="Consolas" font-size="50" fill="limegreen">2029</text></g></g></svg>
