<svg xmlns="http://www.w3.org/2000/svg" width="1920" height="1080"> <rect width="100%" height="100%" fill="#000"/><g xmlns="http://www.w3.org/2000/svg" transform="translate(0,0) scale(1.0)"> <text  x="1080" y="60" font-family="Consolas" font-size="52" text-anchor="middle" fill="white">REAL  GDP ANNUAL PERCENT CHANGE (2018-2029) [IMF DATA]</text><text  x="1780" y="1050" font-family="Consolas" font-size="32" text-anchor="middle" fill="white">ZOOMIT WORLD</text><image x="180" y="-50" width="280" height="280" href="https://cdn.jsdelivr.net/gh/hampusborgos/country-flags@main/svg/tr.svg"></image><text x="70" y="180" font-family="Consolas" font-size="50" text-anchor="middle" fill="white">11%</text><text x="70" y="572.459016393443" font-family="Consolas" font-size="50" text-anchor="middle" fill="white">5.5%</text><text x="70" y="964.918032786885" font-family="Consolas" font-size="50" text-anchor="middle" fill="white">0%</text><text x="70" y="992.459016393443" font-family="Consolas" font-size="50" text-anchor="middle" fill="white">0.5%</text><text x="70" y="1020" font-family="Consolas" font-size="50" text-anchor="middle" fill="white">1%</text><line  x1="141.54" y1="180" x2="141.54" y2="1020" stroke="white" stroke-width="2"/><line x1="141.54"  y1="964.918032786885" x2="1920" y2="964.918032786885" stroke="white" stroke-width="5"/><g><rect x="171.54" y="758.360655737705" width="100" height="206.56" fill="none" stroke="limegreen" stroke-width="2"/><rect x="319.25" y="909.83606557377" width="100" height="55.08" fill="none" stroke="limegreen" stroke-width="2"/><rect x="466.96" y="834.098360655738" width="100" height="130.82" fill="none" stroke="limegreen" stroke-width="2"/><rect x="614.67" y="180" width="100" height="784.92" fill="none" stroke="limegreen" stroke-width="2"/><rect x="762.38" y="586.229508196721" width="100" height="378.69" fill="none" stroke="limegreen" stroke-width="2"/><rect x="910.09" y="613.770491803279" width="100" height="351.15" fill="none" stroke="limegreen" stroke-width="2"/><rect x="1057.8" y="758.360655737705" width="100" height="206.56" fill="none" stroke="limegreen" stroke-width="2"/><rect x="1205.51" y="779.016393442623" width="100" height="185.90" fill="none" stroke="limegreen" stroke-width="2"/><rect x="1353.22" y="744.590163934426" width="100" height="220.33" fill="none" stroke="limegreen" stroke-width="2"/><rect x="1500.93" y="730.819672131148" width="100" height="234.10" fill="none" stroke="limegreen" stroke-width="2"/><rect x="1648.64" y="710.163934426229" width="100" height="254.75" fill="none" stroke="limegreen" stroke-width="2"/><rect x="1796.35" y="696.393442622951" width="100" height="268.52" fill="none" stroke="limegreen" stroke-width="2"/>  </g><g><text x="221.54" y="748.36" font-family="Consolas" font-size="48" text-anchor="middle" fill="white">3</text><text x="369.25" y="899.84" font-family="Consolas" font-size="48" text-anchor="middle" fill="white">0.8</text><text x="516.96" y="824.1" font-family="Consolas" font-size="48" text-anchor="middle" fill="white">1.9</text><text x="664.67" y="170" font-family="Consolas" font-size="48" text-anchor="middle" fill="white">11.4</text><text x="812.38" y="576.23" font-family="Consolas" font-size="48" text-anchor="middle" fill="white">5.5</text><text x="960.09" y="603.77" font-family="Consolas" font-size="48" text-anchor="middle" fill="white">5.1</text><text x="1107.8" y="748.36" font-family="Consolas" font-size="48" text-anchor="middle" fill="white">3</text><text x="1255.51" y="769.02" font-family="Consolas" font-size="48" text-anchor="middle" fill="white">2.7</text><text x="1403.22" y="734.59" font-family="Consolas" font-size="48" text-anchor="middle" fill="white">3.2</text><text x="1550.93" y="720.82" font-family="Consolas" font-size="48" text-anchor="middle" fill="white">3.4</text><text x="1698.64" y="700.16" font-family="Consolas" font-size="48" text-anchor="middle" fill="white">3.7</text><text x="1846.35" y="686.39" font-family="Consolas" font-size="48" text-anchor="middle" fill="white">3.9</text> </g><g><text x="231.54" y="979.918032786885" transform="rotate(270 221.54 964.918032786885)" font-family="Consolas" font-size="50" fill="limegreen">2018</text><text x="379.25" y="979.918032786885" transform="rotate(270 369.25 964.918032786885)" font-family="Consolas" font-size="50" fill="limegreen">2019</text><text x="526.96" y="979.918032786885" transform="rotate(270 516.96 964.918032786885)" font-family="Consolas" font-size="50" fill="limegreen">2020</text><text x="674.67" y="979.918032786885" transform="rotate(270 664.67 964.918032786885)" font-family="Consolas" font-size="50" fill="limegreen">2021</text><text x="822.38" y="979.918032786885" transform="rotate(270 812.38 964.918032786885)" font-family="Consolas" font-size="50" fill="limegreen">2022</text><text x="970.09" y="979.918032786885" transform="rotate(270 960.09 964.918032786885)" font-family="Consolas" font-size="50" fill="limegreen">2023</text><text x="1117.8" y="979.918032786885" transform="rotate(270 1107.8 964.918032786885)" font-family="Consolas" font-size="50" fill="limegreen">2024</text><text x="1265.51" y="979.918032786885" transform="rotate(270 1255.51 964.918032786885)" font-family="Consolas" font-size="50" fill="limegreen">2025</text><text x="1413.22" y="979.918032786885" transform="rotate(270 1403.22 964.918032786885)" font-family="Consolas" font-size="50" fill="limegreen">2026</text><text x="1560.93" y="979.918032786885" transform="rotate(270 1550.93 964.918032786885)" font-family="Consolas" font-size="50" fill="limegreen">2027</text><text x="1708.64" y="979.918032786885" transform="rotate(270 1698.64 964.918032786885)" font-family="Consolas" font-size="50" fill="limegreen">2028</text><text x="1856.35" y="979.918032786885" transform="rotate(270 1846.35 964.918032786885)" font-family="Consolas" font-size="50" fill="limegreen">2029</text></g></g></svg>
