<svg xmlns="http://www.w3.org/2000/svg" width="1920" height="1080"> <rect width="100%" height="100%" fill="#000"/><g xmlns="http://www.w3.org/2000/svg" transform="translate(0,0) scale(1.0)"> <text  x="1080" y="60" font-family="Consolas" font-size="52" text-anchor="middle" fill="white">REAL  GDP ANNUAL PERCENT CHANGE (2018-2029) [IMF DATA]</text><text  x="1780" y="1050" font-family="Consolas" font-size="32" text-anchor="middle" fill="white">ZOOMIT WORLD</text><image x="180" y="-50" width="280" height="280" href="https://cdn.jsdelivr.net/gh/hampusborgos/country-flags@main/svg/ly.svg"></image><text x="70" y="180" font-family="Consolas" font-size="50" text-anchor="middle" fill="white">28%</text><text x="70" y="385.640138408305" font-family="Consolas" font-size="50" text-anchor="middle" fill="white">14%</text><text x="70" y="591.280276816609" font-family="Consolas" font-size="50" text-anchor="middle" fill="white">0%</text><text x="70" y="805.640138408305" font-family="Consolas" font-size="50" text-anchor="middle" fill="white">-15%</text><text x="70" y="1020" font-family="Consolas" font-size="50" text-anchor="middle" fill="white">-30%</text><line  x1="141.54" y1="180" x2="141.54" y2="1020" stroke="white" stroke-width="2"/><line x1="141.54"  y1="591.280276816609" x2="1920" y2="591.280276816609" stroke="white" stroke-width="5"/><g><rect x="171.54" y="476.470588235294" width="100" height="114.81" fill="none" stroke="limegreen" stroke-width="2"/><rect x="614.67" y="180" width="100" height="411.28" fill="none" stroke="limegreen" stroke-width="2"/><rect x="910.09" y="443.044982698962" width="100" height="148.24" fill="none" stroke="limegreen" stroke-width="2"/><rect x="1057.8" y="556.401384083045" width="100" height="34.88" fill="none" stroke="limegreen" stroke-width="2"/><rect x="1205.51" y="392.179930795848" width="100" height="199.10" fill="none" stroke="limegreen" stroke-width="2"/><rect x="1353.22" y="531.695501730104" width="100" height="59.58" fill="none" stroke="limegreen" stroke-width="2"/><rect x="1500.93" y="562.214532871972" width="100" height="29.07" fill="none" stroke="limegreen" stroke-width="2"/><rect x="1648.64" y="560.761245674741" width="100" height="30.52" fill="none" stroke="limegreen" stroke-width="2"/><rect x="1796.35" y="557.854671280277" width="100" height="33.43" fill="none" stroke="limegreen" stroke-width="2"/> <rect x="319.25" y="591.280276816609" width="100" height="162.77" fill="none" stroke="limegreen" stroke-width="2"/><rect x="466.96" y="591.280276816609" width="100" height="428.72" fill="none" stroke="limegreen" stroke-width="2"/><rect x="762.38" y="591.280276816609" width="100" height="120.62" fill="none" stroke="limegreen" stroke-width="2"/> </g><g><text x="221.54" y="466.47" font-family="Consolas" font-size="48" text-anchor="middle" fill="white">7.9</text><text x="664.67" y="170" font-family="Consolas" font-size="48" text-anchor="middle" fill="white">28.3</text><text x="960.09" y="433.04" font-family="Consolas" font-size="48" text-anchor="middle" fill="white">10.2</text><text x="1107.8" y="546.4" font-family="Consolas" font-size="48" text-anchor="middle" fill="white">2.4</text><text x="1255.51" y="382.18" font-family="Consolas" font-size="48" text-anchor="middle" fill="white">13.7</text><text x="1403.22" y="521.7" font-family="Consolas" font-size="48" text-anchor="middle" fill="white">4.1</text><text x="1550.93" y="552.21" font-family="Consolas" font-size="48" text-anchor="middle" fill="white">2</text><text x="1698.64" y="550.76" font-family="Consolas" font-size="48" text-anchor="middle" fill="white">2.1</text><text x="1846.35" y="547.85" font-family="Consolas" font-size="48" text-anchor="middle" fill="white">2.3</text> <text x="319.25" y="744.048442906574" font-family="Consolas" font-size="48" ttext-anchor="middle" fill="white">-11.2</text><text x="466.96" y="1010" font-family="Consolas" font-size="48" ttext-anchor="middle" fill="white">-29.5</text><text x="762.38" y="701.903114186851" font-family="Consolas" font-size="48" ttext-anchor="middle" fill="white">-8.3</text></g><g><text x="231.54" y="606.280276816609" transform="rotate(270 221.54 591.280276816609)" font-family="Consolas" font-size="50" fill="limegreen">2018</text><text x="379.25" y="606.280276816609" transform="rotate(270 369.25 591.280276816609)" font-family="Consolas" font-size="50" fill="limegreen">2019</text><text x="526.96" y="606.280276816609" transform="rotate(270 516.96 591.280276816609)" font-family="Consolas" font-size="50" fill="limegreen">2020</text><text x="674.67" y="606.280276816609" transform="rotate(270 664.67 591.280276816609)" font-family="Consolas" font-size="50" fill="limegreen">2021</text><text x="822.38" y="606.280276816609" transform="rotate(270 812.38 591.280276816609)" font-family="Consolas" font-size="50" fill="limegreen">2022</text><text x="970.09" y="606.280276816609" transform="rotate(270 960.09 591.280276816609)" font-family="Consolas" font-size="50" fill="limegreen">2023</text><text x="1117.8" y="606.280276816609" transform="rotate(270 1107.8 591.280276816609)" font-family="Consolas" font-size="50" fill="limegreen">2024</text><text x="1265.51" y="606.280276816609" transform="rotate(270 1255.51 591.280276816609)" font-family="Consolas" font-size="50" fill="limegreen">2025</text><text x="1413.22" y="606.280276816609" transform="rotate(270 1403.22 591.280276816609)" font-family="Consolas" font-size="50" fill="limegreen">2026</text><text x="1560.93" y="606.280276816609" transform="rotate(270 1550.93 591.280276816609)" font-family="Consolas" font-size="50" fill="limegreen">2027</text><text x="1708.64" y="606.280276816609" transform="rotate(270 1698.64 591.280276816609)" font-family="Consolas" font-size="50" fill="limegreen">2028</text><text x="1856.35" y="606.280276816609" transform="rotate(270 1846.35 591.280276816609)" font-family="Consolas" font-size="50" fill="limegreen">2029</text></g></g></svg>
