<svg xmlns="http://www.w3.org/2000/svg" width="1920" height="1080"> <rect width="100%" height="100%" fill="#000"/><g xmlns="http://www.w3.org/2000/svg" transform="translate(0,0) scale(1.0)"> <text  x="1080" y="60" font-family="Consolas" font-size="52" text-anchor="middle" fill="white">REAL  GDP ANNUAL PERCENT CHANGE (2018-2029) [IMF DATA]</text><text  x="1780" y="1050" font-family="Consolas" font-size="32" text-anchor="middle" fill="white">ZOOMIT WORLD</text><image x="180" y="-50" width="280" height="280" href="https://cdn.jsdelivr.net/gh/hampusborgos/country-flags@main/svg/gh.svg"></image><text x="70" y="180" font-family="Consolas" font-size="50" text-anchor="middle" fill="white">7%</text><text x="70" y="570" font-family="Consolas" font-size="50" text-anchor="middle" fill="white">3.5%</text><text x="70" y="960" font-family="Consolas" font-size="50" text-anchor="middle" fill="white">0%</text><text x="70" y="990" font-family="Consolas" font-size="50" text-anchor="middle" fill="white">0.5%</text><text x="70" y="1020" font-family="Consolas" font-size="50" text-anchor="middle" fill="white">1%</text><line  x1="141.54" y1="180" x2="141.54" y2="1020" stroke="white" stroke-width="2"/><line x1="141.54"  y1="960" x2="1920" y2="960" stroke="white" stroke-width="5"/><g><rect x="171.54" y="216" width="100" height="744.00" fill="none" stroke="limegreen" stroke-width="2"/><rect x="319.25" y="180" width="100" height="780.00" fill="none" stroke="limegreen" stroke-width="2"/><rect x="466.96" y="900" width="100" height="60.00" fill="none" stroke="limegreen" stroke-width="2"/><rect x="614.67" y="348" width="100" height="612.00" fill="none" stroke="limegreen" stroke-width="2"/><rect x="762.38" y="504" width="100" height="456.00" fill="none" stroke="limegreen" stroke-width="2"/><rect x="910.09" y="612" width="100" height="348.00" fill="none" stroke="limegreen" stroke-width="2"/><rect x="1057.8" y="588" width="100" height="372.00" fill="none" stroke="limegreen" stroke-width="2"/><rect x="1205.51" y="432" width="100" height="528.00" fill="none" stroke="limegreen" stroke-width="2"/><rect x="1353.22" y="372" width="100" height="588.00" fill="none" stroke="limegreen" stroke-width="2"/><rect x="1500.93" y="360" width="100" height="600.00" fill="none" stroke="limegreen" stroke-width="2"/><rect x="1648.64" y="360" width="100" height="600.00" fill="none" stroke="limegreen" stroke-width="2"/><rect x="1796.35" y="360" width="100" height="600.00" fill="none" stroke="limegreen" stroke-width="2"/>  </g><g><text x="221.54" y="206" font-family="Consolas" font-size="48" text-anchor="middle" fill="white">6.2</text><text x="369.25" y="170" font-family="Consolas" font-size="48" text-anchor="middle" fill="white">6.5</text><text x="516.96" y="890" font-family="Consolas" font-size="48" text-anchor="middle" fill="white">0.5</text><text x="664.67" y="338" font-family="Consolas" font-size="48" text-anchor="middle" fill="white">5.1</text><text x="812.38" y="494" font-family="Consolas" font-size="48" text-anchor="middle" fill="white">3.8</text><text x="960.09" y="602" font-family="Consolas" font-size="48" text-anchor="middle" fill="white">2.9</text><text x="1107.8" y="578" font-family="Consolas" font-size="48" text-anchor="middle" fill="white">3.1</text><text x="1255.51" y="422" font-family="Consolas" font-size="48" text-anchor="middle" fill="white">4.4</text><text x="1403.22" y="362" font-family="Consolas" font-size="48" text-anchor="middle" fill="white">4.9</text><text x="1550.93" y="350" font-family="Consolas" font-size="48" text-anchor="middle" fill="white">5</text><text x="1698.64" y="350" font-family="Consolas" font-size="48" text-anchor="middle" fill="white">5</text><text x="1846.35" y="350" font-family="Consolas" font-size="48" text-anchor="middle" fill="white">5</text> </g><g><text x="231.54" y="975" transform="rotate(270 221.54 960)" font-family="Consolas" font-size="50" fill="limegreen">2018</text><text x="379.25" y="975" transform="rotate(270 369.25 960)" font-family="Consolas" font-size="50" fill="limegreen">2019</text><text x="526.96" y="975" transform="rotate(270 516.96 960)" font-family="Consolas" font-size="50" fill="limegreen">2020</text><text x="674.67" y="975" transform="rotate(270 664.67 960)" font-family="Consolas" font-size="50" fill="limegreen">2021</text><text x="822.38" y="975" transform="rotate(270 812.38 960)" font-family="Consolas" font-size="50" fill="limegreen">2022</text><text x="970.09" y="975" transform="rotate(270 960.09 960)" font-family="Consolas" font-size="50" fill="limegreen">2023</text><text x="1117.8" y="975" transform="rotate(270 1107.8 960)" font-family="Consolas" font-size="50" fill="limegreen">2024</text><text x="1265.51" y="975" transform="rotate(270 1255.51 960)" font-family="Consolas" font-size="50" fill="limegreen">2025</text><text x="1413.22" y="975" transform="rotate(270 1403.22 960)" font-family="Consolas" font-size="50" fill="limegreen">2026</text><text x="1560.93" y="975" transform="rotate(270 1550.93 960)" font-family="Consolas" font-size="50" fill="limegreen">2027</text><text x="1708.64" y="975" transform="rotate(270 1698.64 960)" font-family="Consolas" font-size="50" fill="limegreen">2028</text><text x="1856.35" y="975" transform="rotate(270 1846.35 960)" font-family="Consolas" font-size="50" fill="limegreen">2029</text></g></g></svg>
