<svg xmlns="http://www.w3.org/2000/svg" width="1920" height="1080"> <rect width="100%" height="100%" fill="#000"/><g xmlns="http://www.w3.org/2000/svg" transform="translate(0,0) scale(1.0)"> <text  x="1080" y="60" font-family="Consolas" font-size="52" text-anchor="middle" fill="white">REAL  GDP ANNUAL PERCENT CHANGE (2018-2029) [IMF DATA]</text><text  x="1700" y="1050" font-family="Consolas" font-size="22" text-anchor="middle" fill="white">DESIGNED BY ZOOMIT WORLD</text><image x="180" y="-50" width="280" height="280" href="https://cdn.jsdelivr.net/gh/hampusborgos/country-flags@main/svg/bs.svg"></image><text x="70" y="180" font-family="Consolas" font-size="50" text-anchor="middle" fill="white">10%</text><text x="70" y="422.5" font-family="Consolas" font-size="50" text-anchor="middle" fill="white">5%</text><text x="70" y="665" font-family="Consolas" font-size="50" text-anchor="middle" fill="white">0%</text><text x="70" y="842.5" font-family="Consolas" font-size="50" text-anchor="middle" fill="white">-3.5%</text><text x="70" y="1020" font-family="Consolas" font-size="50" text-anchor="middle" fill="white">-7%</text><line  x1="141.54" y1="180" x2="141.54" y2="1020" stroke="white" stroke-width="2"/><line x1="141.54"  y1="665" x2="1920" y2="665" stroke="white" stroke-width="5"/><g><rect x="319.25" y="440" width="100" height="225.00" fill="none" stroke="limegreen" stroke-width="2"/><rect x="910.09" y="265" width="100" height="400.00" fill="none" stroke="limegreen" stroke-width="2"/><rect x="1057.8" y="180" width="100" height="485.00" fill="none" stroke="limegreen" stroke-width="2"/><rect x="1205.51" y="455" width="100" height="210.00" fill="none" stroke="limegreen" stroke-width="2"/><rect x="1353.22" y="540" width="100" height="125.00" fill="none" stroke="limegreen" stroke-width="2"/><rect x="1500.93" y="560" width="100" height="105.00" fill="none" stroke="limegreen" stroke-width="2"/><rect x="1648.64" y="565" width="100" height="100.00" fill="none" stroke="limegreen" stroke-width="2"/><rect x="1796.35" y="565" width="100" height="100.00" fill="none" stroke="limegreen" stroke-width="2"/> <rect x="171.54" y="665" width="100" height="30.00" fill="none" stroke="limegreen" stroke-width="2"/><rect x="466.96" y="665" width="100" height="155.00" fill="none" stroke="limegreen" stroke-width="2"/><rect x="614.67" y="665" width="100" height="355.00" fill="none" stroke="limegreen" stroke-width="2"/><rect x="762.38" y="665" width="100" height="265.00" fill="none" stroke="limegreen" stroke-width="2"/> </g><g><text x="369.25" y="430" font-family="Consolas" font-size="48" text-anchor="middle" fill="white">4.5</text><text x="960.09" y="255" font-family="Consolas" font-size="48" text-anchor="middle" fill="white">8</text><text x="1107.8" y="170" font-family="Consolas" font-size="48" text-anchor="middle" fill="white">9.7</text><text x="1255.51" y="445" font-family="Consolas" font-size="48" text-anchor="middle" fill="white">4.2</text><text x="1403.22" y="530" font-family="Consolas" font-size="48" text-anchor="middle" fill="white">2.5</text><text x="1550.93" y="550" font-family="Consolas" font-size="48" text-anchor="middle" fill="white">2.1</text><text x="1698.64" y="555" font-family="Consolas" font-size="48" text-anchor="middle" fill="white">2</text><text x="1846.35" y="555" font-family="Consolas" font-size="48" text-anchor="middle" fill="white">2</text> <text x="171.54" y="685" font-family="Consolas" font-size="48" ttext-anchor="middle" fill="white">-0.6</text><text x="466.96" y="810" font-family="Consolas" font-size="48" ttext-anchor="middle" fill="white">-3.1</text><text x="614.67" y="1010" font-family="Consolas" font-size="48" ttext-anchor="middle" fill="white">-7.1</text><text x="762.38" y="920" font-family="Consolas" font-size="48" ttext-anchor="middle" fill="white">-5.3</text></g><g><text x="231.54" y="680" transform="rotate(270 221.54 665)" font-family="Consolas" font-size="50" fill="limegreen">2018</text><text x="379.25" y="680" transform="rotate(270 369.25 665)" font-family="Consolas" font-size="50" fill="limegreen">2019</text><text x="526.96" y="680" transform="rotate(270 516.96 665)" font-family="Consolas" font-size="50" fill="limegreen">2020</text><text x="674.67" y="680" transform="rotate(270 664.67 665)" font-family="Consolas" font-size="50" fill="limegreen">2021</text><text x="822.38" y="680" transform="rotate(270 812.38 665)" font-family="Consolas" font-size="50" fill="limegreen">2022</text><text x="970.09" y="680" transform="rotate(270 960.09 665)" font-family="Consolas" font-size="50" fill="limegreen">2023</text><text x="1117.8" y="680" transform="rotate(270 1107.8 665)" font-family="Consolas" font-size="50" fill="limegreen">2024</text><text x="1265.51" y="680" transform="rotate(270 1255.51 665)" font-family="Consolas" font-size="50" fill="limegreen">2025</text><text x="1413.22" y="680" transform="rotate(270 1403.22 665)" font-family="Consolas" font-size="50" fill="limegreen">2026</text><text x="1560.93" y="680" transform="rotate(270 1550.93 665)" font-family="Consolas" font-size="50" fill="limegreen">2027</text><text x="1708.64" y="680" transform="rotate(270 1698.64 665)" font-family="Consolas" font-size="50" fill="limegreen">2028</text><text x="1856.35" y="680" transform="rotate(270 1846.35 665)" font-family="Consolas" font-size="50" fill="limegreen">2029</text></g></g></svg>
