<svg xmlns="http://www.w3.org/2000/svg" width="1920" height="1080"> <rect width="100%" height="100%" fill="#000"/><g xmlns="http://www.w3.org/2000/svg" transform="translate(0,0) scale(1.0)"> <text  x="1080" y="60" font-family="Consolas" font-size="52" text-anchor="middle" fill="white">REAL  GDP ANNUAL PERCENT CHANGE (2018-2029) [IMF DATA]</text><text  x="1700" y="1050" font-family="Consolas" font-size="22" text-anchor="middle" fill="white">DESIGNED BY ZOOMIT WORLD</text><image x="180" y="-50" width="280" height="280" href="https://cdn.jsdelivr.net/gh/hampusborgos/country-flags@main/svg/bs.svg"></image><text x="70" y="180" font-family="Consolas" font-size="50" text-anchor="middle" fill="white">4%</text><text x="70" y="551.162790697674" font-family="Consolas" font-size="50" text-anchor="middle" fill="white">2%</text><text x="70" y="922.325581395349" font-family="Consolas" font-size="50" text-anchor="middle" fill="white">0%</text><text x="70" y="971.162790697674" font-family="Consolas" font-size="50" text-anchor="middle" fill="white">0.5%</text><text x="70" y="1020" font-family="Consolas" font-size="50" text-anchor="middle" fill="white">1%</text><line  x1="141.54" y1="180" x2="141.54" y2="1020" stroke="white" stroke-width="2"/><line x1="141.54"  y1="922.325581395349" x2="1920" y2="922.325581395349" stroke="white" stroke-width="5"/><g><rect x="171.54" y="180" width="100" height="742.33" fill="none" stroke="limegreen" stroke-width="2"/><rect x="319.25" y="336.279069767442" width="100" height="586.05" fill="none" stroke="limegreen" stroke-width="2"/><rect x="466.96" y="726.976744186047" width="100" height="195.35" fill="none" stroke="limegreen" stroke-width="2"/><rect x="614.67" y="726.976744186047" width="100" height="195.35" fill="none" stroke="limegreen" stroke-width="2"/><rect x="762.38" y="824.651162790698" width="100" height="97.67" fill="none" stroke="limegreen" stroke-width="2"/><rect x="910.09" y="785.581395348837" width="100" height="136.74" fill="none" stroke="limegreen" stroke-width="2"/><rect x="1057.8" y="648.837209302326" width="100" height="273.49" fill="none" stroke="limegreen" stroke-width="2"/><rect x="1205.51" y="355.813953488372" width="100" height="566.51" fill="none" stroke="limegreen" stroke-width="2"/><rect x="1353.22" y="199.53488372093" width="100" height="722.79" fill="none" stroke="limegreen" stroke-width="2"/><rect x="1500.93" y="199.53488372093" width="100" height="722.79" fill="none" stroke="limegreen" stroke-width="2"/><rect x="1648.64" y="219.06976744186" width="100" height="703.26" fill="none" stroke="limegreen" stroke-width="2"/><rect x="1796.35" y="238.604651162791" width="100" height="683.72" fill="none" stroke="limegreen" stroke-width="2"/>  </g><g><text x="221.54" y="170" font-family="Consolas" font-size="48" text-anchor="middle" fill="white">3.8</text><text x="369.25" y="326.28" font-family="Consolas" font-size="48" text-anchor="middle" fill="white">3</text><text x="516.96" y="716.98" font-family="Consolas" font-size="48" text-anchor="middle" fill="white">1</text><text x="664.67" y="716.98" font-family="Consolas" font-size="48" text-anchor="middle" fill="white">1</text><text x="812.38" y="814.65" font-family="Consolas" font-size="48" text-anchor="middle" fill="white">0.5</text><text x="960.09" y="775.58" font-family="Consolas" font-size="48" text-anchor="middle" fill="white">0.7</text><text x="1107.8" y="638.84" font-family="Consolas" font-size="48" text-anchor="middle" fill="white">1.4</text><text x="1255.51" y="345.81" font-family="Consolas" font-size="48" text-anchor="middle" fill="white">2.9</text><text x="1403.22" y="189.53" font-family="Consolas" font-size="48" text-anchor="middle" fill="white">3.7</text><text x="1550.93" y="189.53" font-family="Consolas" font-size="48" text-anchor="middle" fill="white">3.7</text><text x="1698.64" y="209.07" font-family="Consolas" font-size="48" text-anchor="middle" fill="white">3.6</text><text x="1846.35" y="228.6" font-family="Consolas" font-size="48" text-anchor="middle" fill="white">3.5</text> </g><g><text x="231.54" y="937.325581395349" transform="rotate(270 221.54 922.325581395349)" font-family="Consolas" font-size="50" fill="limegreen">2018</text><text x="379.25" y="937.325581395349" transform="rotate(270 369.25 922.325581395349)" font-family="Consolas" font-size="50" fill="limegreen">2019</text><text x="526.96" y="937.325581395349" transform="rotate(270 516.96 922.325581395349)" font-family="Consolas" font-size="50" fill="limegreen">2020</text><text x="674.67" y="937.325581395349" transform="rotate(270 664.67 922.325581395349)" font-family="Consolas" font-size="50" fill="limegreen">2021</text><text x="822.38" y="937.325581395349" transform="rotate(270 812.38 922.325581395349)" font-family="Consolas" font-size="50" fill="limegreen">2022</text><text x="970.09" y="937.325581395349" transform="rotate(270 960.09 922.325581395349)" font-family="Consolas" font-size="50" fill="limegreen">2023</text><text x="1117.8" y="937.325581395349" transform="rotate(270 1107.8 922.325581395349)" font-family="Consolas" font-size="50" fill="limegreen">2024</text><text x="1265.51" y="937.325581395349" transform="rotate(270 1255.51 922.325581395349)" font-family="Consolas" font-size="50" fill="limegreen">2025</text><text x="1413.22" y="937.325581395349" transform="rotate(270 1403.22 922.325581395349)" font-family="Consolas" font-size="50" fill="limegreen">2026</text><text x="1560.93" y="937.325581395349" transform="rotate(270 1550.93 922.325581395349)" font-family="Consolas" font-size="50" fill="limegreen">2027</text><text x="1708.64" y="937.325581395349" transform="rotate(270 1698.64 922.325581395349)" font-family="Consolas" font-size="50" fill="limegreen">2028</text><text x="1856.35" y="937.325581395349" transform="rotate(270 1846.35 922.325581395349)" font-family="Consolas" font-size="50" fill="limegreen">2029</text></g></g></svg>
