<svg xmlns="http://www.w3.org/2000/svg" width="1920" height="1080"> <rect width="100%" height="100%" fill="#000"/><g xmlns="http://www.w3.org/2000/svg" transform="translate(0,0) scale(1.0)"> <text  x="1080" y="60" font-family="Consolas" font-size="52" text-anchor="middle" fill="white">REAL  GDP ANNUAL PERCENT CHANGE (2018-2029) [IMF DATA]</text><text  x="1700" y="1050" font-family="Consolas" font-size="22" text-anchor="middle" fill="white">DESIGNED BY ZOOMIT WORLD</text><image x="180" y="-50" width="280" height="280" href="https://cdn.jsdelivr.net/gh/hampusborgos/country-flags@main/svg/bs.svg"></image><text x="70" y="180" font-family="Consolas" font-size="50" text-anchor="middle" fill="white">15%</text><text x="70" y="355.760869565217" font-family="Consolas" font-size="50" text-anchor="middle" fill="white">7.5%</text><text x="70" y="531.521739130435" font-family="Consolas" font-size="50" text-anchor="middle" fill="white">0%</text><text x="70" y="775.760869565217" font-family="Consolas" font-size="50" text-anchor="middle" fill="white">-10.5%</text><text x="70" y="1020" font-family="Consolas" font-size="50" text-anchor="middle" fill="white">-21%</text><line  x1="141.54" y1="180" x2="141.54" y2="1020" stroke="white" stroke-width="2"/><line x1="141.54"  y1="531.521739130435" x2="1920" y2="531.521739130435" stroke="white" stroke-width="5"/><g><rect x="171.54" y="472.173913043478" width="100" height="59.35" fill="none" stroke="limegreen" stroke-width="2"/><rect x="614.67" y="180" width="100" height="351.52" fill="none" stroke="limegreen" stroke-width="2"/><rect x="762.38" y="285" width="100" height="246.52" fill="none" stroke="limegreen" stroke-width="2"/><rect x="910.09" y="472.173913043478" width="100" height="59.35" fill="none" stroke="limegreen" stroke-width="2"/><rect x="1057.8" y="488.152173913043" width="100" height="43.37" fill="none" stroke="limegreen" stroke-width="2"/><rect x="1205.51" y="492.717391304348" width="100" height="38.80" fill="none" stroke="limegreen" stroke-width="2"/><rect x="1353.22" y="495" width="100" height="36.52" fill="none" stroke="limegreen" stroke-width="2"/><rect x="1500.93" y="497.282608695652" width="100" height="34.24" fill="none" stroke="limegreen" stroke-width="2"/><rect x="1648.64" y="497.282608695652" width="100" height="34.24" fill="none" stroke="limegreen" stroke-width="2"/><rect x="1796.35" y="497.282608695652" width="100" height="34.24" fill="none" stroke="limegreen" stroke-width="2"/> <rect x="319.25" y="531.521739130435" width="100" height="31.96" fill="none" stroke="limegreen" stroke-width="2"/><rect x="466.96" y="531.521739130435" width="100" height="488.48" fill="none" stroke="limegreen" stroke-width="2"/> </g><g><text x="221.54" y="462.17" font-family="Consolas" font-size="48" text-anchor="middle" fill="white">2.6</text><text x="664.67" y="170" font-family="Consolas" font-size="48" text-anchor="middle" fill="white">15.4</text><text x="812.38" y="275" font-family="Consolas" font-size="48" text-anchor="middle" fill="white">10.8</text><text x="960.09" y="462.17" font-family="Consolas" font-size="48" text-anchor="middle" fill="white">2.6</text><text x="1107.8" y="478.15" font-family="Consolas" font-size="48" text-anchor="middle" fill="white">1.9</text><text x="1255.51" y="482.72" font-family="Consolas" font-size="48" text-anchor="middle" fill="white">1.7</text><text x="1403.22" y="485" font-family="Consolas" font-size="48" text-anchor="middle" fill="white">1.6</text><text x="1550.93" y="487.28" font-family="Consolas" font-size="48" text-anchor="middle" fill="white">1.5</text><text x="1698.64" y="487.28" font-family="Consolas" font-size="48" text-anchor="middle" fill="white">1.5</text><text x="1846.35" y="487.28" font-family="Consolas" font-size="48" text-anchor="middle" fill="white">1.5</text> <text x="319.25" y="553.478260869565" font-family="Consolas" font-size="48" ttext-anchor="middle" fill="white">-1.4</text><text x="466.96" y="1010" font-family="Consolas" font-size="48" ttext-anchor="middle" fill="white">-21.4</text></g><g><text x="231.54" y="546.521739130435" transform="rotate(270 221.54 531.521739130435)" font-family="Consolas" font-size="50" fill="limegreen">2018</text><text x="379.25" y="546.521739130435" transform="rotate(270 369.25 531.521739130435)" font-family="Consolas" font-size="50" fill="limegreen">2019</text><text x="526.96" y="546.521739130435" transform="rotate(270 516.96 531.521739130435)" font-family="Consolas" font-size="50" fill="limegreen">2020</text><text x="674.67" y="546.521739130435" transform="rotate(270 664.67 531.521739130435)" font-family="Consolas" font-size="50" fill="limegreen">2021</text><text x="822.38" y="546.521739130435" transform="rotate(270 812.38 531.521739130435)" font-family="Consolas" font-size="50" fill="limegreen">2022</text><text x="970.09" y="546.521739130435" transform="rotate(270 960.09 531.521739130435)" font-family="Consolas" font-size="50" fill="limegreen">2023</text><text x="1117.8" y="546.521739130435" transform="rotate(270 1107.8 531.521739130435)" font-family="Consolas" font-size="50" fill="limegreen">2024</text><text x="1265.51" y="546.521739130435" transform="rotate(270 1255.51 531.521739130435)" font-family="Consolas" font-size="50" fill="limegreen">2025</text><text x="1413.22" y="546.521739130435" transform="rotate(270 1403.22 531.521739130435)" font-family="Consolas" font-size="50" fill="limegreen">2026</text><text x="1560.93" y="546.521739130435" transform="rotate(270 1550.93 531.521739130435)" font-family="Consolas" font-size="50" fill="limegreen">2027</text><text x="1708.64" y="546.521739130435" transform="rotate(270 1698.64 531.521739130435)" font-family="Consolas" font-size="50" fill="limegreen">2028</text><text x="1856.35" y="546.521739130435" transform="rotate(270 1846.35 531.521739130435)" font-family="Consolas" font-size="50" fill="limegreen">2029</text></g></g></svg>
