<svg xmlns="http://www.w3.org/2000/svg" width="1920" height="1080"> <rect width="100%" height="100%" fill="#000"/><g xmlns="http://www.w3.org/2000/svg" transform="translate(0,0) scale(1.0)"> <text  x="1080" y="60" font-family="Consolas" font-size="52" text-anchor="middle" fill="white">REAL  GDP ANNUAL PERCENT CHANGE (2018-2029) [IMF DATA]</text><text  x="1700" y="1050" font-family="Consolas" font-size="22" text-anchor="middle" fill="white">DESIGNED BY ZOOMIT WORLD</text><image x="180" y="-50" width="280" height="280" href="https://cdn.jsdelivr.net/gh/hampusborgos/country-flags@main/svg/bs.svg"></image><text x="70" y="180" font-family="Consolas" font-size="50" text-anchor="middle" fill="white">7%</text><text x="70" y="339.886363636364" font-family="Consolas" font-size="50" text-anchor="middle" fill="white">3.5%</text><text x="70" y="499.772727272727" font-family="Consolas" font-size="50" text-anchor="middle" fill="white">0%</text><text x="70" y="759.886363636364" font-family="Consolas" font-size="50" text-anchor="middle" fill="white">-5.5%</text><text x="70" y="1020" font-family="Consolas" font-size="50" text-anchor="middle" fill="white">-11%</text><line  x1="141.54" y1="180" x2="141.54" y2="1020" stroke="white" stroke-width="2"/><line x1="141.54"  y1="499.772727272727" x2="1920" y2="499.772727272727" stroke="white" stroke-width="5"/><g><rect x="171.54" y="385.227272727273" width="100" height="114.55" fill="none" stroke="limegreen" stroke-width="2"/><rect x="319.25" y="404.318181818182" width="100" height="95.45" fill="none" stroke="limegreen" stroke-width="2"/><rect x="614.67" y="180" width="100" height="319.77" fill="none" stroke="limegreen" stroke-width="2"/><rect x="762.38" y="203.863636363636" width="100" height="295.91" fill="none" stroke="limegreen" stroke-width="2"/><rect x="910.09" y="370.909090909091" width="100" height="128.86" fill="none" stroke="limegreen" stroke-width="2"/><rect x="1057.8" y="361.363636363636" width="100" height="138.41" fill="none" stroke="limegreen" stroke-width="2"/><rect x="1205.51" y="399.545454545455" width="100" height="100.23" fill="none" stroke="limegreen" stroke-width="2"/><rect x="1353.22" y="413.863636363636" width="100" height="85.91" fill="none" stroke="limegreen" stroke-width="2"/><rect x="1500.93" y="423.409090909091" width="100" height="76.36" fill="none" stroke="limegreen" stroke-width="2"/><rect x="1648.64" y="423.409090909091" width="100" height="76.36" fill="none" stroke="limegreen" stroke-width="2"/><rect x="1796.35" y="423.409090909091" width="100" height="76.36" fill="none" stroke="limegreen" stroke-width="2"/> <rect x="466.96" y="499.772727272727" width="100" height="520.23" fill="none" stroke="limegreen" stroke-width="2"/> </g><g><text x="221.54" y="375.23" font-family="Consolas" font-size="48" text-anchor="middle" fill="white">2.4</text><text x="369.25" y="394.32" font-family="Consolas" font-size="48" text-anchor="middle" fill="white">2</text><text x="664.67" y="170" font-family="Consolas" font-size="48" text-anchor="middle" fill="white">6.7</text><text x="812.38" y="193.86" font-family="Consolas" font-size="48" text-anchor="middle" fill="white">6.2</text><text x="960.09" y="360.91" font-family="Consolas" font-size="48" text-anchor="middle" fill="white">2.7</text><text x="1107.8" y="351.36" font-family="Consolas" font-size="48" text-anchor="middle" fill="white">2.9</text><text x="1255.51" y="389.55" font-family="Consolas" font-size="48" text-anchor="middle" fill="white">2.1</text><text x="1403.22" y="403.86" font-family="Consolas" font-size="48" text-anchor="middle" fill="white">1.8</text><text x="1550.93" y="413.41" font-family="Consolas" font-size="48" text-anchor="middle" fill="white">1.6</text><text x="1698.64" y="413.41" font-family="Consolas" font-size="48" text-anchor="middle" fill="white">1.6</text><text x="1846.35" y="413.41" font-family="Consolas" font-size="48" text-anchor="middle" fill="white">1.6</text> <text x="466.96" y="1010" font-family="Consolas" font-size="48" ttext-anchor="middle" fill="white">-10.9</text></g><g><text x="231.54" y="514.772727272727" transform="rotate(270 221.54 499.772727272727)" font-family="Consolas" font-size="50" fill="limegreen">2018</text><text x="379.25" y="514.772727272727" transform="rotate(270 369.25 499.772727272727)" font-family="Consolas" font-size="50" fill="limegreen">2019</text><text x="526.96" y="514.772727272727" transform="rotate(270 516.96 499.772727272727)" font-family="Consolas" font-size="50" fill="limegreen">2020</text><text x="674.67" y="514.772727272727" transform="rotate(270 664.67 499.772727272727)" font-family="Consolas" font-size="50" fill="limegreen">2021</text><text x="822.38" y="514.772727272727" transform="rotate(270 812.38 499.772727272727)" font-family="Consolas" font-size="50" fill="limegreen">2022</text><text x="970.09" y="514.772727272727" transform="rotate(270 960.09 499.772727272727)" font-family="Consolas" font-size="50" fill="limegreen">2023</text><text x="1117.8" y="514.772727272727" transform="rotate(270 1107.8 499.772727272727)" font-family="Consolas" font-size="50" fill="limegreen">2024</text><text x="1265.51" y="514.772727272727" transform="rotate(270 1255.51 499.772727272727)" font-family="Consolas" font-size="50" fill="limegreen">2025</text><text x="1413.22" y="514.772727272727" transform="rotate(270 1403.22 499.772727272727)" font-family="Consolas" font-size="50" fill="limegreen">2026</text><text x="1560.93" y="514.772727272727" transform="rotate(270 1550.93 499.772727272727)" font-family="Consolas" font-size="50" fill="limegreen">2027</text><text x="1708.64" y="514.772727272727" transform="rotate(270 1698.64 499.772727272727)" font-family="Consolas" font-size="50" fill="limegreen">2028</text><text x="1856.35" y="514.772727272727" transform="rotate(270 1846.35 499.772727272727)" font-family="Consolas" font-size="50" fill="limegreen">2029</text></g></g></svg>
