<svg xmlns="http://www.w3.org/2000/svg" width="1920" height="1080"> <rect width="100%" height="100%" fill="#000"/><g xmlns="http://www.w3.org/2000/svg" transform="translate(0,0) scale(1.0)"> <text  x="1080" y="60" font-family="Consolas" font-size="52" text-anchor="middle" fill="white">REAL  GDP ANNUAL PERCENT CHANGE (2018-2029) [IMF DATA]</text><text  x="1700" y="1050" font-family="Consolas" font-size="22" text-anchor="middle" fill="white">DESIGNED BY ZOOMIT WORLD</text><image x="180" y="-50" width="280" height="280" href="https://cdn.jsdelivr.net/gh/hampusborgos/country-flags@main/svg/bs.svg"></image><text x="70" y="180" font-family="Consolas" font-size="50" text-anchor="middle" fill="white">3%</text><text x="70" y="278.823529411765" font-family="Consolas" font-size="50" text-anchor="middle" fill="white">1.5%</text><text x="70" y="377.647058823529" font-family="Consolas" font-size="50" text-anchor="middle" fill="white">0%</text><text x="70" y="698.823529411765" font-family="Consolas" font-size="50" text-anchor="middle" fill="white">-4.5%</text><text x="70" y="1020" font-family="Consolas" font-size="50" text-anchor="middle" fill="white">-9%</text><line  x1="141.54" y1="180" x2="141.54" y2="1020" stroke="white" stroke-width="2"/><line x1="141.54"  y1="377.647058823529" x2="1920" y2="377.647058823529" stroke="white" stroke-width="5"/><g><rect x="319.25" y="349.411764705882" width="100" height="28.24" fill="none" stroke="limegreen" stroke-width="2"/><rect x="762.38" y="271.764705882353" width="100" height="105.88" fill="none" stroke="limegreen" stroke-width="2"/><rect x="910.09" y="300" width="100" height="77.65" fill="none" stroke="limegreen" stroke-width="2"/><rect x="1057.8" y="264.705882352941" width="100" height="112.94" fill="none" stroke="limegreen" stroke-width="2"/><rect x="1205.51" y="208.235294117647" width="100" height="169.41" fill="none" stroke="limegreen" stroke-width="2"/><rect x="1353.22" y="307.058823529412" width="100" height="70.59" fill="none" stroke="limegreen" stroke-width="2"/><rect x="1500.93" y="222.352941176471" width="100" height="155.29" fill="none" stroke="limegreen" stroke-width="2"/><rect x="1648.64" y="180" width="100" height="197.65" fill="none" stroke="limegreen" stroke-width="2"/><rect x="1796.35" y="180" width="100" height="197.65" fill="none" stroke="limegreen" stroke-width="2"/> <rect x="171.54" y="377.647058823529" width="100" height="42.35" fill="none" stroke="limegreen" stroke-width="2"/><rect x="466.96" y="377.647058823529" width="100" height="642.35" fill="none" stroke="limegreen" stroke-width="2"/><rect x="614.67" y="377.647058823529" width="100" height="70.59" fill="none" stroke="limegreen" stroke-width="2"/> </g><g><text x="369.25" y="339.41" font-family="Consolas" font-size="48" text-anchor="middle" fill="white">0.4</text><text x="812.38" y="261.76" font-family="Consolas" font-size="48" text-anchor="middle" fill="white">1.5</text><text x="960.09" y="290" font-family="Consolas" font-size="48" text-anchor="middle" fill="white">1.1</text><text x="1107.8" y="254.71" font-family="Consolas" font-size="48" text-anchor="middle" fill="white">1.6</text><text x="1255.51" y="198.24" font-family="Consolas" font-size="48" text-anchor="middle" fill="white">2.4</text><text x="1403.22" y="297.06" font-family="Consolas" font-size="48" text-anchor="middle" fill="white">1</text><text x="1550.93" y="212.35" font-family="Consolas" font-size="48" text-anchor="middle" fill="white">2.2</text><text x="1698.64" y="170" font-family="Consolas" font-size="48" text-anchor="middle" fill="white">2.8</text><text x="1846.35" y="170" font-family="Consolas" font-size="48" text-anchor="middle" fill="white">2.8</text> <text x="171.54" y="410" font-family="Consolas" font-size="48" ttext-anchor="middle" fill="white">-0.6</text><text x="466.96" y="1010" font-family="Consolas" font-size="48" ttext-anchor="middle" fill="white">-9.1</text><text x="614.67" y="438.235294117647" font-family="Consolas" font-size="48" ttext-anchor="middle" fill="white">-1</text></g><g><text x="231.54" y="392.647058823529" transform="rotate(270 221.54 377.647058823529)" font-family="Consolas" font-size="50" fill="limegreen">2018</text><text x="379.25" y="392.647058823529" transform="rotate(270 369.25 377.647058823529)" font-family="Consolas" font-size="50" fill="limegreen">2019</text><text x="526.96" y="392.647058823529" transform="rotate(270 516.96 377.647058823529)" font-family="Consolas" font-size="50" fill="limegreen">2020</text><text x="674.67" y="392.647058823529" transform="rotate(270 664.67 377.647058823529)" font-family="Consolas" font-size="50" fill="limegreen">2021</text><text x="822.38" y="392.647058823529" transform="rotate(270 812.38 377.647058823529)" font-family="Consolas" font-size="50" fill="limegreen">2022</text><text x="970.09" y="392.647058823529" transform="rotate(270 960.09 377.647058823529)" font-family="Consolas" font-size="50" fill="limegreen">2023</text><text x="1117.8" y="392.647058823529" transform="rotate(270 1107.8 377.647058823529)" font-family="Consolas" font-size="50" fill="limegreen">2024</text><text x="1265.51" y="392.647058823529" transform="rotate(270 1255.51 377.647058823529)" font-family="Consolas" font-size="50" fill="limegreen">2025</text><text x="1413.22" y="392.647058823529" transform="rotate(270 1403.22 377.647058823529)" font-family="Consolas" font-size="50" fill="limegreen">2026</text><text x="1560.93" y="392.647058823529" transform="rotate(270 1550.93 377.647058823529)" font-family="Consolas" font-size="50" fill="limegreen">2027</text><text x="1708.64" y="392.647058823529" transform="rotate(270 1698.64 377.647058823529)" font-family="Consolas" font-size="50" fill="limegreen">2028</text><text x="1856.35" y="392.647058823529" transform="rotate(270 1846.35 377.647058823529)" font-family="Consolas" font-size="50" fill="limegreen">2029</text></g></g></svg>
