<svg xmlns="http://www.w3.org/2000/svg" width="1920" height="1080"> <rect width="100%" height="100%" fill="#000"/><g xmlns="http://www.w3.org/2000/svg" transform="translate(0,0) scale(1.0)"> <text  x="1080" y="60" font-family="Consolas" font-size="52" text-anchor="middle" fill="white">REAL  GDP ANNUAL PERCENT CHANGE (2018-2029) [IMF DATA]</text><text  x="1700" y="1050" font-family="Consolas" font-size="22" text-anchor="middle" fill="white">DESIGNED BY ZOOMIT WORLD</text><image x="180" y="-50" width="280" height="280" href="https://cdn.jsdelivr.net/gh/hampusborgos/country-flags@main/svg/bs.svg"></image><text x="70" y="180" font-family="Consolas" font-size="50" text-anchor="middle" fill="white">4%</text><text x="70" y="379.230769230769" font-family="Consolas" font-size="50" text-anchor="middle" fill="white">2%</text><text x="70" y="578.461538461539" font-family="Consolas" font-size="50" text-anchor="middle" fill="white">0%</text><text x="70" y="799.230769230769" font-family="Consolas" font-size="50" text-anchor="middle" fill="white">-2%</text><text x="70" y="1020" font-family="Consolas" font-size="50" text-anchor="middle" fill="white">-4%</text><line  x1="141.54" y1="180" x2="141.54" y2="1020" stroke="white" stroke-width="2"/><line x1="141.54"  y1="578.461538461539" x2="1920" y2="578.461538461539" stroke="white" stroke-width="5"/><g><rect x="171.54" y="460" width="100" height="118.46" fill="none" stroke="limegreen" stroke-width="2"/><rect x="319.25" y="470.769230769231" width="100" height="107.69" fill="none" stroke="limegreen" stroke-width="2"/><rect x="614.67" y="180" width="100" height="398.46" fill="none" stroke="limegreen" stroke-width="2"/><rect x="762.38" y="427.692307692308" width="100" height="150.77" fill="none" stroke="limegreen" stroke-width="2"/><rect x="1205.51" y="492.307692307692" width="100" height="86.15" fill="none" stroke="limegreen" stroke-width="2"/><rect x="1353.22" y="427.692307692308" width="100" height="150.77" fill="none" stroke="limegreen" stroke-width="2"/><rect x="1500.93" y="460" width="100" height="118.46" fill="none" stroke="limegreen" stroke-width="2"/><rect x="1648.64" y="492.307692307692" width="100" height="86.15" fill="none" stroke="limegreen" stroke-width="2"/><rect x="1796.35" y="503.076923076923" width="100" height="75.38" fill="none" stroke="limegreen" stroke-width="2"/> <rect x="466.96" y="578.461538461539" width="100" height="441.54" fill="none" stroke="limegreen" stroke-width="2"/><rect x="910.09" y="578.461538461539" width="100" height="32.31" fill="none" stroke="limegreen" stroke-width="2"/> </g><g><text x="221.54" y="450" font-family="Consolas" font-size="48" text-anchor="middle" fill="white">1.1</text><text x="369.25" y="460.77" font-family="Consolas" font-size="48" text-anchor="middle" fill="white">1</text><text x="664.67" y="170" font-family="Consolas" font-size="48" text-anchor="middle" fill="white">3.7</text><text x="812.38" y="417.69" font-family="Consolas" font-size="48" text-anchor="middle" fill="white">1.4</text><text x="1255.51" y="482.31" font-family="Consolas" font-size="48" text-anchor="middle" fill="white">0.8</text><text x="1403.22" y="417.69" font-family="Consolas" font-size="48" text-anchor="middle" fill="white">1.4</text><text x="1550.93" y="450" font-family="Consolas" font-size="48" text-anchor="middle" fill="white">1.1</text><text x="1698.64" y="482.31" font-family="Consolas" font-size="48" text-anchor="middle" fill="white">0.8</text><text x="1846.35" y="493.08" font-family="Consolas" font-size="48" text-anchor="middle" fill="white">0.7</text> <text x="466.96" y="1010" font-family="Consolas" font-size="48" ttext-anchor="middle" fill="white">-4.1</text><text x="910.09" y="600.769230769231" font-family="Consolas" font-size="48" ttext-anchor="middle" fill="white">-0.3</text></g><g><text x="231.54" y="593.461538461539" transform="rotate(270 221.54 578.461538461539)" font-family="Consolas" font-size="50" fill="limegreen">2018</text><text x="379.25" y="593.461538461539" transform="rotate(270 369.25 578.461538461539)" font-family="Consolas" font-size="50" fill="limegreen">2019</text><text x="526.96" y="593.461538461539" transform="rotate(270 516.96 578.461538461539)" font-family="Consolas" font-size="50" fill="limegreen">2020</text><text x="674.67" y="593.461538461539" transform="rotate(270 664.67 578.461538461539)" font-family="Consolas" font-size="50" fill="limegreen">2021</text><text x="822.38" y="593.461538461539" transform="rotate(270 812.38 578.461538461539)" font-family="Consolas" font-size="50" fill="limegreen">2022</text><text x="970.09" y="593.461538461539" transform="rotate(270 960.09 578.461538461539)" font-family="Consolas" font-size="50" fill="limegreen">2023</text><text x="1117.8" y="593.461538461539" transform="rotate(270 1107.8 578.461538461539)" font-family="Consolas" font-size="50" fill="limegreen">2024</text><text x="1265.51" y="593.461538461539" transform="rotate(270 1255.51 578.461538461539)" font-family="Consolas" font-size="50" fill="limegreen">2025</text><text x="1413.22" y="593.461538461539" transform="rotate(270 1403.22 578.461538461539)" font-family="Consolas" font-size="50" fill="limegreen">2026</text><text x="1560.93" y="593.461538461539" transform="rotate(270 1550.93 578.461538461539)" font-family="Consolas" font-size="50" fill="limegreen">2027</text><text x="1708.64" y="593.461538461539" transform="rotate(270 1698.64 578.461538461539)" font-family="Consolas" font-size="50" fill="limegreen">2028</text><text x="1856.35" y="593.461538461539" transform="rotate(270 1846.35 578.461538461539)" font-family="Consolas" font-size="50" fill="limegreen">2029</text></g></g></svg>
