<svg xmlns="http://www.w3.org/2000/svg" width="1920" height="1080"> <rect width="100%" height="100%" fill="#000"/><g xmlns="http://www.w3.org/2000/svg" transform="translate(0,0) scale(1.0)"> <text  x="1080" y="60" font-family="Consolas" font-size="52" text-anchor="middle" fill="white">REAL  GDP ANNUAL PERCENT CHANGE (2018-2029) [IMF DATA]</text><text  x="1700" y="1050" font-family="Consolas" font-size="22" text-anchor="middle" fill="white">DESIGNED BY ZOOMIT WORLD</text><image x="180" y="-50" width="280" height="280" href="https://cdn.jsdelivr.net/gh/hampusborgos/country-flags@main/svg/bs.svg"></image><text x="70" y="180" font-family="Consolas" font-size="50" text-anchor="middle" fill="white">2%</text><text x="70" y="305.263157894737" font-family="Consolas" font-size="50" text-anchor="middle" fill="white">1%</text><text x="70" y="430.526315789474" font-family="Consolas" font-size="50" text-anchor="middle" fill="white">0%</text><text x="70" y="725.263157894737" font-family="Consolas" font-size="50" text-anchor="middle" fill="white">-2%</text><text x="70" y="1020" font-family="Consolas" font-size="50" text-anchor="middle" fill="white">-4%</text><line  x1="141.54" y1="180" x2="141.54" y2="1020" stroke="white" stroke-width="2"/><line x1="141.54"  y1="430.526315789474" x2="1920" y2="430.526315789474" stroke="white" stroke-width="5"/><g><rect x="171.54" y="180" width="100" height="250.53" fill="none" stroke="limegreen" stroke-width="2"/><rect x="1205.51" y="283.157894736842" width="100" height="147.37" fill="none" stroke="limegreen" stroke-width="2"/><rect x="1353.22" y="209.473684210526" width="100" height="221.05" fill="none" stroke="limegreen" stroke-width="2"/><rect x="1500.93" y="209.473684210526" width="100" height="221.05" fill="none" stroke="limegreen" stroke-width="2"/><rect x="1648.64" y="209.473684210526" width="100" height="221.05" fill="none" stroke="limegreen" stroke-width="2"/><rect x="1796.35" y="209.473684210526" width="100" height="221.05" fill="none" stroke="limegreen" stroke-width="2"/> <rect x="319.25" y="430.526315789474" width="100" height="250.53" fill="none" stroke="limegreen" stroke-width="2"/><rect x="466.96" y="430.526315789474" width="100" height="486.32" fill="none" stroke="limegreen" stroke-width="2"/><rect x="614.67" y="430.526315789474" width="100" height="265.26" fill="none" stroke="limegreen" stroke-width="2"/><rect x="762.38" y="430.526315789474" width="100" height="250.53" fill="none" stroke="limegreen" stroke-width="2"/><rect x="910.09" y="430.526315789474" width="100" height="280.00" fill="none" stroke="limegreen" stroke-width="2"/><rect x="1057.8" y="430.526315789474" width="100" height="589.47" fill="none" stroke="limegreen" stroke-width="2"/> </g><g><text x="221.54" y="170" font-family="Consolas" font-size="48" text-anchor="middle" fill="white">1.7</text><text x="1255.51" y="273.16" font-family="Consolas" font-size="48" text-anchor="middle" fill="white">1</text><text x="1403.22" y="199.47" font-family="Consolas" font-size="48" text-anchor="middle" fill="white">1.5</text><text x="1550.93" y="199.47" font-family="Consolas" font-size="48" text-anchor="middle" fill="white">1.5</text><text x="1698.64" y="199.47" font-family="Consolas" font-size="48" text-anchor="middle" fill="white">1.5</text><text x="1846.35" y="199.47" font-family="Consolas" font-size="48" text-anchor="middle" fill="white">1.5</text> <text x="319.25" y="671.052631578947" font-family="Consolas" font-size="48" ttext-anchor="middle" fill="white">-1.7</text><text x="466.96" y="906.842105263158" font-family="Consolas" font-size="48" ttext-anchor="middle" fill="white">-3.3</text><text x="614.67" y="685.78947368421" font-family="Consolas" font-size="48" ttext-anchor="middle" fill="white">-1.8</text><text x="762.38" y="671.052631578947" font-family="Consolas" font-size="48" ttext-anchor="middle" fill="white">-1.7</text><text x="910.09" y="700.526315789474" font-family="Consolas" font-size="48" ttext-anchor="middle" fill="white">-1.9</text><text x="1057.8" y="1010" font-family="Consolas" font-size="48" ttext-anchor="middle" fill="white">-4</text></g><g><text x="231.54" y="445.526315789474" transform="rotate(270 221.54 430.526315789474)" font-family="Consolas" font-size="50" fill="limegreen">2018</text><text x="379.25" y="445.526315789474" transform="rotate(270 369.25 430.526315789474)" font-family="Consolas" font-size="50" fill="limegreen">2019</text><text x="526.96" y="445.526315789474" transform="rotate(270 516.96 430.526315789474)" font-family="Consolas" font-size="50" fill="limegreen">2020</text><text x="674.67" y="445.526315789474" transform="rotate(270 664.67 430.526315789474)" font-family="Consolas" font-size="50" fill="limegreen">2021</text><text x="822.38" y="445.526315789474" transform="rotate(270 812.38 430.526315789474)" font-family="Consolas" font-size="50" fill="limegreen">2022</text><text x="970.09" y="445.526315789474" transform="rotate(270 960.09 430.526315789474)" font-family="Consolas" font-size="50" fill="limegreen">2023</text><text x="1117.8" y="445.526315789474" transform="rotate(270 1107.8 430.526315789474)" font-family="Consolas" font-size="50" fill="limegreen">2024</text><text x="1265.51" y="445.526315789474" transform="rotate(270 1255.51 430.526315789474)" font-family="Consolas" font-size="50" fill="limegreen">2025</text><text x="1413.22" y="445.526315789474" transform="rotate(270 1403.22 430.526315789474)" font-family="Consolas" font-size="50" fill="limegreen">2026</text><text x="1560.93" y="445.526315789474" transform="rotate(270 1550.93 430.526315789474)" font-family="Consolas" font-size="50" fill="limegreen">2027</text><text x="1708.64" y="445.526315789474" transform="rotate(270 1698.64 430.526315789474)" font-family="Consolas" font-size="50" fill="limegreen">2028</text><text x="1856.35" y="445.526315789474" transform="rotate(270 1846.35 430.526315789474)" font-family="Consolas" font-size="50" fill="limegreen">2029</text></g></g></svg>
